# 3ds Max Wavefront OBJ Exporter v0.99 - (c)2007 guruware
# File Created: 27.09.2026 17:50:39

mtllib Devil.mtl

#
# object Box002
#

v  -51.3529 27.9366 62.7462
v  -54.0305 33.0817 62.7835
v  -52.1794 34.0769 62.0638
v  -49.4042 28.9842 61.9887
v  -50.3673 35.0766 62.8712
v  -47.4967 30.0366 62.8386
v  -51.4761 27.9508 67.5685
v  -49.5685 29.0031 68.4184
v  -52.3354 34.0949 68.1717
v  -54.1475 33.0952 67.3644
v  -47.6198 30.0507 67.6609
v  -50.4843 35.0901 67.4521
v  -49.8153 35.4158 65.1762
v  -46.9155 30.3937 65.2651
v  -52.0572 27.5937 65.1420
v  -54.6995 32.7560 65.0593
v  -48.4897 27.2878 62.3753
v  -50.2213 26.3569 63.0485
v  -46.7945 28.2230 63.1305
v  -46.9480 27.8616 63.4744
v  -48.3683 27.0781 62.8416
v  -49.8193 26.2980 63.4056
v  -46.2782 28.5403 65.2868
v  -46.9040 28.2356 67.4158
v  -47.0397 27.8722 67.0650
v  -46.5153 28.1275 65.2812
v  -48.6357 27.3047 68.0890
v  -50.3308 26.3695 67.3338
v  -49.9110 26.3086 66.9963
v  -48.4906 27.0921 67.6291
v  -50.8472 26.0522 65.1774
v  -50.3437 26.0427 65.1895
v  -47.9727 26.4451 63.0055
v  -49.3301 25.7154 63.5332
v  -46.6440 27.1781 63.5975
v  -46.2392 27.4269 65.2878
v  -46.7298 27.1880 66.9566
v  -48.0871 26.4583 67.4843
v  -49.4159 25.7252 66.8923
v  -49.8207 25.4765 65.2020
v  -45.1534 35.1040 45.6994
v  -50.9377 35.5332 45.6623
v  -50.8020 37.6159 44.9016
v  -45.0105 37.2965 44.8986
v  -50.7079 39.6989 45.6678
v  -44.9115 39.4892 45.7052
v  -45.1860 37.2976 51.3281
v  -45.0431 39.4901 50.5273
v  -50.9686 39.5748 51.0092
v  -50.7321 40.3936 47.9591
v  -44.9370 40.2206 48.1172
v  -45.2595 34.3736 48.1095
v  -51.0385 34.8393 47.9517
v  -45.2850 35.1049 50.5215
v  -51.0627 35.5340 50.2430
v  -43.0913 37.1901 45.3093
v  -43.2182 35.2417 46.0209
v  -43.0033 39.1386 46.0261
v  -42.7806 38.8252 46.3789
v  -42.8543 37.1924 45.7784
v  -42.9607 35.5600 46.3746
v  -43.0259 39.7885 48.1695
v  -43.1202 39.1394 50.3112
v  -42.8786 38.8258 49.9694
v  -42.7996 39.3697 48.1749
v  -43.2472 37.1911 51.0228
v  -43.3352 35.2425 50.3060
v  -43.0587 35.5606 49.9651
v  -42.9850 37.1933 50.5657
v  -43.3125 34.5926 48.1626
v  -43.0397 35.0161 48.1691
v  -42.1098 37.1994 45.9507
v  -42.2093 35.6722 46.5085
v  -42.0408 38.7268 46.5125
v  -42.0586 39.2362 48.1926
v  -42.1325 38.7274 49.8714
v  -42.2320 37.2002 50.4292
v  -42.3010 35.6728 49.8674
v  -42.2832 35.1634 48.1873
v  -41.2923 51.0657 53.4924
v  -41.7752 51.0612 53.7101
v  -41.7752 49.7557 53.7101
v  -41.2923 49.7601 53.4924
v  -42.2471 51.0568 53.4696
v  -42.2471 49.7513 53.4696
v  -41.9859 51.0564 42.5615
v  -41.5023 51.0608 42.3136
v  -41.5023 49.7553 42.3136
v  -41.9859 49.7509 42.5615
v  -41.0311 51.0652 42.5844
v  -41.0311 49.7597 42.5844
v  -42.0309 49.2185 44.4422
v  -41.5535 49.0454 44.4537
v  -41.5830 49.0454 45.6862
v  -42.0604 49.2185 45.6748
v  -41.0761 49.2273 44.4651
v  -41.1057 49.2273 45.6976
v  -42.1900 49.7494 44.4384
v  -42.2195 49.7494 45.6710
v  -40.9170 49.7612 44.4689
v  -40.9465 49.7612 45.7014
v  -41.2508 49.2277 51.7582
v  -41.7281 49.0459 51.7468
v  -41.6968 49.0459 50.4385
v  -41.2195 49.2277 50.4500
v  -42.2055 49.2189 51.7353
v  -42.1742 49.2189 50.4271
v  -41.0917 49.7616 51.7620
v  -41.0603 49.7616 50.4538
v  -42.3647 49.7498 51.7315
v  -42.3333 49.7498 50.4233
v  -41.2758 49.2277 52.8052
v  -41.7532 49.0459 52.7937
v  -42.2306 49.2189 52.7823
v  -41.1167 51.0671 52.8090
v  -41.1167 49.7616 52.8090
v  -42.3897 49.7498 52.7785
v  -42.3897 51.0554 52.7785
v  -42.0045 49.2185 43.3397
v  -41.5271 49.0454 43.3511
v  -41.0497 49.2273 43.3625
v  -42.1636 51.0549 43.3359
v  -42.1636 49.7494 43.3359
v  -40.8906 49.7612 43.3664
v  -40.8906 51.0667 43.3664
v  -41.7752 53.5581 53.7101
v  -42.2471 53.5537 53.4696
v  -41.2923 53.5625 53.4924
v  -41.2658 55.9557 53.5326
v  -41.7764 55.9512 53.7627
v  -42.2754 55.9468 53.5084
v  -41.1167 53.5639 52.8090
v  -41.2310 55.9557 52.0791
v  -41.0802 55.9571 52.8099
v  -41.2594 53.5625 52.1179
v  -42.2406 55.9468 52.0549
v  -41.7300 55.9512 51.8248
v  -41.7313 53.5581 51.8774
v  -42.2141 53.5536 52.0951
v  -42.3897 53.5522 52.7785
v  -42.4263 55.9454 52.7776
v  -41.5023 53.5576 42.3136
v  -41.0311 53.5620 42.5844
v  -41.9859 53.5532 42.5615
v  -42.0122 55.9464 42.5162
v  -41.5008 55.9508 42.2540
v  -41.0026 55.9552 42.5404
v  -42.1636 53.5518 43.3359
v  -42.0516 55.9464 44.1619
v  -42.2002 55.9449 43.3350
v  -42.0231 53.5532 44.1178
v  -41.0420 55.9552 44.1861
v  -41.5534 55.9508 44.4483
v  -41.5520 53.5576 44.3887
v  -41.0684 53.5620 44.1407
v  -40.8906 53.5635 43.3664
v  -40.8541 55.9567 43.3672
v  -41.1532 57.8924 48.8021
v  -41.6637 57.8880 49.0562
v  -41.6624 54.6716 48.9996
v  -41.1790 54.6759 48.7591
v  -42.1615 57.8835 48.7780
v  -42.1337 54.6671 48.7362
v  -41.1150 57.8920 47.2054
v  -40.9660 57.8937 48.0078
v  -41.0017 54.6773 48.0069
v  -41.1428 54.6756 47.2472
v  -42.1233 57.8832 47.1813
v  -41.6127 57.8876 46.9272
v  -41.6141 54.6712 46.9837
v  -42.0975 54.6668 47.2243
v  -42.3104 57.8819 47.9756
v  -42.2747 54.6655 47.9765
v  -40.9705 56.9517 52.8125
v  -41.1864 56.9503 53.6530
v  -41.1459 56.9503 51.9626
v  -41.1483 57.4374 51.9658
v  -40.9735 57.4387 52.8124
v  -41.1886 57.4374 53.6497
v  -42.5360 56.9400 52.7750
v  -42.3200 56.9414 51.9345
v  -42.3605 56.9414 53.6248
v  -42.3582 57.4296 53.6217
v  -42.5330 57.4283 52.7751
v  -42.3179 57.4296 51.9378
v  -42.3099 56.9395 43.3324
v  -42.0913 56.9410 42.3801
v  -42.1371 56.9410 44.2940
v  -42.1348 57.4292 44.2904
v  -42.3069 57.4279 43.3324
v  -42.0891 57.4292 42.3838
v  -40.7444 56.9513 43.3699
v  -40.9630 56.9498 44.3221
v  -40.9171 56.9498 42.4082
v  -40.9195 57.4369 42.4118
v  -40.7474 57.4382 43.3698
v  -40.9651 57.4369 44.3184
v  -41.7801 57.4335 53.9163
v  -41.7697 58.3057 53.4822
v  -42.1243 58.3035 53.3015
v  -41.4069 58.3080 53.3187
v  -41.2750 58.3088 52.8052
v  -41.3822 58.3080 52.2860
v  -41.7263 57.4335 51.6712
v  -41.7367 58.3057 52.1052
v  -42.0995 58.3035 52.2688
v  -42.2315 58.3027 52.7823
v  -41.4967 57.4330 42.0801
v  -41.5084 58.3053 42.5716
v  -41.1544 58.3076 42.7750
v  -41.8718 58.3030 42.7579
v  -42.0053 58.3023 43.3397
v  -41.8998 58.3030 43.9272
v  -41.5575 57.4330 44.6222
v  -41.5458 58.3053 44.1307
v  -41.1824 58.3076 43.9444
v  -41.0489 58.3083 43.3626
v  -40.8589 59.1309 48.0104
v  -41.0759 59.1296 48.9313
v  -41.0316 59.1293 47.0801
v  -41.0357 59.6076 47.0863
v  -40.8642 59.6091 48.0102
v  -41.0797 59.6079 48.9249
v  -42.4175 59.1191 47.9730
v  -42.2006 59.1205 47.0521
v  -42.2449 59.1208 48.9033
v  -42.2408 59.6002 48.8971
v  -42.4123 59.5987 47.9732
v  -42.1967 59.5999 47.0585
v  -41.7802 56.9459 53.9206
v  -41.7262 56.9459 51.6669
v  -41.4966 56.9454 42.0752
v  -41.5577 56.9454 44.6271
v  -41.6678 59.1253 49.2258
v  -41.6676 59.6041 49.2174
v  -41.6087 59.1248 46.7576
v  -41.6089 59.6037 46.7659
v  -41.6562 60.5452 48.7400
v  -42.0061 60.5429 48.5445
v  -41.2973 60.5475 48.5614
v  -41.1657 60.5481 48.0030
v  -41.2704 60.5473 47.4389
v  -41.6203 60.5450 47.2433
v  -41.9792 60.5428 47.4219
v  -42.1108 60.5421 47.9804
v  -53.6638 36.0664 52.2242
v  -55.9728 36.0627 50.6649
v  -53.1515 39.5040 56.9824
v  -53.4679 40.1071 55.1780
v  -54.3035 39.8665 55.9644
v  -54.1231 39.5228 56.9928
v  -55.3391 39.6050 54.5423
v  -55.3699 39.5803 55.6021
v  -57.0194 40.1520 55.1747
v  -56.3275 39.8921 55.9625
v  -57.6802 39.6050 57.0101
v  -56.7041 39.5803 57.0085
v  -57.0990 40.1520 58.8471
v  -56.3728 39.8921 58.0555
v  -55.4494 39.6050 59.4840
v  -55.4327 39.5803 58.4185
v  -53.5516 40.1071 58.8234
v  -54.3512 39.8665 58.0420
v  -54.5655 42.7263 55.3804
v  -54.6088 41.7202 57.1896
v  -55.3235 42.7263 55.3804
v  -56.0816 42.7263 55.3804
v  -57.0648 42.4852 56.9648
v  -56.1682 42.7263 58.9988
v  -55.4102 42.7263 58.9988
v  -54.6521 42.7263 58.9988
v  -56.0476 4.6111 55.9900
v  -56.4722 5.0134 66.3418
v  -62.6728 5.3262 63.1984
v  -65.3186 5.0134 55.9666
v  -55.6317 5.0134 45.8504
v  -62.0897 5.3262 48.9820
v  -49.4379 5.3262 49.1589
v  -46.7854 5.0134 56.2257
v  -50.0210 5.3262 63.3752
v  -56.2594 11.2059 64.7408
v  -59.3892 11.2059 62.5633
v  -53.0290 11.2059 62.7156
v  -53.8773 19.9789 61.5860
v  -56.2221 19.9789 63.1850
v  -58.4878 19.9789 61.4756
v  -51.8181 11.2059 56.4370
v  -52.7271 11.2059 50.1077
v  -53.6396 19.9789 51.6609
v  -52.9900 19.9789 56.6418
v  -55.8569 11.2059 47.9303
v  -59.0873 11.2059 49.9554
v  -58.2502 19.9789 51.5505
v  -55.9053 19.9789 49.9515
v  -60.2982 11.2059 56.2340
v  -59.1374 19.9789 56.4946
v  -56.2093 28.6564 62.6471
v  -58.1806 28.6564 61.0987
v  -54.1661 28.6564 61.1949
v  -53.8779 36.0659 61.1937
v  -56.2565 36.0610 62.6243
v  -58.3553 35.7525 61.0783
v  -53.3892 28.6564 56.7099
v  -53.9505 28.6564 52.1929
v  -52.9608 36.1349 56.7530
v  -55.9219 28.6564 50.6445
v  -57.9650 28.6564 52.0967
v  -58.1421 35.7550 52.1088
v  -58.7419 28.6564 56.5817
v  -58.9601 35.6511 56.5765
v  -56.1757 40.9454 63.8085
v  -52.9950 41.0350 61.2341
v  -52.8894 42.9754 61.6405
v  -54.9278 43.6496 62.3537
v  -59.0003 42.6230 62.5514
v  -58.1497 44.0515 61.9936
v  -60.1871 41.6434 61.0290
v  -58.8998 39.7812 61.0598
v  -56.1240 41.0219 50.6685
v  -58.6917 39.7913 52.1010
v  -59.9832 41.6592 52.0701
v  -58.7347 42.6359 50.6060
v  -54.6739 43.6513 51.0802
v  -57.9177 44.0548 51.2941
v  -52.6639 42.9762 51.9263
v  -52.7832 41.0367 52.2754
v  -59.6404 39.3754 56.5602
v  -60.4910 41.3253 56.5398
v  -54.2130 44.5277 52.2221
v  -54.3916 43.8245 53.3509
v  -52.4760 43.2326 53.5984
v  -51.5334 43.7235 53.4221
v  -57.5869 44.5277 53.3073
v  -57.4255 43.8245 54.2228
v  -60.1248 44.2711 61.0654
v  -60.4083 43.5011 62.5177
v  -61.0867 43.1182 61.0075
v  -60.9127 43.9013 59.8652
v  -60.1400 43.5123 50.5724
v  -60.8803 43.1294 52.0486
v  -59.9244 44.2739 52.1064
v  -60.7617 43.9063 53.2290
v  -61.2200 42.9962 56.5224
v  -61.1375 44.1449 56.5593
v  -54.4197 44.5277 61.4803
v  -54.5533 43.8245 60.5963
v  -57.5416 43.8245 59.6869
v  -57.7349 44.5277 60.2689
v  -51.6954 43.7235 60.3477
v  -52.6316 43.2326 60.3170
v  -59.5539 44.5277 56.7019
v  -58.6818 43.8245 56.9323
v  -51.6495 41.3109 56.8829
v  -52.3267 41.6138 54.5305
v  -52.4415 41.6138 59.4364
v  -58.3911 41.7147 57.0091
v  -57.4740 41.7147 54.5269
v  -57.5795 41.7147 59.4936
v  -55.0072 41.7147 60.3046
v  -54.8604 41.7147 53.7230
v  -54.9753 36.6950 62.9517
v  -55.5511 37.1551 63.4203
v  -52.9870 38.5514 63.4817
v  -53.0689 38.5608 66.6881
v  -55.0816 39.1843 67.1123
v  -55.6330 37.1645 66.6267
v  -47.4972 25.6071 65.2577
v  -48.9734 25.0869 65.2223
v  -48.6970 25.4371 63.9841
v  -47.5875 25.8133 63.5749
v  -46.2873 26.5497 65.2866
v  -46.7073 26.5206 64.0317
v  -46.7709 26.5279 66.5199
v  -47.6733 25.8232 66.9340
v  -48.7606 25.4444 66.4723
v  -53.3649 40.0841 65.0718
v  -56.6919 38.2723 64.9922
v  -56.6156 37.9355 45.7172
v  -55.2087 36.3949 46.2333
v  -55.0478 39.3107 46.2371
v  -41.1726 37.2090 48.2139
v  -41.5064 35.6794 48.2059
v  -41.6448 36.0734 46.9577
v  -41.3764 37.2064 46.5284
v  -41.3380 38.7340 48.2099
v  -41.5200 38.3360 46.9607
v  -41.5879 38.3365 49.4488
v  -41.4680 37.2070 49.8873
v  -41.7127 36.0738 49.4458
v  -56.5680 39.8276 47.7999
v  -55.1353 39.3113 49.4434
v  -58.6014 38.0424 47.7447
v  -56.7767 36.0442 47.7949
v  -57.9238 39.5852 49.8776
v  -41.3425 5.8087 48.0057
v  -41.3976 9.8141 48.7599
v  -41.7752 24.1208 48.5541
v  -41.8568 9.8095 47.9925
v  -41.3613 9.8138 47.2480
v  -41.7484 24.1205 47.4341
v  -41.0412 24.1270 47.4511
v  -40.9021 9.8184 48.0154
v  -41.0680 24.1273 48.5710
v  -41.6382 61.7175 47.9917
v  -41.7679 61.4236 47.9886
v  -41.8070 61.1955 48.2453
v  -41.6432 61.4245 48.1970
v  -41.5086 61.4252 47.9948
v  -41.4818 61.1975 48.2531
v  -41.4694 61.1975 47.7380
v  -41.0793 56.0501 47.9803
v  -41.2407 55.8211 47.7303
v  -41.5145 33.0247 49.0066
v  -41.9858 33.0203 48.7432
v  -41.0311 33.0291 48.7661
v  -41.1057 46.6010 49.0825
v  -41.6340 45.0406 49.3611
v  -42.1750 46.5911 49.0569
v  -40.8539 33.0304 48.0139
v  -40.9949 33.0288 47.2542
v  -41.0547 46.6006 46.9513
v  -40.9648 45.2237 48.0087
v  -41.4662 33.0243 46.9907
v  -41.9496 33.0199 47.2313
v  -42.1240 46.5907 46.9257
v  -41.5694 45.0401 46.6611
v  -42.1269 33.0186 47.9834
v  -42.2378 45.2119 47.9782
v  -42.1190 49.3581 53.2943
v  -41.7697 49.2233 53.4810
v  -41.4118 49.3646 53.3113
v  -41.0017 49.7614 48.0069
v  -41.0285 49.7616 49.1226
v  -40.9759 49.7612 46.9266
v  -41.0783 51.0295 46.9502
v  -41.0017 51.3453 48.0069
v  -41.1294 51.0299 49.0814
v  -41.1597 49.3642 42.7832
v  -41.5085 49.2229 42.5730
v  -41.8669 49.3577 42.7662
v  -42.2747 49.7496 47.9765
v  -42.2489 49.7495 46.8961
v  -42.3015 49.7498 49.0921
v  -42.1987 51.0200 49.0558
v  -42.2747 51.3335 47.9765
v  -42.1476 51.0196 46.9246
v  -42.0604 50.2833 45.6748
v  -42.0876 50.8414 44.4175
v  -41.5830 50.4652 45.6862
v  -41.6063 51.5167 46.6594
v  -41.1057 50.2921 45.6976
v  -41.0183 50.8513 44.4431
v  -41.5597 51.2383 44.7130
v  -41.2195 50.2925 50.4500
v  -41.1946 50.8518 51.8066
v  -41.6968 50.4656 50.4385
v  -41.6710 51.5171 49.3594
v  -42.1742 50.2837 50.4271
v  -42.2639 50.8419 51.7810
v  -41.7227 51.2387 51.5177
v  -41.7532 59.3703 52.7937
v  -41.7486 59.1042 52.6018
v  -41.9130 58.8961 52.5515
v  -41.8865 59.1033 52.7905
v  -41.7578 59.1042 52.9856
v  -41.9244 58.8961 53.0281
v  -41.5934 58.8982 53.0360
v  -41.6199 59.1050 52.7969
v  -41.5820 58.8982 52.5594
v  -41.5271 59.3698 43.3511
v  -41.5323 59.1037 43.5684
v  -41.3681 58.8978 43.6249
v  -41.3938 59.1046 43.3543
v  -41.5219 59.1037 43.1338
v  -41.3551 58.8978 43.0853
v  -41.6862 58.8957 43.0774
v  -41.6604 59.1029 43.3479
v  -41.6991 58.8957 43.6170
v  -53.0992 47.7440 58.2927
v  -52.8785 47.3969 58.2959
v  -52.6617 47.4542 58.5336
v  -52.8257 47.7241 58.6133
v  -52.8706 48.0211 58.2960
v  -52.7061 47.9254 58.5329
v  -52.6776 47.9175 58.0641
v  -52.7966 47.7171 57.9803
v  -52.6412 47.4540 58.0647
v  -50.9900 47.4389 58.3228
v  -51.2438 47.4936 58.6359
v  -51.4899 47.2883 58.5502
v  -51.2966 47.1728 58.3184
v  -51.2147 47.4931 58.0029
v  -51.4694 47.2880 58.0813
v  -51.0536 48.3757 58.0052
v  -50.9534 48.3608 58.3233
v  -51.0866 48.3760 58.6381
v  -52.1018 47.1837 58.3069
v  -52.0777 47.3023 58.6240
v  -52.0486 47.3018 57.9910
v  -52.2993 48.0434 58.3041
v  -52.1876 47.9403 57.9890
v  -52.2349 47.9499 58.6217
v  -51.6890 48.5036 58.6295
v  -51.7359 48.5279 58.3121
v  -51.6249 48.4955 57.9970
v  -51.2447 54.0230 58.3191
v  -51.4467 51.9199 58.3163
v  -51.4202 51.4993 58.5512
v  -51.2692 52.0186 58.6355
v  -51.1059 51.6237 58.5557
v  -51.0426 52.1296 58.3220
v  -51.0765 51.6291 58.0869
v  -51.2201 52.0309 58.0028
v  -51.3760 51.5082 58.0827
v  -51.9227 47.6559 57.8872
v  -51.3882 48.4203 57.8948
v  -51.9713 47.6644 58.7311
v  -51.4523 48.4280 58.7385
v  -50.9582 50.3178 58.3232
v  -51.0467 50.3003 58.6387
v  -51.0129 50.3023 58.0057
v  -51.2110 50.2555 57.8973
v  -51.4259 50.2068 57.9999
v  -51.5311 50.1854 58.3151
v  -51.4931 50.2037 58.6323
v  -51.2783 50.2543 58.7409
v  -53.6339 47.6811 55.8356
v  -53.4131 47.3404 55.8388
v  -53.1963 47.3978 56.0764
v  -53.3603 47.6612 56.1562
v  -53.4052 47.9581 55.8389
v  -53.2407 47.8625 56.0758
v  -53.2122 47.8611 55.6070
v  -53.3312 47.6607 55.5232
v  -53.1758 47.3975 55.6075
v  -51.5246 47.3824 55.8657
v  -51.7784 47.4372 56.1787
v  -52.0245 47.2318 56.0931
v  -51.8312 47.1164 55.8613
v  -51.7493 47.4367 55.5457
v  -52.0040 47.2316 55.6242
v  -51.5882 48.3193 55.5480
v  -51.4880 48.3044 55.8662
v  -51.6212 48.3195 56.1810
v  -52.6364 47.1273 55.8498
v  -52.6123 47.2458 56.1669
v  -52.5832 47.2453 55.5339
v  -52.8339 47.9804 55.8470
v  -52.7222 47.8839 55.5319
v  -52.7695 47.8869 56.1646
v  -52.2236 48.4406 56.1724
v  -52.2705 48.4650 55.8550
v  -52.1595 48.4390 55.5399
v  -51.7793 53.9666 55.8620
v  -51.9813 51.8634 55.8591
v  -51.9548 51.4429 56.0941
v  -51.8038 51.9622 56.1784
v  -51.6405 51.5672 56.0986
v  -51.5772 52.0731 55.8649
v  -51.6111 51.5726 55.6298
v  -51.7547 51.9744 55.5457
v  -51.9106 51.4517 55.6256
v  -52.4574 47.5994 55.4301
v  -51.9228 48.3638 55.4377
v  -52.5059 47.6015 56.2739
v  -51.9869 48.3650 56.2813
v  -51.4928 50.2614 55.8661
v  -51.5813 50.2439 56.1815
v  -51.5475 50.2458 55.5486
v  -51.7456 50.1990 55.4402
v  -51.9605 50.1504 55.5427
v  -52.0657 50.1290 55.8579
v  -52.0277 50.1407 56.1752
v  -51.8129 50.1913 56.2838
v  -53.3662 43.5089 55.7270
v  -53.1449 42.7263 57.2247
v  -53.4376 43.5089 58.7100
v  -56.1249 49.7692 57.1896
v  -57.6902 48.7631 57.1348
v  -57.0204 47.9805 59.0975
v  -56.1927 48.7631 60.0205
v  -52.3182 48.7631 57.2445
v  -54.6088 49.7692 57.1896
v  -54.6766 48.7631 60.0205
v  -53.0811 47.9805 59.1729
v  -52.9880 47.9805 55.2818
v  -54.5410 48.7631 54.3588
v  -56.0571 48.7631 54.3588
v  -56.9273 47.9805 55.2064
v  -56.1990 45.7447 60.2830
v  -57.3324 45.7447 59.4647
v  -56.6422 43.5089 58.6523
v  -52.7871 45.7447 59.5546
v  -54.6828 45.7447 60.2830
v  -52.1058 45.7447 57.2496
v  -52.6760 45.7447 54.9146
v  -54.5347 45.7447 54.0963
v  -57.2213 45.7447 54.8247
v  -56.0508 45.7447 54.0963
v  -56.5707 43.5089 55.6692
v  -57.9026 45.7447 57.1297
v  -57.4599 43.7284 57.1546
v  -52.7114 45.3956 57.1569
v  -52.6812 44.7985 57.1576
v  -52.5796 44.9368 57.4622
v  -52.6087 45.3797 57.5672
v  -52.5167 45.9609 57.1615
v  -52.4578 45.7978 57.4651
v  -52.4433 45.7978 56.8612
v  -52.5892 45.3797 56.7519
v  -52.5652 44.9368 56.8583
v  -49.1017 45.4996 57.1773
v  -50.2217 45.2837 57.4094
v  -50.3053 45.0441 57.3468
v  -50.2633 44.9506 57.1747
v  -50.2970 45.0441 57.0007
v  -50.2272 45.5375 57.0024
v  -50.1690 45.6168 57.1769
v  -50.2355 45.5375 57.3485
v  -52.3712 44.5569 57.1650
v  -52.3535 44.7507 57.5733
v  -52.3340 44.7507 56.7580
v  -52.2485 45.3319 56.6241
v  -52.1695 45.9131 56.7620
v  -50.2105 45.2837 56.9422
v  -52.1518 46.1068 57.1703
v  -52.1890 45.9131 57.5773
v  -52.2745 45.3319 57.7112
v  -53.9683 45.1816 58.2059
v  -53.9790 44.6905 58.2057
v  -53.9219 44.8093 58.4385
v  -53.9181 45.1735 58.5196
v  -53.8423 45.6564 58.2090
v  -53.8207 45.5248 58.4409
v  -53.8096 45.5248 57.9783
v  -53.9031 45.1735 57.8951
v  -53.9108 44.8206 57.9759
v  -53.7276 45.1489 57.7951
v  -53.6617 45.6319 57.9008
v  -53.5532 45.4885 57.9844
v  -53.6464 45.7929 58.2136
v  -53.6767 45.6319 58.5254
v  -53.4961 45.6009 58.2172
v  -55.2928 45.7447 54.0963
v  -55.2990 48.7631 54.3588
v  -55.3668 49.7692 57.1896
v  -55.4346 48.7631 60.0205
v  -55.4409 45.7447 60.2830
v  -52.3658 46.4304 56.1561
v  -52.2081 46.2342 56.5780
v  -52.2818 46.7165 56.2658
v  -52.4099 47.1112 55.5689
v  -52.3596 46.4101 55.6164
v  -52.3361 45.9782 56.0202
v  -52.2101 45.9071 56.3641
v  -51.9113 46.4322 56.0515
v  -51.9410 46.7179 56.1874
v  -51.8673 46.2356 56.4995
v  -51.9953 45.9796 55.9418
v  -51.9577 45.9081 56.3060
v  -52.1072 46.4112 55.5583
v  -52.0690 47.1126 55.4904
v  -52.0648 45.7825 56.4160
v  -52.0040 46.1695 56.6838
v  -52.1747 45.8836 55.9401
v  -52.2666 46.3874 55.4428
v  -52.2731 47.1774 55.3847
v  -52.1024 46.8125 56.2675
v  -52.4830 46.4304 58.0108
v  -52.3939 46.7165 57.9052
v  -52.3053 46.2342 57.5970
v  -52.5551 47.1112 58.5952
v  -52.4598 45.9782 58.1479
v  -52.5027 46.4101 58.5502
v  -52.3176 45.9071 57.8105
v  -52.0341 46.4322 58.1370
v  -51.9686 46.2356 57.6916
v  -52.0572 46.7179 57.9999
v  -52.1232 45.9796 58.2426
v  -52.0682 45.9081 57.8806
v  -52.2184 47.1126 58.6899
v  -52.2533 46.4112 58.6203
v  -52.1699 45.7825 57.7656
v  -52.0964 46.1695 57.5011
v  -52.3025 45.8836 58.2357
v  -52.4180 46.3874 58.7281
v  -52.4273 47.1774 58.7858
v  -52.2146 46.8125 57.9121
v  -35.7857 0.0000 63.0724
v  -38.7771 0.0000 68.2536
v  -43.3601 0.0000 72.0992
v  -48.9820 0.0000 74.1454
v  -54.9647 0.0000 74.1454
v  -60.5866 0.0000 72.0992
v  -65.1696 0.0000 68.2535
v  -68.1610 0.0000 63.0724
v  -69.1999 0.0000 57.1805
v  -68.1610 0.0000 51.2887
v  -65.1696 0.0000 46.1076
v  -60.5866 0.0000 42.2619
v  -54.9647 0.0000 40.2157
v  -48.9820 0.0000 40.2157
v  -43.3601 0.0000 42.2619
v  -38.7771 0.0000 46.1076
v  -35.7857 0.0000 51.2887
v  -34.7468 0.0000 57.1805
v  -35.7857 1.1653 51.2887
v  -34.7468 1.1653 57.1805
v  -38.7771 1.1653 46.1076
v  -43.3601 1.1653 42.2619
v  -48.9820 1.1653 40.2157
v  -54.9647 1.1653 40.2157
v  -60.5866 1.1653 42.2619
v  -65.1696 1.1653 46.1076
v  -68.1610 1.1653 51.2887
v  -69.1999 1.1653 57.1805
v  -68.1610 1.1653 63.0724
v  -65.1696 1.1653 68.2535
v  -60.5866 1.1653 72.0992
v  -54.9647 1.1653 74.1454
v  -48.9820 1.1653 74.1454
v  -43.3601 1.1653 72.0992
v  -38.7771 1.1653 68.2536
v  -35.7857 1.1653 63.0724
v  -35.7857 2.3306 51.2887
v  -34.7468 2.3306 57.1805
v  -38.7771 2.3306 46.1076
v  -43.3601 2.3306 42.2619
v  -48.9820 2.3306 40.2157
v  -54.9647 2.3306 40.2157
v  -60.5866 2.3306 42.2619
v  -65.1696 2.3306 46.1076
v  -68.1610 2.3306 51.2887
v  -69.1999 2.3306 57.1805
v  -68.1610 2.3306 63.0724
v  -65.1696 2.3306 68.2535
v  -60.5866 2.3306 72.0992
v  -54.9647 2.3306 74.1454
v  -48.9820 2.3306 74.1454
v  -43.3601 2.3306 72.0992
v  -38.7771 2.3306 68.2536
v  -35.7857 2.3306 63.0724
v  -35.7857 3.4960 51.2887
v  -34.7468 3.4960 57.1805
v  -38.7771 3.4960 46.1076
v  -43.3601 3.4960 42.2619
v  -48.9820 3.4960 40.2157
v  -54.9647 3.4960 40.2157
v  -60.5866 3.4960 42.2619
v  -65.1696 3.4960 46.1076
v  -68.1610 3.4960 51.2887
v  -69.1999 3.4960 57.1805
v  -68.1610 3.4960 63.0724
v  -65.1696 3.4960 68.2535
v  -60.5866 3.4960 72.0992
v  -54.9647 3.4960 74.1454
v  -48.9820 3.4960 74.1454
v  -43.3601 3.4960 72.0992
v  -38.7771 3.4960 68.2536
v  -35.7857 3.4960 63.0724
v  -35.7857 4.6613 51.2887
v  -34.7468 4.6613 57.1805
v  -38.7771 4.6613 46.1076
v  -43.3601 4.6613 42.2619
v  -48.9820 4.6613 40.2157
v  -54.9647 4.6613 40.2157
v  -60.5866 4.6613 42.2619
v  -65.1696 4.6613 46.1076
v  -68.1610 4.6613 51.2887
v  -69.1999 4.6613 57.1805
v  -68.1610 4.6613 63.0724
v  -65.1696 4.6613 68.2535
v  -60.5866 4.6613 72.0992
v  -54.9647 4.6613 74.1454
v  -48.9820 4.6613 74.1454
v  -43.3601 4.6613 72.0992
v  -38.7771 4.6613 68.2536
v  -35.7857 4.6613 63.0724
v  -35.7857 5.8266 51.2887
v  -34.7468 5.8266 57.1805
v  -38.7771 5.8266 46.1076
v  -43.3601 5.8266 42.2619
v  -48.9820 5.8266 40.2157
v  -54.9647 5.8266 40.2157
v  -60.5866 5.8266 42.2619
v  -65.1696 5.8266 46.1076
v  -68.1610 5.8266 51.2887
v  -69.1999 5.8266 57.1805
v  -68.1610 5.8266 63.0724
v  -65.1696 5.8266 68.2535
v  -60.5866 5.8266 72.0992
v  -54.9647 5.8266 74.1454
v  -48.9820 5.8266 74.1454
v  -43.3601 5.8266 72.0992
v  -38.7771 5.8266 68.2536
v  -35.7857 5.8266 63.0724
# 796 vertices

vn -0.5810 -0.4148 -0.7003
vn -0.6712 -0.2437 -0.7001
vn -0.0205 0.1418 -0.9897
vn 0.0618 -0.0696 -0.9957
vn 0.5942 0.4454 -0.6698
vn 0.6890 0.2768 -0.6699
vn -0.6161 -0.4108 0.6721
vn 0.0108 -0.0638 0.9979
vn -0.0711 0.0868 0.9937
vn -0.7061 -0.2397 0.6663
vn 0.6539 0.2808 0.7025
vn 0.5593 0.4494 0.6966
vn 0.8329 0.5531 0.0197
vn 0.9092 0.4158 0.0220
vn -0.8426 -0.5382 -0.0199
vn -0.9164 -0.3996 -0.0222
vn 0.2821 -0.4841 -0.8283
vn -0.2624 -0.7703 -0.5812
vn 0.8087 -0.1795 -0.5601
vn 0.8126 -0.2997 -0.4999
vn 0.3250 -0.5706 -0.7542
vn -0.1307 -0.8591 -0.4948
vn 0.9981 -0.0558 0.0257
vn 0.7790 -0.1765 0.6016
vn 0.7857 -0.2992 0.5414
vn 0.9923 -0.1210 0.0259
vn 0.2396 -0.4797 0.8441
vn -0.2915 -0.7671 0.5715
vn -0.1537 -0.8572 0.4916
vn 0.2875 -0.5687 0.7707
vn -0.4824 -0.8759 -0.0097
vn -0.3649 -0.9310 -0.0064
vn 0.2144 -0.3442 -0.9141
vn -0.3089 -0.7274 -0.6128
vn 0.7987 -0.0588 -0.5988
vn 0.9848 0.1719 0.0245
vn 0.7681 -0.0580 0.6378
vn 0.1698 -0.3430 0.9239
vn -0.3380 -0.7259 0.5990
vn -0.5993 -0.8004 -0.0131
vn 0.0550 -0.7264 -0.6850
vn -0.1379 -0.7132 -0.6873
vn -0.0682 0.0051 -0.9977
vn 0.1030 -0.0044 -0.9947
vn -0.0585 0.7258 -0.6854
vn 0.1347 0.7178 -0.6831
vn 0.0357 -0.0386 0.9986
vn 0.1329 0.7248 0.6760
vn 0.2053 0.6356 0.7443
vn -0.0313 0.9994 -0.0174
vn 0.1245 0.9922 0.0032
vn 0.0146 -0.9999 0.0006
vn -0.1421 -0.9898 -0.0037
vn 0.0176 -0.7262 0.6873
vn 0.0611 -0.7523 0.6560
vn 0.5695 -0.0316 -0.8214
vn 0.5236 -0.6400 -0.5624
vn 0.5844 0.5820 -0.5655
vn 0.6880 0.5232 -0.5028
vn 0.6647 -0.0390 -0.7461
vn 0.6675 -0.5729 -0.4757
vn 0.5722 0.8199 0.0155
vn 0.5531 0.5819 0.5962
vn 0.6616 0.5218 0.5385
vn 0.6247 0.7807 0.0171
vn 0.5244 -0.0313 0.8509
vn 0.4925 -0.6396 0.5903
vn 0.6424 -0.5714 0.5106
vn 0.6261 -0.0388 0.7788
vn 0.4911 -0.8710 0.0136
vn 0.5998 -0.8000 0.0167
vn 0.4159 -0.0173 -0.9093
vn 0.4630 -0.6576 -0.5943
vn 0.4770 0.6361 -0.6065
vn 0.3716 0.9283 0.0098
vn 0.4461 0.6356 0.6300
vn 0.3705 -0.0172 0.9287
vn 0.4327 -0.6569 0.6175
vn 0.3655 -0.9307 0.0100
vn 0.7652 0.0000 0.6437
vn -0.0239 0.0000 0.9997
vn -0.0222 -0.1916 0.9812
vn 0.7372 -0.2267 0.6366
vn -0.7952 0.0000 0.6064
vn -0.7650 -0.2290 0.6019
vn -0.7892 0.0000 -0.6142
vn 0.0239 0.0000 -0.9997
vn 0.0247 -0.2111 -0.9771
vn -0.7538 -0.2407 -0.6115
vn 0.8177 0.0000 -0.5757
vn 0.7840 -0.2381 -0.5732
vn -0.7266 -0.6869 -0.0174
vn 0.0081 -1.0000 0.0002
vn 0.0224 -0.7199 -0.6938
vn -0.7260 -0.5248 -0.4444
vn 0.7326 -0.6804 0.0175
vn 0.7457 -0.5197 -0.4170
vn -0.9948 -0.0990 -0.0238
vn -0.9997 -0.0008 -0.0239
vn 0.9949 -0.0981 0.0238
vn 0.9997 0.0008 0.0239
vn -0.0105 -0.7305 0.6828
vn 0.7320 -0.5274 0.4313
vn -0.7522 -0.5325 0.3881
vn 0.7164 -0.6736 0.1820
vn 0.0049 -0.9924 0.1228
vn -0.7181 -0.6798 0.1488
vn 0.9962 -0.0000 0.0868
vn 0.9807 -0.1420 0.1347
vn -0.9858 -0.1429 0.0878
vn -0.9992 0.0000 0.0391
vn -0.7128 -0.6815 -0.1658
vn 0.0105 -0.9940 -0.1090
vn 0.7260 -0.6752 -0.1303
vn -0.9970 0.0000 -0.0777
vn -0.9821 -0.1432 -0.1225
vn 0.9870 -0.1423 -0.0751
vn 0.9996 -0.0000 -0.0299
vn -0.0239 -0.0110 0.9997
vn -0.7956 -0.0096 0.6058
vn 0.7657 -0.0097 0.6431
vn 0.7664 -0.0798 0.6373
vn -0.0232 -0.0913 0.9956
vn -0.7956 -0.0796 0.6006
vn 0.9997 -0.0077 0.0239
vn 0.7961 -0.0798 -0.5999
vn 0.9977 -0.0630 0.0239
vn 0.8017 0.0341 -0.5968
vn -0.7659 -0.0796 -0.6380
vn 0.0245 -0.0913 -0.9955
vn 0.0233 0.0676 -0.9974
vn -0.7724 0.0344 -0.6342
vn -0.9997 -0.0076 -0.0239
vn -0.9977 -0.0629 -0.0239
vn 0.0240 -0.0125 -0.9996
vn 0.8183 -0.0102 -0.5747
vn -0.7898 -0.0102 -0.6133
vn -0.7907 -0.0837 -0.6065
vn 0.0245 -0.1037 -0.9943
vn 0.8192 -0.0840 -0.5673
vn -0.8188 -0.0837 0.5680
vn -0.8241 0.0310 0.5656
vn 0.7911 -0.0840 0.6058
vn -0.0231 -0.1037 0.9943
vn -0.0243 0.0585 0.9980
vn 0.7959 0.0308 0.6047
vn 0.7856 -0.0646 0.6154
vn -0.0233 -0.0782 0.9967
vn -0.0243 0.0489 0.9985
vn 0.7890 0.0251 0.6138
vn -0.8138 -0.0644 0.5776
vn -0.8177 0.0253 0.5751
vn 0.8141 -0.0646 -0.5771
vn 0.9985 -0.0490 0.0239
vn 0.9997 -0.0056 0.0239
vn 0.8171 0.0233 -0.5760
vn -0.7852 -0.0644 -0.6159
vn 0.0244 -0.0782 -0.9966
vn 0.0236 0.0432 -0.9988
vn -0.7888 0.0235 -0.6142
vn -0.9985 -0.0489 -0.0239
vn -0.9997 -0.0055 -0.0239
vn 0.9984 -0.0513 0.0239
vn 0.7603 -0.0639 0.6465
vn 0.7903 -0.0639 -0.6093
vn 0.7714 0.1994 -0.6043
vn 0.9859 0.1655 0.0236
vn 0.7416 0.1994 0.6405
vn -0.9984 -0.0515 -0.0239
vn -0.7599 -0.0642 -0.6468
vn -0.7900 -0.0642 0.6097
vn -0.7725 0.1981 0.6034
vn -0.9861 0.1645 -0.0236
vn -0.7427 0.1981 -0.6397
vn -0.7824 -0.0679 -0.6190
vn -0.8112 -0.0679 0.5809
vn -0.7906 0.2085 0.5758
vn -0.9860 0.1649 -0.0236
vn -0.7621 0.2085 -0.6130
vn 0.9984 -0.0514 0.0239
vn 0.7828 -0.0676 0.6186
vn 0.8115 -0.0676 -0.5804
vn 0.7894 0.2101 -0.5768
vn 0.9859 0.1659 0.0236
vn 0.7609 0.2101 0.6139
vn -0.0244 0.2203 0.9751
vn -0.0235 0.4820 0.8759
vn -0.7215 0.4345 0.5391
vn 0.6923 0.4363 0.5747
vn 0.9323 0.3610 0.0223
vn 0.7190 0.4363 -0.5409
vn 0.0223 0.2203 -0.9752
vn 0.0184 0.4820 -0.8760
vn -0.6949 0.4345 -0.5730
vn -0.9329 0.3594 -0.0223
vn 0.0221 0.2415 -0.9701
vn 0.0177 0.5273 -0.8495
vn 0.7333 0.4550 -0.5053
vn -0.7109 0.4529 -0.5380
vn -0.9329 0.3596 -0.0223
vn -0.7358 0.4529 0.5034
vn -0.0243 0.2415 0.9701
vn -0.0230 0.5273 0.8494
vn 0.7083 0.4550 0.5398
vn 0.9322 0.3612 0.0223
vn 0.9990 -0.0374 0.0239
vn 0.7790 -0.0486 0.6251
vn 0.8081 -0.0486 -0.5871
vn 0.7875 0.1980 -0.5836
vn 0.9873 0.1573 0.0236
vn 0.7587 0.1980 0.6206
vn -0.9990 -0.0375 -0.0239
vn -0.7788 -0.0489 -0.6254
vn -0.8078 -0.0489 0.5874
vn -0.7886 0.1967 0.5826
vn -0.9874 0.1564 -0.0237
vn -0.7598 0.1967 -0.6197
vn -0.0234 -0.0726 0.9971
vn 0.0243 -0.0726 -0.9971
vn 0.0243 -0.0816 -0.9964
vn -0.0234 -0.0815 0.9964
vn -0.0236 -0.0581 0.9980
vn -0.0244 0.2268 0.9736
vn 0.0242 -0.0581 -0.9980
vn 0.0223 0.2268 -0.9737
vn -0.0234 0.4842 0.8747
vn -0.7439 0.4180 0.5215
vn 0.7157 0.4197 0.5582
vn 0.9423 0.3339 0.0225
vn 0.7416 0.4197 -0.5234
vn 0.0442 0.9897 -0.1363
vn -0.1577 0.9867 -0.0405
vn -0.9429 0.3324 -0.0226
vn 0.8897 -0.4551 -0.0367
vn -0.3743 -0.6957 -0.6131
vn -0.4246 0.9053 -0.0085
vn -0.4314 0.7888 0.4378
vn 0.4650 0.8504 -0.2461
vn 0.5329 0.8461 0.0065
vn 0.0519 0.7948 0.6047
vn 0.0228 0.8226 -0.5682
vn 0.5330 0.6890 0.4912
vn -0.4359 0.8277 -0.3535
vn 0.6143 0.7890 0.0100
vn -0.5901 0.8073 -0.0071
vn 0.5437 0.6912 -0.4760
vn -0.4889 0.8001 0.3475
vn 0.0567 0.7943 -0.6048
vn 0.0170 0.7983 0.6020
vn -0.4312 0.7823 -0.4496
vn 0.5032 0.8252 0.2565
vn 0.4121 -0.4284 -0.8041
vn 0.9809 -0.1940 0.0150
vn -0.0000 -0.2341 -0.9722
vn -0.5471 -0.2016 -0.8124
vn -0.9742 -0.2039 -0.0968
vn -0.4946 -0.3279 0.8049
vn -0.0000 -0.2882 0.9576
vn 0.3738 -0.4589 0.8061
vn 0.0000 -1.0000 -0.0007
vn -0.0224 -0.5243 0.8512
vn -0.7180 -0.3928 0.5746
vn -0.9313 -0.3621 -0.0384
vn 0.0232 -0.4937 -0.8693
vn -0.6792 -0.3992 -0.6159
vn 0.7197 -0.3820 -0.5798
vn 0.9318 -0.3622 0.0229
vn 0.6773 -0.4109 0.6103
vn -0.0176 0.2157 0.9763
vn -0.7880 0.3238 0.5237
vn 0.7675 0.3041 0.5643
vn 0.8375 0.1019 0.5368
vn -0.0238 0.1210 0.9924
vn -0.8623 0.1019 0.4961
vn 0.9133 0.4066 0.0226
vn 0.7806 0.3507 -0.5174
vn 0.8626 0.1196 -0.4915
vn 0.9957 0.0892 0.0247
vn 0.0171 0.2766 -0.9608
vn -0.7607 0.3318 -0.5579
vn -0.8381 0.1196 -0.5322
vn 0.0236 0.1568 -0.9873
vn -0.9133 0.4066 -0.0223
vn -0.9957 0.0892 -0.0230
vn -0.0227 0.0328 0.9992
vn -0.8709 0.0162 0.4912
vn 0.8460 0.0098 0.5330
vn 0.8517 -0.1699 0.4958
vn -0.1549 -0.2716 0.9499
vn -0.8835 -0.1446 0.4456
vn 0.9997 -0.0058 0.0242
vn 0.8713 0.0149 -0.4904
vn 0.9876 -0.1549 0.0237
vn 0.0252 0.0419 -0.9988
vn -0.8473 0.0206 -0.5307
vn -0.8271 -0.0660 -0.5581
vn -0.9997 0.0073 -0.0235
vn -0.9941 -0.1055 -0.0237
vn -0.2679 0.5580 0.7854
vn 0.9287 -0.0082 0.3709
vn 0.5355 0.0998 0.8386
vn 0.2036 0.5129 0.8340
vn -0.3000 -0.0903 0.9497
vn -0.0776 0.7510 0.6558
vn -0.7621 -0.4891 0.4243
vn -0.8073 -0.3074 0.5037
vn -0.0474 0.1650 -0.9851
vn -0.8607 -0.1688 -0.4802
vn -0.7415 -0.4895 -0.4589
vn -0.0835 -0.1726 -0.9814
vn 0.2379 0.4092 -0.8809
vn -0.0356 0.7782 -0.6271
vn 0.5982 0.1354 -0.7898
vn 0.9022 0.1326 -0.4105
vn -0.9569 -0.2895 -0.0226
vn -0.9163 -0.3999 -0.0216
vn 0.1949 0.9630 -0.1860
vn 0.1494 0.5845 0.7975
vn -0.0200 0.4463 0.8947
vn 0.8319 0.5468 0.0946
vn 0.0171 0.9943 0.1055
vn 0.6106 0.4741 0.6344
vn -0.3129 0.9251 0.2150
vn -0.4154 0.2277 0.8807
vn -0.9661 -0.0466 0.2538
vn -0.7764 0.6154 0.1361
vn -0.3709 0.2367 -0.8980
vn -0.9540 -0.0441 -0.2967
vn -0.2938 0.9301 -0.2203
vn -0.7662 0.6199 -0.1693
vn -0.9849 -0.1716 -0.0234
vn -0.7633 0.6459 -0.0174
vn 0.2011 0.9548 0.2187
vn 0.1452 0.5202 -0.8416
vn 0.6483 0.3759 -0.6621
vn 0.0550 0.9878 -0.1458
vn 0.8255 0.5584 -0.0826
vn -0.0867 0.3734 -0.9236
vn 0.1041 0.9945 0.0145
vn 0.8449 0.5350 -0.0046
vn 0.6233 0.7770 0.0885
vn -0.6937 0.4273 0.5798
vn -0.6993 0.4060 -0.5884
vn 0.9743 0.2248 0.0143
vn 0.6722 0.2586 0.6937
vn 0.6862 0.2447 -0.6850
vn 0.0026 0.2440 -0.9698
vn 0.0073 0.2618 0.9651
vn -0.5596 -0.7732 -0.2984
vn -0.5157 -0.8242 0.2339
vn 0.7952 0.1606 -0.5847
vn 0.4770 0.5758 0.6640
vn -0.3424 0.4994 0.7958
vn -0.7665 -0.1014 0.6342
vn 0.4802 -0.8770 0.0147
vn -0.0839 -0.9965 0.0003
vn 0.0431 -0.9265 -0.3738
vn 0.4215 -0.7270 -0.5420
vn 0.9043 -0.4262 0.0239
vn 0.7801 -0.5050 -0.3694
vn 0.7600 -0.5038 0.4107
vn 0.3938 -0.7250 0.5651
vn 0.0248 -0.9246 0.3800
vn 0.5495 0.7778 0.3049
vn -0.8887 0.0304 0.4574
vn -0.5303 0.0304 -0.8473
vn -0.2886 -0.6924 -0.6613
vn -0.2106 0.7217 -0.6594
vn 0.9983 -0.0525 0.0271
vn 0.8032 -0.5953 0.0216
vn 0.8148 -0.4581 -0.3554
vn 0.8461 -0.0349 -0.5319
vn 0.8379 0.5453 0.0223
vn 0.8440 0.3903 -0.3679
vn 0.8235 0.3897 0.4122
vn 0.8172 -0.0348 0.5752
vn 0.7950 -0.4574 0.3985
vn -0.4788 0.8778 -0.0132
vn -0.0279 0.9904 -0.1351
vn -0.9857 -0.0761 -0.1506
vn -0.5340 -0.8147 -0.2259
vn -0.7079 0.6602 -0.2511
vn 0.0092 -1.0000 0.0004
vn -0.0577 -0.1745 0.9830
vn -0.8527 -0.0311 0.5214
vn -0.9922 -0.1224 -0.0249
vn -0.0105 -0.1749 -0.9845
vn -0.8246 -0.0313 -0.5648
vn 0.8383 -0.0164 -0.5450
vn 0.9942 -0.1049 0.0226
vn 0.8130 -0.0161 0.5821
vn 0.0040 0.9781 -0.2079
vn -0.7363 0.3205 -0.5960
vn -0.7297 0.4731 0.4937
vn -0.0226 0.5632 0.8260
vn 0.9188 0.3942 0.0219
vn 0.7025 0.4751 0.5298
vn -0.1919 0.6382 -0.7455
vn -0.4797 0.5998 -0.6404
vn 0.0816 0.9624 0.2590
vn -0.0231 -0.0203 0.9995
vn -0.8127 -0.0282 0.5820
vn 0.7843 -0.0135 0.6203
vn 0.9411 -0.0939 0.3247
vn -0.0242 -0.0590 0.9980
vn -0.9548 -0.1094 0.2762
vn 0.9997 0.0035 0.0239
vn 0.8130 -0.0132 -0.5822
vn 0.9508 -0.0926 -0.2955
vn 0.9997 0.0089 0.0229
vn 0.0248 -0.0191 -0.9995
vn -0.7838 -0.0279 -0.6204
vn -0.9351 -0.1081 -0.3375
vn 0.0235 -0.0533 -0.9983
vn -0.9997 -0.0104 -0.0239
vn -0.9996 -0.0089 -0.0249
vn -0.6654 -0.5972 0.4478
vn -0.0118 -0.7428 0.6694
vn 0.6492 -0.5925 0.4769
vn 0.9997 0.0041 0.0239
vn 0.9993 0.0277 0.0239
vn 0.9393 0.2041 -0.2758
vn 0.9997 0.0000 0.0229
vn 0.9290 0.2044 0.3086
vn 0.6860 -0.6075 -0.4004
vn 0.0197 -0.7591 -0.6506
vn -0.6601 -0.6125 -0.4350
vn -0.9997 -0.0041 -0.0239
vn -0.9995 0.0201 -0.0239
vn -0.9995 0.0202 -0.0239
vn -0.9435 0.2034 0.2617
vn -0.9997 0.0000 -0.0249
vn -0.9259 0.2032 -0.3184
vn -0.7969 0.6014 -0.0567
vn -0.9369 0.2252 0.2675
vn -0.0075 0.9958 -0.0912
vn 0.0213 0.3101 -0.9505
vn 0.7940 0.6076 -0.0190
vn 0.9220 0.2263 0.3143
vn -0.0241 0.4210 0.9068
vn 0.7875 0.6140 0.0527
vn 0.9351 0.2308 -0.2690
vn -0.0117 0.9960 0.0886
vn -0.0242 0.3389 0.9405
vn -0.7940 0.6078 0.0145
vn -0.9222 0.2297 -0.3111
vn 0.0188 0.4499 -0.8929
vn -0.0009 1.0000 -0.0000
vn 0.0167 0.5716 -0.8204
vn -0.6775 0.4981 -0.5412
vn -0.9014 0.4325 -0.0216
vn -0.0226 0.5716 0.8203
vn -0.7026 0.4981 0.5081
vn 0.6744 0.5003 0.5430
vn 0.9003 0.4346 0.0216
vn 0.6997 0.5003 -0.5101
vn -0.0219 0.6190 0.7851
vn 0.6904 0.5186 0.5044
vn 0.9008 0.4337 0.0216
vn 0.0157 0.6190 -0.7853
vn 0.7137 0.5186 -0.4708
vn -0.6934 0.5163 -0.5026
vn -0.9018 0.4316 -0.0216
vn -0.7167 0.5163 0.4688
vn -0.9975 0.0652 -0.0286
vn -0.6626 -0.7487 -0.0201
vn -0.3558 -0.6278 0.6923
vn -0.5294 0.0185 0.8482
vn -0.5145 0.8570 -0.0295
vn -0.2876 0.6847 0.6697
vn -0.2478 0.6746 -0.6954
vn -0.4886 0.0171 -0.8724
vn -0.3289 -0.6257 -0.7073
vn 0.9127 -0.4075 0.0294
vn 0.4232 -0.3770 0.8239
vn 0.1438 -0.7103 0.6890
vn 0.4182 -0.9083 0.0139
vn 0.4609 -0.3847 -0.7998
vn 0.1661 -0.7137 -0.6804
vn 0.7177 -0.0715 -0.6927
vn 0.9987 -0.0191 0.0474
vn 0.6654 -0.0669 0.7435
vn -0.1450 -0.9894 -0.0054
vn -0.1083 -0.6650 0.7389
vn -0.0848 -0.6644 -0.7426
vn -0.3357 0.9413 -0.0359
vn -0.2967 0.4818 -0.8245
vn -0.3311 0.5003 0.8000
vn -0.6709 0.3269 0.6656
vn -0.8729 0.4788 -0.0939
vn -0.6058 0.3067 -0.7342
vn -0.0037 1.0000 -0.0007
vn -0.9928 0.0872 -0.0822
vn -0.8643 0.0827 0.4961
vn -0.0751 0.1421 0.9870
vn 0.7783 0.0781 0.6230
vn 0.9937 0.0970 0.0556
vn 0.8426 0.0777 -0.5330
vn 0.0147 0.1430 -0.9896
vn -0.8028 0.0721 -0.5919
vn -0.0319 -0.0841 -0.9959
vn 0.0215 -0.0126 -0.9997
vn -0.0632 -0.0817 0.9947
vn -0.0191 -0.0065 0.9998
vn 0.9984 0.0251 0.0514
vn 0.7523 0.0310 0.6581
vn 0.8101 0.0309 -0.5855
vn 0.0380 0.0240 -0.9990
vn -0.7447 0.0777 -0.6629
vn -0.9910 0.0872 -0.1011
vn -0.8138 0.0854 0.5748
vn -0.0186 0.0266 0.9995
vn -0.9978 0.0597 -0.0283
vn -0.6591 -0.7518 -0.0200
vn -0.3542 -0.6326 0.6888
vn -0.5300 0.0135 0.8479
vn -0.5159 0.8563 -0.0236
vn -0.2493 0.6829 -0.6867
vn -0.4883 0.0208 -0.8724
vn 0.4238 -0.3769 0.8236
vn 0.6656 -0.0668 0.7433
vn -0.1087 -0.6666 0.7375
vn -0.3351 0.9418 -0.0267
vn -0.2993 0.4861 -0.8210
vn -0.8724 0.4807 -0.0889
vn -0.6087 0.3064 -0.7318
vn -0.8642 0.0824 0.4963
vn -0.0628 -0.0844 0.9945
vn -0.0182 -0.0075 0.9998
vn 0.7520 0.0314 0.6585
vn -0.9912 0.0867 -0.1002
vn -0.8133 0.0854 0.5755
vn -0.0185 0.0260 0.9995
vn 0.6805 -0.5003 -0.5353
vn 0.7649 -0.6439 0.0183
vn 0.6541 -0.5003 0.5673
vn -0.2666 0.9638 -0.0029
vn -0.8425 0.5383 -0.0217
vn -0.8509 0.2567 0.4584
vn -0.4128 0.5618 0.7169
vn 0.8011 0.5982 0.0192
vn 0.1971 0.9804 0.0020
vn 0.2783 0.5896 0.7583
vn 0.7019 0.3724 0.6071
vn 0.7302 0.3724 -0.5728
vn 0.2966 0.5883 -0.7523
vn -0.3912 0.5642 -0.7271
vn -0.8233 0.2606 -0.5043
vn -0.2932 -0.1459 0.9448
vn -0.8153 -0.1064 0.5691
vn -0.8513 -0.3686 0.3733
vn 0.7217 -0.1061 0.6841
vn 0.1752 -0.1505 0.9730
vn 0.9917 -0.1262 0.0237
vn 0.7536 -0.1061 -0.6488
vn 0.1985 -0.1505 -0.9685
vn -0.7810 -0.1064 -0.6155
vn -0.2612 -0.1461 -0.9542
vn -0.3014 -0.3707 -0.8785
vn -0.8287 -0.3778 -0.4130
vn -0.9972 -0.0713 -0.0244
vn -0.9675 -0.2528 -0.0038
vn -0.9898 0.1402 -0.0237
vn -0.8642 -0.5026 -0.0207
vn -0.7595 -0.3083 0.5728
vn -0.7455 0.1033 0.6584
vn -0.6908 0.7228 -0.0165
vn -0.6446 0.5031 0.5756
vn -0.6164 0.5031 -0.6058
vn -0.7132 0.1033 -0.6933
vn -0.7312 -0.3083 -0.6085
vn 0.9869 0.1611 0.0026
vn 0.1864 -0.0573 0.9808
vn 0.2368 -0.6104 0.7559
vn 0.3106 -0.9505 0.0079
vn 0.2446 -0.6108 -0.7531
vn 0.1841 0.5927 -0.7841
vn 0.1646 0.9863 0.0068
vn 0.1798 0.5876 0.7889
vn -0.2270 -0.9739 -0.0030
vn -0.2549 -0.6181 0.7437
vn -0.2320 -0.6177 -0.7514
vn -0.0946 0.0082 -0.9955
vn -0.1247 0.6441 -0.7547
vn 0.1927 -0.0520 -0.9799
vn -0.0533 0.9986 0.0016
vn -0.1459 0.6415 0.7531
vn -0.1233 0.0057 0.9924
vn -0.9996 0.0217 -0.0190
vn -0.9642 -0.0480 0.2608
vn -0.9774 0.1378 0.1601
vn -0.7777 0.6283 -0.0186
vn -0.8307 0.4475 0.3313
vn -0.7569 0.4142 -0.5055
vn -0.7823 0.1110 -0.6129
vn -0.9028 -0.0772 -0.4231
vn -0.3536 0.0773 -0.9322
vn 0.1091 0.6423 -0.7586
vn 0.7726 0.2430 -0.5865
vn -0.1508 0.9746 -0.1653
vn -0.6741 0.6809 0.2862
vn 0.7113 0.5487 -0.4393
vn 0.0000 -0.1571 -0.9876
vn 0.0000 0.6116 -0.7912
vn 0.0000 1.0000 0.0000
vn 0.0000 0.6116 0.7912
vn 0.0000 -0.1571 0.9876
vn -0.9763 0.0039 0.2163
vn -0.6795 0.0320 0.7330
vn -0.6728 0.4554 0.5830
vn -0.7249 0.6888 0.0075
vn -0.9418 -0.1986 -0.2714
vn -0.8503 -0.5178 -0.0942
vn -0.7837 -0.5016 0.3664
vn 0.9813 -0.0040 -0.1925
vn 0.8543 0.4481 0.2635
vn 0.9316 0.0372 0.3616
vn 0.7297 -0.5271 -0.4355
vn 0.8679 -0.4964 -0.0147
vn 0.7531 -0.2267 -0.6176
vn 0.6751 0.6726 -0.3030
vn 0.0936 -0.9150 0.3924
vn 0.2241 -0.0870 0.9707
vn -0.1061 -0.8835 -0.4563
vn -0.2046 -0.3831 -0.9008
vn -0.1528 0.7277 -0.6686
vn 0.1289 0.7888 0.6010
vn -0.9649 0.0039 -0.2628
vn -0.6442 0.4554 -0.6145
vn -0.6437 0.0320 -0.7646
vn -0.7237 0.6888 -0.0422
vn -0.8538 -0.5178 0.0534
vn -0.9537 -0.1986 0.2260
vn -0.7653 -0.5016 -0.4034
vn 0.9709 -0.0040 0.2393
vn 0.9478 0.0372 -0.3166
vn 0.8659 0.4481 -0.2223
vn 0.7081 -0.5271 0.4700
vn 0.8663 -0.4964 0.0562
vn 0.6599 0.6726 0.3349
vn 0.7227 -0.2267 0.6529
vn 0.1123 -0.9150 -0.3875
vn 0.2703 -0.0870 -0.9588
vn -0.1278 -0.8835 0.4507
vn -0.2475 -0.3831 0.8900
vn -0.1846 0.7277 0.6606
vn 0.1575 0.7888 -0.5942
vn 0.6976 -0.6700 0.2539
vn 0.5687 -0.6700 0.4772
vn 0.3712 -0.6701 0.6428
vn 0.1289 -0.6701 0.7310
vn -0.1289 -0.6700 0.7311
vn -0.3712 -0.6700 0.6429
vn -0.5687 -0.6700 0.4772
vn -0.6976 -0.6700 0.2539
vn -0.7423 -0.6701 0.0000
vn -0.6975 -0.6701 -0.2539
vn -0.5687 -0.6700 -0.4772
vn -0.3712 -0.6700 -0.6429
vn -0.1289 -0.6700 -0.7311
vn 0.1289 -0.6700 -0.7311
vn 0.3712 -0.6700 -0.6429
vn 0.5686 -0.6701 -0.4772
vn 0.6975 -0.6701 -0.2539
vn 0.7423 -0.6700 0.0000
vn 0.9397 0.0000 -0.3420
vn 1.0000 0.0000 0.0000
vn 0.7660 0.0000 -0.6428
vn 0.5000 0.0000 -0.8660
vn 0.1736 0.0000 -0.9848
vn -0.1736 0.0000 -0.9848
vn -0.5000 0.0000 -0.8660
vn -0.7660 0.0000 -0.6428
vn -0.9397 0.0000 -0.3420
vn -1.0000 0.0000 0.0000
vn -0.9397 0.0000 0.3420
vn -0.7660 0.0000 0.6428
vn -0.5000 0.0000 0.8660
vn -0.1736 0.0000 0.9848
vn 0.1736 0.0000 0.9848
vn 0.5000 0.0000 0.8660
vn 0.7660 0.0000 0.6428
vn 0.9397 0.0000 0.3420
vn 0.6975 0.6701 -0.2539
vn 0.7423 0.6700 0.0000
vn 0.5686 0.6701 -0.4772
vn 0.3712 0.6700 -0.6429
vn 0.1289 0.6700 -0.7311
vn -0.1289 0.6700 -0.7311
vn -0.3712 0.6700 -0.6429
vn -0.5687 0.6700 -0.4772
vn -0.6975 0.6701 -0.2539
vn -0.7423 0.6701 0.0000
vn -0.6976 0.6700 0.2539
vn -0.5687 0.6700 0.4772
vn -0.3712 0.6700 0.6429
vn -0.1289 0.6700 0.7311
vn 0.1289 0.6701 0.7310
vn 0.3712 0.6701 0.6428
vn 0.5687 0.6700 0.4772
vn 0.6976 0.6700 0.2539
# 701 vertex normals

vt 1.0000 0.0000 0.0000
vt 1.0000 0.5000 0.0000
vt 0.5000 0.5000 0.0000
vt 0.5000 0.0000 0.0000
vt 0.0000 0.5000 0.0000
vt 0.0000 0.0000 0.0000
vt 0.5000 1.0000 0.0000
vt 0.0000 1.0000 0.0000
vt 1.0000 1.0000 0.0000
vt 0.1250 0.1250 0.0000
vt 0.8750 0.1250 0.0000
vt 0.8750 0.8750 0.0000
vt 0.1250 0.8750 0.0000
vt 0.8750 0.0000 0.0000
vt 0.1250 0.0000 0.0000
vt 0.1250 1.0000 0.0000
vt 0.8750 1.0000 0.0000
vt 0.7892 0.4757 0.0000
vt 0.7892 0.7495 0.0000
vt 0.5580 0.6775 0.0000
vt 0.4151 0.6212 0.0000
vt 0.3622 0.4663 0.0000
vt 0.4158 0.3137 0.0000
vt 0.5587 0.2638 0.0000
vt 0.7892 0.2018 0.0000
vt 0.8725 0.1243 0.0000
vt 0.4901 0.0000 0.0000
vt 0.1225 0.1250 0.0000
vt 0.8725 0.8743 0.0000
vt 1.0000 0.4973 0.0000
vt 0.1225 0.8750 0.0000
vt 0.4900 1.0000 0.0000
vt 0.4605 0.0000 0.0000
vt 0.8651 0.1223 0.0000
vt 0.8238 0.0885 0.0000
vt 0.6036 0.0247 0.0000
vt 0.2160 0.0000 0.0000
vt 0.3211 0.0484 0.0000
vt 0.0540 0.1250 0.0000
vt 0.1151 0.1250 0.0000
vt 0.4599 1.0000 0.0000
vt 0.1150 0.8750 0.0000
vt 0.0537 0.8750 0.0000
vt 0.2148 1.0000 0.0000
vt 0.6023 0.9685 0.0000
vt 0.3191 0.9441 0.0000
vt 0.8232 0.9017 0.0000
vt 0.8650 0.8723 0.0000
vt 0.6499 0.8738 0.0000
vt 0.6369 0.7790 0.0000
vt 0.8269 0.7622 0.0000
vt 0.9125 0.7788 0.0000
vt 0.3626 0.7763 0.0000
vt 0.3783 0.7000 0.0000
vt 0.1511 0.1221 0.0000
vt 0.1009 0.0000 0.0000
vt 0.0252 0.1250 0.0000
vt 0.0671 0.2209 0.0000
vt 0.0998 1.0000 0.0000
vt 0.0249 0.8750 0.0000
vt 0.1500 0.8721 0.0000
vt 0.0667 0.7765 0.0000
vt 0.0502 0.4971 0.0000
vt 0.6512 0.0988 0.0000
vt 0.6379 0.1725 0.0000
vt 0.3796 0.2426 0.0000
vt 0.3642 0.1935 0.0000
vt 0.9128 0.1990 0.0000
vt 0.8274 0.1997 0.0000
vt 0.2007 0.4883 0.0000
vt 0.2761 0.4708 0.0000
vt 1.0000 0.4890 0.0000
vt 1.0000 0.7510 0.0000
vt 1.0000 0.4757 0.0000
vt 1.0000 0.7495 0.0000
vt 1.0000 0.2018 0.0000
vt 1.0000 0.2051 0.0000
vt 0.3012 0.4649 0.0000
vt 0.3748 0.6745 0.0000
vt 0.3759 0.2587 0.0000
vt 0.5983 0.1960 0.0000
vt 0.8946 0.2051 0.0000
vt 0.5974 0.7470 0.0000
vt 0.8946 0.7510 0.0000
vt 0.1250 0.5000 0.0000
vt 0.2222 0.2222 0.0000
vt 0.5000 0.1250 0.0000
vt 0.8750 0.5000 0.0000
vt 0.7778 0.2222 0.0000
vt 0.7778 0.7778 0.0000
vt 0.5000 0.8750 0.0000
vt 0.2222 0.7778 0.0000
vt 0.2222 0.0000 0.0000
vt 0.7778 0.0000 0.0000
vt 1.0000 0.1250 0.0000
vt 1.0000 0.8750 0.0000
vt 0.9200 0.9200 0.0000
vt 0.9200 0.0800 0.0000
vt 0.7778 1.0000 0.0000
vt 0.2222 1.0000 0.0000
vt 0.0000 0.8750 0.0000
vt 0.0000 0.1250 0.0000
vt 0.0800 0.0800 0.0000
vt 0.0800 0.9200 0.0000
vt 0.0800 1.0000 0.0000
vt 0.9200 1.0000 0.0000
vt 0.9200 0.0000 0.0000
vt 0.0800 0.0000 0.0000
vt 0.5000 0.3521 0.0000
vt 0.0000 0.3607 0.0000
vt 1.0000 0.3435 0.0000
vt 1.0000 0.6870 0.0000
vt 0.5000 0.6162 0.0000
vt 0.0000 0.7215 0.0000
vt 0.5000 0.8521 0.0000
vt 0.5000 0.7412 0.0000
vt 0.7778 0.7633 0.0000
vt 0.8750 0.8457 0.0000
vt 0.7778 0.9314 0.0000
vt 0.5000 0.9630 0.0000
vt 0.2222 0.9371 0.0000
vt 0.1250 0.8586 0.0000
vt 0.2222 0.7767 0.0000
vt 0.6000 0.5443 0.0000
vt 1.0000 0.3607 0.0000
vt 1.0000 0.7215 0.0000
vt 1.0000 0.8607 0.0000
vt 0.4000 0.5374 0.0000
vt 0.0000 0.8435 0.0000
vt 0.0000 0.6870 0.0000
vt 0.0000 0.3435 0.0000
vt 0.8750 0.9609 0.0000
vt 0.1250 0.9652 0.0000
vt 0.0000 0.8607 0.0000
vt 0.1250 0.7520 0.0000
vt 0.5000 0.7042 0.0000
vt 0.8750 0.7304 0.0000
vt 1.0000 0.8435 0.0000
vt 0.3400 0.0000 -0.0000
vt 0.1953 0.0000 -0.3473
vt 0.0874 0.0000 -0.6527
vt 0.0292 0.0000 -0.8794
vt 0.0278 0.0000 -1.0000
vt 0.0833 0.0000 -1.0000
vt 0.1891 0.0000 -0.8794
vt 0.3325 0.0000 -0.6527
vt 0.4960 0.0000 -0.3473
vt 0.6600 0.0000 0.0000
vt 0.8047 0.0000 0.3473
vt 0.9126 0.0000 0.6527
vt 0.9708 0.0000 0.8794
vt 0.9722 0.0000 1.0000
vt 0.9167 0.0000 1.0000
vt 0.8611 0.0000 1.0000
vt 0.8056 0.0000 1.0000
vt 0.7500 0.0000 1.0000
vt 0.8056 0.2000 1.0000
vt 0.7500 0.2000 1.0000
vt 0.8611 0.2000 1.0000
vt 0.9167 0.2000 1.0000
vt 0.9722 0.2000 1.0000
vt -0.0278 0.0000 1.0000
vt 0.0278 0.0000 1.0000
vt 0.0278 0.2000 1.0000
vt -0.0278 0.2000 1.0000
vt 0.0833 0.0000 1.0000
vt 0.0833 0.2000 1.0000
vt 0.1389 0.0000 1.0000
vt 0.1389 0.2000 1.0000
vt 0.1944 0.0000 1.0000
vt 0.1944 0.2000 1.0000
vt 0.2500 0.0000 1.0000
vt 0.2500 0.2000 1.0000
vt 0.3056 0.0000 1.0000
vt 0.3056 0.2000 1.0000
vt 0.3611 0.0000 1.0000
vt 0.3611 0.2000 1.0000
vt 0.4167 0.0000 1.0000
vt 0.4167 0.2000 1.0000
vt 0.4722 0.0000 1.0000
vt 0.4722 0.2000 1.0000
vt 0.5278 0.0000 1.0000
vt 0.5278 0.2000 1.0000
vt 0.5833 0.0000 1.0000
vt 0.5833 0.2000 1.0000
vt 0.6389 0.0000 1.0000
vt 0.6389 0.2000 1.0000
vt 0.6944 0.0000 1.0000
vt 0.6944 0.2000 1.0000
vt 0.8056 0.4000 1.0000
vt 0.7500 0.4000 1.0000
vt 0.8611 0.4000 1.0000
vt 0.9167 0.4000 1.0000
vt 0.9722 0.4000 1.0000
vt 0.0278 0.4000 1.0000
vt -0.0278 0.4000 1.0000
vt 0.0833 0.4000 1.0000
vt 0.1389 0.4000 1.0000
vt 0.1944 0.4000 1.0000
vt 0.2500 0.4000 1.0000
vt 0.3056 0.4000 1.0000
vt 0.3611 0.4000 1.0000
vt 0.4167 0.4000 1.0000
vt 0.4722 0.4000 1.0000
vt 0.5278 0.4000 1.0000
vt 0.5833 0.4000 1.0000
vt 0.6389 0.4000 1.0000
vt 0.6944 0.4000 1.0000
vt 0.8056 0.6000 1.0000
vt 0.7500 0.6000 1.0000
vt 0.8611 0.6000 1.0000
vt 0.9167 0.6000 1.0000
vt 0.9722 0.6000 1.0000
vt 0.0278 0.6000 1.0000
vt -0.0278 0.6000 1.0000
vt 0.0833 0.6000 1.0000
vt 0.1389 0.6000 1.0000
vt 0.1944 0.6000 1.0000
vt 0.2500 0.6000 1.0000
vt 0.3056 0.6000 1.0000
vt 0.3611 0.6000 1.0000
vt 0.4167 0.6000 1.0000
vt 0.4722 0.6000 1.0000
vt 0.5278 0.6000 1.0000
vt 0.5833 0.6000 1.0000
vt 0.6389 0.6000 1.0000
vt 0.6944 0.6000 1.0000
vt 0.8056 0.8000 1.0000
vt 0.7500 0.8000 1.0000
vt 0.8611 0.8000 1.0000
vt 0.9167 0.8000 1.0000
vt 0.9722 0.8000 1.0000
vt 0.0278 0.8000 1.0000
vt -0.0278 0.8000 1.0000
vt 0.0833 0.8000 1.0000
vt 0.1389 0.8000 1.0000
vt 0.1944 0.8000 1.0000
vt 0.2500 0.8000 1.0000
vt 0.3056 0.8000 1.0000
vt 0.3611 0.8000 1.0000
vt 0.4167 0.8000 1.0000
vt 0.4722 0.8000 1.0000
vt 0.5278 0.8000 1.0000
vt 0.5833 0.8000 1.0000
vt 0.6389 0.8000 1.0000
vt 0.6944 0.8000 1.0000
vt 0.8056 1.0000 1.0000
vt 0.7500 1.0000 1.0000
vt 0.8611 1.0000 1.0000
vt 0.9167 1.0000 1.0000
vt 0.9722 1.0000 1.0000
vt 0.0278 1.0000 1.0000
vt -0.0278 1.0000 1.0000
vt 0.0833 1.0000 1.0000
vt 0.1389 1.0000 1.0000
vt 0.1944 1.0000 1.0000
vt 0.2500 1.0000 1.0000
vt 0.3056 1.0000 1.0000
vt 0.3611 1.0000 1.0000
vt 0.4167 1.0000 1.0000
vt 0.4722 1.0000 1.0000
vt 0.5278 1.0000 1.0000
vt 0.5833 1.0000 1.0000
vt 0.6389 1.0000 1.0000
vt 0.6944 1.0000 1.0000
vt 0.9708 1.0000 0.8794
vt 0.9126 1.0000 0.6527
vt 0.8047 1.0000 0.3473
vt 0.6600 1.0000 -0.0000
vt 0.4960 1.0000 -0.3473
vt 0.3325 1.0000 -0.6527
vt 0.1891 1.0000 -0.8794
vt 0.0833 1.0000 -1.0000
vt 0.0278 1.0000 -1.0000
vt 0.0292 1.0000 -0.8794
vt 0.0874 1.0000 -0.6527
vt 0.1953 1.0000 -0.3473
# 277 texture coords

o Box002
g Box002
usemtl wire_150018011
s 128
f 1/1/1 2/2/2 3/3/3 4/4/4 
f 5/5/5 6/6/6 4/4/4 3/3/3 
f 7/6/7 8/4/8 9/3/9 10/5/10 
f 8/4/8 11/1/11 12/2/12 9/3/9 
f 6/6/6 5/4/5 13/3/13 14/5/14 
f 12/7/12 11/8/11 14/5/14 13/3/13 
f 2/4/2 1/1/1 15/2/15 16/3/16 
f 7/9/7 10/7/10 16/3/16 15/2/15 
f 1/6/1 4/4/4 17/4/17 18/10/18 
f 4/4/4 6/1/6 19/11/19 17/4/17 
f 20/11/20 21/4/21 17/4/17 19/11/19 
f 21/4/21 22/10/22 18/10/18 17/4/17 
f 6/1/6 14/2/14 23/2/23 19/11/19 
f 14/2/14 11/9/11 24/12/24 23/2/23 
f 25/12/25 26/2/26 23/2/23 24/12/24 
f 26/2/26 20/11/20 19/11/19 23/2/23 
f 11/9/11 8/7/8 27/7/27 24/12/24 
f 8/7/8 7/8/7 28/13/28 27/7/27 
f 29/13/29 30/7/30 27/7/27 28/13/28 
f 30/7/30 25/12/25 24/12/24 27/7/27 
f 7/8/7 15/5/15 31/5/31 28/13/28 
f 15/5/15 1/6/1 18/10/18 31/5/31 
f 22/10/22 32/5/32 31/5/31 18/10/18 
f 32/5/32 29/13/29 28/13/28 31/5/31 
f 22/10/22 21/4/21 33/4/33 34/10/34 
f 21/4/21 20/11/20 35/11/35 33/4/33 
f 20/11/20 26/2/26 36/2/36 35/11/35 
f 26/2/26 25/12/25 37/12/37 36/2/36 
f 25/12/25 30/7/30 38/7/38 37/12/37 
f 30/7/30 29/13/29 39/13/39 38/7/38 
f 29/13/29 32/5/32 40/5/40 39/13/39 
f 32/5/32 22/10/22 34/10/34 40/5/40 
f 41/1/41 42/2/42 43/3/43 44/4/44 
f 45/5/45 46/6/46 44/4/44 43/3/43 
f 47/4/47 48/1/48 49/2/49 
f 46/6/46 45/4/45 50/3/50 51/5/51 
f 42/4/42 41/1/41 52/2/52 53/3/53 
f 54/9/54 55/7/55 53/3/53 52/2/52 
f 41/6/41 44/4/44 56/4/56 57/10/57 
f 44/4/44 46/1/46 58/11/58 56/4/56 
f 59/11/59 60/4/60 56/4/56 58/11/58 
f 60/4/60 61/10/61 57/10/57 56/4/56 
f 46/1/46 51/2/51 62/2/62 58/11/58 
f 51/2/51 48/9/48 63/12/63 62/2/62 
f 64/12/64 65/2/65 62/2/62 63/12/63 
f 65/2/65 59/11/59 58/11/58 62/2/62 
f 48/9/48 47/7/47 66/7/66 63/12/63 
f 47/7/47 54/8/54 67/13/67 66/7/66 
f 68/13/68 69/7/69 66/7/66 67/13/67 
f 69/7/69 64/12/64 63/12/63 66/7/66 
f 54/8/54 52/5/52 70/5/70 67/13/67 
f 52/5/52 41/6/41 57/10/57 70/5/70 
f 61/10/61 71/5/71 70/5/70 57/10/57 
f 71/5/71 68/13/68 67/13/67 70/5/70 
f 61/10/61 60/4/60 72/4/72 73/10/73 
f 60/4/60 59/11/59 74/11/74 72/4/72 
f 59/11/59 65/2/65 75/2/75 74/11/74 
f 65/2/65 64/12/64 76/12/76 75/2/75 
f 64/12/64 69/7/69 77/7/77 76/12/76 
f 69/7/69 68/13/68 78/13/78 77/7/77 
f 68/13/68 71/5/71 79/5/79 78/13/78 
f 71/5/71 61/10/61 73/10/73 79/5/79 
f 80/14/80 81/4/81 82/4/82 83/14/83 
f 81/4/81 84/15/84 85/15/85 82/4/82 
f 86/16/86 87/7/87 88/7/88 89/16/89 
f 87/7/87 90/17/90 91/17/91 88/7/88 
f 92/16/92 93/7/93 94/7/94 95/16/95 
f 93/7/93 96/17/96 97/17/97 94/7/94 
f 98/8/98 92/16/92 95/16/95 99/8/99 
f 96/17/96 100/9/100 101/9/101 97/17/97 
f 102/14/96 103/4/93 104/4/102 105/14/103 
f 103/4/93 106/15/92 107/15/104 104/4/102 
f 108/1/100 102/14/96 105/14/103 109/1/101 
f 106/15/92 110/6/98 111/6/99 107/15/104 
f 102/14/96 112/14/105 113/4/106 103/4/93 
f 114/15/107 106/15/92 103/4/93 113/4/106 
f 115/1/108 80/14/80 83/14/83 116/1/109 
f 112/14/105 102/14/96 108/1/100 116/1/109 
f 106/15/92 114/15/107 117/6/110 110/6/98 
f 84/15/84 118/6/111 117/6/110 85/15/85 
f 92/16/92 119/16/112 120/7/113 93/7/93 
f 121/17/114 96/17/96 93/7/93 120/7/113 
f 122/8/115 86/16/86 89/16/89 123/8/116 
f 119/16/112 92/16/92 98/8/98 123/8/116 
f 96/17/96 121/17/114 124/9/117 100/9/100 
f 90/17/90 125/9/118 124/9/117 91/17/91 
f 84/15/84 81/4/81 126/4/119 127/15/120 
f 81/4/81 80/14/80 128/14/121 126/4/119 
f 129/14/122 130/4/123 126/4/119 128/14/121 
f 130/4/123 131/15/124 127/15/120 126/4/119 
f 80/14/80 115/1/108 132/1/125 128/14/121 
f 133/14/126 134/1/127 132/1/125 135/14/128 
f 134/1/127 129/14/122 128/14/121 132/1/125 
f 136/15/129 137/4/130 138/4/131 139/15/132 
f 137/4/130 133/14/126 135/14/128 138/4/131 
f 118/6/111 84/15/84 127/15/120 140/6/133 
f 131/15/124 141/6/134 140/6/133 127/15/120 
f 141/6/134 136/15/129 139/15/132 140/6/133 
f 90/17/90 87/7/87 142/7/135 143/17/136 
f 87/7/87 86/16/86 144/16/137 142/7/135 
f 145/16/138 146/7/139 142/7/135 144/16/137 
f 146/7/139 147/17/140 143/17/136 142/7/135 
f 86/16/86 122/8/115 148/8/133 144/16/137 
f 149/16/141 150/8/134 148/8/133 151/16/142 
f 150/8/134 145/16/138 144/16/137 148/8/133 
f 152/17/143 153/7/144 154/7/145 155/17/146 
f 153/7/144 149/16/141 151/16/142 154/7/145 
f 125/9/118 90/17/90 143/17/136 156/9/125 
f 147/17/140 157/9/127 156/9/125 143/17/136 
f 157/9/127 152/17/143 155/17/146 156/9/125 
f 158/11/147 159/4/148 160/4/149 161/11/150 
f 159/4/148 162/10/151 163/10/152 160/4/149 
f 164/12/153 165/2/154 166/2/155 167/12/156 
f 165/2/154 158/11/147 161/11/150 166/2/155 
f 168/13/157 169/7/158 170/7/159 171/13/160 
f 169/7/158 164/12/153 167/12/156 170/7/159 
f 162/10/151 172/5/161 173/5/162 163/10/152 
f 172/5/161 168/13/157 171/13/160 173/5/162 
f 129/14/122 134/1/127 174/1/163 175/14/164 
f 134/1/127 133/14/126 176/14/165 174/1/163 
f 177/14/166 178/1/167 174/1/163 176/14/165 
f 178/1/167 179/14/168 175/14/164 174/1/163 
f 136/15/129 141/6/134 180/6/169 181/15/170 
f 141/6/134 131/15/124 182/15/171 180/6/169 
f 183/15/172 184/6/173 180/6/169 182/15/171 
f 184/6/173 185/15/174 181/15/170 180/6/169 
f 145/16/138 150/8/134 186/8/169 187/16/175 
f 150/8/134 149/16/141 188/16/176 186/8/169 
f 189/16/177 190/8/178 186/8/169 188/16/176 
f 190/8/178 191/16/179 187/16/175 186/8/169 
f 152/17/143 157/9/127 192/9/180 193/17/181 
f 157/9/127 147/17/140 194/17/182 192/9/180 
f 195/17/183 196/9/184 192/9/180 194/17/182 
f 196/9/184 197/17/185 193/17/181 192/9/180 
f 183/15/172 198/4/186 199/4/187 200/15/188 
f 198/4/186 179/14/168 201/14/189 199/4/187 
f 179/14/168 178/1/167 202/1/190 201/14/189 
f 178/1/167 177/14/166 203/14/191 202/1/190 
f 177/14/166 204/4/192 205/4/193 203/14/191 
f 204/4/192 185/15/174 206/15/194 205/4/193 
f 185/15/174 184/6/173 207/6/195 206/15/194 
f 184/6/173 183/15/172 200/15/188 207/6/195 
f 195/17/183 208/7/196 209/7/197 210/17/198 
f 208/7/196 191/16/179 211/16/199 209/7/197 
f 191/16/179 190/8/178 212/8/200 211/16/199 
f 190/8/178 189/16/177 213/16/201 212/8/200 
f 189/16/177 214/7/202 215/7/203 213/16/201 
f 214/7/202 197/17/185 216/17/204 215/7/203 
f 197/17/185 196/9/184 217/9/205 216/17/204 
f 196/9/184 195/17/183 210/17/198 217/9/205 
f 158/11/147 165/2/154 218/2/206 219/11/207 
f 165/2/154 164/12/153 220/12/208 218/2/206 
f 221/12/209 222/2/210 218/2/206 220/12/208 
f 222/2/210 223/11/211 219/11/207 218/2/206 
f 168/13/157 172/5/161 224/5/212 225/13/213 
f 172/5/161 162/10/151 226/10/214 224/5/212 
f 227/10/215 228/5/216 224/5/212 226/10/214 
f 228/5/216 229/13/217 225/13/213 224/5/212 
f 131/15/124 130/4/123 230/4/218 182/15/171 
f 130/4/123 129/14/122 175/14/164 230/4/218 
f 179/14/168 198/4/186 230/4/218 175/14/164 
f 198/4/186 183/15/172 182/15/171 230/4/218 
f 133/14/126 137/4/130 231/4/219 176/14/165 
f 137/4/130 136/15/129 181/15/170 231/4/219 
f 185/15/174 204/4/192 231/4/219 181/15/170 
f 204/4/192 177/14/166 176/14/165 231/4/219 
f 147/17/140 146/7/139 232/7/220 194/17/182 
f 146/7/139 145/16/138 187/16/175 232/7/220 
f 191/16/179 208/7/196 232/7/220 187/16/175 
f 208/7/196 195/17/183 194/17/182 232/7/220 
f 149/16/141 153/7/144 233/7/221 188/16/176 
f 153/7/144 152/17/143 193/17/181 233/7/221 
f 197/17/185 214/7/202 233/7/221 193/17/181 
f 214/7/202 189/16/177 188/16/176 233/7/221 
f 162/10/151 159/4/148 234/4/222 226/10/214 
f 159/4/148 158/11/147 219/11/207 234/4/222 
f 223/11/211 235/4/223 234/4/222 219/11/207 
f 235/4/223 227/10/215 226/10/214 234/4/222 
f 164/12/153 169/7/158 236/7/224 220/12/208 
f 169/7/158 168/13/157 225/13/213 236/7/224 
f 229/13/217 237/7/225 236/7/224 225/13/213 
f 237/7/225 221/12/209 220/12/208 236/7/224 
f 227/10/215 235/4/223 238/4/226 239/10/227 
f 235/4/223 223/11/211 240/11/228 238/4/226 
f 223/11/211 222/2/210 241/2/229 240/11/228 
f 222/2/210 221/12/209 242/12/230 241/2/229 
f 221/12/209 237/7/225 243/7/231 242/12/230 
f 237/7/225 229/13/217 244/13/232 243/7/231 
f 229/13/217 228/5/216 245/5/233 244/13/232 
f 228/5/216 227/10/215 239/10/227 245/5/233 
s 1
f 55/4/55 246/9/234 247/8/235 
f 248/18/236 249/19/237 250/19/238 251/18/239 
f 249/19/237 252/20/240 253/20/241 250/19/238 
s 2
f 252/20/240 254/21/242 255/21/243 253/20/241 
f 254/21/242 256/22/244 257/22/245 255/21/243 
s 1
f 256/22/244 258/23/246 259/23/247 257/22/245 
f 258/23/246 260/24/248 261/24/249 259/23/247 
s 2
f 260/24/248 262/25/250 263/25/251 261/24/249 
f 262/25/250 248/18/236 251/18/239 263/25/251 
s 4
f 251/18/239 250/19/238 264/19/252 265/18/253 
s off
f 250/19/238 253/20/241 266/20/254 264/19/252 
f 253/20/241 255/21/243 267/21/255 266/20/254 
f 255/21/243 257/22/245 268/22/256 267/21/255 
f 257/22/245 259/23/247 269/23/257 268/22/256 
f 259/23/247 261/24/249 270/24/258 269/23/257 
f 261/24/249 263/25/251 271/25/259 270/24/258 
s 4
f 263/25/251 251/18/239 265/18/253 271/25/259 
s 128
f 272/3/260 273/4/261 274/1/262 275/2/263 
f 276/7/264 272/3/260 275/2/263 277/9/265 
f 272/3/260 276/7/264 278/8/266 279/5/267 
f 273/4/261 272/3/260 279/5/267 280/6/268 
f 281/3/269 282/5/270 274/6/262 273/4/261 
f 283/2/271 281/3/269 273/4/261 280/1/268 
f 281/3/269 283/2/271 284/9/272 285/7/273 
f 282/5/270 281/3/269 285/7/273 286/8/274 
f 287/3/275 283/5/271 280/6/268 279/4/267 
f 288/2/276 287/3/275 279/4/267 278/1/266 
f 287/3/275 288/2/276 289/9/277 290/7/278 
f 283/5/271 287/3/275 290/7/278 284/8/272 
f 291/3/279 288/5/276 278/6/266 276/4/264 
f 292/2/280 291/3/279 276/4/264 277/1/265 
f 291/3/279 292/2/280 293/9/281 294/7/282 
f 288/5/276 291/3/279 294/7/282 289/8/277 
f 295/3/283 292/5/280 277/6/265 275/4/263 
f 282/2/270 295/3/283 275/4/263 274/1/262 
f 295/3/283 282/2/270 286/9/274 296/7/284 
f 292/5/280 295/3/283 296/7/284 293/8/281 
f 297/4/285 298/10/286 286/6/274 285/4/273 
f 299/11/287 297/4/285 285/4/273 284/1/272 
f 297/4/285 299/11/287 300/26/288 301/27/289 
f 298/10/286 297/4/285 301/27/289 302/28/290 
f 303/2/291 299/11/287 284/1/272 290/2/278 
f 304/12/292 303/2/291 290/2/278 289/9/277 
f 303/2/291 304/12/292 246/29/234 305/30/293 
f 299/11/287 303/2/291 305/30/293 300/26/288 
f 306/7/294 304/12/292 289/9/277 294/7/282 
f 307/13/295 306/7/294 294/7/282 293/8/281 
f 306/7/294 307/13/295 308/31/296 247/32/235 
f 304/12/292 306/7/294 247/32/235 246/29/234 
f 309/5/297 307/13/295 293/8/281 296/5/284 
f 298/10/286 309/5/297 296/5/284 286/6/274 
f 309/5/297 298/10/286 302/28/290 310/5/298 
f 307/13/295 309/5/297 310/5/298 308/31/296 
f 311/33/299 312/34/300 313/35/301 314/36/302 
f 315/37/303 311/33/299 314/36/302 316/38/304 
f 311/33/299 315/37/303 317/39/305 318/40/306 
f 319/41/307 320/42/308 321/43/309 322/44/310 
f 323/45/311 319/41/307 322/44/310 324/46/312 
f 319/41/307 323/45/311 325/47/313 326/48/314 
f 327/5/315 320/42/308 308/31/296 310/5/298 
f 318/40/306 327/5/315 310/5/298 302/28/290 
f 327/5/315 318/40/306 317/39/305 328/5/316 
f 320/42/308 327/5/315 328/5/316 321/43/309 
f 329/49/317 330/50/318 331/51/319 332/52/320 
f 323/45/311 329/49/317 332/52/320 325/47/313 
f 329/49/317 323/45/311 324/46/312 333/53/321 
f 330/50/318 329/49/317 333/53/321 334/54/322 
f 335/55/323 336/56/324 315/37/303 316/38/304 
f 337/57/325 336/56/324 335/55/323 338/58/326 
f 336/56/324 337/57/325 317/39/305 315/37/303 
f 339/59/327 322/44/310 321/43/309 340/60/328 
f 341/61/329 339/59/327 340/60/328 342/62/330 
f 324/46/312 322/44/310 339/59/327 341/61/329 
f 343/5/331 328/5/316 317/39/305 337/57/325 
f 344/63/332 343/5/331 337/57/325 338/58/326 
f 343/5/331 344/63/332 342/62/330 340/60/328 
f 328/5/316 343/5/331 340/60/328 321/43/309 
f 345/64/333 346/65/334 347/66/335 348/67/336 
f 314/36/302 345/64/333 348/67/336 316/38/304 
f 345/64/333 314/36/302 313/35/301 349/68/337 
f 346/65/334 345/64/333 349/68/337 350/69/338 
f 351/70/339 348/67/336 347/66/335 352/71/340 
f 333/53/321 351/70/339 352/71/340 334/54/322 
f 351/70/339 333/53/321 324/46/312 341/61/329 
f 344/63/332 351/70/339 341/61/329 342/62/330 
f 351/70/339 344/63/332 338/58/326 335/55/323 
f 348/67/336 351/70/339 335/55/323 316/38/304 
f 353/72/341 332/52/320 331/51/319 354/73/342 
f 248/74/236 353/72/341 354/73/342 249/75/237 
f 353/72/341 248/74/236 262/76/250 355/77/343 
f 349/68/337 353/72/341 355/77/343 350/69/338 
f 353/72/341 349/68/337 313/35/301 312/34/300 
f 305/30/293 353/72/341 312/34/300 300/26/288 
f 353/72/341 305/30/293 246/29/234 326/48/314 
f 332/52/320 353/72/341 326/48/314 325/47/313 
f 356/78/344 357/79/345 334/54/322 352/71/340 
f 358/80/346 356/78/344 352/71/340 347/66/335 
f 356/78/344 358/80/346 258/23/246 256/22/244 
f 357/79/345 356/78/344 256/22/244 254/21/242 
f 359/81/347 346/65/334 350/69/338 355/82/343 
f 260/24/248 359/81/347 355/82/343 262/25/250 
f 359/81/347 260/24/248 258/23/246 358/80/346 
f 346/65/334 359/81/347 358/80/346 347/66/335 
f 360/83/348 252/20/240 249/19/237 354/84/342 
f 330/50/318 360/83/348 354/84/342 331/51/319 
f 360/83/348 330/50/318 334/54/322 357/79/345 
f 252/20/240 360/83/348 357/79/345 254/21/242 
f 361/7/349 3/3/3 2/2/2 362/9/350 
f 3/3/3 361/7/349 363/8/351 5/5/5 
f 9/3/9 12/2/12 364/9/352 365/7/353 
f 10/5/10 9/3/9 365/7/353 366/8/354 
f 367/3/355 368/85/356 369/86/357 370/87/358 
f 371/88/359 367/3/355 370/87/358 372/89/360 
f 367/3/355 371/88/359 373/90/361 374/91/362 
f 368/85/356 367/3/355 374/91/362 375/92/363 
f 376/2/364 13/3/13 5/4/5 363/1/351 
f 13/3/13 376/2/364 364/9/352 12/7/12 
f 311/3/299 377/2/365 366/9/354 365/7/353 
f 376/5/364 311/3/299 365/7/353 
f 16/3/16 377/5/365 362/6/350 2/4/2 
f 377/5/365 16/3/16 10/7/10 366/8/354 
f 33/4/33 35/11/35 372/89/360 370/87/358 
f 34/10/34 33/4/33 370/87/358 369/86/357 
f 36/2/36 37/12/37 373/90/361 371/88/359 
f 35/11/35 36/2/36 371/88/359 372/89/360 
f 38/7/38 39/13/39 375/92/363 374/91/362 
f 37/12/37 38/7/38 374/91/362 373/90/361 
f 40/5/40 34/10/34 369/86/357 368/85/356 
f 39/13/39 40/5/40 368/85/356 375/92/363 
f 378/7/366 43/3/43 42/2/42 379/9/367 
f 43/3/43 378/7/366 380/8/368 45/5/45 
f 49/2/49 55/5/55 54/6/54 47/4/47 
f 381/3/369 382/85/370 383/86/371 384/87/372 
f 385/88/373 381/3/369 384/87/372 386/89/374 
f 381/3/369 385/88/373 387/90/375 388/91/376 
f 382/85/370 381/3/369 388/91/376 389/92/377 
f 390/2/378 50/3/50 45/4/45 380/1/368 
f 50/3/50 390/2/378 391/9/379 49/7/49 
f 51/5/51 50/3/50 49/7/49 48/8/48 
f 392/3/380 390/5/378 380/6/368 378/4/366 
f 393/2/381 392/3/380 378/4/366 379/1/367 
f 392/3/380 393/2/381 247/9/235 394/7/382 
f 394/7/382 391/8/379 390/5/378 392/3/380 
f 53/3/53 393/5/381 379/6/367 42/4/42 
f 393/5/381 53/3/53 55/7/55 247/8/235 
f 72/4/72 74/11/74 386/89/374 384/87/372 
f 73/10/73 72/4/72 384/87/372 383/86/371 
f 75/2/75 76/12/76 387/90/375 385/88/373 
f 74/11/74 75/2/75 385/88/373 386/89/374 
f 77/7/77 78/13/78 389/92/377 388/91/376 
f 76/12/76 77/7/77 388/91/376 387/90/375 
f 79/5/79 73/10/73 383/86/371 382/85/370 
f 78/13/78 79/5/79 382/85/370 389/92/377 
f 395/3/383 396/4/384 397/1/385 398/2/386 
f 399/7/387 395/3/383 398/2/386 400/9/388 
f 395/3/383 399/7/387 401/8/389 402/5/390 
f 396/4/384 395/3/383 402/5/390 403/6/391 
f 404/3/392 405/85/393 406/86/394 407/87/395 
f 408/88/396 404/3/392 407/87/395 409/89/397 
f 408/88/396 410/90/398 411/91/399 404/3/392 
f 405/85/393 404/3/392 411/91/399 412/92/400 
f 413/3/401 414/5/402 397/6/385 396/4/384 
f 415/2/403 413/3/401 396/4/384 403/1/391 
f 413/3/401 415/2/403 416/9/404 417/7/405 
f 414/5/402 413/3/401 417/7/405 418/8/406 
f 419/3/407 415/5/403 403/6/391 402/4/390 
f 420/2/408 419/3/407 402/4/390 401/1/389 
f 419/3/407 420/2/408 421/9/409 422/7/410 
f 415/5/403 419/3/407 422/7/410 416/8/404 
f 423/3/411 420/5/408 401/6/389 399/4/387 
f 424/2/412 423/3/411 399/4/387 400/1/388 
f 423/3/411 424/2/412 425/9/413 426/7/414 
f 420/5/408 423/3/411 426/7/414 421/8/409 
f 427/3/415 424/5/412 400/6/388 398/4/386 
f 414/2/402 427/3/415 398/4/386 397/1/385 
f 427/3/415 414/2/402 418/9/406 428/7/416 
f 424/5/412 427/3/415 428/7/416 425/8/413 
f 82/4/82 85/15/85 429/93/417 430/4/418 
f 83/14/83 82/4/82 430/4/418 431/94/419 
f 432/2/420 433/95/421 416/1/404 422/2/410 
f 434/96/421 432/2/420 422/2/410 421/9/409 
f 432/2/420 434/96/421 435/97/422 436/2/423 
f 433/95/421 432/2/420 436/2/423 437/98/424 
f 88/7/88 91/17/91 438/99/425 439/7/426 
f 89/16/89 88/7/88 439/7/426 440/100/427 
f 441/5/428 442/101/429 425/8/413 428/5/416 
f 443/102/430 441/5/428 428/5/416 418/6/406 
f 441/5/428 443/102/430 444/103/431 445/5/432 
f 442/101/429 441/5/428 445/5/432 446/104/433 
f 94/7/94 97/17/97 421/9/409 426/7/414 
f 95/16/95 94/7/94 426/7/414 425/8/413 
f 99/8/99 95/16/95 425/8/413 442/101/429 
f 447/16/434 99/8/99 442/101/429 446/104/433 
f 99/8/99 447/16/434 448/105/435 98/8/98 
f 449/7/436 447/16/434 446/104/433 450/7/437 
f 451/17/438 449/7/436 450/7/437 435/97/422 
f 449/7/436 451/17/438 452/106/439 453/7/440 
f 447/16/434 449/7/436 453/7/440 448/105/435 
f 101/9/101 451/17/438 435/97/422 434/96/421 
f 97/17/97 101/9/101 434/96/421 421/9/409 
f 451/17/438 101/9/101 100/9/100 452/106/439 
f 104/4/102 107/15/104 418/6/406 417/4/405 
f 105/14/103 104/4/102 417/4/405 416/1/404 
f 109/1/101 105/14/103 416/1/404 433/95/421 
f 454/14/441 109/1/101 433/95/421 437/98/424 
f 109/1/101 454/14/441 455/107/442 108/1/100 
f 456/4/443 454/14/441 437/98/424 457/4/444 
f 458/15/445 456/4/443 457/4/444 444/103/431 
f 456/4/443 458/15/445 459/108/446 460/4/447 
f 454/14/441 456/4/443 460/4/447 455/107/442 
f 111/6/99 458/15/445 444/103/431 443/102/430 
f 107/15/104 111/6/99 443/102/430 418/6/406 
f 458/15/445 111/6/99 110/6/98 459/108/446 
f 430/4/418 113/4/106 112/14/105 431/94/419 
f 113/4/106 430/4/418 429/93/417 114/15/107 
f 116/1/109 108/1/100 455/107/442 115/1/108 
f 116/1/109 83/14/83 431/94/419 112/14/105 
f 461/4/448 462/4/449 463/93/450 464/15/451 
f 465/4/452 461/4/448 464/15/451 466/93/453 
f 461/4/448 465/4/452 467/94/454 468/14/455 
f 462/4/449 461/4/448 468/14/455 469/94/456 
f 85/15/85 117/6/110 114/15/107 429/93/417 
f 110/6/98 117/6/110 118/6/111 459/108/446 
f 439/7/426 120/7/113 119/16/112 440/100/427 
f 120/7/113 439/7/426 438/99/425 121/17/114 
f 123/8/116 98/8/98 448/105/435 122/8/115 
f 123/8/116 89/16/89 440/100/427 119/16/112 
f 470/7/448 471/7/457 472/99/458 473/17/459 
f 474/7/460 470/7/448 473/17/459 475/99/461 
f 470/7/448 474/7/460 476/100/462 477/16/463 
f 471/7/457 470/7/448 477/16/463 478/100/464 
f 91/17/91 124/9/117 121/17/114 438/99/425 
f 100/9/100 124/9/117 125/9/118 452/106/439 
f 135/14/128 132/1/125 115/1/108 455/107/442 
f 138/4/131 135/14/128 455/107/442 460/4/447 
f 139/15/132 138/4/131 460/4/447 459/108/446 
f 140/6/133 139/15/132 459/108/446 118/6/111 
f 151/16/142 148/8/133 122/8/115 448/105/435 
f 154/7/145 151/16/142 448/105/435 453/7/440 
f 155/17/146 154/7/145 453/7/440 452/106/439 
f 156/9/125 155/17/146 452/106/439 125/9/118 
f 160/4/149 163/10/152 444/103/431 457/4/444 
f 161/11/150 160/4/149 457/4/444 437/98/424 
f 166/2/155 161/11/150 437/98/424 436/2/423 
f 167/12/156 166/2/155 436/2/423 435/97/422 
f 170/7/159 167/12/156 435/97/422 450/7/437 
f 171/13/160 170/7/159 450/7/437 446/104/433 
f 173/5/162 171/13/160 446/104/433 445/5/432 
f 163/10/152 173/5/162 445/5/432 444/103/431 
f 199/4/187 201/14/189 467/94/454 465/4/452 
f 200/15/188 199/4/187 465/4/452 466/93/453 
f 202/1/190 203/14/191 469/94/456 468/14/455 
f 201/14/189 202/1/190 468/14/455 467/94/454 
f 205/4/193 206/15/194 463/93/450 462/4/449 
f 203/14/191 205/4/193 462/4/449 469/94/456 
f 207/6/195 200/15/188 466/93/453 464/15/451 
f 206/15/194 207/6/195 464/15/451 463/93/450 
f 209/7/197 211/16/199 476/100/462 474/7/460 
f 210/17/198 209/7/197 474/7/460 475/99/461 
f 212/8/200 213/16/201 478/100/464 477/16/463 
f 211/16/199 212/8/200 477/16/463 476/100/462 
f 215/7/203 216/17/204 472/99/458 471/7/457 
f 213/16/201 215/7/203 471/7/457 478/100/464 
f 217/9/205 210/17/198 475/99/461 473/17/459 
f 216/17/204 217/9/205 473/17/459 472/99/458 
f 238/4/226 240/11/228 409/89/397 407/87/395 
f 239/10/227 238/4/226 407/87/395 406/86/394 
f 241/2/229 242/12/230 410/90/398 408/88/396 
f 240/11/228 241/2/229 408/88/396 409/89/397 
f 243/7/231 244/13/232 412/92/400 411/91/399 
f 242/12/230 243/7/231 411/91/399 410/90/398 
f 245/5/233 239/10/227 406/86/394 405/85/393 
f 245/5/233 405/85/393 412/92/400 244/13/232 
f 479/3/465 480/4/466 481/1/467 482/2/468 
f 483/7/469 479/3/465 482/2/468 484/9/470 
f 479/3/465 483/7/469 485/8/471 486/5/472 
f 480/4/466 479/3/465 486/5/472 487/6/473 
f 488/3/474 489/5/475 490/6/476 491/4/477 
f 492/2/478 488/3/474 491/4/477 493/1/479 
f 488/3/474 492/2/478 494/9/480 495/7/481 
f 489/5/475 488/3/474 495/7/481 496/8/482 
f 497/3/483 498/5/484 481/6/467 480/4/466 
f 499/2/485 497/3/483 480/4/466 487/1/473 
f 497/3/483 499/2/485 493/9/479 491/7/477 
f 498/5/484 497/3/483 491/7/477 490/8/476 
f 500/109/486 501/110/487 485/6/471 483/4/469 
f 502/111/488 500/109/486 483/4/469 484/1/470 
f 500/109/486 502/111/488 503/112/489 504/113/490 
f 501/110/487 500/109/486 504/113/490 505/114/491 
f 506/115/492 507/116/493 508/117/494 
f 506/115/492 509/118/495 510/119/496 
f 506/115/492 511/120/497 512/121/498 
f 506/115/492 513/122/499 514/123/500 
f 515/124/501 501/125/487 505/126/491 516/127/502 
f 492/7/478 515/124/501 516/127/502 494/9/480 
f 515/124/501 492/7/478 493/8/479 499/5/485 
f 486/4/472 515/124/501 499/5/485 487/6/473 
f 515/124/501 486/4/472 485/1/471 501/125/487 
f 517/128/503 518/129/504 503/130/489 502/131/488 
f 482/4/468 517/128/503 502/131/488 484/6/470 
f 517/128/503 482/4/468 481/1/467 498/2/484 
f 489/7/475 517/128/503 498/2/484 490/9/476 
f 517/128/503 489/7/475 496/8/482 518/129/504 
f 519/7/505 520/132/506 496/9/482 495/7/481 
f 521/133/507 519/7/505 495/7/481 494/8/480 
f 519/7/505 521/133/507 512/121/498 511/120/497 
f 520/132/506 519/7/505 511/120/497 510/119/496 
f 522/134/508 521/133/507 494/8/480 516/134/502 
f 523/135/509 522/134/508 516/134/502 505/114/491 
f 522/134/508 523/135/509 514/123/500 513/122/499 
f 521/133/507 522/134/508 513/122/499 512/121/498 
f 524/136/510 523/135/509 505/114/491 504/113/490 
f 525/137/511 524/136/510 504/113/490 503/112/489 
f 524/136/510 525/137/511 508/117/494 507/116/493 
f 523/135/509 524/136/510 507/116/493 514/123/500 
f 526/138/512 525/137/511 503/112/489 518/138/504 
f 520/132/506 526/138/512 518/138/504 496/9/482 
f 526/138/512 520/132/506 510/119/496 509/118/495 
f 525/137/511 526/138/512 509/118/495 508/117/494 
f 527/3/513 528/4/514 529/1/515 530/2/516 
f 531/7/517 527/3/513 530/2/516 532/9/470 
f 527/3/513 531/7/517 533/8/518 534/5/519 
f 528/4/514 527/3/513 534/5/519 535/6/473 
f 536/3/474 537/5/520 538/6/476 539/4/477 
f 540/2/478 536/3/474 539/4/477 541/1/479 
f 536/3/474 540/2/478 542/9/480 543/7/481 
f 537/5/520 536/3/474 543/7/481 544/8/521 
f 545/3/483 546/5/522 529/6/515 528/4/514 
f 547/2/485 545/3/483 528/4/514 535/1/473 
f 545/3/483 547/2/485 541/9/479 539/7/477 
f 546/5/522 545/3/483 539/7/477 538/8/476 
f 548/109/523 549/110/524 533/6/518 531/4/517 
f 550/111/488 548/109/523 531/4/517 532/1/470 
f 548/109/523 550/111/488 551/112/489 552/113/525 
f 549/110/524 548/109/523 552/113/525 553/114/526 
f 554/115/492 555/116/493 556/117/527 
f 554/115/492 557/118/495 558/119/496 
f 554/115/492 559/120/497 560/121/498 
f 554/115/492 561/122/499 562/123/500 
f 563/124/501 549/125/524 553/126/526 564/127/502 
f 540/7/478 563/124/501 564/127/502 542/9/480 
f 563/124/501 540/7/478 541/8/479 547/5/485 
f 534/4/519 563/124/501 547/5/485 535/6/473 
f 563/124/501 534/4/519 533/1/518 549/125/524 
f 565/128/528 566/129/529 551/130/489 550/131/488 
f 530/4/516 565/128/528 550/131/488 532/6/470 
f 565/128/528 530/4/516 529/1/515 546/2/522 
f 537/7/520 565/128/528 546/2/522 538/9/476 
f 565/128/528 537/7/520 544/8/521 566/129/529 
f 567/7/505 568/132/530 544/9/521 543/7/481 
f 569/133/507 567/7/505 543/7/481 542/8/480 
f 567/7/505 569/133/507 560/121/498 559/120/497 
f 568/132/530 567/7/505 559/120/497 558/119/496 
f 570/134/508 569/133/507 542/8/480 564/134/502 
f 571/135/509 570/134/508 564/134/502 553/114/526 
f 570/134/508 571/135/509 562/123/500 561/122/499 
f 569/133/507 570/134/508 561/122/499 560/121/498 
f 572/136/531 571/135/509 553/114/526 552/113/525 
f 573/137/532 572/136/531 552/113/525 551/112/489 
f 572/136/531 573/137/532 556/117/527 555/116/493 
f 571/135/509 572/136/531 555/116/493 562/123/500 
f 574/138/533 573/137/532 551/112/489 566/138/529 
f 568/132/530 574/138/533 566/138/529 544/9/521 
f 574/138/533 568/132/530 558/119/496 557/118/495 
f 573/137/532 574/138/533 557/118/495 556/117/527 
f 265/3/253 264/7/252 575/8/534 576/5/535 
f 271/4/259 265/3/253 576/5/535 577/6/536 
f 578/3/537 579/5/538 580/6/539 581/4/540 
f 582/2/541 583/3/542 584/4/543 585/1/544 
f 583/3/542 582/2/541 586/9/545 587/7/546 
f 579/5/538 578/3/537 588/7/547 589/8/548 
f 590/3/549 591/5/550 592/6/551 269/4/257 
f 593/2/552 594/3/553 271/4/259 577/1/536 
f 594/3/553 593/2/552 585/9/544 584/7/543 
f 591/5/550 590/3/549 581/7/540 580/8/539 
f 595/3/554 593/5/552 577/6/536 576/4/535 
f 596/2/555 595/3/554 576/4/535 575/1/534 
f 595/3/554 596/2/555 586/9/545 582/7/541 
f 593/5/552 595/3/554 582/7/541 585/8/544 
f 597/3/556 596/5/555 575/6/534 264/4/252 
f 598/2/557 599/3/558 267/4/559 600/1/560 
f 599/3/558 598/2/557 589/9/548 588/7/547 
f 596/5/555 597/3/556 587/7/546 586/8/545 
f 601/3/561 598/5/557 600/6/560 602/4/562 
f 591/2/550 601/3/561 602/4/562 592/1/551 
f 601/3/561 591/2/550 580/9/539 579/7/538 
f 598/5/557 601/3/561 579/7/538 589/8/548 
f 603/3/563 604/4/564 605/1/565 606/2/566 
f 607/7/567 603/3/563 606/2/566 608/9/568 
f 603/3/563 607/7/567 609/8/569 610/5/570 
f 604/4/564 603/3/563 610/5/570 611/6/571 
f 612/3/572 613/5/573 614/6/574 
f 612/3/572 615/4/575 616/1/576 
f 612/3/572 617/9/577 618/7/578 
f 612/3/572 618/7/578 619/8/579 
f 620/3/580 621/5/581 605/6/565 604/4/564 
f 622/2/582 620/3/580 604/4/564 611/1/571 
f 620/3/580 622/2/582 616/9/576 615/7/575 
f 621/5/581 620/3/580 615/7/575 614/8/574 
f 623/3/583 622/5/582 611/6/571 610/4/570 
f 624/2/584 623/3/583 610/4/570 609/1/569 
f 623/3/583 624/2/584 617/9/577 625/7/585 
f 622/5/582 623/3/583 625/7/585 616/8/576 
f 626/3/586 624/5/584 609/6/569 607/4/567 
f 627/2/587 626/3/586 607/4/567 608/1/568 
f 626/3/586 627/2/587 619/9/579 618/7/578 
f 624/5/584 626/3/586 618/7/578 617/8/577 
f 628/3/588 627/5/587 608/6/568 606/4/566 
f 621/2/581 628/3/588 606/4/566 605/1/565 
f 628/3/588 621/2/581 614/9/574 613/7/573 
f 627/5/587 628/3/588 613/7/573 619/8/579 
f 629/3/563 630/4/589 631/1/590 632/2/591 
f 633/7/592 629/3/563 632/2/591 634/9/593 
f 629/3/563 633/7/592 635/8/594 636/5/595 
f 630/4/589 629/3/563 636/5/595 637/6/596 
f 638/3/597 637/6/596 636/4/595 
f 639/2/598 638/3/597 636/4/595 635/1/594 
f 640/9/599 638/3/597 639/2/598 
f 641/3/600 639/5/598 635/6/594 633/4/592 
f 642/2/601 641/3/600 633/4/592 634/1/593 
f 639/5/598 641/3/600 643/7/602 640/8/599 
s 1
f 361/7/349 362/47/350 301/1/289 300/6/288 
s 2
f 377/3/365 302/6/290 301/1/289 362/47/350 
s 1
f 377/3/365 311/117/299 318/3/306 302/6/290 
s 2
f 49/8/49 326/2/314 246/9/234 55/4/55 
f 308/1/296 320/5/308 394/4/382 247/8/235 
s 1
f 319/8/307 391/6/379 394/9/382 320/7/308 
s 4
f 391/6/379 319/8/307 326/2/314 49/7/49 
s 1
f 267/4/559 599/3/558 644/3/603 266/4/254 
f 599/3/558 588/7/547 645/7/604 644/3/603 
s off
f 588/7/547 578/3/537 646/3/605 645/7/604 
f 578/3/537 581/4/540 647/4/606 646/3/605 
s 1
f 581/7/540 590/3/549 648/3/607 647/7/606 
f 590/3/549 269/4/257 270/4/258 648/3/607 
f 644/3/603 597/3/556 264/4/252 266/4/254 
f 645/7/604 587/7/546 597/3/556 644/3/603 
s off
f 646/3/605 583/3/542 587/7/546 645/7/604 
f 647/4/606 584/4/543 583/3/542 646/3/605 
s 1
f 648/3/607 594/3/553 584/7/543 647/7/606 
f 270/4/258 271/4/259 594/3/553 648/3/607 
f 267/16/255 268/7/256 602/4/562 600/15/560 
s 2
f 268/7/256 269/17/257 592/14/551 602/4/562 
f 363/62/351 361/5/349 300/6/288 312/4/300 
s 4
f 376/4/364 312/4/300 311/9/299 
f 376/4/364 363/62/351 312/4/300 
s 128
f 365/7/353 364/8/352 376/5/364 
f 619/8/579 613/5/573 612/3/572 
f 612/3/572 625/2/585 617/9/577 
f 616/1/576 625/2/585 612/3/572 
f 614/6/574 615/4/575 612/3/572 
f 510/119/496 511/120/497 506/115/492 
f 512/121/498 513/122/499 506/115/492 
f 514/123/500 507/116/493 506/115/492 
f 508/117/494 509/118/495 506/115/492 
f 560/121/498 561/122/499 554/115/492 
f 562/123/500 555/116/493 554/115/492 
f 556/117/527 557/118/495 554/115/492 
f 558/119/496 559/120/497 554/115/492 
f 649/3/608 650/4/609 651/2/610 
f 649/3/608 651/2/610 652/9/611 
f 649/3/608 652/9/611 653/8/612 654/5/613 
f 650/4/609 649/3/608 654/5/613 655/6/614 
f 656/3/615 657/5/616 658/6/617 
f 659/2/618 656/3/615 658/6/617 660/1/619 
f 656/3/615 659/2/618 661/9/620 662/7/621 
f 657/5/616 656/3/615 662/7/621 
f 663/2/622 664/3/623 650/4/609 655/1/614 
f 664/3/623 663/2/622 660/9/619 658/8/617 
f 665/3/624 663/5/622 655/6/614 654/4/613 
f 666/2/625 665/3/624 654/4/613 653/1/612 
f 665/3/624 666/2/625 661/9/620 659/7/618 
f 663/5/622 665/3/624 659/7/618 660/8/619 
f 667/2/626 666/5/625 653/6/612 652/1/611 
f 666/5/625 667/2/626 662/7/621 661/8/620 
f 668/3/627 667/5/626 652/6/611 651/4/610 
f 664/2/623 668/3/627 651/4/610 650/1/609 
f 668/3/627 664/2/623 658/9/617 657/7/616 
f 667/5/626 668/3/627 657/7/616 662/8/621 
f 669/3/628 670/2/629 671/4/630 
f 669/3/628 672/9/631 670/2/629 
f 669/3/628 673/5/632 674/8/633 672/9/631 
f 671/4/630 675/6/634 673/5/632 669/3/628 
f 676/3/635 677/6/636 678/5/637 
f 679/2/638 680/1/639 677/6/636 676/3/635 
f 676/3/635 681/7/640 682/9/641 679/2/638 
f 678/5/637 681/7/640 676/3/635 
f 683/2/642 675/1/634 671/4/630 684/3/643 
f 684/3/643 677/8/636 680/9/639 683/2/642 
f 685/3/644 673/4/632 675/6/634 683/5/642 
f 686/2/645 674/1/633 673/4/632 685/3/644 
f 685/3/644 679/7/638 682/9/641 686/2/645 
f 683/5/642 680/8/639 679/7/638 685/3/644 
f 687/2/646 672/1/631 674/6/633 686/5/645 
f 686/5/645 682/8/641 681/7/640 687/2/646 
f 688/3/647 670/4/629 672/6/631 687/5/646 
f 684/2/643 671/1/630 670/4/629 688/3/647 
f 688/3/647 678/7/637 677/9/636 684/2/643 
f 687/5/646 681/8/640 678/7/637 688/3/647 
s 1
f 689/139/648 690/140/649 691/141/650 692/142/651 693/143/652 694/144/653 695/145/654 696/146/655 697/147/656 698/148/657 699/149/658 700/150/659 701/151/660 702/152/661 703/153/662 704/154/663 705/155/664 706/156/665 
s 8
f 706/156/665 705/155/664 707/157/666 708/158/667 
f 705/155/664 704/154/663 709/159/668 707/157/666 
f 704/154/663 703/153/662 710/160/669 709/159/668 
f 703/153/662 702/152/661 711/161/670 710/160/669 
f 702/162/661 701/163/660 712/164/671 711/165/670 
f 701/163/660 700/166/659 713/167/672 712/164/671 
f 700/166/659 699/168/658 714/169/673 713/167/672 
f 699/168/658 698/170/657 715/171/674 714/169/673 
f 698/170/657 697/172/656 716/173/675 715/171/674 
f 697/172/656 696/174/655 717/175/676 716/173/675 
f 696/174/655 695/176/654 718/177/677 717/175/676 
f 695/176/654 694/178/653 719/179/678 718/177/677 
f 694/178/653 693/180/652 720/181/679 719/179/678 
f 693/180/652 692/182/651 721/183/680 720/181/679 
f 692/182/651 691/184/650 722/185/681 721/183/680 
f 691/184/650 690/186/649 723/187/682 722/185/681 
f 690/186/649 689/188/648 724/189/683 723/187/682 
f 689/188/648 706/156/665 708/158/667 724/189/683 
f 708/158/667 707/157/666 725/190/666 726/191/667 
f 707/157/666 709/159/668 727/192/668 725/190/666 
f 709/159/668 710/160/669 728/193/669 727/192/668 
f 710/160/669 711/161/670 729/194/670 728/193/669 
f 711/165/670 712/164/671 730/195/671 729/196/670 
f 712/164/671 713/167/672 731/197/672 730/195/671 
f 713/167/672 714/169/673 732/198/673 731/197/672 
f 714/169/673 715/171/674 733/199/674 732/198/673 
f 715/171/674 716/173/675 734/200/675 733/199/674 
f 716/173/675 717/175/676 735/201/676 734/200/675 
f 717/175/676 718/177/677 736/202/677 735/201/676 
f 718/177/677 719/179/678 737/203/678 736/202/677 
f 719/179/678 720/181/679 738/204/679 737/203/678 
f 720/181/679 721/183/680 739/205/680 738/204/679 
f 721/183/680 722/185/681 740/206/681 739/205/680 
f 722/185/681 723/187/682 741/207/682 740/206/681 
f 723/187/682 724/189/683 742/208/683 741/207/682 
f 724/189/683 708/158/667 726/191/667 742/208/683 
f 726/191/667 725/190/666 743/209/666 744/210/667 
f 725/190/666 727/192/668 745/211/668 743/209/666 
f 727/192/668 728/193/669 746/212/669 745/211/668 
f 728/193/669 729/194/670 747/213/670 746/212/669 
f 729/196/670 730/195/671 748/214/671 747/215/670 
f 730/195/671 731/197/672 749/216/672 748/214/671 
f 731/197/672 732/198/673 750/217/673 749/216/672 
f 732/198/673 733/199/674 751/218/674 750/217/673 
f 733/199/674 734/200/675 752/219/675 751/218/674 
f 734/200/675 735/201/676 753/220/676 752/219/675 
f 735/201/676 736/202/677 754/221/677 753/220/676 
f 736/202/677 737/203/678 755/222/678 754/221/677 
f 737/203/678 738/204/679 756/223/679 755/222/678 
f 738/204/679 739/205/680 757/224/680 756/223/679 
f 739/205/680 740/206/681 758/225/681 757/224/680 
f 740/206/681 741/207/682 759/226/682 758/225/681 
f 741/207/682 742/208/683 760/227/683 759/226/682 
f 742/208/683 726/191/667 744/210/667 760/227/683 
f 744/210/667 743/209/666 761/228/666 762/229/667 
f 743/209/666 745/211/668 763/230/668 761/228/666 
f 745/211/668 746/212/669 764/231/669 763/230/668 
f 746/212/669 747/213/670 765/232/670 764/231/669 
f 747/215/670 748/214/671 766/233/671 765/234/670 
f 748/214/671 749/216/672 767/235/672 766/233/671 
f 749/216/672 750/217/673 768/236/673 767/235/672 
f 750/217/673 751/218/674 769/237/674 768/236/673 
f 751/218/674 752/219/675 770/238/675 769/237/674 
f 752/219/675 753/220/676 771/239/676 770/238/675 
f 753/220/676 754/221/677 772/240/677 771/239/676 
f 754/221/677 755/222/678 773/241/678 772/240/677 
f 755/222/678 756/223/679 774/242/679 773/241/678 
f 756/223/679 757/224/680 775/243/680 774/242/679 
f 757/224/680 758/225/681 776/244/681 775/243/680 
f 758/225/681 759/226/682 777/245/682 776/244/681 
f 759/226/682 760/227/683 778/246/683 777/245/682 
f 760/227/683 744/210/667 762/229/667 778/246/683 
f 762/229/667 761/228/666 779/247/684 780/248/685 
f 761/228/666 763/230/668 781/249/686 779/247/684 
f 763/230/668 764/231/669 782/250/687 781/249/686 
f 764/231/669 765/232/670 783/251/688 782/250/687 
f 765/234/670 766/233/671 784/252/689 783/253/688 
f 766/233/671 767/235/672 785/254/690 784/252/689 
f 767/235/672 768/236/673 786/255/691 785/254/690 
f 768/236/673 769/237/674 787/256/692 786/255/691 
f 769/237/674 770/238/675 788/257/693 787/256/692 
f 770/238/675 771/239/676 789/258/694 788/257/693 
f 771/239/676 772/240/677 790/259/695 789/258/694 
f 772/240/677 773/241/678 791/260/696 790/259/695 
f 773/241/678 774/242/679 792/261/697 791/260/696 
f 774/242/679 775/243/680 793/262/698 792/261/697 
f 775/243/680 776/244/681 794/263/699 793/262/698 
f 776/244/681 777/245/682 795/264/700 794/263/699 
f 777/245/682 778/246/683 796/265/701 795/264/700 
f 778/246/683 762/229/667 780/248/685 796/265/701 
s 1
f 796/265/701 780/248/685 779/247/684 781/249/686 782/250/687 783/251/688 784/266/689 785/267/690 786/268/691 787/269/692 788/270/693 789/271/694 790/272/695 791/273/696 792/274/697 793/275/698 794/276/699 795/277/700 
# 740 polygons - 40 triangles

