# 3ds Max Wavefront OBJ Exporter v0.99 - (c)2007 guruware
# File Created: 27.09.2026 17:54:15

mtllib ghost.mtl

#
# object Box014
#

v  -50.0344 67.1494 -66.2150
v  -53.9658 67.1494 -66.0681
v  -57.3350 67.1494 -80.3830
v  -53.4036 67.1494 -80.5299
v  -50.0344 69.1690 -66.2150
v  -53.4036 69.1690 -80.5299
v  -57.3350 69.1690 -80.3830
v  -53.9658 69.1690 -66.0681
v  -57.2206 61.3292 -81.5390
v  -57.5908 61.7970 -83.1395
v  -54.7539 61.7970 -83.7956
v  -54.3838 61.3292 -82.1950
v  -56.5668 68.6472 -77.4740
v  -53.7299 68.6472 -78.1301
v  -54.1001 69.1149 -79.7306
v  -56.9369 69.1149 -79.0745
v  -54.4166 62.0956 -62.4193
v  -54.7867 61.3643 -63.9179
v  -51.9499 60.9228 -64.4031
v  -51.5797 61.6541 -62.9045
v  -53.7627 68.6627 -66.6171
v  -50.9259 68.2211 -67.1023
v  -51.2960 67.4899 -68.6009
v  -54.1329 67.9314 -68.1157
v  -59.6793 56.1927 -82.3965
v  -58.9749 54.8925 -82.9478
v  -57.8420 53.9338 -83.4847
v  -56.4173 53.4324 -83.9426
v  -54.8727 53.4486 -84.2662
v  -53.3945 53.9806 -84.4164
v  -52.1609 54.9641 -84.3752
v  -51.3208 56.2806 -84.1476
v  -50.9754 57.7712 -83.7609
v  -51.1665 59.2562 -83.2618
v  -51.8709 60.5564 -82.7105
v  -53.0038 61.5151 -82.1736
v  -54.4285 62.0165 -81.7157
v  -55.9731 62.0003 -81.3921
v  -57.4513 61.4683 -81.2419
v  -58.6849 60.4848 -81.2831
v  -59.5250 59.1683 -81.5107
v  -59.8704 57.6777 -81.8974
v  -59.6214 59.3082 -81.9636
v  -59.9668 57.8175 -82.3503
v  -58.7812 60.6246 -81.7359
v  -57.5477 61.6082 -81.6947
v  -56.0694 62.1401 -81.8450
v  -54.5248 62.1563 -82.1686
v  -53.1002 61.6549 -82.6265
v  -51.9673 60.6962 -83.1634
v  -51.2628 59.3960 -83.7147
v  -51.0717 57.9110 -84.2138
v  -51.4171 56.4204 -84.6005
v  -52.2572 55.1039 -84.8281
v  -53.4908 54.1204 -84.8693
v  -54.9691 53.5884 -84.7191
v  -56.5137 53.5722 -84.3955
v  -57.9383 54.0736 -83.9376
v  -59.0712 55.0323 -83.4007
v  -59.7757 56.3325 -82.8494
v  -59.7177 59.4480 -82.4165
v  -60.0631 57.9573 -82.8032
v  -58.8776 60.7644 -82.1888
v  -57.6440 61.7480 -82.1476
v  -56.1658 62.2799 -82.2979
v  -54.6212 62.2962 -82.6215
v  -53.1965 61.7947 -83.0794
v  -52.0636 60.8360 -83.6163
v  -51.3592 59.5358 -84.1676
v  -51.1681 58.0508 -84.6666
v  -51.5134 56.5602 -85.0533
v  -52.3536 55.2437 -85.2810
v  -53.5872 54.2602 -85.3222
v  -55.0654 53.7282 -85.1720
v  -56.6100 53.7120 -84.8484
v  -58.0347 54.2135 -84.3905
v  -59.1676 55.1721 -83.8535
v  -59.8720 56.4723 -83.3023
v  -59.8141 59.5878 -82.8694
v  -60.1594 58.0971 -83.2561
v  -58.9739 60.9042 -82.6417
v  -57.7404 61.8878 -82.6005
v  -56.2621 62.4197 -82.7508
v  -54.7175 62.4360 -83.0744
v  -53.2928 61.9345 -83.5322
v  -52.1600 60.9759 -84.0692
v  -51.4555 59.6756 -84.6205
v  -51.2644 58.1906 -85.1195
v  -51.6098 56.7000 -85.5062
v  -52.4499 55.3835 -85.7339
v  -53.6835 54.4000 -85.7751
v  -55.1618 53.8680 -85.6248
v  -56.7064 53.8518 -85.3013
v  -58.1310 54.3533 -84.8434
v  -59.2639 55.3119 -84.3064
v  -59.9684 56.6122 -83.7552
v  -59.9104 59.7276 -83.3223
v  -60.2558 58.2370 -83.7090
v  -59.0703 61.0441 -83.0946
v  -57.8367 62.0276 -83.0534
v  -56.3585 62.5595 -83.2037
v  -54.8139 62.5758 -83.5273
v  -53.3892 62.0743 -83.9851
v  -52.2563 61.1157 -84.5221
v  -51.5518 59.8154 -85.0733
v  -51.3608 58.3304 -85.5724
v  -51.7061 56.8398 -85.9591
v  -52.5463 55.5233 -86.1868
v  -53.7799 54.5398 -86.2280
v  -55.2581 54.0079 -86.0777
v  -56.8027 53.9916 -85.7542
v  -58.2274 54.4931 -85.2963
v  -59.3603 55.4517 -84.7593
v  -60.0647 56.7520 -84.2081
v  -60.0068 59.8674 -83.7752
v  -60.3521 58.3768 -84.1619
v  -59.1666 61.1839 -83.5475
v  -57.9330 62.1674 -83.5063
v  -56.4548 62.6994 -83.6566
v  -54.9102 62.7156 -83.9801
v  -53.4855 62.2141 -84.4380
v  -52.3527 61.2555 -84.9750
v  -51.6482 59.9552 -85.5262
v  -51.4571 58.4703 -86.0253
v  -51.8025 56.9796 -86.4120
v  -52.6426 55.6632 -86.6397
v  -53.8762 54.6796 -86.6809
v  -55.3545 54.1477 -86.5306
v  -56.8991 54.1314 -86.2070
v  -58.3237 54.6329 -85.7492
v  -59.4566 55.5915 -85.2122
v  -60.1611 56.8918 -84.6609
v  -56.8073 57.6614 -60.4234
v  -56.1028 56.2725 -60.1678
v  -54.9700 55.1766 -60.0884
v  -53.5453 54.5059 -60.1946
v  -52.0007 54.3413 -60.4737
v  -50.5225 54.7027 -60.8920
v  -49.2889 55.5465 -61.3990
v  -48.4487 56.7708 -61.9336
v  -48.1034 58.2282 -62.4313
v  -48.2944 59.7426 -62.8322
v  -48.9989 61.1316 -63.0877
v  -50.1318 62.2275 -63.1672
v  -51.5564 62.8982 -63.0609
v  -53.1010 63.0628 -62.7819
v  -54.5793 62.7014 -62.3636
v  -55.8129 61.8576 -61.8566
v  -56.6530 60.6332 -61.3219
v  -56.9984 59.1759 -60.8242
v  -56.7494 60.5006 -61.7770
v  -57.0947 59.0433 -61.2793
v  -55.9092 61.7250 -62.3116
v  -54.6756 62.5688 -62.8186
v  -53.1974 62.9302 -63.2369
v  -51.6528 62.7656 -63.5160
v  -50.2281 62.0949 -63.6222
v  -49.0952 60.9990 -63.5428
v  -48.3908 59.6100 -63.2872
v  -48.1997 58.0956 -62.8864
v  -48.5451 56.6383 -62.3887
v  -49.3852 55.4139 -61.8540
v  -50.6188 54.5701 -61.3470
v  -52.0970 54.2087 -60.9287
v  -53.6417 54.3733 -60.6497
v  -55.0663 55.0440 -60.5434
v  -56.1992 56.1399 -60.6229
v  -56.9037 57.5288 -60.8784
v  -56.8457 60.3680 -62.2320
v  -57.1911 58.9107 -61.7343
v  -56.0056 61.5924 -62.7667
v  -54.7720 62.4362 -63.2737
v  -53.2937 62.7976 -63.6920
v  -51.7491 62.6330 -63.9711
v  -50.3245 61.9623 -64.0773
v  -49.1916 60.8664 -63.9978
v  -48.4871 59.4774 -63.7423
v  -48.2961 57.9630 -63.3415
v  -48.6414 56.5057 -62.8437
v  -49.4816 55.2813 -62.3091
v  -50.7152 54.4375 -61.8021
v  -52.1934 54.0761 -61.3838
v  -53.7380 54.2407 -61.1047
v  -55.1627 54.9114 -60.9985
v  -56.2955 56.0073 -61.0780
v  -57.0000 57.3963 -61.3335
v  -56.9421 60.2355 -62.6871
v  -57.2874 58.7781 -62.1894
v  -56.1019 61.4598 -63.2217
v  -54.8683 62.3036 -63.7288
v  -53.3901 62.6650 -64.1470
v  -51.8455 62.5004 -64.4261
v  -50.4208 61.8297 -64.5323
v  -49.2879 60.7338 -64.4529
v  -48.5835 59.3449 -64.1973
v  -48.3924 57.8304 -63.7965
v  -48.7378 56.3731 -63.2988
v  -49.5779 55.1487 -62.7642
v  -50.8115 54.3049 -62.2571
v  -52.2897 53.9435 -61.8389
v  -53.8343 54.1081 -61.5598
v  -55.2590 54.7788 -61.4536
v  -56.3919 55.8747 -61.5330
v  -57.0964 57.2637 -61.7886
v  -57.0384 60.1029 -63.1422
v  -57.3838 58.6456 -62.6444
v  -56.1983 61.3272 -63.6768
v  -54.9647 62.1710 -64.1838
v  -53.4864 62.5324 -64.6021
v  -51.9418 62.3678 -64.8812
v  -50.5172 61.6971 -64.9874
v  -49.3843 60.6012 -64.9079
v  -48.6798 59.2123 -64.6524
v  -48.4888 57.6978 -64.2516
v  -48.8341 56.2405 -63.7538
v  -49.6743 55.0161 -63.2192
v  -50.9078 54.1723 -62.7122
v  -52.3861 53.8109 -62.2939
v  -53.9307 53.9755 -62.0148
v  -55.3554 54.6462 -61.9086
v  -56.4882 55.7421 -61.9881
v  -57.1927 57.1311 -62.2436
v  -57.1348 59.9703 -63.5972
v  -57.4801 58.5130 -63.0995
v  -56.2946 61.1947 -64.1318
v  -55.0610 62.0384 -64.6389
v  -53.5828 62.3998 -65.0571
v  -52.0382 62.2352 -65.3362
v  -50.6135 61.5646 -65.4424
v  -49.4806 60.4686 -65.3630
v  -48.7762 59.0797 -65.1074
v  -48.5851 57.5652 -64.7066
v  -48.9305 56.1079 -64.2089
v  -49.7706 54.8835 -63.6743
v  -51.0042 54.0397 -63.1672
v  -52.4824 53.6784 -62.7490
v  -54.0270 53.8429 -62.4699
v  -55.4517 54.5136 -62.3637
v  -56.5846 55.6095 -62.4431
v  -57.2890 56.9985 -62.6987
v  -54.4272 66.4715 -73.3028
v  -54.4272 66.2753 -75.2957
v  -54.8160 66.2753 -75.2574
v  -55.1898 66.2753 -75.1440
v  -55.5344 66.2753 -74.9599
v  -55.8364 66.2753 -74.7120
v  -56.0842 66.2753 -74.4100
v  -56.2684 66.2753 -74.0655
v  -56.3818 66.2753 -73.6916
v  -56.4201 66.2753 -73.3028
v  -56.3818 66.2753 -72.9140
v  -56.2684 66.2753 -72.5402
v  -56.0842 66.2753 -72.1956
v  -55.8364 66.2753 -71.8936
v  -55.5344 66.2753 -71.6458
v  -55.1898 66.2753 -71.4616
v  -54.8160 66.2753 -71.3482
v  -54.4272 66.2753 -71.3099
v  -54.0384 66.2753 -71.3482
v  -53.6645 66.2753 -71.4616
v  -53.3200 66.2753 -71.6458
v  -53.0180 66.2753 -71.8936
v  -52.7702 66.2753 -72.1956
v  -52.5860 66.2753 -72.5402
v  -52.4726 66.2753 -72.9140
v  -52.4343 66.2753 -73.3028
v  -52.4726 66.2753 -73.6916
v  -52.5860 66.2753 -74.0655
v  -52.7702 66.2753 -74.4100
v  -53.0180 66.2753 -74.7120
v  -53.3200 66.2753 -74.9599
v  -53.6645 66.2753 -75.1440
v  -54.0384 66.2753 -75.2574
v  -54.4272 65.6939 -77.2121
v  -55.1898 65.6939 -77.1369
v  -55.9232 65.6939 -76.9145
v  -56.5990 65.6939 -76.5532
v  -57.1914 65.6939 -76.0671
v  -57.6776 65.6939 -75.4747
v  -58.0389 65.6939 -74.7988
v  -58.2613 65.6939 -74.0655
v  -58.3364 65.6939 -73.3028
v  -58.2613 65.6939 -72.5402
v  -58.0389 65.6939 -71.8068
v  -57.6776 65.6939 -71.1310
v  -57.1914 65.6939 -70.5386
v  -56.5990 65.6939 -70.0524
v  -55.9232 65.6939 -69.6912
v  -55.1898 65.6939 -69.4687
v  -54.4272 65.6939 -69.3936
v  -53.6645 65.6939 -69.4687
v  -52.9312 65.6939 -69.6912
v  -52.2553 65.6939 -70.0524
v  -51.6629 65.6939 -70.5386
v  -51.1768 65.6939 -71.1310
v  -50.8155 65.6939 -71.8068
v  -50.5931 65.6939 -72.5402
v  -50.5180 65.6939 -73.3028
v  -50.5931 65.6939 -74.0655
v  -50.8155 65.6939 -74.7988
v  -51.1768 65.6939 -75.4747
v  -51.6630 65.6939 -76.0671
v  -52.2554 65.6939 -76.5532
v  -52.9312 65.6939 -76.9145
v  -53.6646 65.6939 -77.1369
v  -54.4272 64.7499 -78.9781
v  -55.5344 64.7499 -78.8691
v  -56.5990 64.7499 -78.5461
v  -57.5802 64.7499 -78.0217
v  -58.4403 64.7499 -77.3159
v  -59.1461 64.7499 -76.4559
v  -59.6705 64.7499 -75.4747
v  -59.9935 64.7499 -74.4100
v  -60.1025 64.7499 -73.3028
v  -59.9935 64.7499 -72.1956
v  -59.6705 64.7499 -71.1310
v  -59.1461 64.7499 -70.1498
v  -58.4403 64.7499 -69.2898
v  -57.5802 64.7499 -68.5840
v  -56.5990 64.7499 -68.0595
v  -55.5344 64.7499 -67.7365
v  -54.4272 64.7499 -67.6275
v  -53.3200 64.7499 -67.7366
v  -52.2553 64.7499 -68.0595
v  -51.2742 64.7499 -68.5840
v  -50.4141 64.7499 -69.2898
v  -49.7083 64.7499 -70.1498
v  -49.1839 64.7499 -71.1310
v  -48.8609 64.7499 -72.1956
v  -48.7519 64.7499 -73.3028
v  -48.8609 64.7499 -74.4100
v  -49.1839 64.7499 -75.4747
v  -49.7083 64.7499 -76.4559
v  -50.4141 64.7499 -77.3159
v  -51.2742 64.7499 -78.0217
v  -52.2554 64.7499 -78.5462
v  -53.3200 64.7499 -78.8691
v  -54.4272 63.4795 -80.5261
v  -55.8364 63.4795 -80.3874
v  -57.1914 63.4795 -79.9763
v  -58.4403 63.4795 -79.3088
v  -59.5349 63.4795 -78.4105
v  -60.4332 63.4795 -77.3159
v  -61.1007 63.4795 -76.0671
v  -61.5117 63.4795 -74.7120
v  -61.6505 63.4795 -73.3028
v  -61.5117 63.4795 -71.8936
v  -61.1007 63.4795 -70.5386
v  -60.4332 63.4795 -69.2898
v  -59.5349 63.4795 -68.1952
v  -58.4403 63.4795 -67.2969
v  -57.1914 63.4795 -66.6293
v  -55.8364 63.4795 -66.2183
v  -54.4272 63.4795 -66.0795
v  -53.0180 63.4795 -66.2183
v  -51.6629 63.4795 -66.6294
v  -50.4141 63.4795 -67.2969
v  -49.3195 63.4795 -68.1952
v  -48.4212 63.4795 -69.2898
v  -47.7537 63.4795 -70.5386
v  -47.3427 63.4795 -71.8936
v  -47.2039 63.4795 -73.3028
v  -47.3427 63.4795 -74.7120
v  -47.7537 63.4795 -76.0671
v  -48.4212 63.4795 -77.3159
v  -49.3195 63.4795 -78.4105
v  -50.4142 63.4795 -79.3088
v  -51.6630 63.4795 -79.9763
v  -53.0180 63.4795 -80.3874
v  -54.4272 61.9315 -81.7966
v  -56.0842 61.9315 -81.6333
v  -57.6776 61.9315 -81.1500
v  -59.1461 61.9315 -80.3651
v  -60.4332 61.9315 -79.3088
v  -61.4895 61.9315 -78.0217
v  -62.2744 61.9315 -76.5532
v  -62.7577 61.9315 -74.9599
v  -62.9209 61.9315 -73.3028
v  -62.7577 61.9315 -71.6458
v  -62.2744 61.9315 -70.0524
v  -61.4895 61.9315 -68.5840
v  -60.4332 61.9315 -67.2969
v  -59.1461 61.9315 -66.2406
v  -57.6776 61.9315 -65.4556
v  -56.0842 61.9315 -64.9723
v  -54.4272 61.9315 -64.8091
v  -52.7701 61.9315 -64.9723
v  -51.1768 61.9315 -65.4557
v  -49.7083 61.9315 -66.2406
v  -48.4212 61.9315 -67.2969
v  -47.3649 61.9315 -68.5840
v  -46.5800 61.9315 -70.0524
v  -46.0967 61.9315 -71.6458
v  -45.9335 61.9315 -73.3028
v  -46.0967 61.9315 -74.9599
v  -46.5800 61.9315 -76.5532
v  -47.3649 61.9315 -78.0217
v  -48.4212 61.9315 -79.3088
v  -49.7084 61.9315 -80.3651
v  -51.1768 61.9315 -81.1500
v  -52.7702 61.9315 -81.6334
v  -54.4272 60.1655 -82.7405
v  -56.2684 60.1655 -82.5592
v  -58.0389 60.1655 -82.0221
v  -59.6705 60.1655 -81.1500
v  -61.1007 60.1655 -79.9763
v  -62.2744 60.1655 -78.5461
v  -63.1465 60.1655 -76.9145
v  -63.6836 60.1655 -75.1440
v  -63.8649 60.1655 -73.3028
v  -63.6836 60.1655 -71.4616
v  -63.1465 60.1655 -69.6912
v  -62.2744 60.1655 -68.0595
v  -61.1007 60.1655 -66.6293
v  -59.6705 60.1655 -65.4557
v  -58.0388 60.1655 -64.5835
v  -56.2684 60.1655 -64.0464
v  -54.4272 60.1655 -63.8651
v  -52.5860 60.1655 -64.0465
v  -50.8155 60.1655 -64.5835
v  -49.1839 60.1655 -65.4557
v  -47.7537 60.1655 -66.6294
v  -46.5800 60.1655 -68.0595
v  -45.7079 60.1655 -69.6912
v  -45.1708 60.1655 -71.4616
v  -49.4857 60.5437 -71.9796
v  -48.5598 58.7776 -71.7954
v  -48.3785 58.7776 -73.6366
v  -49.3225 60.5437 -73.6366
v  -44.9895 60.1655 -73.3028
v  -45.1708 60.1655 -75.1441
v  -45.7079 60.1655 -76.9145
v  -49.5833 60.5437 -74.9480
v  -48.7112 58.7776 -75.3092
v  -49.5833 58.7776 -76.9409
v  -50.3682 60.5437 -76.4164
v  -46.5800 60.1655 -78.5462
v  -47.7537 60.1655 -79.9763
v  -49.1839 60.1655 -81.1500
v  -50.8156 60.1655 -82.0221
v  -52.5860 60.1655 -82.5592
v  -54.4272 58.2491 -83.3219
v  -56.3818 58.2491 -83.1293
v  -58.2613 58.2491 -82.5592
v  -59.9935 58.2491 -81.6333
v  -61.5117 58.2491 -80.3874
v  -62.7577 58.2491 -78.8691
v  -63.6836 58.2491 -77.1369
v  -64.2537 58.2491 -75.2574
v  -64.4462 58.2491 -73.3028
v  -64.2537 58.2491 -71.3482
v  -63.6836 58.2491 -69.4687
v  -62.7577 58.2491 -67.7365
v  -61.5117 58.2491 -66.2183
v  -59.9935 58.2491 -64.9723
v  -58.2613 58.2491 -64.0464
v  -56.3818 58.2491 -63.4763
v  -54.4272 58.2491 -63.2838
v  -52.4726 58.2491 -63.4763
v  -50.5931 58.2491 -64.0465
v  -48.8609 58.2491 -64.9723
v  -47.3427 58.2491 -66.2183
v  -46.0967 58.2491 -67.7366
v  -45.1708 58.2491 -69.4687
v  -44.6007 58.2491 -71.3482
v  -47.9897 56.8613 -71.6820
v  -47.7972 56.8613 -73.6366
v  -44.4082 58.2491 -73.3028
v  -44.6007 58.2491 -75.2575
v  -45.1708 58.2491 -77.1370
v  -48.1741 56.8613 -75.5317
v  -49.1000 56.8613 -77.2638
v  -46.0967 58.2491 -78.8691
v  -47.3427 58.2491 -80.3874
v  -48.8609 58.2491 -81.6334
v  -50.5931 58.2491 -82.5592
v  -52.4726 58.2491 -83.1293
v  -54.4272 56.2562 -83.5181
v  -56.4201 56.2562 -83.3219
v  -58.3364 56.2562 -82.7405
v  -60.1025 56.2562 -81.7966
v  -61.6505 56.2562 -80.5261
v  -62.9209 56.2562 -78.9781
v  -63.8649 56.2562 -77.2121
v  -64.4462 56.2562 -75.2957
v  -64.6425 56.2562 -73.3028
v  -64.4462 56.2562 -71.3099
v  -63.8649 56.2562 -69.3936
v  -62.9209 56.2562 -67.6275
v  -61.6505 56.2562 -66.0795
v  -60.1025 56.2562 -64.8091
v  -58.3364 56.2562 -63.8651
v  -56.4201 56.2562 -63.2838
v  -54.4272 56.2562 -63.0875
v  -52.4343 56.2562 -63.2838
v  -50.5180 56.2562 -63.8651
v  -48.7519 56.2562 -64.8091
v  -47.2039 56.2562 -66.0795
v  -45.9335 56.2562 -67.6275
v  -44.9895 56.2562 -69.3936
v  -44.4082 56.2562 -71.3099
v  -44.2119 56.2562 -73.3028
v  -44.4082 56.2562 -75.2958
v  -44.9895 56.2562 -77.2121
v  -45.9335 56.2562 -78.9782
v  -47.2039 56.2562 -80.5262
v  -48.7519 56.2562 -81.7966
v  -50.5180 56.2562 -82.7406
v  -52.4343 56.2562 -83.3219
v  -54.4272 54.2633 -83.7096
v  -56.4575 54.2633 -83.5096
v  -58.4097 54.2633 -82.9174
v  -60.2089 54.2633 -81.9557
v  -61.7859 54.2633 -80.6615
v  -63.0801 54.2633 -79.0845
v  -64.0418 54.2633 -77.2853
v  -64.6340 54.2633 -75.3331
v  -64.8340 54.2633 -73.3028
v  -64.6340 54.2633 -71.2726
v  -64.0418 54.2633 -69.3203
v  -63.0801 54.2633 -67.5211
v  -61.7859 54.2633 -65.9441
v  -60.2089 54.2633 -64.6499
v  -58.4097 54.2633 -63.6882
v  -56.4574 54.2633 -63.0960
v  -54.4272 54.2633 -62.8961
v  -52.3969 54.2633 -63.0960
v  -50.4447 54.2633 -63.6882
v  -48.6455 54.2633 -64.6499
v  -47.0685 54.2633 -65.9441
v  -45.7743 54.2633 -67.5211
v  -44.8126 54.2633 -69.3203
v  -44.2204 54.2633 -71.2726
v  -44.0204 54.2633 -73.3028
v  -44.2204 54.2633 -75.3331
v  -44.8126 54.2633 -77.2853
v  -45.7743 54.2633 -79.0845
v  -47.0685 54.2633 -80.6615
v  -48.6455 54.2633 -81.9557
v  -50.4447 54.2633 -82.9174
v  -52.3970 54.2633 -83.5096
v  -57.2366 5.3469 -87.4805
v  -54.4182 5.3469 -87.7581
v  -54.5060 5.3470 -73.2241
v  -59.9466 5.3469 -86.6584
v  -62.4442 5.3469 -85.3235
v  -64.6333 5.3469 -83.5269
v  -66.4299 5.3469 -81.3377
v  -67.7649 5.3469 -78.8402
v  -68.5870 5.3469 -76.1301
v  -68.8645 5.3469 -73.3118
v  -68.5870 5.3469 -70.4934
v  -67.7649 5.3469 -67.7834
v  -66.4299 5.3469 -65.2858
v  -64.6333 5.3469 -63.0967
v  -62.4442 5.3469 -61.3001
v  -59.9466 5.3469 -59.9651
v  -57.2366 5.3469 -59.1431
v  -54.4182 5.3469 -58.8655
v  -51.5999 5.3469 -59.1431
v  -48.8899 5.3469 -59.9651
v  -46.3923 5.3469 -61.3001
v  -44.2031 5.3469 -63.0967
v  -42.4066 5.3469 -65.2859
v  -41.0716 5.3469 -67.7834
v  -40.2495 5.3469 -70.4935
v  -39.9719 5.3469 -73.3118
v  -40.2495 5.3469 -76.1301
v  -41.0716 5.3469 -78.8402
v  -42.4066 5.3469 -81.3378
v  -44.2032 5.3469 -83.5269
v  -46.3923 5.3469 -85.3235
v  -48.8899 5.3469 -86.6585
v  -51.5999 5.3469 -87.4805
v  -33.8916 0.0000 -66.3687
v  -38.1646 0.0000 -58.9676
v  -44.7113 0.0000 -53.4743
v  -52.7420 0.0000 -50.5513
v  -61.2881 0.0000 -50.5513
v  -69.3188 0.0000 -53.4743
v  -75.8655 0.0000 -58.9676
v  -80.1386 0.0000 -66.3687
v  -81.6226 0.0000 -74.7850
v  -80.1386 0.0000 -83.2012
v  -75.8655 0.0000 -90.6024
v  -69.3188 0.0000 -96.0957
v  -61.2881 0.0000 -99.0186
v  -52.7420 0.0000 -99.0186
v  -44.7113 0.0000 -96.0957
v  -38.1646 0.0000 -90.6024
v  -33.8916 0.0000 -83.2012
v  -32.4076 0.0000 -74.7850
v  -33.8916 0.9100 -83.2012
v  -32.4076 0.9100 -74.7850
v  -38.1646 0.9100 -90.6024
v  -44.7113 0.9100 -96.0957
v  -52.7420 0.9100 -99.0186
v  -61.2881 0.9100 -99.0186
v  -69.3188 0.9100 -96.0957
v  -75.8655 0.9100 -90.6024
v  -80.1386 0.9100 -83.2012
v  -81.6226 0.9100 -74.7850
v  -80.1386 0.9100 -66.3687
v  -75.8655 0.9100 -58.9676
v  -69.3188 0.9100 -53.4743
v  -61.2881 0.9100 -50.5513
v  -52.7420 0.9100 -50.5513
v  -44.7113 0.9100 -53.4743
v  -38.1646 0.9100 -58.9676
v  -33.8916 0.9100 -66.3687
v  -33.8916 1.8200 -83.2012
v  -32.4076 1.8200 -74.7850
v  -38.1646 1.8200 -90.6024
v  -44.7113 1.8200 -96.0957
v  -52.7420 1.8200 -99.0186
v  -61.2881 1.8200 -99.0186
v  -69.3188 1.8200 -96.0957
v  -75.8655 1.8200 -90.6024
v  -80.1386 1.8200 -83.2012
v  -81.6226 1.8200 -74.7850
v  -80.1386 1.8200 -66.3687
v  -75.8655 1.8200 -58.9676
v  -69.3188 1.8200 -53.4743
v  -61.2881 1.8200 -50.5513
v  -52.7420 1.8200 -50.5513
v  -44.7113 1.8200 -53.4743
v  -38.1646 1.8200 -58.9676
v  -33.8916 1.8200 -66.3687
v  -33.8916 2.7300 -83.2012
v  -32.4076 2.7300 -74.7850
v  -38.1646 2.7300 -90.6024
v  -44.7113 2.7300 -96.0957
v  -52.7420 2.7300 -99.0186
v  -61.2881 2.7300 -99.0186
v  -69.3188 2.7300 -96.0957
v  -75.8655 2.7300 -90.6024
v  -80.1386 2.7300 -83.2012
v  -81.6226 2.7300 -74.7850
v  -80.1386 2.7300 -66.3687
v  -75.8655 2.7300 -58.9676
v  -69.3188 2.7300 -53.4743
v  -61.2881 2.7300 -50.5513
v  -52.7420 2.7300 -50.5513
v  -44.7113 2.7300 -53.4743
v  -38.1646 2.7300 -58.9676
v  -33.8916 2.7300 -66.3687
v  -33.8916 3.6400 -83.2012
v  -32.4076 3.6400 -74.7850
v  -38.1646 3.6400 -90.6024
v  -44.7113 3.6400 -96.0957
v  -52.7420 3.6400 -99.0186
v  -61.2881 3.6400 -99.0186
v  -69.3188 3.6400 -96.0957
v  -75.8655 3.6400 -90.6024
v  -80.1386 3.6400 -83.2012
v  -81.6226 3.6400 -74.7850
v  -80.1386 3.6400 -66.3687
v  -75.8655 3.6400 -58.9676
v  -69.3188 3.6400 -53.4743
v  -61.2881 3.6400 -50.5513
v  -52.7420 3.6400 -50.5513
v  -44.7113 3.6400 -53.4743
v  -38.1646 3.6400 -58.9676
v  -33.8916 3.6400 -66.3687
v  -33.8916 4.5500 -83.2012
v  -32.4076 4.5500 -74.7850
v  -38.1646 4.5500 -90.6024
v  -44.7113 4.5500 -96.0957
v  -52.7420 4.5500 -99.0186
v  -61.2881 4.5500 -99.0186
v  -69.3188 4.5500 -96.0957
v  -75.8655 4.5500 -90.6024
v  -80.1386 4.5500 -83.2012
v  -81.6226 4.5500 -74.7850
v  -80.1386 4.5500 -66.3687
v  -75.8655 4.5500 -58.9676
v  -69.3188 4.5500 -53.4743
v  -61.2881 4.5500 -50.5513
v  -52.7420 4.5500 -50.5513
v  -44.7113 4.5500 -53.4743
v  -38.1646 4.5500 -58.9676
v  -33.8916 4.5500 -66.3687
# 682 vertices

vn 0.7092 -0.5774 0.5404
vn -0.4447 -0.5774 0.5836
vn -0.7092 -0.5774 -0.5404
vn 0.4447 -0.5774 -0.5836
vn 0.7092 0.5774 0.5404
vn 0.4447 0.5774 -0.5836
vn -0.7092 0.5774 -0.5404
vn -0.4447 0.5774 0.5836
vn -0.4869 -0.7733 0.3159
vn -0.8207 -0.2775 -0.6535
vn 0.2362 -0.2214 -0.8652
vn 0.6960 -0.7343 0.1273
vn -0.2362 0.2214 0.8652
vn 0.8207 0.2775 0.6535
vn 0.4869 0.7733 -0.3159
vn -0.6960 0.7343 -0.1273
vn -0.3131 -0.0948 0.8516
vn -0.7818 -0.6460 -0.1052
vn 0.4029 -0.8653 -0.2267
vn 0.7527 -0.2967 0.7175
vn -0.4029 0.8653 0.2267
vn 0.7818 0.6460 0.1052
vn 0.3131 0.0948 -0.8516
vn -0.7527 0.2967 -0.7175
vn -0.4303 -0.5973 0.5782
vn -0.2990 -0.7670 0.4942
vn -0.1233 -0.8754 0.4264
vn 0.0824 -0.9227 0.3754
vn 0.3066 -0.9052 0.3432
vn 0.5311 -0.8176 0.3345
vn 0.7274 -0.6646 0.3529
vn 0.8682 -0.4677 0.3959
vn 0.9421 -0.2534 0.4558
vn 0.9495 -0.0402 0.5267
vn 0.8909 0.1596 0.6056
vn 0.7621 0.3322 0.6903
vn 0.5573 0.4533 0.7746
vn 0.2826 0.4862 0.8436
vn -0.0240 0.3970 0.8739
vn -0.2916 0.1877 0.8483
vn -0.4543 -0.0898 0.7734
vn -0.4930 -0.3666 0.6752
vn -0.9325 0.3317 0.0748
vn -1.0021 -0.0090 0.0250
vn -0.7418 0.6399 0.1165
vn -0.4510 0.8673 0.1433
vn -0.1043 0.9789 0.1512
vn 0.2459 0.9656 0.1399
vn 0.5563 0.8398 0.1127
vn 0.7985 0.6232 0.0735
vn 0.9528 0.3381 0.0262
vn 1.0021 0.0090 -0.0250
vn 0.9325 -0.3317 -0.0748
vn 0.7418 -0.6399 -0.1165
vn 0.4510 -0.8673 -0.1433
vn 0.1043 -0.9789 -0.1512
vn -0.2459 -0.9656 -0.1399
vn -0.5563 -0.8398 -0.1127
vn -0.7985 -0.6232 -0.0735
vn -0.9528 -0.3381 -0.0262
vn -0.8682 0.4677 -0.3959
vn -0.9421 0.2534 -0.4558
vn -0.7274 0.6646 -0.3529
vn -0.5311 0.8176 -0.3345
vn -0.3066 0.9052 -0.3432
vn -0.0824 0.9227 -0.3754
vn 0.1233 0.8754 -0.4264
vn 0.2990 0.7670 -0.4942
vn 0.4303 0.5973 -0.5782
vn 0.4930 0.3666 -0.6752
vn 0.4543 0.0898 -0.7734
vn 0.2916 -0.1877 -0.8483
vn 0.0240 -0.3970 -0.8739
vn -0.2826 -0.4862 -0.8436
vn -0.5573 -0.4533 -0.7746
vn -0.7621 -0.3322 -0.6903
vn -0.8909 -0.1596 -0.6056
vn -0.9495 0.0402 -0.5267
vn -0.4738 0.1527 0.7524
vn -0.3458 -0.1318 0.8311
vn -0.1046 -0.3653 0.8671
vn 0.1950 -0.4889 0.8493
vn 0.4810 -0.4876 0.7897
vn 0.7066 -0.3880 0.7105
vn 0.8581 -0.2273 0.6280
vn 0.9385 -0.0324 0.5499
vn 0.9518 0.1802 0.4792
vn 0.8985 0.3980 0.4184
vn 0.7772 0.6040 0.3727
vn 0.5957 0.7729 0.3493
vn 0.3775 0.8807 0.3520
vn 0.1514 0.9182 0.3785
vn -0.0617 0.8887 0.4242
vn -0.2487 0.7961 0.4866
vn -0.3960 0.6409 0.5650
vn -0.4815 0.4228 0.6567
vn -0.9180 0.4257 -0.0373
vn -0.9996 0.1046 0.0108
vn -0.7355 0.6947 -0.0805
vn -0.4704 0.8879 -0.1149
vn -0.1451 0.9831 -0.1369
vn 0.2079 0.9611 -0.1429
vn 0.5425 0.8149 -0.1306
vn 0.8078 0.5607 -0.1010
vn 0.9650 0.2381 -0.0589
vn 0.9996 -0.1046 -0.0108
vn 0.9180 -0.4257 0.0373
vn 0.7355 -0.6947 0.0805
vn 0.4704 -0.8879 0.1149
vn 0.1451 -0.9831 0.1369
vn -0.2079 -0.9611 0.1429
vn -0.5425 -0.8149 0.1306
vn -0.8078 -0.5607 0.1010
vn -0.9650 -0.2381 0.0589
vn -0.9385 0.0324 -0.5499
vn -0.9518 -0.1802 -0.4792
vn -0.8581 0.2273 -0.6280
vn -0.7066 0.3880 -0.7105
vn -0.4810 0.4876 -0.7897
vn -0.1950 0.4889 -0.8493
vn 0.1046 0.3653 -0.8671
vn 0.3458 0.1318 -0.8311
vn 0.4738 -0.1527 -0.7524
vn 0.4815 -0.4228 -0.6567
vn 0.3960 -0.6409 -0.5650
vn 0.2487 -0.7961 -0.4866
vn 0.0617 -0.8887 -0.4242
vn -0.1514 -0.9182 -0.3785
vn -0.3775 -0.8807 -0.3520
vn -0.5957 -0.7729 -0.3493
vn -0.7772 -0.6040 -0.3727
vn -0.8985 -0.3980 -0.4184
vn 0.0000 1.0000 0.0000
vn -0.0167 0.9943 -0.1036
vn -0.0596 0.9935 -0.1038
vn -0.0983 0.9917 -0.0993
vn -0.1316 0.9892 -0.0910
vn -0.1589 0.9864 -0.0797
vn -0.1798 0.9839 -0.0660
vn -0.1940 0.9818 -0.0504
vn -0.2013 0.9805 -0.0334
vn -0.2019 0.9802 -0.0155
vn -0.1957 0.9808 0.0029
vn -0.1829 0.9823 0.0216
vn -0.1634 0.9846 0.0399
vn -0.1376 0.9873 0.0573
vn -0.1058 0.9900 0.0732
vn -0.0688 0.9924 0.0870
vn -0.0273 0.9939 0.0976
vn 0.0167 0.9943 0.1036
vn 0.0596 0.9935 0.1038
vn 0.0983 0.9917 0.0993
vn 0.1316 0.9892 0.0910
vn 0.1589 0.9864 0.0797
vn 0.1798 0.9839 0.0660
vn 0.1940 0.9818 0.0504
vn 0.2013 0.9805 0.0334
vn 0.2019 0.9802 0.0155
vn 0.1957 0.9808 -0.0029
vn 0.1829 0.9823 -0.0216
vn 0.1634 0.9846 -0.0399
vn 0.1376 0.9873 -0.0573
vn 0.1058 0.9900 -0.0732
vn 0.0688 0.9924 -0.0870
vn 0.0273 0.9939 -0.0976
vn -0.0330 0.9773 -0.2063
vn -0.1168 0.9742 -0.2070
vn -0.1928 0.9671 -0.1981
vn -0.2580 0.9573 -0.1815
vn -0.3110 0.9467 -0.1587
vn -0.3511 0.9368 -0.1311
vn -0.3779 0.9289 -0.0998
vn -0.3918 0.9241 -0.0658
vn -0.3927 0.9228 -0.0300
vn -0.3809 0.9252 0.0068
vn -0.3562 0.9310 0.0439
vn -0.3189 0.9396 0.0803
vn -0.2689 0.9499 0.1151
vn -0.2070 0.9605 0.1469
vn -0.1342 0.9696 0.1742
vn -0.0528 0.9756 0.1948
vn 0.0330 0.9773 0.2063
vn 0.1168 0.9742 0.2070
vn 0.1928 0.9671 0.1981
vn 0.2580 0.9573 0.1815
vn 0.3110 0.9467 0.1587
vn 0.3511 0.9368 0.1311
vn 0.3779 0.9289 0.0998
vn 0.3918 0.9241 0.0658
vn 0.3927 0.9228 0.0300
vn 0.3809 0.9252 -0.0068
vn 0.3562 0.9310 -0.0439
vn 0.3189 0.9396 -0.0803
vn 0.2689 0.9499 -0.1151
vn 0.2070 0.9605 -0.1469
vn 0.1342 0.9696 -0.1742
vn 0.0528 0.9756 -0.1948
vn -0.0509 0.9447 -0.3193
vn -0.1789 0.9376 -0.3194
vn -0.2928 0.9216 -0.3032
vn -0.3876 0.9004 -0.2747
vn -0.4616 0.8779 -0.2374
vn -0.5155 0.8577 -0.1939
vn -0.5505 0.8421 -0.1463
vn -0.5678 0.8326 -0.0959
vn -0.5684 0.8301 -0.0434
vn -0.5525 0.8348 0.0105
vn -0.5197 0.8462 0.0652
vn -0.4693 0.8634 0.1199
vn -0.4002 0.8846 0.1734
vn -0.3116 0.9071 0.2237
vn -0.2040 0.9272 0.2677
vn -0.0806 0.9409 0.3012
vn 0.0509 0.9447 0.3193
vn 0.1789 0.9376 0.3194
vn 0.2928 0.9216 0.3032
vn 0.3876 0.9004 0.2747
vn 0.4616 0.8779 0.2374
vn 0.5155 0.8577 0.1939
vn 0.5505 0.8421 0.1463
vn 0.5678 0.8326 0.0959
vn 0.5684 0.8301 0.0434
vn 0.5525 0.8348 -0.0105
vn 0.5197 0.8462 -0.0652
vn 0.4693 0.8634 -0.1199
vn 0.4002 0.8846 -0.1734
vn 0.3116 0.9071 -0.2237
vn 0.2040 0.9272 -0.2677
vn 0.0806 0.9409 -0.3012
vn -0.0713 0.8875 -0.4485
vn -0.2480 0.8749 -0.4455
vn -0.3999 0.8469 -0.4166
vn -0.5195 0.8114 -0.3705
vn -0.6076 0.7759 -0.3143
vn -0.6681 0.7453 -0.2527
vn -0.7054 0.7226 -0.1884
vn -0.7228 0.7092 -0.1225
vn -0.7223 0.7057 -0.0550
vn -0.7042 0.7122 0.0140
vn -0.6678 0.7286 0.0849
vn -0.6106 0.7539 0.1576
vn -0.5292 0.7863 0.2315
vn -0.4195 0.8225 0.3040
vn -0.2794 0.8565 0.3701
vn -0.1116 0.8806 0.4216
vn 0.0713 0.8875 0.4485
vn 0.2480 0.8749 0.4455
vn 0.3999 0.8469 0.4166
vn 0.5195 0.8114 0.3705
vn 0.6076 0.7759 0.3143
vn 0.6681 0.7453 0.2527
vn 0.7054 0.7226 0.1884
vn 0.7228 0.7092 0.1225
vn 0.7223 0.7057 0.0550
vn 0.7042 0.7122 -0.0140
vn 0.6678 0.7286 -0.0849
vn 0.6106 0.7539 -0.1576
vn 0.5292 0.7863 -0.2315
vn 0.4195 0.8225 -0.3040
vn 0.2794 0.8565 -0.3701
vn 0.1116 0.8806 -0.4216
vn -0.0948 0.7889 -0.5982
vn -0.3247 0.7698 -0.5877
vn -0.5123 0.7294 -0.5377
vn -0.6493 0.6813 -0.4660
vn -0.7425 0.6361 -0.3862
vn -0.8019 0.5993 -0.3048
vn -0.8361 0.5731 -0.2242
vn -0.8507 0.5581 -0.1445
vn -0.8484 0.5542 -0.0646
vn -0.8300 0.5615 0.0170
vn -0.7939 0.5799 0.1020
vn -0.7362 0.6094 0.1918
vn -0.6503 0.6490 0.2871
vn -0.5277 0.6960 0.3861
vn -0.3598 0.7431 0.4818
vn -0.1460 0.7784 0.5593
vn 0.0948 0.7889 0.5982
vn 0.3247 0.7698 0.5877
vn 0.5123 0.7294 0.5377
vn 0.6493 0.6813 0.4660
vn 0.7425 0.6361 0.3862
vn 0.8019 0.5993 0.3048
vn 0.8361 0.5731 0.2242
vn 0.9295 0.2424 -0.1664
vn 0.9668 0.2192 0.4104
vn 0.8300 0.5615 -0.0170
vn 0.7620 0.2079 -0.4740
vn 0.9609 0.3337 0.0732
vn 0.6503 0.6490 -0.2871
vn 0.5277 0.6960 -0.3861
vn 0.3598 0.7431 -0.4818
vn 0.1460 0.7784 -0.5593
vn -0.1203 0.6206 -0.7633
vn -0.4044 0.5979 -0.7393
vn -0.6214 0.5520 -0.6579
vn -0.7660 0.5008 -0.5536
vn -0.8555 0.4559 -0.4473
vn -0.9081 0.4215 -0.3465
vn -0.9359 0.3981 -0.2517
vn -0.9462 0.3850 -0.1610
vn -0.9422 0.3817 -0.0717
vn -0.9245 0.3879 0.0194
vn -0.8911 0.4041 0.1154
vn -0.8372 0.4308 0.2199
vn -0.7537 0.4685 0.3358
vn -0.6267 0.5160 0.4636
vn -0.4389 0.5672 0.5958
vn -0.1816 0.6081 0.7086
vn 0.1203 0.6206 0.7633
vn 0.4044 0.5979 0.7393
vn 0.6214 0.5520 0.6579
vn 0.7660 0.5008 0.5536
vn 0.8555 0.4559 0.4473
vn 0.9081 0.4215 0.3465
vn 0.9359 0.3981 0.2517
vn 0.7391 0.2419 -0.4911
vn 0.8016 -0.2998 -0.3816
vn 0.6659 0.1947 -0.5859
vn 0.6661 0.2191 0.8144
vn 0.8073 -0.2940 0.6612
vn 0.7412 0.2562 0.7450
vn 0.9245 0.3879 -0.0194
vn 0.1396 0.3704 -0.8548
vn 0.2638 -0.2627 -0.8435
vn 0.0062 0.3603 -0.8917
vn 0.9930 0.1813 0.3383
vn 0.9728 -0.3113 0.1214
vn 0.9867 0.2661 0.2264
vn 0.7537 0.4685 -0.3358
vn 0.6267 0.5160 -0.4636
vn 0.4389 0.5672 -0.5958
vn 0.1816 0.6081 -0.7086
vn -0.1427 0.3532 -0.9107
vn -0.4708 0.3364 -0.8701
vn -0.7067 0.3032 -0.7546
vn -0.8508 0.2683 -0.6186
vn -0.9326 0.2393 -0.4897
vn -0.9770 0.2181 -0.3739
vn -0.9987 0.2041 -0.2691
vn -1.0052 0.1965 -0.1713
vn -0.9998 0.1946 -0.0760
vn -0.9830 0.1982 0.0209
vn -0.9527 0.2076 0.1241
vn -0.9036 0.2237 0.2387
vn -0.8253 0.2472 0.3704
vn -0.7000 0.2784 0.5229
vn -0.5015 0.3141 0.6902
vn -0.2107 0.3439 0.8397
vn 0.1427 0.3532 0.9107
vn 0.4708 0.3364 0.8701
vn 0.7067 0.3032 0.7546
vn 0.8508 0.2683 0.6186
vn 0.9326 0.2393 0.4897
vn 0.9770 0.2181 0.3739
vn 0.9987 0.2041 0.2691
vn 0.8733 0.4172 -0.1490
vn 0.3517 0.7312 -0.5023
vn 0.3767 0.7201 0.6300
vn 0.8662 0.4766 0.3854
vn 0.9830 0.1982 -0.0209
vn 0.5959 0.6577 -0.3534
vn -0.0557 0.7090 -0.6828
vn 0.6168 0.7583 0.3493
vn 0.9433 0.3338 -0.0295
vn 0.8253 0.2472 -0.3704
vn 0.7000 0.2784 -0.5229
vn 0.5015 0.3141 -0.6902
vn 0.2107 0.3439 -0.8397
vn -0.1503 0.1901 -0.9557
vn -0.4952 0.1784 -0.9080
vn -0.7358 0.1571 -0.7793
vn -0.8772 0.1364 -0.6329
vn -0.9548 0.1203 -0.4978
vn -0.9957 0.1090 -0.3786
vn -1.0151 0.1018 -0.2721
vn -1.0203 0.0978 -0.1732
vn -1.0145 0.0968 -0.0773
vn -0.9982 0.0987 0.0203
vn -0.9693 0.1036 0.1244
vn -0.9224 0.1120 0.2408
vn -0.8473 0.1247 0.3759
vn -0.7247 0.1423 0.5351
vn -0.5251 0.1639 0.7142
vn -0.2235 0.1835 0.8780
vn 0.1503 0.1901 0.9557
vn 0.4952 0.1784 0.9080
vn 0.7358 0.1571 0.7793
vn 0.8772 0.1364 0.6329
vn 0.9548 0.1203 0.4978
vn 0.9957 0.1090 0.3786
vn 1.0151 0.1018 0.2721
vn 1.0203 0.0978 0.1732
vn 1.0145 0.0968 0.0773
vn 0.9982 0.0987 -0.0203
vn 0.9693 0.1036 -0.1244
vn 0.9224 0.1120 -0.2408
vn 0.8473 0.1247 -0.3759
vn 0.7247 0.1423 -0.5351
vn 0.5251 0.1639 -0.7142
vn 0.2235 0.1835 -0.8780
vn -0.1507 0.1749 -0.9584
vn -0.4961 0.1642 -0.9104
vn -0.7369 0.1446 -0.7811
vn -0.8783 0.1255 -0.6340
vn -0.9558 0.1106 -0.4985
vn -0.9966 0.1002 -0.3791
vn -1.0159 0.0934 -0.2724
vn -1.0211 0.0898 -0.1734
vn -1.0153 0.0889 -0.0773
vn -0.9990 0.0906 0.0204
vn -0.9701 0.0950 0.1246
vn -0.9233 0.1028 0.2412
vn -0.8481 0.1145 0.3766
vn -0.7256 0.1307 0.5363
vn -0.5259 0.1505 0.7160
vn -0.2238 0.1686 0.8805
vn 0.1507 0.1746 0.9585
vn 0.4961 0.1639 0.9104
vn 0.7369 0.1444 0.7811
vn 0.8783 0.1254 0.6341
vn 0.9558 0.1106 0.4985
vn 0.9966 0.1002 0.3791
vn 1.0159 0.0935 0.2724
vn 1.0210 0.0899 0.1734
vn 1.0153 0.0891 0.0773
vn 0.9990 0.0908 -0.0204
vn 0.9701 0.0953 -0.1246
vn 0.9232 0.1031 -0.2412
vn 0.8481 0.1148 -0.3766
vn 0.7256 0.1310 -0.5363
vn 0.5259 0.1509 -0.7159
vn 0.2238 0.1690 -0.8804
vn -0.3938 -0.6132 -0.7303
vn -0.1212 -0.6045 -0.7755
vn 0.0000 -1.0000 -0.0000
vn -0.5762 -0.6284 -0.6166
vn -0.6767 -0.6423 -0.4925
vn -0.7279 -0.6524 -0.3823
vn -0.7529 -0.6592 -0.2881
vn -0.7634 -0.6634 -0.2057
vn -0.7652 -0.6656 -0.1303
vn -0.7603 -0.6661 -0.0578
vn -0.7490 -0.6651 0.0159
vn -0.7297 -0.6624 0.0950
vn -0.6985 -0.6575 0.1845
vn -0.6473 -0.6499 0.2907
vn -0.5604 -0.6386 0.4194
vn -0.4118 -0.6239 0.5689
vn -0.1768 -0.6096 0.7093
vn 0.1212 -0.6047 0.7753
vn 0.3938 -0.6134 0.7301
vn 0.5762 -0.6285 0.6165
vn 0.6767 -0.6423 0.4925
vn 0.7279 -0.6524 0.3823
vn 0.7529 -0.6591 0.2881
vn 0.7635 -0.6633 0.2057
vn 0.7653 -0.6655 0.1303
vn 0.7603 -0.6660 0.0578
vn 0.7491 -0.6649 -0.0159
vn 0.7298 -0.6622 -0.0950
vn 0.6987 -0.6573 -0.1846
vn 0.6474 -0.6496 -0.2908
vn 0.5606 -0.6383 -0.4196
vn 0.4119 -0.6236 -0.5691
vn 0.1768 -0.6093 -0.7095
vn 0.7435 -0.6863 0.1843
vn 0.7188 -0.6802 0.3317
vn 0.6248 -0.6663 0.5217
vn 0.3457 -0.6453 0.7172
vn -0.1325 -0.6425 0.6995
vn -0.4954 -0.6629 0.4599
vn -0.6515 -0.6785 0.2376
vn -0.7142 -0.6856 0.0759
vn -0.7399 -0.6878 -0.0562
vn -0.7435 -0.6863 -0.1844
vn -0.7188 -0.6802 -0.3317
vn -0.6248 -0.6662 -0.5217
vn -0.3458 -0.6452 -0.7172
vn 0.1325 -0.6425 -0.6995
vn 0.4954 -0.6629 -0.4599
vn 0.6515 -0.6785 -0.2376
vn 0.7142 -0.6856 -0.0759
vn 0.7399 -0.6878 0.0562
vn 0.9812 0.0000 -0.1043
vn 1.0193 0.0000 0.0774
vn 0.8869 0.0000 -0.3234
vn 0.6617 0.0000 -0.6142
vn 0.1729 0.0000 -0.9129
vn -0.4526 0.0000 -0.9388
vn -0.8378 0.0000 -0.6996
vn -0.9806 0.0000 -0.4525
vn -1.0223 0.0000 -0.2535
vn -1.0193 0.0000 -0.0774
vn -0.9812 0.0000 0.1043
vn -0.8869 0.0000 0.3234
vn -0.6617 0.0000 0.6142
vn -0.1729 0.0000 0.9129
vn 0.4525 0.0000 0.9388
vn 0.8379 0.0000 0.6996
vn 0.9806 0.0000 0.4525
vn 1.0223 0.0000 0.2535
vn 0.7142 0.6856 -0.0759
vn 0.7399 0.6878 0.0562
vn 0.6515 0.6785 -0.2376
vn 0.4954 0.6629 -0.4599
vn 0.1325 0.6425 -0.6995
vn -0.3458 0.6452 -0.7172
vn -0.6248 0.6662 -0.5217
vn -0.7188 0.6802 -0.3317
vn -0.7435 0.6863 -0.1844
vn -0.7399 0.6878 -0.0562
vn -0.7142 0.6856 0.0759
vn -0.6515 0.6785 0.2376
vn -0.4954 0.6629 0.4599
vn -0.1325 0.6425 0.6995
vn 0.3457 0.6453 0.7172
vn 0.6248 0.6663 0.5217
vn 0.7188 0.6802 0.3317
vn 0.7435 0.6863 0.1843
# 520 vertex normals

vt 1.0000 0.0000 0.0000
vt 1.0000 1.0000 0.0000
vt 0.0000 1.0000 0.0000
vt 0.0000 0.0000 0.0000
vt 0.3400 0.0000 -0.0000
vt 0.1953 0.0000 -0.3473
vt 0.0874 0.0000 -0.6527
vt 0.0292 0.0000 -0.8794
vt 0.0278 0.0000 -1.0000
vt 0.0833 0.0000 -1.0000
vt 0.1891 0.0000 -0.8794
vt 0.3325 0.0000 -0.6527
vt 0.4960 0.0000 -0.3473
vt 0.6600 0.0000 0.0000
vt 0.8047 0.0000 0.3473
vt 0.9126 0.0000 0.6527
vt 0.9708 0.0000 0.8794
vt 0.9722 0.0000 1.0000
vt 0.9167 0.0000 1.0000
vt 0.8611 0.0000 1.0000
vt 0.8056 0.0000 1.0000
vt 0.7500 0.0000 1.0000
vt 0.8056 0.2000 1.0000
vt 0.7500 0.2000 1.0000
vt 0.8611 0.2000 1.0000
vt 0.9167 0.2000 1.0000
vt 0.9722 0.2000 1.0000
vt -0.0278 0.0000 1.0000
vt 0.0278 0.0000 1.0000
vt 0.0278 0.2000 1.0000
vt -0.0278 0.2000 1.0000
vt 0.0833 0.0000 1.0000
vt 0.0833 0.2000 1.0000
vt 0.1389 0.0000 1.0000
vt 0.1389 0.2000 1.0000
vt 0.1944 0.0000 1.0000
vt 0.1944 0.2000 1.0000
vt 0.2500 0.0000 1.0000
vt 0.2500 0.2000 1.0000
vt 0.3056 0.0000 1.0000
vt 0.3056 0.2000 1.0000
vt 0.3611 0.0000 1.0000
vt 0.3611 0.2000 1.0000
vt 0.4167 0.0000 1.0000
vt 0.4167 0.2000 1.0000
vt 0.4722 0.0000 1.0000
vt 0.4722 0.2000 1.0000
vt 0.5278 0.0000 1.0000
vt 0.5278 0.2000 1.0000
vt 0.5833 0.0000 1.0000
vt 0.5833 0.2000 1.0000
vt 0.6389 0.0000 1.0000
vt 0.6389 0.2000 1.0000
vt 0.6944 0.0000 1.0000
vt 0.6944 0.2000 1.0000
vt 0.8056 0.4000 1.0000
vt 0.7500 0.4000 1.0000
vt 0.8611 0.4000 1.0000
vt 0.9167 0.4000 1.0000
vt 0.9722 0.4000 1.0000
vt 0.0278 0.4000 1.0000
vt -0.0278 0.4000 1.0000
vt 0.0833 0.4000 1.0000
vt 0.1389 0.4000 1.0000
vt 0.1944 0.4000 1.0000
vt 0.2500 0.4000 1.0000
vt 0.3056 0.4000 1.0000
vt 0.3611 0.4000 1.0000
vt 0.4167 0.4000 1.0000
vt 0.4722 0.4000 1.0000
vt 0.5278 0.4000 1.0000
vt 0.5833 0.4000 1.0000
vt 0.6389 0.4000 1.0000
vt 0.6944 0.4000 1.0000
vt 0.8056 0.6000 1.0000
vt 0.7500 0.6000 1.0000
vt 0.8611 0.6000 1.0000
vt 0.9167 0.6000 1.0000
vt 0.9722 0.6000 1.0000
vt 0.0278 0.6000 1.0000
vt -0.0278 0.6000 1.0000
vt 0.0833 0.6000 1.0000
vt 0.1389 0.6000 1.0000
vt 0.1944 0.6000 1.0000
vt 0.2500 0.6000 1.0000
vt 0.3056 0.6000 1.0000
vt 0.3611 0.6000 1.0000
vt 0.4167 0.6000 1.0000
vt 0.4722 0.6000 1.0000
vt 0.5278 0.6000 1.0000
vt 0.5833 0.6000 1.0000
vt 0.6389 0.6000 1.0000
vt 0.6944 0.6000 1.0000
vt 0.8056 0.8000 1.0000
vt 0.7500 0.8000 1.0000
vt 0.8611 0.8000 1.0000
vt 0.9167 0.8000 1.0000
vt 0.9722 0.8000 1.0000
vt 0.0278 0.8000 1.0000
vt -0.0278 0.8000 1.0000
vt 0.0833 0.8000 1.0000
vt 0.1389 0.8000 1.0000
vt 0.1944 0.8000 1.0000
vt 0.2500 0.8000 1.0000
vt 0.3056 0.8000 1.0000
vt 0.3611 0.8000 1.0000
vt 0.4167 0.8000 1.0000
vt 0.4722 0.8000 1.0000
vt 0.5278 0.8000 1.0000
vt 0.5833 0.8000 1.0000
vt 0.6389 0.8000 1.0000
vt 0.6944 0.8000 1.0000
vt 0.8056 1.0000 1.0000
vt 0.7500 1.0000 1.0000
vt 0.8611 1.0000 1.0000
vt 0.9167 1.0000 1.0000
vt 0.9722 1.0000 1.0000
vt 0.0278 1.0000 1.0000
vt -0.0278 1.0000 1.0000
vt 0.0833 1.0000 1.0000
vt 0.1389 1.0000 1.0000
vt 0.1944 1.0000 1.0000
vt 0.2500 1.0000 1.0000
vt 0.3056 1.0000 1.0000
vt 0.3611 1.0000 1.0000
vt 0.4167 1.0000 1.0000
vt 0.4722 1.0000 1.0000
vt 0.5278 1.0000 1.0000
vt 0.5833 1.0000 1.0000
vt 0.6389 1.0000 1.0000
vt 0.6944 1.0000 1.0000
vt 0.9708 1.0000 0.8794
vt 0.9126 1.0000 0.6527
vt 0.8047 1.0000 0.3473
vt 0.6600 1.0000 0.0000
vt 0.4960 1.0000 -0.3473
vt 0.3325 1.0000 -0.6527
vt 0.1891 1.0000 -0.8794
vt 0.0833 1.0000 -1.0000
vt 0.0278 1.0000 -1.0000
vt 0.0292 1.0000 -0.8794
vt 0.0874 1.0000 -0.6527
vt 0.1953 1.0000 -0.3473
vt 0.0000 0.9375 0.0000
vt 0.0312 0.9375 0.0000
vt 0.0312 1.0000 0.0000
vt 0.0625 0.9375 0.0000
vt 0.0625 1.0000 0.0000
vt 0.0938 0.9375 0.0000
vt 0.0938 1.0000 0.0000
vt 0.1250 0.9375 0.0000
vt 0.1250 1.0000 0.0000
vt 0.1562 0.9375 0.0000
vt 0.1562 1.0000 0.0000
vt 0.1875 0.9375 0.0000
vt 0.1875 1.0000 0.0000
vt 0.2187 0.9375 0.0000
vt 0.2187 1.0000 0.0000
vt 0.2500 0.9375 0.0000
vt 0.2500 1.0000 0.0000
vt 0.2812 0.9375 0.0000
vt 0.2812 1.0000 0.0000
vt 0.3125 0.9375 0.0000
vt 0.3125 1.0000 0.0000
vt 0.3437 0.9375 0.0000
vt 0.3437 1.0000 0.0000
vt 0.3750 0.9375 0.0000
vt 0.3750 1.0000 0.0000
vt 0.4062 0.9375 0.0000
vt 0.4062 1.0000 0.0000
vt 0.4375 0.9375 0.0000
vt 0.4375 1.0000 0.0000
vt 0.4688 0.9375 0.0000
vt 0.4688 1.0000 0.0000
vt 0.5000 0.9375 0.0000
vt 0.5000 1.0000 0.0000
vt 0.5313 0.9375 0.0000
vt 0.5313 1.0000 0.0000
vt 0.5625 0.9375 0.0000
vt 0.5625 1.0000 0.0000
vt 0.5938 0.9375 0.0000
vt 0.5938 1.0000 0.0000
vt 0.6250 0.9375 0.0000
vt 0.6250 1.0000 0.0000
vt 0.6563 0.9375 0.0000
vt 0.6563 1.0000 0.0000
vt 0.6875 0.9375 0.0000
vt 0.6875 1.0000 0.0000
vt 0.7188 0.9375 0.0000
vt 0.7188 1.0000 0.0000
vt 0.7500 0.9375 0.0000
vt 0.7500 1.0000 0.0000
vt 0.7813 0.9375 0.0000
vt 0.7813 1.0000 0.0000
vt 0.8125 0.9375 0.0000
vt 0.8125 1.0000 0.0000
vt 0.8438 0.9375 0.0000
vt 0.8438 1.0000 0.0000
vt 0.8750 0.9375 0.0000
vt 0.8750 1.0000 0.0000
vt 0.9063 0.9375 0.0000
vt 0.9063 1.0000 0.0000
vt 0.9375 0.9375 0.0000
vt 0.9375 1.0000 0.0000
vt 0.9688 0.9375 0.0000
vt 0.9688 1.0000 0.0000
vt 1.0000 0.9375 0.0000
vt 0.0000 0.8750 0.0000
vt 0.0312 0.8750 0.0000
vt 0.0625 0.8750 0.0000
vt 0.0938 0.8750 0.0000
vt 0.1250 0.8750 0.0000
vt 0.1562 0.8750 0.0000
vt 0.1875 0.8750 0.0000
vt 0.2187 0.8750 0.0000
vt 0.2500 0.8750 0.0000
vt 0.2812 0.8750 0.0000
vt 0.3125 0.8750 0.0000
vt 0.3437 0.8750 0.0000
vt 0.3750 0.8750 0.0000
vt 0.4062 0.8750 0.0000
vt 0.4375 0.8750 0.0000
vt 0.4688 0.8750 0.0000
vt 0.5000 0.8750 0.0000
vt 0.5313 0.8750 0.0000
vt 0.5625 0.8750 0.0000
vt 0.5938 0.8750 0.0000
vt 0.6250 0.8750 0.0000
vt 0.6563 0.8750 0.0000
vt 0.6875 0.8750 0.0000
vt 0.7188 0.8750 0.0000
vt 0.7500 0.8750 0.0000
vt 0.7813 0.8750 0.0000
vt 0.8125 0.8750 0.0000
vt 0.8438 0.8750 0.0000
vt 0.8750 0.8750 0.0000
vt 0.9063 0.8750 0.0000
vt 0.9375 0.8750 0.0000
vt 0.9688 0.8750 0.0000
vt 1.0000 0.8750 0.0000
vt 0.0000 0.8125 0.0000
vt 0.0312 0.8125 0.0000
vt 0.0625 0.8125 0.0000
vt 0.0938 0.8125 0.0000
vt 0.1250 0.8125 0.0000
vt 0.1562 0.8125 0.0000
vt 0.1875 0.8125 0.0000
vt 0.2187 0.8125 0.0000
vt 0.2500 0.8125 0.0000
vt 0.2812 0.8125 0.0000
vt 0.3125 0.8125 0.0000
vt 0.3437 0.8125 0.0000
vt 0.3750 0.8125 0.0000
vt 0.4062 0.8125 0.0000
vt 0.4375 0.8125 0.0000
vt 0.4688 0.8125 0.0000
vt 0.5000 0.8125 0.0000
vt 0.5313 0.8125 0.0000
vt 0.5625 0.8125 0.0000
vt 0.5938 0.8125 0.0000
vt 0.6250 0.8125 0.0000
vt 0.6563 0.8125 0.0000
vt 0.6875 0.8125 0.0000
vt 0.7188 0.8125 0.0000
vt 0.7500 0.8125 0.0000
vt 0.7813 0.8125 0.0000
vt 0.8125 0.8125 0.0000
vt 0.8438 0.8125 0.0000
vt 0.8750 0.8125 0.0000
vt 0.9063 0.8125 0.0000
vt 0.9375 0.8125 0.0000
vt 0.9688 0.8125 0.0000
vt 1.0000 0.8125 0.0000
vt 0.0000 0.7500 0.0000
vt 0.0312 0.7500 0.0000
vt 0.0625 0.7500 0.0000
vt 0.0938 0.7500 0.0000
vt 0.1250 0.7500 0.0000
vt 0.1562 0.7500 0.0000
vt 0.1875 0.7500 0.0000
vt 0.2187 0.7500 0.0000
vt 0.2500 0.7500 0.0000
vt 0.2812 0.7500 0.0000
vt 0.3125 0.7500 0.0000
vt 0.3437 0.7500 0.0000
vt 0.3750 0.7500 0.0000
vt 0.4062 0.7500 0.0000
vt 0.4375 0.7500 0.0000
vt 0.4688 0.7500 0.0000
vt 0.5000 0.7500 0.0000
vt 0.5313 0.7500 0.0000
vt 0.5625 0.7500 0.0000
vt 0.5938 0.7500 0.0000
vt 0.6250 0.7500 0.0000
vt 0.6563 0.7500 0.0000
vt 0.6875 0.7500 0.0000
vt 0.7188 0.7500 0.0000
vt 0.7500 0.7500 0.0000
vt 0.7813 0.7500 0.0000
vt 0.8125 0.7500 0.0000
vt 0.8438 0.7500 0.0000
vt 0.8750 0.7500 0.0000
vt 0.9063 0.7500 0.0000
vt 0.9375 0.7500 0.0000
vt 0.9688 0.7500 0.0000
vt 1.0000 0.7500 0.0000
vt 0.0000 0.6875 0.0000
vt 0.0312 0.6875 0.0000
vt 0.0625 0.6875 0.0000
vt 0.0938 0.6875 0.0000
vt 0.1250 0.6875 0.0000
vt 0.1562 0.6875 0.0000
vt 0.1875 0.6875 0.0000
vt 0.2187 0.6875 0.0000
vt 0.2500 0.6875 0.0000
vt 0.2812 0.6875 0.0000
vt 0.3125 0.6875 0.0000
vt 0.3437 0.6875 0.0000
vt 0.3750 0.6875 0.0000
vt 0.4062 0.6875 0.0000
vt 0.4375 0.6875 0.0000
vt 0.4688 0.6875 0.0000
vt 0.5000 0.6875 0.0000
vt 0.5313 0.6875 0.0000
vt 0.5625 0.6875 0.0000
vt 0.5938 0.6875 0.0000
vt 0.6250 0.6875 0.0000
vt 0.6563 0.6875 0.0000
vt 0.6875 0.6875 0.0000
vt 0.7188 0.6875 0.0000
vt 0.7500 0.6875 0.0000
vt 0.7813 0.6875 0.0000
vt 0.8125 0.6875 0.0000
vt 0.8438 0.6875 0.0000
vt 0.8750 0.6875 0.0000
vt 0.9063 0.6875 0.0000
vt 0.9375 0.6875 0.0000
vt 0.9688 0.6875 0.0000
vt 1.0000 0.6875 0.0000
vt 0.0000 0.6250 0.0000
vt 0.0312 0.6250 0.0000
vt 0.0625 0.6250 0.0000
vt 0.0938 0.6250 0.0000
vt 0.1250 0.6250 0.0000
vt 0.1562 0.6250 0.0000
vt 0.1875 0.6250 0.0000
vt 0.2187 0.6250 0.0000
vt 0.2500 0.6250 0.0000
vt 0.2812 0.6250 0.0000
vt 0.3125 0.6250 0.0000
vt 0.3437 0.6250 0.0000
vt 0.3750 0.6250 0.0000
vt 0.4062 0.6250 0.0000
vt 0.4375 0.6250 0.0000
vt 0.4688 0.6250 0.0000
vt 0.5000 0.6250 0.0000
vt 0.5313 0.6250 0.0000
vt 0.5625 0.6250 0.0000
vt 0.5938 0.6250 0.0000
vt 0.6250 0.6250 0.0000
vt 0.6563 0.6250 0.0000
vt 0.6875 0.6250 0.0000
vt 0.7188 0.6250 0.0000
vt 0.7500 0.6250 0.0000
vt 0.7813 0.6250 0.0000
vt 0.8125 0.6250 0.0000
vt 0.8438 0.6250 0.0000
vt 0.8750 0.6250 0.0000
vt 0.9063 0.6250 0.0000
vt 0.9375 0.6250 0.0000
vt 0.9688 0.6250 0.0000
vt 1.0000 0.6250 0.0000
vt 0.0000 0.5625 0.0000
vt 0.0312 0.5625 0.0000
vt 0.0625 0.5625 0.0000
vt 0.0938 0.5625 0.0000
vt 0.1250 0.5625 0.0000
vt 0.1562 0.5625 0.0000
vt 0.1875 0.5625 0.0000
vt 0.2187 0.5625 0.0000
vt 0.2500 0.5625 0.0000
vt 0.2812 0.5625 0.0000
vt 0.3125 0.5625 0.0000
vt 0.3437 0.5625 0.0000
vt 0.3750 0.5625 0.0000
vt 0.4062 0.5625 0.0000
vt 0.4375 0.5625 0.0000
vt 0.4688 0.5625 0.0000
vt 0.5000 0.5625 0.0000
vt 0.5313 0.5625 0.0000
vt 0.5625 0.5625 0.0000
vt 0.5938 0.5625 0.0000
vt 0.6250 0.5625 0.0000
vt 0.6563 0.5625 0.0000
vt 0.6875 0.5625 0.0000
vt 0.7188 0.5625 0.0000
vt 0.7500 0.5625 0.0000
vt 0.7813 0.5625 0.0000
vt 0.8125 0.5625 0.0000
vt 0.8438 0.5625 0.0000
vt 0.8750 0.5625 0.0000
vt 0.9063 0.5625 0.0000
vt 0.9375 0.5625 0.0000
vt 0.9688 0.5625 0.0000
vt 1.0000 0.5625 0.0000
vt 0.0000 0.5000 0.0000
vt 0.0312 0.5000 0.0000
vt 0.0625 0.5000 0.0000
vt 0.0938 0.5000 0.0000
vt 0.1250 0.5000 0.0000
vt 0.1562 0.5000 0.0000
vt 0.1875 0.5000 0.0000
vt 0.2187 0.5000 0.0000
vt 0.2500 0.5000 0.0000
vt 0.2812 0.5000 0.0000
vt 0.3125 0.5000 0.0000
vt 0.3437 0.5000 0.0000
vt 0.3750 0.5000 0.0000
vt 0.4062 0.5000 0.0000
vt 0.4375 0.5000 0.0000
vt 0.4688 0.5000 0.0000
vt 0.5000 0.5000 0.0000
vt 0.5313 0.5000 0.0000
vt 0.5625 0.5000 0.0000
vt 0.5938 0.5000 0.0000
vt 0.6250 0.5000 0.0000
vt 0.6563 0.5000 0.0000
vt 0.6875 0.5000 0.0000
vt 0.7188 0.5000 0.0000
vt 0.7500 0.5000 0.0000
vt 0.7813 0.5000 0.0000
vt 0.8125 0.5000 0.0000
vt 0.8438 0.5000 0.0000
vt 0.8750 0.5000 0.0000
vt 0.9063 0.5000 0.0000
vt 0.9375 0.5000 0.0000
vt 0.9688 0.5000 0.0000
vt 1.0000 0.5000 0.0000
vt 0.0000 0.4375 0.0000
vt 0.0312 0.4375 0.0000
vt 0.0625 0.4375 0.0000
vt 0.0938 0.4375 0.0000
vt 0.1250 0.4375 0.0000
vt 0.1562 0.4375 0.0000
vt 0.1875 0.4375 0.0000
vt 0.2187 0.4375 0.0000
vt 0.2500 0.4375 0.0000
vt 0.2812 0.4375 0.0000
vt 0.3125 0.4375 0.0000
vt 0.3437 0.4375 0.0000
vt 0.3750 0.4375 0.0000
vt 0.4062 0.4375 0.0000
vt 0.4375 0.4375 0.0000
vt 0.4688 0.4375 0.0000
vt 0.5000 0.4375 0.0000
vt 0.5313 0.4375 0.0000
vt 0.5625 0.4375 0.0000
vt 0.5938 0.4375 0.0000
vt 0.6250 0.4375 0.0000
vt 0.6563 0.4375 0.0000
vt 0.6875 0.4375 0.0000
vt 0.7188 0.4375 0.0000
vt 0.7500 0.4375 0.0000
vt 0.7813 0.4375 0.0000
vt 0.8125 0.4375 0.0000
vt 0.8438 0.4375 0.0000
vt 0.8750 0.4375 0.0000
vt 0.9063 0.4375 0.0000
vt 0.9375 0.4375 0.0000
vt 0.9688 0.4375 0.0000
vt 1.0000 0.4375 0.0000
vt 0.3281 0.4375 0.0000
vt 0.4531 0.4375 0.0000
vt 0.6094 0.4375 0.0000
vt 0.7656 0.4375 0.0000
vt 0.9531 0.4375 0.0000
vt 0.6600 1.0000 -0.0000
# 477 texture coords

o Box014
g Box014
usemtl wire_191148096
s 2
f 1/1/1 2/2/2 3/3/3 4/4/4 
s 4
f 5/4/5 6/1/6 7/2/7 8/3/8 
s 8
f 1/4/1 4/1/4 6/2/6 5/3/5 
s 16
f 4/4/4 3/1/3 7/2/7 6/3/6 
s 32
f 3/4/3 2/1/2 8/2/8 7/3/7 
s 64
f 2/4/2 1/1/1 5/2/5 8/3/8 
s 2
f 9/1/9 10/2/10 11/3/11 12/4/12 
s 4
f 13/4/13 14/1/14 15/2/15 16/3/16 
s 8
f 9/4/9 12/1/12 14/2/14 13/3/13 
s 16
f 12/4/12 11/1/11 15/2/15 14/3/14 
s 32
f 11/4/11 10/1/10 16/2/16 15/3/15 
s 64
f 10/4/10 9/1/9 13/2/13 16/3/16 
s 2
f 17/1/17 18/2/18 19/3/19 20/4/20 
s 4
f 21/4/21 22/1/22 23/2/23 24/3/24 
s 8
f 17/4/17 20/1/20 22/2/22 21/3/21 
s 16
f 20/4/20 19/1/19 23/2/23 22/3/22 
s 32
f 19/4/19 18/1/18 24/2/24 23/3/23 
s 64
f 18/4/18 17/1/17 21/2/21 24/3/24 
s 1
f 25/5/25 26/6/26 27/7/27 28/8/28 29/9/29 30/10/30 31/11/31 32/12/32 33/13/33 34/14/34 35/15/35 36/16/36 37/17/37 38/18/38 39/19/39 40/20/40 41/21/41 42/22/42 
s 8
f 42/22/42 41/21/41 43/23/43 44/24/44 
f 41/21/41 40/20/40 45/25/45 43/23/43 
f 40/20/40 39/19/39 46/26/46 45/25/45 
f 39/19/39 38/18/38 47/27/47 46/26/46 
f 38/28/38 37/29/37 48/30/48 47/31/47 
f 37/29/37 36/32/36 49/33/49 48/30/48 
f 36/32/36 35/34/35 50/35/50 49/33/49 
f 35/34/35 34/36/34 51/37/51 50/35/50 
f 34/36/34 33/38/33 52/39/52 51/37/51 
f 33/38/33 32/40/32 53/41/53 52/39/52 
f 32/40/32 31/42/31 54/43/54 53/41/53 
f 31/42/31 30/44/30 55/45/55 54/43/54 
f 30/44/30 29/46/29 56/47/56 55/45/55 
f 29/46/29 28/48/28 57/49/57 56/47/56 
f 28/48/28 27/50/27 58/51/58 57/49/57 
f 27/50/27 26/52/26 59/53/59 58/51/58 
f 26/52/26 25/54/25 60/55/60 59/53/59 
f 25/54/25 42/22/42 44/24/44 60/55/60 
f 44/24/44 43/23/43 61/56/43 62/57/44 
f 43/23/43 45/25/45 63/58/45 61/56/43 
f 45/25/45 46/26/46 64/59/46 63/58/45 
f 46/26/46 47/27/47 65/60/47 64/59/46 
f 47/31/47 48/30/48 66/61/48 65/62/47 
f 48/30/48 49/33/49 67/63/49 66/61/48 
f 49/33/49 50/35/50 68/64/50 67/63/49 
f 50/35/50 51/37/51 69/65/51 68/64/50 
f 51/37/51 52/39/52 70/66/52 69/65/51 
f 52/39/52 53/41/53 71/67/53 70/66/52 
f 53/41/53 54/43/54 72/68/54 71/67/53 
f 54/43/54 55/45/55 73/69/55 72/68/54 
f 55/45/55 56/47/56 74/70/56 73/69/55 
f 56/47/56 57/49/57 75/71/57 74/70/56 
f 57/49/57 58/51/58 76/72/58 75/71/57 
f 58/51/58 59/53/59 77/73/59 76/72/58 
f 59/53/59 60/55/60 78/74/60 77/73/59 
f 60/55/60 44/24/44 62/57/44 78/74/60 
f 62/57/44 61/56/43 79/75/43 80/76/44 
f 61/56/43 63/58/45 81/77/45 79/75/43 
f 63/58/45 64/59/46 82/78/46 81/77/45 
f 64/59/46 65/60/47 83/79/47 82/78/46 
f 65/62/47 66/61/48 84/80/48 83/81/47 
f 66/61/48 67/63/49 85/82/49 84/80/48 
f 67/63/49 68/64/50 86/83/50 85/82/49 
f 68/64/50 69/65/51 87/84/51 86/83/50 
f 69/65/51 70/66/52 88/85/52 87/84/51 
f 70/66/52 71/67/53 89/86/53 88/85/52 
f 71/67/53 72/68/54 90/87/54 89/86/53 
f 72/68/54 73/69/55 91/88/55 90/87/54 
f 73/69/55 74/70/56 92/89/56 91/88/55 
f 74/70/56 75/71/57 93/90/57 92/89/56 
f 75/71/57 76/72/58 94/91/58 93/90/57 
f 76/72/58 77/73/59 95/92/59 94/91/58 
f 77/73/59 78/74/60 96/93/60 95/92/59 
f 78/74/60 62/57/44 80/76/44 96/93/60 
f 80/76/44 79/75/43 97/94/43 98/95/44 
f 79/75/43 81/77/45 99/96/45 97/94/43 
f 81/77/45 82/78/46 100/97/46 99/96/45 
f 82/78/46 83/79/47 101/98/47 100/97/46 
f 83/81/47 84/80/48 102/99/48 101/100/47 
f 84/80/48 85/82/49 103/101/49 102/99/48 
f 85/82/49 86/83/50 104/102/50 103/101/49 
f 86/83/50 87/84/51 105/103/51 104/102/50 
f 87/84/51 88/85/52 106/104/52 105/103/51 
f 88/85/52 89/86/53 107/105/53 106/104/52 
f 89/86/53 90/87/54 108/106/54 107/105/53 
f 90/87/54 91/88/55 109/107/55 108/106/54 
f 91/88/55 92/89/56 110/108/56 109/107/55 
f 92/89/56 93/90/57 111/109/57 110/108/56 
f 93/90/57 94/91/58 112/110/58 111/109/57 
f 94/91/58 95/92/59 113/111/59 112/110/58 
f 95/92/59 96/93/60 114/112/60 113/111/59 
f 96/93/60 80/76/44 98/95/44 114/112/60 
f 98/95/44 97/94/43 115/113/61 116/114/62 
f 97/94/43 99/96/45 117/115/63 115/113/61 
f 99/96/45 100/97/46 118/116/64 117/115/63 
f 100/97/46 101/98/47 119/117/65 118/116/64 
f 101/100/47 102/99/48 120/118/66 119/119/65 
f 102/99/48 103/101/49 121/120/67 120/118/66 
f 103/101/49 104/102/50 122/121/68 121/120/67 
f 104/102/50 105/103/51 123/122/69 122/121/68 
f 105/103/51 106/104/52 124/123/70 123/122/69 
f 106/104/52 107/105/53 125/124/71 124/123/70 
f 107/105/53 108/106/54 126/125/72 125/124/71 
f 108/106/54 109/107/55 127/126/73 126/125/72 
f 109/107/55 110/108/56 128/127/74 127/126/73 
f 110/108/56 111/109/57 129/128/75 128/127/74 
f 111/109/57 112/110/58 130/129/76 129/128/75 
f 112/110/58 113/111/59 131/130/77 130/129/76 
f 113/111/59 114/112/60 132/131/78 131/130/77 
f 114/112/60 98/95/44 116/114/62 132/131/78 
s 1
f 132/131/78 116/114/62 115/113/61 117/115/63 118/116/64 119/117/65 120/132/66 121/133/67 122/134/68 123/135/69 124/136/70 125/137/71 126/138/72 127/139/73 128/140/74 129/141/75 130/142/76 131/143/77 
f 133/5/79 134/6/80 135/7/81 136/8/82 137/9/83 138/10/84 139/11/85 140/12/86 141/13/87 142/14/88 143/15/89 144/16/90 145/17/91 146/18/92 147/19/93 148/20/94 149/21/95 150/22/96 
s 8
f 150/22/96 149/21/95 151/23/97 152/24/98 
f 149/21/95 148/20/94 153/25/99 151/23/97 
f 148/20/94 147/19/93 154/26/100 153/25/99 
f 147/19/93 146/18/92 155/27/101 154/26/100 
f 146/28/92 145/29/91 156/30/102 155/31/101 
f 145/29/91 144/32/90 157/33/103 156/30/102 
f 144/32/90 143/34/89 158/35/104 157/33/103 
f 143/34/89 142/36/88 159/37/105 158/35/104 
f 142/36/88 141/38/87 160/39/106 159/37/105 
f 141/38/87 140/40/86 161/41/107 160/39/106 
f 140/40/86 139/42/85 162/43/108 161/41/107 
f 139/42/85 138/44/84 163/45/109 162/43/108 
f 138/44/84 137/46/83 164/47/110 163/45/109 
f 137/46/83 136/48/82 165/49/111 164/47/110 
f 136/48/82 135/50/81 166/51/112 165/49/111 
f 135/50/81 134/52/80 167/53/113 166/51/112 
f 134/52/80 133/54/79 168/55/114 167/53/113 
f 133/54/79 150/22/96 152/24/98 168/55/114 
f 152/24/98 151/23/97 169/56/97 170/57/98 
f 151/23/97 153/25/99 171/58/99 169/56/97 
f 153/25/99 154/26/100 172/59/100 171/58/99 
f 154/26/100 155/27/101 173/60/101 172/59/100 
f 155/31/101 156/30/102 174/61/102 173/62/101 
f 156/30/102 157/33/103 175/63/103 174/61/102 
f 157/33/103 158/35/104 176/64/104 175/63/103 
f 158/35/104 159/37/105 177/65/105 176/64/104 
f 159/37/105 160/39/106 178/66/106 177/65/105 
f 160/39/106 161/41/107 179/67/107 178/66/106 
f 161/41/107 162/43/108 180/68/108 179/67/107 
f 162/43/108 163/45/109 181/69/109 180/68/108 
f 163/45/109 164/47/110 182/70/110 181/69/109 
f 164/47/110 165/49/111 183/71/111 182/70/110 
f 165/49/111 166/51/112 184/72/112 183/71/111 
f 166/51/112 167/53/113 185/73/113 184/72/112 
f 167/53/113 168/55/114 186/74/114 185/73/113 
f 168/55/114 152/24/98 170/57/98 186/74/114 
f 170/57/98 169/56/97 187/75/97 188/76/98 
f 169/56/97 171/58/99 189/77/99 187/75/97 
f 171/58/99 172/59/100 190/78/100 189/77/99 
f 172/59/100 173/60/101 191/79/101 190/78/100 
f 173/62/101 174/61/102 192/80/102 191/81/101 
f 174/61/102 175/63/103 193/82/103 192/80/102 
f 175/63/103 176/64/104 194/83/104 193/82/103 
f 176/64/104 177/65/105 195/84/105 194/83/104 
f 177/65/105 178/66/106 196/85/106 195/84/105 
f 178/66/106 179/67/107 197/86/107 196/85/106 
f 179/67/107 180/68/108 198/87/108 197/86/107 
f 180/68/108 181/69/109 199/88/109 198/87/108 
f 181/69/109 182/70/110 200/89/110 199/88/109 
f 182/70/110 183/71/111 201/90/111 200/89/110 
f 183/71/111 184/72/112 202/91/112 201/90/111 
f 184/72/112 185/73/113 203/92/113 202/91/112 
f 185/73/113 186/74/114 204/93/114 203/92/113 
f 186/74/114 170/57/98 188/76/98 204/93/114 
f 188/76/98 187/75/97 205/94/97 206/95/98 
f 187/75/97 189/77/99 207/96/99 205/94/97 
f 189/77/99 190/78/100 208/97/100 207/96/99 
f 190/78/100 191/79/101 209/98/101 208/97/100 
f 191/81/101 192/80/102 210/99/102 209/100/101 
f 192/80/102 193/82/103 211/101/103 210/99/102 
f 193/82/103 194/83/104 212/102/104 211/101/103 
f 194/83/104 195/84/105 213/103/105 212/102/104 
f 195/84/105 196/85/106 214/104/106 213/103/105 
f 196/85/106 197/86/107 215/105/107 214/104/106 
f 197/86/107 198/87/108 216/106/108 215/105/107 
f 198/87/108 199/88/109 217/107/109 216/106/108 
f 199/88/109 200/89/110 218/108/110 217/107/109 
f 200/89/110 201/90/111 219/109/111 218/108/110 
f 201/90/111 202/91/112 220/110/112 219/109/111 
f 202/91/112 203/92/113 221/111/113 220/110/112 
f 203/92/113 204/93/114 222/112/114 221/111/113 
f 204/93/114 188/76/98 206/95/98 222/112/114 
f 206/95/98 205/94/97 223/113/115 224/114/116 
f 205/94/97 207/96/99 225/115/117 223/113/115 
f 207/96/99 208/97/100 226/116/118 225/115/117 
f 208/97/100 209/98/101 227/117/119 226/116/118 
f 209/100/101 210/99/102 228/118/120 227/119/119 
f 210/99/102 211/101/103 229/120/121 228/118/120 
f 211/101/103 212/102/104 230/121/122 229/120/121 
f 212/102/104 213/103/105 231/122/123 230/121/122 
f 213/103/105 214/104/106 232/123/124 231/122/123 
f 214/104/106 215/105/107 233/124/125 232/123/124 
f 215/105/107 216/106/108 234/125/126 233/124/125 
f 216/106/108 217/107/109 235/126/127 234/125/126 
f 217/107/109 218/108/110 236/127/128 235/126/127 
f 218/108/110 219/109/111 237/128/129 236/127/128 
f 219/109/111 220/110/112 238/129/130 237/128/129 
f 220/110/112 221/111/113 239/130/131 238/129/130 
f 221/111/113 222/112/114 240/131/132 239/130/131 
f 222/112/114 206/95/98 224/114/116 240/131/132 
s 1
f 240/131/132 224/114/116 223/113/115 225/115/117 226/116/118 227/117/119 228/132/120 229/133/121 230/134/122 231/135/123 232/136/124 233/137/125 234/138/126 235/139/127 236/140/128 237/141/129 238/142/130 239/143/131 
f 241/3/133 242/144/134 243/145/135 
f 241/146/133 243/145/135 244/147/136 
f 241/148/133 244/147/136 245/149/137 
f 241/150/133 245/149/137 246/151/138 
f 241/152/133 246/151/138 247/153/139 
f 241/154/133 247/153/139 248/155/140 
f 241/156/133 248/155/140 249/157/141 
f 241/158/133 249/157/141 250/159/142 
f 241/160/133 250/159/142 251/161/143 
f 241/162/133 251/161/143 252/163/144 
f 241/164/133 252/163/144 253/165/145 
f 241/166/133 253/165/145 254/167/146 
f 241/168/133 254/167/146 255/169/147 
f 241/170/133 255/169/147 256/171/148 
f 241/172/133 256/171/148 257/173/149 
f 241/174/133 257/173/149 258/175/150 
f 241/176/133 258/175/150 259/177/151 
f 241/178/133 259/177/151 260/179/152 
f 241/180/133 260/179/152 261/181/153 
f 241/182/133 261/181/153 262/183/154 
f 241/184/133 262/183/154 263/185/155 
f 241/186/133 263/185/155 264/187/156 
f 241/188/133 264/187/156 265/189/157 
f 241/190/133 265/189/157 266/191/158 
f 241/192/133 266/191/158 267/193/159 
f 241/194/133 267/193/159 268/195/160 
f 241/196/133 268/195/160 269/197/161 
f 241/198/133 269/197/161 270/199/162 
f 241/200/133 270/199/162 271/201/163 
f 241/202/133 271/201/163 272/203/164 
f 241/204/133 272/203/164 273/205/165 
f 241/206/133 273/205/165 242/207/134 
f 242/144/134 274/208/166 275/209/167 243/145/135 
f 243/145/135 275/209/167 276/210/168 244/147/136 
f 244/147/136 276/210/168 277/211/169 245/149/137 
f 245/149/137 277/211/169 278/212/170 246/151/138 
f 246/151/138 278/212/170 279/213/171 247/153/139 
f 247/153/139 279/213/171 280/214/172 248/155/140 
f 248/155/140 280/214/172 281/215/173 249/157/141 
f 249/157/141 281/215/173 282/216/174 250/159/142 
f 250/159/142 282/216/174 283/217/175 251/161/143 
f 251/161/143 283/217/175 284/218/176 252/163/144 
f 252/163/144 284/218/176 285/219/177 253/165/145 
f 253/165/145 285/219/177 286/220/178 254/167/146 
f 254/167/146 286/220/178 287/221/179 255/169/147 
f 255/169/147 287/221/179 288/222/180 256/171/148 
f 256/171/148 288/222/180 289/223/181 257/173/149 
f 257/173/149 289/223/181 290/224/182 258/175/150 
f 258/175/150 290/224/182 291/225/183 259/177/151 
f 259/177/151 291/225/183 292/226/184 260/179/152 
f 260/179/152 292/226/184 293/227/185 261/181/153 
f 261/181/153 293/227/185 294/228/186 262/183/154 
f 262/183/154 294/228/186 295/229/187 263/185/155 
f 263/185/155 295/229/187 296/230/188 264/187/156 
f 264/187/156 296/230/188 297/231/189 265/189/157 
f 265/189/157 297/231/189 298/232/190 266/191/158 
f 266/191/158 298/232/190 299/233/191 267/193/159 
f 267/193/159 299/233/191 300/234/192 268/195/160 
f 268/195/160 300/234/192 301/235/193 269/197/161 
f 269/197/161 301/235/193 302/236/194 270/199/162 
f 270/199/162 302/236/194 303/237/195 271/201/163 
f 271/201/163 303/237/195 304/238/196 272/203/164 
f 272/203/164 304/238/196 305/239/197 273/205/165 
f 273/205/165 305/239/197 274/240/166 242/207/134 
f 274/208/166 306/241/198 307/242/199 275/209/167 
f 275/209/167 307/242/199 308/243/200 276/210/168 
f 276/210/168 308/243/200 309/244/201 277/211/169 
f 277/211/169 309/244/201 310/245/202 278/212/170 
f 278/212/170 310/245/202 311/246/203 279/213/171 
f 279/213/171 311/246/203 312/247/204 280/214/172 
f 280/214/172 312/247/204 313/248/205 281/215/173 
f 281/215/173 313/248/205 314/249/206 282/216/174 
f 282/216/174 314/249/206 315/250/207 283/217/175 
f 283/217/175 315/250/207 316/251/208 284/218/176 
f 284/218/176 316/251/208 317/252/209 285/219/177 
f 285/219/177 317/252/209 318/253/210 286/220/178 
f 286/220/178 318/253/210 319/254/211 287/221/179 
f 287/221/179 319/254/211 320/255/212 288/222/180 
f 288/222/180 320/255/212 321/256/213 289/223/181 
f 289/223/181 321/256/213 322/257/214 290/224/182 
f 290/224/182 322/257/214 323/258/215 291/225/183 
f 291/225/183 323/258/215 324/259/216 292/226/184 
f 292/226/184 324/259/216 325/260/217 293/227/185 
f 293/227/185 325/260/217 326/261/218 294/228/186 
f 294/228/186 326/261/218 327/262/219 295/229/187 
f 295/229/187 327/262/219 328/263/220 296/230/188 
f 296/230/188 328/263/220 329/264/221 297/231/189 
f 297/231/189 329/264/221 330/265/222 298/232/190 
f 298/232/190 330/265/222 331/266/223 299/233/191 
f 299/233/191 331/266/223 332/267/224 300/234/192 
f 300/234/192 332/267/224 333/268/225 301/235/193 
f 301/235/193 333/268/225 334/269/226 302/236/194 
f 302/236/194 334/269/226 335/270/227 303/237/195 
f 303/237/195 335/270/227 336/271/228 304/238/196 
f 304/238/196 336/271/228 337/272/229 305/239/197 
f 305/239/197 337/272/229 306/273/198 274/240/166 
f 306/241/198 338/274/230 339/275/231 307/242/199 
f 307/242/199 339/275/231 340/276/232 308/243/200 
f 308/243/200 340/276/232 341/277/233 309/244/201 
f 309/244/201 341/277/233 342/278/234 310/245/202 
f 310/245/202 342/278/234 343/279/235 311/246/203 
f 311/246/203 343/279/235 344/280/236 312/247/204 
f 312/247/204 344/280/236 345/281/237 313/248/205 
f 313/248/205 345/281/237 346/282/238 314/249/206 
f 314/249/206 346/282/238 347/283/239 315/250/207 
f 315/250/207 347/283/239 348/284/240 316/251/208 
f 316/251/208 348/284/240 349/285/241 317/252/209 
f 317/252/209 349/285/241 350/286/242 318/253/210 
f 318/253/210 350/286/242 351/287/243 319/254/211 
f 319/254/211 351/287/243 352/288/244 320/255/212 
f 320/255/212 352/288/244 353/289/245 321/256/213 
f 321/256/213 353/289/245 354/290/246 322/257/214 
f 322/257/214 354/290/246 355/291/247 323/258/215 
f 323/258/215 355/291/247 356/292/248 324/259/216 
f 324/259/216 356/292/248 357/293/249 325/260/217 
f 325/260/217 357/293/249 358/294/250 326/261/218 
f 326/261/218 358/294/250 359/295/251 327/262/219 
f 327/262/219 359/295/251 360/296/252 328/263/220 
f 328/263/220 360/296/252 361/297/253 329/264/221 
f 329/264/221 361/297/253 362/298/254 330/265/222 
f 330/265/222 362/298/254 363/299/255 331/266/223 
f 331/266/223 363/299/255 364/300/256 332/267/224 
f 332/267/224 364/300/256 365/301/257 333/268/225 
f 333/268/225 365/301/257 366/302/258 334/269/226 
f 334/269/226 366/302/258 367/303/259 335/270/227 
f 335/270/227 367/303/259 368/304/260 336/271/228 
f 336/271/228 368/304/260 369/305/261 337/272/229 
f 337/272/229 369/305/261 338/306/230 306/273/198 
f 338/274/230 370/307/262 371/308/263 339/275/231 
f 339/275/231 371/308/263 372/309/264 340/276/232 
f 340/276/232 372/309/264 373/310/265 341/277/233 
f 341/277/233 373/310/265 374/311/266 342/278/234 
f 342/278/234 374/311/266 375/312/267 343/279/235 
f 343/279/235 375/312/267 376/313/268 344/280/236 
f 344/280/236 376/313/268 377/314/269 345/281/237 
f 345/281/237 377/314/269 378/315/270 346/282/238 
f 346/282/238 378/315/270 379/316/271 347/283/239 
f 347/283/239 379/316/271 380/317/272 348/284/240 
f 348/284/240 380/317/272 381/318/273 349/285/241 
f 349/285/241 381/318/273 382/319/274 350/286/242 
f 350/286/242 382/319/274 383/320/275 351/287/243 
f 351/287/243 383/320/275 384/321/276 352/288/244 
f 352/288/244 384/321/276 385/322/277 353/289/245 
f 353/289/245 385/322/277 386/323/278 354/290/246 
f 354/290/246 386/323/278 387/324/279 355/291/247 
f 355/291/247 387/324/279 388/325/280 356/292/248 
f 356/292/248 388/325/280 389/326/281 357/293/249 
f 357/293/249 389/326/281 390/327/282 358/294/250 
f 358/294/250 390/327/282 391/328/283 359/295/251 
f 359/295/251 391/328/283 392/329/284 360/296/252 
f 360/296/252 392/329/284 393/330/285 361/297/253 
f 361/297/253 393/330/285 394/331/286 362/298/254 
f 362/298/254 394/331/286 395/332/287 363/299/255 
f 363/299/255 395/332/287 396/333/288 364/300/256 
f 364/300/256 396/333/288 397/334/289 365/301/257 
f 365/301/257 397/334/289 398/335/290 366/302/258 
f 366/302/258 398/335/290 399/336/291 367/303/259 
f 367/303/259 399/336/291 400/337/292 368/304/260 
f 368/304/260 400/337/292 401/338/293 369/305/261 
f 369/305/261 401/338/293 370/339/262 338/306/230 
f 370/307/262 402/340/294 403/341/295 371/308/263 
f 371/308/263 403/341/295 404/342/296 372/309/264 
f 372/309/264 404/342/296 405/343/297 373/310/265 
f 373/310/265 405/343/297 406/344/298 374/311/266 
f 374/311/266 406/344/298 407/345/299 375/312/267 
f 375/312/267 407/345/299 408/346/300 376/313/268 
f 376/313/268 408/346/300 409/347/301 377/314/269 
f 377/314/269 409/347/301 410/348/302 378/315/270 
f 378/315/270 410/348/302 411/349/303 379/316/271 
f 379/316/271 411/349/303 412/350/304 380/317/272 
f 380/317/272 412/350/304 413/351/305 381/318/273 
f 381/318/273 413/351/305 414/352/306 382/319/274 
f 382/319/274 414/352/306 415/353/307 383/320/275 
f 383/320/275 415/353/307 416/354/308 384/321/276 
f 384/321/276 416/354/308 417/355/309 385/322/277 
f 385/322/277 417/355/309 418/356/310 386/323/278 
f 386/323/278 418/356/310 419/357/311 387/324/279 
f 387/324/279 419/357/311 420/358/312 388/325/280 
f 388/325/280 420/358/312 421/359/313 389/326/281 
f 389/326/281 421/359/313 422/360/314 390/327/282 
f 390/327/282 422/360/314 423/361/315 391/328/283 
f 391/328/283 423/361/315 424/362/316 392/329/284 
f 392/329/284 424/362/316 425/363/317 393/330/285 
f 426/330/318 427/363/319 428/364/320 429/331/321 
f 394/331/286 430/364/322 431/365/323 395/332/287 
f 395/332/287 431/365/323 432/366/324 396/333/288 
f 433/333/325 434/366/326 435/367/327 436/334/328 
f 397/334/289 437/367/329 438/368/330 398/335/290 
f 398/335/290 438/368/330 439/369/331 399/336/291 
f 399/336/291 439/369/331 440/370/332 400/337/292 
f 400/337/292 440/370/332 441/371/333 401/338/293 
f 401/338/293 441/371/333 402/372/294 370/339/262 
f 402/340/294 442/373/334 443/374/335 403/341/295 
f 403/341/295 443/374/335 444/375/336 404/342/296 
f 404/342/296 444/375/336 445/376/337 405/343/297 
f 405/343/297 445/376/337 446/377/338 406/344/298 
f 406/344/298 446/377/338 447/378/339 407/345/299 
f 407/345/299 447/378/339 448/379/340 408/346/300 
f 408/346/300 448/379/340 449/380/341 409/347/301 
f 409/347/301 449/380/341 450/381/342 410/348/302 
f 410/348/302 450/381/342 451/382/343 411/349/303 
f 411/349/303 451/382/343 452/383/344 412/350/304 
f 412/350/304 452/383/344 453/384/345 413/351/305 
f 413/351/305 453/384/345 454/385/346 414/352/306 
f 414/352/306 454/385/346 455/386/347 415/353/307 
f 415/353/307 455/386/347 456/387/348 416/354/308 
f 416/354/308 456/387/348 457/388/349 417/355/309 
f 417/355/309 457/388/349 458/389/350 418/356/310 
f 418/356/310 458/389/350 459/390/351 419/357/311 
f 419/357/311 459/390/351 460/391/352 420/358/312 
f 420/358/312 460/391/352 461/392/353 421/359/313 
f 421/359/313 461/392/353 462/393/354 422/360/314 
f 422/360/314 462/393/354 463/394/355 423/361/315 
f 423/361/315 463/394/355 464/395/356 424/362/316 
f 424/362/316 464/395/356 465/396/357 425/363/317 
f 427/363/319 466/396/358 467/397/359 428/364/320 
f 430/364/322 468/397/360 469/398/361 431/365/323 
f 431/365/323 469/398/361 470/399/362 432/366/324 
f 434/366/326 471/399/363 472/400/364 435/367/327 
f 437/367/329 473/400/365 474/401/366 438/368/330 
f 438/368/330 474/401/366 475/402/367 439/369/331 
f 439/369/331 475/402/367 476/403/368 440/370/332 
f 440/370/332 476/403/368 477/404/369 441/371/333 
f 441/371/333 477/404/369 442/405/334 402/372/294 
f 442/373/334 478/406/370 479/407/371 443/374/335 
f 443/374/335 479/407/371 480/408/372 444/375/336 
f 444/375/336 480/408/372 481/409/373 445/376/337 
f 445/376/337 481/409/373 482/410/374 446/377/338 
f 446/377/338 482/410/374 483/411/375 447/378/339 
f 447/378/339 483/411/375 484/412/376 448/379/340 
f 448/379/340 484/412/376 485/413/377 449/380/341 
f 449/380/341 485/413/377 486/414/378 450/381/342 
f 450/381/342 486/414/378 487/415/379 451/382/343 
f 451/382/343 487/415/379 488/416/380 452/383/344 
f 452/383/344 488/416/380 489/417/381 453/384/345 
f 453/384/345 489/417/381 490/418/382 454/385/346 
f 454/385/346 490/418/382 491/419/383 455/386/347 
f 455/386/347 491/419/383 492/420/384 456/387/348 
f 456/387/348 492/420/384 493/421/385 457/388/349 
f 457/388/349 493/421/385 494/422/386 458/389/350 
f 458/389/350 494/422/386 495/423/387 459/390/351 
f 459/390/351 495/423/387 496/424/388 460/391/352 
f 460/391/352 496/424/388 497/425/389 461/392/353 
f 461/392/353 497/425/389 498/426/390 462/393/354 
f 462/393/354 498/426/390 499/427/391 463/394/355 
f 463/394/355 499/427/391 500/428/392 464/395/356 
f 464/395/356 500/428/392 501/429/393 465/396/357 
f 465/396/357 501/429/393 502/430/394 468/397/360 
f 468/397/360 502/430/394 503/431/395 469/398/361 
f 469/398/361 503/431/395 504/432/396 470/399/362 
f 470/399/362 504/432/396 505/433/397 473/400/365 
f 473/400/365 505/433/397 506/434/398 474/401/366 
f 474/401/366 506/434/398 507/435/399 475/402/367 
f 475/402/367 507/435/399 508/436/400 476/403/368 
f 476/403/368 508/436/400 509/437/401 477/404/369 
f 477/404/369 509/437/401 478/438/370 442/405/334 
f 478/406/370 510/439/402 511/440/403 479/407/371 
f 479/407/371 511/440/403 512/441/404 480/408/372 
f 480/408/372 512/441/404 513/442/405 481/409/373 
f 481/409/373 513/442/405 514/443/406 482/410/374 
f 482/410/374 514/443/406 515/444/407 483/411/375 
f 483/411/375 515/444/407 516/445/408 484/412/376 
f 484/412/376 516/445/408 517/446/409 485/413/377 
f 485/413/377 517/446/409 518/447/410 486/414/378 
f 486/414/378 518/447/410 519/448/411 487/415/379 
f 487/415/379 519/448/411 520/449/412 488/416/380 
f 488/416/380 520/449/412 521/450/413 489/417/381 
f 489/417/381 521/450/413 522/451/414 490/418/382 
f 490/418/382 522/451/414 523/452/415 491/419/383 
f 491/419/383 523/452/415 524/453/416 492/420/384 
f 492/420/384 524/453/416 525/454/417 493/421/385 
f 493/421/385 525/454/417 526/455/418 494/422/386 
f 494/422/386 526/455/418 527/456/419 495/423/387 
f 495/423/387 527/456/419 528/457/420 496/424/388 
f 496/424/388 528/457/420 529/458/421 497/425/389 
f 497/425/389 529/458/421 530/459/422 498/426/390 
f 498/426/390 530/459/422 531/460/423 499/427/391 
f 499/427/391 531/460/423 532/461/424 500/428/392 
f 500/428/392 532/461/424 533/462/425 501/429/393 
f 501/429/393 533/462/425 534/463/426 502/430/394 
f 502/430/394 534/463/426 535/464/427 503/431/395 
f 503/431/395 535/464/427 536/465/428 504/432/396 
f 504/432/396 536/465/428 537/466/429 505/433/397 
f 505/433/397 537/466/429 538/467/430 506/434/398 
f 506/434/398 538/467/430 539/468/431 507/435/399 
f 507/435/399 539/468/431 540/469/432 508/436/400 
f 508/436/400 540/469/432 541/470/433 509/437/401 
f 509/437/401 541/470/433 510/471/402 478/438/370 
s off
f 542/440/434 543/439/435 544/472/436 
f 545/441/437 542/440/434 544/472/436 
f 546/442/438 545/441/437 544/472/436 
f 547/443/439 546/442/438 544/472/436 
f 548/444/440 547/443/439 544/472/436 
f 549/445/441 548/444/440 544/472/436 
f 550/446/442 549/445/441 544/472/436 
f 551/447/443 550/446/442 544/472/436 
f 552/448/444 551/447/443 544/472/436 
f 553/449/445 552/448/444 544/472/436 
f 554/450/446 553/449/445 544/472/436 
f 555/451/447 554/450/446 544/472/436 
f 556/452/448 555/451/447 544/472/436 
f 557/453/449 556/452/448 544/473/436 
f 558/454/450 557/453/449 544/473/436 
f 559/455/451 558/454/450 544/455/436 
f 560/456/452 559/455/451 544/455/436 
f 561/457/453 560/456/452 544/455/436 
f 562/458/454 561/457/453 544/474/436 
f 563/459/455 562/458/454 544/474/436 
f 564/460/456 563/459/455 544/461/436 
f 565/461/457 564/460/456 544/461/436 
f 566/462/458 565/461/457 544/461/436 
f 567/463/459 566/462/458 544/475/436 
f 568/464/460 567/463/459 544/475/436 
f 569/465/461 568/464/460 544/466/436 
f 570/466/462 569/465/461 544/466/436 
f 571/467/463 570/466/462 544/466/436 
f 572/468/464 571/467/463 544/476/436 
f 573/469/465 572/468/464 544/476/436 
f 574/470/466 573/469/465 544/476/436 
f 543/471/435 574/470/466 544/476/436 
s 1
f 511/440/403 510/439/402 543/439/435 542/440/434 
f 510/471/402 541/470/433 574/470/466 543/471/435 
f 541/470/433 540/469/432 573/469/465 574/470/466 
f 540/469/432 539/468/431 572/468/464 573/469/465 
f 539/468/431 538/467/430 571/467/463 572/468/464 
f 538/467/430 537/466/429 570/466/462 571/467/463 
f 537/466/429 536/465/428 569/465/461 570/466/462 
f 536/465/428 535/464/427 568/464/460 569/465/461 
f 535/464/427 534/463/426 567/463/459 568/464/460 
f 534/463/426 533/462/425 566/462/458 567/463/459 
f 533/462/425 532/461/424 565/461/457 566/462/458 
f 532/461/424 531/460/423 564/460/456 565/461/457 
f 531/460/423 530/459/422 563/459/455 564/460/456 
f 530/459/422 529/458/421 562/458/454 563/459/455 
f 529/458/421 528/457/420 561/457/453 562/458/454 
f 528/457/420 527/456/419 560/456/452 561/457/453 
f 527/456/419 526/455/418 559/455/451 560/456/452 
f 526/455/418 525/454/417 558/454/450 559/455/451 
f 525/454/417 524/453/416 557/453/449 558/454/450 
f 524/453/416 523/452/415 556/452/448 557/453/449 
f 523/452/415 522/451/414 555/451/447 556/452/448 
f 522/451/414 521/450/413 554/450/446 555/451/447 
f 521/450/413 520/449/412 553/449/445 554/450/446 
f 520/449/412 519/448/411 552/448/444 553/449/445 
f 519/448/411 518/447/410 551/447/443 552/448/444 
f 518/447/410 517/446/409 550/446/442 551/447/443 
f 517/446/409 516/445/408 549/445/441 550/446/442 
f 516/445/408 515/444/407 548/444/440 549/445/441 
f 515/444/407 514/443/406 547/443/439 548/444/440 
f 514/443/406 513/442/405 546/442/438 547/443/439 
f 513/442/405 512/441/404 545/441/437 546/442/438 
f 512/441/404 511/440/403 542/440/434 545/441/437 
s off
f 394/331/286 393/330/285 426/330/318 429/331/321 
f 393/330/285 425/363/317 427/363/319 426/330/318 
f 425/363/317 465/396/357 466/396/358 427/363/319 
f 465/396/357 468/397/360 467/397/359 466/396/358 
f 468/397/360 430/364/322 428/364/320 467/397/359 
f 430/364/322 394/331/286 429/331/321 428/364/320 
f 397/334/289 396/333/288 433/333/325 436/334/328 
f 396/333/288 432/366/324 434/366/326 433/333/325 
f 432/366/324 470/399/362 471/399/363 434/366/326 
f 470/399/362 473/400/365 472/400/364 471/399/363 
f 473/400/365 437/367/329 435/367/327 472/400/364 
f 437/367/329 397/334/289 436/334/328 435/367/327 
s 1
f 575/5/467 576/6/468 577/7/469 578/8/470 579/9/471 580/10/472 581/11/473 582/12/474 583/13/475 584/14/476 585/15/477 586/16/478 587/17/479 588/18/480 589/19/481 590/20/482 591/21/483 592/22/484 
s 8
f 592/22/484 591/21/483 593/23/485 594/24/486 
f 591/21/483 590/20/482 595/25/487 593/23/485 
f 590/20/482 589/19/481 596/26/488 595/25/487 
f 589/19/481 588/18/480 597/27/489 596/26/488 
f 588/28/480 587/29/479 598/30/490 597/31/489 
f 587/29/479 586/32/478 599/33/491 598/30/490 
f 586/32/478 585/34/477 600/35/492 599/33/491 
f 585/34/477 584/36/476 601/37/493 600/35/492 
f 584/36/476 583/38/475 602/39/494 601/37/493 
f 583/38/475 582/40/474 603/41/495 602/39/494 
f 582/40/474 581/42/473 604/43/496 603/41/495 
f 581/42/473 580/44/472 605/45/497 604/43/496 
f 580/44/472 579/46/471 606/47/498 605/45/497 
f 579/46/471 578/48/470 607/49/499 606/47/498 
f 578/48/470 577/50/469 608/51/500 607/49/499 
f 577/50/469 576/52/468 609/53/501 608/51/500 
f 576/52/468 575/54/467 610/55/502 609/53/501 
f 575/54/467 592/22/484 594/24/486 610/55/502 
f 594/24/486 593/23/485 611/56/485 612/57/486 
f 593/23/485 595/25/487 613/58/487 611/56/485 
f 595/25/487 596/26/488 614/59/488 613/58/487 
f 596/26/488 597/27/489 615/60/489 614/59/488 
f 597/31/489 598/30/490 616/61/490 615/62/489 
f 598/30/490 599/33/491 617/63/491 616/61/490 
f 599/33/491 600/35/492 618/64/492 617/63/491 
f 600/35/492 601/37/493 619/65/493 618/64/492 
f 601/37/493 602/39/494 620/66/494 619/65/493 
f 602/39/494 603/41/495 621/67/495 620/66/494 
f 603/41/495 604/43/496 622/68/496 621/67/495 
f 604/43/496 605/45/497 623/69/497 622/68/496 
f 605/45/497 606/47/498 624/70/498 623/69/497 
f 606/47/498 607/49/499 625/71/499 624/70/498 
f 607/49/499 608/51/500 626/72/500 625/71/499 
f 608/51/500 609/53/501 627/73/501 626/72/500 
f 609/53/501 610/55/502 628/74/502 627/73/501 
f 610/55/502 594/24/486 612/57/486 628/74/502 
f 612/57/486 611/56/485 629/75/485 630/76/486 
f 611/56/485 613/58/487 631/77/487 629/75/485 
f 613/58/487 614/59/488 632/78/488 631/77/487 
f 614/59/488 615/60/489 633/79/489 632/78/488 
f 615/62/489 616/61/490 634/80/490 633/81/489 
f 616/61/490 617/63/491 635/82/491 634/80/490 
f 617/63/491 618/64/492 636/83/492 635/82/491 
f 618/64/492 619/65/493 637/84/493 636/83/492 
f 619/65/493 620/66/494 638/85/494 637/84/493 
f 620/66/494 621/67/495 639/86/495 638/85/494 
f 621/67/495 622/68/496 640/87/496 639/86/495 
f 622/68/496 623/69/497 641/88/497 640/87/496 
f 623/69/497 624/70/498 642/89/498 641/88/497 
f 624/70/498 625/71/499 643/90/499 642/89/498 
f 625/71/499 626/72/500 644/91/500 643/90/499 
f 626/72/500 627/73/501 645/92/501 644/91/500 
f 627/73/501 628/74/502 646/93/502 645/92/501 
f 628/74/502 612/57/486 630/76/486 646/93/502 
f 630/76/486 629/75/485 647/94/485 648/95/486 
f 629/75/485 631/77/487 649/96/487 647/94/485 
f 631/77/487 632/78/488 650/97/488 649/96/487 
f 632/78/488 633/79/489 651/98/489 650/97/488 
f 633/81/489 634/80/490 652/99/490 651/100/489 
f 634/80/490 635/82/491 653/101/491 652/99/490 
f 635/82/491 636/83/492 654/102/492 653/101/491 
f 636/83/492 637/84/493 655/103/493 654/102/492 
f 637/84/493 638/85/494 656/104/494 655/103/493 
f 638/85/494 639/86/495 657/105/495 656/104/494 
f 639/86/495 640/87/496 658/106/496 657/105/495 
f 640/87/496 641/88/497 659/107/497 658/106/496 
f 641/88/497 642/89/498 660/108/498 659/107/497 
f 642/89/498 643/90/499 661/109/499 660/108/498 
f 643/90/499 644/91/500 662/110/500 661/109/499 
f 644/91/500 645/92/501 663/111/501 662/110/500 
f 645/92/501 646/93/502 664/112/502 663/111/501 
f 646/93/502 630/76/486 648/95/486 664/112/502 
f 648/95/486 647/94/485 665/113/503 666/114/504 
f 647/94/485 649/96/487 667/115/505 665/113/503 
f 649/96/487 650/97/488 668/116/506 667/115/505 
f 650/97/488 651/98/489 669/117/507 668/116/506 
f 651/100/489 652/99/490 670/118/508 669/119/507 
f 652/99/490 653/101/491 671/120/509 670/118/508 
f 653/101/491 654/102/492 672/121/510 671/120/509 
f 654/102/492 655/103/493 673/122/511 672/121/510 
f 655/103/493 656/104/494 674/123/512 673/122/511 
f 656/104/494 657/105/495 675/124/513 674/123/512 
f 657/105/495 658/106/496 676/125/514 675/124/513 
f 658/106/496 659/107/497 677/126/515 676/125/514 
f 659/107/497 660/108/498 678/127/516 677/126/515 
f 660/108/498 661/109/499 679/128/517 678/127/516 
f 661/109/499 662/110/500 680/129/518 679/128/517 
f 662/110/500 663/111/501 681/130/519 680/129/518 
f 663/111/501 664/112/502 682/131/520 681/130/519 
f 664/112/502 648/95/486 666/114/504 682/131/520 
s 1
f 682/131/520 666/114/504 665/113/503 667/115/505 668/116/506 669/117/507 670/132/508 671/133/509 672/134/510 673/477/511 674/136/512 675/137/513 676/138/514 677/139/515 678/140/516 679/141/517 680/142/518 681/143/519 
# 594 polygons - 64 triangles

