# 3ds Max Wavefront OBJ Exporter v0.99 - (c)2007 guruware
# File Created: 19.09.2026 03:32:48

mtllib Big Chocolate Bar.mtl

#
# object Big_Chocolate_Bar
#

v  97.8929 0.0000 19.2661
v  97.8929 0.0000 9.8259
v  104.3209 0.0000 9.8259
v  104.3209 0.0000 19.2661
v  110.7490 0.0000 9.8259
v  110.7490 0.0000 19.2661
v  117.1771 0.0000 9.8259
v  117.1771 0.0000 19.2661
v  97.8929 0.0000 0.3857
v  104.3209 0.0000 0.3857
v  110.7490 0.0000 0.3857
v  117.1771 0.0000 0.3857
v  97.8929 0.0000 -9.0545
v  104.3209 0.0000 -9.0545
v  110.7490 0.0000 -9.0545
v  117.1771 0.0000 -9.0545
v  97.8929 0.0000 -18.4947
v  104.3209 0.0000 -18.4947
v  110.7490 0.0000 -18.4947
v  117.1771 0.0000 -18.4947
v  98.5389 3.3512 18.3174
v  103.6749 3.3512 18.3174
v  103.6749 3.3512 10.7746
v  98.5389 3.3512 10.7746
v  104.9669 3.3512 18.3174
v  110.1030 3.3512 18.3174
v  110.1030 3.3512 10.7746
v  104.9669 3.3512 10.7746
v  111.3950 3.3512 18.3174
v  116.5311 3.3512 18.3174
v  116.5311 3.3512 10.7746
v  111.3950 3.3512 10.7746
v  98.5389 3.3512 8.8772
v  103.6749 3.3512 8.8772
v  103.6749 3.3512 1.3344
v  98.5389 3.3512 1.3344
v  104.9669 3.3512 8.8772
v  110.1030 3.3512 8.8772
v  110.1030 3.3512 1.3344
v  104.9669 3.3512 1.3344
v  111.3950 3.3512 8.8772
v  116.5311 3.3512 8.8772
v  116.5311 3.3512 1.3344
v  111.3950 3.3512 1.3344
v  98.5389 3.3512 -0.5630
v  103.6749 3.3512 -0.5630
v  103.6749 3.3512 -8.1058
v  98.5389 3.3512 -8.1058
v  104.9669 3.3512 -0.5630
v  110.1030 3.3512 -0.5630
v  110.1030 3.3512 -8.1058
v  104.9669 3.3512 -8.1058
v  111.3950 3.3512 -0.5630
v  116.5311 3.3512 -0.5630
v  116.5311 3.3512 -8.1058
v  111.3950 3.3512 -8.1058
v  98.5389 3.3512 -10.0032
v  103.6749 3.3512 -10.0032
v  103.6749 3.3512 -17.5460
v  98.5389 3.3512 -17.5460
v  104.9669 3.3512 -10.0032
v  110.1030 3.3512 -10.0032
v  110.1030 3.3512 -17.5460
v  104.9669 3.3512 -17.5460
v  111.3950 3.3512 -10.0032
v  116.5311 3.3512 -10.0032
v  116.5311 3.3512 -17.5460
v  111.3950 3.3512 -17.5460
v  104.3209 1.9387 19.2661
v  97.8929 1.9387 19.2661
v  110.7490 1.9387 19.2661
v  117.1771 1.9387 19.2661
v  117.1771 1.9387 9.8259
v  117.1771 1.9387 0.3857
v  117.1771 1.9387 -9.0545
v  117.1771 1.9387 -18.4947
v  110.7490 1.9387 -18.4947
v  104.3209 1.9387 -18.4947
v  97.8929 1.9387 -18.4947
v  97.8929 1.9387 -9.0545
v  97.8929 1.9387 0.3857
v  97.8929 1.9387 9.8259
v  104.3209 1.9387 9.8259
v  110.7490 1.9387 9.8259
v  104.3209 1.9387 0.3857
v  110.7490 1.9387 0.3857
v  110.7490 1.9387 -9.0545
v  104.3209 1.9387 -9.0545
# 88 vertices

vn -0.5774 -0.5774 0.5774
vn -0.7071 -0.7071 -0.0000
vn 0.0000 -1.0000 -0.0000
vn 0.0000 -0.7071 0.7071
vn 0.7071 -0.7071 -0.0000
vn 0.5774 -0.5774 0.5774
vn -0.5774 -0.5774 -0.5774
vn 0.0000 -0.7071 -0.7071
vn 0.5774 -0.5774 -0.5774
vn -0.4480 0.8234 0.3483
vn 0.4480 0.8234 0.3483
vn 0.4480 0.8234 -0.3483
vn -0.4480 0.8234 -0.3483
vn 0.0000 0.4079 0.9130
vn -0.6606 0.3062 0.6855
vn -0.0000 0.4079 0.9130
vn 0.6606 0.3062 0.6855
vn 0.9072 0.4206 -0.0000
vn 0.9072 0.4206 0.0000
vn 0.6606 0.3062 -0.6855
vn 0.0000 0.4079 -0.9130
vn -0.0000 0.4079 -0.9130
vn -0.6606 0.3062 -0.6855
vn -0.9072 0.4206 -0.0000
vn -0.9072 0.4206 0.0000
vn -0.0000 1.0000 0.0000
vn 0.0000 1.0000 -0.0000
vn -0.0000 1.0000 -0.0000
# 28 vertex normals

vt 0.0716 0.0005 0.0000
vt 0.2841 0.0005 0.0000
vt 0.2841 0.1297 0.0000
vt 0.0716 0.1297 0.0000
vt 0.2841 0.2588 0.0000
vt 0.0716 0.2588 0.0000
vt 0.2841 0.3880 0.0000
vt 0.0716 0.3880 0.0000
vt 0.4966 0.0005 0.0000
vt 0.4966 0.1297 0.0000
vt 0.4966 0.2588 0.0000
vt 0.4966 0.3880 0.0000
vt 0.7091 0.0005 0.0000
vt 0.7091 0.1297 0.0000
vt 0.7091 0.2588 0.0000
vt 0.7091 0.3880 0.0000
vt 0.9216 0.0005 0.0000
vt 0.9216 0.1297 0.0000
vt 0.9216 0.2588 0.0000
vt 0.9216 0.3880 0.0000
vt 0.3504 0.8963 0.0000
vt 0.3504 0.9995 0.0000
vt 0.1806 0.9995 0.0000
vt 0.1806 0.8963 0.0000
vt 0.6072 0.5313 0.0000
vt 0.7104 0.5313 0.0000
vt 0.7104 0.7011 0.0000
vt 0.6072 0.7011 0.0000
vt 0.7011 0.8963 0.0000
vt 0.7011 0.9995 0.0000
vt 0.5313 0.9995 0.0000
vt 0.5313 0.8963 0.0000
vt 0.4262 0.7825 0.0000
vt 0.4262 0.8857 0.0000
vt 0.2564 0.8857 0.0000
vt 0.2564 0.7825 0.0000
vt 0.6016 0.7825 0.0000
vt 0.6016 0.8857 0.0000
vt 0.4318 0.8857 0.0000
vt 0.4318 0.7825 0.0000
vt 0.2509 0.7873 0.0000
vt 0.2509 0.8905 0.0000
vt 0.0811 0.8905 0.0000
vt 0.0811 0.7873 0.0000
vt 0.8157 0.4697 0.0000
vt 0.9189 0.4697 0.0000
vt 0.9189 0.6395 0.0000
vt 0.8157 0.6395 0.0000
vt 0.7115 0.4697 0.0000
vt 0.8147 0.4697 0.0000
vt 0.8147 0.6395 0.0000
vt 0.7115 0.6395 0.0000
vt 0.8765 0.8963 0.0000
vt 0.8765 0.9995 0.0000
vt 0.7067 0.9995 0.0000
vt 0.7067 0.8963 0.0000
vt 0.5258 0.8963 0.0000
vt 0.5258 0.9995 0.0000
vt 0.3560 0.9995 0.0000
vt 0.3560 0.8963 0.0000
vt 0.1750 0.8963 0.0000
vt 0.1750 0.9995 0.0000
vt 0.0052 0.9995 0.0000
vt 0.0052 0.8963 0.0000
vt 0.5029 0.5313 0.0000
vt 0.6061 0.5313 0.0000
vt 0.6061 0.7011 0.0000
vt 0.5029 0.7011 0.0000
vt 0.9921 0.0005 0.0000
vt 0.9921 0.1297 0.0000
vt 0.9531 0.1297 0.0000
vt 0.9531 0.0005 0.0000
vt 0.9921 0.2588 0.0000
vt 0.9531 0.2588 0.0000
vt 0.9921 0.3880 0.0000
vt 0.9531 0.3880 0.0000
vt 0.0811 0.3892 0.0000
vt 0.2936 0.3892 0.0000
vt 0.2936 0.4281 0.0000
vt 0.0811 0.4281 0.0000
vt 0.5061 0.3892 0.0000
vt 0.5061 0.4281 0.0000
vt 0.7186 0.3892 0.0000
vt 0.7186 0.4281 0.0000
vt 0.9311 0.3892 0.0000
vt 0.9311 0.4281 0.0000
vt 0.0811 0.4602 0.0000
vt 0.2102 0.4602 0.0000
vt 0.2102 0.4992 0.0000
vt 0.0811 0.4992 0.0000
vt 0.3394 0.4602 0.0000
vt 0.3394 0.4992 0.0000
vt 0.4686 0.4602 0.0000
vt 0.4686 0.4992 0.0000
vt 0.0005 0.8552 0.0000
vt 0.0005 0.6427 0.0000
vt 0.0395 0.6427 0.0000
vt 0.0395 0.8552 0.0000
vt 0.0005 0.4302 0.0000
vt 0.0395 0.4302 0.0000
vt 0.0005 0.2177 0.0000
vt 0.0395 0.2177 0.0000
vt 0.0005 0.0052 0.0000
vt 0.0395 0.0052 0.0000
vt 0.4697 0.7438 0.0000
vt 0.4697 0.5313 0.0000
vt 0.5009 0.5527 0.0000
vt 0.5009 0.7225 0.0000
vt 0.9247 0.2458 0.0000
vt 0.9247 0.1426 0.0000
vt 0.2043 0.7818 0.0000
vt 0.2043 0.5693 0.0000
vt 0.2355 0.5906 0.0000
vt 0.2355 0.7604 0.0000
vt 0.9934 0.5550 0.0000
vt 0.9934 0.6842 0.0000
vt 0.9579 0.6712 0.0000
vt 0.9579 0.5680 0.0000
vt 0.8986 0.6451 0.0000
vt 0.8986 0.7743 0.0000
vt 0.8631 0.7613 0.0000
vt 0.8631 0.6581 0.0000
vt 0.2375 0.7818 0.0000
vt 0.2375 0.5693 0.0000
vt 0.2687 0.5906 0.0000
vt 0.2687 0.7604 0.0000
vt 0.9200 0.9970 0.0000
vt 0.9200 0.8679 0.0000
vt 0.9555 0.8808 0.0000
vt 0.9555 0.9840 0.0000
vt 0.0678 0.2391 0.0000
vt 0.0678 0.4089 0.0000
vt 0.9934 0.6878 0.0000
vt 0.9934 0.8169 0.0000
vt 0.9579 0.8039 0.0000
vt 0.9579 0.7007 0.0000
vt 0.4847 0.4565 0.0000
vt 0.3149 0.4565 0.0000
vt 0.5124 0.7067 0.0000
vt 0.6415 0.7067 0.0000
vt 0.6286 0.7422 0.0000
vt 0.5254 0.7422 0.0000
vt 0.3038 0.7533 0.0000
vt 0.3038 0.5408 0.0000
vt 0.3350 0.5622 0.0000
vt 0.3350 0.7320 0.0000
vt 0.9460 0.6356 0.0000
vt 0.9460 0.7648 0.0000
vt 0.9105 0.7518 0.0000
vt 0.9105 0.6486 0.0000
vt 0.4678 0.5313 0.0000
vt 0.4678 0.7438 0.0000
vt 0.4366 0.7225 0.0000
vt 0.4366 0.5527 0.0000
vt 0.7115 0.7209 0.0000
vt 0.8406 0.7209 0.0000
vt 0.8276 0.7564 0.0000
vt 0.7244 0.7564 0.0000
vt 0.3019 0.5503 0.0000
vt 0.3019 0.7628 0.0000
vt 0.2707 0.7414 0.0000
vt 0.2707 0.5717 0.0000
vt 0.7363 0.8844 0.0000
vt 0.6072 0.8844 0.0000
vt 0.6202 0.8489 0.0000
vt 0.7234 0.8489 0.0000
vt 0.3370 0.7533 0.0000
vt 0.3370 0.5408 0.0000
vt 0.3682 0.5622 0.0000
vt 0.3682 0.7320 0.0000
vt 0.4556 0.5276 0.0000
vt 0.3524 0.5276 0.0000
vt 0.0678 0.6641 0.0000
vt 0.0678 0.8339 0.0000
vt 0.8691 0.8844 0.0000
vt 0.7399 0.8844 0.0000
vt 0.7529 0.8489 0.0000
vt 0.8561 0.8489 0.0000
vt 0.9097 0.4565 0.0000
vt 0.7399 0.4565 0.0000
vt 0.1973 0.5276 0.0000
vt 0.0941 0.5276 0.0000
vt 0.1380 0.7818 0.0000
vt 0.1380 0.5693 0.0000
vt 0.1692 0.5906 0.0000
vt 0.1692 0.7604 0.0000
vt 0.9247 0.1167 0.0000
vt 0.9247 0.0135 0.0000
vt 0.3702 0.7533 0.0000
vt 0.3702 0.5408 0.0000
vt 0.4014 0.5622 0.0000
vt 0.4014 0.7320 0.0000
vt 0.9579 0.9970 0.0000
vt 0.9579 0.8679 0.0000
vt 0.9934 0.8808 0.0000
vt 0.9934 0.9840 0.0000
vt 0.0678 0.0266 0.0000
vt 0.0678 0.1964 0.0000
vt 0.0811 0.5313 0.0000
vt 0.2936 0.5313 0.0000
vt 0.2722 0.5597 0.0000
vt 0.1024 0.5597 0.0000
vt 0.9247 0.3750 0.0000
vt 0.9247 0.2718 0.0000
vt 0.2722 0.4565 0.0000
vt 0.1024 0.4565 0.0000
vt 0.9200 0.5752 0.0000
vt 0.9200 0.4460 0.0000
vt 0.9555 0.4590 0.0000
vt 0.9555 0.5622 0.0000
vt 0.7363 0.8394 0.0000
vt 0.6072 0.8394 0.0000
vt 0.6202 0.8110 0.0000
vt 0.7234 0.8110 0.0000
vt 0.6775 0.5218 0.0000
vt 0.4650 0.5218 0.0000
vt 0.4863 0.4934 0.0000
vt 0.6561 0.4934 0.0000
vt 0.7304 0.8110 0.0000
vt 0.8596 0.8110 0.0000
vt 0.8466 0.8394 0.0000
vt 0.7434 0.8394 0.0000
vt 0.1048 0.7818 0.0000
vt 0.1048 0.5693 0.0000
vt 0.1360 0.5906 0.0000
vt 0.1360 0.7604 0.0000
vt 0.7209 0.6451 0.0000
vt 0.8501 0.6451 0.0000
vt 0.8371 0.6806 0.0000
vt 0.7339 0.6806 0.0000
vt 0.4034 0.7533 0.0000
vt 0.4034 0.5408 0.0000
vt 0.4346 0.5622 0.0000
vt 0.4346 0.7320 0.0000
vt 0.8406 0.7185 0.0000
vt 0.7115 0.7185 0.0000
vt 0.7244 0.6830 0.0000
vt 0.8276 0.6830 0.0000
vt 0.0678 0.4516 0.0000
vt 0.0678 0.6214 0.0000
vt 0.9923 0.8560 0.0000
vt 0.8631 0.8560 0.0000
vt 0.8761 0.8205 0.0000
vt 0.9793 0.8205 0.0000
vt 0.6972 0.4565 0.0000
vt 0.5274 0.4565 0.0000
vt 0.9579 0.5278 0.0000
vt 0.9579 0.3986 0.0000
vt 0.9934 0.4116 0.0000
vt 0.9934 0.5148 0.0000
vt 0.0716 0.7818 0.0000
vt 0.0716 0.5693 0.0000
vt 0.1028 0.5906 0.0000
vt 0.1028 0.7604 0.0000
vt 0.8821 0.9970 0.0000
vt 0.8821 0.8679 0.0000
vt 0.9176 0.8808 0.0000
vt 0.9176 0.9840 0.0000
vt 0.4792 0.4602 0.0000
vt 0.6917 0.4602 0.0000
vt 0.6703 0.4915 0.0000
vt 0.5006 0.4915 0.0000
vt 0.3264 0.5276 0.0000
vt 0.2232 0.5276 0.0000
vt 0.1711 0.7818 0.0000
vt 0.1711 0.5693 0.0000
vt 0.2023 0.5906 0.0000
vt 0.2023 0.7604 0.0000
# 268 texture coords

o Big_Chocolate_Bar
g Big_Chocolate_Bar
usemtl wire_153228214
s 2
f 1/1/1 2/2/2 3/3/3 4/4/4 
f 4/4/4 3/3/3 5/5/3 6/6/4 
f 6/6/4 5/5/3 7/7/5 8/8/6 
f 2/2/2 9/9/2 10/10/3 3/3/3 
f 3/3/3 10/10/3 11/11/3 5/5/3 
f 5/5/3 11/11/3 12/12/5 7/7/5 
f 9/9/2 13/13/2 14/14/3 10/10/3 
f 10/10/3 14/14/3 15/15/3 11/11/3 
f 11/11/3 15/15/3 16/16/5 12/12/5 
f 13/13/2 17/17/7 18/18/8 14/14/3 
f 14/14/3 18/18/8 19/19/8 15/15/3 
f 15/15/3 19/19/8 20/20/9 16/16/5 
s 4
f 21/21/10 22/22/11 23/23/12 24/24/13 
f 25/25/10 26/26/11 27/27/12 28/28/13 
f 29/29/10 30/30/11 31/31/12 32/32/13 
f 33/33/10 34/34/11 35/35/12 36/36/13 
f 37/37/10 38/38/11 39/39/12 40/40/13 
f 41/41/10 42/42/11 43/43/12 44/44/13 
f 45/45/10 46/46/11 47/47/12 48/48/13 
f 49/49/10 50/50/11 51/51/12 52/52/13 
f 53/53/10 54/54/11 55/55/12 56/56/13 
f 57/57/10 58/58/11 59/59/12 60/60/13 
f 61/61/10 62/62/11 63/63/12 64/64/13 
f 65/65/10 66/66/11 67/67/12 68/68/13 
s 8
f 1/69/1 4/70/4 69/71/14 70/72/15 
f 4/70/4 6/73/4 71/74/16 69/71/14 
f 6/73/4 8/75/6 72/76/17 71/74/16 
s 16
f 8/77/6 7/78/5 73/79/18 72/80/17 
f 7/78/5 12/81/5 74/82/19 73/79/18 
f 12/81/5 16/83/5 75/84/18 74/82/19 
f 16/83/5 20/85/9 76/86/20 75/84/18 
s 32
f 20/87/9 19/88/8 77/89/21 76/90/20 
f 19/88/8 18/91/8 78/92/22 77/89/21 
f 18/91/8 17/93/7 79/94/23 78/92/22 
s 64
f 17/95/7 13/96/2 80/97/24 79/98/23 
f 13/96/2 9/99/2 81/100/25 80/97/24 
f 9/99/2 2/101/2 82/102/24 81/100/25 
f 2/101/2 1/103/1 70/104/15 82/102/24 
s off
f 83/105/26 69/106/14 25/107/10 28/108/13 
f 69/71/14 71/74/16 26/109/11 25/110/10 
f 71/111/16 84/112/26 27/113/12 26/114/11 
f 84/115/26 83/116/26 28/117/13 27/118/12 
f 82/119/24 83/120/26 34/121/11 33/122/10 
f 83/123/26 85/124/26 35/125/12 34/126/11 
f 85/127/26 81/128/25 36/129/13 35/130/12 
f 81/100/25 82/102/24 33/131/10 36/132/13 
f 84/133/26 73/134/18 42/135/11 41/136/10 
f 73/79/18 74/82/19 43/137/12 42/138/11 
f 74/139/19 86/140/27 44/141/13 43/142/12 
f 86/143/27 84/144/26 41/145/10 44/146/13 
f 85/147/26 86/148/27 50/149/11 49/150/10 
f 86/151/27 87/152/27 51/153/12 50/154/11 
f 87/155/27 88/156/28 52/157/13 51/158/12 
f 88/159/28 85/160/26 49/161/10 52/162/13 
f 80/163/24 88/164/28 58/165/11 57/166/10 
f 88/167/28 78/168/22 59/169/12 58/170/11 
f 78/92/22 79/94/23 60/171/13 59/172/12 
f 79/98/23 80/97/24 57/173/10 60/174/13 
f 87/175/27 75/176/18 66/177/11 65/178/10 
f 75/84/18 76/86/20 67/179/12 66/180/11 
f 76/90/20 77/89/21 68/181/13 67/182/12 
f 77/183/21 87/184/27 65/185/10 68/186/13 
f 70/72/15 69/71/14 22/187/11 21/188/10 
f 69/189/14 83/190/26 23/191/12 22/192/11 
f 83/193/26 82/194/24 24/195/13 23/196/12 
f 82/102/24 70/104/15 21/197/10 24/198/13 
f 84/199/26 71/200/16 29/201/10 32/202/13 
f 71/74/16 72/76/17 30/203/11 29/204/10 
f 72/80/17 73/79/18 31/205/12 30/206/11 
f 73/207/18 84/208/26 32/209/13 31/210/12 
f 83/211/26 84/212/26 38/213/11 37/214/10 
f 84/215/26 86/216/27 39/217/12 38/218/11 
f 86/219/27 85/220/26 40/221/13 39/222/12 
f 85/223/26 83/224/26 37/225/10 40/226/13 
f 81/227/25 85/228/26 46/229/11 45/230/10 
f 85/231/26 88/232/28 47/233/12 46/234/11 
f 88/235/28 80/236/24 48/237/13 47/238/12 
f 80/97/24 81/100/25 45/239/10 48/240/13 
f 86/241/27 74/242/19 54/243/11 53/244/10 
f 74/82/19 75/84/18 55/245/12 54/246/11 
f 75/247/18 87/248/27 56/249/13 55/250/12 
f 87/251/27 86/252/27 53/253/10 56/254/13 
f 88/255/28 87/256/27 62/257/11 61/258/10 
f 87/259/27 77/260/21 63/261/12 62/262/11 
f 77/89/21 78/92/22 64/263/13 63/264/12 
f 78/265/22 88/266/28 61/267/10 64/268/13 
# 86 polygons

