# 3ds Max Wavefront OBJ Exporter v0.99 - (c)2007 guruware
# File Created: 15.09.2026 19:30:02

mtllib Bitten Gumball.mtl

#
# object Bitten_Gumball
#

v  -184.3999 11.5673 -84.3343
v  -182.6436 9.2385 -84.3598
v  -183.5015 9.7684 -87.0992
v  -185.8087 12.0279 -87.0639
v  -194.6976 12.0279 -84.1757
v  -196.5849 9.7684 -82.8481
v  -194.2329 11.5673 -81.1394
v  -195.6688 9.2385 -80.1277
v  -192.1466 13.1038 -82.4844
v  -191.3197 12.1183 -79.8172
v  -188.9254 13.1170 -81.5335
v  -188.1695 11.5923 -79.2071
v  -193.3267 9.7989 -78.4132
v  -190.5213 9.7989 -77.5017
v  -187.6188 9.2385 -77.5121
v  -185.9795 12.1183 -81.5523
v  -186.8783 13.1038 -84.1961
v  -185.2645 9.7989 -79.2098
v  -183.5307 9.7989 -81.5962
v  -182.0785 6.8979 -82.6519
v  -182.0785 6.8979 -86.0678
v  -182.5576 4.3790 -81.1773
v  -181.9119 4.2641 -84.3598
v  -182.5576 4.3790 -87.5424
v  -184.0187 2.0384 -80.1277
v  -183.1119 1.4780 -82.8849
v  -183.1119 1.4780 -85.8347
v  -184.0187 2.0384 -88.5920
v  -184.5378 4.3622 -90.2764
v  -186.3329 1.4560 -90.2730
v  -187.2319 4.1545 -91.8026
v  -196.3315 4.1545 -88.8459
v  -196.1598 1.4560 -87.0801
v  -197.6140 4.3622 -86.0276
v  -197.0439 2.0384 -84.3598
v  -197.1299 6.8979 -81.1773
v  -195.1221 6.8979 -78.4138
v  -197.6090 4.3790 -82.6519
v  -196.2607 4.2641 -79.6976
v  -193.8677 4.3790 -77.5024
v  -196.1568 1.4779 -81.5962
v  -194.4230 1.4779 -79.2098
v  -192.0687 2.0384 -77.5121
v  -189.0685 6.8979 -76.4468
v  -185.8198 6.8979 -77.5024
v  -190.6190 4.3790 -76.4468
v  -187.3927 4.2641 -76.8162
v  -184.5654 4.3790 -78.4138
v  -189.1662 1.4780 -77.5017
v  -186.3608 1.4780 -78.4132
v  -185.6617 6.8143 -91.1124
v  -183.4004 6.9875 -88.9913
v  -185.1055 9.6869 -89.4194
v  -197.7788 6.9875 -84.3195
v  -197.1962 6.8143 -87.3647
v  -196.6510 9.6869 -85.6680
v  -192.2948 7.0128 -76.8162
v  -183.4268 7.0128 -79.6976
v  -189.8438 -2.4116 -84.3598
v  -190.7405 -1.8703 -87.1196
v  -187.4961 -1.8703 -86.0655
v  -191.4758 -0.4186 -89.3827
v  -188.3359 -0.8556 -88.8699
v  -185.4605 -0.3154 -87.5444
v  -189.0282 1.3604 -91.1032
v  -192.7456 -1.8703 -84.3598
v  -195.2617 -0.3154 -84.3598
v  -193.7146 -0.8556 -87.1223
v  -194.4672 1.3604 -89.3360
v  -190.7405 -1.8703 -81.6000
v  -191.5180 -0.3154 -79.2071
v  -193.7080 -0.8414 -81.5523
v  -187.4961 -1.8703 -82.6542
v  -185.4605 -0.3154 -81.1752
v  -188.3678 -0.8414 -79.8172
v  -185.0673 -0.8414 -84.3598
v  -185.5228 8.5684 -86.3087
v  -184.8618 8.1294 -84.3598
v  -186.1417 9.8032 -84.4031
v  -187.4697 10.2844 -86.4706
v  -192.8642 9.8032 -82.2188
v  -194.4850 8.5684 -83.3967
v  -193.0051 10.2844 -84.6720
v  -193.8743 8.1294 -81.4315
v  -190.8612 10.1312 -81.2284
v  -191.5480 10.9058 -83.4647
v  -189.2584 10.8834 -82.5584
v  -188.6862 9.7608 -80.7973
v  -192.2583 8.5167 -80.2476
v  -190.3075 8.5167 -79.6137
v  -188.3042 8.1294 -79.6217
v  -187.1800 10.1312 -82.4245
v  -187.9388 10.9058 -84.6374
v  -186.6789 8.5167 -80.7927
v  -185.4732 8.5167 -82.4522
v  -184.4690 6.5027 -85.5390
v  -184.4690 6.5027 -83.1807
v  -184.3529 4.7027 -84.3598
v  -184.8024 4.7742 -82.1546
v  -184.8024 4.7742 -86.5651
v  -185.1866 2.7602 -83.3343
v  -185.8132 3.1475 -81.4315
v  -185.1866 2.7602 -85.3854
v  -185.8132 3.1475 -87.2882
v  -187.4765 2.7975 -88.5287
v  -186.2355 4.8027 -88.5231
v  -188.4197 4.8886 -89.7530
v  -195.2100 4.8027 -85.6071
v  -194.2093 2.7975 -86.3411
v  -194.1659 4.8886 -87.8859
v  -194.8257 3.1475 -84.3598
v  -193.4989 6.5027 -80.2467
v  -194.8851 6.5027 -82.1546
v  -194.2860 4.7027 -81.1324
v  -195.2185 4.7742 -83.1807
v  -192.6261 4.7742 -79.6125
v  -194.2143 2.7602 -82.4522
v  -193.0086 2.7602 -80.7927
v  -191.3833 3.1475 -79.6217
v  -187.0614 6.5027 -79.6125
v  -189.3043 6.5027 -78.8838
v  -188.1470 4.7027 -79.1377
v  -190.3832 4.7742 -78.8838
v  -186.1886 4.7742 -80.2467
v  -189.3800 2.7602 -79.6137
v  -187.4292 2.7602 -80.2476
v  -185.4463 6.6171 -87.6394
v  -187.3295 6.6444 -89.2848
v  -186.9485 8.7067 -88.0804
v  -195.3291 6.6171 -84.4283
v  -194.7727 6.6444 -86.8664
v  -194.3729 8.7067 -85.6680
v  -191.5405 6.5742 -79.1377
v  -185.4015 6.5742 -81.1324
v  -188.2154 0.4448 -85.5429
v  -190.4657 0.4448 -86.2740
v  -189.8438 0.0684 -84.3598
v  -188.8803 1.1699 -87.5465
v  -191.0729 1.6910 -88.1427
v  -186.8133 1.5161 -86.5616
v  -189.6140 2.9596 -89.3005
v  -191.8565 0.4448 -84.3598
v  -192.4962 1.1699 -86.3716
v  -193.5896 1.5161 -84.3598
v  -192.9337 2.9596 -88.2218
v  -190.4657 0.4448 -82.4456
v  -192.5075 1.1457 -82.4245
v  -191.0013 1.5161 -80.7973
v  -188.2154 0.4448 -83.1768
v  -188.8263 1.1457 -81.2284
v  -186.8133 1.5161 -82.1581
v  -186.5512 1.1457 -84.3598
v  -184.5121 9.1684 -86.7040
v  -186.6392 11.1562 -86.7672
v  -185.2708 10.6852 -84.3687
v  -193.8513 11.1562 -84.4239
v  -195.5350 9.1684 -83.1224
v  -193.5485 10.6852 -81.6791
v  -191.8473 12.0048 -82.9745
v  -189.0919 12.0002 -82.0460
v  -187.4086 12.0048 -84.4168
v  -186.9047 2.1267 -89.4009
v  -187.8258 4.5215 -90.7778
v  -185.3866 4.5825 -89.3997
v  -195.2487 4.5215 -88.3659
v  -195.1845 2.1267 -86.7106
v  -196.4120 4.5825 -85.8174
v  -186.4956 6.7294 -90.1986
v  -184.4233 6.8023 -88.3154
v  -186.0270 9.1968 -88.7499
v  -196.5540 6.8023 -84.3739
v  -195.9844 6.7294 -87.1155
v  -195.5120 9.1968 -85.6680
v  -191.2743 0.6362 -88.7627
v  -188.6081 0.1571 -88.2082
v  -189.3211 2.1600 -90.2019
v  -193.1054 0.1571 -86.7469
v  -193.7004 2.1600 -88.7789
# 178 vertices

vn 0.5043 0.8553 -0.1190
vn 0.8947 0.4466 0.0006
vn 0.6102 0.6321 -0.4775
vn -0.2022 0.8048 -0.5580
vn -0.1644 0.8048 -0.5702
vn -0.7744 0.6321 -0.0276
vn -0.4779 0.8553 0.2001
vn -0.7235 0.4466 0.5264
vn -0.3159 0.8394 -0.4422
vn -0.1847 0.8000 0.5708
vn -0.0141 0.9990 -0.0435
vn 0.2087 0.7376 0.6422
vn -0.4305 0.5166 0.7401
vn -0.0862 0.5171 0.8516
vn 0.2764 0.4473 0.8506
vn 0.4849 0.8000 0.3532
vn -0.0044 0.8394 -0.5434
vn 0.5703 0.5171 0.6383
vn 0.7833 0.5166 0.3457
vn 0.9639 0.1594 0.2133
vn 0.9642 0.1588 -0.2123
vn 0.9052 -0.1594 0.3940
vn 0.9842 -0.1772 -0.0000
vn 0.9055 -0.1601 -0.3931
vn 0.7236 -0.4473 0.5257
vn 0.8366 -0.5171 0.1812
vn 0.8366 -0.5171 -0.1812
vn 0.7240 -0.4475 -0.5249
vn 0.4920 -0.0500 -0.8692
vn 0.2554 -0.4100 -0.8756
vn -0.2972 0.2131 -0.9308
vn -0.3067 0.2131 -0.9277
vn -0.7213 -0.4100 -0.5582
vn -0.9089 -0.0500 -0.4140
vn -0.8943 -0.4475 0.0009
vn -0.9048 0.1588 0.3950
vn -0.6545 0.1594 0.7391
vn -0.9636 -0.1601 0.2142
vn -0.7962 -0.1772 0.5785
vn -0.5007 -0.1594 0.8508
vn -0.7833 -0.5171 0.3452
vn -0.5703 -0.5171 0.6383
vn -0.2764 -0.4473 0.8506
vn 0.0950 0.1594 0.9826
vn 0.5007 0.1594 0.8508
vn -0.0950 -0.1594 0.9826
vn 0.3041 -0.1772 0.9360
vn 0.6545 -0.1594 0.7391
vn 0.0862 -0.5171 0.8516
vn 0.4308 -0.5171 0.7396
vn -0.1764 0.4333 -0.8838
vn 0.6428 0.2912 -0.7085
vn -0.1317 0.6205 -0.7731
vn -0.9365 0.2912 -0.1954
vn -0.3768 0.4333 -0.8187
vn -0.3479 0.6205 -0.7028
vn -0.3041 0.1772 0.9360
vn 0.7962 0.1772 0.5785
vn -0.0000 -1.0000 0.0000
vn -0.1103 -0.9341 -0.3396
vn 0.2901 -0.9337 -0.2099
vn -0.3055 -0.1495 -0.9404
vn 0.0193 -0.7067 -0.7073
vn 0.5462 -0.7385 -0.3953
vn -0.4489 -0.0337 -0.8930
vn -0.3581 -0.9337 0.0007
vn -0.6743 -0.7385 0.0012
vn -0.4313 -0.7067 -0.5609
vn -0.1617 -0.0337 -0.9863
vn -0.1108 -0.9335 0.3409
vn -0.2084 -0.7385 0.6413
vn -0.4843 -0.8010 0.3519
vn 0.2900 -0.9335 0.2107
vn 0.5455 -0.7385 0.3963
vn 0.1850 -0.8010 0.5694
vn 0.5987 -0.8010 0.0000
vn -0.9535 -0.2806 0.1097
vn -0.8937 -0.4487 0.0014
vn -0.8413 -0.5123 -0.1722
vn -0.9589 0.0151 -0.2835
vn 0.5795 -0.5123 -0.6338
vn 0.8359 -0.2806 -0.4718
vn 0.6091 0.0151 -0.7929
vn 0.7239 -0.4487 -0.5241
vn 0.1852 -0.8036 -0.5656
vn -0.0553 -0.2401 -0.9692
vn -0.2668 -0.5043 -0.8213
vn -0.2076 -0.7406 -0.6391
vn 0.4315 -0.5179 -0.7386
vn 0.0862 -0.5169 -0.8517
vn -0.2764 -0.4471 -0.8507
vn -0.4823 -0.8036 -0.3487
vn -0.5250 -0.2401 -0.8166
vn -0.5703 -0.5169 -0.6384
vn -0.7833 -0.5179 -0.3439
vn -0.9632 -0.1607 0.2154
vn -0.9640 -0.1591 -0.2131
vn -0.9844 0.1761 0.0000
vn -0.9052 0.1591 -0.3942
vn -0.9044 0.1575 0.3965
vn -0.8366 0.5169 -0.1812
vn -0.7236 0.4471 -0.5258
vn -0.8366 0.5169 0.1812
vn -0.7226 0.4466 0.5277
vn -0.6419 0.6219 0.4486
vn -0.8260 0.3010 0.4766
vn -0.8345 0.5511 0.0010
vn 0.9484 0.3010 -0.0999
vn 0.7829 0.6219 -0.0144
vn 0.6757 0.5511 -0.4896
vn 0.8947 0.4466 0.0022
vn 0.6546 -0.1591 -0.7390
vn 0.9059 -0.1607 -0.3919
vn 0.7964 0.1761 -0.5786
vn 0.9648 0.1575 -0.2108
vn 0.5006 0.1591 -0.8509
vn 0.7834 0.5169 -0.3451
vn 0.5703 0.5169 -0.6384
vn 0.2764 0.4471 -0.8507
vn -0.5006 -0.1591 -0.8509
vn -0.0952 -0.1591 -0.9827
vn -0.3042 0.1761 -0.9362
vn 0.0952 0.1591 -0.9827
vn -0.6546 0.1591 -0.7390
vn -0.0862 0.5169 -0.8517
vn -0.4309 0.5169 -0.7397
vn -0.9531 0.0305 0.3012
vn -0.9372 0.3434 -0.0604
vn -0.9701 0.1900 -0.1512
vn 0.9481 0.0305 -0.3165
vn 0.7227 0.3434 -0.5998
vn 0.6959 0.1900 -0.6926
vn 0.3042 -0.1761 -0.9362
vn -0.7964 -0.1761 -0.5786
vn -0.2899 0.9331 0.2127
vn 0.1116 0.9325 0.3434
vn 0.0000 1.0000 0.0000
vn -0.4075 0.8657 0.2908
vn -0.1205 0.9209 -0.3707
vn -0.5437 0.7386 0.3986
vn -0.7023 0.7074 -0.0796
vn 0.3596 0.9331 0.0016
vn 0.5006 0.8657 -0.0043
vn 0.6742 0.7386 0.0029
vn 0.5214 0.7074 -0.4772
vn 0.1108 0.9335 -0.3410
vn 0.4834 0.8019 -0.3512
vn 0.2083 0.7386 -0.6411
vn -0.2901 0.9335 -0.2107
vn -0.1846 0.8019 -0.5682
vn -0.5454 0.7386 -0.3962
vn -0.5975 0.8019 -0.0000
vn -0.5694 0.5672 -0.5950
vn -0.7029 0.4962 -0.5097
vn -0.5998 0.6123 -0.5151
vn 0.2690 0.4962 -0.8255
vn 0.1109 0.5672 -0.8161
vn 0.1825 0.6123 -0.7693
vn -0.2215 0.3463 -0.9116
vn -0.2783 0.4346 -0.8566
vn -0.3566 0.3463 -0.8677
vn -0.6347 0.3529 -0.6875
vn -0.6852 0.4624 -0.5627
vn -0.5877 0.4393 -0.6794
vn 0.2236 0.4624 -0.8580
vn 0.1094 0.3529 -0.9293
vn 0.0761 0.4393 -0.8951
vn -0.6732 0.4705 -0.5705
vn -0.5328 0.5272 -0.6619
vn -0.6678 0.4897 -0.5606
vn 0.0420 0.5272 -0.8487
vn 0.2093 0.4705 -0.8572
vn 0.2107 0.4897 -0.8461
vn -0.2629 0.5257 -0.8090
vn -0.6645 0.2753 -0.6947
vn -0.6984 0.4074 -0.5884
vn 0.1293 0.2753 -0.9526
vn 0.2192 0.4074 -0.8865
# 178 vertex normals

vt 0.6623 0.9309 0.0000
vt 0.6773 0.8858 0.0000
vt 0.7137 0.9174 0.0000
vt 0.6968 0.9647 0.0000
vt 0.3236 0.6944 0.0000
vt 0.3633 0.6636 0.0000
vt 0.3665 0.7167 0.0000
vt 0.4047 0.6884 0.0000
vt 0.3939 0.7909 0.0000
vt 0.4041 0.7436 0.0000
vt 0.4387 0.7804 0.0000
vt 0.4338 0.8286 0.0000
vt 0.4763 0.8142 0.0000
vt 0.4196 0.7010 0.0000
vt 0.4549 0.7305 0.0000
vt 0.4900 0.7599 0.0000
vt 0.5187 0.7966 0.0000
vt 0.5350 0.9019 0.0000
vt 0.5354 0.8570 0.0000
vt 0.5792 0.8823 0.0000
vt 0.5822 0.9281 0.0000
vt 0.6250 0.9037 0.0000
vt 0.5389 0.8112 0.0000
vt 0.5827 0.8271 0.0000
vt 0.6216 0.8513 0.0000
vt 0.6606 0.8756 0.0000
vt 0.6712 0.8323 0.0000
vt 0.7182 0.8653 0.0000
vt 0.6774 0.7852 0.0000
vt 0.7173 0.8163 0.0000
vt 0.7593 0.8445 0.0000
vt 0.6849 0.7388 0.0000
vt 0.7264 0.7647 0.0000
vt 0.7661 0.7875 0.0000
vt 0.8002 0.8239 0.0000
vt 0.8455 0.8386 0.0000
vt 0.8122 0.8047 0.0000
vt 0.8570 0.7867 0.0000
vt 0.8914 0.8234 0.0000
vt 0.8443 0.4604 0.0000
vt 0.8204 0.5046 0.0000
vt 0.7961 0.4574 0.0000
vt 0.7725 0.4986 0.0000
vt 0.4115 0.6431 0.0000
vt 0.4574 0.6775 0.0000
vt 0.4184 0.5976 0.0000
vt 0.4582 0.6287 0.0000
vt 0.5002 0.6569 0.0000
vt 0.4252 0.5523 0.0000
vt 0.4673 0.5770 0.0000
vt 0.5045 0.6039 0.0000
vt 0.5412 0.6363 0.0000
vt 0.5477 0.7920 0.0000
vt 0.5418 0.7391 0.0000
vt 0.5887 0.7714 0.0000
vt 0.5462 0.6871 0.0000
vt 0.5878 0.7225 0.0000
vt 0.6321 0.7508 0.0000
vt 0.5578 0.6465 0.0000
vt 0.5969 0.6708 0.0000
vt 0.6340 0.6978 0.0000
vt 0.6693 0.7273 0.0000
vt 0.8041 0.8720 0.0000
vt 0.8023 0.9159 0.0000
vt 0.7599 0.8927 0.0000
vt 0.7502 0.9419 0.0000
vt 0.3783 0.5636 0.0000
vt 0.3724 0.6120 0.0000
vt 0.3372 0.5789 0.0000
vt 0.3287 0.6366 0.0000
vt 0.5012 0.7058 0.0000
vt 0.5311 0.7818 0.0000
vt 0.6307 0.7996 0.0000
vt 0.8164 0.6671 0.0000
vt 0.8585 0.6855 0.0000
vt 0.8116 0.7104 0.0000
vt 0.8970 0.7055 0.0000
vt 0.8561 0.7344 0.0000
vt 0.8126 0.7589 0.0000
vt 0.8954 0.7655 0.0000
vt 0.8117 0.6307 0.0000
vt 0.7961 0.5895 0.0000
vt 0.8477 0.6021 0.0000
vt 0.7846 0.5428 0.0000
vt 0.8330 0.5555 0.0000
vt 0.8798 0.5729 0.0000
vt 0.8630 0.5154 0.0000
vt 0.7976 0.6399 0.0000
vt 0.7549 0.6288 0.0000
vt 0.7102 0.6113 0.0000
vt 0.7486 0.5784 0.0000
vt 0.6671 0.5957 0.0000
vt 0.6998 0.5592 0.0000
vt 0.7335 0.5282 0.0000
vt 0.7987 0.6593 0.0000
vt 0.7610 0.6854 0.0000
vt 0.7232 0.7116 0.0000
vt 0.7185 0.6613 0.0000
vt 0.6746 0.6901 0.0000
vt 0.6687 0.6446 0.0000
vt 0.7687 0.7336 0.0000
vt 0.3835 0.3148 0.0000
vt 0.4005 0.2740 0.0000
vt 0.4320 0.3052 0.0000
vt 0.4192 0.3562 0.0000
vt 0.5981 0.3184 0.0000
vt 0.6445 0.3356 0.0000
vt 0.6027 0.3708 0.0000
vt 0.6342 0.2926 0.0000
vt 0.5577 0.2936 0.0000
vt 0.5625 0.3452 0.0000
vt 0.5147 0.3161 0.0000
vt 0.5187 0.2669 0.0000
vt 0.5995 0.2673 0.0000
vt 0.5630 0.2445 0.0000
vt 0.5217 0.2230 0.0000
vt 0.4759 0.2871 0.0000
vt 0.4630 0.3372 0.0000
vt 0.4785 0.2377 0.0000
vt 0.4380 0.2522 0.0000
vt 0.3480 0.2282 0.0000
vt 0.3989 0.2165 0.0000
vt 0.3789 0.2581 0.0000
vt 0.3653 0.1863 0.0000
vt 0.4106 0.1724 0.0000
vt 0.3191 0.1965 0.0000
vt 0.3748 0.1378 0.0000
vt 0.4198 0.1304 0.0000
vt 0.3331 0.1488 0.0000
vt 0.2925 0.1627 0.0000
vt 0.2398 0.3031 0.0000
vt 0.2718 0.2726 0.0000
vt 0.2883 0.3137 0.0000
vt 0.2559 0.3554 0.0000
vt 0.7387 0.3497 0.0000
vt 0.7882 0.3469 0.0000
vt 0.7640 0.3959 0.0000
vt 0.7615 0.3116 0.0000
vt 0.6370 0.1518 0.0000
vt 0.6879 0.1402 0.0000
vt 0.6658 0.1838 0.0000
vt 0.6544 0.1100 0.0000
vt 0.6996 0.0961 0.0000
vt 0.6051 0.1192 0.0000
vt 0.6639 0.0615 0.0000
vt 0.7060 0.0535 0.0000
vt 0.6222 0.0725 0.0000
vt 0.5816 0.0864 0.0000
vt 0.4925 0.1900 0.0000
vt 0.5441 0.1776 0.0000
vt 0.5098 0.1481 0.0000
vt 0.5551 0.1342 0.0000
vt 0.4612 0.1576 0.0000
vt 0.5193 0.0997 0.0000
vt 0.5643 0.0923 0.0000
vt 0.4776 0.1107 0.0000
vt 0.4370 0.1245 0.0000
vt 0.3148 0.2701 0.0000
vt 0.7555 0.8809 0.0000
vt 0.7849 0.8554 0.0000
vt 0.7878 0.8907 0.0000
vt 0.3338 0.3129 0.0000
vt 0.3576 0.2704 0.0000
vt 0.3642 0.3586 0.0000
vt 0.7194 0.3024 0.0000
vt 0.6939 0.3417 0.0000
vt 0.6771 0.2959 0.0000
vt 0.7137 0.3904 0.0000
vt 0.6566 0.3820 0.0000
vt 0.5908 0.1621 0.0000
vt 0.5813 0.2106 0.0000
vt 0.5392 0.2186 0.0000
vt 0.6230 0.1996 0.0000
vt 0.4463 0.2002 0.0000
vt 0.3946 0.2567 0.0000
vt 0.1949 0.2346 0.0000
vt 0.1538 0.2627 0.0000
vt 0.1516 0.2198 0.0000
vt 0.1951 0.2815 0.0000
vt 0.1563 0.3115 0.0000
vt 0.2344 0.2508 0.0000
vt 0.2046 0.3356 0.0000
vt 0.1100 0.2390 0.0000
vt 0.1147 0.2857 0.0000
vt 0.0730 0.2605 0.0000
vt 0.0724 0.3118 0.0000
vt 0.0374 0.2847 0.0000
vt 0.1108 0.3405 0.0000
vt 0.0901 0.1859 0.0000
vt 0.1343 0.1579 0.0000
vt 0.1366 0.2008 0.0000
vt 0.0923 0.1407 0.0000
vt 0.1320 0.1151 0.0000
vt 0.0506 0.1630 0.0000
vt 0.0884 0.0915 0.0000
vt 0.1297 0.0722 0.0000
vt 0.0512 0.1133 0.0000
vt 0.0158 0.1376 0.0000
vt 0.1814 0.1821 0.0000
vt 0.1743 0.1363 0.0000
vt 0.2181 0.1540 0.0000
vt 0.2122 0.1047 0.0000
vt 0.2518 0.1274 0.0000
vt 0.1729 0.0869 0.0000
vt 0.2251 0.2008 0.0000
vt 0.2728 0.2135 0.0000
vt 0.2779 0.2561 0.0000
vt 0.2647 0.1712 0.0000
vt 0.7297 0.9282 0.0000
vt 0.7150 0.9711 0.0000
vt 0.3991 0.3728 0.0000
vt 0.3599 0.3258 0.0000
vt 0.6832 0.9784 0.0000
vt 0.6524 0.9475 0.0000
vt 0.4580 0.3047 0.0000
vt 0.4445 0.3620 0.0000
vt 0.3119 0.6791 0.0000
vt 0.3481 0.6518 0.0000
vt 0.6661 0.3502 0.0000
vt 0.6199 0.3904 0.0000
vt 0.3538 0.7312 0.0000
vt 0.3149 0.7116 0.0000
vt 0.5768 0.3726 0.0000
vt 0.5725 0.3138 0.0000
vt 0.4382 0.9093 0.0000
vt 0.4827 0.9004 0.0000
vt 0.4844 0.9196 0.0000
vt 0.4460 0.9269 0.0000
vt 0.6091 0.3926 0.0000
vt 0.5566 0.3979 0.0000
vt 0.5564 0.3719 0.0000
vt 0.6008 0.3680 0.0000
vt 0.5296 0.9204 0.0000
vt 0.4957 0.3921 0.0000
vt 0.5048 0.3677 0.0000
vt 0.5684 0.9437 0.0000
vt 0.4458 0.3567 0.0000
vt 0.6130 0.9595 0.0000
vt 0.5970 0.9703 0.0000
vt 0.4096 0.3183 0.0000
vt 0.8739 0.7774 0.0000
vt 0.9053 0.8101 0.0000
vt 0.2309 0.3625 0.0000
vt 0.2138 0.3037 0.0000
vt 0.8973 0.8417 0.0000
vt 0.8557 0.8550 0.0000
vt 0.3122 0.3239 0.0000
vt 0.2768 0.3709 0.0000
vt 0.8612 0.4697 0.0000
vt 0.8391 0.5093 0.0000
vt 0.8780 0.4790 0.0000
vt 0.8578 0.5140 0.0000
vt 0.8018 0.4389 0.0000
vt 0.8453 0.4411 0.0000
vt 0.7409 0.4079 0.0000
vt 0.7134 0.3559 0.0000
vt 0.8227 0.8769 0.0000
vt 0.8216 0.9164 0.0000
vt 0.3214 0.2712 0.0000
vt 0.2958 0.2666 0.0000
vt 0.7930 0.9327 0.0000
vt 0.7550 0.9114 0.0000
vt 0.3091 0.3211 0.0000
vt 0.3050 0.2624 0.0000
vt 0.3310 0.2605 0.0000
vt 0.7774 0.9009 0.0000
vt 0.7691 0.9455 0.0000
vt 0.3423 0.3727 0.0000
vt 0.7393 0.9578 0.0000
vt 0.7067 0.9354 0.0000
vt 0.4091 0.3193 0.0000
vt 0.3883 0.3686 0.0000
vt 0.3562 0.6225 0.0000
vt 0.3241 0.5931 0.0000
vt 0.6894 0.3997 0.0000
vt 0.6680 0.3448 0.0000
vt 0.3306 0.5608 0.0000
vt 0.3679 0.5474 0.0000
vt 0.7635 0.3576 0.0000
vt 0.7361 0.4036 0.0000
vt 0.3485 0.6759 0.0000
vt 0.3170 0.6519 0.0000
vt 0.6313 0.3880 0.0000
vt 0.6185 0.3361 0.0000
vt 0.3194 0.6197 0.0000
vt 0.3592 0.5980 0.0000
vt 0.7170 0.3537 0.0000
vt 0.6761 0.3993 0.0000
vt 0.9061 0.7225 0.0000
vt 0.8707 0.7470 0.0000
vt 0.2157 0.2973 0.0000
vt 0.1703 0.3335 0.0000
vt 0.8714 0.7225 0.0000
vt 0.9073 0.7502 0.0000
vt 0.1789 0.3396 0.0000
vt 0.1691 0.2791 0.0000
vt 0.9046 0.7824 0.0000
vt 0.8697 0.8012 0.0000
vt 0.2615 0.3176 0.0000
vt 0.2226 0.3544 0.0000
vt 0.9435 0.6874 0.0000
vt 0.9460 0.7065 0.0000
vt 0.1181 0.3591 0.0000
vt 0.1127 0.3337 0.0000
vt 0.8290 0.4874 0.0000
vt 0.8676 0.4966 0.0000
vt 0.0948 0.3610 0.0000
vt 0.0524 0.3284 0.0000
vt 0.8783 0.5271 0.0000
vt 0.8507 0.5630 0.0000
vt 0.1402 0.2806 0.0000
vt 0.1368 0.3418 0.0000
# 312 texture coords

o Bitten_Gumball
g Bitten_Gumball
usemtl wire_006135113
s 1
f 1/1/1 2/2/2 3/3/3 
f 1/1/1 3/3/3 4/4/4 
f 5/5/5 6/6/6 7/7/7 
f 7/7/7 6/6/6 8/8/8 
f 9/9/9 7/10/7 10/11/10 
f 9/9/9 10/11/10 11/12/11 
f 11/12/11 10/11/10 12/13/12 
f 7/10/7 8/14/8 13/15/13 
f 7/10/7 13/15/13 10/11/10 
f 10/11/10 13/15/13 14/16/14 
f 10/11/10 14/16/14 12/13/12 
f 12/13/12 14/16/14 15/17/15 
f 11/18/11 12/19/12 16/20/16 
f 11/18/11 16/20/16 17/21/17 
f 17/21/17 16/20/16 1/22/1 
f 12/19/12 15/23/15 18/24/18 
f 12/19/12 18/24/18 16/20/16 
f 16/20/16 18/24/18 19/25/19 
f 16/20/16 19/25/19 1/22/1 
f 1/22/1 19/25/19 2/26/2 
f 2/2/2 20/27/20 21/28/21 
f 20/27/20 22/29/22 23/30/23 
f 20/27/20 23/30/23 21/28/21 
f 21/28/21 23/30/23 24/31/24 
f 22/29/22 25/32/25 26/33/26 
f 22/29/22 26/33/26 23/30/23 
f 23/30/23 26/33/26 27/34/27 
f 23/30/23 27/34/27 24/31/24 
f 24/31/24 27/34/27 28/35/28 
f 29/36/29 28/37/28 30/38/30 
f 29/36/29 30/38/30 31/39/31 
f 32/40/32 33/41/33 34/42/34 
f 34/42/34 33/41/33 35/43/35 
f 8/8/8 36/44/36 37/45/37 
f 36/44/36 38/46/38 39/47/39 
f 36/44/36 39/47/39 37/45/37 
f 37/45/37 39/47/39 40/48/40 
f 38/46/38 35/49/35 41/50/41 
f 38/46/38 41/50/41 39/47/39 
f 39/47/39 41/50/41 42/51/42 
f 39/47/39 42/51/42 40/48/40 
f 40/48/40 42/51/42 43/52/43 
f 15/53/15 44/54/44 45/55/45 
f 44/54/44 46/56/46 47/57/47 
f 44/54/44 47/57/47 45/55/45 
f 45/55/45 47/57/47 48/58/48 
f 46/56/46 43/59/43 49/60/49 
f 46/56/46 49/60/49 47/57/47 
f 47/57/47 49/60/49 50/61/50 
f 47/57/47 50/61/50 48/58/48 
f 48/58/48 50/61/50 25/62/25 
f 28/35/28 29/63/29 24/31/24 
f 29/63/29 51/64/51 52/65/52 
f 29/63/29 52/65/52 24/31/24 
f 24/31/24 52/65/52 21/28/21 
f 52/65/52 53/66/53 3/3/3 
f 52/65/52 3/3/3 21/28/21 
f 21/28/21 3/3/3 2/2/2 
f 35/49/35 38/46/38 34/67/34 
f 38/46/38 36/44/36 54/68/54 
f 38/46/38 54/68/54 34/67/34 
f 34/67/34 54/68/54 55/69/55 
f 36/44/36 8/8/8 6/6/6 
f 36/44/36 6/6/6 54/68/54 
f 54/68/54 6/6/6 56/70/56 
f 43/52/43 46/56/46 40/48/40 
f 46/56/46 44/54/44 57/71/57 
f 46/56/46 57/71/57 40/48/40 
f 40/48/40 57/71/57 37/45/37 
f 44/54/44 15/72/15 14/16/14 
f 44/54/44 14/16/14 57/71/57 
f 57/71/57 14/16/14 13/15/13 
f 57/71/57 13/15/13 37/45/37 
f 37/45/37 13/15/13 8/14/8 
f 25/32/25 22/29/22 48/58/48 
f 22/29/22 20/27/20 58/73/58 
f 22/29/22 58/73/58 48/58/48 
f 48/58/48 58/73/58 45/55/45 
f 20/27/20 2/26/2 19/25/19 
f 20/27/20 19/25/19 58/73/58 
f 58/73/58 19/25/19 18/24/18 
f 58/73/58 18/24/18 45/55/45 
f 45/55/45 18/24/18 15/53/15 
f 59/74/59 60/75/60 61/76/61 
f 60/75/60 62/77/62 63/78/63 
f 60/75/60 63/78/63 61/76/61 
f 61/76/61 63/78/63 64/79/64 
f 63/78/63 65/80/65 30/38/30 
f 63/78/63 30/38/30 64/79/64 
f 64/79/64 30/38/30 28/37/28 
f 59/81/59 66/82/66 60/83/60 
f 66/82/66 67/84/67 68/85/68 
f 66/82/66 68/85/68 60/83/60 
f 60/83/60 68/85/68 62/86/62 
f 67/84/67 35/43/35 33/41/33 
f 67/84/67 33/41/33 68/85/68 
f 68/85/68 33/41/33 69/87/69 
f 59/88/59 70/89/70 66/82/66 
f 70/89/70 71/90/71 72/91/72 
f 70/89/70 72/91/72 66/82/66 
f 66/82/66 72/91/72 67/84/67 
f 71/90/71 43/92/43 42/93/42 
f 71/90/71 42/93/42 72/91/72 
f 72/91/72 42/93/42 41/94/41 
f 72/91/72 41/94/41 67/84/67 
f 67/84/67 41/94/41 35/43/35 
f 59/95/59 73/96/73 70/89/70 
f 73/96/73 74/97/74 75/98/75 
f 73/96/73 75/98/75 70/89/70 
f 70/89/70 75/98/75 71/90/71 
f 74/97/74 25/32/25 50/99/50 
f 74/97/74 50/99/50 75/98/75 
f 75/98/75 50/99/50 49/100/49 
f 75/98/75 49/100/49 71/90/71 
f 71/90/71 49/100/49 43/92/43 
f 59/95/59 61/76/61 73/96/73 
f 61/76/61 64/79/64 76/101/76 
f 61/76/61 76/101/76 73/96/73 
f 73/96/73 76/101/76 74/97/74 
f 64/79/64 28/37/28 27/34/27 
f 64/79/64 27/34/27 76/101/76 
f 76/101/76 27/34/27 26/33/26 
f 76/101/76 26/33/26 74/97/74 
f 74/97/74 26/33/26 25/32/25 
f 77/102/77 78/103/78 79/104/79 
f 80/105/80 77/102/77 79/104/79 
f 81/106/81 82/107/82 83/108/83 
f 84/109/84 82/107/82 81/106/81 
f 85/110/85 81/106/81 86/111/86 
f 87/112/87 85/110/85 86/111/86 
f 88/113/88 85/110/85 87/112/87 
f 89/114/89 84/109/84 81/106/81 
f 85/110/85 89/114/89 81/106/81 
f 90/115/90 89/114/89 85/110/85 
f 88/113/88 90/115/90 85/110/85 
f 91/116/91 90/115/90 88/113/88 
f 92/117/92 88/113/88 87/112/87 
f 93/118/93 92/117/92 87/112/87 
f 79/104/79 92/117/92 93/118/93 
f 94/119/94 91/116/91 88/113/88 
f 92/117/92 94/119/94 88/113/88 
f 95/120/95 94/119/94 92/117/92 
f 79/104/79 95/120/95 92/117/92 
f 78/103/78 95/120/95 79/104/79 
f 96/121/96 97/122/97 78/123/78 
f 98/124/98 99/125/99 97/122/97 
f 96/121/96 98/124/98 97/122/97 
f 100/126/100 98/124/98 96/121/96 
f 101/127/101 102/128/102 99/125/99 
f 98/124/98 101/127/101 99/125/99 
f 103/129/103 101/127/101 98/124/98 
f 100/126/100 103/129/103 98/124/98 
f 104/130/104 103/129/103 100/126/100 
f 105/131/105 104/132/104 106/133/106 
f 107/134/107 105/131/105 106/133/106 
f 108/135/108 109/136/109 110/137/110 
f 111/138/111 109/136/109 108/135/108 
f 112/139/112 113/140/113 84/141/84 
f 114/142/114 115/143/115 113/140/113 
f 112/139/112 114/142/114 113/140/113 
f 116/144/116 114/142/114 112/139/112 
f 117/145/117 111/146/111 115/143/115 
f 114/142/114 117/145/117 115/143/115 
f 118/147/118 117/145/117 114/142/114 
f 116/144/116 118/147/118 114/142/114 
f 119/148/119 118/147/118 116/144/116 
f 120/149/120 121/150/121 91/116/91 
f 122/151/122 123/152/123 121/150/121 
f 120/149/120 122/151/122 121/150/121 
f 124/153/124 122/151/122 120/149/120 
f 125/154/125 119/155/119 123/152/123 
f 122/151/122 125/154/125 123/152/123 
f 126/156/126 125/154/125 122/151/122 
f 124/153/124 126/156/126 122/151/122 
f 102/157/102 126/156/126 124/153/124 
f 100/158/100 106/133/106 104/132/104 
f 127/159/127 128/160/128 106/161/106 
f 100/158/100 127/162/127 106/133/106 
f 96/163/96 127/162/127 100/158/100 
f 77/102/77 129/164/129 127/162/127 
f 96/163/96 77/102/77 127/162/127 
f 78/103/78 77/102/77 96/163/96 
f 108/135/108 115/165/115 111/138/111 
f 130/166/130 113/167/113 115/165/115 
f 108/135/108 130/166/130 115/165/115 
f 131/168/131 130/166/130 108/135/108 
f 82/107/82 84/109/84 113/167/113 
f 130/166/130 82/107/82 113/167/113 
f 132/169/132 82/107/82 130/166/130 
f 116/144/116 123/152/123 119/155/119 
f 133/170/133 121/150/121 123/152/123 
f 116/144/116 133/170/133 123/152/123 
f 112/139/112 133/170/133 116/144/116 
f 90/171/90 91/172/91 121/150/121 
f 133/170/133 90/171/90 121/150/121 
f 89/173/89 90/171/90 133/170/133 
f 112/139/112 89/173/89 133/170/133 
f 84/141/84 89/173/89 112/139/112 
f 124/153/124 99/125/99 102/128/102 
f 134/174/134 97/122/97 99/125/99 
f 124/153/124 134/174/134 99/125/99 
f 120/149/120 134/174/134 124/153/124 
f 95/120/95 78/175/78 97/122/97 
f 134/174/134 95/120/95 97/122/97 
f 94/119/94 95/120/95 134/174/134 
f 120/149/120 94/119/94 134/174/134 
f 91/116/91 94/119/94 120/149/120 
f 135/176/135 136/177/136 137/178/137 
f 138/179/138 139/180/139 136/177/136 
f 135/176/135 138/179/138 136/177/136 
f 140/181/140 138/179/138 135/176/135 
f 105/131/105 141/182/141 138/179/138 
f 140/181/140 105/131/105 138/179/138 
f 104/132/104 105/131/105 140/181/140 
f 136/177/136 142/183/142 137/178/137 
f 143/184/143 144/185/144 142/183/142 
f 136/177/136 143/184/143 142/183/142 
f 139/180/139 143/184/143 136/177/136 
f 109/186/109 111/187/111 144/185/144 
f 143/184/143 109/186/109 144/185/144 
f 145/188/145 109/186/109 143/184/143 
f 142/189/142 146/190/146 137/191/137 
f 147/192/147 148/193/148 146/190/146 
f 142/189/142 147/192/147 146/190/146 
f 144/194/144 147/192/147 142/189/142 
f 118/195/118 119/196/119 148/193/148 
f 147/192/147 118/195/118 148/193/148 
f 117/197/117 118/195/118 147/192/147 
f 144/194/144 117/197/117 147/192/147 
f 111/198/111 117/197/117 144/194/144 
f 146/190/146 149/199/149 137/191/137 
f 150/200/150 151/201/151 149/199/149 
f 146/190/146 150/200/150 149/199/149 
f 148/193/148 150/200/150 146/190/146 
f 126/202/126 102/203/102 151/201/151 
f 150/200/150 126/202/126 151/201/151 
f 125/204/125 126/202/126 150/200/150 
f 148/193/148 125/204/125 150/200/150 
f 119/196/119 125/204/125 148/193/148 
f 149/199/149 135/176/135 137/178/137 
f 152/205/152 140/181/140 135/176/135 
f 149/199/149 152/205/152 135/176/135 
f 151/201/151 152/205/152 149/199/149 
f 103/206/103 104/207/104 140/181/140 
f 152/205/152 103/206/103 140/181/140 
f 101/208/101 103/206/103 152/205/152 
f 151/201/151 101/208/101 152/205/152 
f 102/203/102 101/208/101 151/201/151 
s 2
f 4/4/4 3/3/3 153/209/153 154/210/154 
f 154/211/154 153/212/153 77/102/77 80/105/80 
s 4
f 1/1/1 4/4/4 154/213/154 155/214/155 
f 155/215/155 154/216/154 80/105/80 79/104/79 
s 2
f 6/6/6 5/5/5 156/217/156 157/218/157 
f 157/219/157 156/220/156 83/108/83 82/107/82 
s 4
f 5/5/5 7/7/7 158/221/158 156/222/156 
f 156/223/156 158/224/158 81/106/81 83/108/83 
s 2
f 7/225/7 9/226/9 159/227/159 158/228/158 
f 158/229/158 159/230/159 86/231/86 81/232/81 
s 4
f 9/226/9 11/18/11 160/233/160 159/227/159 
f 159/230/159 160/234/160 87/235/87 86/231/86 
s 2
f 11/18/11 17/21/17 161/236/161 160/233/160 
f 160/234/160 161/237/161 93/118/93 87/235/87 
s 8
f 17/21/17 1/238/1 155/239/155 161/236/161 
f 161/237/161 155/240/155 79/104/79 93/118/93 
s 2
f 31/39/31 30/38/30 162/241/162 163/242/163 
f 163/243/163 162/244/162 105/131/105 107/134/107 
s 4
f 29/36/29 31/39/31 163/245/163 164/246/164 
f 164/247/164 163/248/163 107/134/107 106/133/106 
s 2
f 33/41/33 32/40/32 165/249/165 166/250/166 
f 166/250/166 165/249/165 110/251/110 109/252/109 
s 4
f 32/40/32 34/42/34 167/253/167 165/254/165 
f 165/255/165 167/256/167 108/135/108 110/137/110 
s 2
f 51/64/51 29/63/29 164/257/164 168/258/168 
f 168/259/168 164/247/164 106/133/106 128/260/128 
s 4
f 52/65/52 51/64/51 168/261/168 169/262/169 
f 169/263/169 168/264/168 128/265/128 127/162/127 
s 2
f 53/66/53 52/65/52 169/266/169 170/267/170 
f 170/268/170 169/263/169 127/162/127 129/164/129 
s 4
f 3/3/3 53/66/53 170/269/170 153/270/153 
f 153/271/153 170/272/170 129/164/129 77/102/77 
s 2
f 55/69/55 54/68/54 171/273/171 172/274/172 
f 172/275/172 171/276/171 130/166/130 131/168/131 
s 8
f 34/67/34 55/69/55 172/277/172 167/278/167 
f 167/279/167 172/280/172 131/168/131 108/135/108 
s 4
f 56/70/56 6/6/6 157/281/157 173/282/173 
f 173/283/173 157/284/157 82/107/82 132/169/132 
s 8
f 54/68/54 56/70/56 173/285/173 171/286/171 
f 171/287/171 173/288/173 132/169/132 130/166/130 
s 2
f 63/78/63 62/77/62 174/289/174 175/290/175 
f 175/291/175 174/292/174 139/180/139 138/179/138 
s 4
f 65/80/65 63/78/63 175/293/175 176/294/176 
f 176/295/176 175/296/175 138/179/138 141/182/141 
s 8
f 30/38/30 65/80/65 176/297/176 162/298/162 
f 162/299/162 176/300/176 141/182/141 105/131/105 
s 4
f 62/77/62 68/301/68 177/302/177 174/289/174 
f 174/292/174 177/303/177 143/304/143 139/180/139 
f 69/87/69 33/41/33 166/305/166 178/306/178 
f 178/307/178 166/308/166 109/186/109 145/188/145 
s 2
f 68/85/68 69/87/69 178/309/178 177/310/177 
f 177/311/177 178/312/178 145/188/145 143/184/143 
# 52 polygons - 248 triangles

