# 3ds Max Wavefront OBJ Exporter v0.99 - (c)2007 guruware
# File Created: 19.09.2026 03:13:04

mtllib Black Licorice Vine.mtl

#
# object Black_Licorice_Vine
#

v  44.8436 0.0062 47.8984
v  47.0598 0.0062 46.9294
v  47.2231 0.0062 47.4320
v  45.0940 0.0062 45.5012
v  45.9774 0.0062 45.8202
v  44.5656 0.0062 45.5012
v  43.6671 0.0062 45.8611
v  42.3970 0.0062 47.5266
v  42.5603 0.0062 47.0241
v  42.6463 0.0062 49.0027
v  42.4433 0.0062 48.4333
v  43.6149 0.0062 50.0535
v  43.1874 0.0062 49.7429
v  45.1429 0.0062 50.3097
v  44.5187 0.0062 50.3097
v  46.4722 0.0062 49.7429
v  46.0447 0.0062 50.0535
v  47.1911 0.0062 48.3681
v  46.9982 0.0062 48.9618
v  13.7581 52.6681 45.6633
v  13.7575 52.6684 45.6636
v  13.7566 52.6694 45.6603
v  13.7564 52.6693 45.6637
v  13.7557 52.6699 45.6636
v  13.7548 52.6708 45.6630
v  13.7545 52.6712 45.6624
v  13.7541 52.6717 45.6611
v  13.7541 52.6718 45.6601
v  13.7544 52.6718 45.6587
v  13.7547 52.6716 45.6580
v  13.7555 52.6710 45.6571
v  13.7562 52.6705 45.6567
v  13.7573 52.6697 45.6565
v  13.7578 52.6692 45.6567
v  13.7587 52.6683 45.6574
v  13.7592 52.6679 45.6580
v  13.7596 52.6673 45.6593
v  13.7596 52.6672 45.6601
v  13.7593 52.6673 45.6614
v  13.7589 52.6675 45.6622
v  47.2599 0.0095 46.9269
v  47.3864 0.0095 47.3164
v  13.7581 52.6680 45.6635
v  13.7577 52.6683 45.6638
v  44.6250 0.0095 45.3101
v  45.0346 0.0095 45.3101
v  13.7546 52.6710 45.6631
v  13.7543 52.6713 45.6627
v  42.2337 0.0095 47.4110
v  42.3602 0.0095 47.0215
v  13.7543 52.6719 45.6585
v  13.7545 52.6718 45.6579
v  43.4545 0.0095 50.1731
v  43.1232 0.0095 49.9324
v  13.7574 52.6696 45.6563
v  13.7578 52.6692 45.6564
v  46.5364 0.0095 49.9324
v  46.2051 0.0095 50.1731
v  13.7598 52.6672 45.6593
v  13.7598 52.6671 45.6599
v  42.3884 0.0062 48.9798
v  42.2580 0.0062 48.6143
v  13.7556 52.6711 45.6567
v  13.7560 52.6708 45.6565
v  45.0312 0.0062 50.5450
v  44.6304 0.0062 50.5450
v  13.7590 52.6681 45.6573
v  13.7593 52.6678 45.6577
v  47.3803 0.0062 48.5471
v  47.2565 0.0062 48.9282
v  13.7595 52.6671 45.6618
v  13.7592 52.6673 45.6622
v  43.1519 0.0062 46.2523
v  43.1019 0.0062 45.9949
v  43.4326 0.0062 45.7438
v  13.7538 52.6719 45.6609
v  13.7538 52.6720 45.6603
v  46.4824 0.0062 46.1871
v  46.2061 0.0062 45.6955
v  46.5303 0.0062 45.9311
v  13.7563 52.6695 45.6641
v  13.7558 52.6698 45.6640
v  45.0374 12.9633 46.8658
v  44.9786 12.9189 47.1953
v  43.7565 13.0755 44.6655
v  44.0526 13.0895 44.8271
v  41.2170 12.7302 45.2292
v  41.4588 12.7833 44.9996
v  41.0336 12.4261 47.6933
v  40.8870 12.4449 47.3898
v  43.3546 12.5620 48.7372
v  43.0221 12.5205 48.7791
v  44.8921 12.9535 46.7883
v  19.4260 54.2548 50.6486
v  19.4362 54.2072 50.7023
v  16.3140 52.1514 49.3151
v  16.3159 52.1757 49.2719
v  43.6401 13.0468 44.7788
v  18.7208 54.9040 51.0541
v  18.6785 54.9234 51.1096
v  15.9953 52.8310 49.4654
v  16.0165 52.8011 49.4320
v  41.2908 12.7186 45.3763
v  18.5240 55.6496 50.3116
v  18.4882 55.7097 50.2926
v  16.0136 53.2449 48.7973
v  16.0244 53.2021 48.8198
v  41.1960 12.4439 47.6704
v  19.0933 55.4432 49.5028
v  19.1141 55.4614 49.4359
v  16.3325 52.8215 48.2738
v  16.3176 52.8248 48.3209
v  43.3816 12.5808 48.5755
v  19.6563 54.5881 49.6899
v  19.7055 54.5397 49.6679
v  16.5224 52.1457 48.5787
v  16.5020 52.1903 48.5852
v  16.1599 53.1236 48.4509
v  18.7374 55.7286 49.7714
v  18.8221 55.6871 49.6673
v  16.2018 53.0631 48.3891
v  16.4725 52.4465 48.3189
v  19.4861 55.0068 49.3904
v  19.5578 54.8872 49.4307
v  16.4942 52.3615 48.3651
v  16.4607 52.0343 48.9615
v  19.6836 54.2343 50.1722
v  19.6416 54.2000 50.3069
v  16.4311 52.0422 49.0558
v  15.9499 53.1320 49.1895
v  18.4645 55.3982 50.8096
v  18.4477 55.4952 50.6959
v  15.9559 53.1797 49.0986
v  16.1356 52.4577 49.5074
v  19.0498 54.4722 51.0603
v  18.9522 54.5706 51.1034
v  16.0956 52.5477 49.5195
v  41.0069 12.4681 47.2788
v  40.9013 12.5423 46.5340
v  18.5793 55.6948 50.1341
v  18.7400 55.6746 49.8481
v  16.1524 53.1004 48.5102
v  16.0635 53.1916 48.6954
v  42.9527 12.5273 48.6296
v  42.2018 12.4642 48.4575
v  19.2219 55.3134 49.4461
v  19.4266 55.0418 49.4547
v  16.4437 52.4912 48.3553
v  16.3703 52.7061 48.3049
v  44.8162 12.8961 47.2135
v  44.4318 12.7777 47.8726
v  19.6804 54.4626 49.8324
v  19.6431 54.3111 50.1356
v  16.4496 52.0859 48.9245
v  16.4955 52.1274 48.6998
v  41.6027 12.7872 45.0801
v  42.3282 12.9042 44.7598
v  18.6263 55.0617 51.0011
v  18.5262 55.3274 50.7956
v  15.9735 53.0716 49.1918
v  15.9878 52.9132 49.3711
v  44.0221 13.0649 44.9874
v  44.5377 13.0553 45.5650
v  19.3123 54.3071 50.7934
v  19.0843 54.4847 50.9735
v  16.1571 52.4447 49.4480
v  16.2591 52.2554 49.3587
v  40.7237 12.5363 46.4158
v  42.0302 12.4309 48.5822
v  44.4995 12.7618 48.0758
v  42.3914 12.9347 44.5553
v  44.7511 13.0787 45.5659
v  25.9132 62.7717 55.3352
v  26.0088 62.6341 55.2341
v  35.9067 61.3796 58.7258
v  36.0127 61.5636 58.6956
v  25.5252 64.1912 55.2117
v  25.5235 64.0265 55.3172
v  36.7404 62.3447 57.7274
v  36.8097 62.3488 57.5243
v  26.0532 64.6861 53.8743
v  25.9566 64.7218 54.0406
v  36.8208 61.5681 56.2584
v  36.7576 61.3865 56.1631
v  26.7295 63.5807 53.2402
v  26.6715 63.7675 53.2375
v  36.0593 60.1941 56.3934
v  35.9510 60.0778 56.5376
v  26.6576 62.3943 54.1168
v  26.7183 62.4741 53.9488
v  35.4858 60.0504 57.9014
v  35.4820 60.1601 58.0857
v  25.9150 62.8517 55.2830
v  36.0468 61.5640 58.5964
v  44.3023 47.3124 53.9232
v  44.4139 47.3216 53.9623
v  35.9101 61.3265 58.6354
v  25.5729 64.1728 55.1310
v  36.7790 62.2593 57.4792
v  44.4992 47.3496 52.2318
v  44.5706 47.3576 52.1374
v  36.6897 62.2540 57.7412
v  26.0814 64.5948 53.8769
v  36.7057 61.3302 56.2347
v  42.8963 47.2424 51.5333
v  42.8286 47.2404 51.4359
v  36.7873 61.5645 56.3577
v  26.6997 63.5429 53.3228
v  35.9507 60.1320 56.6274
v  41.8043 47.1463 52.7712
v  41.6910 47.1391 52.8054
v  36.0905 60.2820 56.4414
v  26.6114 62.4624 54.1655
v  35.5349 60.2493 58.0700
v  42.6368 47.1868 54.2566
v  42.6342 47.1866 54.3752
v  35.5397 60.1077 57.8321
v  42.0276 47.1738 51.9346
v  41.8967 47.1617 52.1232
v  36.3914 60.6482 56.1090
v  36.4929 60.8210 56.0749
v  41.9144 47.1412 53.7433
v  42.0521 47.1486 53.9367
v  35.6043 59.8871 57.2885
v  35.6721 59.8911 57.0898
v  43.5943 47.2538 54.4541
v  43.8201 47.2712 54.3827
v  35.6412 60.8015 58.6202
v  35.5793 60.6238 58.5269
v  43.8117 47.3093 51.5137
v  43.5772 47.2932 51.4405
v  36.9193 62.0421 56.7122
v  36.9179 62.1567 56.8971
v  44.7860 47.3591 53.0726
v  44.7879 47.3624 52.8352
v  36.4593 62.1517 58.2763
v  36.3533 62.0379 58.4173
v  26.6248 63.7840 53.3194
v  26.4445 64.1663 53.4341
v  36.3428 60.6348 56.2350
v  42.5985 47.2195 51.6274
v  42.1783 47.1844 51.9617
v  36.5009 60.9041 56.1819
v  26.6898 62.5653 53.9487
v  26.7567 62.8712 53.6284
v  35.6366 59.9964 57.3636
v  41.8018 47.1419 53.0843
v  41.9892 47.1484 53.6085
v  35.7421 60.0027 57.0541
v  26.0383 62.6743 55.1525
v  26.2694 62.4790 54.8228
v  35.7120 60.8874 58.5413
v  42.9330 47.2070 54.3560
v  43.4894 47.2477 54.3410
v  35.6157 60.6106 58.3961
v  25.9567 64.6409 54.0915
v  25.7640 64.5745 54.5089
v  36.8549 61.9208 56.7155
v  44.3176 47.3398 51.9769
v  43.8358 47.3089 51.6672
v  36.8528 62.0993 57.0036
v  25.5708 63.9602 55.2671
v  25.6458 63.5338 55.3851
v  36.4709 62.0955 58.1525
v  44.4879 47.3293 53.6715
v  44.6465 47.3481 53.1376
v  36.3058 61.9182 58.3722
v  26.4399 64.2751 53.3756
v  26.8152 62.8638 53.5188
v  26.3128 62.3630 54.8101
v  25.7007 64.6518 54.5844
v  25.6142 63.4695 55.4868
v  44.5578 47.3347 53.7672
v  47.4673 31.6693 48.8063
v  47.6289 31.7623 48.5862
v  44.4298 47.3501 51.9398
v  47.5694 32.3993 46.7577
v  47.3934 32.4597 46.5373
v  42.5978 47.2226 51.5089
v  45.4718 32.4671 45.9860
v  45.2015 32.4115 46.0698
v  41.6890 47.1357 53.0481
v  44.1858 31.7990 47.5322
v  44.1946 31.7041 47.8044
v  42.8638 47.2022 54.4522
v  45.3762 31.2983 49.2849
v  45.6519 31.2954 49.3694
v  47.5417 31.7894 48.4788
v  19.6310 58.6983 53.1591
v  19.6871 58.7274 53.1035
v  47.2622 32.4299 46.5792
v  18.9591 59.5477 52.4387
v  19.0327 59.5097 52.4538
v  45.2078 32.3633 46.2021
v  19.8064 60.0460 51.5341
v  19.7957 59.9933 51.5989
v  44.3301 31.7013 47.8434
v  20.9365 59.5059 51.7195
v  20.8562 59.5111 51.7443
v  45.7296 31.3390 49.2601
v  20.8530 58.6725 52.7146
v  20.8141 58.7283 52.6650
v  26.3502 64.4089 53.4675
v  20.5950 59.8092 51.5013
v  20.4552 59.8860 51.4668
v  26.8168 63.0250 53.4156
v  21.0718 58.9355 52.3256
v  21.0953 59.0402 52.1955
v  26.4073 62.3281 54.6473
v  20.1279 58.5557 53.1307
v  20.2890 58.5435 53.0824
v  25.6374 64.5746 54.7558
v  19.3487 59.9723 51.7967
v  19.2279 59.9153 51.9094
v  25.6709 63.2867 55.4895
v  19.0460 59.1964 52.8106
v  19.1220 59.0841 52.9108
v  41.9743 47.1656 52.2555
v  44.4965 32.0448 46.9121
v  44.3186 31.8236 47.4921
v  26.3049 64.3746 53.5774
v  20.3713 59.8589 51.5308
v  20.0081 59.9771 51.5352
v  42.2037 47.1600 53.9097
v  44.8443 31.4270 48.7658
v  45.3738 31.3428 49.1512
v  26.7592 63.1223 53.4676
v  21.0069 59.0970 52.1642
v  20.9565 59.3631 51.8764
v  43.8412 47.2748 54.2298
v  46.8006 31.4954 49.1107
v  47.3333 31.6694 48.7627
v  26.4166 62.4245 54.5692
v  20.3177 58.6070 52.9978
v  20.6637 58.6530 52.8104
v  43.4706 47.2839 51.5532
v  46.2385 32.4951 46.1113
v  45.5566 32.4351 46.0939
v  25.6654 64.4542 54.7759
v  19.2616 59.8403 51.9830
v  19.0636 59.6477 52.2823
v  44.6494 47.3533 52.7677
v  47.6918 32.1608 47.4635
v  47.4891 32.3520 46.8636
v  25.7343 63.2491 55.3892
v  19.2281 59.0666 52.8898
v  19.4939 58.8289 53.0613
v  44.3984 32.0872 46.7644
v  44.6659 31.3985 48.7974
v  46.7826 31.4333 49.2824
v  46.3597 32.5516 45.9839
v  47.8591 32.1508 47.5380
v  19.3481 54.2477 50.8145
v  19.4812 58.7770 53.1264
v  18.6052 55.0457 51.0685
v  18.9831 59.6547 52.3058
v  18.5311 55.7447 50.1550
v  19.9710 60.0334 51.4847
v  19.2138 55.3608 49.3919
v  21.0142 59.3911 51.8219
v  19.7243 54.4425 49.7783
v  20.7365 58.6141 52.8273
v  40.7705 12.5776 46.1020
v  44.5451 32.1762 46.5516
v  41.7405 12.4172 48.4241
v  44.4938 31.4577 48.5817
v  44.2629 12.7098 48.3004
v  46.5181 31.3788 49.3644
v  42.7274 12.9775 44.5057
v  46.6410 32.5508 46.0640
v  44.8946 13.0604 45.8629
v  47.8678 32.0580 47.8043
v  18.8721 55.6100 49.6859
v  20.5892 59.7391 51.5845
v  40.9743 12.6066 46.0453
v  44.7250 32.1834 46.5807
v  19.5382 54.8555 49.5173
v  20.9704 58.9339 52.3669
v  41.7505 12.4428 48.2111
v  44.5762 31.5190 48.4298
v  19.5777 54.2578 50.3453
v  20.0668 58.6261 53.0731
v  44.0632 12.6967 48.2225
v  46.3885 31.4105 49.2385
v  18.4999 55.4784 50.6184
v  19.4496 59.9290 51.8074
v  42.8517 12.9709 44.6824
v  46.6767 32.4938 46.2360
v  18.9323 54.6380 51.0404
v  19.1097 59.2415 52.7337
v  44.7612 13.0266 46.0277
v  47.7053 32.0162 47.8785
v  16.2700 52.2133 49.3824
v  15.9732 52.9179 49.4182
v  16.0439 53.2368 48.7009
v  16.3734 52.7295 48.2614
v  16.5174 52.0969 48.6674
v  16.2177 53.0061 48.4140
v  16.4775 52.3587 48.4273
v  16.4034 52.0983 49.0715
v  15.9829 53.1459 49.0502
v  16.0947 52.5849 49.4669
# 402 vertices

vn -0.0000 -1.0000 -0.0000
vn 0.1973 -0.7867 -0.5849
vn 0.6257 -0.6749 0.3912
vn 0.4009 -0.8016 -0.4436
vn -0.0830 -0.8387 -0.5383
vn -0.3532 -0.8772 -0.3253
vn -0.0013 -0.8738 -0.4863
vn -0.5159 -0.8341 0.1952
vn -0.1759 -0.9172 -0.3575
vn -0.4095 -0.7528 0.5155
vn -0.3570 -0.9183 -0.1712
vn 0.0390 -0.6400 0.7673
vn -0.3934 -0.9193 0.0093
vn 0.4861 -0.5755 0.6576
vn -0.3967 -0.8556 0.3324
vn -0.0000 -1.0000 0.0000
vn 0.7995 -0.5971 0.0656
vn -0.2134 -0.8061 0.5519
vn 0.6703 -0.6538 -0.3511
vn 0.3048 -0.6766 0.6703
vn -0.2007 -0.9796 -0.0092
vn -0.2762 -0.9603 0.0398
vn -0.2795 -0.9591 -0.0455
vn -0.2463 -0.9689 0.0220
vn -0.3935 -0.9135 0.1036
vn -0.2936 -0.9552 0.0362
vn -0.9827 -0.0768 0.1684
vn -0.3756 -0.9213 0.1001
vn -0.9284 0.1180 -0.3523
vn -0.7985 -0.5157 0.3104
vn -0.1046 -0.2017 -0.9739
vn -0.9420 0.0942 -0.3222
vn 0.2430 -0.8233 -0.5130
vn -0.5061 0.0156 -0.8624
vn -0.1168 -0.9881 -0.1003
vn 0.3321 -0.5279 -0.7816
vn -0.1625 -0.9855 -0.0488
vn -0.0640 -0.9878 -0.1419
vn -0.1881 -0.9820 -0.0147
vn -0.1685 -0.9850 -0.0363
vn -0.2354 -0.9718 0.0145
vn 0.5986 -0.4713 -0.6477
vn 0.8768 -0.4087 0.2535
vn -0.1462 -0.9889 -0.0276
vn -0.7816 -0.4412 0.4410
vn -0.4182 -0.6758 -0.6069
vn 0.5422 -0.5682 -0.6190
vn -0.6352 -0.7057 0.3140
vn -0.9637 0.1641 -0.2105
vn -0.7155 -0.5737 0.3987
vn -0.4048 -0.7581 -0.5112
vn -0.9792 0.1569 -0.1290
vn -0.4629 0.1080 -0.8798
vn 0.1283 -0.3711 0.9197
vn -0.6539 -0.6323 0.4155
vn -0.4587 0.1006 -0.8829
vn 0.3474 -0.2991 -0.8887
vn 0.8934 -0.3402 0.2934
vn 0.1697 -0.4262 0.8886
vn 0.4241 -0.2052 -0.8820
vn -0.1130 -0.9935 -0.0164
vn -0.4100 -0.4731 0.7798
vn -0.6808 -0.7317 -0.0344
vn -0.7936 0.1353 -0.5932
vn -0.0460 -0.0462 -0.9979
vn 0.5552 -0.3492 0.7548
vn -0.2892 -0.5091 0.8106
vn 0.0130 -0.0743 -0.9972
vn 0.0820 -0.9700 -0.2290
vn 0.9040 -0.3909 -0.1731
vn 0.6527 -0.4002 0.6432
vn 0.1512 -0.9532 -0.2620
vn -0.2291 -0.9722 0.0477
vn -0.4616 -0.8759 -0.1403
vn -0.6945 -0.6922 -0.1965
vn -0.0311 -0.7068 -0.7067
vn -0.9765 0.0354 0.2125
vn -0.8371 0.1298 -0.5314
vn 0.6859 -0.7019 -0.1922
vn 0.1368 -0.5932 -0.7934
vn 0.8276 -0.4802 -0.2906
vn -0.2161 -0.9738 0.0711
vn -0.9652 -0.0304 0.2598
vn 0.8294 0.1171 -0.5462
vn 0.6055 -0.0551 0.7939
vn -0.2331 0.1118 -0.9660
vn 0.8347 -0.0672 -0.5467
vn -0.9675 0.0711 -0.2425
vn -0.2313 -0.0544 -0.9714
vn -0.6342 0.1384 0.7607
vn -0.9707 -0.0667 -0.2310
vn 0.5899 0.1710 0.7892
vn -0.6300 -0.0515 0.7749
vn 0.8568 0.0779 -0.5097
vn 0.5809 -0.8137 0.0193
vn 0.7688 -0.6394 -0.0087
vn 0.0475 -0.9967 0.0659
vn 0.1435 -0.9886 -0.0455
vn -0.2446 0.0791 -0.9664
vn -0.0194 -0.7744 0.6324
vn 0.0349 -0.7454 0.6657
vn -0.5666 -0.3849 0.7286
vn -0.4125 -0.7979 0.4395
vn -0.9757 0.1926 0.1046
vn -0.6937 0.4466 0.5651
vn -0.7068 0.4486 0.5470
vn -0.5845 0.7367 0.3400
vn -0.4302 0.8436 0.3213
vn -0.1821 0.2230 0.9576
vn -0.3210 0.9199 -0.2252
vn -0.1704 0.9097 -0.3786
vn 0.1141 0.9329 -0.3416
vn -0.0044 0.9562 -0.2927
vn 0.8184 0.1277 0.5603
vn 0.4461 0.5896 -0.6734
vn 0.5974 0.0249 -0.8016
vn 0.4365 -0.4161 -0.7977
vn 0.6050 -0.0318 -0.7956
vn -0.1380 0.9869 -0.0841
vn -0.4102 0.9082 -0.0832
vn 0.1510 0.6314 -0.7606
vn 0.5276 0.4615 -0.7132
vn 0.5184 0.2586 -0.8151
vn 0.2548 0.5179 -0.8166
vn 0.7457 -0.3722 -0.5526
vn 0.2685 -0.9218 -0.2797
vn 0.2000 -0.9606 -0.1931
vn 0.8228 -0.3942 -0.4094
vn 0.4063 -0.8750 0.2632
vn -0.1058 -0.9317 0.3475
vn -0.7664 0.2061 0.6084
vn -0.5933 -0.2582 0.7624
vn -0.5734 0.8188 -0.0277
vn -0.1996 0.9797 -0.0204
vn -0.1868 -0.8969 0.4008
vn 0.4390 -0.8050 0.3990
vn -0.4751 -0.5831 0.6590
vn -0.7307 0.0784 0.6782
vn -0.9498 -0.0686 -0.3051
vn -0.7528 0.2316 0.6162
vn -0.2300 0.8639 -0.4482
vn -0.5232 0.8522 0.0053
vn -0.1563 0.9856 -0.0650
vn 0.1627 0.8674 -0.4702
vn -0.5133 0.0450 0.8570
vn 0.2849 0.1673 0.9438
vn 0.6417 -0.0753 -0.7632
vn 0.0253 0.8604 -0.5089
vn 0.3575 0.5288 -0.7698
vn 0.6176 -0.4650 -0.6343
vn 0.6040 -0.0254 0.7966
vn 0.9877 0.0925 0.1262
vn 0.3218 -0.9337 0.1572
vn 0.7449 -0.5140 -0.4253
vn 0.3762 -0.8700 -0.3187
vn 0.0306 -0.9954 0.0912
vn 0.1608 -0.1952 -0.9675
vn -0.7380 0.0917 -0.6686
vn -0.7915 0.5732 0.2121
vn -0.5733 -0.0198 0.8191
vn -0.6818 0.3025 0.6660
vn -0.2346 0.9674 0.0951
vn 0.9736 -0.0968 -0.2067
vn 0.5018 0.0464 -0.8637
vn -0.3581 -0.4999 0.7886
vn 0.2797 -0.8830 0.3768
vn -0.1005 -0.9722 0.2115
vn -0.6541 -0.3226 0.6842
vn -0.9568 0.0868 0.2776
vn -0.1202 0.1753 0.9772
vn 0.9634 0.1234 0.2379
vn -0.6666 0.0811 -0.7410
vn 0.4111 0.1097 -0.9050
vn -0.2781 0.0128 0.9605
vn 0.0261 -0.9917 0.1258
vn -0.2159 -0.2428 0.9457
vn 0.3210 0.6217 0.7144
vn -0.1653 0.9673 0.1922
vn -0.2630 0.0102 0.9647
vn 0.3735 0.5820 0.7223
vn 0.3602 0.9206 -0.1510
vn 0.1530 0.7847 -0.6007
vn -0.1574 0.9675 0.1977
vn 0.4292 0.8930 -0.1354
vn -0.2116 0.2791 -0.9367
vn 0.3102 -0.4815 -0.8197
vn 0.1421 0.7691 -0.6231
vn -0.1154 0.2004 -0.9729
vn -0.3563 -0.9328 -0.0549
vn 0.0145 -0.9940 0.1089
vn 0.3545 -0.4462 -0.8217
vn -0.2914 -0.9557 -0.0411
vn -0.2753 -0.2045 0.9393
vn -0.3583 0.0385 0.9328
vn 0.2809 0.9036 0.3234
vn 0.1339 -0.6585 0.7406
vn 0.4500 -0.1475 0.8808
vn -0.2065 -0.8565 0.4731
vn -0.0882 0.9946 0.0552
vn 0.1910 0.8767 -0.4414
vn 0.7686 0.6072 0.2013
vn 0.8381 0.5114 0.1898
vn 0.3042 0.6449 0.7012
vn 0.1553 0.6199 -0.7692
vn -0.2427 -0.3376 -0.9094
vn 0.2333 0.7865 -0.5718
vn 0.1903 0.7793 -0.5971
vn 0.3041 0.9335 -0.1900
vn 0.2004 -0.8783 -0.4340
vn -0.4511 -0.8833 -0.1275
vn -0.7135 -0.0233 -0.7003
vn -0.7751 -0.0537 -0.6296
vn 0.0189 -0.0909 -0.9957
vn 0.0155 -0.9758 0.2183
vn -0.1081 -0.6093 0.7856
vn -0.6568 -0.7209 0.2212
vn -0.4303 -0.8171 0.3837
vn -0.3901 -0.8608 -0.3268
vn -0.3884 0.5149 -0.7642
vn -0.7781 -0.6216 -0.0904
vn -0.3552 -0.7055 -0.6132
vn 0.1362 0.7095 -0.6914
vn -0.6928 -0.7209 0.0153
vn -0.1294 -0.6861 0.7159
vn -0.3205 -0.8941 0.3129
vn -0.2974 -0.8386 -0.4564
vn -0.0161 -0.6336 0.7735
vn 0.7188 0.1977 0.6666
vn -0.0303 0.1791 0.9834
vn -0.2688 -0.8659 0.4218
vn 0.5117 0.7798 -0.3607
vn -0.2700 0.6210 -0.7358
vn 0.1593 0.8048 -0.5717
vn 0.4686 0.8587 0.2076
vn 0.7745 0.2389 0.5857
vn 0.5852 0.7665 -0.2646
vn 0.4129 0.8631 0.2910
vn 0.0958 0.2466 0.9644
vn 0.0735 0.9254 -0.3717
vn 0.2405 -0.1549 -0.9582
vn -0.4478 -0.6959 -0.5614
vn -0.8535 -0.2208 -0.4720
vn -0.3367 0.4322 -0.8365
vn 0.2074 0.5480 -0.8104
vn 0.2595 -0.5581 -0.7882
vn 0.1104 -0.9888 -0.1000
vn -0.3666 -0.9096 0.1956
vn -0.4819 -0.7598 0.4364
vn -0.8494 -0.4988 -0.1723
vn -0.3448 -0.6496 -0.6776
vn 0.0756 -0.9959 0.0498
vn -0.1179 -0.8168 0.5648
vn 0.0920 0.1932 0.9768
vn 0.4401 -0.3838 0.8118
vn -0.2421 -0.7782 0.5795
vn -0.3313 -0.9373 0.1087
vn -0.1241 0.9599 0.2514
vn -0.0173 0.9875 -0.1567
vn 0.1174 0.3910 -0.9129
vn -0.0276 0.6907 -0.7227
vn 0.4677 0.8198 -0.3305
vn 0.3495 0.9314 0.1020
vn -0.2948 -0.4145 0.8610
vn -0.2231 0.8114 0.5403
vn 0.2841 0.9586 0.0201
vn 0.5970 0.7957 -0.1025
vn 0.7331 0.0330 0.6794
vn 0.1290 -0.2228 0.9663
vn 0.3375 0.2194 -0.9154
vn 0.1190 -0.9628 -0.2426
vn -0.1220 -0.8563 0.5018
vn -0.0564 0.9940 -0.0937
vn -0.3118 0.5576 0.7694
vn 0.8186 0.5461 0.1780
vn 0.4710 -0.3965 0.7880
vn 0.9914 0.1072 -0.0744
vn 0.1629 0.7895 -0.5917
vn 0.9948 0.0669 -0.0773
vn 0.3870 0.3838 -0.8384
vn -0.7939 -0.0066 -0.6081
vn 0.3915 0.3248 -0.8609
vn -0.6514 0.4365 -0.6206
vn -0.4647 -0.7925 0.3950
vn -0.6585 0.3659 -0.6577
vn -0.7939 -0.2203 0.5668
vn 0.4465 -0.1212 0.8865
vn -0.7918 -0.2802 0.5427
vn 0.4870 -0.3442 0.8027
vn 0.9843 0.1050 -0.1421
vn -0.0493 -0.6954 0.7169
vn 0.2499 -0.9038 0.3475
vn -0.0224 0.5409 -0.8408
vn -0.7406 0.2347 0.6296
vn -0.6027 -0.2356 0.7624
vn -0.9531 0.1387 -0.2689
vn -0.4373 0.8697 -0.2289
vn -0.4006 0.9087 -0.1173
vn -0.6719 -0.2327 0.7031
vn 0.3652 0.5519 -0.7497
vn 0.2479 0.3219 -0.9137
vn 0.3623 -0.3857 0.8485
vn 0.4184 -0.8923 -0.1695
vn 0.7835 -0.4706 -0.4058
vn -0.0268 0.9849 -0.1713
vn 0.5569 -0.3399 -0.7578
vn -0.0334 0.8443 -0.5349
vn 0.3591 0.1211 -0.9254
vn 0.2764 -0.9460 0.1691
vn 0.5458 -0.5562 -0.6267
vn 0.1141 -0.9810 -0.1567
vn -0.3801 -0.2238 0.8975
vn 0.2423 -0.9342 0.2617
vn -0.2853 0.7315 0.6193
vn -0.1700 0.8160 -0.5525
vn -0.7243 0.6830 0.0942
vn -0.1537 -0.6999 0.6975
vn -0.8633 0.4507 0.2270
vn -0.4827 -0.1200 0.8675
vn -0.8217 -0.5698 -0.0109
vn -0.9776 -0.0625 0.2008
vn -0.8032 0.2486 -0.5414
vn -0.0289 0.9962 -0.0824
vn -0.0982 0.8234 -0.5588
vn 0.4332 -0.0191 -0.9011
vn -0.1610 -0.7434 0.6491
vn -0.2748 -0.3336 0.9018
vn -0.8691 -0.2006 0.4521
vn 0.2406 0.1005 -0.9654
vn 0.6370 -0.1539 -0.7553
vn 0.5522 -0.8246 -0.1230
vn 0.7753 0.3161 0.5468
vn 0.7733 -0.2999 0.5586
vn 0.0414 -0.4531 0.8905
vn 0.1419 -0.9752 -0.1697
vn 0.4781 -0.8698 0.1217
vn 0.0304 -0.9104 0.4125
vn -0.4638 0.3291 -0.8225
vn -0.4887 0.4593 -0.7417
vn 0.3435 0.4403 -0.8295
vn -0.2317 0.7073 0.6678
vn -0.6066 0.7760 0.1728
vn -0.2997 0.8669 -0.3983
vn 0.3963 0.8365 -0.3784
vn 0.6781 0.3843 -0.6264
vn 0.9516 -0.2042 0.2298
vn -0.0617 -0.9073 0.4159
vn -0.1709 -0.7721 0.6121
vn -0.7520 0.4297 0.4999
vn -0.9732 0.1909 -0.1285
vn -0.2479 -0.4049 0.8801
vn 0.8615 -0.1405 0.4879
vn -0.1119 0.4629 -0.8793
vn 0.8320 0.2455 -0.4975
vn -0.0116 -0.8397 0.5429
vn -0.7639 0.1331 0.6315
vn -0.8275 0.2579 0.4987
vn -0.5702 0.7706 -0.2845
vn -0.2300 0.8873 -0.3998
vn 0.3525 0.4939 -0.7948
vn 0.5565 0.0014 -0.8308
vn 0.4099 -0.8912 -0.1942
vn 0.6554 -0.7533 -0.0555
vn -0.0449 -0.6237 0.7804
vn -0.7603 -0.0521 -0.6475
vn -0.2338 0.4059 -0.8835
vn -0.9234 -0.0539 0.3799
vn -0.9973 0.0640 -0.0349
vn 0.0325 -0.0248 0.9992
vn -0.1042 -0.4722 0.8753
vn 0.2700 -0.0447 -0.9618
vn 0.7504 0.2420 -0.6151
vn 0.9961 -0.0540 0.0703
vn 0.9161 -0.1231 0.3816
vn 0.1495 0.7179 -0.6799
vn 0.6516 -0.4032 -0.6426
vn -0.6043 -0.1169 -0.7881
vn -0.3694 0.4530 -0.8114
vn 0.5894 -0.7501 -0.2999
vn 0.3330 -0.9316 0.1455
vn -0.8831 0.0416 0.4673
vn -0.9988 -0.0374 0.0330
vn 0.1335 -0.9151 0.3806
vn -0.2937 -0.7022 0.6486
vn 0.1603 0.0285 0.9867
vn -0.3939 -0.3674 0.8425
vn -0.5741 0.8103 -0.1178
vn -0.0304 0.7231 -0.6900
vn 0.5943 -0.1395 -0.7921
vn 0.7850 0.2799 -0.5527
vn -0.6850 0.0312 0.7279
vn -0.6088 0.7929 0.0256
vn 0.9650 -0.0458 0.2581
vn 0.6533 -0.4121 0.6351
vn -0.5369 -0.3320 0.7756
vn -0.6186 0.7115 0.3334
vn 0.1284 0.9371 -0.3247
vn 0.4805 -0.4047 -0.7781
vn 0.0666 -0.9942 0.0841
vn 0.4990 0.3430 -0.7958
vn 0.2746 -0.9383 -0.2100
vn -0.1548 -0.9476 0.2794
vn -0.0966 0.9894 -0.1084
vn -0.5835 0.5254 0.6193
# 403 vertex normals

vt 0.5000 0.0000 0.0000
vt 0.8500 0.0000 1.0000
vt 0.7500 0.0000 1.0000
vt 0.9500 0.0000 1.0000
vt 0.9087 0.0000 1.0000
vt 0.0500 0.0000 1.0000
vt -0.0500 0.0000 1.0000
vt 0.0913 0.0000 1.0000
vt 0.2500 0.0000 1.0000
vt 0.1500 0.0000 1.0000
vt 0.3087 0.0000 1.0000
vt 0.2913 0.0000 1.0000
vt 0.4500 0.0000 1.0000
vt 0.3500 0.0000 1.0000
vt 0.5087 0.0000 1.0000
vt 0.4913 0.0000 1.0000
vt 0.6500 0.0000 1.0000
vt 0.5500 0.0000 1.0000
vt 0.7087 0.0000 1.0000
vt 0.6913 0.0000 1.0000
vt 0.7500 1.0000 1.0000
vt 0.8500 1.0000 1.0000
vt 0.5000 1.0000 0.0000
vt 0.8913 1.0000 1.0000
vt 0.9087 1.0000 1.0000
vt -0.0500 1.0000 1.0000
vt 0.0500 1.0000 1.0000
vt 0.0913 1.0000 1.0000
vt 0.1087 1.0000 1.0000
vt 0.1500 1.0000 1.0000
vt 0.2500 1.0000 1.0000
vt 0.2913 1.0000 1.0000
vt 0.3087 1.0000 1.0000
vt 0.3500 1.0000 1.0000
vt 0.4500 1.0000 1.0000
vt 0.4913 1.0000 1.0000
vt 0.5087 1.0000 1.0000
vt 0.5500 1.0000 1.0000
vt 0.6500 1.0000 1.0000
vt 0.6913 1.0000 1.0000
vt 0.7087 1.0000 1.0000
vt 0.9500 1.0000 1.0000
vt 0.8913 0.0000 1.0000
vt 0.1087 0.0000 1.0000
vt 0.8500 0.1250 1.0000
vt 0.7500 0.1250 1.0000
vt 0.0500 0.1250 1.0000
vt -0.0500 0.1250 1.0000
vt 0.2500 0.1250 1.0000
vt 0.1500 0.1250 1.0000
vt 0.4500 0.1250 1.0000
vt 0.3500 0.1250 1.0000
vt 0.6500 0.1250 1.0000
vt 0.5500 0.1250 1.0000
vt 0.7500 0.8750 1.0000
vt -0.0500 0.8750 1.0000
vt 0.1500 0.8750 1.0000
vt 0.3500 0.8750 1.0000
vt 0.5500 0.8750 1.0000
vt 0.2500 0.8750 1.0000
vt 0.4500 0.8750 1.0000
vt 0.6500 0.8750 1.0000
vt 0.0500 0.8750 1.0000
vt 0.8500 0.8750 1.0000
vt 0.9500 0.8750 1.0000
vt 0.9500 0.1250 1.0000
vt 0.8500 0.6250 1.0000
vt 0.7500 0.6250 1.0000
vt 0.7500 0.5000 1.0000
vt 0.8500 0.5000 1.0000
vt 0.0500 0.6250 1.0000
vt -0.0500 0.6250 1.0000
vt -0.0500 0.5000 1.0000
vt 0.0500 0.5000 1.0000
vt 0.2500 0.6250 1.0000
vt 0.1500 0.6250 1.0000
vt 0.1500 0.5000 1.0000
vt 0.2500 0.5000 1.0000
vt 0.4500 0.6250 1.0000
vt 0.3500 0.6250 1.0000
vt 0.3500 0.5000 1.0000
vt 0.4500 0.5000 1.0000
vt 0.6500 0.6250 1.0000
vt 0.5500 0.6250 1.0000
vt 0.5500 0.5000 1.0000
vt 0.6500 0.5000 1.0000
vt 0.7500 0.3750 1.0000
vt -0.0500 0.3750 1.0000
vt 0.1500 0.3750 1.0000
vt 0.3500 0.3750 1.0000
vt 0.5500 0.3750 1.0000
vt 0.2500 0.3750 1.0000
vt 0.4500 0.3750 1.0000
vt 0.6500 0.3750 1.0000
vt 0.0500 0.3750 1.0000
vt 0.8500 0.3750 1.0000
vt 0.9500 0.3750 1.0000
vt 0.9500 0.5000 1.0000
vt 0.9500 0.6250 1.0000
vt 0.7500 0.2500 1.0000
vt 0.8500 0.2500 1.0000
vt -0.0500 0.2500 1.0000
vt 0.0500 0.2500 1.0000
vt 0.1500 0.2500 1.0000
vt 0.2500 0.2500 1.0000
vt 0.3500 0.2500 1.0000
vt 0.4500 0.2500 1.0000
vt 0.5500 0.2500 1.0000
vt 0.6500 0.2500 1.0000
vt 0.7500 0.7500 1.0000
vt -0.0500 0.7500 1.0000
vt 0.1500 0.7500 1.0000
vt 0.3500 0.7500 1.0000
vt 0.5500 0.7500 1.0000
vt 0.2500 0.7500 1.0000
vt 0.4500 0.7500 1.0000
vt 0.6500 0.7500 1.0000
vt 0.0500 0.7500 1.0000
vt 0.9500 0.7500 1.0000
vt 0.8500 0.7500 1.0000
vt 0.9500 0.2500 1.0000
# 121 texture coords

o Black_Licorice_Vine
g Black_Licorice_Vine
usemtl wire_228214153
s 1
f 1/1/1 2/2/2 3/3/3 
f 1/1/1 4/4/4 5/5/5 
f 1/1/1 6/6/6 4/7/4 
f 1/1/1 7/8/7 6/6/6 
f 1/1/1 8/9/8 9/10/9 
f 1/1/1 10/11/10 11/12/11 
f 1/1/1 12/13/12 13/14/13 
f 1/1/1 14/15/14 15/16/15 
f 1/1/1 1/1/16 16/17/17 17/18/18 
f 18/19/19 19/20/20 1/1/16 
f 20/21/21 21/22/22 22/23/23 
f 23/24/24 24/25/25 22/23/23 
f 25/26/26 26/27/27 22/23/23 
f 27/28/28 28/29/29 22/23/23 
f 29/30/30 30/31/31 22/23/23 
f 31/32/32 32/33/33 22/23/23 
f 33/34/34 34/35/35 22/23/23 
f 35/36/36 36/37/37 22/23/23 
f 37/38/38 38/39/39 22/23/23 
f 39/40/40 40/41/41 22/23/23 
s off
f 3/3/3 2/2/2 41/2/42 42/3/43 
f 21/22/22 20/21/21 43/21/44 44/22/45 
f 4/7/4 6/6/6 45/6/46 46/7/47 
f 26/27/27 25/26/26 47/26/48 48/27/49 
f 9/10/9 8/9/8 49/9/50 50/10/51 
f 30/31/31 29/30/30 51/30/52 52/31/53 
f 13/14/13 12/13/12 53/13/54 54/14/55 
f 34/35/35 33/34/34 55/34/56 56/35/57 
f 17/18/18 16/17/17 57/17/58 58/18/59 
f 38/39/39 37/38/38 59/38/60 60/39/61 
f 11/9/11 10/14/10 61/14/62 62/9/63 
f 32/34/33 31/31/32 63/31/64 64/34/65 
f 15/13/15 14/18/14 65/18/66 66/13/67 
f 36/38/37 35/35/36 67/35/68 68/38/69 
f 19/17/20 18/3/19 69/3/70 70/17/71 
f 40/21/41 39/39/40 71/39/72 72/21/73 
f 7/6/7 73/10/74 74/10/75 75/6/76 
f 28/30/29 27/27/28 76/27/77 77/30/78 
f 78/2/79 5/4/5 79/4/80 80/2/81 
f 24/42/25 23/22/24 81/22/82 82/42/83 
s 1
f 28/29/29 29/30/30 22/23/23 
f 22/23/23 26/27/27 27/28/28 
f 24/25/25 25/42/26 22/23/23 
f 22/23/23 21/22/22 23/24/24 
f 40/41/41 20/21/21 22/23/23 
f 22/23/23 38/39/39 39/40/40 
f 22/23/23 34/35/35 35/36/36 
f 36/37/37 37/38/38 22/23/23 
f 22/23/23 30/31/31 31/32/32 
f 32/33/33 33/34/34 22/23/23 
f 11/12/11 8/9/8 1/1/1 
f 1/1/1 13/14/13 10/11/10 
f 15/16/15 12/13/12 1/1/1 
f 1/1/1 17/18/18 14/15/14 
f 19/20/20 16/17/17 1/1/16 
f 1/1/16 1/1/1 3/3/3 18/19/19 
f 78/43/79 2/2/2 1/1/1 
f 1/1/1 5/5/5 78/43/79 
f 1/1/1 9/10/9 73/44/74 
f 73/44/74 7/8/7 1/1/1 
s 8
f 41/2/42 83/45/84 84/46/85 42/3/43 
f 45/6/46 85/47/86 86/48/87 46/7/47 
f 49/9/50 87/49/88 88/50/89 50/10/51 
f 53/13/54 89/51/90 90/52/91 54/14/55 
f 57/17/58 91/53/92 92/54/93 58/18/59 
s off
f 93/45/94 83/45/84 41/2/42 2/2/2 
f 94/55/95 95/55/96 96/21/97 97/21/98 
f 98/47/99 85/47/86 45/6/46 6/6/6 
f 99/56/100 100/56/101 101/26/102 102/26/103 
f 103/49/104 87/49/88 49/9/50 8/9/8 
f 104/57/105 105/57/106 106/30/107 107/30/108 
f 108/51/109 89/51/90 53/13/54 12/13/12 
f 109/58/110 110/58/111 111/34/112 112/34/113 
f 113/53/114 91/53/92 57/17/58 16/17/17 
f 114/59/115 115/59/116 116/38/117 117/38/118 
s 2
f 118/31/119 119/60/120 120/58/121 121/34/122 
f 122/35/123 123/61/124 124/59/125 125/38/126 
f 126/39/127 127/62/128 128/55/129 129/21/130 
f 130/27/131 131/63/132 132/57/133 133/30/134 
f 134/22/135 135/64/136 136/65/137 137/42/138 
s off
f 138/52/139 139/52/140 10/14/10 13/14/13 
f 140/60/141 141/60/142 142/31/143 143/31/144 
f 144/54/145 145/54/146 14/18/14 17/18/18 
f 146/61/147 147/61/148 148/35/149 149/35/150 
f 150/46/151 151/46/152 18/3/19 3/3/3 
f 152/62/153 153/62/154 154/39/155 155/39/156 
f 156/50/157 157/50/158 73/10/74 9/10/9 
f 158/63/159 159/63/160 160/27/161 161/27/162 
f 162/66/163 163/66/164 5/4/5 4/4/4 
f 164/64/165 165/64/166 166/22/167 167/22/168 
f 139/52/140 168/52/169 61/14/62 10/14/10 
f 141/60/142 119/60/120 118/31/119 142/31/143 
f 145/54/146 169/54/170 65/18/66 14/18/14 
f 147/61/148 123/61/124 122/35/123 148/35/149 
f 151/46/152 170/46/171 69/3/70 18/3/19 
f 153/62/154 127/62/128 126/39/127 154/39/155 
f 157/50/158 171/50/172 74/10/75 73/10/74 
f 159/63/160 131/63/132 130/27/131 160/27/161 
f 163/66/164 172/66/173 79/4/80 5/4/5 
f 165/64/166 135/64/136 134/22/135 166/22/167 
s 8
f 173/67/174 174/68/175 175/69/176 176/70/177 
f 177/71/178 178/72/179 179/73/180 180/74/181 
f 181/75/182 182/76/183 183/77/184 184/78/185 
f 185/79/186 186/80/187 187/81/188 188/82/189 
f 189/83/190 190/84/191 191/85/192 192/86/193 
s off
f 193/67/194 173/67/174 176/70/177 194/70/195 
f 195/87/196 196/87/197 175/69/176 197/69/198 
f 198/71/199 177/71/178 180/74/181 199/74/200 
f 200/88/201 201/88/202 179/73/180 202/73/203 
f 203/75/204 181/75/182 184/78/185 204/78/205 
f 205/89/206 206/89/207 183/77/184 207/77/208 
f 208/79/209 185/79/186 188/82/189 209/82/210 
f 210/90/211 211/90/212 187/81/188 212/81/213 
f 213/83/214 189/83/190 192/86/193 214/86/215 
f 215/91/216 216/91/217 191/85/192 217/85/218 
s 2
f 218/92/219 219/90/220 220/81/221 221/78/222 
f 222/93/223 223/91/224 224/85/225 225/82/226 
f 226/94/227 227/87/228 228/69/229 229/86/230 
f 230/95/231 231/89/232 232/77/233 233/74/234 
f 234/96/235 235/97/236 236/98/237 237/70/238 
s off
f 238/80/239 239/80/240 240/81/241 212/81/213 
f 241/92/242 242/92/243 243/78/244 204/78/205 
f 244/84/245 245/84/246 246/85/247 217/85/218 
f 247/93/248 248/93/249 249/82/250 209/82/210 
f 250/68/251 251/68/252 252/69/253 197/69/198 
f 253/94/254 254/94/255 255/86/256 214/86/215 
f 256/76/257 257/76/258 258/77/259 207/77/208 
f 259/95/260 260/95/261 261/74/262 199/74/200 
f 262/99/263 263/99/264 264/98/265 202/98/203 
f 265/96/266 266/96/267 267/70/268 194/70/195 
f 239/80/240 268/80/269 220/81/221 240/81/241 
f 242/92/243 218/92/219 221/78/222 243/78/244 
f 245/84/246 269/84/270 224/85/225 246/85/247 
f 248/93/249 222/93/223 225/82/226 249/82/250 
f 251/68/252 270/68/271 228/69/229 252/69/253 
f 254/94/255 226/94/227 229/86/230 255/86/256 
f 257/76/258 271/76/272 232/77/233 258/77/259 
f 260/95/261 230/95/231 233/74/234 261/74/262 
f 263/99/264 272/99/273 236/98/237 264/98/265 
f 266/96/267 234/96/235 237/70/238 267/70/268 
s 8
f 273/96/274 196/87/197 274/100/275 275/101/276 
f 276/95/277 201/88/202 277/102/278 278/103/279 
f 279/92/280 206/89/207 280/104/281 281/105/282 
f 282/93/283 211/90/212 283/106/284 284/107/285 
f 285/94/286 216/91/217 286/108/287 287/109/288 
s off
f 265/96/266 273/96/274 275/101/276 288/101/289 
f 250/68/251 174/68/175 289/110/290 290/110/291 
f 259/95/260 276/95/277 278/103/279 291/103/292 
f 262/72/263 178/72/179 292/111/293 293/111/294 
f 241/92/242 279/92/280 281/105/282 294/105/295 
f 256/76/257 182/76/183 295/112/296 296/112/297 
f 247/93/248 282/93/283 284/107/285 297/107/298 
f 238/80/239 186/80/187 298/113/299 299/113/300 
f 253/94/254 285/94/286 287/109/288 300/109/301 
f 244/84/245 190/84/191 301/114/302 302/114/303 
s 2
f 303/75/304 268/80/269 304/113/305 305/115/306 
f 306/79/307 269/84/270 307/114/308 308/116/309 
f 309/83/310 270/68/271 310/110/311 311/117/312 
f 312/71/313 271/76/272 313/112/314 314/118/315 
f 315/67/316 272/99/273 316/119/317 317/120/318 
s off
f 210/90/211 318/90/319 319/106/320 320/106/321 
f 203/75/204 321/75/322 322/115/323 323/115/324 
f 215/91/216 324/91/325 325/108/326 326/108/327 
f 208/79/209 327/79/328 328/116/329 329/116/330 
f 195/87/196 330/87/331 331/100/332 332/100/333 
f 213/83/214 333/83/334 334/117/335 335/117/336 
f 205/89/206 336/89/337 337/104/338 338/104/339 
f 198/71/199 339/71/340 340/118/341 341/118/342 
f 200/97/201 342/97/343 343/121/344 344/121/345 
f 193/67/194 345/67/346 346/120/347 347/120/348 
f 318/90/319 219/90/220 348/106/349 319/106/320 
f 321/75/322 303/75/304 305/115/306 322/115/323 
f 324/91/325 223/91/224 349/108/350 325/108/326 
f 327/79/328 306/79/307 308/116/309 328/116/329 
f 330/87/331 227/87/228 350/100/351 331/100/332 
f 333/83/334 309/83/310 311/117/312 334/117/335 
f 336/89/337 231/89/232 351/104/352 337/104/338 
f 339/71/340 312/71/313 314/118/315 340/118/341 
f 342/97/343 235/97/236 352/121/353 343/121/344 
f 345/67/346 315/67/316 317/120/318 346/120/347 
s 8
f 353/64/354 95/55/96 289/110/290 354/120/355 
f 355/63/356 100/56/101 292/111/293 356/118/357 
f 357/60/358 105/57/106 295/112/296 358/115/359 
f 359/61/360 110/58/111 298/113/299 360/116/361 
f 361/62/362 115/59/116 301/114/302 362/117/363 
s off
f 164/64/165 353/64/354 354/120/355 347/120/348 
f 150/46/151 84/46/85 274/100/275 332/100/333 
f 158/63/159 355/63/356 356/118/357 341/118/342 
f 162/48/163 86/48/87 277/102/278 344/102/345 
f 140/60/141 357/60/358 358/115/359 323/115/324 
f 156/50/157 88/50/89 280/104/281 338/104/339 
f 146/61/147 359/61/360 360/116/361 329/116/330 
f 138/52/139 90/52/91 283/106/284 320/106/321 
f 152/62/153 361/62/362 362/117/363 335/117/336 
f 144/54/145 92/54/93 286/108/287 326/108/327 
s 2
f 363/49/364 168/52/169 348/106/349 364/105/365 
f 365/51/366 169/54/170 349/108/350 366/107/367 
f 367/53/368 170/46/171 350/100/351 368/109/369 
f 369/47/370 171/50/172 351/104/352 370/103/371 
f 371/45/372 172/66/173 352/121/353 372/101/373 
s off
f 109/58/110 373/58/374 374/113/375 299/113/300 
f 103/49/104 375/49/376 376/105/377 294/105/295 
f 114/59/115 377/59/378 378/114/379 302/114/303 
f 108/51/109 379/51/380 380/107/381 297/107/298 
f 94/55/95 381/55/382 382/110/383 290/110/291 
f 113/53/114 383/53/384 384/109/385 300/109/301 
f 104/57/105 385/57/386 386/112/387 296/112/297 
f 98/47/99 387/47/388 388/103/389 291/103/292 
f 99/65/100 389/65/390 390/119/391 293/119/294 
f 93/45/94 391/45/392 392/101/393 288/101/289 
f 373/58/374 120/58/121 304/113/305 374/113/375 
f 375/49/376 363/49/364 364/105/365 376/105/377 
f 377/59/378 124/59/125 307/114/308 378/114/379 
f 379/51/380 365/51/366 366/107/367 380/107/381 
f 381/55/382 128/55/129 310/110/311 382/110/383 
f 383/53/384 367/53/368 368/109/369 384/109/385 
f 385/57/386 132/57/133 313/112/314 386/112/387 
f 387/47/388 369/47/370 370/103/371 388/103/389 
f 389/65/390 136/65/137 316/119/317 390/119/391 
f 391/45/392 371/45/372 372/101/373 392/101/393 
s 8
f 275/101/276 274/100/275 84/46/85 83/45/84 
f 278/103/279 277/102/278 86/48/87 85/47/86 
f 281/105/282 280/104/281 88/50/89 87/49/88 
f 284/107/285 283/106/284 90/52/91 89/51/90 
f 287/109/288 286/108/287 92/54/93 91/53/92 
s off
f 288/101/289 275/101/276 83/45/84 93/45/94 
f 290/110/291 289/110/290 95/55/96 94/55/95 
f 291/103/292 278/103/279 85/47/86 98/47/99 
f 293/111/294 292/111/293 100/56/101 99/56/100 
f 294/105/295 281/105/282 87/49/88 103/49/104 
f 296/112/297 295/112/296 105/57/106 104/57/105 
f 297/107/298 284/107/285 89/51/90 108/51/109 
f 299/113/300 298/113/299 110/58/111 109/58/110 
f 300/109/301 287/109/288 91/53/92 113/53/114 
f 302/114/303 301/114/302 115/59/116 114/59/115 
s 2
f 305/115/306 304/113/305 120/58/121 119/60/120 
f 308/116/309 307/114/308 124/59/125 123/61/124 
f 311/117/312 310/110/311 128/55/129 127/62/128 
f 314/118/315 313/112/314 132/57/133 131/63/132 
f 317/120/318 316/119/317 136/65/137 135/64/136 
s off
f 320/106/321 319/106/320 139/52/140 138/52/139 
f 323/115/324 322/115/323 141/60/142 140/60/141 
f 326/108/327 325/108/326 145/54/146 144/54/145 
f 329/116/330 328/116/329 147/61/148 146/61/147 
f 332/100/333 331/100/332 151/46/152 150/46/151 
f 335/117/336 334/117/335 153/62/154 152/62/153 
f 338/104/339 337/104/338 157/50/158 156/50/157 
f 341/118/342 340/118/341 159/63/160 158/63/159 
f 344/121/345 343/121/344 163/66/164 162/66/163 
f 347/120/348 346/120/347 165/64/166 164/64/165 
f 319/106/320 348/106/349 168/52/169 139/52/140 
f 322/115/323 305/115/306 119/60/120 141/60/142 
f 325/108/326 349/108/350 169/54/170 145/54/146 
f 328/116/329 308/116/309 123/61/124 147/61/148 
f 331/100/332 350/100/351 170/46/171 151/46/152 
f 334/117/335 311/117/312 127/62/128 153/62/154 
f 337/104/338 351/104/352 171/50/172 157/50/158 
f 340/118/341 314/118/315 131/63/132 159/63/160 
f 343/121/344 352/121/353 172/66/173 163/66/164 
f 346/120/347 317/120/318 135/64/136 165/64/166 
s 8
f 354/120/355 289/110/290 174/68/175 173/67/174 
f 356/118/357 292/111/293 178/72/179 177/71/178 
f 358/115/359 295/112/296 182/76/183 181/75/182 
f 360/116/361 298/113/299 186/80/187 185/79/186 
f 362/117/363 301/114/302 190/84/191 189/83/190 
s off
f 347/120/348 354/120/355 173/67/174 193/67/194 
f 332/100/333 274/100/275 196/87/197 195/87/196 
f 341/118/342 356/118/357 177/71/178 198/71/199 
f 344/102/345 277/102/278 201/88/202 200/88/201 
f 323/115/324 358/115/359 181/75/182 203/75/204 
f 338/104/339 280/104/281 206/89/207 205/89/206 
f 329/116/330 360/116/361 185/79/186 208/79/209 
f 320/106/321 283/106/284 211/90/212 210/90/211 
f 335/117/336 362/117/363 189/83/190 213/83/214 
f 326/108/327 286/108/287 216/91/217 215/91/216 
s 2
f 364/105/365 348/106/349 219/90/220 218/92/219 
f 366/107/367 349/108/350 223/91/224 222/93/223 
f 368/109/369 350/100/351 227/87/228 226/94/227 
f 370/103/371 351/104/352 231/89/232 230/95/231 
f 372/101/373 352/121/353 235/97/236 234/96/235 
s off
f 299/113/300 374/113/375 239/80/240 238/80/239 
f 294/105/295 376/105/377 242/92/243 241/92/242 
f 302/114/303 378/114/379 245/84/246 244/84/245 
f 297/107/298 380/107/381 248/93/249 247/93/248 
f 290/110/291 382/110/383 251/68/252 250/68/251 
f 300/109/301 384/109/385 254/94/255 253/94/254 
f 296/112/297 386/112/387 257/76/258 256/76/257 
f 291/103/292 388/103/389 260/95/261 259/95/260 
f 293/119/294 390/119/391 263/99/264 262/99/263 
f 288/101/289 392/101/393 266/96/267 265/96/266 
f 374/113/375 304/113/305 268/80/269 239/80/240 
f 376/105/377 364/105/365 218/92/219 242/92/243 
f 378/114/379 307/114/308 269/84/270 245/84/246 
f 380/107/381 366/107/367 222/93/223 248/93/249 
f 382/110/383 310/110/311 270/68/271 251/68/252 
f 384/109/385 368/109/369 226/94/227 254/94/255 
f 386/112/387 313/112/314 271/76/272 257/76/258 
f 388/103/389 370/103/371 230/95/231 260/95/261 
f 390/119/391 316/119/317 272/99/273 263/99/264 
f 392/101/393 372/101/373 234/96/235 266/96/267 
s 8
f 176/70/177 175/69/176 196/87/197 273/96/274 
f 180/74/181 179/73/180 201/88/202 276/95/277 
f 184/78/185 183/77/184 206/89/207 279/92/280 
f 188/82/189 187/81/188 211/90/212 282/93/283 
f 192/86/193 191/85/192 216/91/217 285/94/286 
s off
f 194/70/195 176/70/177 273/96/274 265/96/266 
f 197/69/198 175/69/176 174/68/175 250/68/251 
f 199/74/200 180/74/181 276/95/277 259/95/260 
f 202/73/203 179/73/180 178/72/179 262/72/263 
f 204/78/205 184/78/185 279/92/280 241/92/242 
f 207/77/208 183/77/184 182/76/183 256/76/257 
f 209/82/210 188/82/189 282/93/283 247/93/248 
f 212/81/213 187/81/188 186/80/187 238/80/239 
f 214/86/215 192/86/193 285/94/286 253/94/254 
f 217/85/218 191/85/192 190/84/191 244/84/245 
s 2
f 221/78/222 220/81/221 268/80/269 303/75/304 
f 225/82/226 224/85/225 269/84/270 306/79/307 
f 229/86/230 228/69/229 270/68/271 309/83/310 
f 233/74/234 232/77/233 271/76/272 312/71/313 
f 237/70/238 236/98/237 272/99/273 315/67/316 
s off
f 212/81/213 240/81/241 318/90/319 210/90/211 
f 204/78/205 243/78/244 321/75/322 203/75/204 
f 217/85/218 246/85/247 324/91/325 215/91/216 
f 209/82/210 249/82/250 327/79/328 208/79/209 
f 197/69/198 252/69/253 330/87/331 195/87/196 
f 214/86/215 255/86/256 333/83/334 213/83/214 
f 207/77/208 258/77/259 336/89/337 205/89/206 
f 199/74/200 261/74/262 339/71/340 198/71/199 
f 202/98/203 264/98/265 342/97/343 200/97/201 
f 194/70/195 267/70/268 345/67/346 193/67/194 
f 240/81/241 220/81/221 219/90/220 318/90/319 
f 243/78/244 221/78/222 303/75/304 321/75/322 
f 246/85/247 224/85/225 223/91/224 324/91/325 
f 249/82/250 225/82/226 306/79/307 327/79/328 
f 252/69/253 228/69/229 227/87/228 330/87/331 
f 255/86/256 229/86/230 309/83/310 333/83/334 
f 258/77/259 232/77/233 231/89/232 336/89/337 
f 261/74/262 233/74/234 312/71/313 339/71/340 
f 264/98/265 236/98/237 235/97/236 342/97/343 
f 267/70/268 237/70/238 315/67/316 345/67/346 
s 8
f 393/22/394 96/21/97 95/55/96 353/64/354 
f 394/27/395 101/26/102 100/56/101 355/63/356 
f 395/31/396 106/30/107 105/57/106 357/60/358 
f 396/35/397 111/34/112 110/58/111 359/61/360 
f 397/39/398 116/38/117 115/59/116 361/62/362 
s off
f 167/22/168 393/22/394 353/64/354 164/64/165 
f 3/3/3 42/3/43 84/46/85 150/46/151 
f 161/27/162 394/27/395 355/63/356 158/63/159 
f 4/7/4 46/7/47 86/48/87 162/48/163 
f 143/31/144 395/31/396 357/60/358 140/60/141 
f 9/10/9 50/10/51 88/50/89 156/50/157 
f 149/35/150 396/35/397 359/61/360 146/61/147 
f 13/14/13 54/14/55 90/52/91 138/52/139 
f 155/39/156 397/39/398 361/62/362 152/62/153 
f 17/18/18 58/18/59 92/54/93 144/54/145 
s 2
f 62/9/63 61/14/62 168/52/169 363/49/364 
f 66/13/67 65/18/66 169/54/170 365/51/366 
f 70/17/71 69/3/70 170/46/171 367/53/368 
f 75/6/76 74/10/75 171/50/172 369/47/370 
f 80/2/81 79/4/80 172/66/173 371/45/372 
s off
f 112/34/113 398/34/399 373/58/374 109/58/110 
f 8/9/8 11/9/11 375/49/376 103/49/104 
f 117/38/118 399/38/400 377/59/378 114/59/115 
f 12/13/12 15/13/15 379/51/380 108/51/109 
f 97/21/98 400/21/401 381/55/382 94/55/95 
f 16/17/17 19/17/20 383/53/384 113/53/114 
f 107/30/108 401/30/402 385/57/386 104/57/105 
f 6/6/6 7/6/7 387/47/388 98/47/99 
f 102/42/103 402/42/403 389/65/390 99/65/100 
f 2/2/2 78/2/79 391/45/392 93/45/94 
f 398/34/399 121/34/122 120/58/121 373/58/374 
f 11/9/11 62/9/63 363/49/364 375/49/376 
f 399/38/400 125/38/126 124/59/125 377/59/378 
f 15/13/15 66/13/67 365/51/366 379/51/380 
f 400/21/401 129/21/130 128/55/129 381/55/382 
f 19/17/20 70/17/71 367/53/368 383/53/384 
f 401/30/402 133/30/134 132/57/133 385/57/386 
f 7/6/7 75/6/76 369/47/370 387/47/388 
f 402/42/403 137/42/138 136/65/137 389/65/390 
f 78/2/79 80/2/81 371/45/372 391/45/392 
f 96/21/97 393/22/394 44/22/45 43/21/44 
f 393/22/394 167/22/168 21/22/22 44/22/45 
f 167/22/168 166/24/167 23/24/24 21/22/22 
f 166/22/167 134/22/135 81/22/82 23/22/24 
f 134/22/135 137/42/138 82/42/83 81/22/82 
f 137/42/138 402/42/403 24/42/25 82/42/83 
f 402/25/403 102/42/103 25/42/26 24/25/25 
f 102/26/103 101/26/102 47/26/48 25/26/26 
f 101/26/102 394/27/395 48/27/49 47/26/48 
f 394/27/395 161/27/162 26/27/27 48/27/49 
f 161/27/162 160/28/161 27/28/28 26/27/27 
f 160/27/161 130/27/131 76/27/77 27/27/28 
f 130/27/131 133/30/134 77/30/78 76/27/77 
f 133/30/134 401/30/402 28/30/29 77/30/78 
f 401/29/402 107/30/108 29/30/30 28/29/29 
f 107/30/108 106/30/107 51/30/52 29/30/30 
f 106/30/107 395/31/396 52/31/53 51/30/52 
f 395/31/396 143/31/144 30/31/31 52/31/53 
f 143/31/144 142/32/143 31/32/32 30/31/31 
f 142/31/143 118/31/119 63/31/64 31/31/32 
f 118/31/119 121/34/122 64/34/65 63/31/64 
f 121/34/122 398/34/399 32/34/33 64/34/65 
f 398/33/399 112/34/113 33/34/34 32/33/33 
f 112/34/113 111/34/112 55/34/56 33/34/34 
f 111/34/112 396/35/397 56/35/57 55/34/56 
f 396/35/397 149/35/150 34/35/35 56/35/57 
f 149/35/150 148/36/149 35/36/36 34/35/35 
f 148/35/149 122/35/123 67/35/68 35/35/36 
f 122/35/123 125/38/126 68/38/69 67/35/68 
f 125/38/126 399/38/400 36/38/37 68/38/69 
f 399/37/400 117/38/118 37/38/38 36/37/37 
f 117/38/118 116/38/117 59/38/60 37/38/38 
f 116/38/117 397/39/398 60/39/61 59/38/60 
f 397/39/398 155/39/156 38/39/39 60/39/61 
f 155/39/156 154/40/155 39/40/40 38/39/39 
f 154/39/155 126/39/127 71/39/72 39/39/40 
f 126/39/127 129/21/130 72/21/73 71/39/72 
f 129/21/130 400/21/401 40/21/41 72/21/73 
f 400/41/401 97/21/98 20/21/21 40/41/41 
f 97/21/98 96/21/97 43/21/44 20/21/21 
# 382 polygons - 38 triangles

