# 3ds Max Wavefront OBJ Exporter v0.99 - (c)2007 guruware
# File Created: 19.09.2026 03:27:15

mtllib Chocolate Truffle.mtl

#
# object Chocolate_Truffle
#

v  89.8330 5.2263 -31.5238
v  89.8330 4.7588 -33.2682
v  88.9608 4.7588 -33.0345
v  88.3223 4.7588 -32.3960
v  88.0886 4.7588 -31.5238
v  88.3223 4.7588 -30.6516
v  88.9608 4.7588 -30.0131
v  89.8330 4.7588 -29.7794
v  90.7052 4.7588 -30.0131
v  91.3437 4.7588 -30.6516
v  91.5774 4.7588 -31.5238
v  91.3437 4.7588 -32.3960
v  90.7052 4.7588 -33.0345
v  89.8330 3.4818 -34.5452
v  88.3223 3.4818 -34.1404
v  87.2164 3.4818 -33.0345
v  86.8116 3.4818 -31.5238
v  87.2164 3.4818 -30.0131
v  88.3223 3.4818 -28.9072
v  89.8330 3.4818 -28.5024
v  91.3437 3.4818 -28.9072
v  92.4496 3.4818 -30.0131
v  92.8544 3.4818 -31.5238
v  92.4496 3.4818 -33.0345
v  91.3437 3.4818 -34.1404
v  89.8330 1.7374 -35.0127
v  88.0886 1.7374 -34.5452
v  86.8116 1.7374 -33.2682
v  86.3441 1.7374 -31.5238
v  86.8116 1.7374 -29.7794
v  88.0886 1.7374 -28.5024
v  89.8330 1.7374 -28.0349
v  91.5774 1.7374 -28.5024
v  92.8544 1.7374 -29.7794
v  93.3219 1.7374 -31.5238
v  92.8544 1.7374 -33.2682
v  91.5774 1.7374 -34.5452
v  89.8330 0.0000 -34.5452
v  88.3223 0.0000 -34.1404
v  87.2164 0.0000 -33.0345
v  86.8116 0.0000 -31.5238
v  87.2164 0.0000 -30.0131
v  88.3223 0.0000 -28.9072
v  89.8330 0.0000 -28.5024
v  91.3437 0.0000 -28.9072
v  92.4496 0.0000 -30.0131
v  92.8544 0.0000 -31.5238
v  92.4496 0.0000 -33.0345
v  91.3437 0.0000 -34.1404
v  89.8330 0.0000 -31.5238
# 50 vertices

vn -0.0000 1.0000 -0.0000
vn 0.0000 0.8474 -0.5309
vn -0.2654 0.8474 -0.4598
vn -0.4598 0.8474 -0.2654
vn -0.5309 0.8474 -0.0000
vn -0.4598 0.8474 0.2654
vn -0.2655 0.8474 0.4598
vn -0.0000 0.8474 0.5309
vn 0.2654 0.8474 0.4598
vn 0.4598 0.8474 0.2655
vn 0.5309 0.8474 0.0000
vn 0.4598 0.8474 -0.2654
vn 0.2655 0.8474 -0.4598
vn 0.0000 0.4823 -0.8760
vn -0.4380 0.4823 -0.7586
vn -0.7586 0.4823 -0.4380
vn -0.8760 0.4823 -0.0000
vn -0.7586 0.4823 0.4380
vn -0.4380 0.4823 0.7586
vn -0.0000 0.4823 0.8760
vn 0.4380 0.4823 0.7586
vn 0.7586 0.4823 0.4380
vn 0.8760 0.4823 0.0000
vn 0.7586 0.4823 -0.4380
vn 0.4380 0.4823 -0.7586
vn 0.0000 -0.0005 -1.0000
vn -0.5000 -0.0005 -0.8660
vn -0.8660 -0.0005 -0.5000
vn -1.0000 -0.0005 -0.0000
vn -0.8660 -0.0005 0.5000
vn -0.5000 -0.0005 0.8660
vn -0.0000 -0.0005 1.0000
vn 0.5000 -0.0005 0.8660
vn 0.8660 -0.0005 0.5000
vn 1.0000 -0.0005 0.0000
vn 0.8660 -0.0005 -0.5000
vn 0.5000 -0.0005 -0.8660
vn 0.0000 -0.7471 -0.6648
vn -0.3324 -0.7471 -0.5757
vn -0.5757 -0.7471 -0.3324
vn -0.6648 -0.7471 -0.0000
vn -0.5757 -0.7471 0.3324
vn -0.3324 -0.7471 0.5757
vn -0.0000 -0.7471 0.6648
vn 0.3324 -0.7471 0.5757
vn 0.5757 -0.7471 0.3324
vn 0.6648 -0.7471 0.0000
vn 0.5757 -0.7471 -0.3324
vn 0.3324 -0.7471 -0.5757
vn 0.0000 -1.0000 -0.0000
# 50 vertex normals

vt 0.3141 0.3419 0.0000
vt 0.4485 0.3804 0.0000
vt 0.4112 0.4424 0.0000
vt 0.3479 0.4775 0.0000
vt 0.2743 0.4768 0.0000
vt 0.2130 0.4384 0.0000
vt 0.1737 0.3824 0.0000
vt 0.1798 0.3034 0.0000
vt 0.2170 0.2413 0.0000
vt 0.2803 0.2063 0.0000
vt 0.3528 0.2062 0.0000
vt 0.4144 0.2448 0.0000
vt 0.4498 0.3081 0.0000
vt 0.5956 0.4217 0.0000
vt 0.5136 0.5559 0.0000
vt 0.3913 0.6109 0.0000
vt 0.2349 0.6109 0.0000
vt 0.1123 0.5423 0.0000
vt 0.0423 0.4241 0.0000
vt 0.0417 0.2626 0.0000
vt 0.1220 0.1332 0.0000
vt 0.2521 0.0707 0.0000
vt 0.4027 0.0719 0.0000
vt 0.5035 0.1379 0.0000
vt 0.5958 0.2705 0.0000
vt 0.7783 0.5758 0.0000
vt 0.7783 0.4788 0.0000
vt 0.8752 0.4788 0.0000
vt 0.8623 0.5758 0.0000
vt 0.6107 0.7498 0.0000
vt 0.4948 0.7549 0.0000
vt 0.4976 0.6390 0.0000
vt 0.6130 0.6494 0.0000
vt 0.2797 0.9636 0.0000
vt 0.1677 0.9786 0.0000
vt 0.1677 0.8666 0.0000
vt 0.2797 0.8666 0.0000
vt 0.1677 0.7545 0.0000
vt 0.2797 0.7695 0.0000
vt 0.1494 0.6491 0.0000
vt 0.2651 0.6413 0.0000
vt 0.2651 0.7573 0.0000
vt 0.1494 0.7495 0.0000
vt 0.6813 0.7874 0.0000
vt 0.7783 0.7744 0.0000
vt 0.7783 0.8713 0.0000
vt 0.6813 0.8713 0.0000
vt 0.7783 0.9683 0.0000
vt 0.6813 0.9553 0.0000
vt 0.4070 0.9810 0.0000
vt 0.3992 0.8653 0.0000
vt 0.5152 0.8653 0.0000
vt 0.5074 0.9810 0.0000
vt 0.6813 0.5913 0.0000
vt 0.7783 0.5783 0.0000
vt 0.7783 0.6753 0.0000
vt 0.6813 0.6753 0.0000
vt 0.7783 0.7722 0.0000
vt 0.6813 0.7592 0.0000
vt 0.3908 0.7645 0.0000
vt 0.3986 0.8802 0.0000
vt 0.2826 0.8802 0.0000
vt 0.2904 0.7645 0.0000
vt 0.6943 0.5758 0.0000
vt 0.6813 0.4788 0.0000
vt 0.7783 0.3823 0.0000
vt 0.8623 0.3823 0.0000
vt 0.3943 0.7448 0.0000
vt 0.3967 0.6444 0.0000
vt 0.0561 0.9636 0.0000
vt 0.0561 0.8666 0.0000
vt 0.0561 0.7695 0.0000
vt 0.3659 0.6491 0.0000
vt 0.3659 0.7495 0.0000
vt 0.8749 0.7874 0.0000
vt 0.8749 0.8713 0.0000
vt 0.8749 0.9553 0.0000
vt 0.4070 0.7645 0.0000
vt 0.5074 0.7645 0.0000
vt 0.8749 0.5913 0.0000
vt 0.8749 0.6753 0.0000
vt 0.8749 0.7592 0.0000
vt 0.3908 0.9810 0.0000
vt 0.2904 0.9810 0.0000
vt 0.6943 0.3823 0.0000
vt 0.8371 0.3412 0.0000
vt 0.7586 0.3425 0.0000
vt 0.7953 0.1917 0.0000
vt 0.9043 0.3008 0.0000
vt 0.9423 0.2321 0.0000
vt 0.9410 0.1537 0.0000
vt 0.9006 0.0864 0.0000
vt 0.8319 0.0484 0.0000
vt 0.7535 0.0498 0.0000
vt 0.6862 0.0864 0.0000
vt 0.6482 0.1551 0.0000
vt 0.6496 0.2373 0.0000
vt 0.6900 0.3045 0.0000
# 98 texture coords

o Chocolate_Truffle
g Chocolate_Truffle
usemtl wire_153228153
s 1
f 1/1/1 2/2/2 3/3/3 
f 1/1/1 3/3/3 4/4/4 
f 1/1/1 4/4/4 5/5/5 
f 1/1/1 5/5/5 6/6/6 
f 1/1/1 6/6/6 7/7/7 
f 1/1/1 7/7/7 8/8/8 
f 1/1/1 8/8/8 9/9/9 
f 1/1/1 9/9/9 10/10/10 
f 1/1/1 10/10/10 11/11/11 
f 1/1/1 11/11/11 12/12/12 
f 1/1/1 12/12/12 13/13/13 
f 1/1/1 13/13/13 2/2/2 
f 2/2/2 14/14/14 15/15/15 3/3/3 
f 3/3/3 15/15/15 16/16/16 4/4/4 
f 4/4/4 16/16/16 17/17/17 5/5/5 
f 5/5/5 17/17/17 18/18/18 6/6/6 
f 6/6/6 18/18/18 19/19/19 7/7/7 
f 7/7/7 19/19/19 20/20/20 8/8/8 
f 8/8/8 20/20/20 21/21/21 9/9/9 
f 9/9/9 21/21/21 22/22/22 10/10/10 
f 10/10/10 22/22/22 23/23/23 11/11/11 
f 11/11/11 23/23/23 24/24/24 12/12/12 
f 12/12/12 24/24/24 25/25/25 13/13/13 
f 13/13/13 25/25/25 14/14/14 2/2/2 
f 14/26/14 26/27/26 27/28/27 15/29/15 
f 15/30/15 27/31/27 28/32/28 16/33/16 
f 16/34/16 28/35/28 29/36/29 17/37/17 
f 17/37/17 29/36/29 30/38/30 18/39/18 
f 18/40/18 30/41/30 31/42/31 19/43/19 
f 19/44/19 31/45/31 32/46/32 20/47/20 
f 20/47/20 32/46/32 33/48/33 21/49/21 
f 21/50/21 33/51/33 34/52/34 22/53/22 
f 22/54/22 34/55/34 35/56/35 23/57/23 
f 23/57/23 35/56/35 36/58/36 24/59/24 
f 24/60/24 36/61/36 37/62/37 25/63/25 
f 25/64/25 37/65/37 26/27/26 14/26/14 
f 26/27/26 38/66/38 39/67/39 27/28/27 
f 27/31/27 39/68/39 40/69/40 28/32/28 
f 28/35/28 40/70/40 41/71/41 29/36/29 
f 29/36/29 41/71/41 42/72/42 30/38/30 
f 30/41/30 42/73/42 43/74/43 31/42/31 
f 31/45/31 43/75/43 44/76/44 32/46/32 
f 32/46/32 44/76/44 45/77/45 33/48/33 
f 33/51/33 45/78/45 46/79/46 34/52/34 
f 34/55/34 46/80/46 47/81/47 35/56/35 
f 35/56/35 47/81/47 48/82/48 36/58/36 
f 36/61/36 48/83/48 49/84/49 37/62/37 
f 37/65/37 49/85/49 38/66/38 26/27/26 
s off
f 39/86/39 38/87/38 50/88/50 
f 40/89/40 39/86/39 50/88/50 
f 41/90/41 40/89/40 50/88/50 
f 42/91/42 41/90/41 50/88/50 
f 43/92/43 42/91/42 50/88/50 
f 44/93/44 43/92/43 50/88/50 
f 45/94/45 44/93/44 50/88/50 
f 46/95/46 45/94/45 50/88/50 
f 47/96/47 46/95/46 50/88/50 
f 48/97/48 47/96/47 50/88/50 
f 49/98/49 48/97/48 50/88/50 
f 38/87/38 49/98/49 50/88/50 
# 36 polygons - 24 triangles

