# 3ds Max Wavefront OBJ Exporter v0.99 - (c)2007 guruware
# File Created: 19.09.2026 03:27:41

mtllib Chocolate Chip.mtl

#
# object Chocolate_Chip
#

v  87.2209 2.6358 -10.3151
v  87.5266 2.8507 -10.4574
v  87.5374 2.7804 -10.4383
v  87.5454 2.7290 -10.3862
v  87.5483 2.7101 -10.3151
v  87.5454 2.7290 -10.2439
v  87.5374 2.7804 -10.1918
v  87.5266 2.8507 -10.1728
v  87.5157 2.9211 -10.1918
v  87.5077 2.9725 -10.2439
v  87.5048 2.9914 -10.3151
v  87.5077 2.9725 -10.3862
v  87.5157 2.9211 -10.4383
v  88.5394 0.8881 -12.2035
v  88.5394 -0.0000 -12.3390
v  87.5274 -0.0000 -12.0678
v  87.5951 0.8881 -11.9505
v  86.7866 -0.0000 -11.3270
v  86.9039 0.8881 -11.2593
v  86.5154 -0.0000 -10.3151
v  86.6509 0.8881 -10.3151
v  86.7866 -0.0000 -9.3031
v  86.9039 0.8881 -9.3708
v  87.5274 -0.0000 -8.5623
v  87.5951 0.8881 -8.6796
v  88.5394 -0.0000 -8.2912
v  88.5394 0.8881 -8.4266
v  89.5513 -0.0000 -8.5623
v  89.4836 0.8881 -8.6796
v  90.2921 -0.0000 -9.3031
v  90.1748 0.8881 -9.3708
v  90.5633 -0.0000 -10.3151
v  90.4278 0.8881 -10.3151
v  90.2921 -0.0000 -11.3270
v  90.1748 0.8881 -11.2593
v  89.5513 -0.0000 -12.0678
v  89.4836 0.8881 -11.9505
v  88.5394 -0.0000 -10.3151
v  87.9237 1.5731 -11.5930
v  88.6553 1.6694 -11.7907
v  87.3882 1.5027 -11.0529
v  87.1922 1.4769 -10.3151
v  87.3882 1.5027 -9.5772
v  87.9237 1.5731 -9.0371
v  88.6553 1.6694 -8.8394
v  89.3868 1.7656 -9.0371
v  89.9223 1.8361 -9.5772
v  90.1183 1.8619 -10.3151
v  89.9223 1.8361 -11.0529
v  89.3868 1.7656 -11.5930
v  88.0078 2.2415 -10.8999
v  88.3032 2.4051 -10.9904
v  87.7916 2.1218 -10.6527
v  87.7124 2.0779 -10.3151
v  87.7916 2.1218 -9.9774
v  88.0078 2.2415 -9.7302
v  88.3032 2.4051 -9.6397
v  88.5986 2.5687 -9.7302
v  88.8148 2.6884 -9.9774
v  88.8940 2.7323 -10.3151
v  88.8148 2.6884 -10.6527
v  88.5986 2.5687 -10.8999
v  87.9165 2.6297 -10.6354
v  88.0320 2.7741 -10.6850
v  87.8319 2.5240 -10.5000
v  87.8009 2.4853 -10.3151
v  87.8319 2.5240 -10.1301
v  87.9165 2.6297 -9.9947
v  88.0320 2.7741 -9.9451
v  88.1476 2.9186 -9.9947
v  88.2322 3.0243 -10.1301
v  88.2632 3.0630 -10.3151
v  88.2322 3.0243 -10.5000
v  88.1476 2.9186 -10.6354
# 74 vertices

vn -0.8460 -0.5332 -0.0000
vn -0.4156 -0.0118 -0.9095
vn -0.3629 -0.4732 -0.8027
vn -0.3050 -0.8261 -0.4739
vn -0.2814 -0.9596 -0.0000
vn -0.3050 -0.8261 0.4739
vn -0.3629 -0.4732 0.8027
vn -0.4156 -0.0118 0.9095
vn -0.4426 0.4409 0.7808
vn -0.4543 0.7696 0.4488
vn -0.4580 0.8889 -0.0000
vn -0.4542 0.7696 -0.4488
vn -0.4426 0.4409 -0.7808
vn -0.0082 0.3064 -0.9519
vn 0.0000 -0.5957 -0.8032
vn -0.4016 -0.5957 -0.6956
vn -0.4732 0.3580 -0.8050
vn -0.6956 -0.5957 -0.4016
vn -0.7961 0.3992 -0.4548
vn -0.8032 -0.5957 -0.0000
vn -0.9099 0.4149 -0.0000
vn -0.6956 -0.5957 0.4016
vn -0.7961 0.3992 0.4548
vn -0.4016 -0.5957 0.6956
vn -0.4732 0.3580 0.8050
vn -0.0000 -0.5957 0.8032
vn -0.0082 0.3064 0.9519
vn 0.4016 -0.5957 0.6956
vn 0.4767 0.2619 0.8391
vn 0.6956 -0.5957 0.4016
vn 0.8401 0.2340 0.4893
vn 0.8032 -0.5957 0.0000
vn 0.9744 0.2247 0.0000
vn 0.6956 -0.5957 -0.4016
vn 0.8401 0.2340 -0.4893
vn 0.4016 -0.5957 -0.6956
vn 0.4767 0.2619 -0.8391
vn -0.0000 -1.0000 -0.0000
vn -0.4311 0.6211 -0.6545
vn -0.0449 0.5893 -0.8067
vn -0.6703 0.6535 -0.3516
vn -0.7450 0.6671 -0.0000
vn -0.6703 0.6535 0.3516
vn -0.4311 0.6211 0.6545
vn -0.0449 0.5893 0.8067
vn 0.3800 0.5727 0.7264
vn 0.7024 0.5696 0.4268
vn 0.8215 0.5702 0.0000
vn 0.7024 0.5696 -0.4268
vn 0.3800 0.5727 -0.7264
vn -0.6496 0.4801 -0.5895
vn -0.3022 0.5644 -0.7682
vn -0.8345 0.4677 -0.2915
vn -0.8782 0.4783 -0.0000
vn -0.8345 0.4677 0.2915
vn -0.6496 0.4801 0.5895
vn -0.3022 0.5644 0.7682
vn 0.1006 0.6942 0.7127
vn 0.4120 0.8061 0.4248
vn 0.5277 0.8494 0.0000
vn 0.4120 0.8061 -0.4248
vn 0.1006 0.6942 -0.7127
vn -0.6738 0.0608 -0.7365
vn -0.3822 0.3658 -0.8486
vn -0.8861 -0.1711 -0.4307
vn -0.9654 -0.2608 -0.0000
vn -0.8861 -0.1711 0.4307
vn -0.6738 0.0608 0.7365
vn -0.3822 0.3658 0.8486
vn -0.0855 0.6701 0.7373
vn 0.1332 0.8945 0.4267
vn 0.2132 0.9770 0.0000
vn 0.1332 0.8945 -0.4267
vn -0.0855 0.6701 -0.7373
# 74 vertex normals

vt 0.4945 0.4665 0.0000
vt 0.4733 0.4285 0.0000
vt 0.4816 0.4281 0.0000
vt 0.1113 0.0353 0.0000
vt 0.0724 0.0539 0.0000
vt 0.0723 0.0453 0.0000
vt 0.3562 0.0565 0.0000
vt 0.3940 0.0482 0.0000
vt 0.3943 0.0565 0.0000
vt 0.3940 0.0648 0.0000
vt 0.0593 0.0576 0.0000
vt 0.0439 0.0948 0.0000
vt 0.0354 0.0935 0.0000
vt 0.4237 0.5673 0.0000
vt 0.3868 0.5504 0.0000
vt 0.3881 0.5422 0.0000
vt 0.3893 0.5340 0.0000
vt 0.4731 0.0304 0.0000
vt 0.4355 0.0633 0.0000
vt 0.4288 0.0581 0.0000
vt 0.0730 0.0576 0.0000
vt 0.0730 0.0978 0.0000
vt 0.0644 0.0982 0.0000
vt 0.0567 0.0943 0.0000
vt 0.0295 0.4503 0.0000
vt 0.0644 0.4115 0.0000
vt 0.0685 0.4191 0.0000
vt 0.4651 0.4289 0.0000
vt 0.7133 0.3350 0.0000
vt 0.8162 0.3458 0.0000
vt 0.8039 0.4631 0.0000
vt 0.7018 0.4445 0.0000
vt 0.1634 0.6985 0.0000
vt 0.1518 0.7965 0.0000
vt 0.0311 0.7808 0.0000
vt 0.0508 0.6838 0.0000
vt 0.3505 0.6784 0.0000
vt 0.3426 0.5748 0.0000
vt 0.4605 0.5748 0.0000
vt 0.4605 0.6784 0.0000
vt 0.5785 0.5748 0.0000
vt 0.5706 0.6784 0.0000
vt 0.6993 0.0919 0.0000
vt 0.7982 0.0893 0.0000
vt 0.7928 0.2109 0.0000
vt 0.6942 0.2054 0.0000
vt 0.3801 0.7710 0.0000
vt 0.3880 0.8746 0.0000
vt 0.2700 0.8746 0.0000
vt 0.2700 0.7710 0.0000
vt 0.1520 0.8746 0.0000
vt 0.1599 0.7710 0.0000
vt 0.8140 0.5797 0.0000
vt 0.8099 0.4750 0.0000
vt 0.9320 0.4750 0.0000
vt 0.9279 0.5797 0.0000
vt 0.8372 0.7415 0.0000
vt 0.9407 0.7336 0.0000
vt 0.9407 0.8516 0.0000
vt 0.8372 0.8516 0.0000
vt 0.9407 0.9696 0.0000
vt 0.8372 0.9617 0.0000
vt 0.9325 0.3676 0.0000
vt 0.9365 0.4722 0.0000
vt 0.8144 0.4722 0.0000
vt 0.8185 0.3676 0.0000
vt 0.7248 0.2255 0.0000
vt 0.8286 0.2285 0.0000
vt 0.4874 0.3210 0.0000
vt 0.4282 0.4278 0.0000
vt 0.2585 0.2639 0.0000
vt 0.4853 0.1989 0.0000
vt 0.4224 0.0942 0.0000
vt 0.3156 0.0349 0.0000
vt 0.1934 0.0371 0.0000
vt 0.0887 0.1000 0.0000
vt 0.0295 0.2068 0.0000
vt 0.0317 0.3289 0.0000
vt 0.0946 0.4336 0.0000
vt 0.2014 0.4929 0.0000
vt 0.3235 0.4907 0.0000
vt 0.6263 0.3980 0.0000
vt 0.6241 0.3120 0.0000
vt 0.0836 0.5974 0.0000
vt 0.1725 0.6018 0.0000
vt 0.4605 0.7470 0.0000
vt 0.3745 0.7500 0.0000
vt 0.5466 0.7500 0.0000
vt 0.5974 0.1975 0.0000
vt 0.6085 0.1092 0.0000
vt 0.2565 0.6799 0.0000
vt 0.3418 0.6912 0.0000
vt 0.1712 0.6687 0.0000
vt 0.9241 0.6945 0.0000
vt 0.8354 0.6864 0.0000
vt 0.7237 0.8516 0.0000
vt 0.7267 0.7656 0.0000
vt 0.7267 0.9376 0.0000
vt 0.8400 0.2609 0.0000
vt 0.9287 0.2527 0.0000
vt 0.6218 0.2260 0.0000
vt 0.1339 0.4972 0.0000
vt 0.1680 0.4766 0.0000
vt 0.2493 0.5811 0.0000
vt 0.0940 0.5032 0.0000
vt 0.4605 0.8171 0.0000
vt 0.4212 0.8222 0.0000
vt 0.4999 0.8222 0.0000
vt 0.5010 0.1414 0.0000
vt 0.5139 0.1031 0.0000
vt 0.5637 0.2695 0.0000
vt 0.4749 0.1714 0.0000
vt 0.2631 0.5751 0.0000
vt 0.2975 0.5942 0.0000
vt 0.6719 0.5385 0.0000
vt 0.6158 0.6638 0.0000
vt 0.5776 0.6619 0.0000
vt 0.5833 0.5397 0.0000
vt 0.7497 0.5819 0.0000
vt 0.6505 0.6845 0.0000
vt 0.7957 0.6581 0.0000
vt 0.6724 0.7185 0.0000
vt 0.7976 0.7467 0.0000
vt 0.6757 0.7567 0.0000
vt 0.5345 0.3439 0.0000
vt 0.5191 0.3076 0.0000
vt 0.5499 0.3801 0.0000
vt 0.5037 0.3860 0.0000
vt 0.4884 0.3708 0.0000
vt 0.3924 0.8362 0.0000
vt 0.4390 0.8691 0.0000
vt 0.4232 0.8814 0.0000
vt 0.4605 0.8646 0.0000
vt 0.4821 0.8691 0.0000
vt 0.5287 0.8362 0.0000
vt 0.4979 0.8814 0.0000
vt 0.3320 0.6132 0.0000
vt 0.3291 0.5511 0.0000
vt 0.3426 0.5680 0.0000
vt 0.3157 0.5343 0.0000
vt 0.5814 0.7251 0.0000
vt 0.5632 0.7212 0.0000
vt 0.5995 0.7374 0.0000
vt 0.6125 0.7550 0.0000
vt 0.6170 0.7731 0.0000
vt 0.4730 0.3557 0.0000
vt 0.0295 0.0539 0.0000
vt 0.0410 0.0349 0.0000
vt 0.4274 0.0349 0.0000
vt 0.4238 0.0565 0.0000
vt 0.4274 0.0781 0.0000
vt 0.0498 0.1272 0.0000
vt 0.0295 0.1360 0.0000
vt 0.5286 0.7902 0.0000
vt 0.5323 0.7950 0.0000
vt 0.5380 0.8010 0.0000
vt 0.5442 0.8066 0.0000
vt 0.5492 0.8101 0.0000
# 158 texture coords

o Chocolate_Chip
g Chocolate_Chip
usemtl wire_153228184
s 1
f 1/1/1 2/2/2 3/3/3 
f 1/4/1 3/5/3 4/6/4 
f 1/7/1 4/8/4 5/9/5 
f 1/7/1 5/9/5 6/10/6 
f 1/11/1 6/12/6 7/13/7 
f 1/14/1 7/15/7 8/16/8 
f 1/14/1 8/16/8 9/17/9 
f 1/18/1 9/19/9 10/20/10 
f 1/21/1 10/22/10 11/23/11 
f 1/21/1 11/23/11 12/24/12 
f 1/25/1 12/26/12 13/27/13 
f 1/1/1 13/28/13 2/2/2 
f 14/29/14 15/30/15 16/31/16 17/32/17 
f 17/33/17 16/34/16 18/35/18 19/36/19 
f 19/37/19 18/38/18 20/39/20 21/40/21 
f 21/40/21 20/39/20 22/41/22 23/42/23 
f 23/43/23 22/44/22 24/45/24 25/46/25 
f 25/47/25 24/48/24 26/49/26 27/50/27 
f 27/50/27 26/49/26 28/51/28 29/52/29 
f 29/53/29 28/54/28 30/55/30 31/56/31 
f 31/57/31 30/58/30 32/59/32 33/60/33 
f 33/60/33 32/59/32 34/61/34 35/62/35 
f 35/63/35 34/64/34 36/65/36 37/66/37 
f 37/67/37 36/68/36 15/30/15 14/29/14 
s off
f 16/69/16 15/70/15 38/71/38 
f 18/72/18 16/69/16 38/71/38 
f 20/73/20 18/72/18 38/71/38 
f 22/74/22 20/73/20 38/71/38 
f 24/75/24 22/74/22 38/71/38 
f 26/76/26 24/75/24 38/71/38 
f 28/77/28 26/76/26 38/71/38 
f 30/78/30 28/77/28 38/71/38 
f 32/79/32 30/78/30 38/71/38 
f 34/80/34 32/79/32 38/71/38 
f 36/81/36 34/80/34 38/71/38 
f 15/70/15 36/81/36 38/71/38 
f 14/29/14 17/32/17 39/82/39 40/83/40 
f 17/33/17 19/36/19 41/84/41 39/85/39 
f 19/37/19 21/40/21 42/86/42 41/87/41 
f 21/40/21 23/42/23 43/88/43 42/86/42 
f 23/43/23 25/46/25 44/89/44 43/90/43 
f 25/47/25 27/50/27 45/91/45 44/92/44 
f 27/50/27 29/52/29 46/93/46 45/91/45 
f 29/53/29 31/56/31 47/94/47 46/95/46 
f 31/57/31 33/60/33 48/96/48 47/97/47 
f 33/60/33 35/62/35 49/98/49 48/96/48 
f 35/63/35 37/66/37 50/99/50 49/100/49 
f 37/67/37 14/29/14 40/83/40 50/101/50 
s 1
f 39/85/39 51/102/51 52/103/52 40/104/40 
f 41/84/41 53/105/53 51/102/51 39/85/39 
f 42/86/42 54/106/54 53/107/53 41/87/41 
f 43/88/43 55/108/55 54/106/54 42/86/42 
f 44/89/44 56/109/56 55/110/55 43/90/43 
f 45/111/45 57/112/57 56/109/56 44/89/44 
f 46/93/46 58/113/58 57/114/57 45/91/45 
f 47/115/47 59/116/59 58/117/58 46/118/46 
f 48/119/48 60/120/60 59/116/59 47/115/47 
f 49/121/49 61/122/61 60/120/60 48/119/48 
f 50/123/50 62/124/62 61/122/61 49/121/49 
f 40/83/40 52/125/52 62/126/62 50/101/50 
s off
f 52/125/52 51/127/51 63/128/63 64/129/64 
f 51/130/51 53/107/53 65/131/65 63/132/63 
f 53/107/53 54/106/54 66/133/66 65/131/65 
f 54/106/54 55/108/55 67/134/67 66/133/66 
f 55/108/55 56/135/56 68/136/68 67/134/67 
f 56/137/56 57/114/57 69/138/69 68/139/68 
f 57/114/57 58/113/58 70/140/70 69/138/69 
f 58/117/58 59/116/59 71/141/71 70/142/70 
f 59/116/59 60/120/60 72/143/72 71/141/71 
f 60/120/60 61/122/61 73/144/73 72/143/72 
f 61/122/61 62/124/62 74/145/74 73/144/73 
f 62/126/62 52/125/52 64/129/64 74/146/74 
s 1
f 2/2/2 64/129/64 63/128/63 3/3/3 
f 3/5/3 63/147/63 65/148/65 4/6/4 
f 4/8/4 65/149/65 66/150/66 5/9/5 
f 5/9/5 66/150/66 67/151/67 6/10/6 
f 6/12/6 67/152/67 68/153/68 7/13/7 
f 7/15/7 68/139/68 69/138/69 8/16/8 
f 8/16/8 69/138/69 70/140/70 9/17/9 
f 9/154/9 70/142/70 71/141/71 10/155/10 
f 10/155/10 71/141/71 72/143/72 11/156/11 
f 11/156/11 72/143/72 73/144/73 12/157/12 
f 12/157/12 73/144/73 74/145/74 13/158/13 
f 13/28/13 74/146/74 64/129/64 2/2/2 
# 60 polygons - 24 triangles

