# 3ds Max Wavefront OBJ Exporter v0.99 - (c)2007 guruware
# File Created: 03.09.2025 11:01:07

mtllib Choco Tree.mtl

#
# object Choco_Tree
#

v  44.8146 5.3170 77.2518
v  47.0085 5.3170 76.4533
v  47.1493 5.3170 77.2518
v  47.0085 5.3170 78.0503
v  46.6031 5.3170 75.7511
v  49.2024 5.3170 75.6548
v  49.4840 5.3170 77.2518
v  46.6031 5.3170 78.7525
v  49.2024 5.3170 78.8488
v  45.9820 5.3170 75.2299
v  48.3916 5.3170 74.2504
v  47.6428 12.8921 76.2225
v  47.8243 12.8921 77.2518
v  45.9820 5.3170 79.2737
v  48.3916 5.3170 80.2532
v  47.6428 12.8921 78.2812
v  45.2200 5.3170 74.9526
v  47.1493 5.3170 73.2080
v  47.1201 12.8921 75.3172
v  46.7332 27.6363 76.5535
v  46.8563 27.6363 77.2518
v  45.2200 5.3170 79.5510
v  47.1493 5.3170 81.2956
v  47.1201 12.8921 79.1864
v  46.7332 27.6363 77.9501
v  44.4092 5.3170 74.9526
v  45.6255 5.3170 72.6534
v  46.3194 12.8921 74.6454
v  46.3787 27.6363 75.9394
v  46.7332 39.8444 76.5535
v  46.7827 39.5567 76.8344
v  46.8563 39.6963 77.2518
v  44.4092 5.3170 79.5510
v  45.6255 5.3170 81.8502
v  46.3194 12.8921 79.8582
v  46.3787 27.6363 78.5642
v  46.7938 40.0750 77.6064
v  46.7938 41.5724 77.6064
v  46.8563 41.8222 77.2518
v  46.8563 44.0146 77.2518
v  46.7332 44.0146 77.9501
v  43.6473 5.3170 75.2299
v  44.0038 5.3170 72.6534
v  45.3372 12.8921 74.2879
v  45.8355 27.6363 75.4836
v  46.3787 44.0146 75.9394
v  46.7332 44.0146 76.5535
v  46.7332 41.7245 76.5535
v  46.6618 41.5724 76.4298
v  46.6618 40.0750 76.4298
v  46.9594 40.0750 75.4779
v  47.6772 38.2382 75.9873
v  47.4146 38.2382 76.8274
v  47.6958 38.2382 77.6615
v  46.9895 40.0750 78.1867
v  43.6473 5.3170 79.2737
v  44.0038 5.3170 81.8502
v  45.3372 12.8921 80.2157
v  45.8355 27.6363 79.0200
v  46.3787 44.0146 78.5642
v  46.9895 41.5724 78.1867
v  47.4146 42.7839 76.8274
v  46.7827 41.9143 76.8344
v  47.6958 42.7839 77.6615
v  48.9625 43.0958 77.2518
v  49.0173 43.0650 77.3414
v  49.5509 42.7839 77.9700
v  50.1423 42.5438 77.7369
v  50.3245 42.5017 77.2518
v  57.0689 39.5596 77.2518
v  56.3299 39.5596 81.4430
v  43.0261 5.3170 75.7511
v  42.4799 5.3170 73.2080
v  44.2920 12.8921 74.2879
v  45.1692 27.6363 75.2411
v  45.8355 44.0146 75.4836
v  54.2020 39.5596 69.3749
v  47.6772 42.7839 75.9873
v  46.9594 41.5724 75.4779
v  48.1023 40.0750 74.6281
v  48.3836 38.2382 75.4621
v  48.8387 36.2273 76.8116
v  48.4136 38.2382 78.1709
v  48.1509 40.0750 79.0110
v  43.0261 5.3170 78.7525
v  42.4799 5.3170 81.2956
v  44.2920 12.8921 80.2157
v  45.1692 27.6363 79.2625
v  45.8355 44.0146 79.0200
v  45.8355 41.8113 79.0200
v  45.9845 41.5724 78.8949
v  45.9845 40.0750 78.8949
v  45.8355 39.7129 79.0200
v  54.2020 39.5596 85.1287
v  48.1509 41.5724 79.0110
v  48.8387 43.2467 76.8116
v  48.4136 42.7839 78.1709
v  56.3299 45.1692 73.0606
v  50.1739 42.7839 77.0802
v  49.3300 43.0509 77.1603
v  48.9837 43.0992 77.2418
v  49.2938 42.7839 78.1611
v  49.5751 41.5724 78.9952
v  50.7179 41.5724 78.1453
v  51.1429 41.5724 76.7860
v  50.2628 42.7839 76.7958
v  65.3681 41.2262 77.2518
v  64.1286 41.2262 84.2815
v  42.6207 5.3170 76.4533
v  41.2377 5.3170 74.2504
v  43.3098 12.8921 74.6454
v  44.4601 27.6363 75.2411
v  45.1692 44.0146 75.2411
v  50.9418 39.5596 66.6393
v  48.3836 42.7839 75.4621
v  48.1023 41.5724 74.6281
v  49.5264 40.0750 74.6122
v  49.2637 38.2382 75.4523
v  49.2938 38.2382 78.1611
v  49.5751 40.0750 78.9952
v  42.6207 5.3170 78.0503
v  41.2377 5.3170 80.2532
v  43.3098 12.8921 79.8582
v  44.4601 27.6363 79.2625
v  45.1692 38.7550 79.2625
v  50.9418 39.5596 87.8643
v  45.1692 44.0146 79.2625
v  45.1692 42.4431 79.2625
v  45.6977 42.7839 79.6819
v  46.2151 41.5724 78.9698
v  44.8606 42.5811 79.2625
v  44.8606 42.7839 79.4099
v  46.2151 40.0750 78.9698
v  45.6977 38.2382 79.6819
v  44.8606 38.2382 79.4099
v  44.8606 38.5458 79.2625
v  60.5595 41.2262 90.4634
v  54.5386 46.8358 72.8777
v  50.7179 40.0750 78.1453
v  51.1429 40.0750 76.7860
v  50.6878 41.5724 75.4365
v  49.9815 42.7839 75.9618
v  61.7611 44.9114 77.2518
v  60.7391 44.9114 83.0479
v  42.4799 5.3170 77.2518
v  40.4268 5.3170 75.6548
v  42.5091 12.8921 75.3172
v  43.7938 27.6363 75.4836
v  44.4601 44.0146 75.2411
v  45.5715 43.0038 72.9591
v  46.2151 42.7839 72.6652
v  46.2968 42.6657 72.4108
v  45.8912 42.3309 71.4590
v  45.8389 42.3322 71.4429
v  46.9426 39.5596 65.1837
v  55.0914 41.2262 59.4519
v  60.5595 41.2262 64.0402
v  49.2637 42.7839 75.4523
v  49.5264 41.5724 74.6122
v  50.6878 40.0750 75.4365
v  49.9815 38.2382 75.9618
v  50.0001 38.2382 77.6359
v  40.4268 5.3170 78.8488
v  42.5091 12.8921 79.1864
v  43.7938 27.6363 79.0200
v  44.4601 38.8173 79.2625
v  55.0914 41.2262 95.0517
v  44.4601 44.0146 79.2625
v  44.4601 42.4019 79.2625
v  44.8606 43.2467 80.8341
v  46.2151 42.7839 80.3940
v  47.0522 41.5724 80.1220
v  43.7938 41.7702 79.0200
v  43.6704 41.5724 78.9164
v  43.5061 41.5724 78.9698
v  44.0235 42.7839 79.6819
v  47.0522 40.0750 80.1220
v  46.2151 38.2382 80.3940
v  44.8606 36.2273 80.8341
v  44.0235 38.2382 79.6819
v  43.5061 40.0750 78.9698
v  43.6704 40.0750 78.9164
v  43.7938 39.7752 79.0200
v  57.7964 44.9114 88.1448
v  50.2628 38.2382 76.7958
v  52.8078 49.2753 73.5076
v  51.2457 50.8917 77.2518
v  50.8579 50.8917 79.4514
v  40.1452 5.3170 77.2518
v  41.9865 12.8921 76.2225
v  43.2506 27.6363 75.9394
v  43.7938 44.0146 75.4836
v  42.6867 45.1692 65.1837
v  45.5327 42.7839 71.6717
v  45.5022 42.8920 71.9943
v  45.5085 43.0253 72.6669
v  48.3837 41.2262 57.0105
v  53.2879 44.9114 62.5757
v  57.7964 44.9114 66.3588
v  41.9865 12.8921 78.2812
v  43.2506 27.6363 78.5642
v  46.9426 45.1692 89.3199
v  53.2878 44.9114 91.9279
v  43.7938 44.0146 79.0200
v  46.2151 42.7839 81.2742
v  47.0522 41.5724 81.5462
v  43.2506 44.0146 78.5642
v  42.6690 41.5724 80.1220
v  43.5061 42.7839 80.3940
v  47.0522 40.0750 81.5462
v  46.2151 38.2382 81.2742
v  43.5061 38.2382 80.3940
v  42.6690 40.0750 80.1220
v  49.7411 50.8917 81.3857
v  50.8579 50.8917 75.0522
v  48.0302 50.8917 77.2518
v  47.8363 50.8917 78.3516
v  41.8050 12.8921 77.2518
v  42.8960 27.6363 76.5535
v  43.2506 44.0146 75.9394
v  38.6875 39.5596 66.6393
v  42.8538 46.8358 66.1314
v  47.7573 44.9114 60.5628
v  48.0302 50.8917 71.6823
v  49.7411 50.8917 73.1180
v  42.8960 27.6363 77.9501
v  46.4988 46.8358 86.8030
v  48.0302 50.8917 82.8213
v  42.6867 39.5596 89.3199
v  38.6875 39.5596 87.8643
v  45.6977 42.7839 81.9863
v  46.2151 41.5724 82.6984
v  42.8960 44.0146 77.9501
v  35.4273 39.5596 85.1287
v  42.6690 41.5724 81.5462
v  43.5061 42.7839 81.2742
v  46.2151 40.0750 82.6984
v  45.6977 38.2382 81.9863
v  43.5061 38.2382 81.2742
v  42.6690 40.0750 81.5462
v  47.2779 50.8917 79.3187
v  47.8363 50.8917 76.1520
v  44.8146 50.8917 77.2518
v  42.7729 27.6363 77.2518
v  42.8960 39.6955 76.5535
v  43.0113 40.0750 76.3539
v  43.0113 41.5724 76.3539
v  42.8960 41.8227 76.5535
v  42.8960 44.0146 76.5535
v  35.4273 39.5596 69.3749
v  34.5379 41.2262 59.4519
v  43.1736 49.2753 67.9453
v  45.9314 50.8917 70.9184
v  46.4224 50.8917 74.4670
v  47.2779 50.8917 75.1849
v  46.1789 49.2753 84.9891
v  46.4224 50.8917 80.0366
v  41.2455 41.2262 97.4931
v  34.5379 41.2262 95.0517
v  44.8606 42.7839 82.2583
v  44.8606 41.5724 83.1385
v  42.7729 44.0146 77.2518
v  42.7729 41.9811 77.2518
v  42.8796 41.5724 77.8568
v  42.8796 40.0750 77.8568
v  42.7729 39.4554 77.2518
v  33.2993 39.5596 81.4430
v  29.0697 41.2262 90.4634
v  43.5061 41.5724 82.6984
v  44.0235 42.7839 81.9863
v  44.8606 40.0750 83.1385
v  44.8606 38.2382 82.2583
v  44.0235 38.2382 81.9863
v  43.5061 40.0750 82.6984
v  42.8388 39.3487 76.8782
v  42.3066 38.2382 76.8842
v  42.0253 38.2382 76.0501
v  42.7317 40.0750 75.5249
v  42.7317 41.5724 75.5249
v  42.3066 42.7839 76.8842
v  42.8388 42.0514 76.8782
v  42.0253 42.7839 76.0501
v  33.2993 39.5596 73.0606
v  29.0697 41.2262 64.0402
v  36.3414 44.9114 62.5757
v  43.6979 50.8917 70.9184
v  45.3730 50.8917 74.0851
v  45.9314 50.8917 83.5852
v  45.3730 50.8917 80.4185
v  41.8719 44.9114 93.9408
v  36.3414 44.9114 91.9279
v  42.0439 42.7839 77.7242
v  42.7617 41.5724 78.2337
v  42.7617 40.0750 78.2337
v  42.0439 38.2382 77.7242
v  25.5006 41.2262 84.2815
v  31.8329 44.9114 88.1448
v  40.8825 36.2273 76.9000
v  41.3076 38.2382 75.5407
v  41.5702 40.0750 74.7006
v  41.5702 41.5724 74.7006
v  40.8825 43.2467 76.9000
v  41.3076 42.7839 75.5407
v  32.5603 45.1692 77.2518
v  25.5006 41.2262 70.2221
v  31.8329 44.9114 66.3588
v  41.5991 50.8917 71.6823
v  44.2562 50.8917 74.0851
v  43.6979 50.8917 83.5852
v  44.2562 50.8917 80.4185
v  41.5991 50.8917 82.8213
v  41.3376 42.7839 78.2495
v  41.6189 41.5724 79.0835
v  41.6189 40.0750 79.0835
v  41.3376 38.2382 78.2495
v  28.8901 44.9114 83.0478
v  39.8881 50.8917 81.3856
v  40.4274 38.2382 75.5504
v  40.1461 40.0750 74.7164
v  40.1461 41.5724 74.7164
v  40.4274 42.7839 75.5504
v  34.1810 46.8358 76.4672
v  28.8901 44.9114 71.4558
v  39.8881 50.8917 73.1180
v  43.2068 50.8917 74.4670
v  43.2068 50.8917 80.0366
v  40.4575 42.7839 78.2593
v  40.1948 41.5724 79.0993
v  40.1948 40.0750 79.0993
v  40.4575 38.2382 78.2593
v  38.7714 50.8917 79.4514
v  42.3514 50.8917 79.3187
v  39.7211 38.2382 76.0757
v  39.0033 40.0750 75.5663
v  39.0033 41.5724 75.5663
v  39.7211 42.7839 76.0757
v  36.0229 49.2753 76.4672
v  38.7714 50.8917 75.0522
v  42.3514 50.8917 75.1849
v  39.7397 42.7839 77.7498
v  39.0334 41.5724 78.2751
v  39.0334 40.0750 78.2751
v  39.7397 38.2382 77.7498
v  41.7930 50.8917 78.3516
v  39.4584 38.2382 76.9158
v  38.5783 40.0750 76.9256
v  38.5783 41.5724 76.9256
v  39.4584 42.7839 76.9158
v  38.3835 50.8917 77.2518
v  41.7930 50.8917 76.1520
v  41.5991 50.8917 77.2518
v  44.8606 43.2467 72.8775
v  44.8606 42.7839 71.4533
v  44.0235 42.7839 71.7253
v  43.5061 42.7839 72.4374
v  44.8606 41.5724 70.5731
v  43.5061 41.5724 71.0132
v  43.5061 42.7839 73.3176
v  42.6690 41.5724 72.1654
v  46.2151 41.5724 71.0132
v  44.8606 40.0749 70.5731
v  43.5061 40.0749 71.0132
v  44.0235 42.7839 74.0297
v  42.6690 41.5724 73.5896
v  42.6690 40.0749 72.1654
v  47.0522 41.5724 72.1654
v  46.2151 40.0749 71.0132
v  46.2151 42.7839 73.3176
v  44.8606 38.2382 71.4533
v  44.0235 38.2382 71.7253
v  44.8606 42.7839 74.3017
v  43.5061 41.5724 74.7418
v  42.6690 40.0749 73.5896
v  43.5061 38.2382 72.4374
v  47.0522 41.5724 73.5896
v  47.0522 40.0749 72.1654
v  45.6977 38.2382 71.7253
v  45.6977 42.7839 74.0297
v  44.8606 36.2273 72.8775
v  44.8606 41.5724 75.1819
v  43.5061 40.0749 74.7418
v  43.5061 38.2382 73.3176
v  46.2151 41.5724 74.7418
v  47.0522 40.0749 73.5896
v  46.2151 38.2382 72.4374
v  44.8606 40.0749 75.1819
v  44.0235 38.2382 74.0297
v  46.2151 40.0749 74.7418
v  46.2151 38.2382 73.3176
v  44.8606 38.2382 74.3017
v  45.6977 38.2382 74.0297
# 391 vertices

vn 0.0000 -1.0000 -0.0000
vn 0.7602 -0.5878 -0.2767
vn 0.8090 -0.5878 0.0000
vn 0.7602 -0.5878 0.2767
vn 0.6197 -0.5878 -0.5200
vn 0.9303 0.1413 -0.3386
vn 0.9900 0.1413 0.0000
vn 0.6197 -0.5878 0.5200
vn 0.9303 0.1413 0.3386
vn 0.4045 -0.5878 -0.7006
vn 0.7584 0.1413 -0.6363
vn 0.9392 0.0329 -0.3418
vn 0.9995 0.0329 0.0000
vn 0.4045 -0.5878 0.7006
vn 0.7584 0.1413 0.6363
vn 0.9392 0.0329 0.3418
vn 0.1405 -0.5878 -0.7967
vn 0.4950 0.1413 -0.8573
vn 0.7656 0.0329 -0.6424
vn 0.9710 0.2085 -0.1173
vn -0.9552 -0.2930 0.0411
vn 0.9792 0.1802 -0.0932
vn 0.1405 -0.5878 0.7967
vn 0.4950 0.1413 0.8573
vn 0.7656 0.0329 0.6424
vn -0.9797 -0.1569 0.1251
vn -0.9626 0.2371 0.1314
vn 0.9608 -0.2602 -0.0956
vn 0.5774 -0.8011 -0.1575
vn 0.4473 -0.8794 0.1628
vn -0.1405 -0.5878 -0.7967
vn 0.1719 0.1413 -0.9749
vn 0.4997 0.0329 -0.8656
vn 0.3647 -0.8794 -0.3060
vn 0.6447 -0.7605 -0.0774
vn 0.9496 -0.2882 -0.1234
vn -0.9747 0.2196 0.0416
vn -0.9877 -0.1463 0.0545
vn -0.7968 -0.2127 -0.5655
vn -0.7064 -0.4997 -0.5013
vn -0.8661 -0.4997 0.0096
vn -0.6951 -0.4997 0.5169
vn -0.7841 -0.2127 0.5831
vn -0.1405 -0.5878 0.7967
vn 0.1719 0.1413 0.9749
vn 0.4997 0.0329 0.8656
vn 0.3647 -0.8794 0.3060
vn -0.7673 0.2925 0.5706
vn -0.6252 0.7804 0.0069
vn -0.9244 0.3772 0.0559
vn -0.5017 0.7804 0.3731
vn -0.2662 -0.8589 -0.4375
vn 0.2082 0.9565 0.2045
vn 0.4131 0.8196 0.3969
vn 0.5709 0.7426 0.3502
vn -0.5034 -0.7541 -0.4217
vn -0.0522 -0.8905 -0.4520
vn -0.0688 -0.9973 -0.0250
vn -0.4045 -0.5878 -0.7006
vn -0.1719 0.1413 -0.9749
vn 0.1736 0.0329 -0.9843
vn 0.2380 -0.8794 -0.4123
vn 0.2218 -0.9080 0.3553
vn -0.5099 0.7804 -0.3619
vn -0.7798 0.2925 -0.5535
vn -0.3122 -0.2127 -0.9259
vn -0.2768 -0.4997 -0.8208
vn -0.0000 -1.0000 0.0000
vn -0.2585 -0.4997 0.8267
vn -0.2916 -0.2127 0.9326
vn -0.4045 -0.5878 0.7006
vn -0.1719 0.1413 0.9749
vn 0.1736 0.0329 0.9843
vn 0.2380 -0.8794 0.4123
vn 0.2159 -0.3064 0.9271
vn -0.1209 0.2161 -0.9689
vn -0.1352 -0.1454 -0.9801
vn 0.2044 0.2234 0.9531
vn -0.0561 -0.9973 -0.0471
vn -0.2854 0.2925 0.9127
vn -0.0000 1.0000 0.0000
vn -0.1866 0.7804 0.5967
vn 0.8284 0.1561 0.5379
vn 0.4836 0.7683 0.4194
vn 0.2903 0.8397 0.4589
vn 0.1802 0.8310 0.5262
vn 0.1998 0.7804 0.5924
vn 0.3056 0.2925 0.9061
vn 0.7798 0.2925 0.5535
vn 0.9562 0.2925 -0.0106
vn 0.6252 0.7804 -0.0069
vn 0.8815 -0.2625 -0.3925
vn 0.9047 -0.2704 0.3293
vn -0.6197 -0.5878 -0.5200
vn -0.4950 0.1413 -0.8573
vn -0.1735 0.0329 -0.9843
vn -0.0548 -0.8010 -0.5961
vn -0.0366 -0.9973 0.0634
vn -0.1998 0.7804 -0.5924
vn -0.3056 0.2925 -0.9061
vn 0.2916 -0.2127 -0.9326
vn 0.2585 -0.4997 -0.8267
vn 0.2768 -0.4997 0.8208
vn 0.3123 -0.2127 0.9259
vn -0.6197 -0.5878 0.5200
vn -0.4950 0.1413 0.8573
vn -0.1736 0.0329 0.9843
vn 0.0157 0.1948 0.9807
vn -0.3885 -0.9080 0.1568
vn -0.0357 -0.7605 0.6484
vn 0.0168 -0.2734 0.9618
vn 0.3675 0.7804 -0.5058
vn 0.5621 0.2925 -0.7737
vn 0.0000 0.3796 -0.9252
vn -0.0000 0.7804 -0.6252
vn 0.5743 -0.2127 -0.7905
vn 0.5091 -0.4997 -0.7008
vn -0.0000 -0.4997 -0.8662
vn -0.0000 -0.2978 -0.9546
vn 0.7375 -0.2704 0.6188
vn 0.7834 0.5910 -0.1925
vn 0.7968 -0.2127 0.5655
vn 0.9771 -0.2127 -0.0108
vn 0.7674 0.2925 -0.5706
vn 0.5017 0.7804 -0.3731
vn 0.6254 0.7333 -0.2669
vn 0.5825 0.7847 0.2120
vn -0.7602 -0.5878 -0.2767
vn -0.7584 0.1413 -0.6363
vn -0.4997 0.0329 -0.8656
vn 0.0357 -0.7605 -0.6484
vn -0.4821 -0.8519 0.2045
vn 0.5097 0.8454 -0.1597
vn 0.5602 0.7768 -0.2877
vn 0.3765 0.7346 -0.5644
vn -0.4812 -0.7491 0.4553
vn -0.4618 -0.8863 -0.0347
vn 0.4814 -0.2704 -0.8338
vn 0.9258 -0.2574 -0.2770
vn 0.1866 0.7804 -0.5967
vn 0.2854 0.2925 -0.9127
vn 0.7841 -0.2127 -0.5831
vn 0.6951 -0.4997 -0.5169
vn 0.7064 -0.4997 0.5013
vn -0.7602 -0.5878 0.2767
vn -0.7584 0.1413 0.6363
vn -0.4997 0.0329 0.8656
vn -0.0157 0.1948 0.9807
vn 0.1087 -0.2555 0.9607
vn 0.0548 -0.8010 0.5961
vn -0.0168 -0.2734 0.9618
vn 0.0000 1.0000 0.0000
vn 0.5946 0.7804 -0.1932
vn 0.9095 0.2925 -0.2955
vn -0.2159 -0.3064 0.9271
vn 0.1210 0.2161 -0.9688
vn -0.5621 0.2925 -0.7736
vn -0.3675 0.7804 -0.5058
vn 0.9293 -0.2127 -0.3019
vn 0.8238 -0.4997 -0.2677
vn -0.5091 -0.4997 -0.7008
vn -0.5743 -0.2127 -0.7905
vn 0.1352 -0.1454 -0.9801
vn -0.2044 0.2234 0.9531
vn 0.4749 0.7847 0.3985
vn 0.8661 -0.4997 -0.0096
vn 0.5468 0.8048 -0.2308
vn 0.2818 0.9595 0.0000
vn 0.2648 0.9595 0.0964
vn -0.8090 -0.5878 -0.0000
vn -0.9303 0.1413 -0.3386
vn -0.7656 0.0329 -0.6424
vn -0.2380 -0.8794 -0.4123
vn 0.5224 -0.0758 -0.8493
vn 0.4597 0.7723 -0.4385
vn 0.4829 0.8458 -0.2266
vn 0.5421 0.8315 -0.1216
vn -0.2389 -0.2633 -0.9347
vn 0.3100 0.7847 -0.5369
vn 0.6819 0.7185 -0.1370
vn -0.9303 0.1413 0.3386
vn -0.7656 0.0329 0.6424
vn -0.5405 0.2340 0.8081
vn -0.0030 0.7150 0.6991
vn -0.2380 -0.8794 0.4123
vn 0.5946 0.7804 0.1932
vn 0.9095 0.2925 0.2955
vn -0.3648 -0.8794 0.3061
vn -0.9095 0.2925 -0.2955
vn -0.5946 0.7804 -0.1932
vn 0.9293 -0.2127 0.3019
vn 0.8238 -0.4997 0.2677
vn -0.8238 -0.4997 -0.2677
vn -0.9293 -0.2127 -0.3019
vn 0.2159 0.9595 0.1812
vn 0.2803 0.9531 -0.1138
vn 0.0000 1.0000 -0.0000
vn -0.9900 0.1413 -0.0000
vn -0.9392 0.0329 -0.3418
vn -0.3647 -0.8794 -0.3060
vn 0.3885 -0.9080 -0.1568
vn -0.1119 0.5138 -0.8506
vn -0.1387 0.7358 -0.6629
vn 0.1409 0.9595 -0.2441
vn 0.2290 0.9568 -0.1789
vn -0.9392 0.0329 0.3418
vn 0.0957 0.6011 0.7935
vn 0.1154 0.9477 0.2976
vn 0.4838 -0.8739 0.0467
vn 0.0366 -0.9973 -0.0634
vn 0.3675 0.7804 0.5058
vn 0.5621 0.2925 0.7736
vn -0.4472 -0.8795 0.1628
vn 0.0561 -0.9973 -0.0471
vn -0.9095 0.2925 0.2955
vn -0.5946 0.7804 0.1932
vn 0.5743 -0.2127 0.7905
vn 0.5091 -0.4997 0.7008
vn -0.8238 -0.4997 0.2677
vn -0.9293 -0.2127 0.3019
vn -0.9995 0.0329 -0.0000
vn -0.9717 0.2102 -0.1077
vn 0.9883 -0.1460 0.0435
vn 0.9752 0.2190 0.0306
vn -0.9500 -0.2903 -0.1149
vn -0.5965 -0.8011 -0.0496
vn 0.0561 -0.9973 0.0471
vn -0.1222 -0.2639 -0.9568
vn -0.0843 0.8331 -0.5466
vn 0.0489 0.9595 -0.2776
vn 0.2896 0.6959 0.6571
vn 0.2631 -0.2544 0.9306
vn -0.4814 -0.2704 0.8338
vn -0.0000 0.7804 0.6252
vn 0.0000 0.2925 0.9563
vn -0.6322 -0.7606 -0.1478
vn -0.9619 -0.2586 -0.0885
vn 0.9637 0.2389 0.1196
vn 0.9808 -0.1582 0.1136
vn -0.9803 0.1782 -0.0855
vn -0.0869 -0.9080 -0.4098
vn -0.7375 -0.2704 0.6188
vn -0.5621 0.2925 0.7736
vn -0.3675 0.7804 0.5058
vn -0.0000 -0.2127 0.9771
vn -0.0000 -0.4997 0.8662
vn -0.5091 -0.4997 0.7008
vn -0.5743 -0.2127 0.7905
vn 0.9562 -0.2917 0.0247
vn 0.9254 0.3766 0.0419
vn -0.1377 -0.8718 0.4701
vn -0.7375 -0.2704 -0.6188
vn -0.1006 0.7366 -0.6689
vn -0.0425 0.9619 -0.2699
vn 0.1317 0.9197 0.3698
vn 0.2622 0.7075 0.6563
vn -0.3100 0.7847 0.5369
vn 0.5099 0.7804 0.3619
vn -0.9637 -0.2628 -0.0476
vn -0.4749 0.7847 0.3985
vn -0.0000 -1.0000 -0.0000
vn -0.7712 -0.0406 -0.6353
vn -0.9615 -0.2555 0.1011
vn -0.4749 0.7847 -0.3985
vn -0.1429 0.9605 -0.2390
vn -0.0489 0.9595 0.2776
vn -0.1409 0.9595 0.2441
vn 0.3122 -0.2127 0.9259
vn -0.6772 0.7352 -0.0318
vn -0.2159 0.9595 0.1812
vn -0.8520 0.5232 0.0152
vn -0.6907 0.7119 0.1268
vn -0.2159 0.9595 -0.1812
vn -0.2808 0.9560 0.0852
vn -0.6192 0.7806 0.0851
vn -0.2648 0.9595 -0.0964
vn -0.7674 0.2925 0.5706
vn -0.9771 -0.2127 0.0108
vn -0.9562 0.2925 0.0106
vn -0.3192 0.9474 0.0218
vn -0.0000 0.2925 -0.9563
vn 0.5621 0.2925 -0.7736
vn 0.0000 -0.2127 -0.9771
vn 0.0000 -0.4997 0.8662
# 284 vertex normals

vt 0.7058 0.5497 0.0000
vt 0.7384 0.5440 0.0000
vt 0.7384 0.5555 0.0000
vt 0.7345 0.5663 0.0000
vt 0.7345 0.5332 0.0000
vt 0.7710 0.5382 0.0000
vt 0.7710 0.5612 0.0000
vt 0.7271 0.5751 0.0000
vt 0.7632 0.5828 0.0000
vt 0.7271 0.5244 0.0000
vt 0.7632 0.5166 0.0000
vt 0.0430 0.0063 0.0000
vt 0.0657 0.0063 0.0000
vt 0.0576 0.1137 0.0000
vt 0.0430 0.1137 0.0000
vt 0.7171 0.5808 0.0000
vt 0.7484 0.6004 0.0000
vt 0.0204 0.0063 0.0000
vt 0.0285 0.1137 0.0000
vt 0.7171 0.5186 0.0000
vt 0.7484 0.4990 0.0000
vt 0.0856 0.0063 0.0000
vt 0.0705 0.1137 0.0000
vt 0.0529 0.3227 0.0000
vt 0.0430 0.3227 0.0000
vt 0.7058 0.5828 0.0000
vt 0.7285 0.6119 0.0000
vt 0.0005 0.0063 0.0000
vt 0.0156 0.1137 0.0000
vt 0.0332 0.3227 0.0000
vt 0.7058 0.5166 0.0000
vt 0.7285 0.4875 0.0000
vt 0.9797 0.0354 0.0000
vt 0.9797 0.0530 0.0000
vt 0.8723 0.0648 0.0000
vt 0.8723 0.0534 0.0000
vt 0.0617 0.3227 0.0000
vt 0.0529 0.4958 0.0000
vt 0.0490 0.4917 0.0000
vt 0.0430 0.4937 0.0000
vt 0.6945 0.5808 0.0000
vt 0.7058 0.6159 0.0000
vt 0.1227 0.0996 0.0000
vt 0.1227 0.0820 0.0000
vt 0.2301 0.1000 0.0000
vt 0.2301 0.1113 0.0000
vt 0.0244 0.3227 0.0000
vt 0.0380 0.4991 0.0000
vt 0.0380 0.5203 0.0000
vt 0.0430 0.5238 0.0000
vt 0.0430 0.5549 0.0000
vt 0.0332 0.5549 0.0000
vt 0.6945 0.5186 0.0000
vt 0.7058 0.4835 0.0000
vt 0.9797 0.0746 0.0000
vt 0.8723 0.0787 0.0000
vt 0.6633 0.0717 0.0000
vt 0.6633 0.0640 0.0000
vt 0.0617 0.5549 0.0000
vt 0.0529 0.5549 0.0000
vt 0.0529 0.5225 0.0000
vt 0.0547 0.5203 0.0000
vt 0.0547 0.4991 0.0000
vt 0.5846 0.9991 0.0000
vt 0.5586 0.9919 0.0000
vt 0.5586 0.9800 0.0000
vt 0.5773 0.9799 0.0000
vt 0.5813 0.9839 0.0000
vt 0.5846 0.9856 0.0000
vt 0.5586 0.9682 0.0000
vt 0.5846 0.9607 0.0000
vt 0.5846 0.9689 0.0000
vt 0.5792 0.9740 0.0000
vt 0.6846 0.5751 0.0000
vt 0.6832 0.6119 0.0000
vt 0.1227 0.1212 0.0000
vt 0.2301 0.1253 0.0000
vt 0.4391 0.1105 0.0000
vt 0.4391 0.1182 0.0000
vt 0.0244 0.5549 0.0000
vt 0.6058 0.9607 0.0000
vt 0.6058 0.9689 0.0000
vt 0.6230 0.9800 0.0000
vt 0.6107 0.9799 0.0000
vt 0.6094 0.9740 0.0000
vt 0.6230 0.9682 0.0000
vt 0.0490 0.5251 0.0000
vt 0.3746 0.9107 0.0000
vt 0.3671 0.9039 0.0000
vt 0.3829 0.8786 0.0000
vt 0.3844 0.8786 0.0000
vt 0.3960 0.8769 0.0000
vt 0.3976 0.8681 0.0000
vt 0.3932 0.8622 0.0000
vt 0.4438 0.7811 0.0000
vt 0.4887 0.8215 0.0000
vt 0.6846 0.5244 0.0000
vt 0.6832 0.4875 0.0000
vt 0.9797 0.0976 0.0000
vt 0.8723 0.0935 0.0000
vt 0.6633 0.0811 0.0000
vt 0.4311 0.0717 0.0000
vt 0.4311 0.0640 0.0000
vt 0.6756 0.1384 0.0000
vt 0.6854 0.1405 0.0000
vt 0.6803 0.2852 0.0000
vt 0.6230 0.9919 0.0000
vt 0.6058 0.9991 0.0000
vt 0.6058 0.9856 0.0000
vt 0.6080 0.9839 0.0000
vt 0.8286 0.4740 0.0000
vt 0.8246 0.4480 0.0000
vt 0.8346 0.4480 0.0000
vt 0.8448 0.4740 0.0000
vt 0.5301 0.9802 0.0000
vt 0.6411 0.7431 0.0000
vt 0.6311 0.7691 0.0000
vt 0.6209 0.7691 0.0000
vt 0.6247 0.7431 0.0000
vt 0.6772 0.5663 0.0000
vt 0.6633 0.6004 0.0000
vt 0.1227 0.1442 0.0000
vt 0.2301 0.1401 0.0000
vt 0.4391 0.1277 0.0000
vt 0.6713 0.1105 0.0000
vt 0.6713 0.1182 0.0000
vt 0.6401 0.1182 0.0000
vt 0.6367 0.1161 0.0000
vt 0.6155 0.1161 0.0000
vt 0.6103 0.1182 0.0000
vt 0.3793 0.9195 0.0000
vt 0.5170 0.8748 0.0000
vt 0.6411 0.7218 0.0000
vt 0.6247 0.7218 0.0000
vt 0.1885 0.5212 0.0000
vt 0.2006 0.5050 0.0000
vt 0.2078 0.5151 0.0000
vt 0.2845 0.1634 0.0000
vt 0.2884 0.1843 0.0000
vt 0.2682 0.1843 0.0000
vt 0.2720 0.1634 0.0000
vt 0.0063 0.2566 0.0000
vt 0.0162 0.2586 0.0000
vt 0.0111 0.4033 0.0000
vt 0.1890 0.3125 0.0000
vt 0.1867 0.1772 0.0000
vt 0.2669 0.1751 0.0000
vt 0.2154 0.2658 0.0000
vt 0.2112 0.2675 0.0000
vt 0.2062 0.2790 0.0000
vt 0.2050 0.2838 0.0000
vt 0.2050 0.2841 0.0000
vt 0.2077 0.5276 0.0000
vt 0.2002 0.5376 0.0000
vt 0.1931 0.5276 0.0000
vt 0.1926 0.5262 0.0000
vt 0.1923 0.5264 0.0000
vt 0.1959 0.5390 0.0000
vt 0.4138 0.1984 0.0000
vt 0.4184 0.1984 0.0000
vt 0.4222 0.2192 0.0000
vt 0.4020 0.2192 0.0000
vt 0.4051 0.2025 0.0000
vt 0.7838 0.1203 0.0000
vt 0.7896 0.1341 0.0000
vt 0.7703 0.1341 0.0000
vt 0.7705 0.1169 0.0000
vt 0.7745 0.1169 0.0000
vt 0.7769 0.1209 0.0000
vt 0.5062 0.6814 0.0000
vt 0.5814 0.7491 0.0000
vt 0.6772 0.5332 0.0000
vt 0.6633 0.4990 0.0000
vt 0.9797 0.1192 0.0000
vt 0.8723 0.1075 0.0000
vt 0.6633 0.0912 0.0000
vt 0.4311 0.0811 0.0000
vt 0.6953 0.1391 0.0000
vt 0.7401 0.2768 0.0000
vt 0.8053 0.2402 0.0000
vt 0.8036 0.1169 0.0000
vt 0.8875 0.1305 0.0000
vt 0.1888 0.5010 0.0000
vt 0.0858 0.5160 0.0000
vt 0.0820 0.4952 0.0000
vt 0.1022 0.4952 0.0000
vt 0.0983 0.5160 0.0000
vt 0.8286 0.4953 0.0000
vt 0.8448 0.4953 0.0000
vt 0.8084 0.4740 0.0000
vt 0.8121 0.4480 0.0000
vt 0.1045 0.4309 0.0000
vt 0.0982 0.3966 0.0000
vt 0.1107 0.3966 0.0000
vt 0.4073 0.0126 0.0000
vt 0.3729 0.0188 0.0000
vt 0.3729 0.0063 0.0000
vt 0.6085 0.7691 0.0000
vt 0.6045 0.7431 0.0000
vt 0.6732 0.5555 0.0000
vt 0.6485 0.5828 0.0000
vt 0.1227 0.1658 0.0000
vt 0.2301 0.1540 0.0000
vt 0.4391 0.1377 0.0000
vt 0.5967 0.1277 0.0000
vt 0.3807 0.9295 0.0000
vt 0.5254 0.9345 0.0000
vt 0.6713 0.1277 0.0000
vt 0.6490 0.1277 0.0000
vt 0.2913 0.9918 0.0000
vt 0.2741 0.9991 0.0000
vt 0.2741 0.9958 0.0000
vt 0.2775 0.9937 0.0000
vt 0.2865 0.9843 0.0000
vt 0.2884 0.9799 0.0000
vt 0.2913 0.9799 0.0000
vt 0.2529 0.9991 0.0000
vt 0.2529 0.9958 0.0000
vt 0.2269 0.9918 0.0000
vt 0.2269 0.9799 0.0000
vt 0.2312 0.9799 0.0000
vt 0.2342 0.9843 0.0000
vt 0.2478 0.9937 0.0000
vt 0.6289 0.8384 0.0000
vt 0.6045 0.7218 0.0000
vt 0.6209 0.7047 0.0000
vt 0.6085 0.7047 0.0000
vt 0.0645 0.4428 0.0000
vt 0.0857 0.5403 0.0000
vt 0.0651 0.5684 0.0000
vt 0.1805 0.5387 0.0000
vt 0.1765 0.5374 0.0000
vt 0.1884 0.5297 0.0000
vt 0.5883 0.7431 0.0000
vt 0.5883 0.7218 0.0000
vt 0.7896 0.1553 0.0000
vt 0.7703 0.1553 0.0000
vt 0.7512 0.1341 0.0000
vt 0.7587 0.1169 0.0000
vt 0.8945 0.9818 0.0000
vt 0.7861 0.9954 0.0000
vt 0.8958 0.8618 0.0000
vt 0.1977 0.3652 0.0000
vt 0.1977 0.4663 0.0000
vt 0.1251 0.4575 0.0000
vt 0.1251 0.3740 0.0000
vt 0.6732 0.5440 0.0000
vt 0.6485 0.5166 0.0000
vt 0.9797 0.1368 0.0000
vt 0.8723 0.1188 0.0000
vt 0.6633 0.1006 0.0000
vt 0.4311 0.0912 0.0000
vt 0.7042 0.1343 0.0000
vt 0.7244 0.1602 0.0000
vt 0.7214 0.1698 0.0000
vt 0.7233 0.1731 0.0000
vt 0.7372 0.1778 0.0000
vt 0.7379 0.1774 0.0000
vt 0.7934 0.2484 0.0000
vt 0.7764 0.3887 0.0000
vt 0.6762 0.4027 0.0000
vt 0.5306 0.1576 0.0000
vt 0.4706 0.2374 0.0000
vt 0.3788 0.1602 0.0000
vt 0.1768 0.5047 0.0000
vt 0.8121 0.5124 0.0000
vt 0.8084 0.4953 0.0000
vt 0.8246 0.5124 0.0000
vt 0.7919 0.4740 0.0000
vt 0.8020 0.4480 0.0000
vt 0.8182 0.4195 0.0000
vt 0.6149 0.7976 0.0000
vt 0.5984 0.7691 0.0000
vt 0.6406 0.5612 0.0000
vt 0.1227 0.1834 0.0000
vt 0.2301 0.1654 0.0000
vt 0.4391 0.1472 0.0000
vt 0.5938 0.1320 0.0000
vt 0.5976 0.1377 0.0000
vt 0.3786 0.9393 0.0000
vt 0.6430 0.9386 0.0000
vt 0.6713 0.1377 0.0000
vt 0.6484 0.1377 0.0000
vt 0.6510 0.1320 0.0000
vt 0.2143 0.8539 0.0000
vt 0.2345 0.8539 0.0000
vt 0.2306 0.8658 0.0000
vt 0.0218 0.6964 0.0000
vt 0.0180 0.6756 0.0000
vt 0.0381 0.6756 0.0000
vt 0.0343 0.6964 0.0000
vt 0.2859 0.9742 0.0000
vt 0.2769 0.9648 0.0000
vt 0.2741 0.9630 0.0000
vt 0.2741 0.9607 0.0000
vt 0.2913 0.9680 0.0000
vt 0.5755 0.5996 0.0000
vt 0.5755 0.6208 0.0000
vt 0.5592 0.6208 0.0000
vt 0.5592 0.5996 0.0000
vt 0.5794 0.6469 0.0000
vt 0.5693 0.6469 0.0000
vt 0.1984 0.9799 0.0000
vt 0.2269 0.9680 0.0000
vt 0.2529 0.9607 0.0000
vt 0.2529 0.9630 0.0000
vt 0.2487 0.9648 0.0000
vt 0.2351 0.9742 0.0000
vt 0.1737 0.2701 0.0000
vt 0.1053 0.2956 0.0000
vt 0.6348 0.2972 0.0000
vt 0.6566 0.1576 0.0000
vt 0.6573 0.3092 0.0000
vt 0.1693 0.5272 0.0000
vt 0.7824 0.1813 0.0000
vt 0.7705 0.1813 0.0000
vt 0.7512 0.1553 0.0000
vt 0.2613 0.3846 0.0000
vt 0.2651 0.4055 0.0000
vt 0.2449 0.4055 0.0000
vt 0.2488 0.3846 0.0000
vt 0.3747 0.9375 0.0000
vt 0.2408 0.8118 0.0000
vt 0.2368 0.7687 0.0000
vt 0.3495 0.8689 0.0000
vt 0.6440 0.3179 0.0000
vt 0.6585 0.4000 0.0000
vt 0.5095 0.4000 0.0000
vt 0.5040 0.3689 0.0000
vt 0.6406 0.5382 0.0000
vt 0.0878 0.0856 0.0000
vt 0.0878 0.0657 0.0000
vt 0.1952 0.0576 0.0000
vt 0.1952 0.0705 0.0000
vt 0.6633 0.1083 0.0000
vt 0.4311 0.1006 0.0000
vt 0.3219 0.0063 0.0000
vt 0.3198 0.0162 0.0000
vt 0.1751 0.0111 0.0000
vt 0.9831 0.3555 0.0000
vt 0.9995 0.4981 0.0000
vt 0.9200 0.4981 0.0000
vt 0.9593 0.4093 0.0000
vt 0.9657 0.4061 0.0000
vt 0.9672 0.4015 0.0000
vt 0.9691 0.3920 0.0000
vt 0.9688 0.3878 0.0000
vt 0.8658 0.3411 0.0000
vt 0.1285 0.6390 0.0000
vt 0.0677 0.6896 0.0000
vt 0.0180 0.6415 0.0000
vt 0.0681 0.5998 0.0000
vt 0.1694 0.5147 0.0000
vt 0.7919 0.4953 0.0000
vt 0.7587 0.1813 0.0000
vt 0.0126 0.4893 0.0000
vt 0.0188 0.5237 0.0000
vt 0.0063 0.5237 0.0000
vt 0.3264 0.0126 0.0000
vt 0.3608 0.0063 0.0000
vt 0.3608 0.0188 0.0000
vt 0.0878 0.0204 0.0000
vt 0.0878 0.0005 0.0000
vt 0.1952 0.0156 0.0000
vt 0.1952 0.0285 0.0000
vt 0.4391 0.1549 0.0000
vt 0.6112 0.1472 0.0000
vt 0.1407 0.9529 0.0000
vt 0.0071 0.9847 0.0000
vt 0.0063 0.9025 0.0000
vt 0.3712 0.7343 0.0000
vt 0.2915 0.6743 0.0000
vt 0.3687 0.5824 0.0000
vt 0.1285 0.1925 0.0000
vt 0.0681 0.2317 0.0000
vt 0.0162 0.2404 0.0000
vt 0.0063 0.2383 0.0000
vt 0.0114 0.0936 0.0000
vt 0.6713 0.1472 0.0000
vt 0.6395 0.1472 0.0000
vt 0.2205 0.8731 0.0000
vt 0.2306 0.8421 0.0000
vt 0.5918 0.5824 0.0000
vt 0.5957 0.5996 0.0000
vt 0.5794 0.5824 0.0000
vt 0.6155 0.1489 0.0000
vt 0.6367 0.1489 0.0000
vt 0.6713 0.1549 0.0000
vt 0.4079 0.2255 0.0000
vt 0.4287 0.2216 0.0000
vt 0.4287 0.2418 0.0000
vt 0.4079 0.2380 0.0000
vt 0.5957 0.6208 0.0000
vt 0.5918 0.6469 0.0000
vt 0.4539 0.0126 0.0000
vt 0.4195 0.0188 0.0000
vt 0.4195 0.0063 0.0000
vt 0.5090 0.6760 0.0000
vt 0.4829 0.6659 0.0000
vt 0.4829 0.6558 0.0000
vt 0.5090 0.6597 0.0000
vt 0.6023 0.2456 0.0000
vt 0.4881 0.3414 0.0000
vt 0.9112 0.0438 0.0000
vt 0.7628 0.0448 0.0000
vt 0.8184 0.0180 0.0000
vt 0.7707 0.2098 0.0000
vt 0.9371 0.0192 0.0000
vt 0.5316 0.4531 0.0000
vt 0.5040 0.4312 0.0000
vt 0.4639 0.4000 0.0000
vt 0.4611 0.3844 0.0000
vt 0.0878 0.0430 0.0000
vt 0.1952 0.0430 0.0000
vt 0.4042 0.0529 0.0000
vt 0.4042 0.0617 0.0000
vt 0.4311 0.1083 0.0000
vt 0.9822 0.7653 0.0000
vt 0.9723 0.7632 0.0000
vt 0.9774 0.6186 0.0000
vt 0.6142 0.5946 0.0000
vt 0.5824 0.4610 0.0000
vt 0.6646 0.4602 0.0000
vt 0.7774 0.5381 0.0000
vt 0.7512 0.4418 0.0000
vt 0.7623 0.4208 0.0000
vt 0.7628 0.6981 0.0000
vt 0.7639 0.5941 0.0000
vt 0.8809 0.6908 0.0000
vt 0.0951 0.9330 0.0000
vt 0.0063 0.8944 0.0000
vt 0.0457 0.8334 0.0000
vt 0.1189 0.8652 0.0000
vt 0.6023 0.5545 0.0000
vt 0.5384 0.6081 0.0000
vt 0.4639 0.4790 0.0000
vt 0.4881 0.4586 0.0000
vt 0.4042 0.0244 0.0000
vt 0.4042 0.0332 0.0000
vt 0.3030 0.0980 0.0000
vt 0.1634 0.0762 0.0000
vt 0.3323 0.0767 0.0000
vt 0.0924 0.2845 0.0000
vt 0.0953 0.4300 0.0000
vt 0.0645 0.3806 0.0000
vt 0.5384 0.1920 0.0000
vt 0.4639 0.3211 0.0000
vt 0.4010 0.8240 0.0000
vt 0.3846 0.6814 0.0000
vt 0.4641 0.6814 0.0000
vt 0.6751 0.7121 0.0000
vt 0.6818 0.7047 0.0000
vt 0.8046 0.7814 0.0000
vt 0.7643 0.8262 0.0000
vt 0.2081 0.8731 0.0000
vt 0.2205 0.8347 0.0000
vt 0.1158 0.3438 0.0000
vt 0.1196 0.3647 0.0000
vt 0.0994 0.3647 0.0000
vt 0.1033 0.3438 0.0000
vt 0.6364 0.0244 0.0000
vt 0.6364 0.0332 0.0000
vt 0.6662 0.7168 0.0000
vt 0.7110 0.8545 0.0000
vt 0.5302 0.6760 0.0000
vt 0.5302 0.6597 0.0000
vt 0.5474 0.6558 0.0000
vt 0.5302 0.6395 0.0000
vt 0.5474 0.6434 0.0000
vt 0.6120 0.5996 0.0000
vt 0.6120 0.6208 0.0000
vt 0.6019 0.6469 0.0000
vt 0.5856 0.6754 0.0000
vt 0.7105 0.0475 0.0000
vt 0.7448 0.0412 0.0000
vt 0.7448 0.0537 0.0000
vt 0.4829 0.6434 0.0000
vt 0.5090 0.6395 0.0000
vt 0.4532 0.3707 0.0000
vt 0.4611 0.4156 0.0000
vt 0.4183 0.4000 0.0000
vt 0.4042 0.0430 0.0000
vt 0.5752 0.0529 0.0000
vt 0.5805 0.0558 0.0000
vt 0.6018 0.0558 0.0000
vt 0.6053 0.0529 0.0000
vt 0.6364 0.0529 0.0000
vt 0.6364 0.0617 0.0000
vt 0.9624 0.7646 0.0000
vt 0.9176 0.6270 0.0000
vt 0.1634 0.6331 0.0000
vt 0.2234 0.5533 0.0000
vt 0.3153 0.6305 0.0000
vt 0.6232 0.4503 0.0000
vt 0.9778 0.1402 0.0000
vt 0.8469 0.2500 0.0000
vt 0.8036 0.2505 0.0000
vt 0.9073 0.1597 0.0000
vt 0.4600 0.6366 0.0000
vt 0.4341 0.4898 0.0000
vt 0.4411 0.4395 0.0000
vt 0.4532 0.4293 0.0000
vt 0.1857 0.2969 0.0000
vt 0.1518 0.2030 0.0000
vt 0.1849 0.1751 0.0000
vt 0.0655 0.2624 0.0000
vt 0.4376 0.2903 0.0000
vt 0.4411 0.3606 0.0000
vt 0.9044 0.8437 0.0000
vt 0.8367 0.9189 0.0000
vt 0.1980 0.8658 0.0000
vt 0.2081 0.8347 0.0000
vt 0.5941 0.6773 0.0000
vt 0.6113 0.6773 0.0000
vt 0.6113 0.6965 0.0000
vt 0.5941 0.6892 0.0000
vt 0.6364 0.0430 0.0000
vt 0.6076 0.0430 0.0000
vt 0.6018 0.0345 0.0000
vt 0.5805 0.0345 0.0000
vt 0.5718 0.0430 0.0000
vt 0.6563 0.7182 0.0000
vt 0.6512 0.8629 0.0000
vt 0.7473 0.9664 0.0000
vt 0.1068 0.4665 0.0000
vt 0.1107 0.4873 0.0000
vt 0.0905 0.4873 0.0000
vt 0.0944 0.4665 0.0000
vt 0.6325 0.6773 0.0000
vt 0.6325 0.6965 0.0000
vt 0.6585 0.6773 0.0000
vt 0.6585 0.6892 0.0000
vt 0.5935 0.0126 0.0000
vt 0.5592 0.0188 0.0000
vt 0.5592 0.0063 0.0000
vt 0.4544 0.6496 0.0000
vt 0.4829 0.6333 0.0000
vt 0.5090 0.6232 0.0000
vt 0.5702 0.0483 0.0000
vt 0.0954 0.1320 0.0000
vt 0.0953 0.1163 0.0000
vt 0.1071 0.1163 0.0000
vt 0.1146 0.1423 0.0000
vt 0.1028 0.1423 0.0000
vt 0.1000 0.1370 0.0000
vt 0.1146 0.1636 0.0000
vt 0.1028 0.1636 0.0000
vt 0.0953 0.1807 0.0000
vt 0.0954 0.1704 0.0000
vt 0.1000 0.1671 0.0000
vt 0.1071 0.1807 0.0000
vt 0.6086 0.0483 0.0000
vt 0.9535 0.7694 0.0000
vt 0.8644 0.6553 0.0000
vt 0.8813 0.5151 0.0000
vt 0.9815 0.5010 0.0000
vt 0.6665 0.4115 0.0000
vt 0.7794 0.3904 0.0000
vt 0.3950 0.5320 0.0000
vt 0.4025 0.4898 0.0000
vt 0.4262 0.4449 0.0000
vt 0.8927 0.7289 0.0000
vt 0.9062 0.8372 0.0000
vt 0.7745 0.7279 0.0000
vt 0.6150 0.9474 0.0000
vt 0.4358 0.9995 0.0000
vt 0.3957 0.9829 0.0000
vt 0.0991 0.4463 0.0000
vt 0.0762 0.4725 0.0000
vt 0.0762 0.4428 0.0000
vt 0.4341 0.3103 0.0000
vt 0.4262 0.3551 0.0000
vt 0.3179 0.7050 0.0000
vt 0.3907 0.7753 0.0000
vt 0.3339 0.8213 0.0000
vt 0.2738 0.7633 0.0000
vt 0.1941 0.8539 0.0000
vt 0.1980 0.8421 0.0000
vt 0.5941 0.6654 0.0000
vt 0.6113 0.6581 0.0000
vt 0.6465 0.7161 0.0000
vt 0.0834 0.1807 0.0000
vt 0.0762 0.1636 0.0000
vt 0.0815 0.1636 0.0000
vt 0.0901 0.1694 0.0000
vt 0.0762 0.1423 0.0000
vt 0.0815 0.1423 0.0000
vt 0.0834 0.1163 0.0000
vt 0.0901 0.1336 0.0000
vt 0.6471 0.9805 0.0000
vt 0.2328 0.6562 0.0000
vt 0.2037 0.7231 0.0000
vt 0.5302 0.6232 0.0000
vt 0.6325 0.6581 0.0000
vt 0.6585 0.6654 0.0000
vt 0.6870 0.6773 0.0000
vt 0.5004 0.0126 0.0000
vt 0.4661 0.0188 0.0000
vt 0.4661 0.0063 0.0000
vt 0.0951 0.0878 0.0000
vt 0.5846 0.2105 0.0000
vt 0.5586 0.2005 0.0000
vt 0.5586 0.1903 0.0000
vt 0.5846 0.1940 0.0000
vt 0.6058 0.2105 0.0000
vt 0.6058 0.1940 0.0000
vt 0.1743 0.8529 0.0000
vt 0.1863 0.8367 0.0000
vt 0.1935 0.8469 0.0000
vt 0.4234 0.2658 0.0000
vt 0.4195 0.2449 0.0000
vt 0.4397 0.2449 0.0000
vt 0.4358 0.2658 0.0000
vt 0.0220 0.4266 0.0000
vt 0.0121 0.4245 0.0000
vt 0.0172 0.2798 0.0000
vt 0.1295 0.8637 0.0000
vt 0.1285 0.7163 0.0000
vt 0.2065 0.7350 0.0000
vt 0.7919 0.5626 0.0000
vt 0.9797 0.3233 0.0000
vt 0.9502 0.4200 0.0000
vt 0.8846 0.3905 0.0000
vt 0.9089 0.3107 0.0000
vt 0.2982 0.6081 0.0000
vt 0.3727 0.4790 0.0000
vt 0.4104 0.4449 0.0000
vt 0.8575 0.0064 0.0000
vt 0.6523 0.0546 0.0000
vt 0.7849 0.0063 0.0000
vt 0.5426 0.9374 0.0000
vt 0.3671 0.9724 0.0000
vt 0.4025 0.3103 0.0000
vt 0.4104 0.3551 0.0000
vt 0.2982 0.1920 0.0000
vt 0.3766 0.1634 0.0000
vt 0.3727 0.3211 0.0000
vt 0.3508 0.9531 0.0000
vt 0.2025 0.9561 0.0000
vt 0.2252 0.8792 0.0000
vt 0.1745 0.8328 0.0000
vt 0.3123 0.1798 0.0000
vt 0.2915 0.1836 0.0000
vt 0.2915 0.1634 0.0000
vt 0.3123 0.1673 0.0000
vt 0.0749 0.7044 0.0000
vt 0.0749 0.7256 0.0000
vt 0.0587 0.7256 0.0000
vt 0.0587 0.7044 0.0000
vt 0.0789 0.7516 0.0000
vt 0.0689 0.7516 0.0000
vt 0.1111 0.8896 0.0000
vt 0.1456 0.6348 0.0000
vt 0.1319 0.7055 0.0000
vt 0.2343 0.2456 0.0000
vt 0.3485 0.3414 0.0000
vt 0.1175 0.4309 0.0000
vt 0.1113 0.3966 0.0000
vt 0.1238 0.3966 0.0000
vt 0.5586 0.1778 0.0000
vt 0.5846 0.1738 0.0000
vt 0.6058 0.1738 0.0000
vt 0.1934 0.8594 0.0000
vt 0.6230 0.1903 0.0000
vt 0.6230 0.1778 0.0000
vt 0.3031 0.0991 0.0000
vt 0.3987 0.0703 0.0000
vt 0.4177 0.0995 0.0000
vt 0.7479 0.6174 0.0000
vt 0.7387 0.7209 0.0000
vt 0.6348 0.6175 0.0000
vt 0.9044 0.5047 0.0000
vt 0.8468 0.4603 0.0000
vt 0.2343 0.5545 0.0000
vt 0.3485 0.4586 0.0000
vt 0.3955 0.4395 0.0000
vt 0.3955 0.3606 0.0000
vt 0.1626 0.8365 0.0000
vt 0.0914 0.6872 0.0000
vt 0.0951 0.7044 0.0000
vt 0.0789 0.6872 0.0000
vt 0.0951 0.7256 0.0000
vt 0.0914 0.7516 0.0000
vt 0.0126 0.4428 0.0000
vt 0.0188 0.4771 0.0000
vt 0.0063 0.4771 0.0000
vt 0.1656 0.5195 0.0000
vt 0.1562 0.6333 0.0000
vt 0.1523 0.4970 0.0000
vt 0.1227 0.5896 0.0000
vt 0.1925 0.3179 0.0000
vt 0.3326 0.3689 0.0000
vt 0.3834 0.3707 0.0000
vt 0.5301 0.1843 0.0000
vt 0.5586 0.1678 0.0000
vt 0.5846 0.1576 0.0000
vt 0.6058 0.1576 0.0000
vt 0.1860 0.8694 0.0000
vt 0.1158 0.5126 0.0000
vt 0.1196 0.5335 0.0000
vt 0.0994 0.5335 0.0000
vt 0.1033 0.5126 0.0000
vt 0.0063 0.6810 0.0000
vt 0.0913 0.8030 0.0000
vt 0.0874 0.8424 0.0000
vt 0.0170 0.7435 0.0000
vt 0.1925 0.4822 0.0000
vt 0.3326 0.4312 0.0000
vt 0.3834 0.4293 0.0000
vt 0.1551 0.8465 0.0000
vt 0.0858 0.5684 0.0000
vt 0.0820 0.5475 0.0000
vt 0.1022 0.5475 0.0000
vt 0.0983 0.5684 0.0000
vt 0.1115 0.7044 0.0000
vt 0.1115 0.7256 0.0000
vt 0.1015 0.7516 0.0000
vt 0.0853 0.7801 0.0000
vt 0.1236 0.4777 0.0000
vt 0.2937 0.4112 0.0000
vt 0.3755 0.3844 0.0000
vt 0.1175 0.4659 0.0000
vt 0.1113 0.4315 0.0000
vt 0.1238 0.4315 0.0000
vt 0.2042 0.4042 0.0000
vt 0.2114 0.3782 0.0000
vt 0.2233 0.3782 0.0000
vt 0.2235 0.4042 0.0000
vt 0.2042 0.4254 0.0000
vt 0.2235 0.4254 0.0000
vt 0.1740 0.8731 0.0000
vt 0.2114 0.4426 0.0000
vt 0.2233 0.4426 0.0000
vt 0.3271 0.4000 0.0000
vt 0.3755 0.4156 0.0000
vt 0.1550 0.8590 0.0000
vt 0.2426 0.4254 0.0000
vt 0.2351 0.4426 0.0000
vt 0.2426 0.4042 0.0000
vt 0.2351 0.3782 0.0000
vt 0.1045 0.4659 0.0000
vt 0.0982 0.4315 0.0000
vt 0.1107 0.4315 0.0000
vt 0.3727 0.4000 0.0000
vt 0.2231 0.3497 0.0000
vt 0.1622 0.8691 0.0000
vt 0.0255 0.6026 0.0000
vt 0.0137 0.6190 0.0000
vt 0.0063 0.6089 0.0000
vt 0.0063 0.5964 0.0000
vt 0.0232 0.6221 0.0000
vt 0.0255 0.6181 0.0000
vt 0.9159 0.9780 0.0000
vt 0.9159 0.9608 0.0000
vt 0.9351 0.9608 0.0000
vt 0.9278 0.9780 0.0000
vt 0.0137 0.5863 0.0000
vt 0.5883 0.2197 0.0000
vt 0.6091 0.2158 0.0000
vt 0.6091 0.2360 0.0000
vt 0.5883 0.2322 0.0000
vt 0.9013 0.9716 0.0000
vt 0.8967 0.9608 0.0000
vt 0.9064 0.9780 0.0000
vt 0.9020 0.9716 0.0000
vt 0.0312 0.6104 0.0000
vt 0.9159 0.9396 0.0000
vt 0.9351 0.9396 0.0000
vt 0.0255 0.5824 0.0000
vt 0.9352 0.7570 0.0000
vt 0.9390 0.7742 0.0000
vt 0.9188 0.7742 0.0000
vt 0.9227 0.7570 0.0000
vt 0.9554 0.7742 0.0000
vt 0.9554 0.7954 0.0000
vt 0.9390 0.7954 0.0000
vt 0.0505 0.6013 0.0000
vt 0.0471 0.5824 0.0000
vt 0.0672 0.5824 0.0000
vt 0.0648 0.5955 0.0000
vt 0.8967 0.9396 0.0000
vt 0.0447 0.6089 0.0000
vt 0.0393 0.6164 0.0000
vt 0.0344 0.6076 0.0000
vt 0.9159 0.9136 0.0000
vt 0.9278 0.9136 0.0000
vt 0.0374 0.5863 0.0000
vt 0.0102 0.6732 0.0000
vt 0.0063 0.6523 0.0000
vt 0.0265 0.6523 0.0000
vt 0.0227 0.6732 0.0000
vt 0.9188 0.7954 0.0000
vt 0.9453 0.8215 0.0000
vt 0.9352 0.8215 0.0000
vt 0.9669 0.9780 0.0000
vt 0.9576 0.9780 0.0000
vt 0.9538 0.9608 0.0000
vt 0.9740 0.9608 0.0000
vt 0.9705 0.9763 0.0000
vt 0.9740 0.9396 0.0000
vt 0.9903 0.9396 0.0000
vt 0.9903 0.9608 0.0000
vt 0.9040 0.9136 0.0000
vt 0.0447 0.5964 0.0000
vt 0.9159 0.8851 0.0000
vt 0.1807 0.9860 0.0000
vt 0.1636 0.9933 0.0000
vt 0.1636 0.9741 0.0000
vt 0.1807 0.9741 0.0000
vt 0.9025 0.7954 0.0000
vt 0.9025 0.7742 0.0000
vt 0.9227 0.8215 0.0000
vt 0.5470 0.0126 0.0000
vt 0.5126 0.0188 0.0000
vt 0.5126 0.0063 0.0000
vt 0.7136 0.4720 0.0000
vt 0.6927 0.4758 0.0000
vt 0.6927 0.4556 0.0000
vt 0.7136 0.4595 0.0000
vt 0.9538 0.9396 0.0000
vt 0.9701 0.9136 0.0000
vt 0.9802 0.9136 0.0000
vt 0.1636 0.9549 0.0000
vt 0.1807 0.9622 0.0000
vt 0.1423 0.9933 0.0000
vt 0.1423 0.9741 0.0000
vt 0.9126 0.8215 0.0000
vt 0.9289 0.8500 0.0000
vt 0.9374 0.9608 0.0000
vt 0.9374 0.9396 0.0000
vt 0.9576 0.9136 0.0000
vt 0.6639 0.0533 0.0000
vt 0.6983 0.0471 0.0000
vt 0.6983 0.0595 0.0000
vt 0.1423 0.9549 0.0000
vt 0.1163 0.9860 0.0000
vt 0.1163 0.9741 0.0000
vt 0.9374 0.0242 0.0000
vt 0.9718 0.0180 0.0000
vt 0.9718 0.0304 0.0000
vt 0.9475 0.9136 0.0000
vt 0.9639 0.8851 0.0000
vt 0.1163 0.9622 0.0000
vt 0.0878 0.9741 0.0000
vt 0.9902 0.0354 0.0000
vt 0.9965 0.0698 0.0000
vt 0.9840 0.0698 0.0000
# 847 texture coords

o Choco_Tree
g Choco_Tree
usemtl wire_049103130
s 1
f 1/1/1 2/2/1 3/3/1 
f 1/1/1 3/3/1 4/4/1 
f 1/1/1 5/5/1 2/2/1 
f 3/3/1 2/2/1 6/6/2 7/7/3 
f 1/1/1 4/4/1 8/8/1 
f 4/4/1 3/3/1 7/7/3 9/9/4 
f 1/1/1 10/10/1 5/5/1 
f 2/2/1 5/5/1 11/11/5 6/6/2 
s 8
f 7/12/3 6/13/2 12/14/6 13/15/7 
s 1
f 1/1/1 8/8/1 14/16/1 
f 8/8/1 4/4/1 9/9/4 15/17/8 
s 8
f 9/18/4 7/12/3 13/15/7 16/19/9 
s 1
f 1/1/1 17/20/1 10/10/1 
f 5/5/1 10/10/1 18/21/10 11/11/5 
s 8
f 6/13/2 11/22/5 19/23/11 12/14/6 
s 2
f 13/15/7 12/14/6 20/24/12 21/25/13 
s 1
f 1/1/1 14/16/1 22/26/1 
f 14/16/1 8/8/1 15/17/8 23/27/14 
s 8
f 15/28/8 9/18/4 16/19/9 24/29/15 
s 2
f 16/19/9 13/15/7 21/25/13 25/30/16 
s 1
f 1/1/1 26/31/1 17/20/1 
f 10/10/1 17/20/1 27/32/17 18/21/10 
s 8
f 11/33/5 18/34/10 28/35/18 19/36/11 
s 2
f 12/14/6 19/23/11 29/37/19 20/24/12 
f 21/25/13 20/24/12 30/38/20 31/39/21 32/40/22 
s 1
f 1/1/1 22/26/1 33/41/1 
f 22/26/1 14/16/1 23/27/14 34/42/23 
s 8
f 23/43/14 15/44/8 24/45/15 35/46/24 
s 2
f 24/29/15 16/19/9 25/30/16 36/47/25 
f 25/30/16 21/25/13 32/40/22 37/48/26 38/49/27 39/50/28 40/51/29 41/52/30 
s 1
f 1/1/1 42/53/1 26/31/1 
f 17/20/1 26/31/1 43/54/31 27/32/17 
s 8
f 18/34/10 27/55/17 44/56/32 28/35/18 
s 2
f 19/36/11 28/35/18 45/57/33 29/58/19 
f 20/24/12 29/37/19 46/59/34 47/60/35 48/61/36 49/62/37 50/63/38 30/38/20 
s 64
f 51/64/39 52/65/40 53/66/41 31/67/21 30/68/20 50/69/38 
f 31/67/21 53/66/41 54/70/42 55/71/43 37/72/26 32/73/22 
s 1
f 1/1/1 33/41/1 56/74/1 
f 33/41/1 22/26/1 34/42/23 57/75/44 
s 8
f 34/76/23 23/43/14 35/46/24 58/77/45 
s 2
f 35/46/24 24/45/15 36/78/25 59/79/46 
f 36/47/25 25/30/16 41/52/30 60/80/47 
s 64
f 37/72/26 55/71/43 61/81/48 38/82/27 
f 62/83/49 63/84/50 39/85/28 38/82/27 61/81/48 64/86/51 
s 2
f 48/61/36 47/60/35 40/51/29 39/50/28 63/87/50 
s 4
f 41/88/30 40/89/29 65/90/52 66/91/53 67/92/54 68/93/55 69/94/56 70/95/57 71/96/58 
s 1
f 1/1/1 72/97/1 42/53/1 
f 26/31/1 42/53/1 73/98/59 43/54/31 
s 8
f 27/55/17 43/99/31 74/100/60 44/56/32 
s 2
f 28/35/18 44/56/32 75/101/61 45/57/33 
f 29/58/19 45/57/33 76/102/62 46/103/34 
s 4
f 47/104/35 46/105/34 77/106/63 
s 64
f 78/107/64 79/108/65 49/109/37 48/110/36 63/84/50 62/83/49 
f 49/109/37 79/108/65 51/64/39 50/69/38 
f 80/111/66 81/112/67 52/113/40 51/114/39 
f 82/115/68 53/66/41 52/65/40 
f 82/115/68 54/70/42 53/66/41 
f 55/116/43 54/117/42 83/118/69 84/119/70 
s 1
f 1/1/1 56/74/1 85/120/1 
f 56/74/1 33/41/1 57/75/44 86/121/71 
s 8
f 57/122/44 34/76/23 58/77/45 87/123/72 
s 2
f 58/77/45 35/46/24 59/79/46 88/124/73 
f 59/79/46 36/78/25 60/125/47 89/126/74 90/127/75 91/128/76 92/129/77 93/130/78 
s 4
f 60/131/47 41/88/30 71/96/58 94/132/79 
s 64
f 61/133/48 55/116/43 84/119/70 95/134/80 
f 96/135/81 62/136/49 64/137/51 
f 64/138/51 61/139/48 95/140/80 97/141/82 
s 4
f 40/142/29 47/143/35 98/144/83 
f 40/145/29 98/146/83 70/147/57 69/148/56 99/149/84 100/150/85 101/151/86 65/152/52 
s 64
f 96/135/81 97/153/82 102/154/87 66/155/53 65/156/52 101/157/86 
f 66/155/53 102/154/87 67/158/54 
f 67/159/54 102/160/87 103/161/88 104/162/89 68/163/55 
f 68/164/55 104/165/89 105/166/90 106/167/91 99/168/84 69/169/56 
s 2
f 71/96/58 70/95/57 107/170/92 108/171/93 
s 1
f 1/1/1 109/172/1 72/97/1 
f 42/53/1 72/97/1 110/173/94 73/98/59 
s 8
f 43/99/31 73/174/59 111/175/95 74/100/60 
s 2
f 44/56/32 74/100/60 112/176/96 75/101/61 
f 45/57/33 75/101/61 113/177/97 76/102/62 
s 4
f 46/105/34 76/178/62 114/179/98 77/106/63 
f 47/180/35 77/181/63 98/182/83 
s 64
f 96/135/81 78/183/64 62/136/49 
f 115/184/99 116/185/100 79/186/65 78/187/64 
f 116/188/100 80/111/66 51/114/39 79/189/65 
f 117/190/101 118/191/102 81/112/67 80/111/66 
f 82/192/68 52/193/40 81/194/67 
f 82/195/68 83/196/69 54/197/42 
f 84/119/70 83/118/69 119/198/103 120/199/104 
s 1
f 1/1/1 85/120/1 121/200/1 
f 85/120/1 56/74/1 86/121/71 122/201/105 
s 8
f 86/202/71 57/122/44 87/123/72 123/203/106 
s 2
f 87/123/72 58/77/45 88/124/73 124/204/107 
f 88/124/73 59/79/46 93/130/78 125/205/108 
s 4
f 89/206/74 60/131/47 94/132/79 126/207/109 
s 2
f 90/127/75 89/126/74 127/208/110 128/209/111 
s 32
f 129/210/112 130/211/113 91/212/76 90/213/75 128/214/111 131/215/114 132/216/115 
f 91/212/76 130/211/113 133/217/116 92/218/77 
f 133/217/116 134/219/117 135/220/118 136/221/119 125/222/108 93/223/78 92/218/77 
s 2
f 94/132/79 71/96/58 108/171/93 137/224/120 
s 64
f 95/134/80 84/119/70 120/199/104 103/225/88 
f 96/135/81 64/137/51 97/153/82 
f 97/226/82 95/134/80 103/225/88 102/227/87 
s 2
f 70/228/57 98/229/83 138/230/121 
s 64
f 99/231/84 106/232/91 96/135/81 100/233/85 
f 96/135/81 101/157/86 100/233/85 
f 103/225/88 120/199/104 139/234/122 104/235/89 
f 104/165/89 139/236/122 140/237/123 105/166/90 
f 106/167/91 105/166/90 141/238/124 142/239/125 
s 2
f 70/240/57 138/241/121 107/242/92 
s 4
f 108/243/93 107/244/92 143/245/126 144/246/127 
s 1
f 1/1/1 145/247/1 109/172/1 
f 72/97/1 109/172/1 146/248/128 110/173/94 
s 8
f 73/174/59 110/249/94 147/250/129 111/175/95 
s 2
f 74/100/60 111/175/95 148/251/130 112/176/96 
f 75/101/61 112/176/96 149/252/131 113/177/97 
s 4
f 76/178/62 113/253/97 150/254/132 151/255/133 152/256/134 153/257/135 154/258/136 155/259/137 114/179/98 
s 2
f 77/106/63 114/179/98 156/260/138 157/261/139 
f 98/262/83 77/263/63 157/264/139 
s 64
f 96/135/81 115/265/99 78/183/64 
f 158/266/140 159/267/141 116/188/100 115/268/99 
f 159/267/141 117/190/101 80/111/66 116/188/100 
f 160/269/142 161/270/143 118/191/102 117/190/101 
f 82/271/68 81/112/67 118/191/102 
f 82/272/68 119/198/103 83/118/69 
f 120/199/104 119/198/103 162/273/144 139/234/122 
s 1
f 1/1/1 121/200/1 145/247/1 
f 121/200/1 85/120/1 122/201/105 163/274/145 
s 8
f 122/275/105 86/202/71 123/203/106 164/276/146 
s 2
f 123/203/106 87/123/72 124/204/107 165/277/147 
f 124/204/107 88/124/73 125/205/108 136/278/119 166/279/148 
s 4
f 127/280/110 89/206/74 126/207/109 
s 2
f 126/207/109 94/132/79 137/224/120 167/281/149 
f 128/209/111 127/208/110 168/282/150 169/283/151 131/284/114 
s 32
f 170/285/152 129/286/112 132/287/115 
f 171/288/153 172/289/154 130/290/113 129/291/112 
f 132/216/115 131/215/114 169/292/151 173/293/155 174/294/156 175/295/157 176/296/158 
f 172/297/154 177/298/159 133/299/116 130/300/113 
f 177/298/159 178/301/160 134/302/117 133/299/116 
f 179/303/68 135/220/118 134/219/117 
f 136/221/119 135/220/118 180/304/161 181/305/162 182/306/163 183/307/164 166/308/148 
s 4
f 137/309/120 108/243/93 144/246/127 184/310/165 
s 2
f 98/311/83 157/312/139 138/313/121 
s 64
f 96/135/81 106/232/91 142/314/125 
f 139/236/122 162/315/144 185/316/166 140/237/123 
f 105/166/90 140/237/123 160/317/142 141/238/124 
f 142/318/125 141/319/124 159/320/141 158/321/140 
s 4
f 107/322/92 138/323/121 186/324/167 
f 107/322/92 186/324/167 143/325/126 
s 2
f 144/326/127 143/327/126 187/328/168 188/329/169 
s 1
f 109/172/1 145/247/1 189/330/170 146/248/128 
s 8
f 110/331/94 146/332/128 190/333/171 147/334/129 
s 2
f 111/175/95 147/250/129 191/335/172 148/251/130 
f 112/176/96 148/251/130 192/336/173 149/252/131 
s 4
f 113/337/97 149/338/131 193/339/174 
f 113/340/97 193/341/174 155/342/137 154/343/136 194/344/175 195/345/176 196/346/177 150/347/132 
s 2
f 114/179/98 155/259/137 197/348/178 156/260/138 
s 4
f 157/349/139 156/350/138 198/351/179 199/352/180 
s 64
f 96/135/81 158/353/140 115/265/99 
f 141/354/124 160/269/142 117/190/101 159/267/141 
f 140/237/123 185/316/166 161/355/143 160/317/142 
f 82/356/68 118/357/102 161/358/143 
f 82/359/68 162/360/144 119/361/103 
s 1
f 145/247/1 121/200/1 163/274/145 189/330/170 
s 8
f 163/362/145 122/363/105 164/364/146 200/365/181 
s 2
f 164/276/146 123/203/106 165/277/147 201/366/182 
f 165/277/147 124/204/107 166/279/148 183/367/164 
s 4
f 127/368/110 126/369/109 202/370/183 
s 2
f 202/371/183 126/372/109 167/373/149 
s 4
f 167/374/149 137/309/120 184/310/165 203/375/184 
f 168/376/150 127/377/110 202/378/183 
s 2
f 169/283/151 168/282/150 204/379/185 173/380/155 
s 32
f 170/285/152 132/287/115 176/381/158 
f 170/285/152 171/382/153 129/286/112 
f 205/383/186 206/384/187 172/297/154 171/385/153 
s 2
f 201/366/182 165/277/147 183/367/164 182/386/163 174/387/156 173/380/155 204/379/185 207/388/188 
s 32
f 182/306/163 181/305/162 175/295/157 174/294/156 
f 176/389/158 175/390/157 208/391/189 209/392/190 
f 206/384/187 210/393/191 177/298/159 172/297/154 
f 210/393/191 211/394/192 178/301/160 177/298/159 
f 179/395/68 134/396/117 178/397/160 
f 179/303/68 180/304/161 135/220/118 
f 181/398/162 180/399/161 212/400/193 213/401/194 
s 2
f 184/402/165 144/326/127 188/329/169 214/403/195 
s 4
f 138/404/121 157/405/139 199/406/180 
s 64
f 96/135/81 142/314/125 158/353/140 
f 82/407/68 185/316/166 162/315/144 
s 4
f 138/404/121 199/406/180 186/408/167 
s 2
f 143/327/126 186/409/167 215/410/196 
f 143/327/126 215/410/196 187/328/168 
s 1
f 188/329/169 187/328/168 216/411/197 217/412/197 
s 8
f 146/332/128 189/413/170 218/414/198 190/333/171 
s 2
f 147/334/129 190/333/171 219/415/199 191/416/172 
f 148/251/130 191/335/172 220/417/200 192/336/173 
s 4
f 149/418/131 192/419/173 221/420/201 
f 149/421/131 221/422/201 193/423/174 
s 2
f 155/424/137 193/425/174 222/426/202 
f 155/427/137 222/428/202 197/429/178 
s 4
f 156/430/138 197/431/178 223/432/203 198/433/179 
s 2
f 199/434/180 198/435/179 224/436/204 225/437/205 
s 64
f 82/407/68 161/355/143 185/316/166 
s 8
f 189/413/170 163/362/145 200/365/181 218/414/198 
s 2
f 200/365/181 164/364/146 201/438/182 226/439/206 
f 202/440/183 167/441/149 227/442/207 
s 4
f 227/443/207 167/444/149 203/445/184 
s 2
f 203/446/184 184/402/165 214/403/195 228/447/208 
s 4
f 168/448/150 202/449/183 229/450/209 
f 204/451/185 168/452/150 229/453/209 230/454/210 
s 32
f 170/285/152 176/381/158 209/455/190 
f 170/285/152 205/456/186 171/382/153 
f 231/457/211 232/458/212 206/459/187 205/460/186 
s 2
f 226/439/206 201/438/182 207/461/188 233/462/213 
s 4
f 207/463/188 204/451/185 230/454/210 234/464/214 
s 32
f 175/465/157 181/398/162 213/401/194 208/466/189 
f 209/467/190 208/466/189 235/468/215 236/469/216 
f 232/470/212 237/471/217 210/393/191 206/384/187 
f 237/471/217 238/472/218 211/394/192 210/393/191 
f 179/473/68 178/301/160 211/394/192 
f 179/474/68 212/475/193 180/476/161 
f 213/401/194 212/400/193 239/477/219 240/478/220 
s 1
f 214/403/195 188/329/169 217/412/197 241/479/197 
s 2
f 186/409/167 199/434/180 225/437/205 
f 186/409/167 225/437/205 215/410/196 
s 1
f 187/328/168 215/410/196 242/480/197 216/411/197 
f 243/481/197 217/412/197 216/411/197 
s 2
f 190/333/171 218/414/198 244/482/221 219/415/199 
f 191/416/172 219/415/199 245/483/222 246/484/223 247/485/224 248/486/225 249/487/226 220/488/200 
s 4
f 192/419/173 220/489/200 250/490/227 221/420/201 
s 2
f 193/491/174 221/492/201 251/493/228 
f 193/425/174 251/494/228 222/426/202 
s 4
f 197/495/178 222/496/202 252/497/229 
f 197/495/178 252/497/229 223/498/203 
s 2
f 198/435/179 223/499/203 253/500/230 224/436/204 
s 1
f 225/437/205 224/436/204 254/501/197 255/502/197 
s 2
f 218/414/198 200/365/181 226/439/206 244/482/221 
f 229/503/209 202/504/183 227/505/207 
s 4
f 227/443/207 203/445/184 256/506/231 
s 2
f 256/507/231 203/446/184 228/447/208 
s 1
f 228/447/208 214/403/195 241/479/197 257/508/197 
s 2
f 230/454/210 229/453/209 258/509/232 259/510/233 
s 32
f 170/285/152 209/455/190 236/511/216 
f 170/285/152 231/512/211 205/456/186 
f 260/513/234 261/514/235 232/515/212 231/516/211 
s 2
f 244/482/221 226/439/206 233/462/213 262/517/236 263/518/237 264/519/238 265/520/239 266/521/240 
s 4
f 233/522/213 207/463/188 234/464/214 267/523/241 
s 2
f 234/464/214 230/454/210 259/510/233 268/524/242 
s 32
f 208/466/189 213/401/194 240/478/220 235/468/215 
f 236/525/216 235/526/215 269/527/243 270/528/244 
f 261/514/235 271/529/245 237/530/217 232/515/212 
f 271/529/245 272/531/246 238/532/218 237/530/217 
f 179/533/68 211/534/192 238/535/218 
f 179/536/68 239/477/219 212/400/193 
f 240/478/220 239/477/219 273/537/247 274/538/248 
s 1
f 243/481/197 241/479/197 217/412/197 
f 215/410/196 225/437/205 255/502/197 242/480/197 
f 243/481/197 216/411/197 242/480/197 
s 2
f 219/415/199 244/482/221 266/521/240 275/539/249 245/483/222 
s 16
f 275/540/249 276/541/166 277/542/143 278/543/142 246/544/223 245/545/222 
f 246/544/223 278/543/142 279/546/124 247/547/224 
f 280/548/91 281/549/250 248/550/225 247/547/224 279/546/124 282/551/125 
s 2
f 263/518/237 262/517/236 249/487/226 248/486/225 281/552/250 
s 4
f 220/489/200 249/553/226 283/554/251 250/490/227 
s 2
f 221/420/201 250/490/227 284/555/252 251/556/228 
s 4
f 222/426/202 251/494/228 285/557/253 
f 222/426/202 285/557/253 252/558/229 
s 2
f 223/499/203 252/559/229 286/560/254 
f 223/499/203 286/560/254 253/500/230 
s 1
f 224/436/204 253/500/230 287/561/197 254/501/197 
f 243/481/197 255/502/197 254/501/197 
s 2
f 229/562/209 227/563/207 258/564/232 
s 4
f 258/565/232 227/566/207 256/567/231 
s 2
f 256/568/231 228/569/208 288/570/255 
s 1
f 288/571/255 228/447/208 257/508/197 289/572/197 
f 243/481/197 257/508/197 241/479/197 
s 4
f 259/573/233 258/574/232 290/575/256 291/576/257 
s 32
f 170/285/152 236/511/216 270/577/244 
f 170/285/152 260/578/234 231/512/211 
f 270/579/244 269/580/243 261/514/235 260/513/234 
s 4
f 262/581/236 233/522/213 267/523/241 
s 16
f 292/582/258 293/583/89 264/584/238 263/585/237 281/549/250 280/548/91 
f 264/584/238 293/583/89 294/586/122 265/587/239 
f 294/586/122 295/588/144 276/541/166 275/540/249 266/589/240 265/587/239 
s 2
f 267/523/241 234/464/214 268/524/242 296/590/259 
s 4
f 268/591/242 259/573/233 291/576/257 297/592/260 
s 32
f 235/468/215 240/478/220 274/538/248 269/593/243 
f 269/580/243 274/594/248 271/529/245 261/514/235 
f 274/594/248 273/595/247 272/531/246 271/529/245 
f 179/596/68 238/532/218 272/531/246 
f 179/597/68 273/598/247 239/599/219 
s 1
f 243/481/197 242/480/197 255/502/197 
s 16
f 298/600/261 277/542/143 276/541/166 
f 278/601/142 277/602/143 299/603/102 300/604/101 
f 279/605/124 278/601/142 300/604/101 301/606/141 
f 302/607/152 280/608/91 282/609/125 
f 282/610/125 279/611/124 301/612/141 303/613/140 
s 4
f 249/614/226 262/615/236 304/616/262 
f 249/617/226 304/618/262 283/619/251 
s 2
f 250/490/227 283/554/251 305/620/263 284/555/252 
s 4
f 251/621/228 284/622/252 306/623/264 285/624/253 
s 2
f 252/559/229 285/625/253 307/626/265 
f 252/559/229 307/626/265 286/560/254 
s 1
f 253/500/230 286/560/254 308/627/197 287/561/197 
f 243/481/197 254/501/197 287/561/197 
s 4
f 258/628/232 256/629/231 290/630/256 
s 2
f 290/631/256 256/567/231 288/632/255 
s 1
f 309/633/266 288/571/255 289/572/197 310/634/197 
f 243/481/197 289/572/197 257/508/197 
s 2
f 291/635/257 290/636/256 309/633/266 311/637/267 
s 32
f 170/285/152 270/577/244 260/578/234 
s 4
f 262/638/236 267/639/241 304/640/262 
s 16
f 302/607/152 292/641/258 280/608/91 
f 312/642/87 313/643/88 293/644/89 292/645/258 
f 313/646/88 314/647/268 294/648/122 293/649/89 
f 314/647/268 315/650/103 295/651/144 294/648/122 
f 298/600/261 276/541/166 295/588/144 
s 2
f 304/640/262 267/639/241 296/652/259 
s 4
f 296/653/259 268/591/242 297/592/260 316/654/269 
s 2
f 297/655/260 291/635/257 311/637/267 317/656/270 
s 32
f 179/596/68 272/531/246 273/595/247 
s 16
f 298/657/261 299/658/102 277/659/143 
f 300/604/101 299/603/102 318/660/67 319/661/66 
f 301/606/141 300/604/101 319/661/66 320/662/100 
f 302/607/152 282/609/125 303/663/140 
f 303/664/140 301/606/141 320/662/100 321/665/99 
s 2
f 283/666/251 304/667/262 322/668/271 
f 283/669/251 322/670/271 305/671/263 
s 4
f 284/622/252 305/672/263 323/673/272 306/623/264 
s 2
f 285/625/253 306/674/264 324/675/273 307/626/265 
s 1
f 286/560/254 307/626/265 325/676/197 308/627/197 
f 243/481/197 287/561/197 308/627/197 
s 2
f 290/636/256 288/571/255 309/633/266 
s 1
f 311/637/267 309/633/266 310/634/197 326/677/197 
f 243/481/197 310/634/197 289/572/197 
s 16
f 302/607/152 312/678/87 292/641/258 
f 327/679/82 328/680/80 313/646/88 312/681/87 
f 328/680/80 329/682/70 314/647/268 313/646/88 
f 329/682/70 330/683/69 315/650/103 314/647/268 
f 298/684/261 295/685/144 315/686/103 
s 2
f 304/687/262 296/688/259 322/689/271 
s 4
f 322/689/271 296/688/259 316/690/269 
s 2
f 316/691/269 297/655/260 317/656/270 331/692/274 
s 1
f 317/656/270 311/637/267 326/677/197 332/693/197 
s 16
f 298/694/261 318/660/67 299/603/102 
f 319/661/66 318/660/67 333/695/40 334/696/39 
f 320/662/100 319/661/66 334/696/39 335/697/65 
f 302/607/152 303/663/140 321/698/99 
f 321/699/99 320/700/100 335/701/65 336/702/64 
s 4
f 305/703/263 322/704/271 337/705/275 
f 305/703/263 337/705/275 323/706/272 
s 2
f 306/674/264 323/707/272 338/708/276 324/675/273 
s 1
f 307/626/265 324/675/273 339/709/197 325/676/197 
f 243/481/197 308/627/197 325/676/197 
f 243/481/197 326/677/197 310/634/197 
s 16
f 302/607/152 327/710/82 312/678/87 
f 340/711/51 341/712/277 328/713/80 327/714/82 
f 341/715/277 342/716/43 329/682/70 328/680/80 
f 342/716/43 343/717/42 330/683/69 329/682/70 
f 298/718/261 315/650/103 330/683/69 
s 4
f 322/689/271 316/690/269 337/719/275 
s 2
f 337/720/275 316/691/269 331/692/274 
s 1
f 331/692/274 317/656/270 332/693/197 344/721/197 
f 243/481/197 332/693/197 326/677/197 
s 16
f 298/722/261 333/723/40 318/724/67 
f 334/725/39 333/726/40 345/727/41 346/728/278 
f 335/729/65 334/725/39 346/728/278 347/730/279 
f 302/607/152 321/698/99 336/731/64 
f 336/732/64 335/729/65 347/730/279 348/733/49 
s 2
f 323/707/272 337/720/275 349/734/280 
f 323/707/272 349/734/280 338/708/276 
s 1
f 324/675/273 338/708/276 350/735/197 339/709/197 
f 243/481/197 325/676/197 339/709/197 
s 16
f 302/607/152 340/736/51 327/710/82 
f 348/733/49 347/730/279 341/737/277 340/738/51 
f 347/730/279 346/728/278 342/739/43 341/737/277 
f 346/728/278 345/727/41 343/740/42 342/739/43 
f 298/741/261 330/742/69 343/743/42 
s 2
f 337/720/275 331/692/274 349/734/280 
s 1
f 349/734/280 331/692/274 344/721/197 351/744/197 
f 243/481/197 344/721/197 332/693/197 
s 16
f 298/745/261 345/727/41 333/726/40 
f 302/607/152 336/731/64 348/746/49 
s 1
f 338/708/276 349/734/280 351/744/197 350/735/197 
f 243/481/197 339/709/197 350/735/197 
s 16
f 302/607/152 348/746/49 340/736/51 
f 298/745/261 343/740/42 345/727/41 
s 1
f 243/481/197 351/744/197 344/721/197 
f 243/481/197 350/735/197 351/744/197 
s 128
f 352/747/81 353/748/115 354/749/158 
f 352/747/81 354/749/158 355/750/190 
f 194/751/175 353/748/115 352/747/81 195/752/176 
f 353/753/115 356/754/281 357/755/157 354/756/158 
f 352/747/81 355/750/190 358/757/216 
f 354/758/158 357/759/157 359/760/189 355/761/190 
f 153/762/135 360/763/282 356/754/281 353/753/115 194/764/175 154/765/136 
f 195/752/176 352/747/81 196/766/177 
f 356/754/281 361/767/283 362/768/162 357/755/157 
f 352/747/81 358/757/216 363/769/244 
f 355/770/190 359/771/189 364/772/215 358/773/216 
f 357/774/157 362/775/162 365/776/194 359/771/189 
f 152/777/134 366/778/154 360/779/282 153/780/135 
f 360/763/282 367/781/116 361/767/283 356/754/281 
f 352/747/81 368/782/186 151/783/133 150/784/132 196/766/177 
f 361/767/283 369/785/118 370/786/161 362/768/162 
f 352/747/81 363/769/244 371/787/234 
f 358/788/216 364/789/215 372/790/243 363/791/244 
f 359/771/189 365/776/194 373/792/220 364/772/215 
f 362/775/162 370/793/161 374/794/193 365/776/194 
f 151/795/133 368/796/186 375/797/187 366/798/154 152/799/134 
f 366/798/154 376/800/159 367/801/116 360/802/282 
f 367/781/116 377/803/117 369/785/118 361/767/283 
f 352/747/81 378/804/211 368/782/186 
f 379/805/68 370/786/161 369/785/118 
f 352/747/81 371/787/234 378/804/211 
f 363/806/244 372/807/243 380/808/235 371/809/234 
f 364/772/215 373/792/220 381/810/248 372/811/243 
f 365/776/194 374/794/193 382/812/219 373/792/220 
f 379/813/68 374/814/193 370/815/161 
f 378/816/211 383/817/212 375/818/187 368/819/186 
f 375/797/187 384/820/191 376/800/159 366/798/154 
f 376/800/159 385/821/160 377/822/117 367/801/116 
f 379/805/68 369/785/118 377/803/117 
f 371/809/234 380/808/235 383/823/212 378/824/211 
f 372/807/243 381/825/248 386/826/245 380/808/235 
f 373/792/220 382/812/219 387/827/247 381/810/248 
f 379/828/68 382/812/219 374/794/193 
f 383/829/212 388/830/217 384/820/191 375/797/187 
f 384/820/191 389/831/192 385/821/160 376/800/159 
f 379/832/68 377/833/117 385/834/160 
f 380/808/235 386/826/245 388/835/217 383/823/212 
f 381/825/248 387/836/247 390/837/284 386/826/245 
f 379/838/68 387/839/247 382/840/219 
f 388/830/217 391/841/218 389/831/192 384/820/191 
f 379/842/68 385/821/160 389/831/192 
f 386/826/245 390/837/284 391/843/218 388/835/217 
f 379/844/68 390/837/284 387/836/247 
f 379/845/68 389/846/192 391/847/218 
f 379/844/68 391/843/218 390/837/284 
# 261 polygons - 175 triangles

