# 3ds Max Wavefront OBJ Exporter v0.99 - (c)2007 guruware
# File Created: 03.09.2025 11:00:44

mtllib Choco Lagoon.mtl

#
# object Choco_Lagoon
#

v  65.8754 0.0000 138.8488
v  101.7096 0.0000 124.9666
v  104.3046 0.0000 138.8488
v  94.2749 0.0000 112.9592
v  83.0048 0.0000 104.4484
v  69.4212 0.0000 100.5835
v  55.3587 0.0000 101.8866
v  42.7166 0.0000 108.1816
v  33.2022 0.0000 118.6184
v  28.1005 0.0000 131.7875
v  28.1005 0.0000 145.9102
v  33.2022 0.0000 159.0792
v  42.7166 0.0000 169.5160
v  55.3587 0.0000 175.8111
v  69.4212 0.0000 177.1142
v  83.0048 0.0000 173.2493
v  94.2750 0.0000 164.7384
v  101.7096 0.0000 152.7310
v  109.9535 0.0000 121.7729
v  113.1456 0.0000 138.8488
v  100.8085 0.0000 107.0031
v  86.9455 0.0000 96.5343
v  70.2369 0.0000 91.7803
v  52.9393 0.0000 93.3831
v  37.3887 0.0000 101.1264
v  25.6855 0.0000 113.9643
v  19.4101 0.0000 130.1630
v  19.4101 0.0000 147.5347
v  25.6855 0.0000 163.7334
v  37.3887 0.0000 176.5713
v  52.9393 0.0000 184.3145
v  70.2369 0.0000 185.9174
v  86.9455 0.0000 181.1634
v  100.8085 0.0000 170.6945
v  109.9535 0.0000 155.9247
v  109.9535 4.6132 121.7729
v  113.1456 4.6132 138.8488
v  100.8085 4.6132 107.0031
v  86.9455 4.6132 96.5343
v  70.2369 4.6132 91.7803
v  52.9393 4.6132 93.3831
v  37.3887 4.6132 101.1264
v  25.6855 4.6132 113.9643
v  19.4101 4.6132 130.1630
v  19.4101 4.6132 147.5347
v  25.6855 4.6132 163.7334
v  37.3887 4.6132 176.5713
v  52.9393 4.6132 184.3145
v  70.2369 4.6132 185.9174
v  86.9455 4.6132 181.1634
v  100.8085 4.6132 170.6945
v  109.9535 4.6132 155.9247
v  109.9535 9.2264 121.7729
v  113.1456 9.2264 138.8488
v  100.8085 9.2264 107.0031
v  86.9455 9.2264 96.5343
v  70.2369 9.2264 91.7803
v  52.9393 9.2264 93.3831
v  37.3887 9.2264 101.1264
v  25.6855 9.2264 113.9643
v  19.4101 9.2264 130.1630
v  19.4101 9.2264 147.5347
v  25.6855 9.2264 163.7334
v  37.3887 9.2264 176.5713
v  52.9393 9.2264 184.3145
v  70.2369 9.2264 185.9174
v  86.9455 9.2264 181.1634
v  100.8085 9.2264 170.6945
v  109.9535 9.2264 155.9247
v  101.7096 9.2264 124.9666
v  104.3046 9.2264 138.8488
v  94.2749 9.2264 112.9592
v  83.0048 9.2264 104.4484
v  69.4212 9.2264 100.5835
v  55.3587 9.2264 101.8866
v  42.7166 9.2264 108.1816
v  33.2022 9.2264 118.6184
v  28.1005 9.2264 131.7875
v  28.1005 9.2264 145.9102
v  33.2022 9.2264 159.0792
v  42.7166 9.2264 169.5160
v  55.3587 9.2264 175.8111
v  69.4212 9.2264 177.1142
v  83.0048 9.2264 173.2493
v  94.2750 9.2264 164.7384
v  101.7096 9.2264 152.7310
v  65.8754 6.6735 138.8488
v  104.3046 6.6735 138.8488
v  101.7096 6.6735 124.9666
v  94.2749 6.6735 112.9592
v  83.0048 6.6735 104.4484
v  69.4212 6.6735 100.5835
v  55.3587 6.6735 101.8866
v  42.7166 6.6735 108.1816
v  33.2022 6.6735 118.6184
v  28.1005 6.6735 131.7875
v  28.1005 6.6735 145.9102
v  33.2022 6.6735 159.0792
v  42.7166 6.6735 169.5160
v  55.3587 6.6735 175.8111
v  69.4212 6.6735 177.1142
v  83.0048 6.6735 173.2493
v  94.2750 6.6735 164.7384
v  101.7096 6.6735 152.7310
# 104 vertices

vn 0.0000 -1.0000 -0.0000
vn 0.6939 -0.6680 -0.2688
vn 0.7442 -0.6680 -0.0000
vn 0.5499 -0.6680 -0.5013
vn 0.3317 -0.6680 -0.6662
vn 0.0687 -0.6680 -0.7410
vn -0.2037 -0.6680 -0.7158
vn -0.4485 -0.6680 -0.5939
vn -0.6327 -0.6680 -0.3918
vn -0.7315 -0.6680 -0.1367
vn -0.7315 -0.6680 0.1367
vn -0.6327 -0.6680 0.3917
vn -0.4485 -0.6680 0.5939
vn -0.2037 -0.6680 0.7158
vn 0.0687 -0.6680 0.7410
vn 0.3317 -0.6680 0.6662
vn 0.5499 -0.6680 0.5013
vn 0.6939 -0.6680 0.2688
vn 0.9325 0.0000 -0.3612
vn 1.0000 0.0000 -0.0000
vn 0.7390 0.0000 -0.6737
vn 0.4457 0.0000 -0.8952
vn 0.0923 0.0000 -0.9957
vn -0.2737 0.0000 -0.9618
vn -0.6026 0.0000 -0.7980
vn -0.8502 0.0000 -0.5264
vn -0.9830 0.0000 -0.1837
vn -0.9830 0.0000 0.1837
vn -0.8502 0.0000 0.5264
vn -0.6026 0.0000 0.7980
vn -0.2737 0.0000 0.9618
vn 0.0923 0.0000 0.9957
vn 0.4457 0.0000 0.8952
vn 0.7390 0.0000 0.6737
vn 0.9325 0.0000 0.3612
vn 0.6939 0.6680 -0.2688
vn 0.7442 0.6680 -0.0000
vn 0.5499 0.6680 -0.5013
vn 0.3317 0.6680 -0.6662
vn 0.0687 0.6680 -0.7410
vn -0.2037 0.6680 -0.7158
vn -0.4485 0.6680 -0.5939
vn -0.6327 0.6680 -0.3918
vn -0.7315 0.6680 -0.1367
vn -0.7315 0.6680 0.1367
vn -0.6327 0.6680 0.3917
vn -0.4485 0.6680 0.5939
vn -0.2037 0.6680 0.7158
vn 0.0687 0.6680 0.7410
vn 0.3317 0.6680 0.6662
vn 0.5499 0.6680 0.5013
vn 0.6939 0.6680 0.2688
vn -0.6158 0.7509 0.2386
vn -0.6604 0.7509 0.0000
vn -0.4881 0.7509 0.4449
vn -0.2944 0.7509 0.5912
vn -0.0609 0.7509 0.6576
vn 0.1807 0.7509 0.6352
vn 0.3980 0.7509 0.5270
vn 0.5615 0.7509 0.3477
vn 0.6492 0.7509 0.1214
vn 0.6492 0.7509 -0.1214
vn 0.5615 0.7509 -0.3477
vn 0.3980 0.7509 -0.5270
vn 0.1807 0.7509 -0.6352
vn -0.0609 0.7509 -0.6576
vn -0.2944 0.7509 -0.5912
vn -0.4881 0.7509 -0.4449
vn -0.6158 0.7509 -0.2386
vn 0.0000 1.0000 -0.0000
vn -0.7442 0.6680 0.0000
vn -0.6939 0.6680 0.2688
vn -0.5499 0.6680 0.5013
vn -0.3317 0.6680 0.6662
vn -0.0687 0.6680 0.7410
vn 0.2037 0.6680 0.7158
vn 0.4485 0.6680 0.5939
vn 0.6327 0.6680 0.3918
vn 0.7315 0.6680 0.1367
vn 0.7315 0.6680 -0.1367
vn 0.6327 0.6680 -0.3918
vn 0.4485 0.6680 -0.5939
vn 0.2037 0.6680 -0.7158
vn -0.0687 0.6680 -0.7410
vn -0.3317 0.6680 -0.6662
vn -0.5499 0.6680 -0.5013
vn -0.6939 0.6680 -0.2688
# 87 vertex normals

vt 0.6076 0.7142 0.0000
vt 0.5260 0.5036 0.0000
vt 0.6076 0.4883 0.0000
vt 0.4555 0.5473 0.0000
vt 0.4054 0.6135 0.0000
vt 0.3827 0.6933 0.0000
vt 0.3904 0.7760 0.0000
vt 0.4274 0.8503 0.0000
vt 0.4887 0.9062 0.0000
vt 0.5661 0.9362 0.0000
vt 0.6491 0.9362 0.0000
vt 0.7265 0.9062 0.0000
vt 0.7878 0.8503 0.0000
vt 0.8248 0.7760 0.0000
vt 0.8325 0.6933 0.0000
vt 0.8098 0.6135 0.0000
vt 0.7598 0.5473 0.0000
vt 0.6892 0.5036 0.0000
vt 0.5073 0.4551 0.0000
vt 0.6076 0.4364 0.0000
vt 0.4205 0.5089 0.0000
vt 0.3589 0.5904 0.0000
vt 0.3310 0.6885 0.0000
vt 0.3404 0.7902 0.0000
vt 0.3859 0.8816 0.0000
vt 0.4614 0.9504 0.0000
vt 0.5566 0.9872 0.0000
vt 0.6587 0.9872 0.0000
vt 0.7539 0.9504 0.0000
vt 0.8293 0.8816 0.0000
vt 0.8748 0.7902 0.0000
vt 0.8842 0.6885 0.0000
vt 0.8563 0.5904 0.0000
vt 0.7948 0.5089 0.0000
vt 0.7080 0.4551 0.0000
vt 0.0595 0.7529 0.0000
vt 0.0595 0.8532 0.0000
vt 0.0324 0.8532 0.0000
vt 0.0324 0.7529 0.0000
vt 0.0595 0.9400 0.0000
vt 0.0324 0.9400 0.0000
vt 0.1745 0.5657 0.0000
vt 0.1745 0.6472 0.0000
vt 0.1474 0.6472 0.0000
vt 0.1474 0.5657 0.0000
vt 0.1745 0.7454 0.0000
vt 0.1474 0.7454 0.0000
vt 0.1745 0.8470 0.0000
vt 0.1474 0.8470 0.0000
vt 0.1745 0.9384 0.0000
vt 0.1474 0.9384 0.0000
vt 0.3182 0.5561 0.0000
vt 0.3182 0.6316 0.0000
vt 0.2911 0.6316 0.0000
vt 0.2911 0.5561 0.0000
vt 0.3182 0.7268 0.0000
vt 0.2911 0.7268 0.0000
vt 0.3182 0.8289 0.0000
vt 0.2911 0.8289 0.0000
vt 0.3182 0.9241 0.0000
vt 0.2911 0.9241 0.0000
vt 0.3182 0.9995 0.0000
vt 0.2911 0.9995 0.0000
vt 0.1170 0.5657 0.0000
vt 0.1170 0.6571 0.0000
vt 0.0899 0.6571 0.0000
vt 0.0899 0.5657 0.0000
vt 0.1170 0.7587 0.0000
vt 0.0899 0.7587 0.0000
vt 0.1170 0.8569 0.0000
vt 0.0899 0.8569 0.0000
vt 0.1170 0.9384 0.0000
vt 0.0899 0.9384 0.0000
vt 0.0595 0.5657 0.0000
vt 0.0595 0.6525 0.0000
vt 0.0324 0.6525 0.0000
vt 0.0324 0.5657 0.0000
vt 0.0053 0.8532 0.0000
vt 0.0053 0.7529 0.0000
vt 0.0053 0.9400 0.0000
vt 0.1202 0.6472 0.0000
vt 0.1202 0.5657 0.0000
vt 0.1202 0.7454 0.0000
vt 0.1202 0.8470 0.0000
vt 0.1202 0.9384 0.0000
vt 0.2639 0.6316 0.0000
vt 0.2639 0.5561 0.0000
vt 0.2639 0.7268 0.0000
vt 0.2639 0.8289 0.0000
vt 0.2639 0.9241 0.0000
vt 0.2639 0.9995 0.0000
vt 0.0628 0.6571 0.0000
vt 0.0628 0.5657 0.0000
vt 0.0628 0.7587 0.0000
vt 0.0628 0.8569 0.0000
vt 0.0628 0.9384 0.0000
vt 0.0053 0.6525 0.0000
vt 0.0053 0.5657 0.0000
vt 0.2771 0.5514 0.0000
vt 0.1768 0.5326 0.0000
vt 0.1955 0.4842 0.0000
vt 0.2771 0.4994 0.0000
vt 0.0900 0.4789 0.0000
vt 0.1250 0.4405 0.0000
vt 0.0284 0.3974 0.0000
vt 0.0749 0.3742 0.0000
vt 0.0005 0.2992 0.0000
vt 0.0522 0.2944 0.0000
vt 0.0099 0.1975 0.0000
vt 0.0599 0.2118 0.0000
vt 0.0554 0.1062 0.0000
vt 0.0969 0.1375 0.0000
vt 0.1309 0.0374 0.0000
vt 0.1582 0.0816 0.0000
vt 0.2261 0.0005 0.0000
vt 0.2356 0.0516 0.0000
vt 0.3282 0.0005 0.0000
vt 0.3186 0.0516 0.0000
vt 0.4234 0.0374 0.0000
vt 0.3960 0.0816 0.0000
vt 0.4988 0.1062 0.0000
vt 0.4573 0.1375 0.0000
vt 0.5443 0.1975 0.0000
vt 0.4943 0.2118 0.0000
vt 0.5537 0.2992 0.0000
vt 0.5020 0.2944 0.0000
vt 0.5258 0.3974 0.0000
vt 0.4793 0.3742 0.0000
vt 0.4643 0.4789 0.0000
vt 0.4293 0.4405 0.0000
vt 0.3775 0.5326 0.0000
vt 0.3587 0.4842 0.0000
vt 0.7714 0.2263 0.0000
vt 0.7714 0.0005 0.0000
vt 0.8530 0.0158 0.0000
vt 0.9236 0.0594 0.0000
vt 0.9736 0.1257 0.0000
vt 0.9963 0.2055 0.0000
vt 0.9886 0.2881 0.0000
vt 0.9516 0.3624 0.0000
vt 0.8903 0.4184 0.0000
vt 0.8129 0.4483 0.0000
vt 0.7299 0.4483 0.0000
vt 0.6525 0.4184 0.0000
vt 0.5912 0.3624 0.0000
vt 0.5542 0.2881 0.0000
vt 0.5465 0.2055 0.0000
vt 0.5693 0.1257 0.0000
vt 0.6193 0.0594 0.0000
vt 0.6898 0.0158 0.0000
vt 0.1969 0.7179 0.0000
vt 0.1969 0.6363 0.0000
vt 0.2119 0.6363 0.0000
vt 0.2119 0.7179 0.0000
vt 0.1969 0.5657 0.0000
vt 0.2119 0.5657 0.0000
vt 0.2352 0.8687 0.0000
vt 0.2352 0.8025 0.0000
vt 0.2502 0.8025 0.0000
vt 0.2502 0.8687 0.0000
vt 0.2352 0.7226 0.0000
vt 0.2502 0.7226 0.0000
vt 0.2352 0.6400 0.0000
vt 0.2502 0.6400 0.0000
vt 0.2352 0.5657 0.0000
vt 0.2502 0.5657 0.0000
vt 0.1777 0.9262 0.0000
vt 0.1777 0.8648 0.0000
vt 0.1927 0.8648 0.0000
vt 0.1927 0.9262 0.0000
vt 0.1777 0.7874 0.0000
vt 0.1927 0.7874 0.0000
vt 0.1777 0.7044 0.0000
vt 0.1927 0.7044 0.0000
vt 0.1777 0.6270 0.0000
vt 0.1927 0.6270 0.0000
vt 0.1777 0.5657 0.0000
vt 0.1927 0.5657 0.0000
vt 0.2160 0.8687 0.0000
vt 0.2160 0.7944 0.0000
vt 0.2310 0.7944 0.0000
vt 0.2310 0.8687 0.0000
vt 0.2160 0.7118 0.0000
vt 0.2310 0.7118 0.0000
vt 0.2160 0.6319 0.0000
vt 0.2310 0.6319 0.0000
vt 0.2160 0.5657 0.0000
vt 0.2310 0.5657 0.0000
vt 0.1969 0.8700 0.0000
vt 0.1969 0.7994 0.0000
vt 0.2119 0.7994 0.0000
vt 0.2119 0.8700 0.0000
# 192 texture coords

o Choco_Lagoon
g Choco_Lagoon
usemtl wire_103064016
s 1
f 1/1/1 2/2/1 3/3/1 
f 1/1/1 4/4/1 2/2/1 
f 1/1/1 5/5/1 4/4/1 
f 1/1/1 6/6/1 5/5/1 
f 1/1/1 7/7/1 6/6/1 
f 1/1/1 8/8/1 7/7/1 
f 1/1/1 9/9/1 8/8/1 
f 1/1/1 10/10/1 9/9/1 
f 1/1/1 11/11/1 10/10/1 
f 1/1/1 12/12/1 11/11/1 
f 1/1/1 13/13/1 12/12/1 
f 1/1/1 14/14/1 13/13/1 
f 1/1/1 15/15/1 14/14/1 
f 1/1/1 16/16/1 15/15/1 
f 1/1/1 17/17/1 16/16/1 
f 1/1/1 18/18/1 17/17/1 
f 1/1/1 3/3/1 18/18/1 
f 3/3/1 2/2/1 19/19/2 20/20/3 
f 2/2/1 4/4/1 21/21/4 19/19/2 
f 4/4/1 5/5/1 22/22/5 21/21/4 
f 5/5/1 6/6/1 23/23/6 22/22/5 
f 6/6/1 7/7/1 24/24/7 23/23/6 
f 7/7/1 8/8/1 25/25/8 24/24/7 
f 8/8/1 9/9/1 26/26/9 25/25/8 
f 9/9/1 10/10/1 27/27/10 26/26/9 
f 10/10/1 11/11/1 28/28/11 27/27/10 
f 11/11/1 12/12/1 29/29/12 28/28/11 
f 12/12/1 13/13/1 30/30/13 29/29/12 
f 13/13/1 14/14/1 31/31/14 30/30/13 
f 14/14/1 15/15/1 32/32/15 31/31/14 
f 15/15/1 16/16/1 33/33/16 32/32/15 
f 16/16/1 17/17/1 34/34/17 33/33/16 
f 17/17/1 18/18/1 35/35/18 34/34/17 
f 18/18/1 3/3/1 20/20/3 35/35/18 
s 8
f 20/36/3 19/37/2 36/38/19 37/39/20 
f 19/37/2 21/40/4 38/41/21 36/38/19 
f 21/42/4 22/43/5 39/44/22 38/45/21 
f 22/43/5 23/46/6 40/47/23 39/44/22 
f 23/46/6 24/48/7 41/49/24 40/47/23 
f 24/48/7 25/50/8 42/51/25 41/49/24 
f 25/52/8 26/53/9 43/54/26 42/55/25 
f 26/53/9 27/56/10 44/57/27 43/54/26 
f 27/56/10 28/58/11 45/59/28 44/57/27 
f 28/58/11 29/60/12 46/61/29 45/59/28 
f 29/60/12 30/62/13 47/63/30 46/61/29 
f 30/64/13 31/65/14 48/66/31 47/67/30 
f 31/65/14 32/68/15 49/69/32 48/66/31 
f 32/68/15 33/70/16 50/71/33 49/69/32 
f 33/70/16 34/72/17 51/73/34 50/71/33 
f 34/74/17 35/75/18 52/76/35 51/77/34 
f 35/75/18 20/36/3 37/39/20 52/76/35 
f 37/39/20 36/38/19 53/78/36 54/79/37 
f 36/38/19 38/41/21 55/80/38 53/78/36 
f 38/45/21 39/44/22 56/81/39 55/82/38 
f 39/44/22 40/47/23 57/83/40 56/81/39 
f 40/47/23 41/49/24 58/84/41 57/83/40 
f 41/49/24 42/51/25 59/85/42 58/84/41 
f 42/55/25 43/54/26 60/86/43 59/87/42 
f 43/54/26 44/57/27 61/88/44 60/86/43 
f 44/57/27 45/59/28 62/89/45 61/88/44 
f 45/59/28 46/61/29 63/90/46 62/89/45 
f 46/61/29 47/63/30 64/91/47 63/90/46 
f 47/67/30 48/66/31 65/92/48 64/93/47 
f 48/66/31 49/69/32 66/94/49 65/92/48 
f 49/69/32 50/71/33 67/95/50 66/94/49 
f 50/71/33 51/73/34 68/96/51 67/95/50 
f 51/77/34 52/76/35 69/97/52 68/98/51 
f 52/76/35 37/39/20 54/79/37 69/97/52 
s 1
f 54/99/37 53/100/36 70/101/53 71/102/54 
f 53/100/36 55/103/38 72/104/55 70/101/53 
f 55/103/38 56/105/39 73/106/56 72/104/55 
f 56/105/39 57/107/40 74/108/57 73/106/56 
f 57/107/40 58/109/41 75/110/58 74/108/57 
f 58/109/41 59/111/42 76/112/59 75/110/58 
f 59/111/42 60/113/43 77/114/60 76/112/59 
f 60/113/43 61/115/44 78/116/61 77/114/60 
f 61/115/44 62/117/45 79/118/62 78/116/61 
f 62/117/45 63/119/46 80/120/63 79/118/62 
f 63/119/46 64/121/47 81/122/64 80/120/63 
f 64/121/47 65/123/48 82/124/65 81/122/64 
f 65/123/48 66/125/49 83/126/66 82/124/65 
f 66/125/49 67/127/50 84/128/67 83/126/66 
f 67/127/50 68/129/51 85/130/68 84/128/67 
f 68/129/51 69/131/52 86/132/69 85/130/68 
f 69/131/52 54/99/37 71/102/54 86/132/69 
f 87/133/70 88/134/71 89/135/72 
f 87/133/70 89/135/72 90/136/73 
f 87/133/70 90/136/73 91/137/74 
f 87/133/70 91/137/74 92/138/75 
f 87/133/70 92/138/75 93/139/76 
f 87/133/70 93/139/76 94/140/77 
f 87/133/70 94/140/77 95/141/78 
f 87/133/70 95/141/78 96/142/79 
f 87/133/70 96/142/79 97/143/80 
f 87/133/70 97/143/80 98/144/81 
f 87/133/70 98/144/81 99/145/82 
f 87/133/70 99/145/82 100/146/83 
f 87/133/70 100/146/83 101/147/84 
f 87/133/70 101/147/84 102/148/85 
f 87/133/70 102/148/85 103/149/86 
f 87/133/70 103/149/86 104/150/87 
f 87/133/70 104/150/87 88/134/71 
s 2
f 71/151/54 70/152/53 89/153/72 88/154/71 
f 70/152/53 72/155/55 90/156/73 89/153/72 
f 72/157/55 73/158/56 91/159/74 90/160/73 
f 73/158/56 74/161/57 92/162/75 91/159/74 
f 74/161/57 75/163/58 93/164/76 92/162/75 
f 75/163/58 76/165/59 94/166/77 93/164/76 
f 76/167/59 77/168/60 95/169/78 94/170/77 
f 77/168/60 78/171/61 96/172/79 95/169/78 
f 78/171/61 79/173/62 97/174/80 96/172/79 
f 79/173/62 80/175/63 98/176/81 97/174/80 
f 80/175/63 81/177/64 99/178/82 98/176/81 
f 81/179/64 82/180/65 100/181/83 99/182/82 
f 82/180/65 83/183/66 101/184/84 100/181/83 
f 83/183/66 84/185/67 102/186/85 101/184/84 
f 84/185/67 85/187/68 103/188/86 102/186/85 
f 85/189/68 86/190/69 104/191/87 103/192/86 
f 86/190/69 71/151/54 88/154/71 104/191/87 
# 85 polygons - 34 triangles

