# 3ds Max Wavefront OBJ Exporter v0.99 - (c)2007 guruware
# File Created: 15.09.2026 19:29:31

mtllib Gum Ruins.mtl

#
# object Gum_Ruins
#

v  -187.8729 3.3828 -114.9829
v  -187.8729 3.3828 -112.0218
v  -184.9117 3.3828 -112.0218
v  -184.9117 3.3828 -114.9829
v  -187.8729 2.9438 -115.6498
v  -188.2063 2.9438 -115.5605
v  -188.4504 2.9438 -115.3164
v  -188.5398 2.9438 -114.9829
v  -188.5398 2.9438 -112.0218
v  -187.8729 3.3828 -109.0606
v  -188.5398 2.9438 -109.0606
v  -188.4504 2.9438 -108.7272
v  -188.2063 2.9438 -108.4831
v  -187.8729 2.9438 -108.3937
v  -184.9117 2.9438 -108.3937
v  -184.9117 3.3828 -109.0606
v  -181.9506 3.3828 -109.0606
v  -181.9506 2.9438 -108.3937
v  -181.6172 2.9438 -108.4831
v  -181.3730 2.9438 -108.7272
v  -181.2837 2.9438 -109.0606
v  -181.2837 2.9438 -112.0218
v  -181.9506 3.3828 -112.0218
v  -181.9506 3.3828 -114.9829
v  -181.2837 2.9438 -114.9829
v  -181.3730 2.9438 -115.3164
v  -181.6172 2.9438 -115.5605
v  -181.9506 2.9438 -115.6498
v  -184.9117 2.9438 -115.6498
v  -187.8729 2.3310 -116.1380
v  -188.4504 2.3310 -115.9833
v  -188.8732 2.3310 -115.5605
v  -189.0280 2.3310 -114.9829
v  -189.0280 2.3310 -112.0218
v  -189.0280 2.3310 -109.0606
v  -188.8732 2.3310 -108.4831
v  -188.4504 2.3310 -108.0603
v  -187.8729 2.3310 -107.9055
v  -184.9117 2.3310 -107.9055
v  -181.9506 2.3310 -107.9055
v  -181.3730 2.3310 -108.0603
v  -180.9503 2.3310 -108.4831
v  -180.7955 2.3310 -109.0606
v  -180.7955 2.3310 -112.0218
v  -180.7955 2.3310 -114.9829
v  -180.9503 2.3310 -115.5605
v  -181.3730 2.3310 -115.9833
v  -181.9506 2.3310 -116.1380
v  -184.9117 2.3310 -116.1380
v  -187.8729 1.6825 -116.3167
v  -188.5398 1.6825 -116.1380
v  -189.0280 1.6825 -115.6498
v  -189.2067 1.6825 -114.9829
v  -189.2067 1.6825 -112.0218
v  -189.2067 1.6825 -109.0606
v  -189.0280 1.6825 -108.3937
v  -188.5398 1.6825 -107.9055
v  -187.8729 1.6825 -107.7269
v  -184.9117 1.6825 -107.7269
v  -181.9506 1.6825 -107.7269
v  -181.2837 1.6825 -107.9055
v  -180.7955 1.6825 -108.3937
v  -180.6168 1.6825 -109.0606
v  -180.6168 1.6825 -112.0218
v  -180.6168 1.6825 -114.9829
v  -180.7955 1.6825 -115.6498
v  -181.2837 1.6825 -116.1380
v  -181.9506 1.6825 -116.3167
v  -184.9117 1.6825 -116.3167
v  -187.8729 1.6744 -116.3167
v  -188.5398 1.6744 -116.1380
v  -189.0280 1.6744 -115.6498
v  -189.2067 1.6744 -114.9829
v  -189.2067 1.6744 -112.0218
v  -189.2067 1.6744 -109.0606
v  -189.0280 1.6744 -108.3937
v  -188.5398 1.6744 -107.9055
v  -187.8729 1.6744 -107.7269
v  -184.9117 1.6744 -107.7269
v  -181.9506 1.6744 -107.7269
v  -181.2837 1.6744 -107.9055
v  -180.7955 1.6744 -108.3937
v  -180.6168 1.6744 -109.0606
v  -180.6168 1.6744 -112.0218
v  -180.6168 1.6744 -114.9829
v  -180.7955 1.6744 -115.6498
v  -181.2837 1.6744 -116.1380
v  -181.9506 1.6744 -116.3167
v  -184.9117 1.6744 -116.3167
v  -187.8729 0.9891 -116.1380
v  -188.4504 0.9891 -115.9833
v  -188.8732 0.9891 -115.5605
v  -189.0280 0.9891 -114.9829
v  -189.0280 0.9891 -112.0218
v  -189.0280 0.9891 -109.0606
v  -188.8732 0.9891 -108.4831
v  -188.4504 0.9891 -108.0603
v  -187.8729 0.9891 -107.9055
v  -184.9117 0.9891 -107.9055
v  -181.9506 0.9891 -107.9055
v  -181.3730 0.9891 -108.0603
v  -180.9503 0.9891 -108.4831
v  -180.7955 0.9891 -109.0606
v  -180.7955 0.9891 -112.0218
v  -180.7955 0.9891 -114.9829
v  -180.9503 0.9891 -115.5605
v  -181.3730 0.9891 -115.9833
v  -181.9506 0.9891 -116.1380
v  -184.9117 0.9891 -116.1380
v  -187.8729 0.3762 -115.6498
v  -188.2063 0.3762 -115.5605
v  -188.4504 0.3762 -115.3164
v  -188.5398 0.3762 -114.9829
v  -188.5398 0.3762 -112.0218
v  -188.5398 0.3762 -109.0606
v  -188.4504 0.3762 -108.7272
v  -188.2063 0.3762 -108.4831
v  -187.8729 0.3762 -108.3937
v  -184.9117 0.3762 -108.3937
v  -181.9506 0.3762 -108.3937
v  -181.6172 0.3762 -108.4831
v  -181.3730 0.3762 -108.7272
v  -181.2837 0.3762 -109.0606
v  -181.2837 0.3762 -112.0218
v  -181.2837 0.3762 -114.9829
v  -181.3730 0.3762 -115.3164
v  -181.6172 0.3762 -115.5605
v  -181.9506 0.3762 -115.6498
v  -184.9117 0.3762 -115.6498
v  -187.8729 0.0000 -114.9829
v  -187.8729 0.0000 -112.0218
v  -187.8729 0.0000 -109.0606
v  -184.9117 0.0000 -109.0606
v  -181.9506 0.0000 -109.0606
v  -181.9506 0.0000 -112.0218
v  -181.9506 0.0000 -114.9829
v  -184.9117 0.0000 -114.9829
v  -184.9117 0.0000 -112.0218
v  -187.8729 3.3828 -106.3926
v  -187.8729 3.3828 -103.4314
v  -184.9117 3.3828 -103.4314
v  -184.9117 3.3828 -106.3926
v  -187.8729 2.9438 -107.0595
v  -188.2063 2.9438 -106.9701
v  -188.4504 2.9438 -106.7260
v  -188.5398 2.9438 -106.3926
v  -188.5398 2.9438 -103.4314
v  -187.8729 3.3828 -100.4703
v  -188.5398 2.9438 -100.4703
v  -188.4504 2.9438 -100.1368
v  -188.2063 2.9438 -99.8927
v  -187.8729 2.9438 -99.8034
v  -184.9117 2.9438 -99.8034
v  -184.9117 3.3828 -100.4703
v  -181.9506 3.3828 -100.4703
v  -181.9506 2.9438 -99.8034
v  -181.6172 2.9438 -99.8927
v  -181.3730 2.9438 -100.1368
v  -181.2837 2.9438 -100.4703
v  -181.2837 2.9438 -103.4314
v  -181.9506 3.3828 -103.4314
v  -181.9506 3.3828 -106.3926
v  -181.2837 2.9438 -106.3926
v  -181.3730 2.9438 -106.7260
v  -181.6172 2.9438 -106.9701
v  -181.9506 2.9438 -107.0595
v  -184.9117 2.9438 -107.0595
v  -187.8729 2.3310 -107.5477
v  -188.4504 2.3310 -107.3929
v  -188.8732 2.3310 -106.9701
v  -189.0280 2.3310 -106.3926
v  -189.0280 2.3310 -103.4314
v  -189.0280 2.3310 -100.4703
v  -188.8732 2.3310 -99.8927
v  -188.4504 2.3310 -99.4699
v  -187.8729 2.3310 -99.3152
v  -184.9117 2.3310 -99.3152
v  -181.9506 2.3310 -99.3152
v  -181.3730 2.3310 -99.4699
v  -180.9503 2.3310 -99.8927
v  -180.7955 2.3310 -100.4703
v  -180.7955 2.3310 -103.4314
v  -180.7955 2.3310 -106.3926
v  -180.9503 2.3310 -106.9701
v  -181.3730 2.3310 -107.3929
v  -181.9506 2.3310 -107.5477
v  -184.9117 2.3310 -107.5477
v  -187.8729 1.6825 -107.7264
v  -188.5398 1.6825 -107.5477
v  -189.0280 1.6825 -107.0595
v  -189.2067 1.6825 -106.3926
v  -189.2067 1.6825 -103.4314
v  -189.2067 1.6825 -100.4703
v  -189.0280 1.6825 -99.8034
v  -188.5398 1.6825 -99.3152
v  -187.8729 1.6825 -99.1365
v  -184.9117 1.6825 -99.1365
v  -181.9506 1.6825 -99.1365
v  -181.2837 1.6825 -99.3152
v  -180.7955 1.6825 -99.8034
v  -180.6168 1.6825 -100.4703
v  -180.6168 1.6825 -103.4314
v  -180.6168 1.6825 -106.3926
v  -180.7955 1.6825 -107.0595
v  -181.2837 1.6825 -107.5477
v  -181.9506 1.6825 -107.7264
v  -184.9117 1.6825 -107.7264
v  -187.8729 1.6744 -107.7264
v  -188.5398 1.6744 -107.5477
v  -189.0280 1.6744 -107.0595
v  -189.2067 1.6744 -106.3926
v  -189.2067 1.6744 -103.4314
v  -189.2067 1.6744 -100.4703
v  -189.0280 1.6744 -99.8034
v  -188.5398 1.6744 -99.3152
v  -187.8729 1.6744 -99.1365
v  -184.9117 1.6744 -99.1365
v  -181.9506 1.6744 -99.1365
v  -181.2837 1.6744 -99.3152
v  -180.7955 1.6744 -99.8034
v  -180.6168 1.6744 -100.4703
v  -180.6168 1.6744 -103.4314
v  -180.6168 1.6744 -106.3926
v  -180.7955 1.6744 -107.0595
v  -181.2837 1.6744 -107.5477
v  -181.9506 1.6744 -107.7264
v  -184.9117 1.6744 -107.7264
v  -187.8729 0.9891 -107.5477
v  -188.4504 0.9891 -107.3929
v  -188.8732 0.9891 -106.9701
v  -189.0280 0.9891 -106.3926
v  -189.0280 0.9891 -103.4314
v  -189.0280 0.9891 -100.4703
v  -188.8732 0.9891 -99.8927
v  -188.4504 0.9891 -99.4699
v  -187.8729 0.9891 -99.3152
v  -184.9117 0.9891 -99.3152
v  -181.9506 0.9891 -99.3152
v  -181.3730 0.9891 -99.4699
v  -180.9503 0.9891 -99.8927
v  -180.7955 0.9891 -100.4703
v  -180.7955 0.9891 -103.4314
v  -180.7955 0.9891 -106.3926
v  -180.9503 0.9891 -106.9701
v  -181.3730 0.9891 -107.3929
v  -181.9506 0.9891 -107.5477
v  -184.9117 0.9891 -107.5477
v  -187.8729 0.3762 -107.0595
v  -188.2063 0.3762 -106.9701
v  -188.4504 0.3762 -106.7260
v  -188.5398 0.3762 -106.3926
v  -188.5398 0.3762 -103.4314
v  -188.5398 0.3762 -100.4703
v  -188.4504 0.3762 -100.1368
v  -188.2063 0.3762 -99.8927
v  -187.8729 0.3762 -99.8034
v  -184.9117 0.3762 -99.8034
v  -181.9506 0.3762 -99.8034
v  -181.6172 0.3762 -99.8927
v  -181.3730 0.3762 -100.1368
v  -181.2837 0.3762 -100.4703
v  -181.2837 0.3762 -103.4314
v  -181.2837 0.3762 -106.3926
v  -181.3730 0.3762 -106.7260
v  -181.6172 0.3762 -106.9701
v  -181.9506 0.3762 -107.0595
v  -184.9117 0.3762 -107.0595
v  -187.8729 0.0000 -106.3926
v  -187.8729 0.0000 -103.4314
v  -187.8729 0.0000 -100.4703
v  -184.9117 0.0000 -100.4703
v  -181.9506 0.0000 -100.4703
v  -181.9506 0.0000 -103.4314
v  -181.9506 0.0000 -106.3926
v  -184.9117 0.0000 -106.3926
v  -184.9117 0.0000 -103.4314
v  -187.8729 6.8303 -110.8436
v  -187.8729 6.8303 -107.8824
v  -184.9117 6.8303 -107.8824
v  -184.9117 6.8303 -110.8436
v  -187.8729 6.3913 -111.5105
v  -188.2063 6.3913 -111.4211
v  -188.4504 6.3913 -111.1770
v  -188.5398 6.3913 -110.8436
v  -188.5398 6.3913 -107.8824
v  -187.8729 6.8303 -104.9213
v  -188.5398 6.3913 -104.9213
v  -188.4504 6.3913 -104.5878
v  -188.2063 6.3913 -104.3437
v  -187.8729 6.3913 -104.2544
v  -184.9117 6.3913 -104.2544
v  -184.9117 6.8303 -104.9213
v  -181.9506 6.8303 -104.9213
v  -181.9506 6.3913 -104.2544
v  -181.6172 6.3913 -104.3437
v  -181.3730 6.3913 -104.5878
v  -181.2837 6.3913 -104.9213
v  -181.2837 6.3913 -107.8824
v  -181.9506 6.8303 -107.8824
v  -181.9506 6.8303 -110.8436
v  -181.2837 6.3913 -110.8436
v  -181.3730 6.3913 -111.1770
v  -181.6172 6.3913 -111.4211
v  -181.9506 6.3913 -111.5105
v  -184.9117 6.3913 -111.5105
v  -187.8729 5.7784 -111.9987
v  -188.4504 5.7784 -111.8439
v  -188.8732 5.7784 -111.4211
v  -189.0280 5.7784 -110.8436
v  -189.0280 5.7784 -107.8824
v  -189.0280 5.7784 -104.9213
v  -188.8732 5.7784 -104.3437
v  -188.4504 5.7784 -103.9209
v  -187.8729 5.7784 -103.7662
v  -184.9117 5.7784 -103.7662
v  -181.9506 5.7784 -103.7662
v  -181.3730 5.7784 -103.9209
v  -180.9503 5.7784 -104.3437
v  -180.7955 5.7784 -104.9213
v  -180.7955 5.7784 -107.8824
v  -180.7955 5.7784 -110.8436
v  -180.9503 5.7784 -111.4211
v  -181.3730 5.7784 -111.8439
v  -181.9506 5.7784 -111.9987
v  -184.9117 5.7784 -111.9987
v  -187.8729 5.1300 -112.1774
v  -188.5398 5.1300 -111.9987
v  -189.0280 5.1300 -111.5105
v  -189.2067 5.1300 -110.8436
v  -189.2067 5.1300 -107.8824
v  -189.2067 5.1300 -104.9213
v  -189.0280 5.1300 -104.2544
v  -188.5398 5.1300 -103.7662
v  -187.8729 5.1300 -103.5875
v  -184.9117 5.1300 -103.5875
v  -181.9506 5.1300 -103.5875
v  -181.2837 5.1300 -103.7662
v  -180.7955 5.1300 -104.2544
v  -180.6168 5.1300 -104.9213
v  -180.6168 5.1300 -107.8824
v  -180.6168 5.1300 -110.8436
v  -180.7955 5.1300 -111.5105
v  -181.2837 5.1300 -111.9987
v  -181.9506 5.1300 -112.1774
v  -184.9117 5.1300 -112.1774
v  -187.8729 5.1218 -112.1774
v  -188.5398 5.1218 -111.9987
v  -189.0280 5.1218 -111.5105
v  -189.2067 5.1218 -110.8436
v  -189.2067 5.1218 -107.8824
v  -189.2067 5.1218 -104.9213
v  -189.0280 5.1218 -104.2544
v  -188.5398 5.1218 -103.7662
v  -187.8729 5.1218 -103.5875
v  -184.9117 5.1218 -103.5875
v  -181.9506 5.1218 -103.5875
v  -181.2837 5.1218 -103.7662
v  -180.7955 5.1218 -104.2544
v  -180.6168 5.1218 -104.9213
v  -180.6168 5.1218 -107.8824
v  -180.6168 5.1218 -110.8436
v  -180.7955 5.1218 -111.5105
v  -181.2837 5.1218 -111.9987
v  -181.9506 5.1218 -112.1774
v  -184.9117 5.1218 -112.1774
v  -187.8729 4.4365 -111.9987
v  -188.4504 4.4365 -111.8439
v  -188.8732 4.4365 -111.4211
v  -189.0280 4.4365 -110.8436
v  -189.0280 4.4365 -107.8824
v  -189.0280 4.4365 -104.9213
v  -188.8732 4.4365 -104.3437
v  -188.4504 4.4365 -103.9209
v  -187.8729 4.4365 -103.7662
v  -184.9117 4.4365 -103.7662
v  -181.9506 4.4365 -103.7662
v  -181.3730 4.4365 -103.9209
v  -180.9503 4.4365 -104.3437
v  -180.7955 4.4365 -104.9213
v  -180.7955 4.4365 -107.8824
v  -180.7955 4.4365 -110.8436
v  -180.9503 4.4365 -111.4211
v  -181.3730 4.4365 -111.8439
v  -181.9506 4.4365 -111.9987
v  -184.9117 4.4365 -111.9987
v  -187.8729 3.8236 -111.5105
v  -188.2063 3.8236 -111.4211
v  -188.4504 3.8236 -111.1770
v  -188.5398 3.8236 -110.8436
v  -188.5398 3.8236 -107.8824
v  -188.5398 3.8236 -104.9213
v  -188.4504 3.8236 -104.5878
v  -188.2063 3.8236 -104.3437
v  -187.8729 3.8236 -104.2544
v  -184.9117 3.8236 -104.2544
v  -181.9506 3.8236 -104.2544
v  -181.6172 3.8236 -104.3437
v  -181.3730 3.8236 -104.5878
v  -181.2837 3.8236 -104.9213
v  -181.2837 3.8236 -107.8824
v  -181.2837 3.8236 -110.8436
v  -181.3730 3.8236 -111.1770
v  -181.6172 3.8236 -111.4211
v  -181.9506 3.8236 -111.5105
v  -184.9117 3.8236 -111.5105
v  -187.8729 3.4474 -110.8436
v  -187.8729 3.4474 -107.8824
v  -187.8729 3.4474 -104.9213
v  -184.9117 3.4474 -104.9213
v  -181.9506 3.4474 -104.9213
v  -181.9506 3.4474 -107.8824
v  -181.9506 3.4474 -110.8436
v  -184.9117 3.4474 -110.8436
v  -184.9117 3.4474 -107.8824
v  -187.8729 6.8303 -119.4339
v  -187.8729 6.8303 -116.4728
v  -184.9117 6.8303 -116.4728
v  -184.9117 6.8303 -119.4339
v  -187.8729 6.3913 -120.1008
v  -188.2063 6.3913 -120.0115
v  -188.4504 6.3913 -119.7674
v  -188.5398 6.3913 -119.4339
v  -188.5398 6.3913 -116.4728
v  -187.8729 6.8303 -113.5116
v  -188.5398 6.3913 -113.5116
v  -188.4504 6.3913 -113.1782
v  -188.2063 6.3913 -112.9341
v  -187.8729 6.3913 -112.8447
v  -184.9117 6.3913 -112.8447
v  -184.9117 6.8303 -113.5116
v  -181.9506 6.8303 -113.5116
v  -181.9506 6.3913 -112.8447
v  -181.6172 6.3913 -112.9341
v  -181.3730 6.3913 -113.1782
v  -181.2837 6.3913 -113.5116
v  -181.2837 6.3913 -116.4728
v  -181.9506 6.8303 -116.4728
v  -181.9506 6.8303 -119.4339
v  -181.2837 6.3913 -119.4339
v  -181.3730 6.3913 -119.7674
v  -181.6172 6.3913 -120.0115
v  -181.9506 6.3913 -120.1008
v  -184.9117 6.3913 -120.1008
v  -187.8729 5.7784 -120.5890
v  -188.4504 5.7784 -120.4343
v  -188.8732 5.7784 -120.0115
v  -189.0280 5.7784 -119.4339
v  -189.0280 5.7784 -116.4728
v  -189.0280 5.7784 -113.5116
v  -188.8732 5.7784 -112.9341
v  -188.4504 5.7784 -112.5113
v  -187.8729 5.7784 -112.3565
v  -184.9117 5.7784 -112.3565
v  -181.9506 5.7784 -112.3565
v  -181.3730 5.7784 -112.5113
v  -180.9503 5.7784 -112.9341
v  -180.7955 5.7784 -113.5116
v  -180.7955 5.7784 -116.4728
v  -180.7955 5.7784 -119.4339
v  -180.9503 5.7784 -120.0115
v  -181.3730 5.7784 -120.4343
v  -181.9506 5.7784 -120.5890
v  -184.9117 5.7784 -120.5890
v  -187.8729 5.1300 -120.7677
v  -188.5398 5.1300 -120.5890
v  -189.0280 5.1300 -120.1008
v  -189.2067 5.1300 -119.4339
v  -189.2067 5.1300 -116.4728
v  -189.2067 5.1300 -113.5116
v  -189.0280 5.1300 -112.8447
v  -188.5398 5.1300 -112.3565
v  -187.8729 5.1300 -112.1778
v  -184.9117 5.1300 -112.1778
v  -181.9506 5.1300 -112.1778
v  -181.2837 5.1300 -112.3565
v  -180.7955 5.1300 -112.8447
v  -180.6168 5.1300 -113.5116
v  -180.6168 5.1300 -116.4728
v  -180.6168 5.1300 -119.4339
v  -180.7955 5.1300 -120.1008
v  -181.2837 5.1300 -120.5890
v  -181.9506 5.1300 -120.7677
v  -184.9117 5.1300 -120.7677
v  -187.8729 5.1218 -120.7677
v  -188.5398 5.1218 -120.5890
v  -189.0280 5.1218 -120.1008
v  -189.2067 5.1218 -119.4339
v  -189.2067 5.1218 -116.4728
v  -189.2067 5.1218 -113.5116
v  -189.0280 5.1218 -112.8447
v  -188.5398 5.1218 -112.3565
v  -187.8729 5.1218 -112.1778
v  -184.9117 5.1218 -112.1778
v  -181.9506 5.1218 -112.1778
v  -181.2837 5.1218 -112.3565
v  -180.7955 5.1218 -112.8447
v  -180.6168 5.1218 -113.5116
v  -180.6168 5.1218 -116.4728
v  -180.6168 5.1218 -119.4339
v  -180.7955 5.1218 -120.1008
v  -181.2837 5.1218 -120.5890
v  -181.9506 5.1218 -120.7677
v  -184.9117 5.1218 -120.7677
v  -187.8729 4.4365 -120.5890
v  -188.4504 4.4365 -120.4343
v  -188.8732 4.4365 -120.0115
v  -189.0280 4.4365 -119.4339
v  -189.0280 4.4365 -116.4728
v  -189.0280 4.4365 -113.5116
v  -188.8732 4.4365 -112.9341
v  -188.4504 4.4365 -112.5113
v  -187.8729 4.4365 -112.3565
v  -184.9117 4.4365 -112.3565
v  -181.9506 4.4365 -112.3565
v  -181.3730 4.4365 -112.5113
v  -180.9503 4.4365 -112.9341
v  -180.7955 4.4365 -113.5116
v  -180.7955 4.4365 -116.4728
v  -180.7955 4.4365 -119.4339
v  -180.9503 4.4365 -120.0115
v  -181.3730 4.4365 -120.4343
v  -181.9506 4.4365 -120.5890
v  -184.9117 4.4365 -120.5890
v  -187.8729 3.8236 -120.1008
v  -188.2063 3.8236 -120.0115
v  -188.4504 3.8236 -119.7674
v  -188.5398 3.8236 -119.4339
v  -188.5398 3.8236 -116.4728
v  -188.5398 3.8236 -113.5116
v  -188.4504 3.8236 -113.1782
v  -188.2063 3.8236 -112.9341
v  -187.8729 3.8236 -112.8447
v  -184.9117 3.8236 -112.8447
v  -181.9506 3.8236 -112.8447
v  -181.6172 3.8236 -112.9341
v  -181.3730 3.8236 -113.1782
v  -181.2837 3.8236 -113.5116
v  -181.2837 3.8236 -116.4728
v  -181.2837 3.8236 -119.4339
v  -181.3730 3.8236 -119.7674
v  -181.6172 3.8236 -120.0115
v  -181.9506 3.8236 -120.1008
v  -184.9117 3.8236 -120.1008
v  -187.8729 3.4474 -119.4339
v  -187.8729 3.4474 -116.4728
v  -187.8729 3.4474 -113.5116
v  -184.9117 3.4474 -113.5116
v  -181.9506 3.4474 -113.5116
v  -181.9506 3.4474 -116.4728
v  -181.9506 3.4474 -119.4339
v  -184.9117 3.4474 -119.4339
v  -184.9117 3.4474 -116.4728
v  -187.8729 3.3828 -123.6109
v  -187.8729 3.3828 -120.6498
v  -184.9117 3.3828 -120.6498
v  -184.9117 3.3828 -123.6109
v  -187.8729 2.9438 -124.2778
v  -188.2063 2.9438 -124.1885
v  -188.4504 2.9438 -123.9444
v  -188.5398 2.9438 -123.6109
v  -188.5398 2.9438 -120.6498
v  -187.8729 3.3828 -117.6886
v  -188.5398 2.9438 -117.6886
v  -188.4504 2.9438 -117.3552
v  -188.2063 2.9438 -117.1111
v  -187.8729 2.9438 -117.0217
v  -184.9117 2.9438 -117.0217
v  -184.9117 3.3828 -117.6886
v  -181.9506 3.3828 -117.6886
v  -181.9506 2.9438 -117.0217
v  -181.6172 2.9438 -117.1111
v  -181.3730 2.9438 -117.3552
v  -181.2837 2.9438 -117.6886
v  -181.2837 2.9438 -120.6498
v  -181.9506 3.3828 -120.6498
v  -181.9506 3.3828 -123.6109
v  -181.2837 2.9438 -123.6109
v  -181.3730 2.9438 -123.9444
v  -181.6172 2.9438 -124.1885
v  -181.9506 2.9438 -124.2778
v  -184.9117 2.9438 -124.2778
v  -187.8729 2.3310 -124.7660
v  -188.4504 2.3310 -124.6113
v  -188.8732 2.3310 -124.1885
v  -189.0280 2.3310 -123.6109
v  -189.0280 2.3310 -120.6498
v  -189.0280 2.3310 -117.6886
v  -188.8732 2.3310 -117.1111
v  -188.4504 2.3310 -116.6883
v  -187.8729 2.3310 -116.5335
v  -184.9117 2.3310 -116.5335
v  -181.9506 2.3310 -116.5335
v  -181.3730 2.3310 -116.6883
v  -180.9503 2.3310 -117.1111
v  -180.7955 2.3310 -117.6886
v  -180.7955 2.3310 -120.6498
v  -180.7955 2.3310 -123.6109
v  -180.9503 2.3310 -124.1885
v  -181.3730 2.3310 -124.6113
v  -181.9506 2.3310 -124.7660
v  -184.9117 2.3310 -124.7660
v  -187.8729 1.6825 -124.9447
v  -188.5398 1.6825 -124.7660
v  -189.0280 1.6825 -124.2778
v  -189.2067 1.6825 -123.6109
v  -189.2067 1.6825 -120.6498
v  -189.2067 1.6825 -117.6886
v  -189.0280 1.6825 -117.0217
v  -188.5398 1.6825 -116.5335
v  -187.8729 1.6825 -116.3548
v  -184.9117 1.6825 -116.3548
v  -181.9506 1.6825 -116.3548
v  -181.2837 1.6825 -116.5335
v  -180.7955 1.6825 -117.0217
v  -180.6168 1.6825 -117.6886
v  -180.6168 1.6825 -120.6498
v  -180.6168 1.6825 -123.6109
v  -180.7955 1.6825 -124.2778
v  -181.2837 1.6825 -124.7660
v  -181.9506 1.6825 -124.9447
v  -184.9117 1.6825 -124.9447
v  -187.8729 1.6744 -124.9447
v  -188.5398 1.6744 -124.7660
v  -189.0280 1.6744 -124.2778
v  -189.2067 1.6744 -123.6109
v  -189.2067 1.6744 -120.6498
v  -189.2067 1.6744 -117.6886
v  -189.0280 1.6744 -117.0217
v  -188.5398 1.6744 -116.5335
v  -187.8729 1.6744 -116.3548
v  -184.9117 1.6744 -116.3548
v  -181.9506 1.6744 -116.3548
v  -181.2837 1.6744 -116.5335
v  -180.7955 1.6744 -117.0217
v  -180.6168 1.6744 -117.6886
v  -180.6168 1.6744 -120.6498
v  -180.6168 1.6744 -123.6109
v  -180.7955 1.6744 -124.2778
v  -181.2837 1.6744 -124.7660
v  -181.9506 1.6744 -124.9447
v  -184.9117 1.6744 -124.9447
v  -187.8729 0.9891 -124.7660
v  -188.4504 0.9891 -124.6113
v  -188.8732 0.9891 -124.1885
v  -189.0280 0.9891 -123.6109
v  -189.0280 0.9891 -120.6498
v  -189.0280 0.9891 -117.6886
v  -188.8732 0.9891 -117.1111
v  -188.4504 0.9891 -116.6883
v  -187.8729 0.9891 -116.5335
v  -184.9117 0.9891 -116.5335
v  -181.9506 0.9891 -116.5335
v  -181.3730 0.9891 -116.6883
v  -180.9503 0.9891 -117.1111
v  -180.7955 0.9891 -117.6886
v  -180.7955 0.9891 -120.6498
v  -180.7955 0.9891 -123.6109
v  -180.9503 0.9891 -124.1885
v  -181.3730 0.9891 -124.6113
v  -181.9506 0.9891 -124.7660
v  -184.9117 0.9891 -124.7660
v  -187.8729 0.3762 -124.2778
v  -188.2063 0.3762 -124.1885
v  -188.4504 0.3762 -123.9444
v  -188.5398 0.3762 -123.6109
v  -188.5398 0.3762 -120.6498
v  -188.5398 0.3762 -117.6886
v  -188.4504 0.3762 -117.3552
v  -188.2063 0.3762 -117.1111
v  -187.8729 0.3762 -117.0217
v  -184.9117 0.3762 -117.0217
v  -181.9506 0.3762 -117.0217
v  -181.6172 0.3762 -117.1111
v  -181.3730 0.3762 -117.3552
v  -181.2837 0.3762 -117.6886
v  -181.2837 0.3762 -120.6498
v  -181.2837 0.3762 -123.6109
v  -181.3730 0.3762 -123.9444
v  -181.6172 0.3762 -124.1885
v  -181.9506 0.3762 -124.2778
v  -184.9117 0.3762 -124.2778
v  -187.8729 0.0000 -123.6109
v  -187.8729 0.0000 -120.6498
v  -187.8729 0.0000 -117.6886
v  -184.9117 0.0000 -117.6886
v  -181.9506 0.0000 -117.6886
v  -181.9506 0.0000 -120.6498
v  -181.9506 0.0000 -123.6109
v  -184.9117 0.0000 -123.6109
v  -184.9117 0.0000 -120.6498
v  -187.8729 10.2318 -114.9829
v  -187.8729 10.2318 -112.0218
v  -184.9117 10.2318 -112.0218
v  -184.9117 10.2318 -114.9829
v  -187.8729 9.7928 -115.6498
v  -188.2063 9.7928 -115.5605
v  -188.4504 9.7928 -115.3164
v  -188.5398 9.7928 -114.9829
v  -188.5398 9.7928 -112.0218
v  -187.8729 10.2318 -109.0606
v  -188.5398 9.7928 -109.0606
v  -188.4504 9.7928 -108.7272
v  -188.2063 9.7928 -108.4831
v  -187.8729 9.7928 -108.3937
v  -184.9117 9.7928 -108.3937
v  -184.9117 10.2318 -109.0606
v  -181.9506 10.2318 -109.0606
v  -181.9506 9.7928 -108.3937
v  -181.6172 9.7928 -108.4831
v  -181.3730 9.7928 -108.7272
v  -181.2837 9.7928 -109.0606
v  -181.2837 9.7928 -112.0218
v  -181.9506 10.2318 -112.0218
v  -181.9506 10.2318 -114.9829
v  -181.2837 9.7928 -114.9829
v  -181.3730 9.7928 -115.3164
v  -181.6172 9.7928 -115.5605
v  -181.9506 9.7928 -115.6498
v  -184.9117 9.7928 -115.6498
v  -187.8729 9.1799 -116.1380
v  -188.4504 9.1799 -115.9833
v  -188.8732 9.1799 -115.5605
v  -189.0280 9.1799 -114.9829
v  -189.0280 9.1799 -112.0218
v  -189.0280 9.1799 -109.0606
v  -188.8732 9.1799 -108.4831
v  -188.4504 9.1799 -108.0603
v  -187.8729 9.1799 -107.9055
v  -184.9117 9.1799 -107.9055
v  -181.9506 9.1799 -107.9055
v  -181.3730 9.1799 -108.0603
v  -180.9503 9.1799 -108.4831
v  -180.7955 9.1799 -109.0606
v  -180.7955 9.1799 -112.0218
v  -180.7955 9.1799 -114.9829
v  -180.9503 9.1799 -115.5605
v  -181.3730 9.1799 -115.9833
v  -181.9506 9.1799 -116.1380
v  -184.9117 9.1799 -116.1380
v  -187.8729 8.5315 -116.3167
v  -188.5398 8.5315 -116.1380
v  -189.0280 8.5315 -115.6498
v  -189.2067 8.5315 -114.9829
v  -189.2067 8.5315 -112.0218
v  -189.2067 8.5315 -109.0606
v  -189.0280 8.5315 -108.3937
v  -188.5398 8.5315 -107.9055
v  -187.8729 8.5315 -107.7269
v  -184.9117 8.5315 -107.7269
v  -181.9506 8.5315 -107.7269
v  -181.2837 8.5315 -107.9055
v  -180.7955 8.5315 -108.3937
v  -180.6168 8.5315 -109.0606
v  -180.6168 8.5315 -112.0218
v  -180.6168 8.5315 -114.9829
v  -180.7955 8.5315 -115.6498
v  -181.2837 8.5315 -116.1380
v  -181.9506 8.5315 -116.3167
v  -184.9117 8.5315 -116.3167
v  -187.8729 8.5233 -116.3167
v  -188.5398 8.5233 -116.1380
v  -189.0280 8.5233 -115.6498
v  -189.2067 8.5233 -114.9829
v  -189.2067 8.5233 -112.0218
v  -189.2067 8.5233 -109.0606
v  -189.0280 8.5233 -108.3937
v  -188.5398 8.5233 -107.9055
v  -187.8729 8.5233 -107.7269
v  -184.9117 8.5233 -107.7269
v  -181.9506 8.5233 -107.7269
v  -181.2837 8.5233 -107.9055
v  -180.7955 8.5233 -108.3937
v  -180.6168 8.5233 -109.0606
v  -180.6168 8.5233 -112.0218
v  -180.6168 8.5233 -114.9829
v  -180.7955 8.5233 -115.6498
v  -181.2837 8.5233 -116.1380
v  -181.9506 8.5233 -116.3167
v  -184.9117 8.5233 -116.3167
v  -187.8729 7.8380 -116.1380
v  -188.4504 7.8380 -115.9833
v  -188.8732 7.8380 -115.5605
v  -189.0280 7.8380 -114.9829
v  -189.0280 7.8380 -112.0218
v  -189.0280 7.8380 -109.0606
v  -188.8732 7.8380 -108.4831
v  -188.4504 7.8380 -108.0603
v  -187.8729 7.8380 -107.9055
v  -184.9117 7.8380 -107.9055
v  -181.9506 7.8380 -107.9055
v  -181.3730 7.8380 -108.0603
v  -180.9503 7.8380 -108.4831
v  -180.7955 7.8380 -109.0606
v  -180.7955 7.8380 -112.0218
v  -180.7955 7.8380 -114.9829
v  -180.9503 7.8380 -115.5605
v  -181.3730 7.8380 -115.9833
v  -181.9506 7.8380 -116.1380
v  -184.9117 7.8380 -116.1380
v  -187.8729 7.2251 -115.6498
v  -188.2063 7.2251 -115.5605
v  -188.4504 7.2251 -115.3164
v  -188.5398 7.2251 -114.9829
v  -188.5398 7.2251 -112.0218
v  -188.5398 7.2251 -109.0606
v  -188.4504 7.2251 -108.7272
v  -188.2063 7.2251 -108.4831
v  -187.8729 7.2251 -108.3937
v  -184.9117 7.2251 -108.3937
v  -181.9506 7.2251 -108.3937
v  -181.6172 7.2251 -108.4831
v  -181.3730 7.2251 -108.7272
v  -181.2837 7.2251 -109.0606
v  -181.2837 7.2251 -112.0218
v  -181.2837 7.2251 -114.9829
v  -181.3730 7.2251 -115.3164
v  -181.6172 7.2251 -115.5605
v  -181.9506 7.2251 -115.6498
v  -184.9117 7.2251 -115.6498
v  -187.8729 6.8489 -114.9829
v  -187.8729 6.8489 -112.0218
v  -187.8729 6.8489 -109.0606
v  -184.9117 6.8489 -109.0606
v  -181.9506 6.8489 -109.0606
v  -181.9506 6.8489 -112.0218
v  -181.9506 6.8489 -114.9829
v  -184.9117 6.8489 -114.9829
v  -184.9117 6.8489 -112.0218
v  -187.8729 10.2318 -123.6109
v  -187.8729 10.2318 -120.6498
v  -184.9117 10.2318 -120.6498
v  -184.9117 10.2318 -123.6109
v  -187.8729 9.7928 -124.2778
v  -188.2063 9.7928 -124.1885
v  -188.4504 9.7928 -123.9444
v  -188.5398 9.7928 -123.6109
v  -188.5398 9.7928 -120.6498
v  -187.8729 10.2318 -117.6886
v  -188.5398 9.7928 -117.6886
v  -188.4504 9.7928 -117.3552
v  -188.2063 9.7928 -117.1111
v  -187.8729 9.7928 -117.0217
v  -184.9117 9.7928 -117.0217
v  -184.9117 10.2318 -117.6886
v  -181.9506 10.2318 -117.6886
v  -181.9506 9.7928 -117.0217
v  -181.6172 9.7928 -117.1111
v  -181.3730 9.7928 -117.3552
v  -181.2837 9.7928 -117.6886
v  -181.2837 9.7928 -120.6498
v  -181.9506 10.2318 -120.6498
v  -181.9506 10.2318 -123.6109
v  -181.2837 9.7928 -123.6109
v  -181.3730 9.7928 -123.9444
v  -181.6172 9.7928 -124.1885
v  -181.9506 9.7928 -124.2778
v  -184.9117 9.7928 -124.2778
v  -187.8729 9.1799 -124.7660
v  -188.4504 9.1799 -124.6113
v  -188.8732 9.1799 -124.1885
v  -189.0280 9.1799 -123.6109
v  -189.0280 9.1799 -120.6498
v  -189.0280 9.1799 -117.6886
v  -188.8732 9.1799 -117.1111
v  -188.4504 9.1799 -116.6883
v  -187.8729 9.1799 -116.5335
v  -184.9117 9.1799 -116.5335
v  -181.9506 9.1799 -116.5335
v  -181.3730 9.1799 -116.6883
v  -180.9503 9.1799 -117.1111
v  -180.7955 9.1799 -117.6886
v  -180.7955 9.1799 -120.6498
v  -180.7955 9.1799 -123.6109
v  -180.9503 9.1799 -124.1885
v  -181.3730 9.1799 -124.6113
v  -181.9506 9.1799 -124.7660
v  -184.9117 9.1799 -124.7660
v  -187.8729 8.5315 -124.9447
v  -188.5398 8.5315 -124.7660
v  -189.0280 8.5315 -124.2778
v  -189.2067 8.5315 -123.6109
v  -189.2067 8.5315 -120.6498
v  -189.2067 8.5315 -117.6886
v  -189.0280 8.5315 -117.0217
v  -188.5398 8.5315 -116.5335
v  -187.8729 8.5315 -116.3548
v  -184.9117 8.5315 -116.3548
v  -181.9506 8.5315 -116.3548
v  -181.2837 8.5315 -116.5335
v  -180.7955 8.5315 -117.0217
v  -180.6168 8.5315 -117.6886
v  -180.6168 8.5315 -120.6498
v  -180.6168 8.5315 -123.6109
v  -180.7955 8.5315 -124.2778
v  -181.2837 8.5315 -124.7660
v  -181.9506 8.5315 -124.9447
v  -184.9117 8.5315 -124.9447
v  -187.8729 8.5233 -124.9447
v  -188.5398 8.5233 -124.7660
v  -189.0280 8.5233 -124.2778
v  -189.2067 8.5233 -123.6109
v  -189.2067 8.5233 -120.6498
v  -189.2067 8.5233 -117.6886
v  -189.0280 8.5233 -117.0217
v  -188.5398 8.5233 -116.5335
v  -187.8729 8.5233 -116.3548
v  -184.9117 8.5233 -116.3548
v  -181.9506 8.5233 -116.3548
v  -181.2837 8.5233 -116.5335
v  -180.7955 8.5233 -117.0217
v  -180.6168 8.5233 -117.6886
v  -180.6168 8.5233 -120.6498
v  -180.6168 8.5233 -123.6109
v  -180.7955 8.5233 -124.2778
v  -181.2837 8.5233 -124.7660
v  -181.9506 8.5233 -124.9447
v  -184.9117 8.5233 -124.9447
v  -187.8729 7.8380 -124.7660
v  -188.4504 7.8380 -124.6113
v  -188.8732 7.8380 -124.1885
v  -189.0280 7.8380 -123.6109
v  -189.0280 7.8380 -120.6498
v  -189.0280 7.8380 -117.6886
v  -188.8732 7.8380 -117.1111
v  -188.4504 7.8380 -116.6883
v  -187.8729 7.8380 -116.5335
v  -184.9117 7.8380 -116.5335
v  -181.9506 7.8380 -116.5335
v  -181.3730 7.8380 -116.6883
v  -180.9503 7.8380 -117.1111
v  -180.7955 7.8380 -117.6886
v  -180.7955 7.8380 -120.6498
v  -180.7955 7.8380 -123.6109
v  -180.9503 7.8380 -124.1885
v  -181.3730 7.8380 -124.6113
v  -181.9506 7.8380 -124.7660
v  -184.9117 7.8380 -124.7660
v  -187.8729 7.2251 -124.2778
v  -188.2063 7.2251 -124.1885
v  -188.4504 7.2251 -123.9444
v  -188.5398 7.2251 -123.6109
v  -188.5398 7.2251 -120.6498
v  -188.5398 7.2251 -117.6886
v  -188.4504 7.2251 -117.3552
v  -188.2063 7.2251 -117.1111
v  -187.8729 7.2251 -117.0217
v  -184.9117 7.2251 -117.0217
v  -181.9506 7.2251 -117.0217
v  -181.6172 7.2251 -117.1111
v  -181.3730 7.2251 -117.3552
v  -181.2837 7.2251 -117.6886
v  -181.2837 7.2251 -120.6498
v  -181.2837 7.2251 -123.6109
v  -181.3730 7.2251 -123.9444
v  -181.6172 7.2251 -124.1885
v  -181.9506 7.2251 -124.2778
v  -184.9117 7.2251 -124.2778
v  -187.8729 6.8489 -123.6109
v  -187.8729 6.8489 -120.6498
v  -187.8729 6.8489 -117.6886
v  -184.9117 6.8489 -117.6886
v  -181.9506 6.8489 -117.6886
v  -181.9506 6.8489 -120.6498
v  -181.9506 6.8489 -123.6109
v  -184.9117 6.8489 -123.6109
v  -184.9117 6.8489 -120.6498
v  -177.7667 7.1807 -107.1320
v  -178.5570 7.1807 -104.2783
v  -176.8891 4.7780 -103.8164
v  -176.0988 4.7780 -106.6701
v  -177.9320 6.9241 -107.8698
v  -178.1437 7.1947 -107.8357
v  -178.3463 7.3928 -107.6385
v  -178.4857 7.4653 -107.3311
v  -179.2760 7.4653 -104.4774
v  -179.3474 7.1807 -101.4246
v  -180.0663 7.4653 -101.6237
v  -180.1049 7.3928 -101.2884
v  -180.0326 7.1947 -101.0151
v  -179.8686 6.9241 -100.8769
v  -178.2007 4.5214 -100.4150
v  -177.6794 4.7780 -100.9627
v  -176.0115 2.3753 -100.5008
v  -176.5328 2.1187 -99.9531
v  -176.3212 1.8481 -99.9872
v  -176.1185 1.6500 -100.1844
v  -175.9792 1.5775 -100.4918
v  -175.1889 1.5775 -103.3455
v  -175.2212 2.3753 -103.3545
v  -174.4309 2.3753 -106.2082
v  -174.3986 1.5775 -106.1993
v  -174.3599 1.6500 -106.5346
v  -174.4323 1.8481 -106.8079
v  -174.5962 2.1187 -106.9460
v  -176.2641 4.5214 -107.4079
v  -178.2810 6.5659 -108.4730
v  -178.6476 7.0346 -108.4140
v  -178.9986 7.3776 -108.0725
v  -179.2399 7.5032 -107.5400
v  -180.0302 7.5032 -104.6863
v  -180.8205 7.5032 -101.8326
v  -180.8875 7.3776 -101.2518
v  -180.7622 7.0346 -100.7784
v  -180.4782 6.5659 -100.5392
v  -178.8103 4.1632 -100.0773
v  -177.1424 1.7605 -99.6154
v  -176.7758 1.2918 -99.6744
v  -176.4248 0.9488 -100.0159
v  -176.1835 0.8232 -100.5484
v  -175.3932 0.8232 -103.4021
v  -174.6028 0.8232 -106.2558
v  -174.5359 0.9488 -106.8366
v  -174.6612 1.2918 -107.3100
v  -174.9452 1.7605 -107.5492
v  -176.6131 4.1632 -108.0111
v  -178.7404 6.1870 -108.7857
v  -179.1637 6.7281 -108.7175
v  -179.5690 7.1242 -108.3231
v  -179.8476 7.2692 -107.7083
v  -180.6379 7.2692 -104.8546
v  -181.4282 7.2692 -102.0009
v  -181.5056 7.1242 -101.3303
v  -181.3609 6.7281 -100.7836
v  -181.0329 6.1870 -100.5074
v  -179.3650 3.7842 -100.0455
v  -177.6971 1.3815 -99.5836
v  -177.2738 0.8404 -99.6517
v  -176.8685 0.4442 -100.0461
v  -176.5899 0.2992 -100.6609
v  -175.7996 0.2992 -103.5147
v  -175.0093 0.2992 -106.3684
v  -174.9319 0.4442 -107.0390
v  -175.0766 0.8404 -107.5856
v  -175.4046 1.3815 -107.8619
v  -177.0725 3.7842 -108.3238
v  -178.7467 6.1822 -108.7874
v  -179.1701 6.7233 -108.7192
v  -179.5753 7.1195 -108.3249
v  -179.8540 7.2645 -107.7101
v  -180.6443 7.2645 -104.8563
v  -181.4346 7.2645 -102.0026
v  -181.5119 7.1195 -101.3320
v  -181.3672 6.7233 -100.7854
v  -181.0393 6.1822 -100.5091
v  -179.3714 3.7795 -100.0472
v  -177.7035 1.3767 -99.5853
v  -177.2802 0.8356 -99.6535
v  -176.8749 0.4395 -100.0479
v  -176.5962 0.2945 -100.6627
v  -175.8059 0.2945 -103.5164
v  -175.0156 0.2945 -106.3701
v  -174.9383 0.4395 -107.0407
v  -175.0830 0.8356 -107.5874
v  -175.4109 1.3767 -107.8636
v  -177.0788 3.7795 -108.3255
v  -179.3303 5.7816 -108.7636
v  -179.6970 6.2503 -108.7046
v  -180.0479 6.5934 -108.3631
v  -180.2892 6.7189 -107.8306
v  -181.0796 6.7189 -104.9769
v  -181.8699 6.7189 -102.1232
v  -181.9368 6.5934 -101.5424
v  -181.8115 6.2503 -101.0690
v  -181.5275 5.7816 -100.8298
v  -179.8596 3.3789 -100.3679
v  -178.1917 0.9762 -99.9060
v  -177.8251 0.5076 -99.9650
v  -177.4741 0.1645 -100.3065
v  -177.2328 0.0389 -100.8390
v  -176.4425 0.0389 -103.6927
v  -175.6522 0.0389 -106.5464
v  -175.5852 0.1645 -107.1272
v  -175.7105 0.5076 -107.6006
v  -175.9945 0.9762 -107.8398
v  -177.6624 3.3789 -108.3017
v  -179.9399 5.4234 -108.4259
v  -180.1516 5.6940 -108.3918
v  -180.3542 5.8921 -108.1946
v  -180.4935 5.9646 -107.8872
v  -181.2838 5.9646 -105.0335
v  -182.0741 5.9646 -102.1797
v  -182.1128 5.8921 -101.8444
v  -182.0405 5.6940 -101.5711
v  -181.8765 5.4234 -101.4330
v  -180.2086 3.0207 -100.9711
v  -178.5407 0.6180 -100.5092
v  -178.3290 0.3474 -100.5433
v  -178.1264 0.1494 -100.7404
v  -177.9871 0.0769 -101.0479
v  -177.1967 0.0769 -103.9016
v  -176.4064 0.0769 -106.7553
v  -176.3678 0.1494 -107.0906
v  -176.4401 0.3474 -107.3639
v  -176.6041 0.6180 -107.5021
v  -178.2720 3.0207 -107.9640
v  -180.4121 5.2036 -107.8646
v  -181.2024 5.2036 -105.0109
v  -181.9927 5.2036 -102.1572
v  -180.3248 2.8008 -101.6953
v  -178.6569 0.3981 -101.2334
v  -177.8666 0.3981 -104.0871
v  -177.0763 0.3981 -106.9408
v  -178.7442 2.8008 -107.4027
v  -179.5345 2.8008 -104.5490
# 1104 vertices

vn -0.1990 0.9596 -0.1990
vn -0.2391 0.9710 -0.0000
vn 0.0000 1.0000 -0.0000
vn 0.0000 0.9710 -0.2391
vn -0.0801 0.7972 -0.5984
vn -0.3041 0.7937 -0.5268
vn -0.5268 0.7937 -0.3041
vn -0.5984 0.7972 -0.0801
vn -0.5925 0.8056 -0.0000
vn -0.1990 0.9596 0.1990
vn -0.5984 0.7972 0.0801
vn -0.5268 0.7937 0.3041
vn -0.3041 0.7937 0.5268
vn -0.0801 0.7972 0.5984
vn 0.0000 0.8056 0.5925
vn 0.0000 0.9710 0.2391
vn 0.1990 0.9596 0.1990
vn 0.0801 0.7972 0.5984
vn 0.3041 0.7937 0.5268
vn 0.5268 0.7937 0.3041
vn 0.5984 0.7972 0.0801
vn 0.5925 0.8056 -0.0000
vn 0.2391 0.9710 -0.0000
vn 0.1990 0.9596 -0.1990
vn 0.5984 0.7972 -0.0801
vn 0.5268 0.7937 -0.3041
vn 0.3041 0.7937 -0.5268
vn 0.0801 0.7972 -0.5984
vn 0.0000 0.8056 -0.5925
vn -0.1109 0.5195 -0.8472
vn -0.4287 0.5145 -0.7426
vn -0.7426 0.5145 -0.4287
vn -0.8472 0.5195 -0.1109
vn -0.8477 0.5305 -0.0000
vn -0.8472 0.5195 0.1109
vn -0.7426 0.5145 0.4287
vn -0.4287 0.5145 0.7426
vn -0.1109 0.5195 0.8472
vn 0.0000 0.5305 0.8477
vn 0.1109 0.5195 0.8472
vn 0.4287 0.5145 0.7426
vn 0.7426 0.5145 0.4287
vn 0.8472 0.5195 0.1109
vn 0.8477 0.5305 -0.0000
vn 0.8472 0.5195 -0.1109
vn 0.7426 0.5145 -0.4287
vn 0.4287 0.5145 -0.7426
vn 0.1109 0.5195 -0.8472
vn 0.0000 0.5305 -0.8477
vn -0.1272 0.1624 -0.9785
vn -0.4934 0.1615 -0.8547
vn -0.8547 0.1615 -0.4934
vn -0.9785 0.1624 -0.1272
vn -0.9862 0.1658 -0.0000
vn -0.9785 0.1624 0.1272
vn -0.8547 0.1615 0.4934
vn -0.4934 0.1615 0.8547
vn -0.1272 0.1624 0.9785
vn 0.0000 0.1658 0.9862
vn 0.1272 0.1624 0.9785
vn 0.4934 0.1615 0.8547
vn 0.8547 0.1615 0.4934
vn 0.9785 0.1624 0.1272
vn 0.9862 0.1658 -0.0000
vn 0.9785 0.1624 -0.1272
vn 0.8547 0.1615 -0.4934
vn 0.4934 0.1615 -0.8547
vn 0.1272 0.1624 -0.9785
vn 0.0000 0.1658 -0.9862
vn -0.1274 -0.1544 -0.9798
vn -0.4941 -0.1536 -0.8557
vn -0.8557 -0.1536 -0.4941
vn -0.9798 -0.1544 -0.1274
vn -0.9875 -0.1575 -0.0000
vn -0.9798 -0.1544 0.1274
vn -0.8557 -0.1536 0.4941
vn -0.4941 -0.1536 0.8557
vn -0.1274 -0.1544 0.9798
vn 0.0000 -0.1575 0.9875
vn 0.1274 -0.1544 0.9798
vn 0.4941 -0.1536 0.8557
vn 0.8557 -0.1536 0.4941
vn 0.9798 -0.1544 0.1274
vn 0.9875 -0.1575 -0.0000
vn 0.9798 -0.1544 -0.1274
vn 0.8557 -0.1536 -0.4941
vn 0.4941 -0.1536 -0.8557
vn 0.1274 -0.1544 -0.9798
vn 0.0000 -0.1575 -0.9875
vn -0.1114 -0.5123 -0.8516
vn -0.4310 -0.5070 -0.7465
vn -0.7465 -0.5070 -0.4310
vn -0.8516 -0.5123 -0.1114
vn -0.8521 -0.5234 -0.0000
vn -0.8516 -0.5123 0.1114
vn -0.7465 -0.5070 0.4310
vn -0.4310 -0.5070 0.7465
vn -0.1114 -0.5123 0.8516
vn 0.0000 -0.5234 0.8521
vn 0.1114 -0.5123 0.8516
vn 0.4310 -0.5070 0.7465
vn 0.7465 -0.5070 0.4310
vn 0.8516 -0.5123 0.1114
vn 0.8521 -0.5234 -0.0000
vn 0.8516 -0.5123 -0.1114
vn 0.7465 -0.5070 -0.4310
vn 0.4310 -0.5070 -0.7465
vn 0.1114 -0.5123 -0.8516
vn 0.0000 -0.5234 -0.8521
vn -0.0773 -0.8139 -0.5758
vn -0.2937 -0.8093 -0.5088
vn -0.5088 -0.8093 -0.2937
vn -0.5758 -0.8139 -0.0773
vn -0.5678 -0.8232 -0.0000
vn -0.5758 -0.8139 0.0773
vn -0.5088 -0.8093 0.2937
vn -0.2937 -0.8093 0.5088
vn -0.0773 -0.8139 0.5758
vn 0.0000 -0.8232 0.5678
vn 0.0773 -0.8139 0.5758
vn 0.2937 -0.8093 0.5088
vn 0.5088 -0.8093 0.2937
vn 0.5758 -0.8139 0.0773
vn 0.5678 -0.8232 -0.0000
vn 0.5758 -0.8139 -0.0773
vn 0.5088 -0.8093 -0.2937
vn 0.2937 -0.8093 -0.5088
vn 0.0773 -0.8139 -0.5758
vn 0.0000 -0.8232 -0.5678
vn -0.1745 -0.9691 -0.1745
vn -0.2096 -0.9778 -0.0000
vn -0.1745 -0.9691 0.1745
vn 0.0000 -0.9778 0.2096
vn 0.1745 -0.9691 0.1745
vn 0.2096 -0.9778 -0.0000
vn 0.1745 -0.9691 -0.1745
vn 0.0000 -0.9778 -0.2096
vn 0.0000 -1.0000 -0.0000
vn -0.8558 -0.1536 0.4941
vn 0.8558 -0.1536 0.4941
vn -0.8558 -0.1536 -0.4941
vn 0.8558 -0.1536 -0.4941
vn 0.5960 0.8006 -0.0627
vn 0.5162 0.8444 0.1430
vn 0.7148 0.6707 0.1980
vn 0.7602 0.6463 -0.0671
vn 0.6567 0.5815 -0.4802
vn 0.4757 0.7715 -0.4225
vn 0.2704 0.9363 -0.2244
vn 0.1722 0.9847 -0.0277
vn 0.1600 0.9861 0.0443
vn 0.4788 0.8006 0.3604
vn 0.1334 0.9847 0.1124
vn 0.1164 0.9363 0.3315
vn 0.1906 0.7715 0.6071
vn 0.3161 0.5815 0.7496
vn 0.3762 0.5139 0.7709
vn 0.6174 0.6463 0.4486
vn 0.7935 0.4110 0.4489
vn 0.4250 0.4217 0.8010
vn 0.6020 0.1732 0.7795
vn 0.8127 -0.0713 0.5784
vn 0.9251 -0.1506 0.3486
vn 0.9539 -0.1427 0.2642
vn 0.8899 0.3839 0.2464
vn 0.9114 0.4109 0.0233
vn 0.9726 -0.1506 0.1769
vn 0.9944 -0.0713 -0.0779
vn 0.9172 0.1732 -0.3588
vn 0.7765 0.4217 -0.4683
vn 0.7192 0.5139 -0.4676
vn 0.5016 0.4212 -0.7556
vn 0.2765 0.6911 -0.6678
vn 0.0233 0.9201 -0.3910
vn -0.1000 0.9870 -0.1255
vn -0.1196 0.9923 -0.0331
vn -0.1504 0.9870 0.0562
vn -0.1812 0.9201 0.3472
vn -0.1064 0.6911 0.7148
vn 0.0414 0.4212 0.9060
vn 0.1121 0.3244 0.9393
vn 0.1740 0.2001 0.9642
vn 0.3905 -0.1298 0.9114
vn 0.6430 -0.4368 0.6291
vn 0.7780 -0.5355 0.3285
vn 0.8140 -0.5353 0.2254
vn 0.8362 -0.5355 0.1185
vn 0.8750 -0.4368 -0.2087
vn 0.8037 -0.1298 -0.5807
vn 0.6452 0.2001 -0.7373
vn 0.5793 0.3244 -0.7478
vn 0.2903 0.2211 -0.9310
vn 0.0543 0.5508 -0.8329
vn -0.2142 0.8307 -0.5139
vn -0.3503 0.9131 -0.2089
vn -0.3789 0.9195 -0.1049
vn -0.4078 0.9131 -0.0011
vn -0.4480 0.8307 0.3305
vn -0.3819 0.5508 0.7421
vn -0.2300 0.2211 0.9478
vn -0.1598 0.0978 0.9823
vn -0.0868 -0.0336 0.9957
vn 0.1458 -0.3850 0.9113
vn 0.4121 -0.6953 0.5888
vn 0.5503 -0.7902 0.2697
vn 0.5837 -0.7957 0.1616
vn 0.6107 -0.7902 0.0519
vn 0.6563 -0.6953 -0.2929
vn 0.5938 -0.3851 -0.7065
vn 0.4377 -0.0336 -0.8985
vn 0.3683 0.0978 -0.9245
vn 0.0922 0.0386 -0.9950
vn -0.1405 0.3901 -0.9100
vn -0.4068 0.6999 -0.5871
vn -0.5450 0.7944 -0.2682
vn -0.5782 0.8000 -0.1601
vn -0.6053 0.7944 -0.0504
vn -0.6508 0.6999 0.2942
vn -0.5886 0.3901 0.7081
vn -0.4327 0.0386 0.9007
vn -0.3633 -0.0929 0.9270
vn -0.2854 -0.2167 0.9336
vn -0.0495 -0.5475 0.8354
vn 0.2189 -0.8282 0.5159
vn 0.3552 -0.9108 0.2104
vn 0.3841 -0.9172 0.1064
vn 0.4128 -0.9108 0.0022
vn 0.4531 -0.8282 -0.3298
vn 0.3872 -0.5475 -0.7418
vn 0.2355 -0.2167 -0.9474
vn 0.1653 -0.0929 -0.9819
vn -0.1685 -0.1952 -0.9662
vn -0.3856 0.1357 -0.9126
vn -0.6389 0.4428 -0.6291
vn -0.7743 0.5414 -0.3277
vn -0.8104 0.5412 -0.2244
vn -0.8326 0.5414 -0.1173
vn -0.8715 0.4428 0.2108
vn -0.8002 0.1357 0.5842
vn -0.6415 -0.1952 0.7418
vn -0.5756 -0.3200 0.7525
vn -0.4977 -0.4171 0.7605
vn -0.2718 -0.6884 0.6725
vn -0.0179 -0.9188 0.3943
vn 0.1056 -0.9862 0.1274
vn 0.1251 -0.9915 0.0346
vn 0.1561 -0.9862 -0.0550
vn 0.1875 -0.9188 -0.3473
vn 0.1129 -0.6884 -0.7165
vn -0.0355 -0.4171 -0.9082
vn -0.1065 -0.3200 -0.9414
vn -0.4439 -0.4373 -0.7821
vn -0.6158 -0.1964 -0.7630
vn -0.8217 0.0376 -0.5687
vn -0.9312 0.1105 -0.3473
vn -0.9589 0.1001 -0.2656
vn -0.9772 0.1105 -0.1812
vn -0.9972 0.0376 0.0650
vn -0.9206 -0.1964 0.3375
vn -0.7830 -0.4373 0.4423
vn -0.7272 -0.5278 0.4389
vn -0.6664 -0.5913 0.4541
vn -0.4900 -0.7738 0.4013
vn -0.2907 -0.9336 0.2094
vn -0.1973 -0.9802 0.0184
vn -0.1874 -0.9809 -0.0519
vn -0.1598 -0.9802 -0.1173
vn -0.1416 -0.9336 -0.3291
vn -0.2138 -0.7738 -0.5962
vn -0.3379 -0.5913 -0.7322
vn -0.3978 -0.5278 -0.7505
vn -0.7892 -0.4478 -0.4203
vn -0.8732 -0.4231 -0.2418
vn -0.8930 -0.4478 -0.0455
vn -0.7576 -0.6518 0.0349
vn -0.6110 -0.7910 0.0314
vn -0.5396 -0.8286 -0.1494
vn -0.5078 -0.7910 -0.3412
vn -0.6317 -0.6518 -0.4196
vn -0.7148 -0.6707 -0.1980
# 280 vertex normals

vt 0.1553 0.8447 0.0000
vt 0.1553 0.5000 0.0000
vt 0.5000 0.5000 0.0000
vt 0.5000 0.8447 0.0000
vt 0.1553 0.9224 0.0000
vt 0.1165 0.9120 0.0000
vt 0.0880 0.8835 0.0000
vt 0.0776 0.8447 0.0000
vt 0.0776 0.5000 0.0000
vt 0.1553 0.1553 0.0000
vt 0.0776 0.1553 0.0000
vt 0.0880 0.1165 0.0000
vt 0.1165 0.0880 0.0000
vt 0.1553 0.0776 0.0000
vt 0.5000 0.0776 0.0000
vt 0.5000 0.1553 0.0000
vt 0.8447 0.1553 0.0000
vt 0.8447 0.0776 0.0000
vt 0.8835 0.0880 0.0000
vt 0.9120 0.1165 0.0000
vt 0.9224 0.1553 0.0000
vt 0.9224 0.5000 0.0000
vt 0.8447 0.5000 0.0000
vt 0.8447 0.8447 0.0000
vt 0.9224 0.8447 0.0000
vt 0.9120 0.8835 0.0000
vt 0.8835 0.9120 0.0000
vt 0.8447 0.9224 0.0000
vt 0.5000 0.9224 0.0000
vt 0.1553 0.9792 0.0000
vt 0.0880 0.9612 0.0000
vt 0.0388 0.9120 0.0000
vt 0.0208 0.8447 0.0000
vt 0.0208 0.5000 0.0000
vt 0.0208 0.1553 0.0000
vt 0.0388 0.0880 0.0000
vt 0.0880 0.0388 0.0000
vt 0.1553 0.0208 0.0000
vt 0.5000 0.0208 0.0000
vt 0.8447 0.0208 0.0000
vt 0.9120 0.0388 0.0000
vt 0.9612 0.0880 0.0000
vt 0.9792 0.1553 0.0000
vt 0.9792 0.5000 0.0000
vt 0.9792 0.8447 0.0000
vt 0.9612 0.9120 0.0000
vt 0.9120 0.9612 0.0000
vt 0.8447 0.9792 0.0000
vt 0.5000 0.9792 0.0000
vt 0.1553 1.0000 0.0000
vt 0.0776 0.9792 0.0000
vt 0.0208 0.9224 0.0000
vt 0.0000 0.8447 0.0000
vt 0.0000 0.5000 0.0000
vt 0.0000 0.1553 0.0000
vt 0.0208 0.0776 0.0000
vt 0.0776 0.0208 0.0000
vt 0.1553 0.0000 0.0000
vt 0.5000 0.0000 0.0000
vt 0.8447 0.0000 0.0000
vt 0.9224 0.0208 0.0000
vt 0.9792 0.0776 0.0000
vt 1.0000 0.1553 0.0000
vt 1.0000 0.5000 0.0000
vt 1.0000 0.8447 0.0000
vt 0.9792 0.9224 0.0000
vt 0.9224 0.9792 0.0000
vt 0.8447 1.0000 0.0000
vt 0.5000 1.0000 0.0000
vt 0.0000 1.0000 0.0000
vt 0.0000 0.0000 0.0000
vt 0.0185 0.0000 0.0000
vt 0.0185 1.0000 0.0000
vt 0.0370 0.0000 0.0000
vt 0.0370 1.0000 0.0000
vt 0.0555 0.0000 0.0000
vt 0.0555 1.0000 0.0000
vt 0.1349 0.0000 0.0000
vt 0.1349 1.0000 0.0000
vt 0.2143 1.0000 0.0000
vt 0.2143 0.0000 0.0000
vt 0.2328 0.0000 0.0000
vt 0.2328 1.0000 0.0000
vt 0.2513 0.0000 0.0000
vt 0.2513 1.0000 0.0000
vt 0.2698 0.0000 0.0000
vt 0.2698 1.0000 0.0000
vt 0.3491 0.0000 0.0000
vt 0.3491 1.0000 0.0000
vt 0.4285 1.0000 0.0000
vt 0.4285 0.0000 0.0000
vt 0.4470 0.0000 0.0000
vt 0.4470 1.0000 0.0000
vt 0.4655 0.0000 0.0000
vt 0.4655 1.0000 0.0000
vt 0.4840 0.0000 0.0000
vt 0.4840 1.0000 0.0000
vt 0.5634 0.0000 0.0000
vt 0.5634 1.0000 0.0000
vt 0.6428 1.0000 0.0000
vt 0.6428 0.0000 0.0000
vt 0.6613 0.0000 0.0000
vt 0.6613 1.0000 0.0000
vt 0.6798 0.0000 0.0000
vt 0.6798 1.0000 0.0000
vt 0.6983 0.0000 0.0000
vt 0.6983 1.0000 0.0000
vt 0.8491 0.0000 0.0000
vt 0.8491 1.0000 0.0000
vt 1.0000 0.0000 0.0000
vt 1.0000 1.0000 0.0000
# 111 texture coords

o Gum_Ruins
g Gum_Ruins
usemtl wire_143225087
s 1
f 1/1/1 2/2/2 3/3/3 4/4/4 
f 1/1/1 5/5/5 6/6/6 
f 1/1/1 6/6/6 7/7/7 
f 1/1/1 7/7/7 8/8/8 
f 1/1/1 8/8/8 9/9/9 2/2/2 
f 10/10/10 11/11/11 12/12/12 
f 10/10/10 12/12/12 13/13/13 
f 10/10/10 13/13/13 14/14/14 
f 10/10/10 14/14/14 15/15/15 16/16/16 
f 17/17/17 18/18/18 19/19/19 
f 17/17/17 19/19/19 20/20/20 
f 17/17/17 20/20/20 21/21/21 
f 17/17/17 21/21/21 22/22/22 23/23/23 
f 24/24/24 25/25/25 26/26/26 
f 24/24/24 26/26/26 27/27/27 
f 24/24/24 27/27/27 28/28/28 
f 24/24/24 28/28/28 29/29/29 4/4/4 
f 5/5/5 30/30/30 31/31/31 6/6/6 
f 6/6/6 31/31/31 32/32/32 7/7/7 
f 7/7/7 32/32/32 33/33/33 8/8/8 
f 8/8/8 33/33/33 34/34/34 9/9/9 
f 11/11/11 35/35/35 36/36/36 12/12/12 
f 12/12/12 36/36/36 37/37/37 13/13/13 
f 13/13/13 37/37/37 38/38/38 14/14/14 
f 14/14/14 38/38/38 39/39/39 15/15/15 
f 18/18/18 40/40/40 41/41/41 19/19/19 
f 19/19/19 41/41/41 42/42/42 20/20/20 
f 20/20/20 42/42/42 43/43/43 21/21/21 
f 21/21/21 43/43/43 44/44/44 22/22/22 
f 25/25/25 45/45/45 46/46/46 26/26/26 
f 26/26/26 46/46/46 47/47/47 27/27/27 
f 27/27/27 47/47/47 48/48/48 28/28/28 
f 28/28/28 48/48/48 49/49/49 29/29/29 
f 30/30/30 50/50/50 51/51/51 31/31/31 
f 31/31/31 51/51/51 52/52/52 32/32/32 
f 32/32/32 52/52/52 53/53/53 33/33/33 
f 33/33/33 53/53/53 54/54/54 34/34/34 
f 35/35/35 55/55/55 56/56/56 36/36/36 
f 36/36/36 56/56/56 57/57/57 37/37/37 
f 37/37/37 57/57/57 58/58/58 38/38/38 
f 38/38/38 58/58/58 59/59/59 39/39/39 
f 40/40/40 60/60/60 61/61/61 41/41/41 
f 41/41/41 61/61/61 62/62/62 42/42/42 
f 42/42/42 62/62/62 63/63/63 43/43/43 
f 43/43/43 63/63/63 64/64/64 44/44/44 
f 45/45/45 65/65/65 66/66/66 46/46/46 
f 46/46/46 66/66/66 67/67/67 47/47/47 
f 47/47/47 67/67/67 68/68/68 48/48/48 
f 48/48/48 68/68/68 69/69/69 49/49/49 
f 50/70/50 70/71/70 71/72/71 51/73/51 
f 51/73/51 71/72/71 72/74/72 52/75/52 
f 52/75/52 72/74/72 73/76/73 53/77/53 
f 53/77/53 73/76/73 74/78/74 54/79/54 
f 55/80/55 75/81/75 76/82/76 56/83/56 
f 56/83/56 76/82/76 77/84/77 57/85/57 
f 57/85/57 77/84/77 78/86/78 58/87/58 
f 58/87/58 78/86/78 79/88/79 59/89/59 
f 60/90/60 80/91/80 81/92/81 61/93/61 
f 61/93/61 81/92/81 82/94/82 62/95/62 
f 62/95/62 82/94/82 83/96/83 63/97/63 
f 63/97/63 83/96/83 84/98/84 64/99/64 
f 65/100/65 85/101/85 86/102/86 66/103/66 
f 66/103/66 86/102/86 87/104/87 67/105/67 
f 67/105/67 87/104/87 88/106/88 68/107/68 
f 68/107/68 88/106/88 89/108/89 69/109/69 
f 70/58/70 90/38/90 91/37/91 71/57/71 
f 71/57/71 91/37/91 92/36/92 72/56/72 
f 72/56/72 92/36/92 93/35/93 73/55/73 
f 73/55/73 93/35/93 94/34/94 74/54/74 
f 75/53/75 95/33/95 96/32/96 76/52/76 
f 76/52/76 96/32/96 97/31/97 77/51/77 
f 77/51/77 97/31/97 98/30/98 78/50/78 
f 78/50/78 98/30/98 99/49/99 79/69/79 
f 80/68/80 100/48/100 101/47/101 81/67/81 
f 81/67/81 101/47/101 102/46/102 82/66/82 
f 82/66/82 102/46/102 103/45/103 83/65/83 
f 83/65/83 103/45/103 104/44/104 84/64/84 
f 85/63/85 105/43/105 106/42/106 86/62/86 
f 86/62/86 106/42/106 107/41/107 87/61/87 
f 87/61/87 107/41/107 108/40/108 88/60/88 
f 88/60/88 108/40/108 109/39/109 89/59/89 
f 90/38/90 110/14/110 111/13/111 91/37/91 
f 91/37/91 111/13/111 112/12/112 92/36/92 
f 92/36/92 112/12/112 113/11/113 93/35/93 
f 93/35/93 113/11/113 114/9/114 94/34/94 
f 95/33/95 115/8/115 116/7/116 96/32/96 
f 96/32/96 116/7/116 117/6/117 97/31/97 
f 97/31/97 117/6/117 118/5/118 98/30/98 
f 98/30/98 118/5/118 119/29/119 99/49/99 
f 100/48/100 120/28/120 121/27/121 101/47/101 
f 101/47/101 121/27/121 122/26/122 102/46/102 
f 102/46/102 122/26/122 123/25/123 103/45/103 
f 103/45/103 123/25/123 124/22/124 104/44/104 
f 105/43/105 125/21/125 126/20/126 106/42/106 
f 106/42/106 126/20/126 127/19/127 107/41/107 
f 107/41/107 127/19/127 128/18/128 108/40/108 
f 108/40/108 128/18/128 129/15/129 109/39/109 
f 110/14/110 130/10/130 111/13/111 
f 111/13/111 130/10/130 112/12/112 
f 112/12/112 130/10/130 113/11/113 
f 113/11/113 130/10/130 131/2/131 114/9/114 
f 115/8/115 132/1/132 116/7/116 
f 116/7/116 132/1/132 117/6/117 
f 117/6/117 132/1/132 118/5/118 
f 118/5/118 132/1/132 133/4/133 119/29/119 
f 120/28/120 134/24/134 121/27/121 
f 121/27/121 134/24/134 122/26/122 
f 122/26/122 134/24/134 123/25/123 
f 123/25/123 134/24/134 135/23/135 124/22/124 
f 125/21/125 136/17/136 126/20/126 
f 126/20/126 136/17/136 127/19/127 
f 127/19/127 136/17/136 128/18/128 
f 128/18/128 136/17/136 137/16/137 129/15/129 
f 136/17/136 135/23/135 138/3/138 137/16/137 
f 2/2/2 10/10/10 16/16/16 3/3/3 
f 9/9/9 11/11/11 10/10/10 2/2/2 
f 22/22/22 25/25/25 24/24/24 23/23/23 
f 34/34/34 35/35/35 11/11/11 9/9/9 
f 44/44/44 45/45/45 25/25/25 22/22/22 
f 54/54/54 55/55/55 35/35/35 34/34/34 
f 64/64/64 65/65/65 45/45/45 44/44/44 
f 74/78/74 75/81/75 55/80/55 54/79/54 
f 84/98/84 85/101/85 65/100/65 64/99/64 
f 94/34/94 95/33/95 75/53/75 74/54/74 
f 104/44/104 105/43/105 85/63/85 84/64/84 
f 114/9/114 115/8/115 95/33/95 94/34/94 
f 124/22/124 125/21/125 105/43/105 104/44/104 
f 131/2/131 132/1/132 115/8/115 114/9/114 
f 135/23/135 136/17/136 125/21/125 124/22/124 
f 135/23/135 134/24/134 133/4/133 138/3/138 
f 3/3/3 23/23/23 24/24/24 4/4/4 
f 15/15/15 18/18/18 17/17/17 16/16/16 
f 29/29/29 5/5/5 1/1/1 4/4/4 
f 39/39/39 40/40/40 18/18/18 15/15/15 
f 49/49/49 30/30/30 5/5/5 29/29/29 
f 59/59/59 60/60/60 40/40/40 39/39/39 
f 69/69/69 50/50/50 30/30/30 49/49/49 
f 79/88/79 80/91/80 60/90/60 59/89/59 
f 89/108/89 70/110/70 50/111/50 69/109/69 
f 99/49/99 100/48/100 80/68/80 79/69/79 
f 109/39/109 90/38/90 70/58/70 89/59/89 
f 119/29/119 120/28/120 100/48/100 99/49/99 
f 129/15/129 110/14/110 90/38/90 109/39/109 
f 133/4/133 134/24/134 120/28/120 119/29/119 
f 137/16/137 130/10/130 110/14/110 129/15/129 
f 138/3/138 131/2/131 130/10/130 137/16/137 
f 16/16/16 17/17/17 23/23/23 3/3/3 
f 133/4/133 132/1/132 131/2/131 138/3/138 
f 139/1/1 140/2/2 141/3/3 142/4/4 
f 139/1/1 143/5/5 144/6/6 
f 139/1/1 144/6/6 145/7/7 
f 139/1/1 145/7/7 146/8/8 
f 139/1/1 146/8/8 147/9/9 140/2/2 
f 148/10/10 149/11/11 150/12/12 
f 148/10/10 150/12/12 151/13/13 
f 148/10/10 151/13/13 152/14/14 
f 148/10/10 152/14/14 153/15/15 154/16/16 
f 155/17/17 156/18/18 157/19/19 
f 155/17/17 157/19/19 158/20/20 
f 155/17/17 158/20/20 159/21/21 
f 155/17/17 159/21/21 160/22/22 161/23/23 
f 162/24/24 163/25/25 164/26/26 
f 162/24/24 164/26/26 165/27/27 
f 162/24/24 165/27/27 166/28/28 
f 162/24/24 166/28/28 167/29/29 142/4/4 
f 143/5/5 168/30/30 169/31/31 144/6/6 
f 144/6/6 169/31/31 170/32/32 145/7/7 
f 145/7/7 170/32/32 171/33/33 146/8/8 
f 146/8/8 171/33/33 172/34/34 147/9/9 
f 149/11/11 173/35/35 174/36/36 150/12/12 
f 150/12/12 174/36/36 175/37/37 151/13/13 
f 151/13/13 175/37/37 176/38/38 152/14/14 
f 152/14/14 176/38/38 177/39/39 153/15/15 
f 156/18/18 178/40/40 179/41/41 157/19/19 
f 157/19/19 179/41/41 180/42/42 158/20/20 
f 158/20/20 180/42/42 181/43/43 159/21/21 
f 159/21/21 181/43/43 182/44/44 160/22/22 
f 163/25/25 183/45/45 184/46/46 164/26/26 
f 164/26/26 184/46/46 185/47/47 165/27/27 
f 165/27/27 185/47/47 186/48/48 166/28/28 
f 166/28/28 186/48/48 187/49/49 167/29/29 
f 168/30/30 188/50/50 189/51/51 169/31/31 
f 169/31/31 189/51/51 190/52/52 170/32/32 
f 170/32/32 190/52/52 191/53/53 171/33/33 
f 171/33/33 191/53/53 192/54/54 172/34/34 
f 173/35/35 193/55/55 194/56/56 174/36/36 
f 174/36/36 194/56/56 195/57/57 175/37/37 
f 175/37/37 195/57/57 196/58/58 176/38/38 
f 176/38/38 196/58/58 197/59/59 177/39/39 
f 178/40/40 198/60/60 199/61/61 179/41/41 
f 179/41/41 199/61/61 200/62/62 180/42/42 
f 180/42/42 200/62/62 201/63/63 181/43/43 
f 181/43/43 201/63/63 202/64/64 182/44/44 
f 183/45/45 203/65/65 204/66/66 184/46/46 
f 184/46/46 204/66/66 205/67/67 185/47/47 
f 185/47/47 205/67/67 206/68/68 186/48/48 
f 186/48/48 206/68/68 207/69/69 187/49/49 
f 188/70/50 208/71/70 209/72/71 189/73/51 
f 189/73/51 209/72/71 210/74/72 190/75/52 
f 190/75/52 210/74/72 211/76/73 191/77/53 
f 191/77/53 211/76/73 212/78/74 192/79/54 
f 193/80/55 213/81/75 214/82/139 194/83/56 
f 194/83/56 214/82/139 215/84/77 195/85/57 
f 195/85/57 215/84/77 216/86/78 196/87/58 
f 196/87/58 216/86/78 217/88/79 197/89/59 
f 198/90/60 218/91/80 219/92/81 199/93/61 
f 199/93/61 219/92/81 220/94/140 200/95/62 
f 200/95/62 220/94/140 221/96/83 201/97/63 
f 201/97/63 221/96/83 222/98/84 202/99/64 
f 203/100/65 223/101/85 224/102/86 204/103/66 
f 204/103/66 224/102/86 225/104/87 205/105/67 
f 205/105/67 225/104/87 226/106/88 206/107/68 
f 206/107/68 226/106/88 227/108/89 207/109/69 
f 208/58/70 228/38/90 229/37/91 209/57/71 
f 209/57/71 229/37/91 230/36/92 210/56/72 
f 210/56/72 230/36/92 231/35/93 211/55/73 
f 211/55/73 231/35/93 232/34/94 212/54/74 
f 213/53/75 233/33/95 234/32/96 214/52/139 
f 214/52/139 234/32/96 235/31/97 215/51/77 
f 215/51/77 235/31/97 236/30/98 216/50/78 
f 216/50/78 236/30/98 237/49/99 217/69/79 
f 218/68/80 238/48/100 239/47/101 219/67/81 
f 219/67/81 239/47/101 240/46/102 220/66/140 
f 220/66/140 240/46/102 241/45/103 221/65/83 
f 221/65/83 241/45/103 242/44/104 222/64/84 
f 223/63/85 243/43/105 244/42/106 224/62/86 
f 224/62/86 244/42/106 245/41/107 225/61/87 
f 225/61/87 245/41/107 246/40/108 226/60/88 
f 226/60/88 246/40/108 247/39/109 227/59/89 
f 228/38/90 248/14/110 249/13/111 229/37/91 
f 229/37/91 249/13/111 250/12/112 230/36/92 
f 230/36/92 250/12/112 251/11/113 231/35/93 
f 231/35/93 251/11/113 252/9/114 232/34/94 
f 233/33/95 253/8/115 254/7/116 234/32/96 
f 234/32/96 254/7/116 255/6/117 235/31/97 
f 235/31/97 255/6/117 256/5/118 236/30/98 
f 236/30/98 256/5/118 257/29/119 237/49/99 
f 238/48/100 258/28/120 259/27/121 239/47/101 
f 239/47/101 259/27/121 260/26/122 240/46/102 
f 240/46/102 260/26/122 261/25/123 241/45/103 
f 241/45/103 261/25/123 262/22/124 242/44/104 
f 243/43/105 263/21/125 264/20/126 244/42/106 
f 244/42/106 264/20/126 265/19/127 245/41/107 
f 245/41/107 265/19/127 266/18/128 246/40/108 
f 246/40/108 266/18/128 267/15/129 247/39/109 
f 248/14/110 268/10/130 249/13/111 
f 249/13/111 268/10/130 250/12/112 
f 250/12/112 268/10/130 251/11/113 
f 251/11/113 268/10/130 269/2/131 252/9/114 
f 253/8/115 270/1/132 254/7/116 
f 254/7/116 270/1/132 255/6/117 
f 255/6/117 270/1/132 256/5/118 
f 256/5/118 270/1/132 271/4/133 257/29/119 
f 258/28/120 272/24/134 259/27/121 
f 259/27/121 272/24/134 260/26/122 
f 260/26/122 272/24/134 261/25/123 
f 261/25/123 272/24/134 273/23/135 262/22/124 
f 263/21/125 274/17/136 264/20/126 
f 264/20/126 274/17/136 265/19/127 
f 265/19/127 274/17/136 266/18/128 
f 266/18/128 274/17/136 275/16/137 267/15/129 
f 274/17/136 273/23/135 276/3/138 275/16/137 
f 140/2/2 148/10/10 154/16/16 141/3/3 
f 147/9/9 149/11/11 148/10/10 140/2/2 
f 160/22/22 163/25/25 162/24/24 161/23/23 
f 172/34/34 173/35/35 149/11/11 147/9/9 
f 182/44/44 183/45/45 163/25/25 160/22/22 
f 192/54/54 193/55/55 173/35/35 172/34/34 
f 202/64/64 203/65/65 183/45/45 182/44/44 
f 212/78/74 213/81/75 193/80/55 192/79/54 
f 222/98/84 223/101/85 203/100/65 202/99/64 
f 232/34/94 233/33/95 213/53/75 212/54/74 
f 242/44/104 243/43/105 223/63/85 222/64/84 
f 252/9/114 253/8/115 233/33/95 232/34/94 
f 262/22/124 263/21/125 243/43/105 242/44/104 
f 269/2/131 270/1/132 253/8/115 252/9/114 
f 273/23/135 274/17/136 263/21/125 262/22/124 
f 273/23/135 272/24/134 271/4/133 276/3/138 
f 141/3/3 161/23/23 162/24/24 142/4/4 
f 153/15/15 156/18/18 155/17/17 154/16/16 
f 167/29/29 143/5/5 139/1/1 142/4/4 
f 177/39/39 178/40/40 156/18/18 153/15/15 
f 187/49/49 168/30/30 143/5/5 167/29/29 
f 197/59/59 198/60/60 178/40/40 177/39/39 
f 207/69/69 188/50/50 168/30/30 187/49/49 
f 217/88/79 218/91/80 198/90/60 197/89/59 
f 227/108/89 208/110/70 188/111/50 207/109/69 
f 237/49/99 238/48/100 218/68/80 217/69/79 
f 247/39/109 228/38/90 208/58/70 227/59/89 
f 257/29/119 258/28/120 238/48/100 237/49/99 
f 267/15/129 248/14/110 228/38/90 247/39/109 
f 271/4/133 272/24/134 258/28/120 257/29/119 
f 275/16/137 268/10/130 248/14/110 267/15/129 
f 276/3/138 269/2/131 268/10/130 275/16/137 
f 154/16/16 155/17/17 161/23/23 141/3/3 
f 271/4/133 270/1/132 269/2/131 276/3/138 
f 277/1/1 278/2/2 279/3/3 280/4/4 
f 277/1/1 281/5/5 282/6/6 
f 277/1/1 282/6/6 283/7/7 
f 277/1/1 283/7/7 284/8/8 
f 277/1/1 284/8/8 285/9/9 278/2/2 
f 286/10/10 287/11/11 288/12/12 
f 286/10/10 288/12/12 289/13/13 
f 286/10/10 289/13/13 290/14/14 
f 286/10/10 290/14/14 291/15/15 292/16/16 
f 293/17/17 294/18/18 295/19/19 
f 293/17/17 295/19/19 296/20/20 
f 293/17/17 296/20/20 297/21/21 
f 293/17/17 297/21/21 298/22/22 299/23/23 
f 300/24/24 301/25/25 302/26/26 
f 300/24/24 302/26/26 303/27/27 
f 300/24/24 303/27/27 304/28/28 
f 300/24/24 304/28/28 305/29/29 280/4/4 
f 281/5/5 306/30/30 307/31/31 282/6/6 
f 282/6/6 307/31/31 308/32/32 283/7/7 
f 283/7/7 308/32/32 309/33/33 284/8/8 
f 284/8/8 309/33/33 310/34/34 285/9/9 
f 287/11/11 311/35/35 312/36/36 288/12/12 
f 288/12/12 312/36/36 313/37/37 289/13/13 
f 289/13/13 313/37/37 314/38/38 290/14/14 
f 290/14/14 314/38/38 315/39/39 291/15/15 
f 294/18/18 316/40/40 317/41/41 295/19/19 
f 295/19/19 317/41/41 318/42/42 296/20/20 
f 296/20/20 318/42/42 319/43/43 297/21/21 
f 297/21/21 319/43/43 320/44/44 298/22/22 
f 301/25/25 321/45/45 322/46/46 302/26/26 
f 302/26/26 322/46/46 323/47/47 303/27/27 
f 303/27/27 323/47/47 324/48/48 304/28/28 
f 304/28/28 324/48/48 325/49/49 305/29/29 
f 306/30/30 326/50/50 327/51/51 307/31/31 
f 307/31/31 327/51/51 328/52/52 308/32/32 
f 308/32/32 328/52/52 329/53/53 309/33/33 
f 309/33/33 329/53/53 330/54/54 310/34/34 
f 311/35/35 331/55/55 332/56/56 312/36/36 
f 312/36/36 332/56/56 333/57/57 313/37/37 
f 313/37/37 333/57/57 334/58/58 314/38/38 
f 314/38/38 334/58/58 335/59/59 315/39/39 
f 316/40/40 336/60/60 337/61/61 317/41/41 
f 317/41/41 337/61/61 338/62/62 318/42/42 
f 318/42/42 338/62/62 339/63/63 319/43/43 
f 319/43/43 339/63/63 340/64/64 320/44/44 
f 321/45/45 341/65/65 342/66/66 322/46/46 
f 322/46/46 342/66/66 343/67/67 323/47/47 
f 323/47/47 343/67/67 344/68/68 324/48/48 
f 324/48/48 344/68/68 345/69/69 325/49/49 
f 326/70/50 346/71/70 347/72/71 327/73/51 
f 327/73/51 347/72/71 348/74/72 328/75/52 
f 328/75/52 348/74/72 349/76/73 329/77/53 
f 329/77/53 349/76/73 350/78/74 330/79/54 
f 331/80/55 351/81/75 352/82/139 332/83/56 
f 332/83/56 352/82/139 353/84/77 333/85/57 
f 333/85/57 353/84/77 354/86/78 334/87/58 
f 334/87/58 354/86/78 355/88/79 335/89/59 
f 336/90/60 356/91/80 357/92/81 337/93/61 
f 337/93/61 357/92/81 358/94/140 338/95/62 
f 338/95/62 358/94/140 359/96/83 339/97/63 
f 339/97/63 359/96/83 360/98/84 340/99/64 
f 341/100/65 361/101/85 362/102/86 342/103/66 
f 342/103/66 362/102/86 363/104/87 343/105/67 
f 343/105/67 363/104/87 364/106/88 344/107/68 
f 344/107/68 364/106/88 365/108/89 345/109/69 
f 346/58/70 366/38/90 367/37/91 347/57/71 
f 347/57/71 367/37/91 368/36/92 348/56/72 
f 348/56/72 368/36/92 369/35/93 349/55/73 
f 349/55/73 369/35/93 370/34/94 350/54/74 
f 351/53/75 371/33/95 372/32/96 352/52/139 
f 352/52/139 372/32/96 373/31/97 353/51/77 
f 353/51/77 373/31/97 374/30/98 354/50/78 
f 354/50/78 374/30/98 375/49/99 355/69/79 
f 356/68/80 376/48/100 377/47/101 357/67/81 
f 357/67/81 377/47/101 378/46/102 358/66/140 
f 358/66/140 378/46/102 379/45/103 359/65/83 
f 359/65/83 379/45/103 380/44/104 360/64/84 
f 361/63/85 381/43/105 382/42/106 362/62/86 
f 362/62/86 382/42/106 383/41/107 363/61/87 
f 363/61/87 383/41/107 384/40/108 364/60/88 
f 364/60/88 384/40/108 385/39/109 365/59/89 
f 366/38/90 386/14/110 387/13/111 367/37/91 
f 367/37/91 387/13/111 388/12/112 368/36/92 
f 368/36/92 388/12/112 389/11/113 369/35/93 
f 369/35/93 389/11/113 390/9/114 370/34/94 
f 371/33/95 391/8/115 392/7/116 372/32/96 
f 372/32/96 392/7/116 393/6/117 373/31/97 
f 373/31/97 393/6/117 394/5/118 374/30/98 
f 374/30/98 394/5/118 395/29/119 375/49/99 
f 376/48/100 396/28/120 397/27/121 377/47/101 
f 377/47/101 397/27/121 398/26/122 378/46/102 
f 378/46/102 398/26/122 399/25/123 379/45/103 
f 379/45/103 399/25/123 400/22/124 380/44/104 
f 381/43/105 401/21/125 402/20/126 382/42/106 
f 382/42/106 402/20/126 403/19/127 383/41/107 
f 383/41/107 403/19/127 404/18/128 384/40/108 
f 384/40/108 404/18/128 405/15/129 385/39/109 
f 386/14/110 406/10/130 387/13/111 
f 387/13/111 406/10/130 388/12/112 
f 388/12/112 406/10/130 389/11/113 
f 389/11/113 406/10/130 407/2/131 390/9/114 
f 391/8/115 408/1/132 392/7/116 
f 392/7/116 408/1/132 393/6/117 
f 393/6/117 408/1/132 394/5/118 
f 394/5/118 408/1/132 409/4/133 395/29/119 
f 396/28/120 410/24/134 397/27/121 
f 397/27/121 410/24/134 398/26/122 
f 398/26/122 410/24/134 399/25/123 
f 399/25/123 410/24/134 411/23/135 400/22/124 
f 401/21/125 412/17/136 402/20/126 
f 402/20/126 412/17/136 403/19/127 
f 403/19/127 412/17/136 404/18/128 
f 404/18/128 412/17/136 413/16/137 405/15/129 
f 412/17/136 411/23/135 414/3/138 413/16/137 
f 278/2/2 286/10/10 292/16/16 279/3/3 
f 285/9/9 287/11/11 286/10/10 278/2/2 
f 298/22/22 301/25/25 300/24/24 299/23/23 
f 310/34/34 311/35/35 287/11/11 285/9/9 
f 320/44/44 321/45/45 301/25/25 298/22/22 
f 330/54/54 331/55/55 311/35/35 310/34/34 
f 340/64/64 341/65/65 321/45/45 320/44/44 
f 350/78/74 351/81/75 331/80/55 330/79/54 
f 360/98/84 361/101/85 341/100/65 340/99/64 
f 370/34/94 371/33/95 351/53/75 350/54/74 
f 380/44/104 381/43/105 361/63/85 360/64/84 
f 390/9/114 391/8/115 371/33/95 370/34/94 
f 400/22/124 401/21/125 381/43/105 380/44/104 
f 407/2/131 408/1/132 391/8/115 390/9/114 
f 411/23/135 412/17/136 401/21/125 400/22/124 
f 411/23/135 410/24/134 409/4/133 414/3/138 
f 279/3/3 299/23/23 300/24/24 280/4/4 
f 291/15/15 294/18/18 293/17/17 292/16/16 
f 305/29/29 281/5/5 277/1/1 280/4/4 
f 315/39/39 316/40/40 294/18/18 291/15/15 
f 325/49/49 306/30/30 281/5/5 305/29/29 
f 335/59/59 336/60/60 316/40/40 315/39/39 
f 345/69/69 326/50/50 306/30/30 325/49/49 
f 355/88/79 356/91/80 336/90/60 335/89/59 
f 365/108/89 346/110/70 326/111/50 345/109/69 
f 375/49/99 376/48/100 356/68/80 355/69/79 
f 385/39/109 366/38/90 346/58/70 365/59/89 
f 395/29/119 396/28/120 376/48/100 375/49/99 
f 405/15/129 386/14/110 366/38/90 385/39/109 
f 409/4/133 410/24/134 396/28/120 395/29/119 
f 413/16/137 406/10/130 386/14/110 405/15/129 
f 414/3/138 407/2/131 406/10/130 413/16/137 
f 292/16/16 293/17/17 299/23/23 279/3/3 
f 409/4/133 408/1/132 407/2/131 414/3/138 
f 415/1/1 416/2/2 417/3/3 418/4/4 
f 415/1/1 419/5/5 420/6/6 
f 415/1/1 420/6/6 421/7/7 
f 415/1/1 421/7/7 422/8/8 
f 415/1/1 422/8/8 423/9/9 416/2/2 
f 424/10/10 425/11/11 426/12/12 
f 424/10/10 426/12/12 427/13/13 
f 424/10/10 427/13/13 428/14/14 
f 424/10/10 428/14/14 429/15/15 430/16/16 
f 431/17/17 432/18/18 433/19/19 
f 431/17/17 433/19/19 434/20/20 
f 431/17/17 434/20/20 435/21/21 
f 431/17/17 435/21/21 436/22/22 437/23/23 
f 438/24/24 439/25/25 440/26/26 
f 438/24/24 440/26/26 441/27/27 
f 438/24/24 441/27/27 442/28/28 
f 438/24/24 442/28/28 443/29/29 418/4/4 
f 419/5/5 444/30/30 445/31/31 420/6/6 
f 420/6/6 445/31/31 446/32/32 421/7/7 
f 421/7/7 446/32/32 447/33/33 422/8/8 
f 422/8/8 447/33/33 448/34/34 423/9/9 
f 425/11/11 449/35/35 450/36/36 426/12/12 
f 426/12/12 450/36/36 451/37/37 427/13/13 
f 427/13/13 451/37/37 452/38/38 428/14/14 
f 428/14/14 452/38/38 453/39/39 429/15/15 
f 432/18/18 454/40/40 455/41/41 433/19/19 
f 433/19/19 455/41/41 456/42/42 434/20/20 
f 434/20/20 456/42/42 457/43/43 435/21/21 
f 435/21/21 457/43/43 458/44/44 436/22/22 
f 439/25/25 459/45/45 460/46/46 440/26/26 
f 440/26/26 460/46/46 461/47/47 441/27/27 
f 441/27/27 461/47/47 462/48/48 442/28/28 
f 442/28/28 462/48/48 463/49/49 443/29/29 
f 444/30/30 464/50/50 465/51/51 445/31/31 
f 445/31/31 465/51/51 466/52/52 446/32/32 
f 446/32/32 466/52/52 467/53/53 447/33/33 
f 447/33/33 467/53/53 468/54/54 448/34/34 
f 449/35/35 469/55/55 470/56/56 450/36/36 
f 450/36/36 470/56/56 471/57/57 451/37/37 
f 451/37/37 471/57/57 472/58/58 452/38/38 
f 452/38/38 472/58/58 473/59/59 453/39/39 
f 454/40/40 474/60/60 475/61/61 455/41/41 
f 455/41/41 475/61/61 476/62/62 456/42/42 
f 456/42/42 476/62/62 477/63/63 457/43/43 
f 457/43/43 477/63/63 478/64/64 458/44/44 
f 459/45/45 479/65/65 480/66/66 460/46/46 
f 460/46/46 480/66/66 481/67/67 461/47/47 
f 461/47/47 481/67/67 482/68/68 462/48/48 
f 462/48/48 482/68/68 483/69/69 463/49/49 
f 464/70/50 484/71/70 485/72/71 465/73/51 
f 465/73/51 485/72/71 486/74/141 466/75/52 
f 466/75/52 486/74/141 487/76/73 467/77/53 
f 467/77/53 487/76/73 488/78/74 468/79/54 
f 469/80/55 489/81/75 490/82/76 470/83/56 
f 470/83/56 490/82/76 491/84/77 471/85/57 
f 471/85/57 491/84/77 492/86/78 472/87/58 
f 472/87/58 492/86/78 493/88/79 473/89/59 
f 474/90/60 494/91/80 495/92/81 475/93/61 
f 475/93/61 495/92/81 496/94/82 476/95/62 
f 476/95/62 496/94/82 497/96/83 477/97/63 
f 477/97/63 497/96/83 498/98/84 478/99/64 
f 479/100/65 499/101/85 500/102/142 480/103/66 
f 480/103/66 500/102/142 501/104/87 481/105/67 
f 481/105/67 501/104/87 502/106/88 482/107/68 
f 482/107/68 502/106/88 503/108/89 483/109/69 
f 484/58/70 504/38/90 505/37/91 485/57/71 
f 485/57/71 505/37/91 506/36/92 486/56/141 
f 486/56/141 506/36/92 507/35/93 487/55/73 
f 487/55/73 507/35/93 508/34/94 488/54/74 
f 489/53/75 509/33/95 510/32/96 490/52/76 
f 490/52/76 510/32/96 511/31/97 491/51/77 
f 491/51/77 511/31/97 512/30/98 492/50/78 
f 492/50/78 512/30/98 513/49/99 493/69/79 
f 494/68/80 514/48/100 515/47/101 495/67/81 
f 495/67/81 515/47/101 516/46/102 496/66/82 
f 496/66/82 516/46/102 517/45/103 497/65/83 
f 497/65/83 517/45/103 518/44/104 498/64/84 
f 499/63/85 519/43/105 520/42/106 500/62/142 
f 500/62/142 520/42/106 521/41/107 501/61/87 
f 501/61/87 521/41/107 522/40/108 502/60/88 
f 502/60/88 522/40/108 523/39/109 503/59/89 
f 504/38/90 524/14/110 525/13/111 505/37/91 
f 505/37/91 525/13/111 526/12/112 506/36/92 
f 506/36/92 526/12/112 527/11/113 507/35/93 
f 507/35/93 527/11/113 528/9/114 508/34/94 
f 509/33/95 529/8/115 530/7/116 510/32/96 
f 510/32/96 530/7/116 531/6/117 511/31/97 
f 511/31/97 531/6/117 532/5/118 512/30/98 
f 512/30/98 532/5/118 533/29/119 513/49/99 
f 514/48/100 534/28/120 535/27/121 515/47/101 
f 515/47/101 535/27/121 536/26/122 516/46/102 
f 516/46/102 536/26/122 537/25/123 517/45/103 
f 517/45/103 537/25/123 538/22/124 518/44/104 
f 519/43/105 539/21/125 540/20/126 520/42/106 
f 520/42/106 540/20/126 541/19/127 521/41/107 
f 521/41/107 541/19/127 542/18/128 522/40/108 
f 522/40/108 542/18/128 543/15/129 523/39/109 
f 524/14/110 544/10/130 525/13/111 
f 525/13/111 544/10/130 526/12/112 
f 526/12/112 544/10/130 527/11/113 
f 527/11/113 544/10/130 545/2/131 528/9/114 
f 529/8/115 546/1/132 530/7/116 
f 530/7/116 546/1/132 531/6/117 
f 531/6/117 546/1/132 532/5/118 
f 532/5/118 546/1/132 547/4/133 533/29/119 
f 534/28/120 548/24/134 535/27/121 
f 535/27/121 548/24/134 536/26/122 
f 536/26/122 548/24/134 537/25/123 
f 537/25/123 548/24/134 549/23/135 538/22/124 
f 539/21/125 550/17/136 540/20/126 
f 540/20/126 550/17/136 541/19/127 
f 541/19/127 550/17/136 542/18/128 
f 542/18/128 550/17/136 551/16/137 543/15/129 
f 550/17/136 549/23/135 552/3/138 551/16/137 
f 416/2/2 424/10/10 430/16/16 417/3/3 
f 423/9/9 425/11/11 424/10/10 416/2/2 
f 436/22/22 439/25/25 438/24/24 437/23/23 
f 448/34/34 449/35/35 425/11/11 423/9/9 
f 458/44/44 459/45/45 439/25/25 436/22/22 
f 468/54/54 469/55/55 449/35/35 448/34/34 
f 478/64/64 479/65/65 459/45/45 458/44/44 
f 488/78/74 489/81/75 469/80/55 468/79/54 
f 498/98/84 499/101/85 479/100/65 478/99/64 
f 508/34/94 509/33/95 489/53/75 488/54/74 
f 518/44/104 519/43/105 499/63/85 498/64/84 
f 528/9/114 529/8/115 509/33/95 508/34/94 
f 538/22/124 539/21/125 519/43/105 518/44/104 
f 545/2/131 546/1/132 529/8/115 528/9/114 
f 549/23/135 550/17/136 539/21/125 538/22/124 
f 549/23/135 548/24/134 547/4/133 552/3/138 
f 417/3/3 437/23/23 438/24/24 418/4/4 
f 429/15/15 432/18/18 431/17/17 430/16/16 
f 443/29/29 419/5/5 415/1/1 418/4/4 
f 453/39/39 454/40/40 432/18/18 429/15/15 
f 463/49/49 444/30/30 419/5/5 443/29/29 
f 473/59/59 474/60/60 454/40/40 453/39/39 
f 483/69/69 464/50/50 444/30/30 463/49/49 
f 493/88/79 494/91/80 474/90/60 473/89/59 
f 503/108/89 484/110/70 464/111/50 483/109/69 
f 513/49/99 514/48/100 494/68/80 493/69/79 
f 523/39/109 504/38/90 484/58/70 503/59/89 
f 533/29/119 534/28/120 514/48/100 513/49/99 
f 543/15/129 524/14/110 504/38/90 523/39/109 
f 547/4/133 548/24/134 534/28/120 533/29/119 
f 551/16/137 544/10/130 524/14/110 543/15/129 
f 552/3/138 545/2/131 544/10/130 551/16/137 
f 430/16/16 431/17/17 437/23/23 417/3/3 
f 547/4/133 546/1/132 545/2/131 552/3/138 
f 553/1/1 554/2/2 555/3/3 556/4/4 
f 553/1/1 557/5/5 558/6/6 
f 553/1/1 558/6/6 559/7/7 
f 553/1/1 559/7/7 560/8/8 
f 553/1/1 560/8/8 561/9/9 554/2/2 
f 562/10/10 563/11/11 564/12/12 
f 562/10/10 564/12/12 565/13/13 
f 562/10/10 565/13/13 566/14/14 
f 562/10/10 566/14/14 567/15/15 568/16/16 
f 569/17/17 570/18/18 571/19/19 
f 569/17/17 571/19/19 572/20/20 
f 569/17/17 572/20/20 573/21/21 
f 569/17/17 573/21/21 574/22/22 575/23/23 
f 576/24/24 577/25/25 578/26/26 
f 576/24/24 578/26/26 579/27/27 
f 576/24/24 579/27/27 580/28/28 
f 576/24/24 580/28/28 581/29/29 556/4/4 
f 557/5/5 582/30/30 583/31/31 558/6/6 
f 558/6/6 583/31/31 584/32/32 559/7/7 
f 559/7/7 584/32/32 585/33/33 560/8/8 
f 560/8/8 585/33/33 586/34/34 561/9/9 
f 563/11/11 587/35/35 588/36/36 564/12/12 
f 564/12/12 588/36/36 589/37/37 565/13/13 
f 565/13/13 589/37/37 590/38/38 566/14/14 
f 566/14/14 590/38/38 591/39/39 567/15/15 
f 570/18/18 592/40/40 593/41/41 571/19/19 
f 571/19/19 593/41/41 594/42/42 572/20/20 
f 572/20/20 594/42/42 595/43/43 573/21/21 
f 573/21/21 595/43/43 596/44/44 574/22/22 
f 577/25/25 597/45/45 598/46/46 578/26/26 
f 578/26/26 598/46/46 599/47/47 579/27/27 
f 579/27/27 599/47/47 600/48/48 580/28/28 
f 580/28/28 600/48/48 601/49/49 581/29/29 
f 582/30/30 602/50/50 603/51/51 583/31/31 
f 583/31/31 603/51/51 604/52/52 584/32/32 
f 584/32/32 604/52/52 605/53/53 585/33/33 
f 585/33/33 605/53/53 606/54/54 586/34/34 
f 587/35/35 607/55/55 608/56/56 588/36/36 
f 588/36/36 608/56/56 609/57/57 589/37/37 
f 589/37/37 609/57/57 610/58/58 590/38/38 
f 590/38/38 610/58/58 611/59/59 591/39/39 
f 592/40/40 612/60/60 613/61/61 593/41/41 
f 593/41/41 613/61/61 614/62/62 594/42/42 
f 594/42/42 614/62/62 615/63/63 595/43/43 
f 595/43/43 615/63/63 616/64/64 596/44/44 
f 597/45/45 617/65/65 618/66/66 598/46/46 
f 598/46/46 618/66/66 619/67/67 599/47/47 
f 599/47/47 619/67/67 620/68/68 600/48/48 
f 600/48/48 620/68/68 621/69/69 601/49/49 
f 602/70/50 622/71/70 623/72/71 603/73/51 
f 603/73/51 623/72/71 624/74/141 604/75/52 
f 604/75/52 624/74/141 625/76/73 605/77/53 
f 605/77/53 625/76/73 626/78/74 606/79/54 
f 607/80/55 627/81/75 628/82/76 608/83/56 
f 608/83/56 628/82/76 629/84/77 609/85/57 
f 609/85/57 629/84/77 630/86/78 610/87/58 
f 610/87/58 630/86/78 631/88/79 611/89/59 
f 612/90/60 632/91/80 633/92/81 613/93/61 
f 613/93/61 633/92/81 634/94/82 614/95/62 
f 614/95/62 634/94/82 635/96/83 615/97/63 
f 615/97/63 635/96/83 636/98/84 616/99/64 
f 617/100/65 637/101/85 638/102/142 618/103/66 
f 618/103/66 638/102/142 639/104/87 619/105/67 
f 619/105/67 639/104/87 640/106/88 620/107/68 
f 620/107/68 640/106/88 641/108/89 621/109/69 
f 622/58/70 642/38/90 643/37/91 623/57/71 
f 623/57/71 643/37/91 644/36/92 624/56/141 
f 624/56/141 644/36/92 645/35/93 625/55/73 
f 625/55/73 645/35/93 646/34/94 626/54/74 
f 627/53/75 647/33/95 648/32/96 628/52/76 
f 628/52/76 648/32/96 649/31/97 629/51/77 
f 629/51/77 649/31/97 650/30/98 630/50/78 
f 630/50/78 650/30/98 651/49/99 631/69/79 
f 632/68/80 652/48/100 653/47/101 633/67/81 
f 633/67/81 653/47/101 654/46/102 634/66/82 
f 634/66/82 654/46/102 655/45/103 635/65/83 
f 635/65/83 655/45/103 656/44/104 636/64/84 
f 637/63/85 657/43/105 658/42/106 638/62/142 
f 638/62/142 658/42/106 659/41/107 639/61/87 
f 639/61/87 659/41/107 660/40/108 640/60/88 
f 640/60/88 660/40/108 661/39/109 641/59/89 
f 642/38/90 662/14/110 663/13/111 643/37/91 
f 643/37/91 663/13/111 664/12/112 644/36/92 
f 644/36/92 664/12/112 665/11/113 645/35/93 
f 645/35/93 665/11/113 666/9/114 646/34/94 
f 647/33/95 667/8/115 668/7/116 648/32/96 
f 648/32/96 668/7/116 669/6/117 649/31/97 
f 649/31/97 669/6/117 670/5/118 650/30/98 
f 650/30/98 670/5/118 671/29/119 651/49/99 
f 652/48/100 672/28/120 673/27/121 653/47/101 
f 653/47/101 673/27/121 674/26/122 654/46/102 
f 654/46/102 674/26/122 675/25/123 655/45/103 
f 655/45/103 675/25/123 676/22/124 656/44/104 
f 657/43/105 677/21/125 678/20/126 658/42/106 
f 658/42/106 678/20/126 679/19/127 659/41/107 
f 659/41/107 679/19/127 680/18/128 660/40/108 
f 660/40/108 680/18/128 681/15/129 661/39/109 
f 662/14/110 682/10/130 663/13/111 
f 663/13/111 682/10/130 664/12/112 
f 664/12/112 682/10/130 665/11/113 
f 665/11/113 682/10/130 683/2/131 666/9/114 
f 667/8/115 684/1/132 668/7/116 
f 668/7/116 684/1/132 669/6/117 
f 669/6/117 684/1/132 670/5/118 
f 670/5/118 684/1/132 685/4/133 671/29/119 
f 672/28/120 686/24/134 673/27/121 
f 673/27/121 686/24/134 674/26/122 
f 674/26/122 686/24/134 675/25/123 
f 675/25/123 686/24/134 687/23/135 676/22/124 
f 677/21/125 688/17/136 678/20/126 
f 678/20/126 688/17/136 679/19/127 
f 679/19/127 688/17/136 680/18/128 
f 680/18/128 688/17/136 689/16/137 681/15/129 
f 688/17/136 687/23/135 690/3/138 689/16/137 
f 554/2/2 562/10/10 568/16/16 555/3/3 
f 561/9/9 563/11/11 562/10/10 554/2/2 
f 574/22/22 577/25/25 576/24/24 575/23/23 
f 586/34/34 587/35/35 563/11/11 561/9/9 
f 596/44/44 597/45/45 577/25/25 574/22/22 
f 606/54/54 607/55/55 587/35/35 586/34/34 
f 616/64/64 617/65/65 597/45/45 596/44/44 
f 626/78/74 627/81/75 607/80/55 606/79/54 
f 636/98/84 637/101/85 617/100/65 616/99/64 
f 646/34/94 647/33/95 627/53/75 626/54/74 
f 656/44/104 657/43/105 637/63/85 636/64/84 
f 666/9/114 667/8/115 647/33/95 646/34/94 
f 676/22/124 677/21/125 657/43/105 656/44/104 
f 683/2/131 684/1/132 667/8/115 666/9/114 
f 687/23/135 688/17/136 677/21/125 676/22/124 
f 687/23/135 686/24/134 685/4/133 690/3/138 
f 555/3/3 575/23/23 576/24/24 556/4/4 
f 567/15/15 570/18/18 569/17/17 568/16/16 
f 581/29/29 557/5/5 553/1/1 556/4/4 
f 591/39/39 592/40/40 570/18/18 567/15/15 
f 601/49/49 582/30/30 557/5/5 581/29/29 
f 611/59/59 612/60/60 592/40/40 591/39/39 
f 621/69/69 602/50/50 582/30/30 601/49/49 
f 631/88/79 632/91/80 612/90/60 611/89/59 
f 641/108/89 622/110/70 602/111/50 621/109/69 
f 651/49/99 652/48/100 632/68/80 631/69/79 
f 661/39/109 642/38/90 622/58/70 641/59/89 
f 671/29/119 672/28/120 652/48/100 651/49/99 
f 681/15/129 662/14/110 642/38/90 661/39/109 
f 685/4/133 686/24/134 672/28/120 671/29/119 
f 689/16/137 682/10/130 662/14/110 681/15/129 
f 690/3/138 683/2/131 682/10/130 689/16/137 
f 568/16/16 569/17/17 575/23/23 555/3/3 
f 685/4/133 684/1/132 683/2/131 690/3/138 
f 691/1/1 692/2/2 693/3/3 694/4/4 
f 691/1/1 695/5/5 696/6/6 
f 691/1/1 696/6/6 697/7/7 
f 691/1/1 697/7/7 698/8/8 
f 691/1/1 698/8/8 699/9/9 692/2/2 
f 700/10/10 701/11/11 702/12/12 
f 700/10/10 702/12/12 703/13/13 
f 700/10/10 703/13/13 704/14/14 
f 700/10/10 704/14/14 705/15/15 706/16/16 
f 707/17/17 708/18/18 709/19/19 
f 707/17/17 709/19/19 710/20/20 
f 707/17/17 710/20/20 711/21/21 
f 707/17/17 711/21/21 712/22/22 713/23/23 
f 714/24/24 715/25/25 716/26/26 
f 714/24/24 716/26/26 717/27/27 
f 714/24/24 717/27/27 718/28/28 
f 714/24/24 718/28/28 719/29/29 694/4/4 
f 695/5/5 720/30/30 721/31/31 696/6/6 
f 696/6/6 721/31/31 722/32/32 697/7/7 
f 697/7/7 722/32/32 723/33/33 698/8/8 
f 698/8/8 723/33/33 724/34/34 699/9/9 
f 701/11/11 725/35/35 726/36/36 702/12/12 
f 702/12/12 726/36/36 727/37/37 703/13/13 
f 703/13/13 727/37/37 728/38/38 704/14/14 
f 704/14/14 728/38/38 729/39/39 705/15/15 
f 708/18/18 730/40/40 731/41/41 709/19/19 
f 709/19/19 731/41/41 732/42/42 710/20/20 
f 710/20/20 732/42/42 733/43/43 711/21/21 
f 711/21/21 733/43/43 734/44/44 712/22/22 
f 715/25/25 735/45/45 736/46/46 716/26/26 
f 716/26/26 736/46/46 737/47/47 717/27/27 
f 717/27/27 737/47/47 738/48/48 718/28/28 
f 718/28/28 738/48/48 739/49/49 719/29/29 
f 720/30/30 740/50/50 741/51/51 721/31/31 
f 721/31/31 741/51/51 742/52/52 722/32/32 
f 722/32/32 742/52/52 743/53/53 723/33/33 
f 723/33/33 743/53/53 744/54/54 724/34/34 
f 725/35/35 745/55/55 746/56/56 726/36/36 
f 726/36/36 746/56/56 747/57/57 727/37/37 
f 727/37/37 747/57/57 748/58/58 728/38/38 
f 728/38/38 748/58/58 749/59/59 729/39/39 
f 730/40/40 750/60/60 751/61/61 731/41/41 
f 731/41/41 751/61/61 752/62/62 732/42/42 
f 732/42/42 752/62/62 753/63/63 733/43/43 
f 733/43/43 753/63/63 754/64/64 734/44/44 
f 735/45/45 755/65/65 756/66/66 736/46/46 
f 736/46/46 756/66/66 757/67/67 737/47/47 
f 737/47/47 757/67/67 758/68/68 738/48/48 
f 738/48/48 758/68/68 759/69/69 739/49/49 
f 740/70/50 760/71/70 761/72/71 741/73/51 
f 741/73/51 761/72/71 762/74/72 742/75/52 
f 742/75/52 762/74/72 763/76/73 743/77/53 
f 743/77/53 763/76/73 764/78/74 744/79/54 
f 745/80/55 765/81/75 766/82/76 746/83/56 
f 746/83/56 766/82/76 767/84/77 747/85/57 
f 747/85/57 767/84/77 768/86/78 748/87/58 
f 748/87/58 768/86/78 769/88/79 749/89/59 
f 750/90/60 770/91/80 771/92/81 751/93/61 
f 751/93/61 771/92/81 772/94/82 752/95/62 
f 752/95/62 772/94/82 773/96/83 753/97/63 
f 753/97/63 773/96/83 774/98/84 754/99/64 
f 755/100/65 775/101/85 776/102/86 756/103/66 
f 756/103/66 776/102/86 777/104/87 757/105/67 
f 757/105/67 777/104/87 778/106/88 758/107/68 
f 758/107/68 778/106/88 779/108/89 759/109/69 
f 760/58/70 780/38/90 781/37/91 761/57/71 
f 761/57/71 781/37/91 782/36/92 762/56/72 
f 762/56/72 782/36/92 783/35/93 763/55/73 
f 763/55/73 783/35/93 784/34/94 764/54/74 
f 765/53/75 785/33/95 786/32/96 766/52/76 
f 766/52/76 786/32/96 787/31/97 767/51/77 
f 767/51/77 787/31/97 788/30/98 768/50/78 
f 768/50/78 788/30/98 789/49/99 769/69/79 
f 770/68/80 790/48/100 791/47/101 771/67/81 
f 771/67/81 791/47/101 792/46/102 772/66/82 
f 772/66/82 792/46/102 793/45/103 773/65/83 
f 773/65/83 793/45/103 794/44/104 774/64/84 
f 775/63/85 795/43/105 796/42/106 776/62/86 
f 776/62/86 796/42/106 797/41/107 777/61/87 
f 777/61/87 797/41/107 798/40/108 778/60/88 
f 778/60/88 798/40/108 799/39/109 779/59/89 
f 780/38/90 800/14/110 801/13/111 781/37/91 
f 781/37/91 801/13/111 802/12/112 782/36/92 
f 782/36/92 802/12/112 803/11/113 783/35/93 
f 783/35/93 803/11/113 804/9/114 784/34/94 
f 785/33/95 805/8/115 806/7/116 786/32/96 
f 786/32/96 806/7/116 807/6/117 787/31/97 
f 787/31/97 807/6/117 808/5/118 788/30/98 
f 788/30/98 808/5/118 809/29/119 789/49/99 
f 790/48/100 810/28/120 811/27/121 791/47/101 
f 791/47/101 811/27/121 812/26/122 792/46/102 
f 792/46/102 812/26/122 813/25/123 793/45/103 
f 793/45/103 813/25/123 814/22/124 794/44/104 
f 795/43/105 815/21/125 816/20/126 796/42/106 
f 796/42/106 816/20/126 817/19/127 797/41/107 
f 797/41/107 817/19/127 818/18/128 798/40/108 
f 798/40/108 818/18/128 819/15/129 799/39/109 
f 800/14/110 820/10/130 801/13/111 
f 801/13/111 820/10/130 802/12/112 
f 802/12/112 820/10/130 803/11/113 
f 803/11/113 820/10/130 821/2/131 804/9/114 
f 805/8/115 822/1/132 806/7/116 
f 806/7/116 822/1/132 807/6/117 
f 807/6/117 822/1/132 808/5/118 
f 808/5/118 822/1/132 823/4/133 809/29/119 
f 810/28/120 824/24/134 811/27/121 
f 811/27/121 824/24/134 812/26/122 
f 812/26/122 824/24/134 813/25/123 
f 813/25/123 824/24/134 825/23/135 814/22/124 
f 815/21/125 826/17/136 816/20/126 
f 816/20/126 826/17/136 817/19/127 
f 817/19/127 826/17/136 818/18/128 
f 818/18/128 826/17/136 827/16/137 819/15/129 
f 826/17/136 825/23/135 828/3/138 827/16/137 
f 692/2/2 700/10/10 706/16/16 693/3/3 
f 699/9/9 701/11/11 700/10/10 692/2/2 
f 712/22/22 715/25/25 714/24/24 713/23/23 
f 724/34/34 725/35/35 701/11/11 699/9/9 
f 734/44/44 735/45/45 715/25/25 712/22/22 
f 744/54/54 745/55/55 725/35/35 724/34/34 
f 754/64/64 755/65/65 735/45/45 734/44/44 
f 764/78/74 765/81/75 745/80/55 744/79/54 
f 774/98/84 775/101/85 755/100/65 754/99/64 
f 784/34/94 785/33/95 765/53/75 764/54/74 
f 794/44/104 795/43/105 775/63/85 774/64/84 
f 804/9/114 805/8/115 785/33/95 784/34/94 
f 814/22/124 815/21/125 795/43/105 794/44/104 
f 821/2/131 822/1/132 805/8/115 804/9/114 
f 825/23/135 826/17/136 815/21/125 814/22/124 
f 825/23/135 824/24/134 823/4/133 828/3/138 
f 693/3/3 713/23/23 714/24/24 694/4/4 
f 705/15/15 708/18/18 707/17/17 706/16/16 
f 719/29/29 695/5/5 691/1/1 694/4/4 
f 729/39/39 730/40/40 708/18/18 705/15/15 
f 739/49/49 720/30/30 695/5/5 719/29/29 
f 749/59/59 750/60/60 730/40/40 729/39/39 
f 759/69/69 740/50/50 720/30/30 739/49/49 
f 769/88/79 770/91/80 750/90/60 749/89/59 
f 779/108/89 760/110/70 740/111/50 759/109/69 
f 789/49/99 790/48/100 770/68/80 769/69/79 
f 799/39/109 780/38/90 760/58/70 779/59/89 
f 809/29/119 810/28/120 790/48/100 789/49/99 
f 819/15/129 800/14/110 780/38/90 799/39/109 
f 823/4/133 824/24/134 810/28/120 809/29/119 
f 827/16/137 820/10/130 800/14/110 819/15/129 
f 828/3/138 821/2/131 820/10/130 827/16/137 
f 706/16/16 707/17/17 713/23/23 693/3/3 
f 823/4/133 822/1/132 821/2/131 828/3/138 
f 829/1/1 830/2/2 831/3/3 832/4/4 
f 829/1/1 833/5/5 834/6/6 
f 829/1/1 834/6/6 835/7/7 
f 829/1/1 835/7/7 836/8/8 
f 829/1/1 836/8/8 837/9/9 830/2/2 
f 838/10/10 839/11/11 840/12/12 
f 838/10/10 840/12/12 841/13/13 
f 838/10/10 841/13/13 842/14/14 
f 838/10/10 842/14/14 843/15/15 844/16/16 
f 845/17/17 846/18/18 847/19/19 
f 845/17/17 847/19/19 848/20/20 
f 845/17/17 848/20/20 849/21/21 
f 845/17/17 849/21/21 850/22/22 851/23/23 
f 852/24/24 853/25/25 854/26/26 
f 852/24/24 854/26/26 855/27/27 
f 852/24/24 855/27/27 856/28/28 
f 852/24/24 856/28/28 857/29/29 832/4/4 
f 833/5/5 858/30/30 859/31/31 834/6/6 
f 834/6/6 859/31/31 860/32/32 835/7/7 
f 835/7/7 860/32/32 861/33/33 836/8/8 
f 836/8/8 861/33/33 862/34/34 837/9/9 
f 839/11/11 863/35/35 864/36/36 840/12/12 
f 840/12/12 864/36/36 865/37/37 841/13/13 
f 841/13/13 865/37/37 866/38/38 842/14/14 
f 842/14/14 866/38/38 867/39/39 843/15/15 
f 846/18/18 868/40/40 869/41/41 847/19/19 
f 847/19/19 869/41/41 870/42/42 848/20/20 
f 848/20/20 870/42/42 871/43/43 849/21/21 
f 849/21/21 871/43/43 872/44/44 850/22/22 
f 853/25/25 873/45/45 874/46/46 854/26/26 
f 854/26/26 874/46/46 875/47/47 855/27/27 
f 855/27/27 875/47/47 876/48/48 856/28/28 
f 856/28/28 876/48/48 877/49/49 857/29/29 
f 858/30/30 878/50/50 879/51/51 859/31/31 
f 859/31/31 879/51/51 880/52/52 860/32/32 
f 860/32/32 880/52/52 881/53/53 861/33/33 
f 861/33/33 881/53/53 882/54/54 862/34/34 
f 863/35/35 883/55/55 884/56/56 864/36/36 
f 864/36/36 884/56/56 885/57/57 865/37/37 
f 865/37/37 885/57/57 886/58/58 866/38/38 
f 866/38/38 886/58/58 887/59/59 867/39/39 
f 868/40/40 888/60/60 889/61/61 869/41/41 
f 869/41/41 889/61/61 890/62/62 870/42/42 
f 870/42/42 890/62/62 891/63/63 871/43/43 
f 871/43/43 891/63/63 892/64/64 872/44/44 
f 873/45/45 893/65/65 894/66/66 874/46/46 
f 874/46/46 894/66/66 895/67/67 875/47/47 
f 875/47/47 895/67/67 896/68/68 876/48/48 
f 876/48/48 896/68/68 897/69/69 877/49/49 
f 878/70/50 898/71/70 899/72/71 879/73/51 
f 879/73/51 899/72/71 900/74/141 880/75/52 
f 880/75/52 900/74/141 901/76/73 881/77/53 
f 881/77/53 901/76/73 902/78/74 882/79/54 
f 883/80/55 903/81/75 904/82/76 884/83/56 
f 884/83/56 904/82/76 905/84/77 885/85/57 
f 885/85/57 905/84/77 906/86/78 886/87/58 
f 886/87/58 906/86/78 907/88/79 887/89/59 
f 888/90/60 908/91/80 909/92/81 889/93/61 
f 889/93/61 909/92/81 910/94/82 890/95/62 
f 890/95/62 910/94/82 911/96/83 891/97/63 
f 891/97/63 911/96/83 912/98/84 892/99/64 
f 893/100/65 913/101/85 914/102/142 894/103/66 
f 894/103/66 914/102/142 915/104/87 895/105/67 
f 895/105/67 915/104/87 916/106/88 896/107/68 
f 896/107/68 916/106/88 917/108/89 897/109/69 
f 898/58/70 918/38/90 919/37/91 899/57/71 
f 899/57/71 919/37/91 920/36/92 900/56/141 
f 900/56/141 920/36/92 921/35/93 901/55/73 
f 901/55/73 921/35/93 922/34/94 902/54/74 
f 903/53/75 923/33/95 924/32/96 904/52/76 
f 904/52/76 924/32/96 925/31/97 905/51/77 
f 905/51/77 925/31/97 926/30/98 906/50/78 
f 906/50/78 926/30/98 927/49/99 907/69/79 
f 908/68/80 928/48/100 929/47/101 909/67/81 
f 909/67/81 929/47/101 930/46/102 910/66/82 
f 910/66/82 930/46/102 931/45/103 911/65/83 
f 911/65/83 931/45/103 932/44/104 912/64/84 
f 913/63/85 933/43/105 934/42/106 914/62/142 
f 914/62/142 934/42/106 935/41/107 915/61/87 
f 915/61/87 935/41/107 936/40/108 916/60/88 
f 916/60/88 936/40/108 937/39/109 917/59/89 
f 918/38/90 938/14/110 939/13/111 919/37/91 
f 919/37/91 939/13/111 940/12/112 920/36/92 
f 920/36/92 940/12/112 941/11/113 921/35/93 
f 921/35/93 941/11/113 942/9/114 922/34/94 
f 923/33/95 943/8/115 944/7/116 924/32/96 
f 924/32/96 944/7/116 945/6/117 925/31/97 
f 925/31/97 945/6/117 946/5/118 926/30/98 
f 926/30/98 946/5/118 947/29/119 927/49/99 
f 928/48/100 948/28/120 949/27/121 929/47/101 
f 929/47/101 949/27/121 950/26/122 930/46/102 
f 930/46/102 950/26/122 951/25/123 931/45/103 
f 931/45/103 951/25/123 952/22/124 932/44/104 
f 933/43/105 953/21/125 954/20/126 934/42/106 
f 934/42/106 954/20/126 955/19/127 935/41/107 
f 935/41/107 955/19/127 956/18/128 936/40/108 
f 936/40/108 956/18/128 957/15/129 937/39/109 
f 938/14/110 958/10/130 939/13/111 
f 939/13/111 958/10/130 940/12/112 
f 940/12/112 958/10/130 941/11/113 
f 941/11/113 958/10/130 959/2/131 942/9/114 
f 943/8/115 960/1/132 944/7/116 
f 944/7/116 960/1/132 945/6/117 
f 945/6/117 960/1/132 946/5/118 
f 946/5/118 960/1/132 961/4/133 947/29/119 
f 948/28/120 962/24/134 949/27/121 
f 949/27/121 962/24/134 950/26/122 
f 950/26/122 962/24/134 951/25/123 
f 951/25/123 962/24/134 963/23/135 952/22/124 
f 953/21/125 964/17/136 954/20/126 
f 954/20/126 964/17/136 955/19/127 
f 955/19/127 964/17/136 956/18/128 
f 956/18/128 964/17/136 965/16/137 957/15/129 
f 964/17/136 963/23/135 966/3/138 965/16/137 
f 830/2/2 838/10/10 844/16/16 831/3/3 
f 837/9/9 839/11/11 838/10/10 830/2/2 
f 850/22/22 853/25/25 852/24/24 851/23/23 
f 862/34/34 863/35/35 839/11/11 837/9/9 
f 872/44/44 873/45/45 853/25/25 850/22/22 
f 882/54/54 883/55/55 863/35/35 862/34/34 
f 892/64/64 893/65/65 873/45/45 872/44/44 
f 902/78/74 903/81/75 883/80/55 882/79/54 
f 912/98/84 913/101/85 893/100/65 892/99/64 
f 922/34/94 923/33/95 903/53/75 902/54/74 
f 932/44/104 933/43/105 913/63/85 912/64/84 
f 942/9/114 943/8/115 923/33/95 922/34/94 
f 952/22/124 953/21/125 933/43/105 932/44/104 
f 959/2/131 960/1/132 943/8/115 942/9/114 
f 963/23/135 964/17/136 953/21/125 952/22/124 
f 963/23/135 962/24/134 961/4/133 966/3/138 
f 831/3/3 851/23/23 852/24/24 832/4/4 
f 843/15/15 846/18/18 845/17/17 844/16/16 
f 857/29/29 833/5/5 829/1/1 832/4/4 
f 867/39/39 868/40/40 846/18/18 843/15/15 
f 877/49/49 858/30/30 833/5/5 857/29/29 
f 887/59/59 888/60/60 868/40/40 867/39/39 
f 897/69/69 878/50/50 858/30/30 877/49/49 
f 907/88/79 908/91/80 888/90/60 887/89/59 
f 917/108/89 898/110/70 878/111/50 897/109/69 
f 927/49/99 928/48/100 908/68/80 907/69/79 
f 937/39/109 918/38/90 898/58/70 917/59/89 
f 947/29/119 948/28/120 928/48/100 927/49/99 
f 957/15/129 938/14/110 918/38/90 937/39/109 
f 961/4/133 962/24/134 948/28/120 947/29/119 
f 965/16/137 958/10/130 938/14/110 957/15/129 
f 966/3/138 959/2/131 958/10/130 965/16/137 
f 844/16/16 845/17/17 851/23/23 831/3/3 
f 961/4/133 960/1/132 959/2/131 966/3/138 
f 967/1/143 968/2/144 969/3/145 970/4/146 
f 967/1/143 971/5/147 972/6/148 
f 967/1/143 972/6/148 973/7/149 
f 967/1/143 973/7/149 974/8/150 
f 967/1/143 974/8/150 975/9/151 968/2/144 
f 976/10/152 977/11/153 978/12/154 
f 976/10/152 978/12/154 979/13/155 
f 976/10/152 979/13/155 980/14/156 
f 976/10/152 980/14/156 981/15/157 982/16/158 
f 983/17/159 984/18/160 985/19/161 
f 983/17/159 985/19/161 986/20/162 
f 983/17/159 986/20/162 987/21/163 
f 983/17/159 987/21/163 988/22/164 989/23/165 
f 990/24/166 991/25/167 992/26/168 
f 990/24/166 992/26/168 993/27/169 
f 990/24/166 993/27/169 994/28/170 
f 990/24/166 994/28/170 995/29/171 970/4/146 
f 971/5/147 996/30/172 997/31/173 972/6/148 
f 972/6/148 997/31/173 998/32/174 973/7/149 
f 973/7/149 998/32/174 999/33/175 974/8/150 
f 974/8/150 999/33/175 1000/34/176 975/9/151 
f 977/11/153 1001/35/177 1002/36/178 978/12/154 
f 978/12/154 1002/36/178 1003/37/179 979/13/155 
f 979/13/155 1003/37/179 1004/38/180 980/14/156 
f 980/14/156 1004/38/180 1005/39/181 981/15/157 
f 984/18/160 1006/40/182 1007/41/183 985/19/161 
f 985/19/161 1007/41/183 1008/42/184 986/20/162 
f 986/20/162 1008/42/184 1009/43/185 987/21/163 
f 987/21/163 1009/43/185 1010/44/186 988/22/164 
f 991/25/167 1011/45/187 1012/46/188 992/26/168 
f 992/26/168 1012/46/188 1013/47/189 993/27/169 
f 993/27/169 1013/47/189 1014/48/190 994/28/170 
f 994/28/170 1014/48/190 1015/49/191 995/29/171 
f 996/30/172 1016/50/192 1017/51/193 997/31/173 
f 997/31/173 1017/51/193 1018/52/194 998/32/174 
f 998/32/174 1018/52/194 1019/53/195 999/33/175 
f 999/33/175 1019/53/195 1020/54/196 1000/34/176 
f 1001/35/177 1021/55/197 1022/56/198 1002/36/178 
f 1002/36/178 1022/56/198 1023/57/199 1003/37/179 
f 1003/37/179 1023/57/199 1024/58/200 1004/38/180 
f 1004/38/180 1024/58/200 1025/59/201 1005/39/181 
f 1006/40/182 1026/60/202 1027/61/203 1007/41/183 
f 1007/41/183 1027/61/203 1028/62/204 1008/42/184 
f 1008/42/184 1028/62/204 1029/63/205 1009/43/185 
f 1009/43/185 1029/63/205 1030/64/206 1010/44/186 
f 1011/45/187 1031/65/207 1032/66/208 1012/46/188 
f 1012/46/188 1032/66/208 1033/67/209 1013/47/189 
f 1013/47/189 1033/67/209 1034/68/210 1014/48/190 
f 1014/48/190 1034/68/210 1035/69/211 1015/49/191 
f 1016/70/192 1036/71/212 1037/72/213 1017/73/193 
f 1017/73/193 1037/72/213 1038/74/214 1018/75/194 
f 1018/75/194 1038/74/214 1039/76/215 1019/77/195 
f 1019/77/195 1039/76/215 1040/78/216 1020/79/196 
f 1021/80/197 1041/81/217 1042/82/218 1022/83/198 
f 1022/83/198 1042/82/218 1043/84/219 1023/85/199 
f 1023/85/199 1043/84/219 1044/86/220 1024/87/200 
f 1024/87/200 1044/86/220 1045/88/221 1025/89/201 
f 1026/90/202 1046/91/222 1047/92/223 1027/93/203 
f 1027/93/203 1047/92/223 1048/94/224 1028/95/204 
f 1028/95/204 1048/94/224 1049/96/225 1029/97/205 
f 1029/97/205 1049/96/225 1050/98/226 1030/99/206 
f 1031/100/207 1051/101/227 1052/102/228 1032/103/208 
f 1032/103/208 1052/102/228 1053/104/229 1033/105/209 
f 1033/105/209 1053/104/229 1054/106/230 1034/107/210 
f 1034/107/210 1054/106/230 1055/108/231 1035/109/211 
f 1036/58/212 1056/38/232 1057/37/233 1037/57/213 
f 1037/57/213 1057/37/233 1058/36/234 1038/56/214 
f 1038/56/214 1058/36/234 1059/35/235 1039/55/215 
f 1039/55/215 1059/35/235 1060/34/236 1040/54/216 
f 1041/53/217 1061/33/237 1062/32/238 1042/52/218 
f 1042/52/218 1062/32/238 1063/31/239 1043/51/219 
f 1043/51/219 1063/31/239 1064/30/240 1044/50/220 
f 1044/50/220 1064/30/240 1065/49/241 1045/69/221 
f 1046/68/222 1066/48/242 1067/47/243 1047/67/223 
f 1047/67/223 1067/47/243 1068/46/244 1048/66/224 
f 1048/66/224 1068/46/244 1069/45/245 1049/65/225 
f 1049/65/225 1069/45/245 1070/44/246 1050/64/226 
f 1051/63/227 1071/43/247 1072/42/248 1052/62/228 
f 1052/62/228 1072/42/248 1073/41/249 1053/61/229 
f 1053/61/229 1073/41/249 1074/40/250 1054/60/230 
f 1054/60/230 1074/40/250 1075/39/251 1055/59/231 
f 1056/38/232 1076/14/252 1077/13/253 1057/37/233 
f 1057/37/233 1077/13/253 1078/12/254 1058/36/234 
f 1058/36/234 1078/12/254 1079/11/255 1059/35/235 
f 1059/35/235 1079/11/255 1080/9/256 1060/34/236 
f 1061/33/237 1081/8/257 1082/7/258 1062/32/238 
f 1062/32/238 1082/7/258 1083/6/259 1063/31/239 
f 1063/31/239 1083/6/259 1084/5/260 1064/30/240 
f 1064/30/240 1084/5/260 1085/29/261 1065/49/241 
f 1066/48/242 1086/28/262 1087/27/263 1067/47/243 
f 1067/47/243 1087/27/263 1088/26/264 1068/46/244 
f 1068/46/244 1088/26/264 1089/25/265 1069/45/245 
f 1069/45/245 1089/25/265 1090/22/266 1070/44/246 
f 1071/43/247 1091/21/267 1092/20/268 1072/42/248 
f 1072/42/248 1092/20/268 1093/19/269 1073/41/249 
f 1073/41/249 1093/19/269 1094/18/270 1074/40/250 
f 1074/40/250 1094/18/270 1095/15/271 1075/39/251 
f 1076/14/252 1096/10/272 1077/13/253 
f 1077/13/253 1096/10/272 1078/12/254 
f 1078/12/254 1096/10/272 1079/11/255 
f 1079/11/255 1096/10/272 1097/2/273 1080/9/256 
f 1081/8/257 1098/1/274 1082/7/258 
f 1082/7/258 1098/1/274 1083/6/259 
f 1083/6/259 1098/1/274 1084/5/260 
f 1084/5/260 1098/1/274 1099/4/275 1085/29/261 
f 1086/28/262 1100/24/276 1087/27/263 
f 1087/27/263 1100/24/276 1088/26/264 
f 1088/26/264 1100/24/276 1089/25/265 
f 1089/25/265 1100/24/276 1101/23/277 1090/22/266 
f 1091/21/267 1102/17/278 1092/20/268 
f 1092/20/268 1102/17/278 1093/19/269 
f 1093/19/269 1102/17/278 1094/18/270 
f 1094/18/270 1102/17/278 1103/16/279 1095/15/271 
f 1102/17/278 1101/23/277 1104/3/280 1103/16/279 
f 968/2/144 976/10/152 982/16/158 969/3/145 
f 975/9/151 977/11/153 976/10/152 968/2/144 
f 988/22/164 991/25/167 990/24/166 989/23/165 
f 1000/34/176 1001/35/177 977/11/153 975/9/151 
f 1010/44/186 1011/45/187 991/25/167 988/22/164 
f 1020/54/196 1021/55/197 1001/35/177 1000/34/176 
f 1030/64/206 1031/65/207 1011/45/187 1010/44/186 
f 1040/78/216 1041/81/217 1021/80/197 1020/79/196 
f 1050/98/226 1051/101/227 1031/100/207 1030/99/206 
f 1060/34/236 1061/33/237 1041/53/217 1040/54/216 
f 1070/44/246 1071/43/247 1051/63/227 1050/64/226 
f 1080/9/256 1081/8/257 1061/33/237 1060/34/236 
f 1090/22/266 1091/21/267 1071/43/247 1070/44/246 
f 1097/2/273 1098/1/274 1081/8/257 1080/9/256 
f 1101/23/277 1102/17/278 1091/21/267 1090/22/266 
f 1101/23/277 1100/24/276 1099/4/275 1104/3/280 
f 969/3/145 989/23/165 990/24/166 970/4/146 
f 981/15/157 984/18/160 983/17/159 982/16/158 
f 995/29/171 971/5/147 967/1/143 970/4/146 
f 1005/39/181 1006/40/182 984/18/160 981/15/157 
f 1015/49/191 996/30/172 971/5/147 995/29/171 
f 1025/59/201 1026/60/202 1006/40/182 1005/39/181 
f 1035/69/211 1016/50/192 996/30/172 1015/49/191 
f 1045/88/221 1046/91/222 1026/90/202 1025/89/201 
f 1055/108/231 1036/110/212 1016/111/192 1035/109/211 
f 1065/49/241 1066/48/242 1046/68/222 1045/69/221 
f 1075/39/251 1056/38/232 1036/58/212 1055/59/231 
f 1085/29/261 1086/28/262 1066/48/242 1065/49/241 
f 1095/15/271 1076/14/252 1056/38/232 1075/39/251 
f 1099/4/275 1100/24/276 1086/28/262 1085/29/261 
f 1103/16/279 1096/10/272 1076/14/252 1095/15/271 
f 1104/3/280 1097/2/273 1096/10/272 1103/16/279 
f 982/16/158 983/17/159 989/23/165 969/3/145 
f 1099/4/275 1098/1/274 1097/2/273 1104/3/280 
# 992 polygons - 192 triangles

