# 3ds Max Wavefront OBJ Exporter v0.99 - (c)2007 guruware
# File Created: 15.09.2026 19:29:44

mtllib Gum Piller.mtl

#
# object Gum_Piller
#

v  -190.2509 0.0028 -152.4808
v  -187.1849 0.0028 -154.7085
v  -186.4611 0.0028 -152.4808
v  -189.0798 0.0028 -156.0852
v  -191.4221 0.0028 -156.0852
v  -193.3170 0.0028 -154.7085
v  -194.0408 0.0028 -152.4808
v  -193.3170 0.0028 -150.2532
v  -191.4221 0.0028 -148.8765
v  -189.0798 0.0028 -148.8765
v  -187.1849 0.0028 -150.2532
v  -185.7369 0.0043 -152.9931
v  -186.2979 0.0043 -154.7197
v  -186.2979 19.2769 -154.7197
v  -185.7369 19.2769 -152.9931
v  -186.9730 0.0038 -155.6030
v  -188.2945 0.0038 -156.5631
v  -188.2945 19.2772 -156.5631
v  -186.9730 19.2772 -155.6030
v  -189.3433 0.0043 -156.9323
v  -191.1586 0.0043 -156.9323
v  -191.1586 19.2769 -156.9323
v  -189.3433 19.2769 -156.9323
v  -192.2074 0.0038 -156.5631
v  -193.5289 0.0038 -155.6030
v  -193.5289 19.2772 -155.6030
v  -192.2074 19.2772 -156.5631
v  -194.2040 0.0043 -154.7197
v  -194.7650 0.0043 -152.9931
v  -194.7650 19.2769 -152.9931
v  -194.2040 19.2769 -154.7197
v  -194.7380 0.0038 -151.8817
v  -194.2332 0.0038 -150.3282
v  -194.2332 19.2772 -150.3282
v  -194.7380 19.2772 -151.8817
v  -193.6018 0.0043 -149.4131
v  -192.1331 0.0043 -148.3460
v  -192.1331 19.2769 -148.3460
v  -193.6018 19.2769 -149.4131
v  -191.0677 0.0038 -148.0282
v  -189.4342 0.0038 -148.0282
v  -189.4342 19.2772 -148.0282
v  -191.0677 19.2772 -148.0282
v  -188.3688 0.0043 -148.3460
v  -186.9001 0.0043 -149.4131
v  -186.9001 19.2769 -149.4131
v  -188.3688 19.2769 -148.3460
v  -186.2686 0.0038 -150.3282
v  -185.7639 0.0038 -151.8817
v  -185.7639 19.2772 -151.8817
v  -186.2686 19.2772 -150.3282
v  -186.4611 19.2775 -152.4808
v  -187.1849 19.2775 -154.7085
v  -190.2509 19.2775 -152.4808
v  -189.0798 19.2775 -156.0852
v  -191.4221 19.2775 -156.0852
v  -193.3170 19.2775 -154.7085
v  -194.0408 19.2775 -152.4808
v  -193.3170 19.2775 -150.2532
v  -191.4221 19.2775 -148.8765
v  -189.0798 19.2775 -148.8765
v  -187.1849 19.2775 -150.2532
# 62 vertices

vn 0.0000 -1.0000 -0.0000
vn 0.2838 -0.9316 -0.2272
vn 0.3631 -0.9316 0.0170
vn 0.1284 -0.9316 -0.3401
vn -0.1284 -0.9316 -0.3401
vn -0.2838 -0.9316 -0.2272
vn -0.3631 -0.9316 0.0170
vn -0.3037 -0.9316 0.1997
vn -0.0961 -0.9316 0.3506
vn 0.0961 -0.9316 0.3506
vn 0.3037 -0.9316 0.1997
vn 0.7633 -0.5944 0.2531
vn 0.4687 -0.5944 -0.6534
vn 0.4685 0.5947 -0.6533
vn 0.7630 0.5947 0.2532
vn 0.7495 -0.6008 -0.2780
vn 0.0328 -0.6008 -0.7988
vn 0.0327 0.6010 -0.7986
vn 0.7494 0.6010 -0.2778
vn 0.4766 -0.5944 -0.6477
vn -0.4766 -0.5944 -0.6477
vn -0.4766 0.5947 -0.6475
vn 0.4766 0.5947 -0.6475
vn -0.0328 -0.6008 -0.7988
vn -0.7495 -0.6008 -0.2780
vn -0.7494 0.6010 -0.2778
vn -0.0326 0.6010 -0.7986
vn -0.4687 -0.5945 -0.6534
vn -0.7632 -0.5945 0.2532
vn -0.7630 0.5947 0.2532
vn -0.4684 0.5947 -0.6533
vn -0.7698 -0.6008 -0.2157
vn -0.4960 -0.6008 0.6269
vn -0.4958 0.6010 0.6269
vn -0.7696 0.6010 -0.2158
vn -0.7663 -0.5944 0.2439
vn 0.0048 -0.5944 0.8041
vn 0.0050 0.5947 0.8039
vn -0.7661 0.5947 0.2437
vn -0.4430 -0.6008 0.6655
vn 0.4430 -0.6008 0.6655
vn 0.4430 0.6010 0.6653
vn -0.4430 0.6010 0.6653
vn -0.0048 -0.5944 0.8041
vn 0.7663 -0.5944 0.2439
vn 0.7661 0.5947 0.2437
vn -0.0050 0.5947 0.8039
vn 0.4960 -0.6008 0.6269
vn 0.7698 -0.6008 -0.2157
vn 0.7696 0.6010 -0.2158
vn 0.4958 0.6010 0.6268
vn 0.3630 0.9316 0.0171
vn 0.2836 0.9316 -0.2271
vn 0.0000 1.0000 -0.0000
vn 0.1283 0.9316 -0.3400
vn -0.1284 0.9317 -0.3399
vn -0.2836 0.9316 -0.2271
vn -0.3629 0.9317 0.0170
vn -0.3037 0.9317 0.1995
vn -0.0959 0.9316 0.3505
vn 0.0959 0.9316 0.3505
vn 0.3037 0.9316 0.1996
# 62 vertex normals

vt 0.6548 0.6460 0.0000
vt 0.5627 0.7129 0.0000
vt 0.5409 0.6460 0.0000
vt 0.6196 0.7542 0.0000
vt 0.6900 0.7542 0.0000
vt 0.7469 0.7129 0.0000
vt 0.7686 0.6460 0.0000
vt 0.7469 0.5791 0.0000
vt 0.6900 0.5377 0.0000
vt 0.6196 0.5377 0.0000
vt 0.5627 0.5791 0.0000
vt 0.5013 0.6305 0.0000
vt 0.5013 0.6902 0.0000
vt 0.0226 0.6902 0.0000
vt 0.0226 0.6305 0.0000
vt 0.7336 0.0138 0.0000
vt 0.7873 0.0138 0.0000
vt 0.7873 0.4925 0.0000
vt 0.7336 0.4925 0.0000
vt 0.5013 0.6948 0.0000
vt 0.5013 0.7544 0.0000
vt 0.0226 0.7544 0.0000
vt 0.0226 0.6948 0.0000
vt 0.5013 0.5192 0.0000
vt 0.5013 0.5728 0.0000
vt 0.0226 0.5728 0.0000
vt 0.0226 0.5192 0.0000
vt 0.5013 0.8233 0.0000
vt 0.5013 0.8829 0.0000
vt 0.0226 0.8829 0.0000
vt 0.0226 0.8233 0.0000
vt 0.7893 0.0138 0.0000
vt 0.8429 0.0138 0.0000
vt 0.8429 0.4925 0.0000
vt 0.7893 0.4925 0.0000
vt 0.0226 0.8187 0.0000
vt 0.0226 0.7590 0.0000
vt 0.5013 0.7590 0.0000
vt 0.5013 0.8187 0.0000
vt 0.5013 0.5749 0.0000
vt 0.5013 0.6285 0.0000
vt 0.0226 0.6285 0.0000
vt 0.0226 0.5749 0.0000
vt 0.8450 0.0138 0.0000
vt 0.9046 0.0138 0.0000
vt 0.9046 0.4925 0.0000
vt 0.8450 0.4925 0.0000
vt 0.6779 0.0138 0.0000
vt 0.7316 0.0138 0.0000
vt 0.7316 0.4925 0.0000
vt 0.6779 0.4925 0.0000
vt 0.8576 0.9591 0.0000
vt 0.7907 0.9374 0.0000
vt 0.8576 0.8453 0.0000
vt 0.7493 0.8804 0.0000
vt 0.7493 0.8101 0.0000
vt 0.7907 0.7532 0.0000
vt 0.8576 0.7314 0.0000
vt 0.9245 0.7532 0.0000
vt 0.9659 0.8101 0.0000
vt 0.9659 0.8804 0.0000
vt 0.9245 0.9374 0.0000
vt 0.5960 0.7686 0.0000
vt 0.5563 0.7398 0.0000
vt 0.6396 0.0138 0.0000
vt 0.6396 0.4925 0.0000
vt 0.6094 0.4925 0.0000
vt 0.6094 0.0138 0.0000
vt 0.7638 0.9437 0.0000
vt 0.7350 0.9040 0.0000
vt 0.0520 0.0180 0.0000
vt 0.0520 0.4968 0.0000
vt 0.0226 0.4968 0.0000
vt 0.0226 0.0181 0.0000
vt 0.7532 0.7398 0.0000
vt 0.7135 0.7686 0.0000
vt 0.5356 0.0432 0.0000
vt 0.0569 0.0432 0.0000
vt 0.0569 0.0138 0.0000
vt 0.5356 0.0138 0.0000
vt 0.7350 0.7865 0.0000
vt 0.7638 0.7468 0.0000
vt 0.6437 0.4925 0.0000
vt 0.6437 0.0138 0.0000
vt 0.6739 0.0138 0.0000
vt 0.6739 0.4925 0.0000
vt 0.7744 0.5813 0.0000
vt 0.7896 0.6280 0.0000
vt 0.5399 0.3094 0.0000
vt 0.0612 0.3094 0.0000
vt 0.0612 0.2793 0.0000
vt 0.5399 0.2793 0.0000
vt 0.8756 0.7105 0.0000
vt 0.9223 0.7256 0.0000
vt 0.5751 0.4925 0.0000
vt 0.5751 0.0138 0.0000
vt 0.6053 0.0138 0.0000
vt 0.6053 0.4925 0.0000
vt 0.6302 0.5122 0.0000
vt 0.6793 0.5122 0.0000
vt 0.5399 0.5151 0.0000
vt 0.0612 0.5151 0.0000
vt 0.0612 0.4849 0.0000
vt 0.5399 0.4849 0.0000
vt 0.9913 0.8207 0.0000
vt 0.9913 0.8698 0.0000
vt 0.0612 0.4506 0.0000
vt 0.5399 0.4506 0.0000
vt 0.5399 0.4808 0.0000
vt 0.0612 0.4808 0.0000
vt 0.5200 0.6280 0.0000
vt 0.5351 0.5813 0.0000
vt 0.5399 0.4466 0.0000
vt 0.0612 0.4466 0.0000
vt 0.0612 0.4164 0.0000
vt 0.5399 0.4164 0.0000
vt 0.9223 0.9649 0.0000
vt 0.8756 0.9801 0.0000
vt 0.0612 0.3821 0.0000
vt 0.5399 0.3821 0.0000
vt 0.5399 0.4123 0.0000
vt 0.0612 0.4123 0.0000
vt 0.5360 0.7132 0.0000
vt 0.5192 0.6614 0.0000
vt 0.5399 0.2742 0.0000
vt 0.0612 0.2742 0.0000
vt 0.0612 0.2451 0.0000
vt 0.5399 0.2451 0.0000
vt 0.8422 0.9809 0.0000
vt 0.7903 0.9640 0.0000
vt 0.0612 0.3478 0.0000
vt 0.5399 0.3478 0.0000
vt 0.5399 0.3770 0.0000
vt 0.0612 0.3770 0.0000
vt 0.6820 0.7797 0.0000
vt 0.6275 0.7797 0.0000
vt 0.5399 0.2429 0.0000
vt 0.0612 0.2429 0.0000
vt 0.0612 0.2151 0.0000
vt 0.5399 0.2151 0.0000
vt 0.7239 0.8725 0.0000
vt 0.7239 0.8180 0.0000
vt 0.0612 0.1851 0.0000
vt 0.5399 0.1851 0.0000
vt 0.5399 0.2129 0.0000
vt 0.0612 0.2129 0.0000
vt 0.7904 0.6614 0.0000
vt 0.7735 0.7132 0.0000
vt 0.5399 0.3427 0.0000
vt 0.0612 0.3427 0.0000
vt 0.0612 0.3136 0.0000
vt 0.5399 0.3136 0.0000
vt 0.7903 0.7265 0.0000
vt 0.8422 0.7097 0.0000
vt 0.0612 0.1508 0.0000
vt 0.5399 0.1508 0.0000
vt 0.5399 0.1800 0.0000
vt 0.0612 0.1800 0.0000
vt 0.7113 0.5218 0.0000
vt 0.7554 0.5538 0.0000
vt 0.5399 0.1457 0.0000
vt 0.0612 0.1457 0.0000
vt 0.0612 0.1166 0.0000
vt 0.5399 0.1166 0.0000
vt 0.9497 0.7446 0.0000
vt 0.9818 0.7887 0.0000
vt 0.0612 0.0823 0.0000
vt 0.5399 0.0823 0.0000
vt 0.5399 0.1114 0.0000
vt 0.0612 0.1114 0.0000
vt 0.5541 0.5538 0.0000
vt 0.5982 0.5218 0.0000
vt 0.5399 0.0772 0.0000
vt 0.0612 0.0772 0.0000
vt 0.0612 0.0480 0.0000
vt 0.5399 0.0480 0.0000
vt 0.9818 0.9018 0.0000
vt 0.9497 0.9459 0.0000
vt 0.5409 0.4925 0.0000
vt 0.5409 0.0138 0.0000
vt 0.5700 0.0138 0.0000
vt 0.5700 0.4925 0.0000
# 182 texture coords

o Gum_Piller
g Gum_Piller
usemtl wire_228214153
s 1
f 1/1/1 2/2/2 3/3/3 
f 1/1/1 4/4/4 2/2/2 
f 1/1/1 5/5/5 4/4/4 
f 1/1/1 6/6/6 5/5/5 
f 1/1/1 7/7/7 6/6/6 
f 1/1/1 8/8/8 7/7/7 
f 1/1/1 9/9/9 8/8/8 
f 1/1/1 10/10/10 9/9/9 
f 1/1/1 11/11/11 10/10/10 
f 1/1/1 3/3/3 11/11/11 
s 8
f 12/12/12 13/13/13 14/14/14 15/15/15 
f 16/16/16 17/17/17 18/18/18 19/19/19 
f 20/20/20 21/21/21 22/22/22 23/23/23 
f 24/24/24 25/25/25 26/26/26 27/27/27 
f 28/28/28 29/29/29 30/30/30 31/31/31 
f 32/32/32 33/33/33 34/34/34 35/35/35 
f 36/36/36 37/37/37 38/38/38 39/39/39 
f 40/40/40 41/41/41 42/42/42 43/43/43 
f 44/44/44 45/45/45 46/46/46 47/47/47 
f 48/48/48 49/49/49 50/50/50 51/51/51 
s 1
f 52/52/52 53/53/53 54/54/54 
f 53/53/53 55/55/55 54/54/54 
f 55/55/55 56/56/56 54/54/54 
f 56/56/56 57/57/57 54/54/54 
f 57/57/57 58/58/58 54/54/54 
f 58/58/58 59/59/59 54/54/54 
f 59/59/59 60/60/60 54/54/54 
f 60/60/60 61/61/61 54/54/54 
f 61/61/61 62/62/62 54/54/54 
f 62/62/62 52/52/52 54/54/54 
s off
f 2/2/2 4/4/4 17/63/17 16/64/16 
f 4/65/4 55/66/55 18/67/18 17/68/17 
f 55/55/55 53/53/53 19/69/19 18/70/18 
f 53/71/53 2/72/2 16/73/16 19/74/19 
f 5/5/5 6/6/6 25/75/25 24/76/24 
f 6/77/6 57/78/57 26/79/26 25/80/25 
f 57/57/57 56/56/56 27/81/27 26/82/26 
f 56/83/56 5/84/5 24/85/24 27/86/27 
f 7/7/7 8/8/8 33/87/33 32/88/32 
f 8/89/8 59/90/59 34/91/34 33/92/33 
f 59/59/59 58/58/58 35/93/35 34/94/34 
f 58/95/58 7/96/7 32/97/32 35/98/35 
f 9/9/9 10/10/10 41/99/41 40/100/40 
f 10/101/10 61/102/61 42/103/42 41/104/41 
f 61/61/61 60/60/60 43/105/43 42/106/42 
f 60/107/60 9/108/9 40/109/40 43/110/43 
f 11/11/11 3/3/3 49/111/49 48/112/48 
f 3/113/3 52/114/52 50/115/50 49/116/49 
f 52/52/52 62/62/62 51/117/51 50/118/50 
f 62/119/62 11/120/11 48/121/48 51/122/51 
f 3/3/3 2/2/2 13/123/13 12/124/12 
f 2/125/2 53/126/53 14/127/14 13/128/13 
f 53/53/53 52/52/52 15/129/15 14/130/14 
f 52/131/52 3/132/3 12/133/12 15/134/15 
f 4/4/4 5/5/5 21/135/21 20/136/20 
f 5/137/5 56/138/56 22/139/22 21/140/21 
f 56/56/56 55/55/55 23/141/23 22/142/22 
f 55/143/55 4/144/4 20/145/20 23/146/23 
f 6/6/6 7/7/7 29/147/29 28/148/28 
f 7/149/7 58/150/58 30/151/30 29/152/29 
f 58/58/58 57/57/57 31/153/31 30/154/30 
f 57/155/57 6/156/6 28/157/28 31/158/31 
f 8/8/8 9/9/9 37/159/37 36/160/36 
f 9/161/9 60/162/60 38/163/38 37/164/37 
f 60/60/60 59/59/59 39/165/39 38/166/38 
f 59/167/59 8/168/8 36/169/36 39/170/39 
f 10/10/10 11/11/11 45/171/45 44/172/44 
f 11/173/11 62/174/62 46/175/46 45/176/45 
f 62/62/62 61/61/61 47/177/47 46/178/46 
f 61/179/61 10/180/10 44/181/44 47/182/47 
# 50 polygons - 20 triangles

