# 3ds Max Wavefront OBJ Exporter v0.99 - (c)2007 guruware
# File Created: 03.09.2025 10:59:19

mtllib Gummy Pyramid.mtl

#
# object Gummy_Pyramid
#

v  -92.3895 50.4041 -160.9056
v  -99.3895 40.3233 -153.9056
v  -96.5895 40.3233 -153.9056
v  -93.7895 40.3233 -153.9056
v  -90.9895 40.3233 -153.9056
v  -88.1895 40.3233 -153.9056
v  -85.3895 40.3233 -153.9056
v  -85.3895 40.3233 -156.7056
v  -85.3895 40.3233 -159.5056
v  -85.3895 40.3233 -162.3056
v  -85.3895 40.3233 -165.1056
v  -85.3895 40.3233 -167.9056
v  -88.1895 40.3233 -167.9056
v  -90.9895 40.3233 -167.9056
v  -93.7895 40.3233 -167.9056
v  -96.5895 40.3233 -167.9056
v  -99.3895 40.3233 -167.9056
v  -99.3895 40.3233 -165.1056
v  -99.3895 40.3233 -162.3056
v  -99.3895 40.3233 -159.5056
v  -99.3895 40.3233 -156.7056
v  -106.3895 30.2425 -146.9056
v  -100.7895 30.2425 -146.9056
v  -95.1895 30.2425 -146.9056
v  -89.5895 30.2425 -146.9056
v  -83.9895 30.2425 -146.9056
v  -78.3895 30.2425 -146.9056
v  -78.3895 30.2425 -152.5056
v  -78.3895 30.2425 -158.1056
v  -78.3895 30.2425 -163.7056
v  -78.3895 30.2425 -169.3056
v  -78.3895 30.2425 -174.9056
v  -83.9895 30.2425 -174.9056
v  -89.5895 30.2425 -174.9056
v  -95.1895 30.2425 -174.9056
v  -100.7895 30.2425 -174.9056
v  -106.3895 30.2425 -174.9056
v  -106.3895 30.2425 -169.3056
v  -106.3895 30.2425 -163.7056
v  -106.3895 30.2425 -158.1056
v  -106.3895 30.2425 -152.5056
v  -113.3895 20.1616 -139.9056
v  -104.9895 20.1616 -139.9056
v  -96.5895 20.1616 -139.9056
v  -88.1895 20.1616 -139.9056
v  -79.7895 20.1616 -139.9056
v  -71.3895 20.1616 -139.9056
v  -71.3895 20.1616 -148.3056
v  -71.3895 20.1616 -156.7056
v  -71.3895 20.1616 -165.1056
v  -71.3895 20.1616 -173.5056
v  -71.3895 20.1616 -181.9056
v  -79.7895 20.1616 -181.9056
v  -88.1895 20.1616 -181.9056
v  -96.5895 20.1616 -181.9056
v  -104.9895 20.1616 -181.9056
v  -113.3895 20.1616 -181.9056
v  -113.3895 20.1616 -173.5056
v  -113.3895 20.1616 -165.1056
v  -113.3895 20.1616 -156.7056
v  -113.3895 20.1616 -148.3056
v  -116.8895 15.1212 -136.4056
v  -107.0895 15.1212 -136.4056
v  -97.2895 15.1212 -136.4056
v  -87.4895 15.1212 -136.4056
v  -77.6895 15.1212 -136.4056
v  -67.8895 15.1212 -136.4056
v  -67.8895 15.1212 -146.2056
v  -67.8895 15.1212 -156.0056
v  -67.8895 15.1212 -165.8056
v  -67.8895 15.1212 -175.6056
v  -67.8895 15.1212 -185.4056
v  -77.6895 15.1212 -185.4056
v  -87.4895 15.1212 -185.4056
v  -97.2895 15.1212 -185.4056
v  -107.0895 15.1212 -185.4056
v  -116.8895 15.1212 -185.4056
v  -116.8895 15.1212 -175.6056
v  -116.8895 15.1212 -165.8056
v  -116.8895 15.1212 -156.0056
v  -116.8895 15.1212 -146.2056
v  -120.3895 10.0808 -132.9056
v  -127.3895 0.0000 -125.9056
v  -113.3895 0.0000 -125.9056
v  -109.1895 10.0808 -132.9056
v  -99.3895 0.0000 -125.9056
v  -97.9895 10.0808 -132.9056
v  -86.7895 10.0808 -132.9056
v  -85.3895 0.0000 -125.9056
v  -71.3895 0.0000 -125.9056
v  -75.5895 10.0808 -132.9056
v  -57.3895 0.0000 -125.9056
v  -64.3895 10.0808 -132.9056
v  -57.3895 0.0000 -139.9056
v  -64.3895 10.0808 -144.1056
v  -57.3895 0.0000 -153.9056
v  -64.3895 10.0808 -155.3056
v  -57.3895 0.0000 -167.9056
v  -64.3895 10.0808 -166.5056
v  -57.3895 0.0000 -181.9056
v  -64.3895 10.0808 -177.7056
v  -57.3895 0.0000 -195.9056
v  -64.3895 10.0808 -188.9056
v  -71.3895 0.0000 -195.9056
v  -75.5895 10.0808 -188.9056
v  -85.3895 0.0000 -195.9056
v  -86.7895 10.0808 -188.9056
v  -99.3895 0.0000 -195.9056
v  -97.9895 10.0808 -188.9056
v  -113.3895 0.0000 -195.9056
v  -109.1895 10.0808 -188.9056
v  -127.3895 0.0000 -195.9056
v  -120.3895 10.0808 -188.9056
v  -127.3895 0.0000 -181.9056
v  -120.3895 10.0808 -177.7056
v  -127.3895 0.0000 -167.9056
v  -120.3895 10.0808 -166.5056
v  -127.3895 0.0000 -153.9056
v  -120.3895 10.0808 -155.3056
v  -127.3895 0.0000 -139.9056
v  -120.3895 10.0808 -144.1056
v  -92.3895 0.0000 -160.9056
v  -97.9895 10.0808 -150.4055
v  -86.7895 10.0808 -150.4055
v  -99.3895 0.0000 -143.4055
v  -85.3895 0.0000 -143.4055
v  -88.8895 0.0000 -143.4055
v  -95.8895 0.0000 -143.4055
v  -97.2895 15.1212 -128.3173
v  -97.9895 10.0808 -124.8173
v  -86.7895 10.0808 -124.8173
v  -87.4895 15.1212 -128.3173
# 132 vertices

vn -0.0000 1.0000 -0.0000
vn -0.5045 0.7007 0.5045
vn 0.0000 0.5704 0.8214
vn 0.5045 0.7007 0.5045
vn 0.8214 0.5704 -0.0000
vn 0.5045 0.7007 -0.5045
vn 0.0000 0.5704 -0.8214
vn -0.5045 0.7007 -0.5045
vn -0.8214 0.5704 -0.0000
vn -0.1647 0.7430 0.6487
vn 0.1647 0.7430 0.6487
vn -0.6768 -0.2898 0.6768
vn 0.0000 -0.4635 0.8861
vn 0.5212 -0.4039 0.7518
vn -0.5212 -0.4039 0.7518
vn 0.6768 -0.2898 0.6768
vn 0.8861 -0.4635 -0.0000
vn 0.6768 -0.2898 -0.6768
vn 0.0000 -0.4635 -0.8861
vn -0.6768 -0.2898 -0.6768
vn -0.8861 -0.4635 -0.0000
vn 0.0000 -1.0000 -0.0000
vn 0.6647 0.6493 0.3696
vn -0.6647 0.6493 0.3696
vn -0.5642 0.7418 0.3626
vn -0.5815 -0.3677 0.7257
vn 0.5815 -0.3677 0.7257
vn 0.5642 0.7418 0.3626
# 28 vertex normals

vt 0.9913 0.6008 0.0000
vt 0.9162 0.6529 0.0000
vt 0.9162 0.6321 0.0000
vt 0.9162 0.6112 0.0000
vt 0.9162 0.5903 0.0000
vt 0.9162 0.5694 0.0000
vt 0.9162 0.5486 0.0000
vt 0.5795 0.3762 0.0000
vt 0.5274 0.3011 0.0000
vt 0.5482 0.3011 0.0000
vt 0.5691 0.3011 0.0000
vt 0.5900 0.3011 0.0000
vt 0.6108 0.3011 0.0000
vt 0.6317 0.3011 0.0000
vt 0.6156 0.3303 0.0000
vt 0.6908 0.2781 0.0000
vt 0.6908 0.2990 0.0000
vt 0.6908 0.3199 0.0000
vt 0.6908 0.3407 0.0000
vt 0.6908 0.3616 0.0000
vt 0.6908 0.3825 0.0000
vt 0.3762 0.2667 0.0000
vt 0.3011 0.3189 0.0000
vt 0.3011 0.2980 0.0000
vt 0.3011 0.2771 0.0000
vt 0.3011 0.2562 0.0000
vt 0.3011 0.2354 0.0000
vt 0.3011 0.2145 0.0000
vt 0.8410 0.7051 0.0000
vt 0.8410 0.6634 0.0000
vt 0.8410 0.6216 0.0000
vt 0.8410 0.5799 0.0000
vt 0.8410 0.5381 0.0000
vt 0.8410 0.4964 0.0000
vt 0.4752 0.2259 0.0000
vt 0.5169 0.2259 0.0000
vt 0.5587 0.2259 0.0000
vt 0.6004 0.2259 0.0000
vt 0.6422 0.2259 0.0000
vt 0.6839 0.2259 0.0000
vt 0.7659 0.2260 0.0000
vt 0.7659 0.2677 0.0000
vt 0.7659 0.3094 0.0000
vt 0.7659 0.3512 0.0000
vt 0.7659 0.3929 0.0000
vt 0.7659 0.4347 0.0000
vt 0.2259 0.3710 0.0000
vt 0.2259 0.3293 0.0000
vt 0.2259 0.2875 0.0000
vt 0.2259 0.2458 0.0000
vt 0.2259 0.2041 0.0000
vt 0.2259 0.1623 0.0000
vt 0.7659 0.7573 0.0000
vt 0.7659 0.6947 0.0000
vt 0.7659 0.6321 0.0000
vt 0.7659 0.5694 0.0000
vt 0.7659 0.5068 0.0000
vt 0.7659 0.4442 0.0000
vt 0.4230 0.1508 0.0000
vt 0.4856 0.1508 0.0000
vt 0.5482 0.1508 0.0000
vt 0.6108 0.1508 0.0000
vt 0.6735 0.1508 0.0000
vt 0.7361 0.1508 0.0000
vt 0.8410 0.1738 0.0000
vt 0.8410 0.2364 0.0000
vt 0.8410 0.2990 0.0000
vt 0.8410 0.3616 0.0000
vt 0.8410 0.4242 0.0000
vt 0.8410 0.4868 0.0000
vt 0.1508 0.4232 0.0000
vt 0.1508 0.3606 0.0000
vt 0.1508 0.2980 0.0000
vt 0.1508 0.2354 0.0000
vt 0.1508 0.1728 0.0000
vt 0.1508 0.1102 0.0000
vt 0.7283 0.7834 0.0000
vt 0.7283 0.7103 0.0000
vt 0.7283 0.6373 0.0000
vt 0.7283 0.5642 0.0000
vt 0.7283 0.4912 0.0000
vt 0.7283 0.4181 0.0000
vt 0.3969 0.1132 0.0000
vt 0.4700 0.1132 0.0000
vt 0.5430 0.1132 0.0000
vt 0.6161 0.1132 0.0000
vt 0.6891 0.1132 0.0000
vt 0.7622 0.1132 0.0000
vt 0.8786 0.1477 0.0000
vt 0.8786 0.2207 0.0000
vt 0.8786 0.2938 0.0000
vt 0.8786 0.3668 0.0000
vt 0.8786 0.4399 0.0000
vt 0.8786 0.5129 0.0000
vt 0.1132 0.4493 0.0000
vt 0.1132 0.3762 0.0000
vt 0.1132 0.3032 0.0000
vt 0.1132 0.2302 0.0000
vt 0.1132 0.1571 0.0000
vt 0.1132 0.0841 0.0000
vt 0.6908 0.8095 0.0000
vt 0.6156 0.8616 0.0000
vt 0.6156 0.7573 0.0000
vt 0.6908 0.7260 0.0000
vt 0.6156 0.6529 0.0000
vt 0.6908 0.6425 0.0000
vt 0.6908 0.5590 0.0000
vt 0.6156 0.5486 0.0000
vt 0.6156 0.4442 0.0000
vt 0.6908 0.4755 0.0000
vt 0.6156 0.3399 0.0000
vt 0.6908 0.3921 0.0000
vt 0.3708 0.0756 0.0000
vt 0.3187 0.0005 0.0000
vt 0.4230 0.0005 0.0000
vt 0.4543 0.0756 0.0000
vt 0.5274 0.0005 0.0000
vt 0.5378 0.0756 0.0000
vt 0.6317 0.0005 0.0000
vt 0.6213 0.0756 0.0000
vt 0.7361 0.0005 0.0000
vt 0.7048 0.0756 0.0000
vt 0.8404 0.0005 0.0000
vt 0.7882 0.0756 0.0000
vt 0.9162 0.1216 0.0000
vt 0.9913 0.0694 0.0000
vt 0.9913 0.1738 0.0000
vt 0.9162 0.2051 0.0000
vt 0.9913 0.2781 0.0000
vt 0.9162 0.2886 0.0000
vt 0.9913 0.3825 0.0000
vt 0.9162 0.3721 0.0000
vt 0.9913 0.4868 0.0000
vt 0.9162 0.4555 0.0000
vt 0.9913 0.5912 0.0000
vt 0.9162 0.5390 0.0000
vt 0.0756 0.4754 0.0000
vt 0.0005 0.5276 0.0000
vt 0.0005 0.4232 0.0000
vt 0.0756 0.3919 0.0000
vt 0.0005 0.3189 0.0000
vt 0.0756 0.3084 0.0000
vt 0.0005 0.2145 0.0000
vt 0.0756 0.2249 0.0000
vt 0.0005 0.1102 0.0000
vt 0.0756 0.1415 0.0000
vt 0.0005 0.0058 0.0000
vt 0.0756 0.0580 0.0000
vt 0.0747 0.9995 0.0000
vt 0.3356 0.7386 0.0000
vt 0.1791 0.9995 0.0000
vt 0.4921 0.9995 0.0000
vt 0.5965 0.9995 0.0000
vt 0.5965 0.8951 0.0000
vt 0.5965 0.7908 0.0000
vt 0.5965 0.6864 0.0000
vt 0.5965 0.5821 0.0000
vt 0.5965 0.4777 0.0000
vt 0.4921 0.4777 0.0000
vt 0.3878 0.4777 0.0000
vt 0.2834 0.4777 0.0000
vt 0.1791 0.4777 0.0000
vt 0.0747 0.4777 0.0000
vt 0.0747 0.5821 0.0000
vt 0.0747 0.6864 0.0000
vt 0.0747 0.7908 0.0000
vt 0.0747 0.8951 0.0000
vt 0.1828 0.0893 0.0000
vt 0.1828 0.0058 0.0000
vt 0.3132 0.0058 0.0000
vt 0.3132 0.0893 0.0000
vt 0.2383 0.1658 0.0000
vt 0.1861 0.0906 0.0000
vt 0.3165 0.0906 0.0000
vt 0.3687 0.1658 0.0000
vt 0.4574 0.3369 0.0000
vt 0.3823 0.2847 0.0000
vt 0.3823 0.1543 0.0000
vt 0.4574 0.2065 0.0000
vt 0.3617 0.8691 0.0000
vt 0.3095 0.8691 0.0000
vt 0.7694 0.1065 0.0000
vt 0.8070 0.1013 0.0000
vt 0.8070 0.1847 0.0000
vt 0.7694 0.1795 0.0000
vt 0.9029 0.0372 0.0000
vt 0.9029 0.0894 0.0000
vt 0.9029 0.1155 0.0000
vt 0.8277 0.1050 0.0000
vt 0.8277 0.0215 0.0000
vt 0.9029 0.0111 0.0000
vt 0.2834 0.8691 0.0000
vt 0.2834 0.9995 0.0000
vt 0.3878 0.8691 0.0000
vt 0.3878 0.9995 0.0000
vt 0.3293 0.1702 0.0000
vt 0.3668 0.1963 0.0000
vt 0.3668 0.2566 0.0000
vt 0.3293 0.2305 0.0000
vt 0.1225 0.0893 0.0000
vt 0.1225 0.0058 0.0000
vt 0.4994 0.3259 0.0000
vt 0.4618 0.3520 0.0000
vt 0.4618 0.2917 0.0000
vt 0.4994 0.2656 0.0000
vt 0.7947 0.8509 0.0000
vt 0.7217 0.8509 0.0000
vt 0.7217 0.7906 0.0000
vt 0.7947 0.7906 0.0000
# 209 texture coords

o Gummy_Pyramid
g Gummy_Pyramid
usemtl wire_049103130
s 4
f 1/1/1 2/2/2 3/3/3 
f 1/1/1 3/3/3 4/4/3 
f 1/1/1 4/4/3 5/5/3 
f 1/1/1 5/5/3 6/6/3 
f 1/1/1 6/6/3 7/7/4 
s 2
f 1/8/1 7/9/4 8/10/5 
f 1/8/1 8/10/5 9/11/5 
f 1/8/1 9/11/5 10/12/5 
f 1/8/1 10/12/5 11/13/5 
f 1/8/1 11/13/5 12/14/6 
s 16
f 1/15/1 12/16/6 13/17/7 
f 1/15/1 13/17/7 14/18/7 
f 1/15/1 14/18/7 15/19/7 
f 1/15/1 15/19/7 16/20/7 
f 1/15/1 16/20/7 17/21/8 
s 32
f 1/22/1 17/23/8 18/24/9 
f 1/22/1 18/24/9 19/25/9 
f 1/22/1 19/25/9 20/26/9 
f 1/22/1 20/26/9 21/27/9 
f 1/22/1 21/27/9 2/28/2 
s 4
f 2/2/2 22/29/2 23/30/3 3/3/3 
f 3/3/3 23/30/3 24/31/3 4/4/3 
f 4/4/3 24/31/3 25/32/3 5/5/3 
f 5/5/3 25/32/3 26/33/3 6/6/3 
f 6/6/3 26/33/3 27/34/4 7/7/4 
s 2
f 7/9/4 27/35/4 28/36/5 8/10/5 
f 8/10/5 28/36/5 29/37/5 9/11/5 
f 9/11/5 29/37/5 30/38/5 10/12/5 
f 10/12/5 30/38/5 31/39/5 11/13/5 
f 11/13/5 31/39/5 32/40/6 12/14/6 
s 16
f 12/16/6 32/41/6 33/42/7 13/17/7 
f 13/17/7 33/42/7 34/43/7 14/18/7 
f 14/18/7 34/43/7 35/44/7 15/19/7 
f 15/19/7 35/44/7 36/45/7 16/20/7 
f 16/20/7 36/45/7 37/46/8 17/21/8 
s 32
f 17/23/8 37/47/8 38/48/9 18/24/9 
f 18/24/9 38/48/9 39/49/9 19/25/9 
f 19/25/9 39/49/9 40/50/9 20/26/9 
f 20/26/9 40/50/9 41/51/9 21/27/9 
f 21/27/9 41/51/9 22/52/2 2/28/2 
s 4
f 22/29/2 42/53/2 43/54/3 23/30/3 
f 23/30/3 43/54/3 44/55/3 24/31/3 
f 24/31/3 44/55/3 45/56/3 25/32/3 
f 25/32/3 45/56/3 46/57/3 26/33/3 
f 26/33/3 46/57/3 47/58/4 27/34/4 
s 2
f 27/35/4 47/59/4 48/60/5 28/36/5 
f 28/36/5 48/60/5 49/61/5 29/37/5 
f 29/37/5 49/61/5 50/62/5 30/38/5 
f 30/38/5 50/62/5 51/63/5 31/39/5 
f 31/39/5 51/63/5 52/64/6 32/40/6 
s 16
f 32/41/6 52/65/6 53/66/7 33/42/7 
f 33/42/7 53/66/7 54/67/7 34/43/7 
f 34/43/7 54/67/7 55/68/7 35/44/7 
f 35/44/7 55/68/7 56/69/7 36/45/7 
f 36/45/7 56/69/7 57/70/8 37/46/8 
s 32
f 37/47/8 57/71/8 58/72/9 38/48/9 
f 38/48/9 58/72/9 59/73/9 39/49/9 
f 39/49/9 59/73/9 60/74/9 40/50/9 
f 40/50/9 60/74/9 61/75/9 41/51/9 
f 41/51/9 61/75/9 42/76/2 22/52/2 
s 4
f 42/53/2 62/77/2 63/78/3 43/54/3 
f 43/54/3 63/78/3 64/79/10 44/55/3 
f 44/55/3 64/79/10 65/80/11 45/56/3 
f 45/56/3 65/80/11 66/81/3 46/57/3 
f 46/57/3 66/81/3 67/82/4 47/58/4 
s 2
f 47/59/4 67/83/4 68/84/5 48/60/5 
f 48/60/5 68/84/5 69/85/5 49/61/5 
f 49/61/5 69/85/5 70/86/5 50/62/5 
f 50/62/5 70/86/5 71/87/5 51/63/5 
f 51/63/5 71/87/5 72/88/6 52/64/6 
s 16
f 52/65/6 72/89/6 73/90/7 53/66/7 
f 53/66/7 73/90/7 74/91/7 54/67/7 
f 54/67/7 74/91/7 75/92/7 55/68/7 
f 55/68/7 75/92/7 76/93/7 56/69/7 
f 56/69/7 76/93/7 77/94/8 57/70/8 
s 32
f 57/71/8 77/95/8 78/96/9 58/72/9 
f 58/72/9 78/96/9 79/97/9 59/73/9 
f 59/73/9 79/97/9 80/98/9 60/74/9 
f 60/74/9 80/98/9 81/99/9 61/75/9 
f 61/75/9 81/99/9 62/100/2 42/76/2 
s 4
f 82/101/2 83/102/12 84/103/13 85/104/3 
f 85/104/3 84/103/13 86/105/14 87/106/13 
f 88/107/13 89/108/15 90/109/13 91/110/3 
f 91/110/3 90/109/13 92/111/16 93/112/4 
s 2
f 93/113/4 92/114/16 94/115/17 95/116/5 
f 95/116/5 94/115/17 96/117/17 97/118/5 
f 97/118/5 96/117/17 98/119/17 99/120/5 
f 99/120/5 98/119/17 100/121/17 101/122/5 
f 101/122/5 100/121/17 102/123/18 103/124/6 
s 16
f 103/125/6 102/126/18 104/127/19 105/128/7 
f 105/128/7 104/127/19 106/129/19 107/130/7 
f 107/130/7 106/129/19 108/131/19 109/132/7 
f 109/132/7 108/131/19 110/133/19 111/134/7 
f 111/134/7 110/133/19 112/135/20 113/136/8 
s 32
f 113/137/8 112/138/20 114/139/21 115/140/9 
f 115/140/9 114/139/21 116/141/21 117/142/9 
f 117/142/9 116/141/21 118/143/21 119/144/9 
f 119/144/9 118/143/21 120/145/21 121/146/9 
f 121/146/9 120/145/21 83/147/12 82/148/2 
s 8
f 83/149/12 122/150/22 84/151/13 
f 90/152/13 122/150/22 92/153/16 
f 92/153/16 122/150/22 94/154/17 
f 94/154/17 122/150/22 96/155/17 
f 96/155/17 122/150/22 98/156/17 
f 98/156/17 122/150/22 100/157/17 
f 100/157/17 122/150/22 102/158/18 
f 102/158/18 122/150/22 104/159/19 
f 104/159/19 122/150/22 106/160/19 
f 106/160/19 122/150/22 108/161/19 
f 108/161/19 122/150/22 110/162/19 
f 110/162/19 122/150/22 112/163/20 
f 112/163/20 122/150/22 114/164/21 
f 114/164/21 122/150/22 116/165/21 
f 116/165/21 122/150/22 118/166/21 
f 118/166/21 122/150/22 120/167/21 
f 120/167/21 122/150/22 83/149/12 
s off
f 88/168/13 87/169/13 123/170/14 124/171/15 
f 87/172/13 86/173/14 125/174/23 123/175/14 
f 89/176/15 88/177/13 124/178/15 126/179/24 
s 8
f 127/180/13 128/181/13 122/150/22 
s 4
f 62/77/2 82/101/2 85/104/3 63/78/3 
f 63/78/3 85/104/3 87/106/13 64/79/10 
f 129/182/25 130/183/26 131/184/27 132/185/28 
f 65/80/11 88/107/13 91/110/3 66/81/3 
f 66/81/3 91/110/3 93/112/4 67/82/4 
s 2
f 67/83/4 93/113/4 95/116/5 68/84/5 
f 68/84/5 95/116/5 97/118/5 69/85/5 
f 69/85/5 97/118/5 99/120/5 70/86/5 
f 70/86/5 99/120/5 101/122/5 71/87/5 
f 71/87/5 101/122/5 103/124/6 72/88/6 
s 16
f 72/89/6 103/125/6 105/128/7 73/90/7 
f 73/90/7 105/128/7 107/130/7 74/91/7 
f 74/91/7 107/130/7 109/132/7 75/92/7 
f 75/92/7 109/132/7 111/134/7 76/93/7 
f 76/93/7 111/134/7 113/136/8 77/94/8 
s 32
f 77/95/8 113/137/8 115/140/9 78/96/9 
f 78/96/9 115/140/9 117/142/9 79/97/9 
f 79/97/9 117/142/9 119/144/9 80/98/9 
f 80/98/9 119/144/9 121/146/9 81/99/9 
f 81/99/9 121/146/9 82/148/2 62/100/2 
s 4
f 128/186/13 127/187/13 126/188/24 124/189/15 123/190/14 125/191/23 
s 8
f 125/192/23 86/193/14 84/151/13 122/150/22 128/181/13 
f 126/194/24 127/180/13 122/150/22 90/152/13 89/195/15 
s off
f 64/196/10 87/197/13 130/198/26 129/199/25 
f 87/169/13 88/168/13 131/200/27 130/201/26 
f 88/202/13 65/203/11 132/204/28 131/205/27 
f 65/206/11 64/207/10 129/208/25 132/209/28 
# 109 polygons - 38 triangles

