# 3ds Max Wavefront OBJ Exporter v0.99 - (c)2007 guruware
# File Created: 03.09.2025 10:59:38

mtllib Licorice  Hut.mtl

#
# object Licorice__Hut
#

v  109.9981 17.0040 -112.1089
v  109.9981 17.0040 -178.3175
v  203.0338 17.0040 -178.3175
v  203.0338 17.0040 -112.1089
v  109.9981 25.6372 -112.1089
v  203.0338 25.6372 -112.1089
v  203.0338 25.6372 -178.3175
v  109.9981 25.6372 -178.3175
v  109.9981 42.7630 -112.1089
v  109.9981 42.7630 -178.3175
v  203.0338 42.7630 -178.3175
v  203.0338 42.7630 -112.1089
v  109.9981 51.3962 -112.1089
v  203.0338 51.3962 -112.1089
v  203.0338 51.3962 -178.3175
v  109.9981 51.3962 -178.3175
v  150.5040 67.2923 -133.5036
v  150.5040 67.2923 -151.9689
v  166.4957 67.2923 -151.9689
v  166.4957 67.2923 -133.5036
v  153.0397 74.7726 -136.4315
v  163.9600 74.7726 -136.4315
v  163.9600 74.7726 -149.0410
v  153.0397 74.7726 -149.0410
v  163.9600 72.0873 -136.4315
v  153.0397 72.0873 -136.4315
v  163.9600 72.0873 -149.0410
v  153.0397 72.0873 -149.0410
v  137.6844 56.5555 -118.7010
v  137.6844 56.5555 -166.7714
v  179.3152 56.5555 -166.7714
v  179.3152 56.5555 -118.7010
v  144.2855 67.7397 -126.3232
v  172.7141 67.7397 -126.3232
v  172.7141 67.7397 -159.1492
v  144.2855 67.7397 -159.1492
v  124.7258 50.5357 -118.7010
v  124.7258 50.5357 -166.7714
v  192.2739 50.5357 -166.7714
v  192.2739 50.5357 -118.7010
v  124.7258 56.8038 -118.7010
v  192.2739 56.8038 -118.7010
v  192.2739 56.8038 -166.7714
v  124.7258 56.8038 -166.7714
v  143.7453 42.8129 -114.7254
v  203.0275 42.8129 -114.7254
v  203.0275 42.8129 -171.9132
v  143.7453 42.8129 -171.9132
v  143.7453 25.5921 -114.7254
v  143.7453 25.5921 -171.9132
v  203.0275 25.5921 -171.9132
v  203.0275 25.5921 -114.7254
v  173.3260 39.0611 -119.2969
v  173.3260 33.6079 -119.2969
v  180.7149 33.6079 -119.2969
v  180.7149 39.0611 -119.2969
v  114.4656 42.7404 -143.3204
v  143.8356 42.7404 -143.3204
v  143.8356 42.7404 -171.6528
v  114.4656 42.7404 -171.6528
v  114.4656 25.5832 -143.3204
v  114.4656 25.5832 -171.6528
v  143.8356 25.5832 -171.6528
v  143.8356 25.5832 -143.3204
v  122.1150 39.2874 -148.6935
v  122.1150 33.5735 -148.6935
v  131.8961 33.5735 -148.6935
v  131.8961 39.2874 -148.6935
v  195.9866 20.5491 -169.6039
v  201.3143 20.5491 -169.6039
v  201.3143 20.5491 -176.3085
v  195.9866 20.5491 -176.3085
v  195.9866 0.5518 -169.6039
v  195.9866 0.5518 -176.3085
v  201.3143 0.5518 -176.3085
v  201.3143 0.5518 -169.6039
v  111.2297 20.5491 -169.6039
v  116.5573 20.5491 -169.6039
v  116.5573 20.5491 -176.3085
v  111.2297 20.5491 -176.3085
v  111.2297 0.5518 -169.6039
v  111.2297 0.5518 -176.3085
v  116.5573 0.5518 -176.3085
v  116.5573 0.5518 -169.6039
v  195.9866 20.5491 -112.9913
v  201.3143 20.5491 -112.9913
v  201.3143 20.5491 -119.6959
v  195.9866 20.5491 -119.6959
v  195.9866 0.5518 -112.9913
v  195.9866 0.5518 -119.6959
v  201.3143 0.5518 -119.6959
v  201.3143 0.5518 -112.9913
v  111.2297 20.5491 -114.6928
v  116.5573 20.5491 -114.6928
v  116.5573 20.5491 -121.3974
v  111.2297 20.5491 -121.3974
v  111.2297 0.5518 -114.6928
v  111.2297 0.5518 -121.3974
v  116.5573 0.5518 -121.3974
v  116.5573 0.5518 -114.6928
v  122.1150 39.2874 -143.3204
v  131.8961 39.2874 -143.3204
v  122.1150 33.5735 -143.3204
v  131.8961 33.5735 -143.3204
v  173.3260 39.0611 -114.7254
v  180.7149 39.0611 -114.7254
v  173.3260 33.6079 -114.7254
v  180.7149 33.6079 -114.7254
# 108 vertices

vn -0.5774 -0.5774 0.5774
vn -0.5774 -0.5774 -0.5774
vn 0.5774 -0.5774 -0.5774
vn 0.5774 -0.5774 0.5774
vn -0.5774 0.5774 0.5774
vn 0.5774 0.5774 0.5774
vn 0.5774 0.5774 -0.5774
vn -0.5774 0.5774 -0.5774
vn -0.6589 -0.3257 0.6781
vn -0.6589 -0.3257 -0.6781
vn 0.6589 -0.3257 -0.6781
vn 0.6589 -0.3257 0.6781
vn 0.6627 0.3912 0.6386
vn -0.6627 0.3912 0.6386
vn 0.6627 0.3912 -0.6386
vn -0.6627 0.3912 -0.6386
vn -0.6630 -0.3058 0.6833
vn -0.6630 -0.3058 -0.6833
vn 0.6630 -0.3058 -0.6833
vn 0.6630 -0.3058 0.6833
vn -0.4011 0.8376 0.3708
vn 0.4011 0.8376 0.3708
vn 0.4011 0.8376 -0.3708
vn -0.4011 0.8376 -0.3708
vn 0.3015 -0.3015 0.9045
vn -0.3015 -0.3015 0.9045
vn 0.3015 0.3015 0.9045
vn -0.3015 0.3015 0.9045
# 28 vertex normals

vt 0.3611 0.2928 0.0000
vt 0.3611 0.0427 0.0000
vt 0.7126 0.0427 0.0000
vt 0.7126 0.2928 0.0000
vt 0.2881 0.2956 0.0000
vt 0.2881 0.6471 0.0000
vt 0.0380 0.6471 0.0000
vt 0.0380 0.2956 0.0000
vt 0.0331 0.2909 0.0000
vt 0.0331 0.6424 0.0000
vt 0.0005 0.6424 0.0000
vt 0.0005 0.2909 0.0000
vt 0.3003 0.5859 0.0000
vt 0.5504 0.5859 0.0000
vt 0.5504 0.6186 0.0000
vt 0.3003 0.6186 0.0000
vt 0.0052 0.2534 0.0000
vt 0.3567 0.2534 0.0000
vt 0.3567 0.2860 0.0000
vt 0.0052 0.2860 0.0000
vt 0.9324 0.0380 0.0000
vt 0.9324 0.2881 0.0000
vt 0.8998 0.2881 0.0000
vt 0.8998 0.0380 0.0000
vt 0.3003 0.5457 0.0000
vt 0.3003 0.2956 0.0000
vt 0.6517 0.2956 0.0000
vt 0.6517 0.5457 0.0000
vt 0.0052 0.0005 0.0000
vt 0.3567 0.0005 0.0000
vt 0.3567 0.2506 0.0000
vt 0.0052 0.2506 0.0000
vt 0.3611 0.0005 0.0000
vt 0.7126 0.0005 0.0000
vt 0.7126 0.0331 0.0000
vt 0.3611 0.0331 0.0000
vt 0.0380 0.6515 0.0000
vt 0.2881 0.6515 0.0000
vt 0.2881 0.6841 0.0000
vt 0.0380 0.6841 0.0000
vt 0.3003 0.5485 0.0000
vt 0.6517 0.5485 0.0000
vt 0.6517 0.5811 0.0000
vt 0.3003 0.5811 0.0000
vt 0.8715 0.3049 0.0000
vt 0.8715 0.5551 0.0000
vt 0.8389 0.5551 0.0000
vt 0.8389 0.3049 0.0000
vt 0.9227 0.6276 0.0000
vt 0.8529 0.6276 0.0000
vt 0.8529 0.5672 0.0000
vt 0.9227 0.5672 0.0000
vt 0.7218 0.9419 0.0000
vt 0.7630 0.9419 0.0000
vt 0.7630 0.9895 0.0000
vt 0.7218 0.9895 0.0000
vt 0.2864 0.7780 0.0000
vt 0.2864 0.8384 0.0000
vt 0.2682 0.8288 0.0000
vt 0.2682 0.7876 0.0000
vt 0.9372 0.7072 0.0000
vt 0.9372 0.6375 0.0000
vt 0.9553 0.6485 0.0000
vt 0.9553 0.6962 0.0000
vt 0.8061 0.9419 0.0000
vt 0.8665 0.9419 0.0000
vt 0.8569 0.9600 0.0000
vt 0.8157 0.9600 0.0000
vt 0.9513 0.4543 0.0000
vt 0.9513 0.3846 0.0000
vt 0.9694 0.3956 0.0000
vt 0.9694 0.4433 0.0000
vt 0.2581 0.8288 0.0000
vt 0.2581 0.7876 0.0000
vt 0.9655 0.6485 0.0000
vt 0.9655 0.6962 0.0000
vt 0.8569 0.9702 0.0000
vt 0.8157 0.9702 0.0000
vt 0.9795 0.3956 0.0000
vt 0.9795 0.4433 0.0000
vt 0.5906 0.7722 0.0000
vt 0.5906 0.5906 0.0000
vt 0.7479 0.5906 0.0000
vt 0.7479 0.7722 0.0000
vt 0.6210 0.8482 0.0000
vt 0.6210 0.9556 0.0000
vt 0.4970 0.9556 0.0000
vt 0.4970 0.8482 0.0000
vt 0.8763 0.4622 0.0000
vt 0.8763 0.3049 0.0000
vt 0.9186 0.3299 0.0000
vt 0.9186 0.4373 0.0000
vt 0.5953 0.7733 0.0000
vt 0.7769 0.7733 0.0000
vt 0.7481 0.8155 0.0000
vt 0.6241 0.8155 0.0000
vt 0.9372 0.1953 0.0000
vt 0.9372 0.0380 0.0000
vt 0.9795 0.0629 0.0000
vt 0.9795 0.1703 0.0000
vt 0.8061 0.7535 0.0000
vt 0.8061 0.5719 0.0000
vt 0.8483 0.6007 0.0000
vt 0.8483 0.7247 0.0000
vt 0.6562 0.3049 0.0000
vt 0.8378 0.3049 0.0000
vt 0.8378 0.5601 0.0000
vt 0.6562 0.5601 0.0000
vt 0.8987 0.0380 0.0000
vt 0.8987 0.2932 0.0000
vt 0.7171 0.2932 0.0000
vt 0.7171 0.0380 0.0000
vt 0.7171 0.0005 0.0000
vt 0.9723 0.0005 0.0000
vt 0.9723 0.0242 0.0000
vt 0.7171 0.0242 0.0000
vt 0.8017 0.5719 0.0000
vt 0.8017 0.7535 0.0000
vt 0.7780 0.7535 0.0000
vt 0.7780 0.5719 0.0000
vt 0.0242 0.6468 0.0000
vt 0.0242 0.9020 0.0000
vt 0.0005 0.9020 0.0000
vt 0.0005 0.6468 0.0000
vt 0.7736 0.5719 0.0000
vt 0.7736 0.7535 0.0000
vt 0.7499 0.7535 0.0000
vt 0.7499 0.5719 0.0000
vt 0.0286 0.6937 0.0000
vt 0.2526 0.6937 0.0000
vt 0.2526 0.9097 0.0000
vt 0.0286 0.9097 0.0000
vt 0.2909 0.8442 0.0000
vt 0.2909 0.6281 0.0000
vt 0.5149 0.6281 0.0000
vt 0.5149 0.8442 0.0000
vt 0.7920 0.7845 0.0000
vt 0.7920 0.7639 0.0000
vt 0.8199 0.7639 0.0000
vt 0.8199 0.7845 0.0000
vt 0.5204 0.6281 0.0000
vt 0.5854 0.6281 0.0000
vt 0.5854 0.8442 0.0000
vt 0.5204 0.8442 0.0000
vt 0.0005 0.9789 0.0000
vt 0.0005 0.9138 0.0000
vt 0.2245 0.9138 0.0000
vt 0.2245 0.9789 0.0000
vt 0.2347 0.9835 0.0000
vt 0.2347 0.9185 0.0000
vt 0.4507 0.9185 0.0000
vt 0.4507 0.9835 0.0000
vt 0.8763 0.8810 0.0000
vt 0.9873 0.8810 0.0000
vt 0.9873 0.9881 0.0000
vt 0.8763 0.9881 0.0000
vt 0.6234 0.8295 0.0000
vt 0.7305 0.8295 0.0000
vt 0.7305 0.9405 0.0000
vt 0.6234 0.9405 0.0000
vt 0.7686 0.7873 0.0000
vt 0.7902 0.7873 0.0000
vt 0.7902 0.8243 0.0000
vt 0.7686 0.8243 0.0000
vt 0.8763 0.8709 0.0000
vt 0.8763 0.8061 0.0000
vt 0.9834 0.8061 0.0000
vt 0.9834 0.8709 0.0000
vt 0.8061 0.8295 0.0000
vt 0.8709 0.8295 0.0000
vt 0.8709 0.9405 0.0000
vt 0.8061 0.9405 0.0000
vt 0.8435 0.7960 0.0000
vt 0.8435 0.7311 0.0000
vt 0.9506 0.7311 0.0000
vt 0.9506 0.7960 0.0000
vt 0.4642 0.9466 0.0000
vt 0.4843 0.9466 0.0000
vt 0.4843 0.9719 0.0000
vt 0.4642 0.9719 0.0000
vt 0.9794 0.0258 0.0000
vt 0.9794 0.0005 0.0000
vt 0.9995 0.0005 0.0000
vt 0.9995 0.0258 0.0000
vt 0.9372 0.2821 0.0000
vt 0.9372 0.2066 0.0000
vt 0.9573 0.2066 0.0000
vt 0.9573 0.2821 0.0000
vt 0.8529 0.7177 0.0000
vt 0.8529 0.6422 0.0000
vt 0.8782 0.6422 0.0000
vt 0.8782 0.7177 0.0000
vt 0.2581 0.7692 0.0000
vt 0.2581 0.6937 0.0000
vt 0.2782 0.6937 0.0000
vt 0.2782 0.7692 0.0000
vt 0.9560 0.7926 0.0000
vt 0.9560 0.7171 0.0000
vt 0.9813 0.7171 0.0000
vt 0.9813 0.7926 0.0000
vt 0.8435 0.8014 0.0000
vt 0.8637 0.8014 0.0000
vt 0.8637 0.8267 0.0000
vt 0.8435 0.8267 0.0000
vt 0.5953 0.8455 0.0000
vt 0.5953 0.8201 0.0000
vt 0.6154 0.8201 0.0000
vt 0.6154 0.8455 0.0000
vt 0.4970 0.9606 0.0000
vt 0.5725 0.9606 0.0000
vt 0.5725 0.9808 0.0000
vt 0.4970 0.9808 0.0000
vt 0.9513 0.3711 0.0000
vt 0.9513 0.2956 0.0000
vt 0.9766 0.2956 0.0000
vt 0.9766 0.3711 0.0000
vt 0.6328 0.9419 0.0000
vt 0.7083 0.9419 0.0000
vt 0.7083 0.9620 0.0000
vt 0.6328 0.9620 0.0000
vt 0.6656 0.5625 0.0000
vt 0.7411 0.5625 0.0000
vt 0.7411 0.5879 0.0000
vt 0.6656 0.5879 0.0000
vt 0.5859 0.9606 0.0000
vt 0.6061 0.9606 0.0000
vt 0.6061 0.9860 0.0000
vt 0.5859 0.9860 0.0000
vt 0.9560 0.4782 0.0000
vt 0.9813 0.4782 0.0000
vt 0.9813 0.4984 0.0000
vt 0.9560 0.4984 0.0000
vt 0.6328 0.9653 0.0000
vt 0.7083 0.9653 0.0000
vt 0.7083 0.9854 0.0000
vt 0.6328 0.9854 0.0000
vt 0.8810 0.7177 0.0000
vt 0.8810 0.6422 0.0000
vt 0.9063 0.6422 0.0000
vt 0.9063 0.7177 0.0000
vt 0.8763 0.5491 0.0000
vt 0.8763 0.4735 0.0000
vt 0.8965 0.4735 0.0000
vt 0.8965 0.5491 0.0000
vt 0.9091 0.7177 0.0000
vt 0.9091 0.6422 0.0000
vt 0.9344 0.6422 0.0000
vt 0.9344 0.7177 0.0000
vt 0.9813 0.4548 0.0000
vt 0.9813 0.4749 0.0000
vt 0.9560 0.4749 0.0000
vt 0.9560 0.4548 0.0000
vt 0.9232 0.5036 0.0000
vt 0.9232 0.4782 0.0000
vt 0.9433 0.4782 0.0000
vt 0.9433 0.5036 0.0000
vt 0.9199 0.4501 0.0000
vt 0.9199 0.5257 0.0000
vt 0.8998 0.5257 0.0000
vt 0.8998 0.4501 0.0000
vt 0.9232 0.3758 0.0000
vt 0.9232 0.3003 0.0000
vt 0.9485 0.3003 0.0000
vt 0.9485 0.3758 0.0000
vt 0.9606 0.2587 0.0000
vt 0.9606 0.1832 0.0000
vt 0.9808 0.1832 0.0000
vt 0.9808 0.2587 0.0000
vt 0.9232 0.4648 0.0000
vt 0.9232 0.3892 0.0000
vt 0.9485 0.3892 0.0000
vt 0.9485 0.4648 0.0000
vt 0.7358 0.9405 0.0000
vt 0.7358 0.8295 0.0000
vt 0.7489 0.8584 0.0000
vt 0.7489 0.8954 0.0000
vt 0.8006 0.8295 0.0000
vt 0.7705 0.8584 0.0000
vt 0.8006 0.9405 0.0000
vt 0.7705 0.8954 0.0000
vt 0.8430 0.9950 0.0000
vt 0.8061 0.9950 0.0000
vt 0.8061 0.9747 0.0000
vt 0.8430 0.9747 0.0000
vt 0.4858 0.9950 0.0000
vt 0.4642 0.9950 0.0000
vt 0.4642 0.9747 0.0000
vt 0.4858 0.9747 0.0000
vt 0.4548 0.9232 0.0000
vt 0.4918 0.9232 0.0000
vt 0.4918 0.9435 0.0000
vt 0.4548 0.9435 0.0000
vt 0.9528 0.5063 0.0000
vt 0.9528 0.5279 0.0000
vt 0.9325 0.5279 0.0000
vt 0.9325 0.5063 0.0000
vt 0.4868 0.9133 0.0000
vt 0.2628 0.9133 0.0000
vt 0.3745 0.8991 0.0000
vt 0.4025 0.8991 0.0000
vt 0.2628 0.8482 0.0000
vt 0.3745 0.8785 0.0000
vt 0.4868 0.8482 0.0000
vt 0.4025 0.8785 0.0000
vt 0.5625 0.6139 0.0000
vt 0.5625 0.5859 0.0000
vt 0.5798 0.5859 0.0000
vt 0.5798 0.6139 0.0000
vt 0.9560 0.0286 0.0000
vt 0.9766 0.0286 0.0000
vt 0.9766 0.0459 0.0000
vt 0.9560 0.0459 0.0000
vt 0.8201 0.5625 0.0000
vt 0.8480 0.5625 0.0000
vt 0.8480 0.5798 0.0000
vt 0.8201 0.5798 0.0000
vt 0.9157 0.3128 0.0000
vt 0.8951 0.3128 0.0000
vt 0.8951 0.2956 0.0000
vt 0.9157 0.2956 0.0000
# 320 texture coords

o Licorice__Hut
g Licorice__Hut
usemtl wire_085015009
s 2
f 1/1/1 2/2/2 3/3/3 4/4/4 
s 4
f 5/5/5 6/6/6 7/7/7 8/8/8 
s 8
f 1/9/1 4/10/4 6/11/6 5/12/5 
s 16
f 4/13/4 3/14/3 7/15/7 6/16/6 
s 32
f 3/17/3 2/18/2 8/19/8 7/20/7 
s 64
f 2/21/2 1/22/1 5/23/5 8/24/8 
s 2
f 9/25/1 10/26/2 11/27/3 12/28/4 
s 4
f 13/29/5 14/30/6 15/31/7 16/32/8 
s 8
f 9/33/1 12/34/4 14/35/6 13/36/5 
s 16
f 12/37/4 11/38/3 15/39/7 14/40/6 
s 32
f 11/41/3 10/42/2 16/43/8 15/44/7 
s 64
f 10/45/2 9/46/1 13/47/5 16/48/8 
s 2
f 17/49/9 18/50/10 19/51/11 20/52/12 
s 4
f 21/53/5 22/54/6 23/55/7 24/56/8 
s 8
f 17/57/9 20/58/12 25/59/13 26/60/14 
s 16
f 20/61/12 19/62/11 27/63/15 25/64/13 
s 32
f 19/65/11 18/66/10 28/67/16 27/68/15 
s 64
f 18/69/10 17/70/9 26/71/14 28/72/16 
s off
f 26/60/14 25/59/13 22/73/6 21/74/5 
f 25/64/13 27/63/15 23/75/7 22/76/6 
f 27/68/15 28/67/16 24/77/8 23/78/7 
f 28/72/16 26/71/14 21/79/5 24/80/8 
s 2
f 29/81/17 30/82/18 31/83/19 32/84/20 
s 4
f 33/85/21 34/86/22 35/87/23 36/88/24 
s 8
f 29/89/17 32/90/20 34/91/22 33/92/21 
s 16
f 32/93/20 31/94/19 35/95/23 34/96/22 
s 32
f 31/97/19 30/98/18 36/99/24 35/100/23 
s 64
f 30/101/18 29/102/17 33/103/21 36/104/24 
s 2
f 37/105/1 38/106/2 39/107/3 40/108/4 
s 4
f 41/109/5 42/110/6 43/111/7 44/112/8 
s 8
f 37/113/1 40/114/4 42/115/6 41/116/5 
s 16
f 40/117/4 39/118/3 43/119/7 42/120/6 
s 32
f 39/121/3 38/122/2 44/123/8 43/124/7 
s 64
f 38/125/2 37/126/1 41/127/5 44/128/8 
s 2
f 45/129/5 46/130/6 47/131/7 48/132/8 
s 4
f 49/133/1 50/134/2 51/135/3 52/136/4 
s 8
f 53/137/4 54/138/6 55/139/5 56/140/1 
s 16
f 46/141/6 52/142/4 51/143/3 47/144/7 
s 32
f 47/145/7 51/146/3 50/147/2 48/148/8 
s 64
f 48/149/8 50/150/2 49/151/1 45/152/5 
s 2
f 57/153/5 58/154/6 59/155/7 60/156/8 
s 4
f 61/157/1 62/158/2 63/159/3 64/160/4 
s 8
f 65/161/4 66/162/6 67/163/5 68/164/1 
s 16
f 58/165/6 64/166/4 63/167/3 59/168/7 
s 32
f 59/169/7 63/170/3 62/171/2 60/172/8 
s 64
f 60/173/8 62/174/2 61/175/1 57/176/5 
s 2
f 69/177/5 70/178/6 71/179/7 72/180/8 
s 4
f 73/181/1 74/182/2 75/183/3 76/184/4 
s 8
f 69/185/5 73/186/1 76/187/4 70/188/6 
s 16
f 70/189/6 76/190/4 75/191/3 71/192/7 
s 32
f 71/193/7 75/194/3 74/195/2 72/196/8 
s 64
f 72/197/8 74/198/2 73/199/1 69/200/5 
s 2
f 77/201/5 78/202/6 79/203/7 80/204/8 
s 4
f 81/205/1 82/206/2 83/207/3 84/208/4 
s 8
f 77/209/5 81/210/1 84/211/4 78/212/6 
s 16
f 78/213/6 84/214/4 83/215/3 79/216/7 
s 32
f 79/217/7 83/218/3 82/219/2 80/220/8 
s 64
f 80/221/8 82/222/2 81/223/1 77/224/5 
s 2
f 85/225/5 86/226/6 87/227/7 88/228/8 
s 4
f 89/229/1 90/230/2 91/231/3 92/232/4 
s 8
f 85/233/5 89/234/1 92/235/4 86/236/6 
s 16
f 86/237/6 92/238/4 91/239/3 87/240/7 
s 32
f 87/241/7 91/242/3 90/243/2 88/244/8 
s 64
f 88/245/8 90/246/2 89/247/1 85/248/5 
s 2
f 93/249/5 94/250/6 95/251/7 96/252/8 
s 4
f 97/253/1 98/254/2 99/255/3 100/256/4 
s 8
f 93/257/5 97/258/1 100/259/4 94/260/6 
s 16
f 94/261/6 100/262/4 99/263/3 95/264/7 
s 32
f 95/265/7 99/266/3 98/267/2 96/268/8 
s 64
f 96/269/8 98/270/2 97/271/1 93/272/5 
s 8
f 58/273/6 57/274/5 101/275/25 102/276/26 
f 57/274/5 61/277/1 103/278/27 101/275/25 
f 61/277/1 64/279/4 104/280/28 103/278/27 
f 64/279/4 58/273/6 102/276/26 104/280/28 
s off
f 102/281/26 101/282/25 65/283/4 68/284/1 
f 101/285/25 103/286/27 66/287/6 65/288/4 
f 103/289/27 104/290/28 67/291/5 66/292/6 
f 104/293/28 102/294/26 68/295/1 67/296/5 
s 8
f 46/297/6 45/298/5 105/299/25 106/300/26 
f 45/298/5 49/301/1 107/302/27 105/299/25 
f 49/301/1 52/303/4 108/304/28 107/302/27 
f 52/303/4 46/297/6 106/300/26 108/304/28 
s off
f 106/305/26 105/306/25 53/307/4 56/308/1 
f 105/309/25 107/310/27 54/311/6 53/312/4 
f 107/313/27 108/314/28 55/315/5 54/316/6 
f 108/317/28 106/318/26 56/319/1 55/320/5 
# 86 polygons

