# 3ds Max Wavefront OBJ Exporter v0.99 - (c)2007 guruware
# File Created: 03.09.2025 10:58:13

mtllib Marshmallow Well.mtl

#
# object Marshmallow_Well
#

v  -214.4027 0.0000 100.2212
v  -212.3530 0.0000 98.1716
v  -211.5040 0.0000 100.2212
v  -212.3530 0.0000 102.2709
v  -214.4027 0.0000 97.3226
v  -210.3034 0.0000 96.1219
v  -208.6054 0.0000 100.2212
v  -214.4027 0.0000 103.1199
v  -210.3034 0.0000 104.3205
v  -216.4524 0.0000 98.1716
v  -214.4027 0.0000 94.4239
v  -210.3034 2.8249 96.1219
v  -208.6054 2.8249 100.2212
v  -216.4524 0.0000 102.2709
v  -214.4027 0.0000 106.0185
v  -210.3034 2.8249 104.3205
v  -217.3014 0.0000 100.2212
v  -218.5020 0.0000 96.1219
v  -214.4027 2.8249 94.4239
v  -210.3034 5.6498 96.1219
v  -208.6054 5.6498 100.2212
v  -218.5020 0.0000 104.3205
v  -214.4027 2.8249 106.0185
v  -210.3034 5.6498 104.3205
v  -220.2000 0.0000 100.2212
v  -218.5020 2.8249 96.1219
v  -214.4027 5.6498 94.4239
v  -210.3034 8.4747 96.1219
v  -218.5020 2.8249 104.3205
v  -214.4027 5.6498 106.0185
v  -208.6450 8.4747 100.2504
v  -210.3107 8.4747 104.2719
v  -220.2000 2.8249 100.2212
v  -218.5020 5.6498 96.1219
v  -214.4027 8.4747 94.4239
v  -218.5020 5.6498 104.3205
v  -209.6087 8.4747 100.9606
v  -210.4900 8.4747 103.0883
v  -220.2000 5.6498 100.2212
v  -218.5020 8.4747 96.1219
v  -214.4027 8.4747 97.3226
v  -212.3530 8.4747 98.1716
v  -211.4886 8.4747 100.2504
v  -214.4027 8.4747 106.0185
v  -218.5020 8.4747 104.3205
v  -212.3215 8.4747 102.2612
v  -211.5539 8.4747 102.0244
v  -211.1132 8.4747 100.9606
v  -209.6087 16.0561 100.9606
v  -210.4900 16.0561 103.0883
v  -220.2000 8.4747 100.2212
v  -216.4524 8.4747 98.1716
v  -214.4027 3.9697 97.3226
v  -212.3530 3.9697 98.1716
v  -211.5040 3.9697 100.2212
v  -214.4027 8.4747 103.1199
v  -216.4524 8.4747 102.2709
v  -211.5539 16.0561 102.0244
v  -211.1132 16.0561 100.9606
v  -219.1537 8.4747 99.4502
v  -218.3074 8.4747 97.4069
v  -217.2857 8.4747 98.4286
v  -216.4524 3.9697 98.1716
v  -214.4027 3.9697 100.2212
v  -212.3530 3.9697 102.2709
v  -217.3014 8.4747 100.2212
v  -214.4027 3.9697 103.1199
v  -216.4524 3.9697 102.2709
v  -217.7089 8.4747 99.4502
v  -219.1537 16.0844 99.4502
v  -218.3074 16.0844 97.4069
v  -217.2857 16.0844 98.4286
v  -217.3014 3.9697 100.2212
v  -217.7089 16.0844 99.4502
v  -223.1279 16.0531 104.3127
v  -221.4225 16.0531 99.8372
v  -217.5123 16.0531 101.3272
v  -219.2176 16.0531 105.8027
v  -217.4752 21.4860 103.4985
v  -219.8758 21.4860 102.5837
v  -218.8288 21.4860 99.8361
v  -213.6020 16.0531 102.8171
v  -215.3074 16.0531 107.2927
v  -215.0746 21.4860 104.4132
v  -217.5123 21.4860 101.3272
v  -219.7172 16.0531 95.3617
v  -217.7819 21.4860 97.0885
v  -218.0119 16.0531 90.8861
v  -214.1016 16.0531 92.3761
v  -215.8069 16.0531 96.8516
v  -211.8967 16.0531 98.3416
v  -209.6918 16.0531 104.3071
v  -211.3971 16.0531 108.7826
v  -212.6740 21.4860 105.3279
v  -213.6020 21.4860 102.8171
v  -215.8069 21.4860 96.8516
v  -216.7349 21.4860 94.3409
v  -214.3344 21.4860 95.2556
v  -210.1913 16.0531 93.8660
v  -211.6271 21.4860 102.5803
v  -211.8967 21.4860 98.3416
v  -211.9338 21.4860 96.1703
v  -206.2811 16.0531 95.3560
v  -207.9864 16.0531 99.8315
v  -210.5801 21.4860 99.8326
v  -209.5332 21.4860 97.0850
# 106 vertices

vn 0.0000 -1.0000 -0.0000
vn 0.5490 -0.6303 -0.5490
vn 0.7763 -0.6303 -0.0000
vn 0.5489 -0.6303 0.5490
vn 0.0000 -0.6303 -0.7764
vn 0.7071 0.0000 -0.7071
vn 1.0000 0.0000 0.0000
vn -0.0000 -0.6303 0.7764
vn 0.7071 0.0000 0.7071
vn -0.5490 -0.6303 -0.5490
vn 0.0000 0.0000 -1.0000
vn 1.0000 0.0053 0.0004
vn -0.5490 -0.6303 0.5490
vn 0.0000 0.0000 1.0000
vn 0.7062 0.0070 0.7080
vn -0.7764 -0.6303 0.0000
vn -0.7071 0.0000 -0.7071
vn 0.0000 -0.0000 -1.0000
vn 0.5500 0.6304 -0.5479
vn -0.7071 0.0000 0.7071
vn 0.0017 0.0016 1.0000
vn 0.7714 0.6364 0.0061
vn 0.5484 0.6354 0.5436
vn -1.0000 0.0000 0.0000
vn 0.0000 0.6303 -0.7764
vn -0.7071 -0.0000 0.7071
vn 0.2690 0.9462 -0.1797
vn 0.0631 0.9462 0.3173
vn -1.0000 -0.0000 0.0000
vn -0.5490 0.6303 -0.5490
vn 0.0000 0.8042 0.5944
vn -0.4201 0.8040 0.4207
vn -0.5928 0.8053 -0.0005
vn 0.0042 0.6294 0.7771
vn -0.5490 0.6303 0.5490
vn -0.4196 0.8053 -0.4188
vn -0.5075 0.8557 0.1010
vn -0.2875 0.8557 -0.4302
vn 0.6888 0.5598 -0.4607
vn 0.1618 0.5597 0.8128
vn -0.7764 0.6303 0.0000
vn 0.4203 0.8042 0.4203
vn 0.0000 0.6303 0.7764
vn -0.7753 0.6315 0.0012
vn 0.0004 0.8040 -0.5946
vn 0.4203 0.8042 -0.4203
vn -0.7836 0.6013 0.1561
vn -0.4443 0.6015 -0.6640
vn -0.2690 0.9462 0.1797
vn -0.0631 0.9462 -0.3173
vn 0.5075 0.8557 -0.1010
vn 0.5490 0.6303 0.5490
vn 0.0000 1.0000 -0.0000
vn -0.5474 0.6315 -0.5491
vn 0.5944 0.8042 -0.0000
vn 0.5490 0.6303 -0.5490
vn 0.2875 0.8557 0.4302
vn -0.2658 -0.9539 0.1391
vn -0.0853 -0.9530 -0.2906
vn 0.4893 -0.8654 -0.1078
vn 0.7764 0.6303 -0.0000
vn 0.2735 -0.8643 0.4221
vn -0.8477 -0.3566 0.3927
vn -0.7811 -0.5465 -0.3021
vn -0.0014 -1.0000 -0.0040
vn -0.3037 -0.5222 0.7970
vn -0.1859 0.8528 0.4879
vn -0.5637 0.7920 0.2345
vn -0.5087 0.8389 -0.1938
vn 0.0002 -1.0000 -0.0001
vn -0.7841 -0.5463 -0.2946
vn -0.3715 -0.3566 -0.8572
vn 0.3037 -0.5222 -0.7970
vn -0.0033 -1.0000 0.0019
vn 0.0001 -1.0000 0.0002
vn 0.7839 -0.5445 0.2984
vn 0.3715 -0.3566 0.8572
vn 0.2648 0.7920 0.5502
vn -0.2648 0.7920 -0.5502
vn 0.1859 0.8528 -0.4879
vn 0.5087 0.8389 0.1938
vn 0.8477 -0.3566 -0.3927
vn 0.7837 -0.5445 0.2989
vn 0.5637 0.7920 -0.2345
# 84 vertex normals

vt 0.8528 0.5811 0.0000
vt 0.9218 0.5518 0.0000
vt 0.9223 0.6091 0.0000
vt 0.8821 0.6501 0.0000
vt 0.8809 0.5116 0.0000
vt 0.9908 0.5225 0.0000
vt 0.9918 0.6372 0.0000
vt 0.8247 0.6506 0.0000
vt 0.9114 0.7191 0.0000
vt 0.8235 0.5121 0.0000
vt 0.9090 0.4420 0.0000
vt 0.5966 0.1606 0.0000
vt 0.7026 0.1606 0.0000
vt 0.7026 0.2337 0.0000
vt 0.5966 0.2337 0.0000
vt 0.7838 0.6104 0.0000
vt 0.7966 0.7201 0.0000
vt 0.4906 0.1606 0.0000
vt 0.4906 0.2337 0.0000
vt 0.7833 0.5530 0.0000
vt 0.7942 0.4430 0.0000
vt 0.4906 0.3838 0.0000
vt 0.5966 0.3838 0.0000
vt 0.5966 0.4569 0.0000
vt 0.4906 0.4569 0.0000
vt 0.7026 0.3067 0.0000
vt 0.5966 0.3067 0.0000
vt 0.7148 0.6397 0.0000
vt 0.2618 0.4469 0.0000
vt 0.3678 0.4469 0.0000
vt 0.3678 0.5200 0.0000
vt 0.2618 0.5200 0.0000
vt 0.4906 0.3067 0.0000
vt 0.7138 0.5249 0.0000
vt 0.7026 0.3838 0.0000
vt 0.7026 0.4569 0.0000
vt 0.5966 0.5299 0.0000
vt 0.4906 0.5299 0.0000
vt 0.7026 0.3798 0.0000
vt 0.1558 0.4469 0.0000
vt 0.1558 0.5200 0.0000
vt 0.3678 0.5930 0.0000
vt 0.2618 0.5930 0.0000
vt 0.5958 0.3798 0.0000
vt 0.4918 0.3798 0.0000
vt 0.4906 0.6070 0.0000
vt 0.5966 0.6070 0.0000
vt 0.5966 0.6801 0.0000
vt 0.4906 0.6801 0.0000
vt 0.7026 0.5299 0.0000
vt 0.5966 0.6030 0.0000
vt 0.4906 0.6030 0.0000
vt 0.7026 0.6070 0.0000
vt 0.7026 0.6801 0.0000
vt 0.1558 0.5930 0.0000
vt 0.3676 0.6661 0.0000
vt 0.9103 0.4370 0.0000
vt 0.7977 0.4380 0.0000
vt 0.8241 0.4218 0.0000
vt 0.8836 0.4213 0.0000
vt 0.5966 0.7531 0.0000
vt 0.4906 0.7531 0.0000
vt 0.7026 0.6030 0.0000
vt 0.7148 0.3582 0.0000
vt 0.7138 0.2435 0.0000
vt 0.7833 0.2716 0.0000
vt 0.7838 0.3289 0.0000
vt 0.8252 0.3698 0.0000
vt 0.7026 0.7531 0.0000
vt 0.2618 0.6661 0.0000
vt 0.1558 0.6661 0.0000
vt 0.8815 0.3693 0.0000
vt 0.8684 0.3854 0.0000
vt 0.8386 0.3857 0.0000
vt 0.0539 0.8270 0.0000
vt 0.0539 0.7720 0.0000
vt 0.2500 0.7720 0.0000
vt 0.2500 0.8270 0.0000
vt 0.5966 0.8262 0.0000
vt 0.4906 0.8262 0.0000
vt 0.7942 0.1616 0.0000
vt 0.8235 0.2306 0.0000
vt 0.2625 0.8343 0.0000
vt 0.2625 0.7813 0.0000
vt 0.3790 0.7813 0.0000
vt 0.3790 0.8343 0.0000
vt 0.7623 0.8060 0.0000
vt 0.7040 0.8060 0.0000
vt 0.7040 0.6895 0.0000
vt 0.7614 0.6895 0.0000
vt 0.7026 0.8262 0.0000
vt 0.9908 0.2411 0.0000
vt 0.9918 0.3558 0.0000
vt 0.9223 0.3277 0.0000
vt 0.9218 0.2704 0.0000
vt 0.5779 0.9062 0.0000
vt 0.5779 0.8787 0.0000
vt 0.7740 0.8787 0.0000
vt 0.7740 0.9062 0.0000
vt 0.4343 0.0054 0.0000
vt 0.4343 0.0443 0.0000
vt 0.2383 0.0443 0.0000
vt 0.2383 0.0054 0.0000
vt 0.9090 0.1606 0.0000
vt 0.8803 0.1782 0.0000
vt 0.8231 0.1787 0.0000
vt 0.8377 0.2131 0.0000
vt 0.2625 0.7283 0.0000
vt 0.3790 0.7283 0.0000
vt 0.5601 0.0749 0.0000
vt 0.5894 0.1439 0.0000
vt 0.5320 0.1444 0.0000
vt 0.0573 0.1170 0.0000
vt 0.0010 0.1170 0.0000
vt 0.0005 0.0005 0.0000
vt 0.0579 0.0005 0.0000
vt 0.6296 0.1030 0.0000
vt 0.8809 0.2301 0.0000
vt 0.4761 0.7138 0.0000
vt 0.4231 0.7138 0.0000
vt 0.4231 0.5973 0.0000
vt 0.4761 0.5973 0.0000
vt 0.3693 0.7138 0.0000
vt 0.3701 0.5973 0.0000
vt 0.5779 0.9338 0.0000
vt 0.7740 0.9338 0.0000
vt 0.8663 0.2129 0.0000
vt 0.3623 0.6701 0.0000
vt 0.3623 0.7229 0.0000
vt 0.1655 0.7229 0.0000
vt 0.1655 0.6701 0.0000
vt 0.5536 0.9731 0.0000
vt 0.5536 0.9466 0.0000
vt 0.7505 0.9466 0.0000
vt 0.7505 0.9731 0.0000
vt 0.4266 0.5828 0.0000
vt 0.3693 0.5828 0.0000
vt 0.3693 0.4663 0.0000
vt 0.4266 0.4663 0.0000
vt 0.4911 0.1042 0.0000
vt 0.6291 0.0456 0.0000
vt 0.4266 0.8351 0.0000
vt 0.3693 0.8351 0.0000
vt 0.3693 0.7186 0.0000
vt 0.4266 0.7186 0.0000
vt 0.5308 0.0059 0.0000
vt 0.5882 0.0054 0.0000
vt 0.1973 0.3838 0.0000
vt 0.1973 0.4212 0.0000
vt 0.0005 0.4212 0.0000
vt 0.0005 0.3838 0.0000
vt 0.5536 0.9995 0.0000
vt 0.7505 0.9995 0.0000
vt 0.4906 0.0468 0.0000
vt 0.1161 0.0005 0.0000
vt 0.2319 0.0446 0.0000
vt 0.1933 0.1457 0.0000
vt 0.0776 0.1016 0.0000
vt 0.2674 0.8399 0.0000
vt 0.3756 0.8399 0.0000
vt 0.3965 0.9977 0.0000
vt 0.3300 0.9977 0.0000
vt 0.8693 0.0054 0.0000
vt 0.9932 0.0054 0.0000
vt 0.9215 0.1592 0.0000
vt 0.8454 0.1592 0.0000
vt 0.1548 0.2469 0.0000
vt 0.0390 0.2028 0.0000
vt 0.4838 0.8399 0.0000
vt 0.4629 0.9977 0.0000
vt 0.7817 0.7285 0.0000
vt 0.8480 0.7252 0.0000
vt 0.8298 0.7783 0.0000
vt 0.7855 0.8045 0.0000
vt 0.7454 0.0054 0.0000
vt 0.7694 0.1592 0.0000
vt 0.3476 0.0887 0.0000
vt 0.4634 0.1328 0.0000
vt 0.4249 0.2340 0.0000
vt 0.3091 0.1899 0.0000
vt 0.2706 0.2910 0.0000
vt 0.1163 0.3480 0.0000
vt 0.0005 0.3039 0.0000
vt 0.5921 0.8399 0.0000
vt 0.5294 0.9977 0.0000
vt 0.9144 0.7219 0.0000
vt 0.9379 0.7729 0.0000
vt 0.8360 0.9021 0.0000
vt 0.7893 0.8805 0.0000
vt 0.6216 0.0054 0.0000
vt 0.6933 0.1592 0.0000
vt 0.1087 0.9977 0.0000
vt 0.0005 0.9977 0.0000
vt 0.0632 0.8399 0.0000
vt 0.1296 0.8399 0.0000
vt 0.3863 0.3351 0.0000
vt 0.0005 0.7943 0.0000
vt 0.0005 0.6704 0.0000
vt 0.1544 0.6465 0.0000
vt 0.1544 0.7225 0.0000
vt 0.9808 0.7186 0.0000
vt 0.9846 0.7946 0.0000
vt 0.9441 0.8967 0.0000
vt 0.8594 0.9531 0.0000
vt 0.7931 0.9564 0.0000
vt 0.2170 0.9977 0.0000
vt 0.1961 0.8399 0.0000
vt 0.3478 0.4362 0.0000
vt 0.2320 0.3921 0.0000
vt 0.0005 0.5465 0.0000
vt 0.1544 0.5704 0.0000
vt 0.9884 0.8705 0.0000
vt 0.9258 0.9498 0.0000
vt 0.3252 0.9977 0.0000
vt 0.2625 0.8399 0.0000
vt 0.0005 0.4226 0.0000
vt 0.1544 0.4944 0.0000
vt 0.9921 0.9465 0.0000
vt 0.2028 0.3502 0.0000
vt 0.2028 0.3113 0.0000
vt 0.1753 0.2999 0.0000
vt 0.1478 0.3274 0.0000
vt 0.2419 0.1033 0.0000
vt 0.2419 0.1407 0.0000
vt 0.2683 0.1516 0.0000
vt 0.2947 0.1252 0.0000
# 226 texture coords

o Marshmallow_Well
g Marshmallow_Well
usemtl wire_174097139
s 1
f 1/1/1 2/2/1 3/3/1 
f 1/1/1 3/3/1 4/4/1 
f 1/1/1 5/5/1 2/2/1 
f 3/3/1 2/2/1 6/6/2 7/7/3 
f 1/1/1 4/4/1 8/8/1 
f 4/4/1 3/3/1 7/7/3 9/9/4 
f 1/1/1 10/10/1 5/5/1 
f 2/2/1 5/5/1 11/11/5 6/6/2 
s 8
f 7/12/3 6/13/2 12/14/6 13/15/7 
s 1
f 1/1/1 8/8/1 14/16/1 
f 8/8/1 4/4/1 9/9/4 15/17/8 
s 8
f 9/18/4 7/12/3 13/15/7 16/19/9 
s 1
f 1/1/1 17/20/1 10/10/1 
f 5/5/1 10/10/1 18/21/10 11/11/5 
s 8
f 6/22/2 11/23/5 19/24/11 12/25/6 
f 13/15/7 12/14/6 20/26/6 21/27/12 
s 1
f 1/1/1 14/16/1 17/20/1 
f 14/16/1 8/8/1 15/17/8 22/28/13 
s 8
f 15/29/8 9/30/4 16/31/9 23/32/14 
f 16/19/9 13/15/7 21/27/12 24/33/15 
s 1
f 10/10/1 17/20/1 25/34/16 18/21/10 
s 8
f 11/23/5 18/35/10 26/36/17 19/24/11 
f 12/25/6 19/24/11 27/37/18 20/38/6 
f 21/27/12 20/26/6 28/39/19 
s 1
f 17/20/1 14/16/1 22/28/13 25/34/16 
s 8
f 22/40/13 15/29/8 23/32/14 29/41/20 
f 23/32/14 16/31/9 24/42/15 30/43/21 
f 24/33/15 21/27/12 31/44/22 32/45/23 
f 18/46/10 25/47/16 33/48/24 26/49/17 
f 19/24/11 26/36/17 34/50/17 27/37/18 
f 20/38/6 27/37/18 35/51/25 28/52/19 
f 21/27/12 28/39/19 31/44/22 
f 25/47/16 22/53/13 29/54/20 33/48/24 
f 29/41/20 23/32/14 30/43/21 36/55/26 
f 30/43/21 24/42/15 32/56/23 
s 1
f 32/57/23 31/58/22 37/59/27 38/60/28 
s 8
f 26/49/17 33/48/24 39/61/29 34/62/17 
f 27/37/18 34/50/17 40/63/30 35/51/25 
s 1
f 28/64/19 35/65/25 41/66/31 42/67/32 
f 31/58/22 28/64/19 42/67/32 43/68/33 
s 8
f 33/48/24 29/54/20 36/69/26 39/61/29 
f 36/55/26 30/43/21 44/70/34 45/71/35 
f 30/43/21 32/56/23 44/70/34 
s 1
f 46/72/36 32/57/23 38/60/28 47/73/37 
f 31/58/22 43/68/33 48/74/38 37/59/27 
s off
f 38/75/28 37/76/27 49/77/39 50/78/40 
s 8
f 34/62/17 39/61/29 51/79/41 40/80/30 
s 1
f 35/65/25 40/81/30 52/82/42 41/66/31 
s off
f 42/83/32 41/84/31 53/85/43 54/86/35 
f 43/87/33 42/88/32 54/89/35 55/90/44 
s 8
f 39/61/29 36/69/26 45/91/35 51/79/41 
s 1
f 45/92/35 44/93/34 56/94/45 57/95/46 
f 44/93/34 32/57/23 46/72/36 56/94/45 
f 43/68/33 46/72/36 47/73/37 48/74/38 
s off
f 47/96/37 38/97/28 50/98/40 58/99/47 
f 37/100/27 48/101/38 59/102/48 49/103/39 
s 1
f 40/81/30 51/104/41 60/105/49 61/106/50 
f 52/82/42 40/81/30 61/106/50 62/107/51 
s off
f 41/84/31 52/108/42 63/109/52 53/85/43 
s 1
f 64/110/53 54/111/35 53/112/43 
s off
f 46/113/36 43/114/33 55/115/44 65/116/54 
s 1
f 64/110/53 55/117/44 54/111/35 
f 51/104/41 45/92/35 57/95/46 66/118/55 
s off
f 57/119/46 56/120/45 67/121/25 68/122/56 
f 56/120/45 46/123/36 65/124/54 67/121/25 
f 48/125/38 47/96/37 58/99/47 59/126/48 
s 1
f 51/104/41 66/118/55 69/127/57 60/105/49 
s off
f 61/128/50 60/129/49 70/130/58 71/131/59 
s 1
f 66/118/55 52/82/42 62/107/51 69/127/57 
s off
f 62/132/51 61/133/50 71/134/59 72/135/60 
f 52/136/42 66/137/55 73/138/61 63/139/52 
s 1
f 64/110/53 53/112/43 63/140/52 
f 64/110/53 65/141/54 55/117/44 
s off
f 66/142/55 57/143/46 68/144/56 73/145/61 
s 1
f 64/110/53 68/146/56 67/147/25 
f 64/110/53 67/147/25 65/141/54 
s off
f 60/148/49 69/149/57 74/150/62 70/151/58 
f 69/152/57 62/132/51 72/135/60 74/153/62 
s 1
f 64/110/53 63/140/52 73/154/61 
f 64/110/53 73/154/61 68/146/56 
s 2
f 75/155/63 76/156/64 77/157/65 78/158/66 
s 128
f 75/159/63 78/160/66 79/161/67 80/162/68 
s 64
f 76/163/64 75/164/63 80/165/68 81/166/69 
s 2
f 78/158/66 77/157/65 82/167/70 83/168/66 
s 128
f 78/160/66 83/169/66 84/170/67 79/161/67 
s 4
f 80/171/68 79/172/67 85/173/53 81/174/69 
s 64
f 86/175/71 76/163/64 81/166/69 87/176/69 
s 2
f 86/177/71 88/178/72 89/179/73 90/180/74 
f 77/157/65 90/180/74 91/181/75 82/167/70 
f 83/168/66 82/167/70 92/182/76 93/183/77 
s 128
f 83/169/66 93/184/77 94/185/78 84/170/67 
s 4
f 79/172/67 84/186/67 95/187/53 85/173/53 
f 81/174/69 85/173/53 96/188/53 87/189/69 
s 64
f 88/190/72 86/175/71 87/176/69 97/191/79 
s 32
f 89/192/73 88/193/72 97/194/79 98/195/80 
s 2
f 90/180/74 89/179/73 99/196/73 91/181/75 
s 16
f 93/197/77 92/198/76 100/199/81 94/200/78 
s 4
f 84/186/67 94/201/78 100/202/81 95/187/53 
f 85/173/53 95/187/53 101/203/53 96/188/53 
f 87/189/69 96/188/53 98/204/80 97/205/79 
s 32
f 99/206/73 89/192/73 98/195/80 102/207/80 
s 2
f 91/181/75 99/196/73 103/208/82 104/209/83 
s 16
f 92/198/76 104/210/83 105/211/81 100/199/81 
s 4
f 95/187/53 100/202/81 105/212/81 101/203/53 
f 96/188/53 101/203/53 102/213/80 98/204/80 
s 32
f 103/214/82 99/206/73 102/207/80 106/215/84 
s 16
f 104/210/83 103/216/82 106/217/84 105/211/81 
s 4
f 101/203/53 105/212/81 106/218/84 102/213/80 
s 1
f 82/167/70 91/181/75 49/219/39 59/220/48 
s 4
f 92/182/76 82/167/70 59/220/48 58/221/47 
s 1
f 104/209/83 92/182/76 58/221/47 50/222/40 
s 4
f 91/181/75 104/209/83 50/222/40 49/219/39 
s 1
f 77/157/65 76/156/64 70/223/58 74/224/62 
s 4
f 90/180/74 77/157/65 74/224/62 72/225/60 
s 1
f 86/177/71 90/180/74 72/225/60 71/226/59 
s 4
f 76/156/64 86/177/71 71/226/59 70/223/58 
# 96 polygons - 20 triangles

