# 3ds Max Wavefront OBJ Exporter v0.99 - (c)2007 guruware
# File Created: 03.09.2025 10:58:35

mtllib Marshmallow Lantern.mtl

#
# object Marshmallow_Lantern
#

v  -197.8772 0.0061 82.3612
v  -197.4640 0.0061 81.9480
v  -197.2929 0.0061 82.3612
v  -197.8772 0.0061 81.7769
v  -198.2903 0.0061 81.9480
v  -198.4615 0.0061 82.3612
v  -198.2903 0.0061 82.7744
v  -197.8772 0.0061 82.9455
v  -197.4640 0.0061 82.7744
v  -197.2929 29.7021 82.3612
v  -197.4640 29.7021 81.9480
v  -195.8894 29.7021 80.3735
v  -195.0661 29.7021 82.3612
v  -197.8772 29.7021 81.7769
v  -197.8772 29.7021 79.5501
v  -198.2903 29.7021 81.9480
v  -199.8649 29.7021 80.3735
v  -198.4615 29.7021 82.3612
v  -200.6882 29.7021 82.3612
v  -198.2903 29.7021 82.7744
v  -199.8649 29.7021 84.3489
v  -197.8772 29.7021 82.9455
v  -197.8772 29.7021 85.1723
v  -197.4640 29.7021 82.7744
v  -195.8894 29.7021 84.3489
v  -194.8956 30.5813 79.3796
v  -193.6606 30.5813 82.3612
v  -197.8772 30.5813 78.1446
v  -200.8588 30.5813 79.3796
v  -202.0938 30.5813 82.3612
v  -200.8588 30.5813 85.3428
v  -197.8772 30.5813 86.5778
v  -194.8956 30.5813 85.3428
v  -194.8956 33.0693 79.3796
v  -193.6606 33.0693 82.3612
v  -197.8772 33.0693 78.1446
v  -200.8588 33.0693 79.3796
v  -202.0938 33.0693 82.3612
v  -200.8588 33.0693 85.3428
v  -197.8772 33.0693 86.5778
v  -194.8956 33.0693 85.3428
v  -194.8956 35.5572 79.3796
v  -193.6606 35.5572 82.3612
v  -197.8772 35.5572 78.1446
v  -200.8588 35.5572 79.3796
v  -202.0938 35.5572 82.3612
v  -200.8588 35.5572 85.3428
v  -197.8772 35.5572 86.5778
v  -194.8956 35.5572 85.3428
v  -194.8956 38.0451 79.3796
v  -193.6606 38.0451 82.3612
v  -197.8772 38.0451 78.1446
v  -200.8588 38.0451 79.3796
v  -202.0938 38.0451 82.3612
v  -200.8588 38.0451 85.3428
v  -197.8772 38.0451 86.5778
v  -194.8956 38.0451 85.3428
v  -195.8894 38.9244 80.3735
v  -195.0661 38.9244 82.3612
v  -197.8772 38.9244 79.5501
v  -199.8649 38.9244 80.3735
v  -200.6882 38.9244 82.3612
v  -199.8649 38.9244 84.3489
v  -197.8772 38.9244 85.1723
v  -195.8894 38.9244 84.3489
v  -197.4640 38.9244 81.9480
v  -197.2929 38.9244 82.3612
v  -197.8772 38.9244 81.7769
v  -198.2903 38.9244 81.9480
v  -198.4615 38.9244 82.3612
v  -198.2903 38.9244 82.7744
v  -197.8772 38.9244 82.9455
v  -197.4640 38.9244 82.7744
v  -197.4640 40.0068 81.9480
v  -197.2929 40.0068 82.3612
v  -197.8772 40.0068 81.7769
v  -198.2903 40.0068 81.9480
v  -198.4615 40.0068 82.3612
v  -198.2903 40.0068 82.7744
v  -197.8772 40.0068 82.9455
v  -197.4640 40.0068 82.7744
v  -197.8772 41.8404 82.3612
# 82 vertices

vn 0.0000 -1.0000 -0.0000
vn 0.5490 -0.6303 -0.5490
vn 0.7764 -0.6303 0.0000
vn -0.0000 -0.6303 -0.7764
vn -0.5490 -0.6303 -0.5490
vn -0.7764 -0.6303 0.0000
vn -0.5490 -0.6303 0.5490
vn 0.0000 -0.6303 0.7764
vn 0.5490 -0.6303 0.5490
vn 0.5944 -0.8042 0.0000
vn 0.4203 -0.8042 -0.4203
vn 0.2382 -0.9415 -0.2382
vn 0.3369 -0.9415 -0.0000
vn -0.0000 -0.8042 -0.5944
vn -0.0000 -0.9415 -0.3369
vn -0.4203 -0.8042 -0.4203
vn -0.2382 -0.9415 -0.2382
vn -0.5944 -0.8042 0.0000
vn -0.3369 -0.9415 0.0000
vn -0.4203 -0.8042 0.4203
vn -0.2382 -0.9415 0.2382
vn 0.0000 -0.8042 0.5944
vn -0.0000 -0.9415 0.3369
vn 0.4203 -0.8042 0.4203
vn 0.2382 -0.9415 0.2382
vn 0.6348 -0.4404 -0.6348
vn 0.8978 -0.4404 0.0000
vn -0.0000 -0.4404 -0.8978
vn -0.6348 -0.4404 -0.6348
vn -0.8978 -0.4404 0.0000
vn -0.6348 -0.4404 0.6348
vn -0.0000 -0.4404 0.8978
vn 0.6348 -0.4404 0.6348
vn 0.7071 0.0000 -0.7071
vn 1.0000 0.0000 -0.0000
vn -0.0000 0.0000 -1.0000
vn -0.7071 0.0000 -0.7071
vn -1.0000 0.0000 0.0000
vn -0.7071 0.0000 0.7071
vn 0.0000 0.0000 1.0000
vn 0.7071 0.0000 0.7071
vn 0.6348 0.4404 -0.6348
vn 0.8978 0.4404 -0.0000
vn -0.0000 0.4404 -0.8978
vn -0.6348 0.4404 -0.6348
vn -0.8978 0.4404 0.0000
vn -0.6348 0.4404 0.6348
vn -0.0000 0.4404 0.8978
vn 0.6348 0.4404 0.6348
vn 0.2382 0.9415 -0.2382
vn 0.3369 0.9415 -0.0000
vn -0.0000 0.9415 -0.3369
vn -0.2382 0.9415 -0.2382
vn -0.3369 0.9415 0.0000
vn -0.2382 0.9415 0.2382
vn -0.0000 0.9415 0.3369
vn 0.2382 0.9415 0.2382
vn 0.4203 0.8042 -0.4203
vn 0.5944 0.8042 -0.0000
vn -0.0000 0.8042 -0.5944
vn -0.4203 0.8042 -0.4203
vn -0.5943 0.8042 -0.0000
vn -0.4202 0.8042 0.4203
vn 0.0000 0.8042 0.5944
vn 0.4203 0.8042 0.4203
vn 0.6993 0.1482 -0.6993
vn 0.9890 0.1482 0.0000
vn -0.0000 0.1482 -0.9890
vn -0.6993 0.1482 -0.6993
vn -0.9890 0.1482 -0.0000
vn -0.6993 0.1482 0.6993
vn -0.0000 0.1482 0.9890
vn 0.6993 0.1482 0.6993
vn 0.0000 1.0000 0.0000
# 74 vertex normals

vt 0.0187 0.1615 0.0000
vt 0.0367 0.1538 0.0000
vt 0.0368 0.1688 0.0000
vt 0.0260 0.1433 0.0000
vt 0.0110 0.1435 0.0000
vt 0.0005 0.1542 0.0000
vt 0.0006 0.1691 0.0000
vt 0.0113 0.1797 0.0000
vt 0.0263 0.1795 0.0000
vt 0.1242 0.2926 0.0000
vt 0.1392 0.2924 0.0000
vt 0.1684 0.3612 0.0000
vt 0.0963 0.3618 0.0000
vt 0.1497 0.2817 0.0000
vt 0.2190 0.3097 0.0000
vt 0.1496 0.2667 0.0000
vt 0.2183 0.2376 0.0000
vt 0.1389 0.2562 0.0000
vt 0.1669 0.1870 0.0000
vt 0.1239 0.2564 0.0000
vt 0.0947 0.1876 0.0000
vt 0.1134 0.2671 0.0000
vt 0.0442 0.2391 0.0000
vt 0.1135 0.2821 0.0000
vt 0.0448 0.3112 0.0000
vt 0.1868 0.4045 0.0000
vt 0.0786 0.4055 0.0000
vt 0.2626 0.3274 0.0000
vt 0.2617 0.2192 0.0000
vt 0.1845 0.1433 0.0000
vt 0.0763 0.1443 0.0000
vt 0.0005 0.2214 0.0000
vt 0.0014 0.3296 0.0000
vt 0.9921 0.4439 0.0000
vt 0.9921 0.5439 0.0000
vt 0.9087 0.5439 0.0000
vt 0.9087 0.4439 0.0000
vt 0.7336 0.1433 0.0000
vt 0.7336 0.2433 0.0000
vt 0.6502 0.2433 0.0000
vt 0.6502 0.1433 0.0000
vt 0.7336 0.3433 0.0000
vt 0.6502 0.3433 0.0000
vt 0.7418 0.3433 0.0000
vt 0.7418 0.2433 0.0000
vt 0.8253 0.2433 0.0000
vt 0.8253 0.3433 0.0000
vt 0.7418 0.1433 0.0000
vt 0.8253 0.1433 0.0000
vt 0.7336 0.3440 0.0000
vt 0.7336 0.4439 0.0000
vt 0.6502 0.4439 0.0000
vt 0.6502 0.3440 0.0000
vt 0.7336 0.5439 0.0000
vt 0.6502 0.5439 0.0000
vt 0.9921 0.3440 0.0000
vt 0.9087 0.3440 0.0000
vt 0.8253 0.5439 0.0000
vt 0.8253 0.4439 0.0000
vt 0.5668 0.2433 0.0000
vt 0.5668 0.1433 0.0000
vt 0.5668 0.3433 0.0000
vt 0.9087 0.2433 0.0000
vt 0.9087 0.3433 0.0000
vt 0.9087 0.1433 0.0000
vt 0.5668 0.4439 0.0000
vt 0.5668 0.3440 0.0000
vt 0.5668 0.5439 0.0000
vt 0.8253 0.3440 0.0000
vt 0.7418 0.5439 0.0000
vt 0.7418 0.4439 0.0000
vt 0.4834 0.2433 0.0000
vt 0.4834 0.1433 0.0000
vt 0.4834 0.3433 0.0000
vt 0.9921 0.2433 0.0000
vt 0.9921 0.3433 0.0000
vt 0.9921 0.1433 0.0000
vt 0.4834 0.4439 0.0000
vt 0.4834 0.3440 0.0000
vt 0.4834 0.5439 0.0000
vt 0.7418 0.3440 0.0000
vt 0.0820 0.9904 0.0000
vt 0.0048 0.9146 0.0000
vt 0.0482 0.8961 0.0000
vt 0.0997 0.9467 0.0000
vt 0.0039 0.8064 0.0000
vt 0.0476 0.8240 0.0000
vt 0.0797 0.7292 0.0000
vt 0.0982 0.7726 0.0000
vt 0.1879 0.7282 0.0000
vt 0.1703 0.7719 0.0000
vt 0.2651 0.8041 0.0000
vt 0.2217 0.8225 0.0000
vt 0.2660 0.9123 0.0000
vt 0.2224 0.8946 0.0000
vt 0.1902 0.9895 0.0000
vt 0.1718 0.9461 0.0000
vt 0.1169 0.8670 0.0000
vt 0.1276 0.8775 0.0000
vt 0.1168 0.8520 0.0000
vt 0.1273 0.8413 0.0000
vt 0.1423 0.8412 0.0000
vt 0.1530 0.8517 0.0000
vt 0.1531 0.8667 0.0000
vt 0.1426 0.8774 0.0000
vt 0.0039 0.1030 0.0000
vt 0.0039 0.0892 0.0000
vt 0.9995 0.0892 0.0000
vt 0.9995 0.1030 0.0000
vt 0.0039 0.0753 0.0000
vt 0.9995 0.0753 0.0000
vt 0.0039 0.1404 0.0000
vt 0.0039 0.1266 0.0000
vt 0.9995 0.1266 0.0000
vt 0.9995 0.1404 0.0000
vt 0.0039 0.1127 0.0000
vt 0.9995 0.1127 0.0000
vt 0.0039 0.0282 0.0000
vt 0.0039 0.0144 0.0000
vt 0.9995 0.0144 0.0000
vt 0.9995 0.0282 0.0000
vt 0.0039 0.0005 0.0000
vt 0.9995 0.0005 0.0000
vt 0.0039 0.0656 0.0000
vt 0.0039 0.0518 0.0000
vt 0.9995 0.0518 0.0000
vt 0.9995 0.0656 0.0000
vt 0.0039 0.0379 0.0000
vt 0.9995 0.0379 0.0000
vt 0.9926 0.5585 0.0000
vt 0.9926 0.5723 0.0000
vt 0.9564 0.5723 0.0000
vt 0.9564 0.5585 0.0000
vt 0.0005 0.3644 0.0000
vt 0.0144 0.3644 0.0000
vt 0.0144 0.4007 0.0000
vt 0.0005 0.4007 0.0000
vt 0.0282 0.3644 0.0000
vt 0.0282 0.4007 0.0000
vt 0.4757 0.1433 0.0000
vt 0.4757 0.1572 0.0000
vt 0.4395 0.1572 0.0000
vt 0.4395 0.1433 0.0000
vt 0.4757 0.1710 0.0000
vt 0.4395 0.1710 0.0000
vt 0.4757 0.1739 0.0000
vt 0.4757 0.1878 0.0000
vt 0.4395 0.1878 0.0000
vt 0.4395 0.1739 0.0000
vt 0.4757 0.2016 0.0000
vt 0.4395 0.2016 0.0000
vt 0.9926 0.5446 0.0000
vt 0.9564 0.5446 0.0000
vt 0.8949 0.5585 0.0000
vt 0.0144 0.4621 0.0000
vt 0.3780 0.1572 0.0000
vt 0.3780 0.1878 0.0000
# 157 texture coords

o Marshmallow_Lantern
g Marshmallow_Lantern
usemtl wire_200159182
s 1
f 1/1/1 2/2/2 3/3/3 
f 1/1/1 4/4/4 2/2/2 
f 1/1/1 5/5/5 4/4/4 
f 1/1/1 6/6/6 5/5/5 
f 1/1/1 7/7/7 6/6/6 
f 1/1/1 8/8/8 7/7/7 
f 1/1/1 9/9/9 8/8/8 
f 1/1/1 3/3/3 9/9/9 
f 10/10/10 11/11/11 12/12/12 13/13/13 
f 11/11/11 14/14/14 15/15/15 12/12/12 
f 14/14/14 16/16/16 17/17/17 15/15/15 
f 16/16/16 18/18/18 19/19/19 17/17/17 
f 18/18/18 20/20/20 21/21/21 19/19/19 
f 20/20/20 22/22/22 23/23/23 21/21/21 
f 22/22/22 24/24/24 25/25/25 23/23/23 
f 24/24/24 10/10/10 13/13/13 25/25/25 
f 13/13/13 12/12/12 26/26/26 27/27/27 
f 12/12/12 15/15/15 28/28/28 26/26/26 
f 15/15/15 17/17/17 29/29/29 28/28/28 
f 17/17/17 19/19/19 30/30/30 29/29/29 
f 19/19/19 21/21/21 31/31/31 30/30/30 
f 21/21/21 23/23/23 32/32/32 31/31/31 
f 23/23/23 25/25/25 33/33/33 32/32/32 
f 25/25/25 13/13/13 27/27/27 33/33/33 
s 8
f 27/34/27 26/35/26 34/36/34 35/37/35 
f 26/38/26 28/39/28 36/40/36 34/41/34 
f 28/39/28 29/42/29 37/43/37 36/40/36 
f 29/44/29 30/45/30 38/46/38 37/47/37 
f 30/45/30 31/48/31 39/49/39 38/46/38 
f 31/50/31 32/51/32 40/52/40 39/53/39 
f 32/51/32 33/54/33 41/55/41 40/52/40 
f 33/56/33 27/34/27 35/37/35 41/57/41 
f 35/37/35 34/36/34 42/58/34 43/59/35 
f 34/41/34 36/40/36 44/60/36 42/61/34 
f 36/40/36 37/43/37 45/62/37 44/60/36 
f 37/47/37 38/46/38 46/63/38 45/64/37 
f 38/46/38 39/49/39 47/65/39 46/63/38 
f 39/53/39 40/52/40 48/66/40 47/67/39 
f 40/52/40 41/55/41 49/68/41 48/66/40 
f 41/57/41 35/37/35 43/59/35 49/69/41 
f 43/59/35 42/58/34 50/70/42 51/71/43 
f 42/61/34 44/60/36 52/72/44 50/73/42 
f 44/60/36 45/62/37 53/74/45 52/72/44 
f 45/64/37 46/63/38 54/75/46 53/76/45 
f 46/63/38 47/65/39 55/77/47 54/75/46 
f 47/67/39 48/66/40 56/78/48 55/79/47 
f 48/66/40 49/68/41 57/80/49 56/78/48 
f 49/69/41 43/59/35 51/71/43 57/81/49 
s 1
f 51/82/43 50/83/42 58/84/50 59/85/51 
f 50/83/42 52/86/44 60/87/52 58/84/50 
f 52/86/44 53/88/45 61/89/53 60/87/52 
f 53/88/45 54/90/46 62/91/54 61/89/53 
f 54/90/46 55/92/47 63/93/55 62/91/54 
f 55/92/47 56/94/48 64/95/56 63/93/55 
f 56/94/48 57/96/49 65/97/57 64/95/56 
f 57/96/49 51/82/43 59/85/51 65/97/57 
f 59/85/51 58/84/50 66/98/58 67/99/59 
f 58/84/50 60/87/52 68/100/60 66/98/58 
f 60/87/52 61/89/53 69/101/61 68/100/60 
f 61/89/53 62/91/54 70/102/62 69/101/61 
f 62/91/54 63/93/55 71/103/63 70/102/62 
f 63/93/55 64/95/56 72/104/64 71/103/63 
f 64/95/56 65/97/57 73/105/65 72/104/64 
f 65/97/57 59/85/51 67/99/59 73/105/65 
s off
f 11/106/11 10/107/10 3/108/3 2/109/2 
f 10/107/10 24/110/24 9/111/9 3/108/3 
f 24/112/24 22/113/22 8/114/8 9/115/9 
f 22/113/22 20/116/20 7/117/7 8/114/8 
f 20/118/20 18/119/18 6/120/6 7/121/7 
f 18/119/18 16/122/16 5/123/5 6/120/6 
f 16/124/16 14/125/14 4/126/4 5/127/5 
f 14/125/14 11/128/11 2/129/2 4/126/4 
f 67/130/59 66/131/58 74/132/66 75/133/67 
f 66/134/58 68/135/60 76/136/68 74/137/66 
f 68/135/60 69/138/61 77/139/69 76/136/68 
f 69/140/61 70/141/62 78/142/70 77/143/69 
f 70/141/62 71/144/63 79/145/71 78/142/70 
f 71/146/63 72/147/64 80/148/72 79/149/71 
f 72/147/64 73/150/65 81/151/73 80/148/72 
f 73/152/65 67/130/59 75/133/67 81/153/73 
f 75/133/67 74/132/66 82/154/74 
f 74/137/66 76/136/68 82/155/74 
f 76/136/68 77/139/69 82/155/74 
f 77/143/69 78/142/70 82/156/74 
f 78/142/70 79/145/71 82/156/74 
f 79/149/71 80/148/72 82/157/74 
f 80/148/72 81/151/73 82/157/74 
f 81/153/73 75/133/67 82/154/74 
# 72 polygons - 16 triangles

