# 3ds Max Wavefront OBJ Exporter v0.99 - (c)2007 guruware
# File Created: 25.09.2026 19:55:12

mtllib PB Cup.mtl

#
# object PB_Cup
#

v  137.8675 0.0000 -10.3980
v  144.6457 0.0000 -12.8651
v  145.0807 0.0000 -10.3980
v  143.3932 0.0000 -15.0346
v  141.4741 0.0000 -16.6448
v  139.1201 0.0000 -17.5016
v  136.6149 0.0000 -17.5016
v  134.2609 0.0000 -16.6448
v  132.3419 0.0000 -15.0346
v  131.0893 0.0000 -12.8651
v  130.6543 0.0000 -10.3980
v  131.0893 0.0000 -7.9309
v  132.3419 0.0000 -5.7614
v  134.2609 0.0000 -4.1512
v  137.8675 0.0000 -3.2943
v  141.4741 0.0000 -4.1511
v  143.3932 0.0000 -5.7614
v  144.6457 0.0000 -7.9309
v  151.4240 0.0000 -15.3321
v  152.2940 0.0000 -10.3980
v  148.9188 0.0000 -19.6711
v  145.0807 0.0000 -22.8917
v  140.3726 0.0000 -24.6053
v  135.3624 0.0000 -24.6053
v  130.6543 0.0000 -22.8917
v  126.8162 0.0000 -19.6711
v  124.3111 0.0000 -15.3321
v  123.4410 0.0000 -10.3980
v  124.3111 0.0000 -5.4639
v  126.8162 0.0000 -1.1248
v  130.6543 0.0000 2.0957
v  135.3624 0.0000 3.8093
v  145.0807 0.0000 2.0957
v  140.3726 0.0000 3.8093
v  148.9188 0.0000 -1.1248
v  151.4240 0.0000 -5.4638
v  153.0004 3.4983 -15.9059
v  153.9716 3.4983 -10.3980
v  150.2039 3.4983 -20.7495
v  145.9195 3.4983 -24.3445
v  140.6640 3.4983 -26.2574
v  135.0711 3.4983 -26.2574
v  129.8155 3.4983 -24.3445
v  125.5311 3.4983 -20.7495
v  122.7346 3.4983 -15.9059
v  121.7634 3.4983 -10.3980
v  122.7346 3.4983 -4.8901
v  125.5311 3.4983 -0.0465
v  129.8155 3.4983 3.5485
v  135.0711 3.4983 5.4614
v  145.9195 3.4983 3.5486
v  140.6639 3.4983 5.4614
v  150.2039 3.4983 -0.0465
v  153.0004 3.4983 -4.8901
v  144.6457 3.4983 -12.8651
v  145.0807 3.4983 -10.3980
v  143.3932 3.4983 -15.0346
v  141.4741 3.4983 -16.6448
v  139.1201 3.4983 -17.5016
v  136.6149 3.4983 -17.5016
v  134.2609 3.4983 -16.6448
v  132.3419 3.4983 -15.0346
v  131.0893 3.4983 -12.8651
v  130.6543 3.4983 -10.3980
v  131.0893 3.4983 -7.9309
v  132.3419 3.4983 -5.7614
v  134.2609 3.4983 -4.1512
v  137.8675 3.4983 -3.2943
v  141.4741 3.4983 -4.1511
v  143.3932 3.4983 -5.7614
v  144.6457 3.4983 -7.9309
v  137.8675 3.4983 -10.3980
# 72 vertices

vn 0.0000 -1.0000 -0.0000
vn -0.0000 -0.9831 0.1832
vn 0.5380 -0.8199 -0.1958
vn 0.5725 -0.8199 0.0000
vn 0.4386 -0.8199 -0.3680
vn 0.2862 -0.8199 -0.4958
vn 0.0994 -0.8199 -0.5638
vn -0.0994 -0.8199 -0.5638
vn -0.2862 -0.8199 -0.4958
vn -0.4386 -0.8199 -0.3680
vn -0.5380 -0.8199 -0.1958
vn -0.5725 -0.8199 -0.0000
vn -0.5380 -0.8199 0.1958
vn -0.4386 -0.8199 0.3680
vn -0.2862 -0.8199 0.4958
vn 0.3983 -0.6978 0.5953
vn 0.2862 -0.8199 0.4958
vn -0.3983 -0.6978 0.5953
vn 0.4386 -0.8199 0.3680
vn 0.5380 -0.8199 0.1958
vn 0.8168 0.4944 -0.2973
vn 0.8692 0.4944 0.0000
vn 0.6659 0.4944 -0.5587
vn 0.4346 0.4944 -0.7528
vn 0.1509 0.4944 -0.8560
vn -0.1509 0.4944 -0.8560
vn -0.4346 0.4944 -0.7528
vn -0.6659 0.4944 -0.5587
vn -0.8168 0.4944 -0.2973
vn -0.8692 0.4944 -0.0000
vn -0.8168 0.4944 0.2973
vn -0.6659 0.4944 0.5587
vn -0.4346 0.4944 0.7528
vn 0.3193 0.4293 0.8448
vn 0.4346 0.4944 0.7528
vn -0.3193 0.4293 0.8448
vn 0.6659 0.4944 0.5587
vn 0.8168 0.4944 0.2973
vn 0.0000 1.0000 -0.0000
vn -0.0000 0.9861 0.1664
# 40 vertex normals

vt 0.6237 0.7207 0.0000
vt 0.5438 0.7177 0.0000
vt 0.5496 0.6905 0.0000
vt 0.5476 0.7452 0.0000
vt 0.5605 0.7697 0.0000
vt 0.5811 0.7884 0.0000
vt 0.6069 0.7989 0.0000
vt 0.6346 0.7999 0.0000
vt 0.6611 0.7914 0.0000
vt 0.6830 0.7744 0.0000
vt 0.6978 0.7509 0.0000
vt 0.7037 0.7237 0.0000
vt 0.6999 0.6962 0.0000
vt 0.6869 0.6716 0.0000
vt 0.6534 0.6477 0.0000
vt 0.6128 0.6414 0.0000
vt 0.5864 0.6499 0.0000
vt 0.5644 0.6670 0.0000
vt 0.4639 0.7146 0.0000
vt 0.4756 0.6603 0.0000
vt 0.4714 0.7697 0.0000
vt 0.4974 0.8188 0.0000
vt 0.5386 0.8561 0.0000
vt 0.5900 0.8771 0.0000
vt 0.6455 0.8792 0.0000
vt 0.6984 0.8621 0.0000
vt 0.7423 0.8281 0.0000
vt 0.7719 0.7810 0.0000
vt 0.7836 0.7267 0.0000
vt 0.7760 0.6717 0.0000
vt 0.7501 0.6226 0.0000
vt 0.7089 0.5853 0.0000
vt 0.6019 0.5622 0.0000
vt 0.6574 0.5643 0.0000
vt 0.5490 0.5792 0.0000
vt 0.5051 0.6133 0.0000
vt 0.1116 0.7705 0.0000
vt 0.1118 0.7114 0.0000
vt 0.1494 0.7115 0.0000
vt 0.1491 0.7707 0.0000
vt 0.1120 0.6593 0.0000
vt 0.1496 0.6595 0.0000
vt 0.1122 0.6042 0.0000
vt 0.1497 0.6043 0.0000
vt 0.1124 0.5477 0.0000
vt 0.1499 0.5479 0.0000
vt 0.1126 0.4876 0.0000
vt 0.1502 0.4878 0.0000
vt 0.1129 0.4312 0.0000
vt 0.1504 0.4314 0.0000
vt 0.1133 0.3647 0.0000
vt 0.1507 0.3648 0.0000
vt 0.1135 0.3126 0.0000
vt 0.1510 0.3128 0.0000
vt 0.1137 0.2535 0.0000
vt 0.1512 0.2536 0.0000
vt 0.1140 0.1944 0.0000
vt 0.1515 0.1945 0.0000
vt 0.1142 0.1423 0.0000
vt 0.1517 0.1425 0.0000
vt 0.1144 0.0817 0.0000
vt 0.1519 0.0819 0.0000
vt 0.1147 0.0223 0.0000
vt 0.1521 0.0224 0.0000
vt 0.1105 0.9849 0.0000
vt 0.1108 0.9322 0.0000
vt 0.1485 0.9321 0.0000
vt 0.1483 0.9851 0.0000
vt 0.1111 0.8817 0.0000
vt 0.1486 0.8818 0.0000
vt 0.1113 0.8297 0.0000
vt 0.1489 0.8298 0.0000
vt 0.3470 0.6980 0.0000
vt 0.2860 0.6868 0.0000
vt 0.3205 0.5944 0.0000
vt 0.3478 0.5995 0.0000
vt 0.2326 0.6553 0.0000
vt 0.2966 0.5803 0.0000
vt 0.1931 0.6075 0.0000
vt 0.2789 0.5589 0.0000
vt 0.1724 0.5490 0.0000
vt 0.2696 0.5327 0.0000
vt 0.1729 0.4870 0.0000
vt 0.2698 0.5049 0.0000
vt 0.1946 0.4289 0.0000
vt 0.2795 0.4789 0.0000
vt 0.2348 0.3817 0.0000
vt 0.2976 0.4578 0.0000
vt 0.2888 0.3512 0.0000
vt 0.3218 0.4441 0.0000
vt 0.3500 0.3409 0.0000
vt 0.3491 0.4395 0.0000
vt 0.4110 0.3522 0.0000
vt 0.3765 0.4445 0.0000
vt 0.4644 0.3836 0.0000
vt 0.4004 0.4586 0.0000
vt 0.5039 0.4315 0.0000
vt 0.4181 0.4801 0.0000
vt 0.5246 0.4899 0.0000
vt 0.4273 0.5201 0.0000
vt 0.5241 0.5519 0.0000
vt 0.5024 0.6100 0.0000
vt 0.4174 0.5600 0.0000
vt 0.4621 0.6572 0.0000
vt 0.3994 0.5812 0.0000
vt 0.4082 0.6878 0.0000
vt 0.3752 0.5949 0.0000
vt 0.3485 0.5195 0.0000
vt 0.7752 0.4503 0.0000
vt 0.6480 0.4503 0.0000
vt 0.6480 0.3997 0.0000
vt 0.7513 0.3997 0.0000
vt 0.5208 0.4504 0.0000
vt 0.5447 0.3998 0.0000
# 114 texture coords

o PB_Cup
g PB_Cup
usemtl wire_140088225
s 1
f 1/1/1 2/2/1 3/3/1 
f 1/1/1 4/4/1 2/2/1 
f 1/1/1 5/5/1 4/4/1 
f 1/1/1 6/6/1 5/5/1 
f 1/1/1 7/7/1 6/6/1 
f 1/1/1 8/8/1 7/7/1 
f 1/1/1 9/9/1 8/8/1 
f 1/1/1 10/10/1 9/9/1 
f 1/1/1 11/11/1 10/10/1 
f 1/1/1 12/12/1 11/11/1 
f 1/1/1 13/13/1 12/12/1 
f 1/1/1 14/14/1 13/13/1 
f 1/1/1 15/15/2 14/14/1 
f 1/1/1 16/16/1 15/15/2 
f 1/1/1 17/17/1 16/16/1 
f 1/1/1 18/18/1 17/17/1 
f 1/1/1 3/3/1 18/18/1 
f 3/3/1 2/2/1 19/19/3 20/20/4 
f 2/2/1 4/4/1 21/21/5 19/19/3 
f 4/4/1 5/5/1 22/22/6 21/21/5 
f 5/5/1 6/6/1 23/23/7 22/22/6 
f 6/6/1 7/7/1 24/24/8 23/23/7 
f 7/7/1 8/8/1 25/25/9 24/24/8 
f 8/8/1 9/9/1 26/26/10 25/25/9 
f 9/9/1 10/10/1 27/27/11 26/26/10 
f 10/10/1 11/11/1 28/28/12 27/27/11 
f 11/11/1 12/12/1 29/29/13 28/28/12 
f 12/12/1 13/13/1 30/30/14 29/29/13 
f 13/13/1 14/14/1 31/31/15 30/30/14 
f 14/14/1 15/15/2 32/32/16 31/31/15 
f 15/15/2 16/16/1 33/33/17 34/34/18 
f 16/16/1 17/17/1 35/35/19 33/33/17 
f 17/17/1 18/18/1 36/36/20 35/35/19 
f 18/18/1 3/3/1 20/20/4 36/36/20 
s 8
f 20/37/4 19/38/3 37/39/21 38/40/22 
f 19/38/3 21/41/5 39/42/23 37/39/21 
f 21/41/5 22/43/6 40/44/24 39/42/23 
f 22/43/6 23/45/7 41/46/25 40/44/24 
f 23/45/7 24/47/8 42/48/26 41/46/25 
f 24/47/8 25/49/9 43/50/27 42/48/26 
f 25/49/9 26/51/10 44/52/28 43/50/27 
f 26/51/10 27/53/11 45/54/29 44/52/28 
f 27/53/11 28/55/12 46/56/30 45/54/29 
f 28/55/12 29/57/13 47/58/31 46/56/30 
f 29/57/13 30/59/14 48/60/32 47/58/31 
f 30/59/14 31/61/15 49/62/33 48/60/32 
f 31/61/15 32/63/16 50/64/34 49/62/33 
f 34/65/18 33/66/17 51/67/35 52/68/36 
f 33/66/17 35/69/19 53/70/37 51/67/35 
f 35/69/19 36/71/20 54/72/38 53/70/37 
f 36/71/20 20/37/4 38/40/22 54/72/38 
s 1
f 38/73/22 37/74/21 55/75/39 56/76/39 
f 37/74/21 39/77/23 57/78/39 55/75/39 
f 39/77/23 40/79/24 58/80/39 57/78/39 
f 40/79/24 41/81/25 59/82/39 58/80/39 
f 41/81/25 42/83/26 60/84/39 59/82/39 
f 42/83/26 43/85/27 61/86/39 60/84/39 
f 43/85/27 44/87/28 62/88/39 61/86/39 
f 44/87/28 45/89/29 63/90/39 62/88/39 
f 45/89/29 46/91/30 64/92/39 63/90/39 
f 46/91/30 47/93/31 65/94/39 64/92/39 
f 47/93/31 48/95/32 66/96/39 65/94/39 
f 48/95/32 49/97/33 67/98/39 66/96/39 
f 49/97/33 50/99/34 68/100/40 67/98/39 
f 52/101/36 51/102/35 69/103/39 68/100/40 
f 51/102/35 53/104/37 70/105/39 69/103/39 
f 53/104/37 54/106/38 71/107/39 70/105/39 
f 54/106/38 38/73/22 56/76/39 71/107/39 
f 72/108/39 56/76/39 55/75/39 
f 72/108/39 55/75/39 57/78/39 
f 72/108/39 57/78/39 58/80/39 
f 72/108/39 58/80/39 59/82/39 
f 72/108/39 59/82/39 60/84/39 
f 72/108/39 60/84/39 61/86/39 
f 72/108/39 61/86/39 62/88/39 
f 72/108/39 62/88/39 63/90/39 
f 72/108/39 63/90/39 64/92/39 
f 72/108/39 64/92/39 65/94/39 
f 72/108/39 65/94/39 66/96/39 
f 72/108/39 66/96/39 67/98/39 
f 72/108/39 67/98/39 68/100/40 
f 72/108/39 68/100/40 69/103/39 
f 72/108/39 69/103/39 70/105/39 
f 72/108/39 70/105/39 71/107/39 
f 72/108/39 71/107/39 56/76/39 
s 2
f 52/109/36 68/110/40 15/111/2 34/112/18 
s 4
f 68/110/40 50/113/34 32/114/16 15/111/2 
# 53 polygons - 34 triangles

