# 3ds Max Wavefront OBJ Exporter v0.99 - (c)2007 guruware
# File Created: 19.09.2026 03:12:42

mtllib Red Licorice Vine.mtl

#
# object Red_Licorice_Vine
#

v  -35.3701 0.0062 47.8984
v  -33.1539 0.0062 46.9294
v  -32.9906 0.0062 47.4320
v  -35.1197 0.0062 45.5012
v  -34.2363 0.0062 45.8202
v  -35.6481 0.0062 45.5012
v  -36.5466 0.0062 45.8611
v  -37.8167 0.0062 47.5266
v  -37.6534 0.0062 47.0241
v  -37.5674 0.0062 49.0027
v  -37.7705 0.0062 48.4333
v  -36.5988 0.0062 50.0535
v  -37.0263 0.0062 49.7429
v  -35.0708 0.0062 50.3097
v  -35.6951 0.0062 50.3097
v  -33.7415 0.0062 49.7429
v  -34.1690 0.0062 50.0535
v  -33.0226 0.0062 48.3681
v  -33.2155 0.0062 48.9618
v  -26.0595 67.6066 59.5603
v  -26.0601 67.6061 59.5601
v  -26.0576 67.6047 59.5579
v  -26.0607 67.6051 59.5594
v  -26.0609 67.6043 59.5589
v  -26.0609 67.6033 59.5579
v  -26.0606 67.6029 59.5574
v  -26.0597 67.6023 59.5564
v  -26.0589 67.6021 59.5558
v  -26.0576 67.6022 59.5552
v  -26.0569 67.6024 59.5550
v  -26.0557 67.6031 59.5551
v  -26.0551 67.6037 59.5553
v  -26.0544 67.6047 59.5559
v  -26.0542 67.6053 59.5564
v  -26.0543 67.6063 59.5574
v  -26.0547 67.6069 59.5581
v  -26.0555 67.6075 59.5590
v  -26.0561 67.6077 59.5595
v  -26.0574 67.6075 59.5600
v  -26.0583 67.6073 59.5603
v  -32.9538 0.0095 46.9269
v  -32.8273 0.0095 47.3164
v  -26.0597 67.6067 59.5604
v  -26.0602 67.6063 59.5603
v  -35.5887 0.0095 45.3101
v  -35.1791 0.0095 45.3101
v  -26.0611 67.6031 59.5578
v  -26.0609 67.6028 59.5574
v  -37.9801 0.0095 47.4110
v  -37.8535 0.0095 47.0215
v  -26.0575 67.6020 59.5550
v  -26.0569 67.6022 59.5548
v  -36.7592 0.0095 50.1731
v  -37.0906 0.0095 49.9324
v  -26.0541 67.6048 59.5559
v  -26.0540 67.6053 59.5562
v  -33.6773 0.0095 49.9324
v  -34.0086 0.0095 50.1731
v  -26.0554 67.6077 59.5592
v  -26.0559 67.6078 59.5596
v  -37.8254 0.0062 48.9798
v  -37.9557 0.0062 48.6143
v  -26.0554 67.6031 59.5549
v  -26.0550 67.6035 59.5550
v  -35.1826 0.0062 50.5450
v  -35.5833 0.0062 50.5450
v  -26.0541 67.6066 59.5575
v  -26.0543 67.6070 59.5580
v  -32.8334 0.0062 48.5471
v  -32.9573 0.0062 48.9282
v  -26.0576 67.6077 59.5603
v  -26.0581 67.6076 59.5605
v  -37.0618 0.0062 46.2523
v  -37.1119 0.0062 45.9949
v  -36.7811 0.0062 45.7438
v  -26.0597 67.6020 59.5561
v  -26.0592 67.6019 59.5558
v  -33.7313 0.0062 46.1871
v  -34.0076 0.0062 45.6955
v  -33.6834 0.0062 45.9311
v  -26.0611 67.6049 59.5595
v  -26.0612 67.6045 59.5592
v  -38.4432 11.5849 43.1314
v  -38.5105 11.5549 43.4609
v  -39.6655 11.9839 40.9310
v  -39.3739 11.9306 41.0927
v  -42.2173 12.2222 41.4947
v  -41.9698 12.2192 41.2652
v  -42.4647 11.9674 43.9589
v  -42.6033 12.0189 43.6553
v  -40.1732 11.5747 45.0027
v  -40.5064 11.6095 45.0447
v  -38.5870 11.6082 43.0539
v  -32.2894 73.4461 48.5870
v  -32.3565 73.4314 48.6100
v  -28.9173 72.4039 55.6013
v  -28.8782 72.3937 55.5725
v  -39.7854 11.9823 41.0444
v  -32.0332 72.5806 48.0689
v  -32.0509 72.5143 48.0455
v  -29.1494 71.8149 55.1712
v  -29.1131 71.8466 55.1828
v  -42.1481 12.1942 41.6418
v  -31.0444 72.7300 47.6870
v  -30.9885 72.7041 47.6488
v  -28.5517 71.6297 54.6953
v  -28.5681 71.6591 54.7316
v  -42.3025 11.9480 43.9360
v  -30.7349 73.6487 47.9717
v  -30.6831 73.6993 47.9708
v  -27.9887 72.0950 54.8423
v  -28.0350 72.0812 54.8535
v  -40.1427 11.5870 44.8410
v  -31.4870 74.1063 48.5269
v  -31.5111 74.1638 48.5638
v  -28.1999 72.5771 55.3980
v  -28.2119 72.5388 55.3690
v  -28.1992 71.8079 54.6822
v  -30.6743 73.1826 47.7280
v  -30.6457 73.3120 47.7749
v  -28.1315 71.8714 54.7068
v  -27.9852 72.3909 55.1157
v  -30.9992 74.0790 48.2917
v  -31.1125 74.1297 48.3669
v  -28.0195 72.4497 55.1879
v  -28.5584 72.5805 55.5832
v  -32.0309 73.9123 48.6852
v  -32.1342 73.8103 48.6850
v  -28.6512 72.5524 55.6043
v  -28.9190 71.6321 54.8842
v  -31.5202 72.4451 47.7721
v  -31.3817 72.4808 47.7254
v  -28.8365 71.6140 54.8254
v  -29.1431 72.1100 55.4426
v  -32.3622 72.8951 48.3648
v  -32.3128 72.7813 48.2895
v  -29.1662 72.0338 55.3834
v  -42.4813 12.0144 43.5443
v  -42.5673 12.1105 42.7996
v  -30.9083 72.8644 47.6872
v  -30.7590 73.1502 47.7516
v  -28.2540 71.8130 54.7151
v  -28.4457 71.6961 54.7038
v  -40.5726 11.6318 44.8952
v  -41.3182 11.7403 44.7231
v  -30.8001 73.7987 48.0710
v  -31.0097 73.9922 48.2563
v  -28.0263 72.3456 55.0951
v  -28.0044 72.1817 54.9315
v  -38.6739 11.5695 43.4790
v  -39.0751 11.5411 44.1382
v  -31.6634 74.0645 48.5880
v  -31.9519 73.8899 48.6387
v  -28.5289 72.5464 55.5371
v  -28.3155 72.5639 55.4450
v  -41.8287 12.1904 41.3457
v  -41.0955 12.1402 41.0254
v  -31.8838 72.5136 47.9697
v  -31.5654 72.5110 47.8233
v  -28.9135 71.6806 54.9270
v  -29.0679 71.7690 55.0876
v  -39.4092 11.9135 41.2530
v  -38.9092 11.7875 41.8306
v  -32.3332 73.2703 48.5255
v  -32.3029 72.9680 48.3716
v  -29.0836 72.1338 55.4351
v  -28.9727 72.3088 55.5414
v  -42.7417 12.1449 42.6813
v  -41.4929 11.7466 44.8478
v  -39.0128 11.5103 44.3413
v  -41.0271 12.1557 40.8209
v  -38.6960 11.7621 41.8314
v  -34.2835 57.9433 37.7193
v  -34.4375 58.0314 37.6369
v  -35.7316 47.7631 35.0479
v  -35.5193 47.7318 35.0508
v  -32.8132 57.8972 37.5882
v  -32.9744 57.8352 37.6800
v  -34.2895 48.0152 34.3549
v  -34.2055 48.1148 34.1844
v  -32.4339 58.8374 36.4548
v  -32.3795 58.7110 36.5939
v  -34.5595 48.9384 32.9975
v  -34.7198 49.0312 32.8893
v  -33.6539 59.4128 35.9432
v  -33.4590 59.3967 35.9374
v  -36.1083 49.2168 32.9001
v  -36.2914 49.1746 33.0037
v  -34.8031 58.8800 36.7026
v  -34.7371 58.9964 36.5599
v  -36.8557 48.5057 34.1488
v  -36.8085 48.3868 34.3210
v  -34.2054 57.9740 37.6734
v  -35.4796 47.7801 34.9666
v  -37.7276 37.3079 35.0153
v  -37.6457 37.2573 35.0846
v  -35.7535 47.8204 34.9629
v  -32.8409 57.9585 37.5203
v  -34.2848 48.1589 34.1319
v  -36.7971 37.9062 33.7203
v  -36.6912 37.9212 33.6688
v  -34.3932 48.0304 34.3518
v  -32.5292 58.8441 36.4583
v  -34.8087 49.0091 32.9403
v  -37.9076 38.7049 32.6258
v  -37.9238 38.7666 32.5258
v  -34.6019 48.8893 33.0799
v  -33.6851 59.3553 36.0129
v  -36.2672 49.1157 33.0870
v  -39.4298 38.5774 33.2587
v  -39.5454 38.6024 33.2493
v  -36.0310 49.1701 32.9533
v  -34.7271 58.8373 36.7418
v  -36.7048 48.3714 34.3208
v  -39.3547 37.7227 34.7300
v  -39.4097 37.6783 34.8253
v  -36.7657 48.5248 34.0985
v  -38.8577 38.8321 32.6600
v  -39.0583 38.8011 32.7682
v  -35.5021 49.2428 32.7295
v  -35.3005 49.2162 32.7273
v  -39.7665 38.1603 34.0772
v  -39.7307 38.0395 34.2784
v  -36.7928 48.8496 33.6065
v  -36.7106 48.9471 33.4397
v  -38.5932 37.3317 35.2070
v  -38.3609 37.2857 35.2246
v  -36.3191 47.9600 34.8693
v  -36.4760 48.0508 34.7635
v  -37.0864 38.4128 32.9142
v  -37.2617 38.5183 32.7775
v  -34.2207 48.5936 33.4521
v  -34.1684 48.4731 33.6256
v  -36.9182 37.4828 34.4919
v  -36.8105 37.5752 34.3015
v  -34.7143 47.7910 34.7871
v  -34.8934 47.7497 34.8885
v  -33.4336 59.3345 36.0054
v  -33.0225 59.2127 36.0945
v  -35.5659 49.1837 32.8336
v  -38.2139 38.7655 32.6026
v  -38.7361 38.7721 32.7318
v  -35.2519 49.1423 32.8302
v  -34.6419 58.9874 36.5577
v  -34.3554 59.1945 36.2826
v  -36.7032 48.7850 33.6866
v  -39.5719 38.4555 33.5097
v  -39.6399 38.1887 33.9935
v  -36.5752 48.9368 33.4267
v  -34.4042 58.0876 37.5672
v  -34.6422 58.3501 37.2938
v  -36.1947 47.9774 34.8161
v  -39.1362 37.5867 34.9084
v  -38.6358 37.4103 35.0812
v  -36.4391 48.1190 34.6511
v  -32.4590 58.6811 36.6378
v  -32.4853 58.3792 36.9898
v  -34.3541 48.6224 33.4362
v  -36.8443 38.0656 33.4549
v  -37.1335 38.3448 33.0457
v  -34.2726 48.4348 33.7065
v  -33.0490 57.8785 37.6388
v  -33.4822 57.8325 37.7461
v  -34.7270 47.8665 34.6741
v  -37.4505 37.3457 34.8745
v  -37.0711 37.5030 34.4978
v  -35.0061 47.8021 34.8321
v  -32.9148 59.2454 36.0432
v  -34.3744 59.2761 36.1907
v  -34.7646 58.3707 37.2854
v  -32.3967 58.3159 37.0518
v  -33.5389 57.7636 37.8328
v  -37.4309 37.2866 34.9755
v  -39.2963 23.8775 39.0702
v  -39.1546 23.9243 38.8234
v  -36.7278 38.0447 33.4632
v  -39.3597 24.4830 36.9800
v  -39.5509 24.5708 36.7827
v  -38.1612 38.8136 32.5078
v  -41.4904 24.9702 36.5080
v  -41.7503 24.9777 36.6329
v  -39.6555 38.5079 33.4439
v  -42.6351 24.6599 38.2644
v  -42.6045 24.5768 38.5388
v  -39.2403 37.5729 34.9636
v  -41.3206 23.9869 39.8640
v  -41.0419 23.9280 39.9088
v  -39.2496 23.9650 38.7276
v  -32.9295 69.7377 42.7892
v  -32.8622 69.7764 42.7565
v  -39.6775 24.5719 36.8446
v  -31.9168 69.0715 43.2607
v  -31.9441 69.1351 43.2128
v  -41.7340 24.9348 36.7661
v  -30.8133 69.6426 42.7701
v  -30.8974 69.6434 42.7734
v  -42.4683 24.5464 38.5584
v  -31.1690 70.6109 42.0359
v  -31.1937 70.5479 42.0860
v  -40.9745 23.9493 39.7868
v  -32.4673 70.6891 42.0322
v  -32.3984 70.6495 42.0601
v  -32.7656 59.1646 36.1179
v  -30.8487 70.2944 42.2672
v  -30.7895 70.1729 42.3587
v  -34.2166 59.3368 36.1008
v  -31.9783 70.8137 41.9145
v  -31.8099 70.8139 41.9070
v  -34.8178 58.4943 37.1493
v  -32.9417 70.1474 42.4727
v  -32.8942 70.2743 42.3723
v  -32.4597 58.1967 37.1973
v  -31.1127 69.3007 43.0482
v  -31.2487 69.2169 43.1191
v  -33.7296 57.7794 37.8386
v  -32.4138 69.1991 43.1838
v  -32.5529 69.2773 43.1294
v  -39.0485 38.7238 32.9004
v  -42.3787 24.8070 37.5905
v  -42.5077 24.6537 38.2043
v  -32.7901 59.0867 36.2109
v  -30.8652 70.1125 42.4087
v  -30.8348 69.8108 42.6411
v  -39.5841 38.0004 34.3070
v  -41.8872 24.2058 39.4169
v  -41.3341 24.0253 39.7291
v  -34.1096 59.2890 36.1427
v  -31.7601 70.7357 41.9654
v  -31.3771 70.6510 42.0142
v  -38.2739 37.3387 35.1087
v  -39.9301 23.8644 39.4773
v  -39.4325 23.9047 39.0461
v  -34.7251 58.5427 37.0818
v  -32.7860 70.2856 42.3588
v  -32.5744 70.5459 42.1480
v  -37.4067 38.5090 32.8327
v  -40.7247 24.8372 36.5219
v  -41.3987 24.9251 36.6051
v  -32.5835 58.1935 37.2165
v  -31.3486 69.2558 43.0933
v  -31.7220 69.1355 43.2028
v  -36.9033 37.6470 34.2012
v  -39.1830 24.2530 37.6770
v  -39.4309 24.4585 37.0992
v  -33.7793 57.8571 37.7550
v  -32.5359 69.3626 43.0626
v  -32.7875 69.6092 42.8826
v  -42.4873 24.8635 37.4553
v  -42.0606 24.2179 39.4753
v  -39.9341 23.8148 39.6538
v  -40.6153 24.8609 36.3750
v  -39.0120 24.2103 37.7277
v  -32.3904 73.2951 48.5623
v  -32.8716 69.6082 42.8869
v  -31.9351 72.4624 47.9686
v  -31.7447 69.0717 43.2530
v  -30.8830 72.8083 47.6490
v  -30.7648 69.7723 42.6676
v  -30.7336 73.8156 48.0477
v  -31.3111 70.6908 41.9803
v  -31.6479 74.1314 48.6112
v  -32.6037 70.6088 42.1003
v  -42.6867 12.1746 42.3676
v  -42.3597 24.9098 37.2181
v  -41.7782 11.7988 44.6896
v  -42.2477 24.3038 39.2822
v  -39.2550 11.5132 44.5659
v  -40.1884 23.8221 39.7760
v  -40.6901 12.1213 40.7712
v  -40.3315 24.8026 36.4145
v  -38.5604 11.7117 42.1284
v  -38.9821 24.1289 37.9963
v  -30.7145 73.3517 47.8247
v  -30.9574 70.3019 42.2662
v  -42.4817 12.1567 42.3108
v  -42.1799 24.8792 37.2210
v  -31.1862 74.0712 48.3734
v  -32.0225 70.7353 41.9772
v  -41.7626 11.8215 44.4767
v  -42.1786 24.3396 39.1161
v  -32.1127 73.7311 48.6385
v  -32.8600 70.0879 42.5151
v  -39.4524 11.5456 44.4881
v  -40.3262 23.8758 39.6676
v  -31.3498 72.5666 47.7506
v  -31.1368 69.3863 42.9830
v  -40.5706 12.0868 40.9480
v  -40.2825 24.7464 36.5834
v  -32.2258 72.7908 48.2542
v  -32.3192 69.2408 43.1475
v  -38.6980 11.7091 42.2933
v  -39.1364 24.1262 38.0953
v  -28.9905 72.3381 55.5772
v  -29.1144 71.7547 55.0975
v  -28.4568 71.6583 54.6738
v  -27.9650 72.1729 54.9027
v  -28.2802 72.5965 55.4569
v  -28.1485 71.9119 54.7536
v  -28.0796 72.4374 55.2075
v  -28.6735 72.5027 55.5699
v  -28.7851 71.6524 54.8356
v  -29.1197 72.0151 55.3429
# 402 vertices

vn -0.0000 -1.0000 -0.0000
vn 0.0736 -0.9357 -0.3451
vn 0.8345 -0.3727 0.4058
vn 0.2336 -0.8925 -0.3858
vn -0.0523 -0.9668 -0.2503
vn -0.1552 -0.9765 -0.1498
vn -0.0195 -0.9689 -0.2468
vn -0.3496 -0.9327 0.0888
vn -0.0913 -0.9813 -0.1693
vn -0.4723 -0.7561 0.4530
vn -0.1771 -0.9801 -0.0892
vn -0.0291 -0.4112 0.9111
vn -0.2217 -0.9751 -0.0062
vn 0.5756 -0.3144 0.7549
vn -0.3576 -0.9027 0.2395
vn -0.0000 -1.0000 0.0000
vn 0.9142 -0.4003 -0.0629
vn -0.3419 -0.7016 0.6252
vn 0.6106 -0.6303 -0.4794
vn 0.3775 -0.3640 0.8514
vn 0.2401 -0.0678 0.9684
vn -0.1324 -0.9257 0.3544
vn 0.1740 -0.9222 0.3453
vn -0.2997 -0.4945 0.8159
vn -0.0732 -0.9729 0.2194
vn -0.2149 -0.8782 0.4274
vn 0.0213 -0.9924 0.1214
vn -0.0819 -0.9727 0.2172
vn 0.1176 -0.9913 0.0590
vn -0.0065 -0.9900 0.1408
vn 0.2815 -0.9583 0.0493
vn 0.1198 -0.9904 0.0685
vn 0.5605 -0.8270 0.0449
vn 0.2373 -0.9687 0.0729
vn 0.8705 -0.2735 0.4092
vn 0.4790 -0.8761 0.0548
vn 0.6107 -0.0531 0.7900
vn 0.8218 -0.5434 0.1715
vn 0.0427 -0.1557 0.9869
vn 0.6440 -0.0560 0.7630
vn -0.3091 -0.5818 0.7523
vn 0.7600 -0.3774 -0.5291
vn 0.9096 -0.1991 0.3648
vn 0.2382 0.0834 0.9676
vn -0.5280 -0.3390 0.7787
vn -0.2153 -0.9148 -0.3418
vn 0.7351 -0.4712 -0.4874
vn -0.5342 -0.3447 0.7719
vn -0.1069 -0.9943 0.0050
vn -0.6484 -0.5100 0.5652
vn -0.2119 -0.9332 -0.2902
vn -0.1246 -0.9911 0.0460
vn 0.6877 -0.6838 -0.2440
vn 0.1707 -0.1929 0.9663
vn -0.6130 -0.5555 0.5617
vn 0.6676 -0.7142 -0.2102
vn 0.8762 -0.0068 0.4818
vn 0.9123 -0.1740 0.3706
vn 0.1975 -0.2065 0.9583
vn 0.8848 -0.0093 0.4659
vn 0.2266 0.0977 0.9691
vn -0.3516 -0.3002 0.8867
vn -0.4950 -0.8675 0.0489
vn 0.1863 -0.9791 -0.0819
vn 0.9633 -0.2634 0.0511
vn 0.5735 -0.1748 0.8004
vn -0.2525 -0.2957 0.9213
vn 0.9696 -0.2229 0.1005
vn 0.6373 0.0876 0.7656
vn 0.9715 -0.2266 -0.0693
vn 0.6696 -0.1879 0.7185
vn 0.5673 0.0802 0.8196
vn -0.1634 -0.0237 0.9863
vn -0.2226 -0.9716 -0.0800
vn -0.4652 -0.8835 -0.0553
vn 0.0742 -0.8776 -0.4735
vn -0.3596 -0.9040 0.2312
vn 0.1240 -0.9896 -0.0730
vn 0.7100 -0.5988 -0.3706
vn 0.2604 -0.7443 -0.6150
vn 0.9426 -0.2923 -0.1613
vn -0.2224 -0.0372 0.9742
vn -0.4071 -0.8458 0.3449
vn 0.8666 0.1263 -0.4827
vn 0.3472 0.8001 0.4892
vn -0.1600 -0.7235 -0.6716
vn 0.8907 -0.0934 -0.4449
vn -0.9566 -0.2901 -0.0282
vn -0.1600 -0.7650 -0.6238
vn -0.6500 0.2463 0.7189
vn -0.9356 -0.3531 0.0068
vn 0.3245 0.8473 0.4205
vn -0.6321 0.1186 0.7658
vn 0.8207 0.0879 -0.5646
vn -0.2809 0.9590 -0.0370
vn -0.6128 0.7688 0.1829
vn -0.1287 0.9338 0.3338
vn 0.0052 0.9833 0.1821
vn -0.1632 -0.7448 -0.6470
vn -0.7797 -0.5283 0.3362
vn -0.9613 -0.2744 0.0244
vn -0.9192 0.0518 0.3904
vn -0.8456 0.0184 0.5334
vn -0.9136 -0.4064 0.0092
vn 0.0594 -0.9961 0.0650
vn 0.1095 -0.9891 0.0980
vn -0.1998 -0.9784 -0.0524
vn -0.2590 -0.9641 -0.0582
vn -0.1647 0.7812 0.6022
vn 0.9070 -0.3730 -0.1956
vn 0.9582 -0.0047 -0.2862
vn 0.6751 -0.6210 -0.3982
vn 0.3907 -0.8528 -0.3464
vn 0.6118 0.7188 0.3302
vn 0.2463 0.9595 -0.1370
vn 0.1575 0.9824 -0.1000
vn 0.6688 0.7239 -0.1694
vn 0.7709 0.5965 -0.2235
vn 0.1410 -0.9696 -0.2002
vn 0.5279 -0.8489 0.0246
vn 0.7455 0.6031 -0.2839
vn 0.9019 0.0780 -0.4248
vn 0.8796 0.2019 -0.4307
vn 0.6113 0.7438 -0.2704
vn -0.0912 0.9958 -0.0027
vn 0.2710 0.9544 0.1250
vn 0.1823 0.9698 0.1620
vn -0.1535 0.9881 0.0064
vn -0.9502 0.2000 0.2390
vn -0.5623 0.6694 0.4856
vn -0.5773 -0.8065 0.1276
vn -0.1097 -0.9849 0.1337
vn 0.3761 -0.9218 0.0936
vn 0.0672 -0.9852 -0.1579
vn -0.6920 0.5146 0.5062
vn -0.9820 0.1043 0.1573
vn -0.2002 -0.9672 0.1566
vn -0.7167 -0.6556 0.2377
vn -0.6092 -0.7545 -0.2441
vn -0.7791 0.3735 0.5035
vn 0.9959 -0.0335 -0.0840
vn 0.3880 -0.9202 -0.0528
vn 0.0525 -0.9749 -0.2164
vn 0.7271 -0.5594 -0.3979
vn -0.5225 0.5456 0.6552
vn 0.1636 0.8191 0.5497
vn 0.0635 0.9945 -0.0837
vn 0.8633 0.4777 -0.1629
vn 0.9160 -0.1705 -0.3633
vn 0.4456 0.8951 -0.0176
vn 0.4092 0.7540 0.5139
vn 0.8736 0.4867 -0.0031
vn -0.5836 0.8087 0.0737
vn -0.0741 0.9951 -0.0656
vn 0.2121 0.9735 0.0853
vn -0.1706 0.9443 0.2813
vn 0.1026 -0.7342 -0.6712
vn -0.4694 -0.7526 -0.4618
vn 0.1979 -0.9793 0.0434
vn -0.1139 -0.9855 0.1258
vn -0.5230 -0.8412 0.1374
vn -0.0854 -0.9860 -0.1433
vn 0.9457 0.1691 -0.2777
vn 0.4979 -0.3294 -0.8022
vn -0.3767 -0.9004 0.2177
vn -0.9457 0.2662 0.1863
vn -0.4282 0.8238 0.3714
vn -0.7607 -0.4830 0.4336
vn -0.9213 -0.0639 0.3836
vn -0.1005 0.7259 0.6804
vn 0.6002 0.7781 0.1853
vn -0.5908 -0.6331 -0.5001
vn 0.4397 -0.5532 -0.7076
vn -0.0191 -0.7154 0.6984
vn -0.9442 0.0855 0.3179
vn -0.6295 0.0557 0.7750
vn 0.5410 -0.5169 0.6634
vn 0.9167 -0.3886 0.0927
vn -0.0253 -0.7740 0.6327
vn 0.4926 -0.6385 0.5913
vn 0.8891 -0.1792 -0.4211
vn 0.6074 0.4656 -0.6436
vn 0.8837 -0.4662 0.0426
vn 0.8404 -0.2864 -0.4601
vn 0.1196 0.3286 -0.9368
vn -0.3784 0.7845 -0.4912
vn 0.6046 0.3885 -0.6954
vn 0.0839 0.2294 -0.9697
vn -0.6991 0.6275 -0.3426
vn -0.9041 0.1999 0.3776
vn -0.4044 0.7277 -0.5540
vn -0.7635 0.5076 -0.3993
vn -0.5748 0.2302 0.7853
vn 0.1086 -0.7118 0.6939
vn 0.5466 -0.4677 0.6946
vn -0.1428 0.3648 0.9201
vn -0.0818 0.4690 0.8794
vn -0.6821 0.0286 0.7307
vn 0.9174 -0.3974 0.0222
vn 0.8412 -0.2771 -0.4642
vn 0.7365 -0.1897 0.6493
vn 0.8020 -0.5344 0.2670
vn 0.2563 -0.5211 0.8141
vn 0.3558 0.6746 -0.6468
vn -0.1389 0.5767 -0.8051
vn 0.5468 -0.6686 -0.5040
vn 0.3961 -0.4734 -0.7868
vn 0.7873 -0.6031 -0.1283
vn -0.5339 0.7692 -0.3512
vn -0.7883 0.6140 0.0395
vn -0.3308 -0.2649 -0.9058
vn -0.5247 -0.0372 -0.8505
vn 0.1708 0.2085 -0.9630
vn -0.8363 -0.1097 0.5371
vn -0.3932 -0.0200 0.9192
vn -0.7920 0.5986 0.1203
vn -0.9353 0.3538 0.0030
vn -0.7424 0.5847 -0.3271
vn -0.1178 -0.2120 -0.9701
vn -0.8028 0.2435 -0.5443
vn -0.3384 0.5185 -0.7853
vn 0.4848 0.0433 -0.8736
vn -0.8758 0.1517 -0.4582
vn -0.5157 0.6770 0.5252
vn -0.8009 0.5701 0.1830
vn -0.4452 0.4366 -0.7818
vn -0.4896 0.5966 0.6359
vn 0.4236 0.2797 0.8616
vn -0.0873 -0.2168 0.9723
vn -0.8642 0.4074 0.2953
vn 0.6795 -0.6061 -0.4136
vn 0.0254 -0.1848 -0.9824
vn 0.6148 0.0696 -0.7856
vn 0.8413 -0.5399 0.0278
vn 0.5728 -0.0366 0.8189
vn 0.8006 -0.5367 -0.2663
vn 0.8427 -0.4929 0.2166
vn 0.0384 -0.4490 0.8927
vn 0.6863 0.3174 -0.6544
vn -0.0745 0.8055 -0.5878
vn -0.5111 0.6949 -0.5058
vn -0.6298 0.2808 -0.7242
vn 0.1031 -0.5072 -0.8556
vn 0.6070 -0.1841 -0.7731
vn -0.3158 0.7617 -0.5657
vn -0.8493 0.5272 -0.0286
vn -0.7925 0.3692 0.4854
vn -0.5849 0.6876 0.4303
vn -0.8267 0.3774 -0.4174
vn -0.4373 0.5588 -0.7047
vn -0.9677 0.1002 0.2311
vn -0.4676 -0.4907 0.7353
vn 0.0087 -0.2549 0.9669
vn 0.1632 0.3401 0.9261
vn -0.4781 0.5502 0.6846
vn -0.8768 0.3444 0.3355
vn 0.6697 -0.7006 0.2464
vn 0.9147 0.0695 -0.3981
vn 0.5255 0.1029 -0.8445
vn 0.3955 -0.5082 -0.7650
vn 0.8073 -0.5818 -0.0992
vn 0.6956 -0.6456 0.3152
vn -0.1708 -0.7149 0.6780
vn 0.4727 -0.7169 0.5124
vn 0.8037 -0.5325 0.2655
vn 0.9145 -0.1806 0.3619
vn 0.4112 0.0705 0.9088
vn -0.1370 -0.3178 0.9382
vn 0.1036 0.7269 -0.6789
vn -0.7290 0.6615 -0.1760
vn -0.6385 -0.3559 0.6824
vn 0.9502 0.0234 -0.3108
vn 0.4238 -0.7332 0.5318
vn 0.8772 -0.3768 0.2976
vn 0.3297 0.6612 0.6739
vn 0.9541 -0.2754 -0.1173
vn 0.4519 -0.3871 -0.8037
vn 0.8994 -0.4249 -0.1023
vn -0.0043 -0.6146 -0.7888
vn -0.4884 0.0643 -0.8703
vn -0.0223 -0.6603 -0.7507
vn -0.9026 -0.0077 -0.4305
vn -0.8593 0.5112 0.0138
vn -0.9143 -0.0935 -0.3940
vn -0.6662 0.5932 0.4521
vn -0.0498 0.5789 0.8139
vn -0.7312 0.4928 0.4716
vn 0.3292 0.7164 0.6151
vn 0.9435 -0.2413 -0.2269
vn -0.8599 0.5103 -0.0147
vn -0.8150 0.5636 -0.1345
vn -0.0251 -0.6562 -0.7542
vn -0.4478 -0.8214 0.3533
vn -0.5631 -0.7252 0.3963
vn -0.9471 0.0896 -0.3082
vn 0.5163 -0.8118 0.2727
vn 0.2602 -0.9009 0.3473
vn -0.2977 0.7649 0.5712
vn 0.9294 0.2827 -0.2374
vn 0.9662 -0.0837 -0.2436
vn 0.5686 0.5429 0.6181
vn 0.0326 0.8955 -0.4440
vn 0.0768 0.9227 -0.3777
vn 0.8924 0.0573 -0.4476
vn 0.5070 0.7544 -0.4170
vn 0.9905 -0.1375 0.0070
vn 0.0198 0.6936 -0.7201
vn -0.3308 0.8925 -0.3065
vn 0.4318 0.7753 -0.4609
vn -0.8450 0.5219 -0.1169
vn -0.9555 0.0311 0.2935
vn -0.4416 0.8453 -0.3007
vn 0.5217 -0.7484 0.4097
vn 0.9614 -0.2435 0.1280
vn 0.0958 -0.9285 0.3588
vn -0.5109 -0.5549 0.6565
vn -0.0094 -0.9206 0.3904
vn -0.9350 -0.2378 0.2631
vn -0.7579 0.6315 -0.1634
vn -0.7738 0.5919 0.2253
vn -0.7175 -0.4423 -0.5382
vn 0.9217 -0.1995 -0.3327
vn 0.7779 -0.6237 0.0758
vn 0.7817 0.5541 -0.2863
vn -0.3432 0.5840 0.7356
vn 0.0243 0.7462 0.6653
vn -0.6183 0.6469 0.4464
vn 0.0594 0.7252 -0.6860
vn 0.4394 0.8066 -0.3954
vn -0.1258 0.9424 -0.3098
vn 0.5337 0.1360 0.8347
vn 0.9057 0.2301 0.3560
vn 0.2911 0.6185 0.7299
vn -0.8085 0.5576 -0.1884
vn -0.3440 0.8938 -0.2875
vn -0.9872 0.1341 0.0863
vn 0.0046 -0.3162 -0.9487
vn -0.4249 -0.5382 -0.7279
vn 0.2228 -0.7195 -0.6577
vn 0.3630 -0.7832 0.5048
vn -0.0222 -0.9098 0.4144
vn 0.5387 -0.7870 0.3006
vn 0.8436 -0.4969 -0.2036
vn 0.5659 -0.5761 -0.5898
vn 0.9848 -0.1439 0.0971
vn -0.5884 -0.4855 0.6466
vn -0.9243 -0.3193 0.2090
vn -0.2881 -0.8349 0.4689
vn -0.9673 0.2535 -0.0076
vn -0.1676 0.7559 0.6328
vn 0.7613 0.4718 0.4448
vn -0.4839 -0.3955 -0.7806
vn 0.5598 -0.6272 -0.5415
vn -0.9337 -0.3328 0.1323
vn -0.4727 -0.7852 0.4000
vn 0.1179 -0.9855 0.1223
vn 0.5408 -0.7822 0.3093
vn 0.9771 0.0030 -0.2126
vn 0.9271 0.3228 -0.1903
vn 0.1645 0.9824 -0.0888
vn 0.0259 0.9125 -0.4084
vn -0.6213 0.7542 0.2124
vn -0.8314 0.5540 0.0428
vn -0.6733 -0.6249 -0.3952
vn -0.5986 -0.3831 -0.7035
vn -0.8685 -0.0968 0.4862
vn -0.9730 0.2102 0.0951
vn -0.0107 0.6995 0.7145
vn -0.0910 0.7238 0.6840
vn 0.2610 -0.6985 -0.6663
vn 0.3892 -0.6992 -0.5997
vn 0.7606 0.6411 0.1019
vn 0.8948 0.2142 0.3917
vn 0.6545 0.7459 -0.1239
vn 0.2729 0.8923 -0.3597
vn -0.3536 -0.8120 -0.4643
vn -0.2952 -0.6566 -0.6941
vn -0.1201 0.9921 -0.0373
vn -0.4343 0.8729 -0.2223
vn -0.9158 -0.1437 0.3750
vn -0.9477 0.3149 0.0526
vn -0.9342 -0.0484 0.3535
vn -0.8481 -0.4188 0.3246
vn 0.0754 0.7857 0.6139
vn -0.0863 0.7274 0.6808
vn 0.5093 -0.8585 -0.0598
vn 0.9017 -0.4300 0.0446
vn 0.5771 -0.3831 -0.7212
vn 0.6161 -0.6052 -0.5042
vn -0.0591 -0.9913 0.1173
vn 0.0489 -0.8995 0.4341
vn 0.8553 0.4993 0.1387
vn 0.8423 0.2248 0.4899
vn -0.9079 0.0414 0.4170
vn -0.1807 -0.9827 -0.0406
vn 0.6729 -0.6449 -0.3623
vn 0.7052 0.6916 -0.1562
vn -0.1125 0.9398 0.3228
vn 0.9525 0.0535 -0.2997
vn 0.1552 0.9795 0.1286
vn -0.6141 0.6246 0.4825
vn 0.1302 -0.9605 -0.2458
vn -0.4224 -0.9031 0.0774
# 403 vertex normals

vt 0.5000 0.0000 0.0000
vt 0.8500 0.0000 1.0000
vt 0.7500 0.0000 1.0000
vt 0.9500 0.0000 1.0000
vt 0.9087 0.0000 1.0000
vt 0.0500 0.0000 1.0000
vt -0.0500 0.0000 1.0000
vt 0.0913 0.0000 1.0000
vt 0.2500 0.0000 1.0000
vt 0.1500 0.0000 1.0000
vt 0.3087 0.0000 1.0000
vt 0.2913 0.0000 1.0000
vt 0.4500 0.0000 1.0000
vt 0.3500 0.0000 1.0000
vt 0.5087 0.0000 1.0000
vt 0.4913 0.0000 1.0000
vt 0.6500 0.0000 1.0000
vt 0.5500 0.0000 1.0000
vt 0.7087 0.0000 1.0000
vt 0.6913 0.0000 1.0000
vt 0.7500 1.0000 1.0000
vt 0.8500 1.0000 1.0000
vt 0.5000 1.0000 0.0000
vt 0.8913 1.0000 1.0000
vt 0.9087 1.0000 1.0000
vt -0.0500 1.0000 1.0000
vt 0.0500 1.0000 1.0000
vt 0.0913 1.0000 1.0000
vt 0.1087 1.0000 1.0000
vt 0.1500 1.0000 1.0000
vt 0.2500 1.0000 1.0000
vt 0.2913 1.0000 1.0000
vt 0.3087 1.0000 1.0000
vt 0.3500 1.0000 1.0000
vt 0.4500 1.0000 1.0000
vt 0.4913 1.0000 1.0000
vt 0.5087 1.0000 1.0000
vt 0.5500 1.0000 1.0000
vt 0.6500 1.0000 1.0000
vt 0.6913 1.0000 1.0000
vt 0.7087 1.0000 1.0000
vt 0.9500 1.0000 1.0000
vt 0.8913 0.0000 1.0000
vt 0.1087 0.0000 1.0000
vt 0.8500 0.1250 1.0000
vt 0.7500 0.1250 1.0000
vt 0.0500 0.1250 1.0000
vt -0.0500 0.1250 1.0000
vt 0.2500 0.1250 1.0000
vt 0.1500 0.1250 1.0000
vt 0.4500 0.1250 1.0000
vt 0.3500 0.1250 1.0000
vt 0.6500 0.1250 1.0000
vt 0.5500 0.1250 1.0000
vt 0.7500 0.8750 1.0000
vt -0.0500 0.8750 1.0000
vt 0.1500 0.8750 1.0000
vt 0.3500 0.8750 1.0000
vt 0.5500 0.8750 1.0000
vt 0.2500 0.8750 1.0000
vt 0.4500 0.8750 1.0000
vt 0.6500 0.8750 1.0000
vt 0.0500 0.8750 1.0000
vt 0.8500 0.8750 1.0000
vt 0.9500 0.8750 1.0000
vt 0.9500 0.1250 1.0000
vt 0.8500 0.6250 1.0000
vt 0.7500 0.6250 1.0000
vt 0.7500 0.5000 1.0000
vt 0.8500 0.5000 1.0000
vt 0.0500 0.6250 1.0000
vt -0.0500 0.6250 1.0000
vt -0.0500 0.5000 1.0000
vt 0.0500 0.5000 1.0000
vt 0.2500 0.6250 1.0000
vt 0.1500 0.6250 1.0000
vt 0.1500 0.5000 1.0000
vt 0.2500 0.5000 1.0000
vt 0.4500 0.6250 1.0000
vt 0.3500 0.6250 1.0000
vt 0.3500 0.5000 1.0000
vt 0.4500 0.5000 1.0000
vt 0.6500 0.6250 1.0000
vt 0.5500 0.6250 1.0000
vt 0.5500 0.5000 1.0000
vt 0.6500 0.5000 1.0000
vt 0.7500 0.3750 1.0000
vt -0.0500 0.3750 1.0000
vt 0.1500 0.3750 1.0000
vt 0.3500 0.3750 1.0000
vt 0.5500 0.3750 1.0000
vt 0.2500 0.3750 1.0000
vt 0.4500 0.3750 1.0000
vt 0.6500 0.3750 1.0000
vt 0.0500 0.3750 1.0000
vt 0.8500 0.3750 1.0000
vt 0.9500 0.3750 1.0000
vt 0.9500 0.5000 1.0000
vt 0.9500 0.6250 1.0000
vt 0.7500 0.2500 1.0000
vt 0.8500 0.2500 1.0000
vt -0.0500 0.2500 1.0000
vt 0.0500 0.2500 1.0000
vt 0.1500 0.2500 1.0000
vt 0.2500 0.2500 1.0000
vt 0.3500 0.2500 1.0000
vt 0.4500 0.2500 1.0000
vt 0.5500 0.2500 1.0000
vt 0.6500 0.2500 1.0000
vt 0.7500 0.7500 1.0000
vt -0.0500 0.7500 1.0000
vt 0.1500 0.7500 1.0000
vt 0.3500 0.7500 1.0000
vt 0.5500 0.7500 1.0000
vt 0.2500 0.7500 1.0000
vt 0.4500 0.7500 1.0000
vt 0.6500 0.7500 1.0000
vt 0.0500 0.7500 1.0000
vt 0.9500 0.7500 1.0000
vt 0.8500 0.7500 1.0000
vt 0.9500 0.2500 1.0000
# 121 texture coords

o Red_Licorice_Vine
g Red_Licorice_Vine
usemtl wire_228214153
s 1
f 1/1/1 2/2/2 3/3/3 
f 1/1/1 4/4/4 5/5/5 
f 1/1/1 6/6/6 4/7/4 
f 1/1/1 7/8/7 6/6/6 
f 1/1/1 8/9/8 9/10/9 
f 1/1/1 10/11/10 11/12/11 
f 1/1/1 12/13/12 13/14/13 
f 1/1/1 14/15/14 15/16/15 
f 1/1/1 1/1/16 16/17/17 17/18/18 
f 18/19/19 19/20/20 1/1/16 
f 20/21/21 21/22/22 22/23/23 
f 23/24/24 24/25/25 22/23/23 
f 25/26/26 26/27/27 22/23/23 
f 27/28/28 28/29/29 22/23/23 
f 29/30/30 30/31/31 22/23/23 
f 31/32/32 32/33/33 22/23/23 
f 33/34/34 34/35/35 22/23/23 
f 35/36/36 36/37/37 22/23/23 
f 37/38/38 38/39/39 22/23/23 
f 39/40/40 40/41/41 22/23/23 
s off
f 3/3/3 2/2/2 41/2/42 42/3/43 
f 21/22/22 20/21/21 43/21/44 44/22/45 
f 4/7/4 6/6/6 45/6/46 46/7/47 
f 26/27/27 25/26/26 47/26/48 48/27/49 
f 9/10/9 8/9/8 49/9/50 50/10/51 
f 30/31/31 29/30/30 51/30/52 52/31/53 
f 13/14/13 12/13/12 53/13/54 54/14/55 
f 34/35/35 33/34/34 55/34/56 56/35/57 
f 17/18/18 16/17/17 57/17/58 58/18/59 
f 38/39/39 37/38/38 59/38/60 60/39/61 
f 11/9/11 10/14/10 61/14/62 62/9/63 
f 32/34/33 31/31/32 63/31/64 64/34/65 
f 15/13/15 14/18/14 65/18/66 66/13/67 
f 36/38/37 35/35/36 67/35/68 68/38/69 
f 19/17/20 18/3/19 69/3/70 70/17/71 
f 40/21/41 39/39/40 71/39/72 72/21/73 
f 7/6/7 73/10/74 74/10/75 75/6/76 
f 28/30/29 27/27/28 76/27/77 77/30/78 
f 78/2/79 5/4/5 79/4/80 80/2/81 
f 24/42/25 23/22/24 81/22/82 82/42/83 
s 1
f 28/29/29 29/30/30 22/23/23 
f 22/23/23 26/27/27 27/28/28 
f 24/25/25 25/42/26 22/23/23 
f 22/23/23 21/22/22 23/24/24 
f 40/41/41 20/21/21 22/23/23 
f 22/23/23 38/39/39 39/40/40 
f 22/23/23 34/35/35 35/36/36 
f 36/37/37 37/38/38 22/23/23 
f 22/23/23 30/31/31 31/32/32 
f 32/33/33 33/34/34 22/23/23 
f 11/12/11 8/9/8 1/1/1 
f 1/1/1 13/14/13 10/11/10 
f 15/16/15 12/13/12 1/1/1 
f 1/1/1 17/18/18 14/15/14 
f 19/20/20 16/17/17 1/1/16 
f 1/1/16 1/1/1 3/3/3 18/19/19 
f 78/43/79 2/2/2 1/1/1 
f 1/1/1 5/5/5 78/43/79 
f 1/1/1 9/10/9 73/44/74 
f 73/44/74 7/8/7 1/1/1 
s 8
f 41/2/42 83/45/84 84/46/85 42/3/43 
f 45/6/46 85/47/86 86/48/87 46/7/47 
f 49/9/50 87/49/88 88/50/89 50/10/51 
f 53/13/54 89/51/90 90/52/91 54/14/55 
f 57/17/58 91/53/92 92/54/93 58/18/59 
s off
f 93/45/94 83/45/84 41/2/42 2/2/2 
f 94/55/95 95/55/96 96/21/97 97/21/98 
f 98/47/99 85/47/86 45/6/46 6/6/6 
f 99/56/100 100/56/101 101/26/102 102/26/103 
f 103/49/104 87/49/88 49/9/50 8/9/8 
f 104/57/105 105/57/106 106/30/107 107/30/108 
f 108/51/109 89/51/90 53/13/54 12/13/12 
f 109/58/110 110/58/111 111/34/112 112/34/113 
f 113/53/114 91/53/92 57/17/58 16/17/17 
f 114/59/115 115/59/116 116/38/117 117/38/118 
s 2
f 118/31/119 119/60/120 120/58/121 121/34/122 
f 122/35/123 123/61/124 124/59/125 125/38/126 
f 126/39/127 127/62/128 128/55/129 129/21/130 
f 130/27/131 131/63/132 132/57/133 133/30/134 
f 134/22/135 135/64/136 136/65/137 137/42/138 
s off
f 138/52/139 139/52/140 10/14/10 13/14/13 
f 140/60/141 141/60/142 142/31/143 143/31/144 
f 144/54/145 145/54/146 14/18/14 17/18/18 
f 146/61/147 147/61/148 148/35/149 149/35/150 
f 150/46/151 151/46/152 18/3/19 3/3/3 
f 152/62/153 153/62/154 154/39/155 155/39/156 
f 156/50/157 157/50/158 73/10/74 9/10/9 
f 158/63/159 159/63/160 160/27/161 161/27/162 
f 162/66/163 163/66/164 5/4/5 4/4/4 
f 164/64/165 165/64/166 166/22/167 167/22/168 
f 139/52/140 168/52/169 61/14/62 10/14/10 
f 141/60/142 119/60/120 118/31/119 142/31/143 
f 145/54/146 169/54/170 65/18/66 14/18/14 
f 147/61/148 123/61/124 122/35/123 148/35/149 
f 151/46/152 170/46/171 69/3/70 18/3/19 
f 153/62/154 127/62/128 126/39/127 154/39/155 
f 157/50/158 171/50/172 74/10/75 73/10/74 
f 159/63/160 131/63/132 130/27/131 160/27/161 
f 163/66/164 172/66/173 79/4/80 5/4/5 
f 165/64/166 135/64/136 134/22/135 166/22/167 
s 8
f 173/67/174 174/68/175 175/69/176 176/70/177 
f 177/71/178 178/72/179 179/73/180 180/74/181 
f 181/75/182 182/76/183 183/77/184 184/78/185 
f 185/79/186 186/80/187 187/81/188 188/82/189 
f 189/83/190 190/84/191 191/85/192 192/86/193 
s off
f 193/67/194 173/67/174 176/70/177 194/70/195 
f 195/87/196 196/87/197 175/69/176 197/69/198 
f 198/71/199 177/71/178 180/74/181 199/74/200 
f 200/88/201 201/88/202 179/73/180 202/73/203 
f 203/75/204 181/75/182 184/78/185 204/78/205 
f 205/89/206 206/89/207 183/77/184 207/77/208 
f 208/79/209 185/79/186 188/82/189 209/82/210 
f 210/90/211 211/90/212 187/81/188 212/81/213 
f 213/83/214 189/83/190 192/86/193 214/86/215 
f 215/91/216 216/91/217 191/85/192 217/85/218 
s 2
f 218/92/219 219/90/220 220/81/221 221/78/222 
f 222/93/223 223/91/224 224/85/225 225/82/226 
f 226/94/227 227/87/228 228/69/229 229/86/230 
f 230/95/231 231/89/232 232/77/233 233/74/234 
f 234/96/235 235/97/236 236/98/237 237/70/238 
s off
f 238/80/239 239/80/240 240/81/241 212/81/213 
f 241/92/242 242/92/243 243/78/244 204/78/205 
f 244/84/245 245/84/246 246/85/247 217/85/218 
f 247/93/248 248/93/249 249/82/250 209/82/210 
f 250/68/251 251/68/252 252/69/253 197/69/198 
f 253/94/254 254/94/255 255/86/256 214/86/215 
f 256/76/257 257/76/258 258/77/259 207/77/208 
f 259/95/260 260/95/261 261/74/262 199/74/200 
f 262/99/263 263/99/264 264/98/265 202/98/203 
f 265/96/266 266/96/267 267/70/268 194/70/195 
f 239/80/240 268/80/269 220/81/221 240/81/241 
f 242/92/243 218/92/219 221/78/222 243/78/244 
f 245/84/246 269/84/270 224/85/225 246/85/247 
f 248/93/249 222/93/223 225/82/226 249/82/250 
f 251/68/252 270/68/271 228/69/229 252/69/253 
f 254/94/255 226/94/227 229/86/230 255/86/256 
f 257/76/258 271/76/272 232/77/233 258/77/259 
f 260/95/261 230/95/231 233/74/234 261/74/262 
f 263/99/264 272/99/273 236/98/237 264/98/265 
f 266/96/267 234/96/235 237/70/238 267/70/268 
s 8
f 273/96/274 196/87/197 274/100/275 275/101/276 
f 276/95/277 201/88/202 277/102/278 278/103/279 
f 279/92/280 206/89/207 280/104/281 281/105/282 
f 282/93/283 211/90/212 283/106/284 284/107/285 
f 285/94/286 216/91/217 286/108/287 287/109/288 
s off
f 265/96/266 273/96/274 275/101/276 288/101/289 
f 250/68/251 174/68/175 289/110/290 290/110/291 
f 259/95/260 276/95/277 278/103/279 291/103/292 
f 262/72/263 178/72/179 292/111/293 293/111/294 
f 241/92/242 279/92/280 281/105/282 294/105/295 
f 256/76/257 182/76/183 295/112/296 296/112/297 
f 247/93/248 282/93/283 284/107/285 297/107/298 
f 238/80/239 186/80/187 298/113/299 299/113/300 
f 253/94/254 285/94/286 287/109/288 300/109/301 
f 244/84/245 190/84/191 301/114/302 302/114/303 
s 2
f 303/75/304 268/80/269 304/113/305 305/115/306 
f 306/79/307 269/84/270 307/114/308 308/116/309 
f 309/83/310 270/68/271 310/110/311 311/117/312 
f 312/71/313 271/76/272 313/112/314 314/118/315 
f 315/67/316 272/99/273 316/119/317 317/120/318 
s off
f 210/90/211 318/90/319 319/106/320 320/106/321 
f 203/75/204 321/75/322 322/115/323 323/115/324 
f 215/91/216 324/91/325 325/108/326 326/108/327 
f 208/79/209 327/79/328 328/116/329 329/116/330 
f 195/87/196 330/87/331 331/100/332 332/100/333 
f 213/83/214 333/83/334 334/117/335 335/117/336 
f 205/89/206 336/89/337 337/104/338 338/104/339 
f 198/71/199 339/71/340 340/118/341 341/118/342 
f 200/97/201 342/97/343 343/121/344 344/121/345 
f 193/67/194 345/67/346 346/120/347 347/120/348 
f 318/90/319 219/90/220 348/106/349 319/106/320 
f 321/75/322 303/75/304 305/115/306 322/115/323 
f 324/91/325 223/91/224 349/108/350 325/108/326 
f 327/79/328 306/79/307 308/116/309 328/116/329 
f 330/87/331 227/87/228 350/100/351 331/100/332 
f 333/83/334 309/83/310 311/117/312 334/117/335 
f 336/89/337 231/89/232 351/104/352 337/104/338 
f 339/71/340 312/71/313 314/118/315 340/118/341 
f 342/97/343 235/97/236 352/121/353 343/121/344 
f 345/67/346 315/67/316 317/120/318 346/120/347 
s 8
f 353/64/354 95/55/96 289/110/290 354/120/355 
f 355/63/356 100/56/101 292/111/293 356/118/357 
f 357/60/358 105/57/106 295/112/296 358/115/359 
f 359/61/360 110/58/111 298/113/299 360/116/361 
f 361/62/362 115/59/116 301/114/302 362/117/363 
s off
f 164/64/165 353/64/354 354/120/355 347/120/348 
f 150/46/151 84/46/85 274/100/275 332/100/333 
f 158/63/159 355/63/356 356/118/357 341/118/342 
f 162/48/163 86/48/87 277/102/278 344/102/345 
f 140/60/141 357/60/358 358/115/359 323/115/324 
f 156/50/157 88/50/89 280/104/281 338/104/339 
f 146/61/147 359/61/360 360/116/361 329/116/330 
f 138/52/139 90/52/91 283/106/284 320/106/321 
f 152/62/153 361/62/362 362/117/363 335/117/336 
f 144/54/145 92/54/93 286/108/287 326/108/327 
s 2
f 363/49/364 168/52/169 348/106/349 364/105/365 
f 365/51/366 169/54/170 349/108/350 366/107/367 
f 367/53/368 170/46/171 350/100/351 368/109/369 
f 369/47/370 171/50/172 351/104/352 370/103/371 
f 371/45/372 172/66/173 352/121/353 372/101/373 
s off
f 109/58/110 373/58/374 374/113/375 299/113/300 
f 103/49/104 375/49/376 376/105/377 294/105/295 
f 114/59/115 377/59/378 378/114/379 302/114/303 
f 108/51/109 379/51/380 380/107/381 297/107/298 
f 94/55/95 381/55/382 382/110/383 290/110/291 
f 113/53/114 383/53/384 384/109/385 300/109/301 
f 104/57/105 385/57/386 386/112/387 296/112/297 
f 98/47/99 387/47/388 388/103/389 291/103/292 
f 99/65/100 389/65/390 390/119/391 293/119/294 
f 93/45/94 391/45/392 392/101/393 288/101/289 
f 373/58/374 120/58/121 304/113/305 374/113/375 
f 375/49/376 363/49/364 364/105/365 376/105/377 
f 377/59/378 124/59/125 307/114/308 378/114/379 
f 379/51/380 365/51/366 366/107/367 380/107/381 
f 381/55/382 128/55/129 310/110/311 382/110/383 
f 383/53/384 367/53/368 368/109/369 384/109/385 
f 385/57/386 132/57/133 313/112/314 386/112/387 
f 387/47/388 369/47/370 370/103/371 388/103/389 
f 389/65/390 136/65/137 316/119/317 390/119/391 
f 391/45/392 371/45/372 372/101/373 392/101/393 
s 8
f 275/101/276 274/100/275 84/46/85 83/45/84 
f 278/103/279 277/102/278 86/48/87 85/47/86 
f 281/105/282 280/104/281 88/50/89 87/49/88 
f 284/107/285 283/106/284 90/52/91 89/51/90 
f 287/109/288 286/108/287 92/54/93 91/53/92 
s off
f 288/101/289 275/101/276 83/45/84 93/45/94 
f 290/110/291 289/110/290 95/55/96 94/55/95 
f 291/103/292 278/103/279 85/47/86 98/47/99 
f 293/111/294 292/111/293 100/56/101 99/56/100 
f 294/105/295 281/105/282 87/49/88 103/49/104 
f 296/112/297 295/112/296 105/57/106 104/57/105 
f 297/107/298 284/107/285 89/51/90 108/51/109 
f 299/113/300 298/113/299 110/58/111 109/58/110 
f 300/109/301 287/109/288 91/53/92 113/53/114 
f 302/114/303 301/114/302 115/59/116 114/59/115 
s 2
f 305/115/306 304/113/305 120/58/121 119/60/120 
f 308/116/309 307/114/308 124/59/125 123/61/124 
f 311/117/312 310/110/311 128/55/129 127/62/128 
f 314/118/315 313/112/314 132/57/133 131/63/132 
f 317/120/318 316/119/317 136/65/137 135/64/136 
s off
f 320/106/321 319/106/320 139/52/140 138/52/139 
f 323/115/324 322/115/323 141/60/142 140/60/141 
f 326/108/327 325/108/326 145/54/146 144/54/145 
f 329/116/330 328/116/329 147/61/148 146/61/147 
f 332/100/333 331/100/332 151/46/152 150/46/151 
f 335/117/336 334/117/335 153/62/154 152/62/153 
f 338/104/339 337/104/338 157/50/158 156/50/157 
f 341/118/342 340/118/341 159/63/160 158/63/159 
f 344/121/345 343/121/344 163/66/164 162/66/163 
f 347/120/348 346/120/347 165/64/166 164/64/165 
f 319/106/320 348/106/349 168/52/169 139/52/140 
f 322/115/323 305/115/306 119/60/120 141/60/142 
f 325/108/326 349/108/350 169/54/170 145/54/146 
f 328/116/329 308/116/309 123/61/124 147/61/148 
f 331/100/332 350/100/351 170/46/171 151/46/152 
f 334/117/335 311/117/312 127/62/128 153/62/154 
f 337/104/338 351/104/352 171/50/172 157/50/158 
f 340/118/341 314/118/315 131/63/132 159/63/160 
f 343/121/344 352/121/353 172/66/173 163/66/164 
f 346/120/347 317/120/318 135/64/136 165/64/166 
s 8
f 354/120/355 289/110/290 174/68/175 173/67/174 
f 356/118/357 292/111/293 178/72/179 177/71/178 
f 358/115/359 295/112/296 182/76/183 181/75/182 
f 360/116/361 298/113/299 186/80/187 185/79/186 
f 362/117/363 301/114/302 190/84/191 189/83/190 
s off
f 347/120/348 354/120/355 173/67/174 193/67/194 
f 332/100/333 274/100/275 196/87/197 195/87/196 
f 341/118/342 356/118/357 177/71/178 198/71/199 
f 344/102/345 277/102/278 201/88/202 200/88/201 
f 323/115/324 358/115/359 181/75/182 203/75/204 
f 338/104/339 280/104/281 206/89/207 205/89/206 
f 329/116/330 360/116/361 185/79/186 208/79/209 
f 320/106/321 283/106/284 211/90/212 210/90/211 
f 335/117/336 362/117/363 189/83/190 213/83/214 
f 326/108/327 286/108/287 216/91/217 215/91/216 
s 2
f 364/105/365 348/106/349 219/90/220 218/92/219 
f 366/107/367 349/108/350 223/91/224 222/93/223 
f 368/109/369 350/100/351 227/87/228 226/94/227 
f 370/103/371 351/104/352 231/89/232 230/95/231 
f 372/101/373 352/121/353 235/97/236 234/96/235 
s off
f 299/113/300 374/113/375 239/80/240 238/80/239 
f 294/105/295 376/105/377 242/92/243 241/92/242 
f 302/114/303 378/114/379 245/84/246 244/84/245 
f 297/107/298 380/107/381 248/93/249 247/93/248 
f 290/110/291 382/110/383 251/68/252 250/68/251 
f 300/109/301 384/109/385 254/94/255 253/94/254 
f 296/112/297 386/112/387 257/76/258 256/76/257 
f 291/103/292 388/103/389 260/95/261 259/95/260 
f 293/119/294 390/119/391 263/99/264 262/99/263 
f 288/101/289 392/101/393 266/96/267 265/96/266 
f 374/113/375 304/113/305 268/80/269 239/80/240 
f 376/105/377 364/105/365 218/92/219 242/92/243 
f 378/114/379 307/114/308 269/84/270 245/84/246 
f 380/107/381 366/107/367 222/93/223 248/93/249 
f 382/110/383 310/110/311 270/68/271 251/68/252 
f 384/109/385 368/109/369 226/94/227 254/94/255 
f 386/112/387 313/112/314 271/76/272 257/76/258 
f 388/103/389 370/103/371 230/95/231 260/95/261 
f 390/119/391 316/119/317 272/99/273 263/99/264 
f 392/101/393 372/101/373 234/96/235 266/96/267 
s 8
f 176/70/177 175/69/176 196/87/197 273/96/274 
f 180/74/181 179/73/180 201/88/202 276/95/277 
f 184/78/185 183/77/184 206/89/207 279/92/280 
f 188/82/189 187/81/188 211/90/212 282/93/283 
f 192/86/193 191/85/192 216/91/217 285/94/286 
s off
f 194/70/195 176/70/177 273/96/274 265/96/266 
f 197/69/198 175/69/176 174/68/175 250/68/251 
f 199/74/200 180/74/181 276/95/277 259/95/260 
f 202/73/203 179/73/180 178/72/179 262/72/263 
f 204/78/205 184/78/185 279/92/280 241/92/242 
f 207/77/208 183/77/184 182/76/183 256/76/257 
f 209/82/210 188/82/189 282/93/283 247/93/248 
f 212/81/213 187/81/188 186/80/187 238/80/239 
f 214/86/215 192/86/193 285/94/286 253/94/254 
f 217/85/218 191/85/192 190/84/191 244/84/245 
s 2
f 221/78/222 220/81/221 268/80/269 303/75/304 
f 225/82/226 224/85/225 269/84/270 306/79/307 
f 229/86/230 228/69/229 270/68/271 309/83/310 
f 233/74/234 232/77/233 271/76/272 312/71/313 
f 237/70/238 236/98/237 272/99/273 315/67/316 
s off
f 212/81/213 240/81/241 318/90/319 210/90/211 
f 204/78/205 243/78/244 321/75/322 203/75/204 
f 217/85/218 246/85/247 324/91/325 215/91/216 
f 209/82/210 249/82/250 327/79/328 208/79/209 
f 197/69/198 252/69/253 330/87/331 195/87/196 
f 214/86/215 255/86/256 333/83/334 213/83/214 
f 207/77/208 258/77/259 336/89/337 205/89/206 
f 199/74/200 261/74/262 339/71/340 198/71/199 
f 202/98/203 264/98/265 342/97/343 200/97/201 
f 194/70/195 267/70/268 345/67/346 193/67/194 
f 240/81/241 220/81/221 219/90/220 318/90/319 
f 243/78/244 221/78/222 303/75/304 321/75/322 
f 246/85/247 224/85/225 223/91/224 324/91/325 
f 249/82/250 225/82/226 306/79/307 327/79/328 
f 252/69/253 228/69/229 227/87/228 330/87/331 
f 255/86/256 229/86/230 309/83/310 333/83/334 
f 258/77/259 232/77/233 231/89/232 336/89/337 
f 261/74/262 233/74/234 312/71/313 339/71/340 
f 264/98/265 236/98/237 235/97/236 342/97/343 
f 267/70/268 237/70/238 315/67/316 345/67/346 
s 8
f 393/22/394 96/21/97 95/55/96 353/64/354 
f 394/27/395 101/26/102 100/56/101 355/63/356 
f 395/31/396 106/30/107 105/57/106 357/60/358 
f 396/35/397 111/34/112 110/58/111 359/61/360 
f 397/39/398 116/38/117 115/59/116 361/62/362 
s off
f 167/22/168 393/22/394 353/64/354 164/64/165 
f 3/3/3 42/3/43 84/46/85 150/46/151 
f 161/27/162 394/27/395 355/63/356 158/63/159 
f 4/7/4 46/7/47 86/48/87 162/48/163 
f 143/31/144 395/31/396 357/60/358 140/60/141 
f 9/10/9 50/10/51 88/50/89 156/50/157 
f 149/35/150 396/35/397 359/61/360 146/61/147 
f 13/14/13 54/14/55 90/52/91 138/52/139 
f 155/39/156 397/39/398 361/62/362 152/62/153 
f 17/18/18 58/18/59 92/54/93 144/54/145 
s 2
f 62/9/63 61/14/62 168/52/169 363/49/364 
f 66/13/67 65/18/66 169/54/170 365/51/366 
f 70/17/71 69/3/70 170/46/171 367/53/368 
f 75/6/76 74/10/75 171/50/172 369/47/370 
f 80/2/81 79/4/80 172/66/173 371/45/372 
s off
f 112/34/113 398/34/399 373/58/374 109/58/110 
f 8/9/8 11/9/11 375/49/376 103/49/104 
f 117/38/118 399/38/400 377/59/378 114/59/115 
f 12/13/12 15/13/15 379/51/380 108/51/109 
f 97/21/98 400/21/401 381/55/382 94/55/95 
f 16/17/17 19/17/20 383/53/384 113/53/114 
f 107/30/108 401/30/402 385/57/386 104/57/105 
f 6/6/6 7/6/7 387/47/388 98/47/99 
f 102/42/103 402/42/403 389/65/390 99/65/100 
f 2/2/2 78/2/79 391/45/392 93/45/94 
f 398/34/399 121/34/122 120/58/121 373/58/374 
f 11/9/11 62/9/63 363/49/364 375/49/376 
f 399/38/400 125/38/126 124/59/125 377/59/378 
f 15/13/15 66/13/67 365/51/366 379/51/380 
f 400/21/401 129/21/130 128/55/129 381/55/382 
f 19/17/20 70/17/71 367/53/368 383/53/384 
f 401/30/402 133/30/134 132/57/133 385/57/386 
f 7/6/7 75/6/76 369/47/370 387/47/388 
f 402/42/403 137/42/138 136/65/137 389/65/390 
f 78/2/79 80/2/81 371/45/372 391/45/392 
f 96/21/97 393/22/394 44/22/45 43/21/44 
f 393/22/394 167/22/168 21/22/22 44/22/45 
f 167/22/168 166/24/167 23/24/24 21/22/22 
f 166/22/167 134/22/135 81/22/82 23/22/24 
f 134/22/135 137/42/138 82/42/83 81/22/82 
f 137/42/138 402/42/403 24/42/25 82/42/83 
f 402/25/403 102/42/103 25/42/26 24/25/25 
f 102/26/103 101/26/102 47/26/48 25/26/26 
f 101/26/102 394/27/395 48/27/49 47/26/48 
f 394/27/395 161/27/162 26/27/27 48/27/49 
f 161/27/162 160/28/161 27/28/28 26/27/27 
f 160/27/161 130/27/131 76/27/77 27/27/28 
f 130/27/131 133/30/134 77/30/78 76/27/77 
f 133/30/134 401/30/402 28/30/29 77/30/78 
f 401/29/402 107/30/108 29/30/30 28/29/29 
f 107/30/108 106/30/107 51/30/52 29/30/30 
f 106/30/107 395/31/396 52/31/53 51/30/52 
f 395/31/396 143/31/144 30/31/31 52/31/53 
f 143/31/144 142/32/143 31/32/32 30/31/31 
f 142/31/143 118/31/119 63/31/64 31/31/32 
f 118/31/119 121/34/122 64/34/65 63/31/64 
f 121/34/122 398/34/399 32/34/33 64/34/65 
f 398/33/399 112/34/113 33/34/34 32/33/33 
f 112/34/113 111/34/112 55/34/56 33/34/34 
f 111/34/112 396/35/397 56/35/57 55/34/56 
f 396/35/397 149/35/150 34/35/35 56/35/57 
f 149/35/150 148/36/149 35/36/36 34/35/35 
f 148/35/149 122/35/123 67/35/68 35/35/36 
f 122/35/123 125/38/126 68/38/69 67/35/68 
f 125/38/126 399/38/400 36/38/37 68/38/69 
f 399/37/400 117/38/118 37/38/38 36/37/37 
f 117/38/118 116/38/117 59/38/60 37/38/38 
f 116/38/117 397/39/398 60/39/61 59/38/60 
f 397/39/398 155/39/156 38/39/39 60/39/61 
f 155/39/156 154/40/155 39/40/40 38/39/39 
f 154/39/155 126/39/127 71/39/72 39/39/40 
f 126/39/127 129/21/130 72/21/73 71/39/72 
f 129/21/130 400/21/401 40/21/41 72/21/73 
f 400/41/401 97/21/98 20/21/21 40/41/41 
f 97/21/98 96/21/97 43/21/44 20/21/21 
# 382 polygons - 38 triangles

