# 3ds Max Wavefront OBJ Exporter v0.99 - (c)2007 guruware
# File Created: 19.09.2026 03:30:21

mtllib Small Chocolate Bar.mtl

#
# object Small_Chocolate_Bar
#

v  122.1551 4.4420 3.9219
v  122.1551 4.4420 26.3039
v  126.0945 4.4420 26.3039
v  126.0945 4.4420 3.9219
v  122.1551 4.2982 3.3853
v  121.9370 4.2982 3.4572
v  121.7773 4.2982 3.6536
v  121.7189 4.2982 3.9219
v  121.7189 4.2982 26.3039
v  121.7773 4.2982 26.5722
v  121.9370 4.2982 26.7687
v  122.1551 4.2982 26.8406
v  126.0945 4.2982 26.8406
v  126.3126 4.2982 26.7687
v  126.4723 4.2982 26.5722
v  126.5307 4.2982 26.3039
v  126.5307 4.2982 3.9219
v  126.4723 4.2982 3.6536
v  126.3126 4.2982 3.4572
v  126.0945 4.2982 3.3853
v  122.1551 3.9054 2.9924
v  121.7773 3.9054 3.1169
v  121.5008 3.9054 3.4572
v  121.3996 3.9054 3.9219
v  121.3996 3.9054 26.3039
v  121.5008 3.9054 26.7687
v  121.7773 3.9054 27.1089
v  122.1551 3.9054 27.2334
v  126.0945 3.9054 27.2334
v  126.4723 3.9054 27.1089
v  126.7488 3.9054 26.7687
v  126.8501 3.9054 26.3039
v  126.8501 3.9054 3.9219
v  126.7488 3.9054 3.4572
v  126.4723 3.9054 3.1169
v  126.0945 3.9054 2.9924
v  122.0749 3.3688 2.8486
v  121.6210 3.3688 2.9924
v  121.2886 3.3688 3.3853
v  121.1670 3.3688 3.9219
v  121.1670 3.3688 26.3039
v  121.2886 3.3688 26.8406
v  121.6210 3.3688 27.2334
v  122.0749 3.3688 27.3772
v  126.1747 3.3688 27.3772
v  126.6286 3.3688 27.2334
v  126.9610 3.3688 26.8406
v  127.0826 3.3688 26.3039
v  127.0826 3.3688 3.9219
v  126.9610 3.3688 3.3853
v  126.6286 3.3688 2.9924
v  126.1747 3.3688 2.8486
v  121.7017 1.0783 2.8486
v  121.1651 1.0783 2.9924
v  120.7722 1.0783 3.3853
v  120.6284 1.0783 3.9219
v  120.6284 1.0783 26.3039
v  120.7722 1.0783 26.8406
v  121.1651 1.0783 27.2334
v  121.7017 1.0783 27.3772
v  126.5479 1.0783 27.3772
v  127.0845 1.0783 27.2334
v  127.4774 1.0783 26.8406
v  127.6212 1.0783 26.3039
v  127.6212 1.0783 3.9219
v  127.4774 1.0783 3.3853
v  127.0845 1.0783 2.9924
v  126.5479 1.0783 2.8486
# 68 vertices

vn -0.1351 0.9851 -0.1061
vn -0.1351 0.9851 0.1061
vn 0.1351 0.9851 0.1061
vn 0.1351 0.9851 -0.1061
vn -0.0863 0.8520 -0.5164
vn -0.3202 0.8333 -0.4507
vn -0.5252 0.8145 -0.2465
vn -0.5785 0.8132 -0.0634
vn -0.5785 0.8132 0.0634
vn -0.5252 0.8145 0.2465
vn -0.3202 0.8333 0.4507
vn -0.0863 0.8520 0.5164
vn 0.0863 0.8520 0.5164
vn 0.3202 0.8333 0.4507
vn 0.5252 0.8145 0.2465
vn 0.5785 0.8132 0.0634
vn 0.5785 0.8132 -0.0634
vn 0.5252 0.8145 -0.2465
vn 0.3202 0.8333 -0.4507
vn 0.0863 0.8520 -0.5164
vn -0.1288 0.4947 -0.8595
vn -0.4759 0.5060 -0.7194
vn -0.7701 0.5121 -0.3804
vn -0.8535 0.5129 -0.0917
vn -0.8535 0.5129 0.0917
vn -0.7701 0.5121 0.3804
vn -0.4759 0.5060 0.7194
vn -0.1288 0.4947 0.8595
vn 0.1288 0.4947 0.8595
vn 0.4759 0.5060 0.7194
vn 0.7701 0.5121 0.3804
vn 0.8535 0.5129 0.0917
vn 0.8535 0.5129 -0.0917
vn 0.7701 0.5121 -0.3804
vn 0.4759 0.5060 -0.7194
vn 0.1288 0.4947 -0.8595
vn -0.1477 0.1493 -0.9777
vn -0.5349 0.2176 -0.8164
vn -0.8552 0.2868 -0.4317
vn -0.9446 0.3110 -0.1053
vn -0.9446 0.3110 0.1053
vn -0.8552 0.2868 0.4317
vn -0.5349 0.2176 0.8164
vn -0.1477 0.1493 0.9777
vn 0.1477 0.1493 0.9777
vn 0.5349 0.2176 0.8164
vn 0.8552 0.2868 0.4317
vn 0.9446 0.3110 0.1053
vn 0.9446 0.3110 -0.1053
vn 0.8552 0.2868 -0.4317
vn 0.5349 0.2176 -0.8164
vn 0.1477 0.1493 -0.9777
vn -0.1066 -0.6703 -0.7344
vn -0.4132 -0.6139 -0.6726
vn -0.7131 -0.5789 -0.3954
vn -0.7995 -0.5917 -0.1033
vn -0.7995 -0.5917 0.1033
vn -0.7131 -0.5789 0.3954
vn -0.4132 -0.6139 0.6726
vn -0.1066 -0.6703 0.7344
vn 0.1066 -0.6703 0.7344
vn 0.4132 -0.6139 0.6726
vn 0.7131 -0.5789 0.3954
vn 0.7995 -0.5917 0.1033
vn 0.7995 -0.5917 -0.1033
vn 0.7131 -0.5789 -0.3954
vn 0.4132 -0.6139 -0.6726
vn 0.1066 -0.6703 -0.7344
# 68 vertex normals

vt 0.9212 0.0787 0.0000
vt 0.9212 0.8763 0.0000
vt 0.7808 0.8763 0.0000
vt 0.7808 0.0787 0.0000
vt 0.9212 0.0595 0.0000
vt 0.9290 0.0621 0.0000
vt 0.9347 0.0691 0.0000
vt 0.9368 0.0787 0.0000
vt 0.9368 0.8763 0.0000
vt 0.9347 0.8859 0.0000
vt 0.9290 0.8929 0.0000
vt 0.9212 0.8954 0.0000
vt 0.7808 0.8954 0.0000
vt 0.7730 0.8929 0.0000
vt 0.7674 0.8859 0.0000
vt 0.7653 0.8763 0.0000
vt 0.7653 0.0787 0.0000
vt 0.7674 0.0691 0.0000
vt 0.7730 0.0621 0.0000
vt 0.7808 0.0595 0.0000
vt 0.7011 0.2438 0.0000
vt 0.7209 0.2435 0.0000
vt 0.7180 0.2574 0.0000
vt 0.6994 0.2518 0.0000
vt 0.7096 0.2691 0.0000
vt 0.6946 0.2585 0.0000
vt 0.4235 0.9033 0.0000
vt 0.4095 0.9103 0.0000
vt 0.4095 0.8937 0.0000
vt 0.4235 0.8937 0.0000
vt 0.4095 0.0961 0.0000
vt 0.4235 0.0961 0.0000
vt 0.4095 0.0795 0.0000
vt 0.4235 0.0865 0.0000
vt 0.6110 0.4862 0.0000
vt 0.5926 0.4870 0.0000
vt 0.5926 0.4713 0.0000
vt 0.6110 0.4772 0.0000
vt 0.5976 0.4594 0.0000
vt 0.6139 0.4703 0.0000
vt 0.5808 0.3024 0.0000
vt 0.5948 0.3024 0.0000
vt 0.5948 0.4428 0.0000
vt 0.5808 0.4428 0.0000
vt 0.6393 0.4902 0.0000
vt 0.6200 0.4946 0.0000
vt 0.6200 0.4804 0.0000
vt 0.6393 0.4820 0.0000
vt 0.6258 0.4672 0.0000
vt 0.6427 0.4744 0.0000
vt 0.5412 0.9033 0.0000
vt 0.5272 0.9103 0.0000
vt 0.5272 0.8937 0.0000
vt 0.5412 0.8937 0.0000
vt 0.5272 0.0961 0.0000
vt 0.5412 0.0961 0.0000
vt 0.5272 0.0795 0.0000
vt 0.5412 0.0865 0.0000
vt 0.7159 0.1225 0.0000
vt 0.7167 0.1409 0.0000
vt 0.7010 0.1409 0.0000
vt 0.7069 0.1225 0.0000
vt 0.6974 0.1000 0.0000
vt 0.7157 0.0945 0.0000
vt 0.7191 0.1068 0.0000
vt 0.6993 0.1071 0.0000
vt 0.6955 0.2505 0.0000
vt 0.6815 0.2505 0.0000
vt 0.6815 0.1101 0.0000
vt 0.6955 0.1101 0.0000
vt 0.6624 0.1073 0.0000
vt 0.6624 0.0911 0.0000
vt 0.6815 0.0967 0.0000
vt 0.4095 0.9224 0.0000
vt 0.3904 0.9268 0.0000
vt 0.3904 0.9128 0.0000
vt 0.3904 0.8937 0.0000
vt 0.3904 0.0961 0.0000
vt 0.3904 0.0769 0.0000
vt 0.3904 0.0629 0.0000
vt 0.4095 0.0674 0.0000
vt 0.5948 0.2889 0.0000
vt 0.6139 0.2834 0.0000
vt 0.6139 0.2995 0.0000
vt 0.6139 0.4456 0.0000
vt 0.6139 0.4618 0.0000
vt 0.5948 0.4563 0.0000
vt 0.5272 0.9224 0.0000
vt 0.5081 0.9268 0.0000
vt 0.5081 0.9128 0.0000
vt 0.5081 0.8937 0.0000
vt 0.5081 0.0961 0.0000
vt 0.5081 0.0769 0.0000
vt 0.5081 0.0629 0.0000
vt 0.5272 0.0674 0.0000
vt 0.6815 0.2640 0.0000
vt 0.6624 0.2695 0.0000
vt 0.6624 0.2534 0.0000
vt 0.5808 0.0940 0.0000
vt 0.5808 0.0748 0.0000
vt 0.3087 0.9268 0.0000
vt 0.3087 0.9128 0.0000
vt 0.3087 0.8937 0.0000
vt 0.3087 0.0961 0.0000
vt 0.3087 0.0769 0.0000
vt 0.3087 0.0629 0.0000
vt 0.6955 0.2671 0.0000
vt 0.6955 0.2862 0.0000
vt 0.6955 0.4590 0.0000
vt 0.6955 0.4781 0.0000
vt 0.4265 0.9268 0.0000
vt 0.4265 0.9128 0.0000
vt 0.4265 0.8937 0.0000
vt 0.4265 0.0961 0.0000
vt 0.4265 0.0769 0.0000
vt 0.4265 0.0629 0.0000
vt 0.5808 0.2858 0.0000
vt 0.5808 0.2667 0.0000
vt 0.3068 0.1012 0.0000
vt 0.3068 0.8988 0.0000
vt 0.0576 0.8988 0.0000
vt 0.0576 0.1012 0.0000
vt 0.2686 0.9371 0.0000
vt 0.0958 0.9371 0.0000
vt 0.0958 0.0629 0.0000
vt 0.2686 0.0629 0.0000
vt 0.3017 0.9179 0.0000
vt 0.2877 0.9319 0.0000
vt 0.0767 0.9319 0.0000
vt 0.0627 0.9179 0.0000
vt 0.0627 0.0821 0.0000
vt 0.0767 0.0681 0.0000
vt 0.2877 0.0681 0.0000
vt 0.3017 0.0821 0.0000
# 134 texture coords

o Small_Chocolate_Bar
g Small_Chocolate_Bar
usemtl wire_006135058
s 1
f 1/1/1 2/2/2 3/3/3 4/4/4 
f 1/1/1 5/5/5 6/6/6 
f 1/1/1 6/6/6 7/7/7 
f 1/1/1 7/7/7 8/8/8 
f 1/1/1 8/8/8 9/9/9 2/2/2 
f 2/2/2 9/9/9 10/10/10 
f 2/2/2 10/10/10 11/11/11 
f 2/2/2 11/11/11 12/12/12 
f 2/2/2 12/12/12 13/13/13 3/3/3 
f 3/3/3 13/13/13 14/14/14 
f 3/3/3 14/14/14 15/15/15 
f 3/3/3 15/15/15 16/16/16 
f 3/3/3 16/16/16 17/17/17 4/4/4 
f 4/4/4 17/17/17 18/18/18 
f 4/4/4 18/18/18 19/19/19 
f 4/4/4 19/19/19 20/20/20 
f 4/4/4 20/20/20 5/5/5 1/1/1 
f 5/21/5 21/22/21 22/23/22 6/24/6 
f 6/24/6 22/23/22 23/25/23 7/26/7 
f 7/27/7 23/28/23 24/29/24 8/30/8 
f 8/30/8 24/29/24 25/31/25 9/32/9 
f 9/32/9 25/31/25 26/33/26 10/34/10 
f 10/35/10 26/36/26 27/37/27 11/38/11 
f 11/38/11 27/37/27 28/39/28 12/40/12 
f 12/41/12 28/42/28 29/43/29 13/44/13 
f 13/45/13 29/46/29 30/47/30 14/48/14 
f 14/48/14 30/47/30 31/49/31 15/50/15 
f 15/51/15 31/52/31 32/53/32 16/54/16 
f 16/54/16 32/53/32 33/55/33 17/56/17 
f 17/56/17 33/55/33 34/57/34 18/58/18 
f 18/59/18 34/60/34 35/61/35 19/62/19 
f 19/63/19 35/64/35 36/65/36 20/66/20 
f 20/67/20 36/68/36 21/69/21 5/70/5 
f 21/69/21 37/71/37 38/72/38 22/73/22 
f 22/74/22 38/75/38 39/76/39 23/28/23 
f 23/28/23 39/76/39 40/77/40 24/29/24 
f 24/29/24 40/77/40 41/78/41 25/31/25 
f 25/31/25 41/78/41 42/79/42 26/33/26 
f 26/33/26 42/79/42 43/80/43 27/81/27 
f 27/82/27 43/83/43 44/84/44 28/42/28 
f 28/42/28 44/84/44 45/85/45 29/43/29 
f 29/43/29 45/85/45 46/86/46 30/87/30 
f 30/88/30 46/89/46 47/90/47 31/52/31 
f 31/52/31 47/90/47 48/91/48 32/53/32 
f 32/53/32 48/91/48 49/92/49 33/55/33 
f 33/55/33 49/92/49 50/93/50 34/57/34 
f 34/57/34 50/93/50 51/94/51 35/95/35 
f 35/96/35 51/97/51 52/98/52 36/68/36 
f 36/68/36 52/98/52 37/71/37 21/69/21 
f 37/71/37 53/99/53 54/100/54 38/72/38 
f 38/75/38 54/101/54 55/102/55 39/76/39 
f 39/76/39 55/102/55 56/103/56 40/77/40 
f 40/77/40 56/103/56 57/104/57 41/78/41 
f 41/78/41 57/104/57 58/105/58 42/79/42 
f 42/79/42 58/105/58 59/106/59 43/80/43 
f 43/83/43 59/107/59 60/108/60 44/84/44 
f 44/84/44 60/108/60 61/109/61 45/85/45 
f 45/85/45 61/109/61 62/110/62 46/86/46 
f 46/89/46 62/111/62 63/112/63 47/90/47 
f 47/90/47 63/112/63 64/113/64 48/91/48 
f 48/91/48 64/113/64 65/114/65 49/92/49 
f 49/92/49 65/114/65 66/115/66 50/93/50 
f 50/93/50 66/115/66 67/116/67 51/94/51 
f 51/97/51 67/117/67 68/118/68 52/98/52 
f 52/98/52 68/118/68 53/99/53 37/71/37 
s 2
f 65/119/65 64/120/64 57/121/57 56/122/56 
s 4
f 57/121/57 64/120/64 61/123/61 60/124/60 
f 65/119/65 56/122/56 53/125/53 68/126/68 
s 8
f 61/123/61 64/120/64 63/127/63 62/128/62 
f 57/121/57 60/124/60 59/129/59 58/130/58 
f 53/125/53 56/122/56 55/131/55 54/132/54 
f 65/119/65 68/126/68 67/133/67 66/134/66 
# 60 polygons - 12 triangles

