# 3ds Max Wavefront OBJ Exporter v0.99 - (c)2007 guruware
# File Created: 03.09.2025 11:00:27

mtllib Sour Forrest Tree.mtl

#
# object Sour_Forrest_Tree
#

v  167.2061 5.3168 102.4104
v  169.4000 5.3168 101.6119
v  169.5408 5.3168 102.4104
v  168.9946 5.3168 100.9097
v  168.3735 5.3168 100.3885
v  167.6115 5.3168 100.1112
v  166.8007 5.3168 100.1112
v  166.0388 5.3168 100.3885
v  165.4176 5.3168 100.9097
v  165.0122 5.3168 101.6119
v  164.8714 5.3168 102.4104
v  165.0122 5.3168 103.2089
v  165.4176 5.3168 103.9111
v  166.0388 5.3168 104.4323
v  166.8007 5.3168 104.7096
v  167.6115 5.3168 104.7096
v  168.3735 5.3168 104.4323
v  168.9946 5.3168 103.9111
v  169.4000 5.3168 103.2089
v  171.5939 5.3168 100.8134
v  171.8755 5.3168 102.4104
v  170.7831 5.3168 99.4090
v  169.5408 5.3168 98.3666
v  168.0169 5.3168 97.8120
v  166.3953 5.3168 97.8120
v  164.8714 5.3168 98.3666
v  163.6292 5.3168 99.4090
v  162.8183 5.3168 100.8134
v  162.5367 5.3168 102.4104
v  162.8183 5.3168 104.0074
v  163.6292 5.3168 105.4118
v  164.8714 5.3168 106.4542
v  166.3953 5.3168 107.0088
v  168.0169 5.3168 107.0088
v  169.5408 5.3168 106.4542
v  170.7831 5.3168 105.4118
v  171.5939 5.3168 104.0074
v  170.0343 12.8919 101.3810
v  170.2158 12.8919 102.4104
v  169.5116 12.8919 100.4758
v  168.7109 12.8919 99.8040
v  167.7287 12.8919 99.4465
v  166.6835 12.8919 99.4465
v  165.7013 12.8919 99.8040
v  164.9006 12.8919 100.4758
v  164.3780 12.8919 101.3810
v  164.1965 12.8919 102.4104
v  164.3780 12.8919 103.4398
v  164.9006 12.8919 104.3450
v  165.7013 12.8919 105.0168
v  166.6835 12.8919 105.3743
v  167.7287 12.8919 105.3743
v  168.7109 12.8919 105.0168
v  169.5116 12.8919 104.3450
v  170.0342 12.8919 103.4398
v  173.6372 57.0322 102.4104
v  173.2494 57.0322 100.2108
v  170.2278 57.0322 101.3106
v  170.4217 57.0322 102.4104
v  172.1326 57.0322 98.2766
v  169.6694 57.0322 100.3435
v  170.4217 57.0322 96.8409
v  168.8139 57.0322 99.6256
v  168.3229 57.0322 96.0770
v  167.7645 57.0322 99.2437
v  166.0894 57.0322 96.0770
v  166.6477 57.0322 99.2437
v  163.9906 57.0322 96.8409
v  165.5983 57.0322 99.6256
v  162.2796 57.0322 98.2766
v  164.7429 57.0322 100.3435
v  161.1628 57.0322 100.2108
v  164.1845 57.0322 101.3106
v  160.7750 57.0322 102.4104
v  163.9906 57.0322 102.4104
v  161.1628 57.0322 104.6100
v  164.1845 57.0322 103.5102
v  162.2796 57.0322 106.5442
v  164.7429 57.0322 104.4773
v  163.9906 57.0322 107.9799
v  165.5983 57.0322 105.1952
v  166.0894 57.0322 108.7438
v  166.6477 57.0322 105.5771
v  168.3229 57.0322 108.7438
v  167.7645 57.0322 105.5771
v  170.4217 57.0322 107.9799
v  168.8139 57.0322 105.1952
v  172.1326 57.0322 106.5442
v  169.6694 57.0322 104.4773
v  173.2494 57.0322 104.6100
v  170.2278 57.0322 103.5102
v  167.2061 57.0322 102.4104
v  169.1247 27.6362 101.7121
v  169.2478 27.6362 102.4104
v  168.7702 27.6362 101.0980
v  168.2270 27.6362 100.6422
v  167.5607 27.6362 100.3997
v  166.8516 27.6362 100.3997
v  166.1853 27.6362 100.6422
v  165.6421 27.6362 101.0980
v  165.2875 27.6362 101.7121
v  165.1644 27.6362 102.4104
v  165.2875 27.6362 103.1087
v  165.6421 27.6362 103.7228
v  166.1853 27.6362 104.1786
v  166.8516 27.6362 104.4211
v  167.5607 27.6362 104.4211
v  168.2270 27.6362 104.1786
v  168.7702 27.6362 103.7228
v  169.1247 27.6362 103.1087
v  169.1247 36.1597 101.7121
v  169.2478 36.1597 102.4104
v  168.7702 36.1597 101.0980
v  168.2270 36.1597 100.6422
v  167.5607 36.1597 100.3997
v  166.8516 36.1597 100.3997
v  166.1853 36.1597 100.6422
v  165.6421 36.1597 101.0980
v  165.2875 36.1597 101.7121
v  165.1644 36.1597 102.4104
v  165.2875 36.1597 103.1087
v  165.6421 36.1597 103.7228
v  166.1853 36.1597 104.1786
v  166.8516 36.1597 104.4211
v  167.5607 36.1597 104.4211
v  168.2270 36.1597 104.1786
v  168.7702 36.1597 103.7228
v  169.1247 36.1597 103.1087
v  178.7214 39.6640 98.2192
v  179.4604 39.6640 102.4104
v  176.5935 39.6640 94.5335
v  173.3333 39.6640 91.7979
v  169.3340 39.6640 90.3423
v  165.0782 39.6640 90.3423
v  161.0790 39.6640 91.7979
v  157.8188 39.6640 94.5335
v  155.6908 39.6640 98.2192
v  154.9518 39.6640 102.4104
v  155.6908 39.6640 106.6016
v  157.8188 39.6640 110.2873
v  161.0790 39.6640 113.0229
v  165.0782 39.6640 114.4785
v  169.3340 39.6640 114.4785
v  173.3333 39.6640 113.0229
v  176.5934 39.6640 110.2873
v  178.7214 39.6640 106.6016
v  186.5201 44.7221 95.3807
v  187.7596 44.7221 102.4104
v  182.9510 44.7221 89.1988
v  177.4829 44.7221 84.6105
v  170.7752 44.7221 82.1691
v  163.6370 44.7221 82.1691
v  156.9294 44.7221 84.6105
v  151.4612 44.7221 89.1988
v  147.8921 44.7221 95.3807
v  146.6526 44.7221 102.4104
v  147.8921 44.7221 109.4401
v  151.4612 44.7221 115.6219
v  156.9294 44.7221 120.2103
v  163.6370 44.7221 122.6517
v  170.7752 44.7221 122.6517
v  177.4829 44.7221 120.2103
v  182.9510 44.7221 115.6220
v  186.5201 44.7221 109.4401
v  183.1306 52.1261 96.6144
v  184.1526 52.1261 102.4104
v  180.1879 52.1261 91.5174
v  175.6794 52.1261 87.7343
v  170.1488 52.1261 85.7214
v  164.2634 52.1261 85.7214
v  158.7329 52.1261 87.7343
v  154.2244 52.1261 91.5174
v  151.2816 52.1261 96.6144
v  150.2596 52.1261 102.4104
v  151.2816 52.1261 108.2064
v  154.2244 52.1261 113.3034
v  158.7329 52.1261 117.0865
v  164.2634 52.1261 119.0994
v  170.1488 52.1261 119.0994
v  175.6793 52.1261 117.0865
v  180.1879 52.1261 113.3034
v  183.1306 52.1261 108.2064
# 182 vertices

vn 0.0000 -1.0000 -0.0000
vn 0.7602 -0.5878 -0.2767
vn 0.8090 -0.5878 0.0000
vn 0.6197 -0.5878 -0.5200
vn 0.4045 -0.5878 -0.7006
vn 0.1405 -0.5878 -0.7967
vn -0.1405 -0.5878 -0.7967
vn -0.4045 -0.5878 -0.7006
vn -0.6197 -0.5878 -0.5200
vn -0.7602 -0.5878 -0.2767
vn -0.8090 -0.5878 0.0000
vn -0.7602 -0.5878 0.2767
vn -0.6197 -0.5878 0.5200
vn -0.4045 -0.5878 0.7006
vn -0.1405 -0.5878 0.7967
vn 0.1405 -0.5878 0.7967
vn 0.4045 -0.5878 0.7006
vn 0.6197 -0.5878 0.5200
vn 0.7602 -0.5878 0.2767
vn 0.9303 0.1413 -0.3386
vn 0.9900 0.1413 0.0000
vn 0.7584 0.1413 -0.6363
vn 0.4950 0.1413 -0.8573
vn 0.1719 0.1413 -0.9749
vn -0.1719 0.1413 -0.9749
vn -0.4950 0.1413 -0.8573
vn -0.7584 0.1413 -0.6363
vn -0.9303 0.1413 -0.3386
vn -0.9900 0.1413 -0.0000
vn -0.9303 0.1413 0.3386
vn -0.7584 0.1413 0.6363
vn -0.4950 0.1413 0.8573
vn -0.1719 0.1413 0.9749
vn 0.1719 0.1413 0.9749
vn 0.4950 0.1413 0.8573
vn 0.7584 0.1413 0.6363
vn 0.9303 0.1413 0.3386
vn 0.2392 0.9710 0.0000
vn 0.2248 0.9710 -0.0818
vn 0.0000 1.0000 -0.0000
vn 0.1833 0.9710 -0.1538
vn 0.1196 0.9710 -0.2072
vn 0.0415 0.9710 -0.2356
vn -0.0415 0.9710 -0.2356
vn -0.1196 0.9710 -0.2072
vn -0.1833 0.9710 -0.1538
vn -0.2248 0.9710 -0.0818
vn -0.2392 0.9710 -0.0000
vn -0.2248 0.9710 0.0818
vn -0.1833 0.9710 0.1538
vn -0.1196 0.9710 0.2072
vn -0.0415 0.9710 0.2356
vn 0.0415 0.9710 0.2356
vn 0.1196 0.9710 0.2072
vn 0.1833 0.9710 0.1538
vn 0.2248 0.9710 0.0818
vn 0.9392 0.0329 -0.3418
vn 0.9995 0.0329 -0.0000
vn 0.7656 0.0329 -0.6424
vn 0.4997 0.0329 -0.8656
vn 0.1736 0.0329 -0.9843
vn -0.1735 0.0329 -0.9843
vn -0.4997 0.0329 -0.8656
vn -0.7656 0.0329 -0.6424
vn -0.9392 0.0329 -0.3418
vn -0.9995 0.0329 -0.0000
vn -0.9392 0.0329 0.3418
vn -0.7656 0.0329 0.6424
vn -0.4997 0.0329 0.8656
vn -0.1736 0.0329 0.9843
vn 0.1736 0.0329 0.9843
vn 0.4997 0.0329 0.8656
vn 0.7656 0.0329 0.6424
vn 0.9392 0.0329 0.3418
vn 0.7420 -0.6136 -0.2701
vn 0.7896 -0.6136 -0.0000
vn 0.6049 -0.6136 -0.5076
vn 0.3948 -0.6136 -0.6838
vn 0.1371 -0.6136 -0.7776
vn -0.1371 -0.6136 -0.7776
vn -0.3948 -0.6136 -0.6838
vn -0.6049 -0.6136 -0.5076
vn -0.7420 -0.6136 -0.2700
vn -0.7896 -0.6136 -0.0000
vn -0.7420 -0.6136 0.2701
vn -0.6049 -0.6136 0.5076
vn -0.3948 -0.6136 0.6838
vn -0.1371 -0.6136 0.7776
vn 0.1371 -0.6136 0.7776
vn 0.3948 -0.6136 0.6838
vn 0.6049 -0.6136 0.5076
vn 0.7420 -0.6137 0.2701
vn 0.4085 -0.9006 -0.1487
vn 0.4347 -0.9006 0.0000
vn 0.3330 -0.9006 -0.2794
vn 0.2174 -0.9006 -0.3765
vn 0.0755 -0.9006 -0.4281
vn -0.0755 -0.9006 -0.4281
vn -0.2174 -0.9006 -0.3765
vn -0.3330 -0.9006 -0.2794
vn -0.4085 -0.9006 -0.1487
vn -0.4347 -0.9006 -0.0000
vn -0.4085 -0.9006 0.1487
vn -0.3330 -0.9006 0.2794
vn -0.2174 -0.9006 0.3765
vn -0.0755 -0.9006 0.4281
vn 0.0755 -0.9006 0.4281
vn 0.2174 -0.9006 0.3765
vn 0.3330 -0.9006 0.2794
vn 0.4085 -0.9006 0.1487
vn 0.9066 -0.2630 -0.3300
vn 0.9648 -0.2630 0.0000
vn 0.7391 -0.2630 -0.6202
vn 0.4824 -0.2630 -0.8355
vn 0.1675 -0.2630 -0.9501
vn -0.1675 -0.2630 -0.9501
vn -0.4824 -0.2630 -0.8355
vn -0.7391 -0.2630 -0.6202
vn -0.9066 -0.2630 -0.3300
vn -0.9648 -0.2630 0.0000
vn -0.9066 -0.2630 0.3300
vn -0.7391 -0.2630 0.6202
vn -0.4824 -0.2630 0.8355
vn -0.1675 -0.2630 0.9501
vn 0.1675 -0.2630 0.9501
vn 0.4824 -0.2630 0.8355
vn 0.7391 -0.2630 0.6202
vn 0.9066 -0.2630 0.3300
vn 0.6757 0.6950 -0.2459
vn 0.7190 0.6950 0.0000
vn 0.5508 0.6950 -0.4622
vn 0.3595 0.6950 -0.6227
vn 0.1249 0.6950 -0.7081
vn -0.1249 0.6950 -0.7081
vn -0.3595 0.6950 -0.6227
vn -0.5508 0.6950 -0.4622
vn -0.6757 0.6950 -0.2459
vn -0.7190 0.6950 -0.0000
vn -0.6757 0.6950 0.2459
vn -0.5508 0.6950 0.4622
vn -0.3595 0.6950 0.6227
vn -0.1249 0.6950 0.7081
vn 0.1249 0.6950 0.7081
vn 0.3595 0.6950 0.6227
vn 0.5508 0.6950 0.4622
vn 0.6757 0.6950 0.2459
# 146 vertex normals

vt 0.9317 0.8276 0.0000
vt 0.9376 0.8608 0.0000
vt 0.9259 0.8608 0.0000
vt 0.9486 0.8568 0.0000
vt 0.9575 0.8493 0.0000
vt 0.9634 0.8391 0.0000
vt 0.9654 0.8276 0.0000
vt 0.9634 0.8161 0.0000
vt 0.9575 0.8060 0.0000
vt 0.9486 0.7985 0.0000
vt 0.9376 0.7945 0.0000
vt 0.9259 0.7945 0.0000
vt 0.9149 0.7985 0.0000
vt 0.9060 0.8060 0.0000
vt 0.9001 0.8161 0.0000
vt 0.8981 0.8276 0.0000
vt 0.9001 0.8391 0.0000
vt 0.9060 0.8493 0.0000
vt 0.9149 0.8568 0.0000
vt 0.9434 0.8939 0.0000
vt 0.9201 0.8939 0.0000
vt 0.9654 0.8859 0.0000
vt 0.9833 0.8709 0.0000
vt 0.9950 0.8507 0.0000
vt 0.9990 0.8276 0.0000
vt 0.9950 0.8046 0.0000
vt 0.9833 0.7844 0.0000
vt 0.9654 0.7694 0.0000
vt 0.9434 0.7614 0.0000
vt 0.9201 0.7614 0.0000
vt 0.8981 0.7694 0.0000
vt 0.8802 0.7844 0.0000
vt 0.8685 0.8046 0.0000
vt 0.8644 0.8276 0.0000
vt 0.8685 0.8507 0.0000
vt 0.8802 0.8709 0.0000
vt 0.8981 0.8859 0.0000
vt 0.0545 0.8193 0.0000
vt 0.0545 0.7963 0.0000
vt 0.1637 0.8045 0.0000
vt 0.1637 0.8193 0.0000
vt 0.0545 0.7761 0.0000
vt 0.1637 0.7915 0.0000
vt 0.0545 0.7467 0.0000
vt 0.0545 0.7288 0.0000
vt 0.1637 0.7168 0.0000
vt 0.1637 0.7283 0.0000
vt 0.0545 0.7068 0.0000
vt 0.1637 0.7026 0.0000
vt 0.0545 0.6834 0.0000
vt 0.1637 0.6876 0.0000
vt 0.0545 0.6615 0.0000
vt 0.1637 0.6734 0.0000
vt 0.0545 0.6436 0.0000
vt 0.1637 0.6619 0.0000
vt 0.5530 0.7172 0.0000
vt 0.5530 0.7374 0.0000
vt 0.4438 0.7456 0.0000
vt 0.4438 0.7326 0.0000
vt 0.5530 0.7604 0.0000
vt 0.4438 0.7604 0.0000
vt 0.5530 0.7835 0.0000
vt 0.4438 0.7753 0.0000
vt 0.5530 0.8037 0.0000
vt 0.4438 0.7883 0.0000
vt 0.4990 0.5650 0.0000
vt 0.4990 0.5829 0.0000
vt 0.3898 0.5949 0.0000
vt 0.3898 0.5833 0.0000
vt 0.4990 0.6049 0.0000
vt 0.3898 0.6090 0.0000
vt 0.4990 0.6283 0.0000
vt 0.3898 0.6241 0.0000
vt 0.4990 0.6502 0.0000
vt 0.3898 0.6383 0.0000
vt 0.4990 0.6681 0.0000
vt 0.3898 0.6498 0.0000
vt 0.0545 0.8626 0.0000
vt 0.0545 0.8424 0.0000
vt 0.1637 0.8342 0.0000
vt 0.1637 0.8472 0.0000
vt 0.8479 0.5699 0.0000
vt 0.8424 0.6016 0.0000
vt 0.7988 0.5858 0.0000
vt 0.8016 0.5699 0.0000
vt 0.8263 0.6295 0.0000
vt 0.7908 0.5997 0.0000
vt 0.8016 0.6502 0.0000
vt 0.7784 0.6101 0.0000
vt 0.7714 0.6612 0.0000
vt 0.7633 0.6156 0.0000
vt 0.7392 0.6612 0.0000
vt 0.7472 0.6156 0.0000
vt 0.7089 0.6502 0.0000
vt 0.7321 0.6101 0.0000
vt 0.6843 0.6295 0.0000
vt 0.7198 0.5997 0.0000
vt 0.6682 0.6016 0.0000
vt 0.7117 0.5858 0.0000
vt 0.6626 0.5699 0.0000
vt 0.7089 0.5699 0.0000
vt 0.6682 0.5382 0.0000
vt 0.7117 0.5541 0.0000
vt 0.6843 0.5103 0.0000
vt 0.7198 0.5401 0.0000
vt 0.7089 0.4897 0.0000
vt 0.7321 0.5298 0.0000
vt 0.7392 0.4786 0.0000
vt 0.7472 0.5243 0.0000
vt 0.7714 0.4786 0.0000
vt 0.7633 0.5243 0.0000
vt 0.8016 0.4897 0.0000
vt 0.7784 0.5298 0.0000
vt 0.8263 0.5103 0.0000
vt 0.7908 0.5401 0.0000
vt 0.8424 0.5382 0.0000
vt 0.7988 0.5541 0.0000
vt 0.7553 0.5699 0.0000
vt 0.3762 0.8093 0.0000
vt 0.3762 0.8193 0.0000
vt 0.3762 0.8004 0.0000
vt 0.3762 0.7098 0.0000
vt 0.3762 0.7176 0.0000
vt 0.3762 0.7002 0.0000
vt 0.3762 0.6900 0.0000
vt 0.3762 0.6804 0.0000
vt 0.3762 0.6726 0.0000
vt 0.2313 0.7504 0.0000
vt 0.2313 0.7415 0.0000
vt 0.2313 0.7604 0.0000
vt 0.2313 0.7705 0.0000
vt 0.2313 0.7794 0.0000
vt 0.1773 0.6019 0.0000
vt 0.1773 0.5940 0.0000
vt 0.1773 0.6115 0.0000
vt 0.1773 0.6217 0.0000
vt 0.1773 0.6313 0.0000
vt 0.1773 0.6391 0.0000
vt 0.3762 0.8294 0.0000
vt 0.3762 0.8383 0.0000
vt 0.4990 0.8093 0.0000
vt 0.4990 0.8193 0.0000
vt 0.4990 0.8004 0.0000
vt 0.4990 0.7098 0.0000
vt 0.4990 0.7176 0.0000
vt 0.4990 0.7002 0.0000
vt 0.4990 0.6900 0.0000
vt 0.4990 0.6804 0.0000
vt 0.4990 0.6726 0.0000
vt 0.1085 0.7504 0.0000
vt 0.1085 0.7415 0.0000
vt 0.1085 0.7604 0.0000
vt 0.1085 0.7705 0.0000
vt 0.1085 0.7794 0.0000
vt 0.0545 0.6019 0.0000
vt 0.0545 0.5940 0.0000
vt 0.0545 0.6115 0.0000
vt 0.0545 0.6217 0.0000
vt 0.0545 0.6313 0.0000
vt 0.0545 0.6391 0.0000
vt 0.4990 0.8294 0.0000
vt 0.4990 0.8383 0.0000
vt 0.3262 0.2922 0.0000
vt 0.3244 0.2822 0.0000
vt 0.4627 0.2318 0.0000
vt 0.4733 0.2922 0.0000
vt 0.3193 0.2733 0.0000
vt 0.4320 0.1787 0.0000
vt 0.3114 0.2667 0.0000
vt 0.3850 0.1393 0.0000
vt 0.3018 0.2633 0.0000
vt 0.3274 0.1183 0.0000
vt 0.2916 0.2633 0.0000
vt 0.2661 0.1183 0.0000
vt 0.2820 0.2667 0.0000
vt 0.2084 0.1393 0.0000
vt 0.2742 0.2733 0.0000
vt 0.1614 0.1787 0.0000
vt 0.2691 0.2822 0.0000
vt 0.1308 0.2318 0.0000
vt 0.2673 0.2922 0.0000
vt 0.1201 0.2922 0.0000
vt 0.2691 0.3023 0.0000
vt 0.1308 0.3526 0.0000
vt 0.2742 0.3111 0.0000
vt 0.1614 0.4058 0.0000
vt 0.2820 0.3177 0.0000
vt 0.2084 0.4452 0.0000
vt 0.2916 0.3212 0.0000
vt 0.2661 0.4662 0.0000
vt 0.3018 0.3212 0.0000
vt 0.3274 0.4662 0.0000
vt 0.3114 0.3177 0.0000
vt 0.3850 0.4452 0.0000
vt 0.3193 0.3111 0.0000
vt 0.4320 0.4058 0.0000
vt 0.3244 0.3023 0.0000
vt 0.4627 0.3526 0.0000
vt 0.5751 0.1909 0.0000
vt 0.5930 0.2922 0.0000
vt 0.5237 0.1018 0.0000
vt 0.4448 0.0357 0.0000
vt 0.3482 0.0005 0.0000
vt 0.2453 0.0005 0.0000
vt 0.1486 0.0357 0.0000
vt 0.0698 0.1018 0.0000
vt 0.0184 0.1909 0.0000
vt 0.0005 0.2922 0.0000
vt 0.0184 0.3935 0.0000
vt 0.0698 0.4826 0.0000
vt 0.1486 0.5488 0.0000
vt 0.2453 0.5840 0.0000
vt 0.3482 0.5840 0.0000
vt 0.4448 0.5488 0.0000
vt 0.5237 0.4826 0.0000
vt 0.5751 0.3935 0.0000
vt 0.7947 0.0005 0.0000
vt 0.8960 0.0005 0.0000
vt 0.8782 0.1072 0.0000
vt 0.7947 0.1072 0.0000
vt 0.9851 0.0005 0.0000
vt 0.9517 0.1072 0.0000
vt 0.8503 0.8105 0.0000
vt 0.8503 0.9133 0.0000
vt 0.7319 0.9043 0.0000
vt 0.7319 0.8195 0.0000
vt 0.8907 0.3232 0.0000
vt 0.7940 0.3232 0.0000
vt 0.7850 0.2165 0.0000
vt 0.8647 0.2165 0.0000
vt 0.6911 0.3232 0.0000
vt 0.7002 0.2165 0.0000
vt 0.5945 0.3232 0.0000
vt 0.6205 0.2165 0.0000
vt 0.3048 0.9968 0.0000
vt 0.3048 0.8939 0.0000
vt 0.4232 0.9029 0.0000
vt 0.4232 0.9878 0.0000
vt 0.6043 0.1085 0.0000
vt 0.6934 0.1085 0.0000
vt 0.7112 0.2152 0.0000
vt 0.6377 0.2152 0.0000
vt 0.7947 0.1085 0.0000
vt 0.7947 0.2152 0.0000
vt 0.8960 0.1085 0.0000
vt 0.8782 0.2152 0.0000
vt 0.9851 0.1085 0.0000
vt 0.9517 0.2152 0.0000
vt 0.9975 0.8939 0.0000
vt 0.9975 0.9968 0.0000
vt 0.8792 0.9878 0.0000
vt 0.8792 0.9029 0.0000
vt 0.3016 0.9957 0.0000
vt 0.2050 0.9957 0.0000
vt 0.1959 0.8890 0.0000
vt 0.2756 0.8890 0.0000
vt 0.1021 0.9957 0.0000
vt 0.1111 0.8890 0.0000
vt 0.0054 0.9957 0.0000
vt 0.0314 0.8890 0.0000
vt 0.4276 0.9968 0.0000
vt 0.4276 0.8939 0.0000
vt 0.5459 0.9029 0.0000
vt 0.5459 0.9878 0.0000
vt 0.6043 0.0005 0.0000
vt 0.6934 0.0005 0.0000
vt 0.7112 0.1072 0.0000
vt 0.6377 0.1072 0.0000
vt 0.9995 0.5699 0.0000
vt 0.9848 0.6535 0.0000
vt 0.9424 0.7269 0.0000
vt 0.8774 0.7814 0.0000
vt 0.7977 0.8105 0.0000
vt 0.7128 0.8105 0.0000
vt 0.6331 0.7814 0.0000
vt 0.5682 0.7269 0.0000
vt 0.5257 0.6535 0.0000
vt 0.5110 0.5699 0.0000
vt 0.5257 0.4864 0.0000
vt 0.5682 0.4129 0.0000
vt 0.6331 0.3584 0.0000
vt 0.7128 0.3294 0.0000
vt 0.7977 0.3294 0.0000
vt 0.8774 0.3584 0.0000
vt 0.9424 0.4129 0.0000
vt 0.9848 0.4864 0.0000
# 286 texture coords

o Sour_Forrest_Tree
g Sour_Forrest_Tree
usemtl wire_049103130
s 1
f 1/1/1 2/2/1 3/3/1 
f 1/1/1 4/4/1 2/2/1 
f 1/1/1 5/5/1 4/4/1 
f 1/1/1 6/6/1 5/5/1 
f 1/1/1 7/7/1 6/6/1 
f 1/1/1 8/8/1 7/7/1 
f 1/1/1 9/9/1 8/8/1 
f 1/1/1 10/10/1 9/9/1 
f 1/1/1 11/11/1 10/10/1 
f 1/1/1 12/12/1 11/11/1 
f 1/1/1 13/13/1 12/12/1 
f 1/1/1 14/14/1 13/13/1 
f 1/1/1 15/15/1 14/14/1 
f 1/1/1 16/16/1 15/15/1 
f 1/1/1 17/17/1 16/16/1 
f 1/1/1 18/18/1 17/17/1 
f 1/1/1 19/19/1 18/18/1 
f 1/1/1 3/3/1 19/19/1 
f 3/3/1 2/2/1 20/20/2 21/21/3 
f 2/2/1 4/4/1 22/22/4 20/20/2 
f 4/4/1 5/5/1 23/23/5 22/22/4 
f 5/5/1 6/6/1 24/24/6 23/23/5 
f 6/6/1 7/7/1 25/25/7 24/24/6 
f 7/7/1 8/8/1 26/26/8 25/25/7 
f 8/8/1 9/9/1 27/27/9 26/26/8 
f 9/9/1 10/10/1 28/28/10 27/27/9 
f 10/10/1 11/11/1 29/29/11 28/28/10 
f 11/11/1 12/12/1 30/30/12 29/29/11 
f 12/12/1 13/13/1 31/31/13 30/30/12 
f 13/13/1 14/14/1 32/32/14 31/31/13 
f 14/14/1 15/15/1 33/33/15 32/32/14 
f 15/15/1 16/16/1 34/34/16 33/33/15 
f 16/16/1 17/17/1 35/35/17 34/34/16 
f 17/17/1 18/18/1 36/36/18 35/35/17 
f 18/18/1 19/19/1 37/37/19 36/36/18 
f 19/19/1 3/3/1 21/21/3 37/37/19 
s 8
f 21/38/3 20/39/2 38/40/20 39/41/21 
f 20/39/2 22/42/4 40/43/22 38/40/20 
f 22/44/4 23/45/5 41/46/23 40/47/22 
f 23/45/5 24/48/6 42/49/24 41/46/23 
f 24/48/6 25/50/7 43/51/25 42/49/24 
f 25/50/7 26/52/8 44/53/26 43/51/25 
f 26/52/8 27/54/9 45/55/27 44/53/26 
f 27/56/9 28/57/10 46/58/28 45/59/27 
f 28/57/10 29/60/11 47/61/29 46/58/28 
f 29/60/11 30/62/12 48/63/30 47/61/29 
f 30/62/12 31/64/13 49/65/31 48/63/30 
f 31/66/13 32/67/14 50/68/32 49/69/31 
f 32/67/14 33/70/15 51/71/33 50/68/32 
f 33/70/15 34/72/16 52/73/34 51/71/33 
f 34/72/16 35/74/17 53/75/35 52/73/34 
f 35/74/17 36/76/18 54/77/36 53/75/35 
f 36/78/18 37/79/19 55/80/37 54/81/36 
f 37/79/19 21/38/3 39/41/21 55/80/37 
s 1
f 56/82/38 57/83/39 58/84/40 59/85/40 
f 57/83/39 60/86/41 61/87/40 58/84/40 
f 60/86/41 62/88/42 63/89/40 61/87/40 
f 62/88/42 64/90/43 65/91/40 63/89/40 
f 64/90/43 66/92/44 67/93/40 65/91/40 
f 66/92/44 68/94/45 69/95/40 67/93/40 
f 68/94/45 70/96/46 71/97/40 69/95/40 
f 70/96/46 72/98/47 73/99/40 71/97/40 
f 72/98/47 74/100/48 75/101/40 73/99/40 
f 74/100/48 76/102/49 77/103/40 75/101/40 
f 76/102/49 78/104/50 79/105/40 77/103/40 
f 78/104/50 80/106/51 81/107/40 79/105/40 
f 80/106/51 82/108/52 83/109/40 81/107/40 
f 82/108/52 84/110/53 85/111/40 83/109/40 
f 84/110/53 86/112/54 87/113/40 85/111/40 
f 86/112/54 88/114/55 89/115/40 87/113/40 
f 88/114/55 90/116/56 91/117/40 89/115/40 
f 90/116/56 56/82/38 59/85/40 91/117/40 
f 92/118/40 59/85/40 58/84/40 
f 92/118/40 58/84/40 61/87/40 
f 92/118/40 61/87/40 63/89/40 
f 92/118/40 63/89/40 65/91/40 
f 92/118/40 65/91/40 67/93/40 
f 92/118/40 67/93/40 69/95/40 
f 92/118/40 69/95/40 71/97/40 
f 92/118/40 71/97/40 73/99/40 
f 92/118/40 73/99/40 75/101/40 
f 92/118/40 75/101/40 77/103/40 
f 92/118/40 77/103/40 79/105/40 
f 92/118/40 79/105/40 81/107/40 
f 92/118/40 81/107/40 83/109/40 
f 92/118/40 83/109/40 85/111/40 
f 92/118/40 85/111/40 87/113/40 
f 92/118/40 87/113/40 89/115/40 
f 92/118/40 89/115/40 91/117/40 
f 92/118/40 91/117/40 59/85/40 
s 2
f 39/41/21 38/40/20 93/119/57 94/120/58 
f 38/40/20 40/43/22 95/121/59 93/119/57 
f 40/47/22 41/46/23 96/122/60 95/123/59 
f 41/46/23 42/49/24 97/124/61 96/122/60 
f 42/49/24 43/51/25 98/125/62 97/124/61 
f 43/51/25 44/53/26 99/126/63 98/125/62 
f 44/53/26 45/55/27 100/127/64 99/126/63 
f 45/59/27 46/58/28 101/128/65 100/129/64 
f 46/58/28 47/61/29 102/130/66 101/128/65 
f 47/61/29 48/63/30 103/131/67 102/130/66 
f 48/63/30 49/65/31 104/132/68 103/131/67 
f 49/69/31 50/68/32 105/133/69 104/134/68 
f 50/68/32 51/71/33 106/135/70 105/133/69 
f 51/71/33 52/73/34 107/136/71 106/135/70 
f 52/73/34 53/75/35 108/137/72 107/136/71 
f 53/75/35 54/77/36 109/138/73 108/137/72 
f 54/81/36 55/80/37 110/139/74 109/140/73 
f 55/80/37 39/41/21 94/120/58 110/139/74 
f 94/120/58 93/119/57 111/141/75 112/142/76 
f 93/119/57 95/121/59 113/143/77 111/141/75 
f 95/123/59 96/122/60 114/144/78 113/145/77 
f 96/122/60 97/124/61 115/146/79 114/144/78 
f 97/124/61 98/125/62 116/147/80 115/146/79 
f 98/125/62 99/126/63 117/148/81 116/147/80 
f 99/126/63 100/127/64 118/149/82 117/148/81 
f 100/129/64 101/128/65 119/150/83 118/151/82 
f 101/128/65 102/130/66 120/152/84 119/150/83 
f 102/130/66 103/131/67 121/153/85 120/152/84 
f 103/131/67 104/132/68 122/154/86 121/153/85 
f 104/134/68 105/133/69 123/155/87 122/156/86 
f 105/133/69 106/135/70 124/157/88 123/155/87 
f 106/135/70 107/136/71 125/158/89 124/157/88 
f 107/136/71 108/137/72 126/159/90 125/158/89 
f 108/137/72 109/138/73 127/160/91 126/159/90 
f 109/140/73 110/139/74 128/161/92 127/162/91 
f 110/139/74 94/120/58 112/142/76 128/161/92 
s 4
f 112/163/76 111/164/75 129/165/93 130/166/94 
f 111/164/75 113/167/77 131/168/95 129/165/93 
f 113/167/77 114/169/78 132/170/96 131/168/95 
f 114/169/78 115/171/79 133/172/97 132/170/96 
f 115/171/79 116/173/80 134/174/98 133/172/97 
f 116/173/80 117/175/81 135/176/99 134/174/98 
f 117/175/81 118/177/82 136/178/100 135/176/99 
f 118/177/82 119/179/83 137/180/101 136/178/100 
f 119/179/83 120/181/84 138/182/102 137/180/101 
f 120/181/84 121/183/85 139/184/103 138/182/102 
f 121/183/85 122/185/86 140/186/104 139/184/103 
f 122/185/86 123/187/87 141/188/105 140/186/104 
f 123/187/87 124/189/88 142/190/106 141/188/105 
f 124/189/88 125/191/89 143/192/107 142/190/106 
f 125/191/89 126/193/90 144/194/108 143/192/107 
f 126/193/90 127/195/91 145/196/109 144/194/108 
f 127/195/91 128/197/92 146/198/110 145/196/109 
f 128/197/92 112/163/76 130/166/94 146/198/110 
s 2
f 130/166/94 129/165/93 147/199/111 148/200/112 
f 129/165/93 131/168/95 149/201/113 147/199/111 
f 131/168/95 132/170/96 150/202/114 149/201/113 
f 132/170/96 133/172/97 151/203/115 150/202/114 
f 133/172/97 134/174/98 152/204/116 151/203/115 
f 134/174/98 135/176/99 153/205/117 152/204/116 
f 135/176/99 136/178/100 154/206/118 153/205/117 
f 136/178/100 137/180/101 155/207/119 154/206/118 
f 137/180/101 138/182/102 156/208/120 155/207/119 
f 138/182/102 139/184/103 157/209/121 156/208/120 
f 139/184/103 140/186/104 158/210/122 157/209/121 
f 140/186/104 141/188/105 159/211/123 158/210/122 
f 141/188/105 142/190/106 160/212/124 159/211/123 
f 142/190/106 143/192/107 161/213/125 160/212/124 
f 143/192/107 144/194/108 162/214/126 161/213/125 
f 144/194/108 145/196/109 163/215/127 162/214/126 
f 145/196/109 146/198/110 164/216/128 163/215/127 
f 146/198/110 130/166/94 148/200/112 164/216/128 
s 4
f 148/217/112 147/218/111 165/219/129 166/220/130 
f 147/218/111 149/221/113 167/222/131 165/219/129 
f 149/223/113 150/224/114 168/225/132 167/226/131 
f 150/227/114 151/228/115 169/229/133 168/230/132 
f 151/228/115 152/231/116 170/232/134 169/229/133 
f 152/231/116 153/233/117 171/234/135 170/232/134 
f 153/235/117 154/236/118 172/237/136 171/238/135 
f 154/239/118 155/240/119 173/241/137 172/242/136 
f 155/240/119 156/243/120 174/244/138 173/241/137 
f 156/243/120 157/245/121 175/246/139 174/244/138 
f 157/245/121 158/247/122 176/248/140 175/246/139 
f 158/249/122 159/250/123 177/251/141 176/252/140 
f 159/253/123 160/254/124 178/255/142 177/256/141 
f 160/254/124 161/257/125 179/258/143 178/255/142 
f 161/257/125 162/259/126 180/260/144 179/258/143 
f 162/261/126 163/262/127 181/263/145 180/264/144 
f 163/265/127 164/266/128 182/267/146 181/268/145 
f 164/266/128 148/217/112 166/220/130 182/267/146 
s 2
f 166/269/130 165/270/129 57/83/39 56/82/38 
f 165/270/129 167/271/131 60/86/41 57/83/39 
f 167/271/131 168/272/132 62/88/42 60/86/41 
f 168/272/132 169/273/133 64/90/43 62/88/42 
f 169/273/133 170/274/134 66/92/44 64/90/43 
f 170/274/134 171/275/135 68/94/45 66/92/44 
f 171/275/135 172/276/136 70/96/46 68/94/45 
f 172/276/136 173/277/137 72/98/47 70/96/46 
f 173/277/137 174/278/138 74/100/48 72/98/47 
f 174/278/138 175/279/139 76/102/49 74/100/48 
f 175/279/139 176/280/140 78/104/50 76/102/49 
f 176/280/140 177/281/141 80/106/51 78/104/50 
f 177/281/141 178/282/142 82/108/52 80/106/51 
f 178/282/142 179/283/143 84/110/53 82/108/52 
f 179/283/143 180/284/144 86/112/54 84/110/53 
f 180/284/144 181/285/145 88/114/55 86/112/54 
f 181/285/145 182/286/146 90/116/56 88/114/55 
f 182/286/146 166/269/130 56/82/38 90/116/56 
# 162 polygons - 36 triangles

