# 3ds Max Wavefront OBJ Exporter v0.99 - (c)2007 guruware
# File Created: 25.09.2026 18:18:22

mtllib Sour Forest Cave.mtl

#
# object Sour_Forest_Cave
#

v  -105.3860 40.6796 -2.1313
v  -102.3547 37.4323 9.1820
v  -99.3222 37.4163 8.3716
v  -94.8831 37.4163 3.9325
v  -93.2583 37.4163 -2.1313
v  -94.8831 37.4163 -8.1952
v  -99.3222 37.4163 -12.6343
v  -105.3860 37.4163 -14.2591
v  -87.2446 28.5695 8.3426
v  -94.9121 28.5695 16.0101
v  -84.4381 28.5695 -2.1313
v  -87.2446 28.5695 -12.6053
v  -94.9121 28.5695 -20.2728
v  -105.3860 28.5695 -23.0793
v  -105.3860 28.5695 18.8166
v  -105.3860 16.8503 21.9967
v  -99.3420 16.8393 20.4255
v  -100.1400 28.5780 17.4471
v  -81.2269 16.7001 -2.1313
v  -84.4636 16.7001 9.9482
v  -84.4636 16.7001 -14.2109
v  -93.3065 16.7001 -23.0537
v  -105.3860 16.7001 -26.2905
v  -80.9433 -0.2202 -2.1313
v  -84.2181 -0.2202 10.0900
v  -84.2180 -0.2202 -14.3527
v  -93.1647 -0.2202 -23.2993
v  -105.3860 -0.2202 -26.5740
v  -105.3860 -0.7393 -2.1313
v  -93.1865 -0.5052 18.6414
v  -105.3860 -0.6998 21.2915
v  -105.3860 37.4163 9.9964
v  -99.9960 35.2653 7.2045
v  -102.6905 35.2508 7.9285
v  -105.3860 38.1414 -2.1313
v  -96.0502 35.2653 3.2587
v  -94.6059 35.2653 -2.1313
v  -96.0502 35.2653 -7.5214
v  -99.9960 35.2653 -11.4672
v  -105.3860 35.2653 -12.9115
v  -89.1702 27.3452 7.2309
v  -96.0238 27.3452 14.0845
v  -86.6616 27.3452 -2.1313
v  -89.1702 27.3452 -11.4936
v  -96.0238 27.3452 -18.3472
v  -105.3860 27.3452 -20.8558
v  -99.9780 16.2033 18.0519
v  -105.3860 16.1933 19.5449
v  -105.3860 27.3452 16.5931
v  -100.7132 27.3374 15.3081
v  -83.7381 16.3300 -2.1313
v  -86.6384 16.3300 8.6926
v  -86.6384 16.3300 -12.9553
v  -94.5620 16.3300 -20.8790
v  -105.3860 16.3300 -23.7793
v  -82.8956 1.4020 -2.1313
v  -85.9088 1.4020 9.1139
v  -85.9088 1.4020 -13.3765
v  -94.1408 1.4020 -21.6086
v  -105.3860 1.4020 -24.6218
v  -105.3860 1.8385 21.2872
v  -94.1210 1.6613 17.7056
v  -105.3860 1.7990 -2.1313
v  -105.3860 35.2653 8.6488
v  -102.4722 12.5499 21.9967
v  -102.4785 12.0954 19.5449
v  -93.2073 16.7489 18.7178
v  -94.6524 16.2856 16.6831
v  -96.0953 12.6513 18.7178
v  -96.6805 11.9989 16.6831
v  -92.7282 23.1461 17.9001
v  -92.3070 22.9199 17.8669
v  -91.7047 26.0978 16.9003
v  -91.9732 26.1597 16.9431
v  -93.6567 29.7951 15.8866
v  -94.1683 27.1215 16.7438
v  -91.0648 25.9538 16.3146
v  -95.6341 24.6836 17.7334
v  -91.4759 22.4089 17.3741
v  -92.9130 22.9314 17.0343
v  -92.1629 25.9365 16.0769
v  -91.8944 25.8746 16.0341
v  -92.4918 22.7052 17.0012
v  -96.0653 19.7128 18.8790
v  -95.8441 19.2881 18.8599
v  -98.9441 18.6411 20.0293
v  -99.0048 18.9127 20.0132
v  -102.5162 20.5411 21.4915
v  -99.9116 21.0939 20.4644
v  -98.7643 17.9544 20.5485
v  -97.5390 22.6086 19.4020
v  -95.3107 18.4132 19.2427
v  -95.7792 19.8248 19.7365
v  -98.7101 19.0295 20.8709
v  -98.6494 18.7578 20.8870
v  -95.5579 19.4001 19.7175
v  -111.4499 37.4163 8.3716
v  -108.4174 37.4323 9.1820
v  -115.8890 37.4163 3.9325
v  -117.5138 37.4163 -2.1313
v  -115.8890 37.4163 -8.1952
v  -111.4499 37.4163 -12.6343
v  -123.5275 28.5695 8.3426
v  -115.8600 28.5695 16.0101
v  -126.3340 28.5695 -2.1313
v  -123.5275 28.5695 -12.6053
v  -115.8600 28.5695 -20.2728
v  -110.6321 28.5780 17.4471
v  -111.4301 16.8393 20.4255
v  -129.5452 16.7001 -2.1313
v  -126.3085 16.7001 9.9482
v  -126.3085 16.7001 -14.2109
v  -117.4656 16.7001 -23.0537
v  -129.8288 -0.2202 -2.1313
v  -126.5540 -0.2202 10.0900
v  -126.5541 -0.2202 -14.3527
v  -117.6074 -0.2202 -23.2993
v  -117.5856 -0.5052 18.6414
v  -110.7761 35.2653 7.2045
v  -108.0816 35.2508 7.9285
v  -114.7219 35.2653 3.2587
v  -116.1662 35.2653 -2.1313
v  -114.7219 35.2653 -7.5214
v  -110.7761 35.2653 -11.4672
v  -114.7483 27.3452 14.0845
v  -121.6019 27.3452 7.2309
v  -124.1105 27.3452 -2.1313
v  -121.6019 27.3452 -11.4936
v  -114.7483 27.3452 -18.3472
v  -110.7941 16.2033 18.0519
v  -110.0589 27.3374 15.3081
v  -124.1337 16.3300 8.6926
v  -127.0340 16.3300 -2.1313
v  -124.1337 16.3300 -12.9553
v  -116.2100 16.3300 -20.8790
v  -124.8633 1.4020 9.1139
v  -127.8765 1.4020 -2.1313
v  -124.8633 1.4020 -13.3765
v  -116.6313 1.4020 -21.6086
v  -116.6511 1.6613 17.7056
v  -108.2999 12.5499 21.9967
v  -108.2936 12.0954 19.5449
v  -117.5648 16.7489 18.7178
v  -116.1197 16.2856 16.6831
v  -114.6768 12.6513 18.7178
v  -114.0916 11.9989 16.6831
v  -118.0439 23.1461 17.9001
v  -118.7989 26.1597 16.9431
v  -119.0674 26.0978 16.9003
v  -118.4651 22.9199 17.8669
v  -117.1154 29.7951 15.8866
v  -116.6038 27.1215 16.7438
v  -119.7073 25.9538 16.3146
v  -115.1380 24.6836 17.7334
v  -119.2962 22.4089 17.3741
v  -117.8591 22.9314 17.0343
v  -118.2803 22.7052 17.0012
v  -118.8777 25.8746 16.0341
v  -118.6092 25.9365 16.0769
v  -114.7068 19.7128 18.8790
v  -111.7673 18.9127 20.0132
v  -111.8280 18.6411 20.0293
v  -114.9280 19.2881 18.8599
v  -108.2559 20.5411 21.4915
v  -110.8605 21.0939 20.4644
v  -112.0078 17.9544 20.5485
v  -113.2331 22.6086 19.4020
v  -115.4614 18.4132 19.2427
v  -114.9929 19.8248 19.7365
v  -115.2141 19.4001 19.7175
v  -112.1227 18.7578 20.8870
v  -112.0620 19.0295 20.8709
# 172 vertices

vn 0.0000 1.0000 -0.0002
vn 0.1322 0.8598 0.4933
vn 0.2677 0.8466 0.4600
vn 0.4607 0.8468 0.2660
vn 0.5320 0.8468 0.0000
vn 0.4607 0.8468 -0.2660
vn 0.2660 0.8468 -0.4607
vn 0.0000 0.8468 -0.5320
vn 0.7584 0.4829 0.4379
vn 0.4397 0.4829 0.7572
vn 0.8757 0.4829 0.0000
vn 0.7584 0.4829 -0.4379
vn 0.4379 0.4829 -0.7584
vn 0.0000 0.4829 -0.8757
vn 0.0000 0.4834 0.8754
vn 0.0000 -0.0784 0.9969
vn 0.3055 -0.1734 0.9363
vn 0.2256 0.4902 0.8419
vn 0.9905 0.1373 0.0000
vn 0.8583 0.1371 0.4944
vn 0.8578 0.1373 -0.4953
vn 0.4953 0.1373 -0.8578
vn 0.0000 0.1373 -0.9905
vn 0.7683 -0.6400 0.0000
vn 0.6674 -0.6350 0.3890
vn 0.6654 -0.6400 -0.3842
vn 0.3842 -0.6400 -0.6654
vn -0.0000 -0.6400 -0.7683
vn -0.0000 -1.0000 -0.0066
vn 0.2815 -0.5812 0.7635
vn 0.0000 -0.6648 0.7470
vn 0.0000 0.8465 0.5324
vn -0.2631 -0.8483 -0.4596
vn -0.1325 -0.8590 -0.4945
vn 0.0000 -1.0000 -0.0002
vn -0.4588 -0.8481 -0.2649
vn -0.5298 -0.8481 -0.0000
vn -0.4588 -0.8481 0.2649
vn -0.2649 -0.8481 0.4588
vn 0.0000 -0.8481 0.5298
vn -0.7589 -0.4819 -0.4381
vn -0.4362 -0.4818 -0.7600
vn -0.8762 -0.4819 -0.0000
vn -0.7589 -0.4819 0.4381
vn -0.4381 -0.4819 0.7589
vn -0.0000 -0.4819 0.8762
vn -0.2182 -0.5576 -0.8009
vn 0.0000 -0.6072 -0.7945
vn 0.0000 -0.4813 -0.8765
vn -0.2260 -0.4874 -0.8434
vn -0.9880 -0.1547 -0.0000
vn -0.8551 -0.1548 -0.4948
vn -0.8556 -0.1547 0.4940
vn -0.4940 -0.1547 0.8556
vn 0.0000 -0.1547 0.9880
vn -0.7701 0.6379 -0.0000
vn -0.6647 0.6428 -0.3807
vn -0.6669 0.6379 0.3851
vn -0.3851 0.6379 0.6669
vn 0.0000 0.6379 0.7701
vn 0.0000 0.6496 0.7603
vn -0.4919 0.7160 0.4954
vn -0.0000 1.0000 -0.0065
vn 0.0000 -0.8484 -0.5293
vn 0.0317 -0.7171 0.6962
vn 0.0091 -0.9181 -0.3962
vn 0.4554 0.0006 0.8903
vn -0.4667 -0.2656 -0.8436
vn 0.2146 -0.7953 0.5670
vn -0.0385 -0.8541 -0.5186
vn 0.1779 0.2971 0.9381
vn 0.4105 0.1491 0.8996
vn 0.5053 0.3148 0.8035
vn 0.1502 0.3091 0.9391
vn -0.2743 0.9429 -0.1890
vn -0.9141 0.3849 0.1278
vn 0.9561 0.1495 -0.2520
vn -0.8136 0.5803 -0.0357
vn 0.8992 -0.4342 -0.0541
vn -0.2795 -0.2406 -0.9295
vn -0.2815 -0.1825 -0.9421
vn 0.1135 -0.1513 -0.9819
vn 0.0180 -0.3866 -0.9221
vn -0.3749 -0.0994 -0.9217
vn -0.2252 -0.3350 -0.9149
vn -0.3862 -0.4355 -0.8131
vn -0.3855 -0.0706 -0.9200
vn -0.9202 0.2675 0.2859
vn -0.3788 0.9252 -0.0229
vn -0.1447 -0.9718 0.1862
vn -0.5716 0.8056 0.1557
vn 0.4273 -0.9024 -0.0548
vn 0.3192 0.2008 0.9262
vn 0.2617 0.2025 0.9437
vn 0.2274 -0.1940 0.9543
vn 0.4621 -0.0957 0.8816
vn -0.2677 0.8466 0.4600
vn -0.1322 0.8598 0.4933
vn -0.4607 0.8468 0.2660
vn -0.5320 0.8468 0.0000
vn -0.4607 0.8468 -0.2660
vn -0.2660 0.8468 -0.4607
vn -0.7584 0.4829 0.4379
vn -0.4397 0.4829 0.7572
vn -0.8757 0.4829 0.0000
vn -0.7584 0.4829 -0.4379
vn -0.4379 0.4829 -0.7584
vn -0.2256 0.4902 0.8419
vn -0.3055 -0.1734 0.9363
vn -0.9905 0.1373 0.0000
vn -0.8583 0.1371 0.4944
vn -0.8578 0.1373 -0.4953
vn -0.4953 0.1373 -0.8578
vn -0.7683 -0.6400 0.0000
vn -0.6674 -0.6350 0.3890
vn -0.6654 -0.6400 -0.3842
vn -0.3842 -0.6400 -0.6654
vn -0.2815 -0.5812 0.7635
vn 0.2631 -0.8483 -0.4596
vn 0.1325 -0.8590 -0.4945
vn 0.4588 -0.8481 -0.2649
vn 0.5298 -0.8481 -0.0000
vn 0.4588 -0.8481 0.2649
vn 0.2649 -0.8481 0.4588
vn 0.4362 -0.4818 -0.7600
vn 0.7589 -0.4819 -0.4381
vn 0.8762 -0.4819 -0.0000
vn 0.7589 -0.4819 0.4381
vn 0.4381 -0.4819 0.7589
vn 0.2182 -0.5576 -0.8009
vn 0.2260 -0.4874 -0.8434
vn 0.8551 -0.1548 -0.4948
vn 0.9880 -0.1547 -0.0000
vn 0.8556 -0.1547 0.4940
vn 0.4940 -0.1547 0.8556
vn 0.6647 0.6428 -0.3807
vn 0.7701 0.6379 -0.0000
vn 0.6669 0.6379 0.3851
vn 0.3851 0.6379 0.6669
vn 0.4919 0.7160 0.4954
vn -0.0317 -0.7171 0.6962
vn -0.0091 -0.9181 -0.3962
vn -0.4554 0.0006 0.8903
vn 0.4667 -0.2656 -0.8436
vn -0.2146 -0.7953 0.5670
vn 0.0385 -0.8541 -0.5186
vn -0.1779 0.2971 0.9381
vn -0.1502 0.3091 0.9391
vn -0.5053 0.3148 0.8035
vn -0.4105 0.1491 0.8996
vn 0.2743 0.9429 -0.1890
vn 0.9141 0.3849 0.1278
vn -0.9561 0.1495 -0.2520
vn 0.8136 0.5803 -0.0357
vn -0.8992 -0.4342 -0.0541
vn 0.2795 -0.2406 -0.9295
vn -0.0180 -0.3866 -0.9221
vn -0.1135 -0.1513 -0.9819
vn 0.2815 -0.1825 -0.9421
vn 0.3749 -0.0994 -0.9217
vn 0.3855 -0.0706 -0.9200
vn 0.3862 -0.4355 -0.8131
vn 0.2252 -0.3350 -0.9149
vn 0.9202 0.2675 0.2859
vn 0.3788 0.9252 -0.0229
vn 0.1447 -0.9718 0.1862
vn 0.5716 0.8056 0.1557
vn -0.4273 -0.9024 -0.0548
vn -0.3192 0.2008 0.9262
vn -0.4621 -0.0957 0.8816
vn -0.2274 -0.1940 0.9543
vn -0.2617 0.2025 0.9437
# 172 vertex normals

vt 0.4589 0.2323 0.0000
vt 0.4578 0.1669 0.0000
vt 0.4747 0.1666 0.0000
vt 0.5046 0.1824 0.0000
vt 0.5230 0.2107 0.0000
vt 0.5254 0.2444 0.0000
vt 0.5112 0.2751 0.0000
vt 0.4840 0.2950 0.0000
vt 0.5331 0.1068 0.0000
vt 0.5073 0.1689 0.0000
vt 0.4743 0.1618 0.0000
vt 0.4761 0.0946 0.0000
vt 0.5820 0.1387 0.0000
vt 0.5356 0.1873 0.0000
vt 0.6161 0.1860 0.0000
vt 0.5553 0.2147 0.0000
vt 0.6310 0.2425 0.0000
vt 0.5639 0.2474 0.0000
vt 0.6246 0.3004 0.0000
vt 0.5602 0.2810 0.0000
vt 0.4179 0.0902 0.0000
vt 0.4184 0.0249 0.0000
vt 0.4519 0.0273 0.0000
vt 0.4470 0.0924 0.0000
vt 0.6146 0.0661 0.0000
vt 0.5880 0.1266 0.0000
vt 0.5513 0.0432 0.0000
vt 0.6743 0.0972 0.0000
vt 0.6397 0.1536 0.0000
vt 0.7291 0.1361 0.0000
vt 0.6873 0.1874 0.0000
vt 0.7783 0.1821 0.0000
vt 0.7299 0.2272 0.0000
vt 0.8329 0.4703 0.0000
vt 0.9089 0.4673 0.0000
vt 0.9114 0.5234 0.0000
vt 0.8354 0.5271 0.0000
vt 0.8308 0.4135 0.0000
vt 0.9068 0.4111 0.0000
vt 0.8293 0.3566 0.0000
vt 0.9053 0.3549 0.0000
vt 0.8282 0.2998 0.0000
vt 0.9043 0.2987 0.0000
vt 0.7310 0.5613 0.0000
vt 0.8371 0.5828 0.0000
vt 0.8094 0.6316 0.0000
vt 0.8043 0.4795 0.0000
vt 0.7536 0.4538 0.0000
vt 0.6968 0.4569 0.0000
vt 0.6492 0.4880 0.0000
vt 0.4410 0.1672 0.0000
vt 0.2908 0.5941 0.0000
vt 0.3062 0.5938 0.0000
vt 0.3071 0.6510 0.0000
vt 0.2646 0.6099 0.0000
vt 0.2497 0.6367 0.0000
vt 0.2502 0.6673 0.0000
vt 0.2660 0.6936 0.0000
vt 0.2928 0.7085 0.0000
vt 0.1287 0.8628 0.0000
vt 0.1308 0.8322 0.0000
vt 0.1920 0.8252 0.0000
vt 0.1883 0.8783 0.0000
vt 0.1220 0.8050 0.0000
vt 0.1767 0.7779 0.0000
vt 0.1047 0.7884 0.0000
vt 0.1466 0.7491 0.0000
vt 0.0506 0.7105 0.0000
vt 0.0813 0.7105 0.0000
vt 0.0926 0.7711 0.0000
vt 0.0393 0.7711 0.0000
vt 0.1078 0.6998 0.0000
vt 0.1386 0.7525 0.0000
vt 0.4223 0.8661 0.0000
vt 0.4520 0.8660 0.0000
vt 0.4520 0.9273 0.0000
vt 0.4263 0.9272 0.0000
vt 0.3911 0.8404 0.0000
vt 0.3893 0.8917 0.0000
vt 0.3288 0.8896 0.0000
vt 0.3309 0.8302 0.0000
vt 0.3875 0.9431 0.0000
vt 0.3267 0.9490 0.0000
vt 0.0967 0.8253 0.0000
vt 0.0352 0.8253 0.0000
vt 0.3909 0.8121 0.0000
vt 0.3909 0.7607 0.0000
vt 0.4514 0.7607 0.0000
vt 0.4514 0.8201 0.0000
vt 0.2469 0.8868 0.0000
vt 0.2490 0.8250 0.0000
vt 0.2447 0.9485 0.0000
vt 0.0979 0.8873 0.0000
vt 0.0340 0.8873 0.0000
vt 0.5334 0.7607 0.0000
vt 0.5334 0.8224 0.0000
vt 0.0648 0.6504 0.0000
vt 0.0340 0.5933 0.0000
vt 0.1541 0.5579 0.0000
vt 0.0343 0.5280 0.0000
vt 0.0653 0.4721 0.0000
vt 0.1201 0.4392 0.0000
vt 0.1840 0.4380 0.0000
vt 0.2399 0.4690 0.0000
vt 0.3215 0.5936 0.0000
vt 0.4321 0.8244 0.0000
vt 0.4653 0.8244 0.0000
vt 0.4493 0.8480 0.0000
vt 0.1845 0.9363 0.0000
vt 0.1811 0.9265 0.0000
vt 0.2059 0.9170 0.0000
vt 0.2100 0.9268 0.0000
vt 0.4360 0.8435 0.0000
vt 0.4473 0.0991 0.0000
vt 0.4576 0.1645 0.0000
vt 0.4409 0.1671 0.0000
vt 0.4185 0.1037 0.0000
vt 0.4861 0.0295 0.0000
vt 0.9146 0.5790 0.0000
vt 0.1162 0.8885 0.0000
vt 0.1225 0.8756 0.0000
vt 0.1774 0.9005 0.0000
vt 0.1666 0.9229 0.0000
vt 0.2464 0.8248 0.0000
vt 0.2422 0.8868 0.0000
vt 0.2521 0.7779 0.0000
vt 0.3322 0.7864 0.0000
vt 0.4006 0.9273 0.0000
vt 0.3931 0.8666 0.0000
vt 0.2404 0.7724 0.0000
vt 0.3351 0.7753 0.0000
vt 0.3880 0.7035 0.0000
vt 0.3836 0.7682 0.0000
vt 0.3701 0.7672 0.0000
vt 0.3752 0.6989 0.0000
vt 0.2532 0.4668 0.0000
vt 0.2397 0.4656 0.0000
vt 0.2397 0.4406 0.0000
vt 0.2532 0.4428 0.0000
vt 0.3984 0.8249 0.0000
vt 0.4143 0.8474 0.0000
vt 0.0470 0.4731 0.0000
vt 0.0340 0.4682 0.0000
vt 0.0363 0.4380 0.0000
vt 0.0477 0.4425 0.0000
vt 0.4042 0.8430 0.0000
vt 0.0375 0.4798 0.0000
vt 0.0507 0.4757 0.0000
vt 0.0456 0.5026 0.0000
vt 0.0340 0.5055 0.0000
vt 0.9310 0.7352 0.0000
vt 0.9329 0.7288 0.0000
vt 0.9707 0.7536 0.0000
vt 0.9687 0.7569 0.0000
vt 0.9890 0.8092 0.0000
vt 0.9572 0.8858 0.0000
vt 0.9689 0.8543 0.0000
vt 0.9891 0.9066 0.0000
vt 0.9755 0.7457 0.0000
vt 0.9184 0.8769 0.0000
vt 0.9312 0.8326 0.0000
vt 0.9358 0.7154 0.0000
vt 0.8670 0.7860 0.0000
vt 0.8303 0.8090 0.0000
vt 0.8282 0.8057 0.0000
vt 0.8650 0.7796 0.0000
vt 0.8078 0.8623 0.0000
vt 0.8399 0.9404 0.0000
vt 0.8087 0.9623 0.0000
vt 0.8312 0.9089 0.0000
vt 0.8191 0.7985 0.0000
vt 0.8783 0.9301 0.0000
vt 0.8680 0.8860 0.0000
vt 0.8577 0.7668 0.0000
vt 0.9301 0.7842 0.0000
vt 0.9320 0.7778 0.0000
vt 0.9695 0.8014 0.0000
vt 0.9674 0.8048 0.0000
vt 0.9870 0.8553 0.0000
vt 0.9563 0.9355 0.0000
vt 0.9684 0.9047 0.0000
vt 0.9879 0.9553 0.0000
vt 0.9743 0.7928 0.0000
vt 0.9177 0.9277 0.0000
vt 0.9310 0.8842 0.0000
vt 0.9351 0.7638 0.0000
vt 0.8679 0.7336 0.0000
vt 0.8314 0.7554 0.0000
vt 0.8293 0.7521 0.0000
vt 0.8658 0.7273 0.0000
vt 0.8097 0.8084 0.0000
vt 0.8407 0.8850 0.0000
vt 0.8098 0.9059 0.0000
vt 0.8316 0.8528 0.0000
vt 0.8201 0.7455 0.0000
vt 0.8790 0.8759 0.0000
vt 0.8681 0.8311 0.0000
vt 0.8583 0.7152 0.0000
vt 0.4117 0.1840 0.0000
vt 0.4263 0.1756 0.0000
vt 0.3942 0.2129 0.0000
vt 0.3929 0.2467 0.0000
vt 0.4081 0.2768 0.0000
vt 0.4360 0.2959 0.0000
vt 0.4697 0.2990 0.0000
vt 0.3313 0.1784 0.0000
vt 0.3680 0.1329 0.0000
vt 0.3905 0.2103 0.0000
vt 0.3135 0.2339 0.0000
vt 0.3801 0.2424 0.0000
vt 0.3167 0.2921 0.0000
vt 0.3820 0.2762 0.0000
vt 0.3407 0.3453 0.0000
vt 0.3959 0.3069 0.0000
vt 0.3822 0.3863 0.0000
vt 0.4199 0.3307 0.0000
vt 0.3888 0.0920 0.0000
vt 0.3849 0.0268 0.0000
vt 0.2216 0.0630 0.0000
vt 0.2853 0.0412 0.0000
vt 0.3025 0.1051 0.0000
vt 0.2473 0.1240 0.0000
vt 0.1615 0.0933 0.0000
vt 0.1952 0.1502 0.0000
vt 0.1060 0.1313 0.0000
vt 0.1471 0.1832 0.0000
vt 0.0562 0.1765 0.0000
vt 0.1038 0.2224 0.0000
vt 0.8280 0.1291 0.0000
vt 0.8289 0.0723 0.0000
vt 0.9050 0.0738 0.0000
vt 0.9041 0.1300 0.0000
vt 0.8276 0.1860 0.0000
vt 0.9036 0.1862 0.0000
vt 0.8276 0.2429 0.0000
vt 0.9037 0.2425 0.0000
vt 0.7639 0.6645 0.0000
vt 0.7084 0.6688 0.0000
vt 0.6576 0.6431 0.0000
vt 0.6266 0.5955 0.0000
vt 0.6235 0.5387 0.0000
vt 0.3483 0.6084 0.0000
vt 0.3349 0.6010 0.0000
vt 0.3641 0.6347 0.0000
vt 0.3646 0.6653 0.0000
vt 0.3497 0.6921 0.0000
vt 0.3235 0.7079 0.0000
vt 0.3374 0.4394 0.0000
vt 0.3920 0.4678 0.0000
vt 0.3593 0.5098 0.0000
vt 0.3185 0.4636 0.0000
vt 0.3163 0.5347 0.0000
vt 0.2938 0.4779 0.0000
vt 0.2746 0.5359 0.0000
vt 0.2698 0.4786 0.0000
vt 0.4996 0.6148 0.0000
vt 0.4884 0.5543 0.0000
vt 0.5416 0.5543 0.0000
vt 0.5303 0.6148 0.0000
vt 0.1231 0.6814 0.0000
vt 0.1653 0.7205 0.0000
vt 0.4817 0.8661 0.0000
vt 0.4777 0.9272 0.0000
vt 0.4833 0.5559 0.0000
vt 0.4913 0.6164 0.0000
vt 0.4319 0.6164 0.0000
vt 0.4319 0.5559 0.0000
vt 0.3724 0.6164 0.0000
vt 0.3805 0.5559 0.0000
vt 0.4842 0.5000 0.0000
vt 0.5457 0.5000 0.0000
vt 0.3909 0.7093 0.0000
vt 0.4514 0.7012 0.0000
vt 0.4936 0.6984 0.0000
vt 0.4319 0.6984 0.0000
vt 0.3701 0.6984 0.0000
vt 0.4830 0.4380 0.0000
vt 0.5469 0.4380 0.0000
vt 0.5334 0.6989 0.0000
vt 0.1230 0.6792 0.0000
vt 0.1882 0.6766 0.0000
vt 0.2430 0.6437 0.0000
vt 0.2740 0.5878 0.0000
vt 0.2729 0.5238 0.0000
vt 0.4985 0.8244 0.0000
vt 0.4813 0.8480 0.0000
vt 0.4629 0.5075 0.0000
vt 0.4755 0.5317 0.0000
vt 0.4658 0.5362 0.0000
vt 0.4538 0.5125 0.0000
vt 0.4680 0.8435 0.0000
vt 0.3932 0.1183 0.0000
vt 0.3597 0.0937 0.0000
vt 0.3507 0.0285 0.0000
vt 0.9066 0.0182 0.0000
vt 0.8290 0.0165 0.0000
vt 0.1497 0.9349 0.0000
vt 0.1065 0.8955 0.0000
vt 0.3994 0.5464 0.0000
vt 0.4378 0.4975 0.0000
vt 0.5352 0.6167 0.0000
vt 0.5408 0.6970 0.0000
vt 0.1327 0.9473 0.0000
vt 0.0967 0.9025 0.0000
vt 0.5109 0.8666 0.0000
vt 0.5034 0.9273 0.0000
vt 0.5464 0.6141 0.0000
vt 0.5459 0.7089 0.0000
vt 0.3871 0.8233 0.0000
vt 0.3743 0.8287 0.0000
vt 0.0581 0.6422 0.0000
vt 0.0500 0.6648 0.0000
vt 0.0365 0.6623 0.0000
vt 0.0451 0.6387 0.0000
vt 0.5322 0.8249 0.0000
vt 0.5163 0.8474 0.0000
vt 0.0540 0.4380 0.0000
vt 0.0846 0.4396 0.0000
vt 0.0883 0.4512 0.0000
vt 0.0580 0.4514 0.0000
vt 0.4998 0.8430 0.0000
vt 0.2134 0.4380 0.0000
vt 0.2393 0.4390 0.0000
vt 0.2345 0.4499 0.0000
vt 0.2071 0.4503 0.0000
vt 0.6402 0.8485 0.0000
vt 0.6632 0.8856 0.0000
vt 0.6600 0.8877 0.0000
vt 0.6337 0.8506 0.0000
vt 0.7165 0.9041 0.0000
vt 0.7313 0.8664 0.0000
vt 0.7534 0.8977 0.0000
vt 0.7001 0.8792 0.0000
vt 0.6523 0.8928 0.0000
vt 0.7210 0.8277 0.0000
vt 0.6770 0.8421 0.0000
vt 0.6205 0.8540 0.0000
vt 0.5933 0.7835 0.0000
vt 0.5868 0.7817 0.0000
vt 0.6117 0.7438 0.0000
vt 0.6151 0.7458 0.0000
vt 0.6679 0.7213 0.0000
vt 0.7801 0.7438 0.0000
vt 0.7482 0.7362 0.0000
vt 0.8010 0.7117 0.0000
vt 0.6041 0.7349 0.0000
vt 0.7711 0.7828 0.0000
vt 0.7264 0.7739 0.0000
vt 0.5736 0.7748 0.0000
vt 0.5937 0.8469 0.0000
vt 0.6157 0.8837 0.0000
vt 0.6124 0.8859 0.0000
vt 0.5873 0.8490 0.0000
vt 0.6671 0.9016 0.0000
vt 0.7793 0.8609 0.0000
vt 0.8003 0.8920 0.0000
vt 0.7488 0.8742 0.0000
vt 0.6039 0.8911 0.0000
vt 0.7701 0.8224 0.0000
vt 0.7269 0.8373 0.0000
vt 0.5734 0.8527 0.0000
vt 0.6364 0.7852 0.0000
vt 0.6299 0.7833 0.0000
vt 0.6536 0.7457 0.0000
vt 0.6570 0.7478 0.0000
vt 0.7095 0.7240 0.0000
vt 0.7265 0.7494 0.0000
vt 0.6938 0.7413 0.0000
vt 0.7463 0.7176 0.0000
vt 0.6466 0.7367 0.0000
vt 0.7186 0.7882 0.0000
vt 0.6732 0.7788 0.0000
vt 0.6175 0.7761 0.0000
# 373 texture coords

o Sour_Forest_Cave
g Sour_Forest_Cave
usemtl wire_087225087
s 1
f 1/1/1 2/2/2 3/3/3 
f 1/1/1 3/3/3 4/4/4 
f 1/1/1 4/4/4 5/5/5 
f 1/1/1 5/5/5 6/6/6 
f 1/1/1 6/6/6 7/7/7 
f 1/1/1 7/7/7 8/8/8 
f 9/9/9 4/10/4 3/11/3 10/12/10 
f 11/13/11 5/14/5 4/10/4 9/9/9 
f 12/15/12 6/16/6 5/14/5 11/13/11 
f 13/17/13 7/18/7 6/16/6 12/15/12 
f 14/19/14 8/20/8 7/18/7 13/17/13 
f 15/21/15 16/22/16 17/23/17 18/24/18 
f 19/25/19 11/26/11 9/9/9 20/27/20 
f 21/28/21 12/29/12 11/26/11 19/25/19 
f 22/30/22 13/31/13 12/29/12 21/28/21 
f 23/32/23 14/33/14 13/31/13 22/30/22 
f 24/34/24 19/35/19 20/36/20 25/37/25 
f 26/38/26 21/39/21 19/35/19 24/34/24 
f 27/40/27 22/41/22 21/39/21 26/38/26 
f 28/42/28 23/43/23 22/41/22 27/40/27 
f 29/44/29 30/45/30 31/46/31 
f 29/44/29 25/37/25 30/45/30 
f 29/44/29 24/47/24 25/37/25 
f 29/44/29 26/48/26 24/47/24 
f 29/44/29 27/49/27 26/48/26 
f 29/44/29 28/50/28 27/49/27 
f 1/1/1 32/51/32 2/2/2 
f 33/52/33 34/53/34 35/54/35 
f 36/55/36 33/52/33 35/54/35 
f 37/56/37 36/55/36 35/54/35 
f 38/57/38 37/56/37 35/54/35 
f 39/58/39 38/57/38 35/54/35 
f 40/59/40 39/58/39 35/54/35 
f 33/60/33 36/61/36 41/62/41 42/63/42 
f 36/61/36 37/64/37 43/65/43 41/62/41 
f 37/64/37 38/66/38 44/67/44 43/65/43 
f 38/68/38 39/69/39 45/70/45 44/71/44 
f 39/69/39 40/72/40 46/73/46 45/70/45 
f 47/74/47 48/75/48 49/76/49 50/77/50 
f 41/78/41 43/79/43 51/80/51 52/81/52 
f 43/79/43 44/82/44 53/83/53 51/80/51 
f 44/71/44 45/70/45 54/84/54 53/85/53 
f 45/86/45 46/87/46 55/88/55 54/89/54 
f 52/81/52 51/80/51 56/90/56 57/91/57 
f 51/80/51 53/83/53 58/92/58 56/90/56 
f 53/85/53 54/84/54 59/93/59 58/94/58 
f 54/89/54 55/88/55 60/95/60 59/96/59 
f 61/97/61 62/98/62 63/99/63 
f 62/98/62 57/100/57 63/99/63 
f 57/100/57 56/101/56 63/99/63 
f 56/101/56 58/102/58 63/99/63 
f 58/102/58 59/103/59 63/99/63 
f 59/103/59 60/104/60 63/99/63 
f 34/53/34 64/105/64 35/54/35 
s off
f 17/106/17 16/107/16 65/108/65 
f 16/109/16 48/110/48 66/111/66 65/112/65 
f 48/75/48 47/74/47 66/113/66 
s 1
f 18/114/18 2/115/2 32/116/32 15/117/15 
f 10/12/10 67/118/67 20/27/20 9/9/9 
f 67/119/67 30/45/30 25/37/25 20/36/20 
f 3/11/3 2/115/2 18/114/18 10/12/10 
f 10/12/10 18/24/18 17/23/17 67/118/67 
f 64/120/64 34/121/34 50/122/50 49/123/49 
f 52/124/52 68/125/68 42/63/42 41/62/41 
f 57/91/57 62/126/62 68/127/68 52/81/52 
f 50/122/50 34/121/34 33/60/33 42/63/42 
f 47/74/47 50/77/50 42/128/42 68/129/68 
s 4
f 68/127/68 62/126/62 30/130/30 67/131/67 
s 2
f 62/132/62 61/133/61 31/134/31 30/135/30 
s off
f 47/136/47 17/137/17 65/138/65 66/139/66 
f 67/140/67 17/106/17 69/141/69 
f 17/142/17 47/143/47 70/144/70 69/145/69 
f 47/74/47 68/129/68 70/146/70 
f 68/147/68 67/148/67 69/149/69 70/150/70 
f 71/151/71 72/152/72 73/153/73 74/154/74 
f 74/154/74 73/153/73 75/155/75 
f 76/156/76 74/157/74 75/158/75 
f 73/153/73 77/159/77 75/155/75 
f 78/160/78 71/161/71 74/157/74 76/156/76 
f 72/152/72 79/162/79 77/159/77 73/153/73 
f 80/163/80 81/164/81 82/165/82 83/166/83 
f 81/164/81 75/167/75 82/165/82 
f 76/168/76 75/169/75 81/170/81 
f 82/165/82 75/167/75 77/171/77 
f 78/172/78 76/168/76 81/170/81 80/173/80 
f 83/166/83 82/165/82 77/171/77 79/174/79 
f 84/175/84 85/176/85 86/177/86 87/178/87 
f 87/178/87 86/177/86 88/179/88 
f 89/180/89 87/181/87 88/182/88 
f 86/177/86 90/183/90 88/179/88 
f 91/184/91 84/185/84 87/181/87 89/180/89 
f 85/176/85 92/186/92 90/183/90 86/177/86 
f 93/187/93 94/188/94 95/189/95 96/190/96 
f 94/188/94 88/191/88 95/189/95 
f 89/192/89 88/193/88 94/194/94 
f 95/189/95 88/191/88 90/195/90 
f 91/196/91 89/192/89 94/194/94 93/197/93 
f 96/190/96 95/189/95 90/195/90 92/198/92 
s 1
f 84/185/84 91/184/91 78/172/78 80/173/80 
s 2
f 91/196/91 93/197/93 71/161/71 78/160/78 
s 1
f 93/187/93 96/190/96 72/152/72 71/151/71 
s 2
f 85/176/85 84/175/84 80/163/80 83/166/83 
s 4
f 92/186/92 85/176/85 83/166/83 79/174/79 
s 8
f 96/190/96 92/198/92 79/162/79 72/152/72 
s 1
f 1/1/1 97/199/97 98/200/98 
f 1/1/1 99/201/99 97/199/97 
f 1/1/1 100/202/100 99/201/99 
f 1/1/1 101/203/101 100/202/100 
f 1/1/1 102/204/102 101/203/101 
f 1/1/1 8/205/8 102/204/102 
f 103/206/103 104/207/104 97/199/97 99/208/99 
f 105/209/105 103/206/103 99/208/99 100/210/100 
f 106/211/106 105/209/105 100/210/100 101/212/101 
f 107/213/107 106/211/106 101/212/101 102/214/102 
f 14/215/14 107/213/107 102/214/102 8/216/8 
f 15/21/15 108/217/108 109/218/109 16/22/16 
f 110/219/110 111/220/111 103/221/103 105/222/105 
f 112/223/112 110/219/110 105/222/105 106/224/106 
f 113/225/113 112/223/112 106/224/106 107/226/107 
f 23/227/23 113/225/113 107/226/107 14/228/14 
f 114/229/114 115/230/115 111/231/111 110/232/110 
f 116/233/116 114/229/114 110/232/110 112/234/112 
f 117/235/117 116/233/116 112/234/112 113/236/113 
f 28/42/28 117/235/117 113/236/113 23/43/23 
f 29/44/29 31/46/31 118/237/118 
f 29/44/29 118/237/118 115/238/115 
f 29/44/29 115/238/115 114/239/114 
f 29/44/29 114/239/114 116/240/116 
f 29/44/29 116/240/116 117/241/117 
f 29/44/29 117/241/117 28/50/28 
f 1/1/1 98/200/98 32/51/32 
f 119/242/119 35/54/35 120/243/120 
f 121/244/121 35/54/35 119/242/119 
f 122/245/122 35/54/35 121/244/121 
f 123/246/123 35/54/35 122/245/122 
f 124/247/124 35/54/35 123/246/123 
f 40/59/40 35/54/35 124/247/124 
f 119/248/119 125/249/125 126/250/126 121/251/121 
f 121/251/121 126/250/126 127/252/127 122/253/122 
f 122/253/122 127/252/127 128/254/128 123/255/123 
f 123/256/123 128/257/128 129/258/129 124/259/124 
f 124/260/124 129/261/129 46/73/46 40/72/40 
f 130/262/130 131/263/131 49/76/49 48/75/48 
f 126/264/126 132/265/132 133/266/133 127/267/127 
f 127/267/127 133/266/133 134/268/134 128/269/128 
f 128/257/128 134/270/134 135/271/135 129/258/129 
f 129/272/129 135/273/135 55/88/55 46/87/46 
f 132/265/132 136/274/136 137/275/137 133/266/133 
f 133/266/133 137/275/137 138/276/138 134/268/134 
f 134/270/134 138/277/138 139/278/139 135/271/135 
f 135/273/135 139/279/139 60/95/60 55/88/55 
f 61/97/61 63/99/63 140/280/140 
f 140/280/140 63/99/63 136/281/136 
f 136/281/136 63/99/63 137/282/137 
f 137/282/137 63/99/63 138/283/138 
f 138/283/138 63/99/63 139/284/139 
f 139/284/139 63/99/63 60/104/60 
f 120/243/120 35/54/35 64/105/64 
s off
f 109/285/109 141/286/141 16/107/16 
f 16/287/16 141/288/141 142/289/142 48/290/48 
f 48/75/48 142/291/142 130/262/130 
s 1
f 108/292/108 15/117/15 32/116/32 98/200/98 
f 104/293/104 103/221/103 111/220/111 143/294/143 
f 143/295/143 111/231/111 115/230/115 118/296/118 
f 97/199/97 104/207/104 108/292/108 98/200/98 
f 104/293/104 143/294/143 109/218/109 108/217/108 
f 64/120/64 49/123/49 131/297/131 120/298/120 
f 132/299/132 126/250/126 125/249/125 144/300/144 
f 136/274/136 132/265/132 144/301/144 140/302/140 
f 131/297/131 125/303/125 119/304/119 120/298/120 
f 130/262/130 144/305/144 125/306/125 131/263/131 
s 4
f 144/301/144 143/307/143 118/308/118 140/302/140 
s 2
f 140/309/140 118/310/118 31/134/31 61/133/61 
s off
f 130/311/130 142/312/142 141/313/141 109/314/109 
f 143/315/143 145/316/145 109/285/109 
f 109/317/109 145/318/145 146/319/146 130/320/130 
f 130/262/130 146/321/146 144/305/144 
f 144/322/144 146/323/146 145/324/145 143/325/143 
f 147/326/147 148/327/148 149/328/149 150/329/150 
f 148/327/148 151/330/151 149/328/149 
f 152/331/152 151/332/151 148/333/148 
f 149/328/149 151/330/151 153/334/153 
f 154/335/154 152/331/152 148/333/148 147/336/147 
f 150/329/150 149/328/149 153/334/153 155/337/155 
f 156/338/156 157/339/157 158/340/158 159/341/159 
f 159/341/159 158/340/158 151/342/151 
f 152/343/152 159/344/159 151/345/151 
f 158/340/158 153/346/153 151/342/151 
f 154/347/154 156/348/156 159/344/159 152/343/152 
f 157/339/157 155/349/155 153/346/153 158/340/158 
f 160/350/160 161/351/161 162/352/162 163/353/163 
f 161/351/161 164/354/164 162/352/162 
f 165/355/165 164/356/164 161/357/161 
f 162/352/162 164/354/164 166/358/166 
f 167/359/167 165/355/165 161/357/161 160/360/160 
f 163/353/163 162/352/162 166/358/166 168/361/168 
f 169/362/169 170/363/170 171/364/171 172/365/172 
f 172/365/172 171/364/171 164/366/164 
f 165/367/165 172/368/172 164/369/164 
f 171/364/171 166/370/166 164/366/164 
f 167/371/167 169/372/169 172/368/172 165/367/165 
f 170/363/170 168/373/168 166/370/166 171/364/171 
s 1
f 160/360/160 156/348/156 154/347/154 167/359/167 
s 2
f 167/371/167 154/335/154 147/336/147 169/372/169 
s 1
f 169/362/169 147/326/147 150/329/150 170/363/170 
s 2
f 163/353/163 157/339/157 156/338/156 160/350/160 
s 4
f 168/361/168 155/349/155 157/339/157 163/353/163 
s 8
f 170/363/170 150/329/150 155/337/155 168/373/168 
# 124 polygons - 84 triangles

