# 3ds Max Wavefront OBJ Exporter v0.99 - (c)2007 guruware
# File Created: 15.09.2026 16:52:23

mtllib Sour Forest Rock.mtl

#
# object Sour_Forest_Rock
#

v  -150.6624 7.8314 36.0648
v  -150.6624 7.1914 33.6764
v  -151.8566 7.1914 33.9964
v  -152.7308 7.1914 34.8706
v  -153.0508 7.1914 36.0648
v  -152.7308 7.1914 37.2590
v  -151.8566 7.1914 38.1332
v  -150.6624 7.1914 38.4532
v  -149.4682 7.1914 38.1332
v  -148.5940 7.1914 37.2590
v  -148.2740 7.1914 36.0648
v  -148.5940 7.1914 34.8706
v  -149.4682 7.1914 33.9964
v  -150.6624 5.4430 31.9280
v  -152.7308 5.4430 32.4822
v  -154.2450 5.4430 33.9964
v  -154.7992 5.4430 36.0648
v  -154.2450 5.4430 38.1332
v  -152.7308 5.4430 39.6473
v  -150.6624 5.4430 40.2016
v  -148.5940 5.4430 39.6474
v  -147.0799 5.4430 38.1332
v  -146.5256 5.4430 36.0648
v  -147.0799 5.4430 33.9964
v  -148.5940 5.4430 32.4822
v  -150.6624 3.0547 31.2880
v  -153.0508 3.0547 31.9280
v  -154.7992 3.0547 33.6764
v  -155.4392 3.0547 36.0648
v  -154.7992 3.0547 38.4532
v  -153.0508 3.0547 40.2016
v  -150.6624 3.0547 40.8415
v  -148.2740 3.0547 40.2016
v  -146.5256 3.0547 38.4532
v  -145.8857 3.0547 36.0648
v  -146.5256 3.0547 33.6764
v  -148.2740 3.0547 31.9280
v  -150.6624 0.1405 30.8359
v  -153.2769 0.1405 31.5364
v  -155.1908 0.1405 33.4503
v  -155.8913 0.1405 36.0648
v  -155.1908 0.1405 38.6792
v  -153.2769 0.1405 40.5931
v  -150.6624 0.1405 41.2937
v  -148.0480 0.1405 40.5931
v  -146.1341 0.1405 38.6792
v  -145.4335 0.1405 36.0648
v  -146.1341 0.1405 33.4503
v  -148.0480 0.1405 31.5364
v  -150.6624 0.1316 36.0648
# 50 vertices

vn 0.0000 1.0000 0.0000
vn 0.0000 0.8474 -0.5309
vn -0.2655 0.8474 -0.4598
vn -0.4598 0.8474 -0.2654
vn -0.5309 0.8474 0.0000
vn -0.4598 0.8474 0.2654
vn -0.2655 0.8474 0.4598
vn -0.0000 0.8474 0.5309
vn 0.2654 0.8474 0.4598
vn 0.4598 0.8474 0.2655
vn 0.5309 0.8474 0.0000
vn 0.4598 0.8474 -0.2654
vn 0.2655 0.8474 -0.4598
vn 0.0000 0.4823 -0.8760
vn -0.4380 0.4823 -0.7586
vn -0.7586 0.4823 -0.4380
vn -0.8760 0.4823 -0.0000
vn -0.7586 0.4823 0.4380
vn -0.4380 0.4823 0.7586
vn -0.0000 0.4823 0.8760
vn 0.4380 0.4823 0.7586
vn 0.7586 0.4823 0.4380
vn 0.8760 0.4823 0.0000
vn 0.7586 0.4823 -0.4380
vn 0.4380 0.4823 -0.7586
vn 0.0000 0.2046 -0.9788
vn -0.4894 0.2046 -0.8477
vn -0.8477 0.2046 -0.4894
vn -0.9788 0.2046 -0.0000
vn -0.8477 0.2046 0.4894
vn -0.4894 0.2046 0.8477
vn -0.0000 0.2046 0.9788
vn 0.4894 0.2046 0.8477
vn 0.8477 0.2046 0.4894
vn 0.9788 0.2046 0.0000
vn 0.8477 0.2046 -0.4894
vn 0.4894 0.2046 -0.8477
vn 0.0000 -0.5942 -0.8043
vn -0.4022 -0.5942 -0.6966
vn -0.6966 -0.5942 -0.4022
vn -0.8043 -0.5942 -0.0000
vn -0.6966 -0.5942 0.4022
vn -0.4022 -0.5942 0.6966
vn -0.0000 -0.5942 0.8043
vn 0.4022 -0.5942 0.6966
vn 0.6966 -0.5942 0.4022
vn 0.8043 -0.5942 0.0000
vn 0.6966 -0.5942 -0.4022
vn 0.4022 -0.5942 -0.6966
vn -0.0000 -1.0000 -0.0000
# 50 vertex normals

vt 0.2601 0.3193 0.0000
vt 0.2527 0.2393 0.0000
vt 0.2923 0.2457 0.0000
vt 0.3239 0.2705 0.0000
vt 0.3396 0.3075 0.0000
vt 0.3354 0.3474 0.0000
vt 0.3124 0.3803 0.0000
vt 0.2979 0.3902 0.0000
vt 0.2588 0.3996 0.0000
vt 0.2201 0.3889 0.0000
vt 0.1914 0.3608 0.0000
vt 0.1798 0.3224 0.0000
vt 0.1884 0.2831 0.0000
vt 0.2149 0.2529 0.0000
vt 0.3377 0.2202 0.0000
vt 0.3997 0.1690 0.0000
vt 0.4334 0.2299 0.0000
vt 0.3572 0.2553 0.0000
vt 0.4430 0.2988 0.0000
vt 0.3627 0.2951 0.0000
vt 0.4271 0.3665 0.0000
vt 0.3535 0.3342 0.0000
vt 0.3879 0.4240 0.0000
vt 0.3309 0.3674 0.0000
vt 0.3306 0.4636 0.0000
vt 0.2630 0.4798 0.0000
vt 0.1940 0.4707 0.0000
vt 0.2190 0.3943 0.0000
vt 0.1330 0.4373 0.0000
vt 0.1837 0.3751 0.0000
vt 0.0880 0.3843 0.0000
vt 0.1578 0.3444 0.0000
vt 0.0651 0.3185 0.0000
vt 0.1446 0.3065 0.0000
vt 0.0675 0.2490 0.0000
vt 0.1459 0.2663 0.0000
vt 0.0947 0.1850 0.0000
vt 0.1616 0.2294 0.0000
vt 0.4147 0.1628 0.0000
vt 0.4905 0.1361 0.0000
vt 0.5121 0.2135 0.0000
vt 0.5231 0.2931 0.0000
vt 0.5234 0.3734 0.0000
vt 0.4432 0.3684 0.0000
vt 0.5130 0.4531 0.0000
vt 0.4342 0.4373 0.0000
vt 0.4920 0.5306 0.0000
vt 0.4160 0.5045 0.0000
vt 0.4608 0.6047 0.0000
vt 0.3890 0.5686 0.0000
vt 0.4200 0.6739 0.0000
vt 0.3537 0.6286 0.0000
vt 0.3704 0.7371 0.0000
vt 0.3107 0.6833 0.0000
vt 0.3127 0.7930 0.0000
vt 0.2607 0.7317 0.0000
vt 0.2481 0.8407 0.0000
vt 0.2048 0.7730 0.0000
vt 0.1776 0.8794 0.0000
vt 0.1438 0.8065 0.0000
vt 0.3872 0.0989 0.0000
vt 0.4587 0.0623 0.0000
vt 0.5817 0.1067 0.0000
vt 0.6053 0.1915 0.0000
vt 0.6064 0.1966 0.0000
vt 0.6185 0.2837 0.0000
vt 0.6188 0.2889 0.0000
vt 0.6192 0.3769 0.0000
vt 0.6188 0.3821 0.0000
vt 0.6074 0.4693 0.0000
vt 0.6064 0.4744 0.0000
vt 0.5834 0.5593 0.0000
vt 0.5817 0.5643 0.0000
vt 0.5476 0.6453 0.0000
vt 0.5452 0.6500 0.0000
vt 0.5006 0.7258 0.0000
vt 0.4976 0.7301 0.0000
vt 0.4433 0.7992 0.0000
vt 0.4397 0.8031 0.0000
vt 0.3766 0.8644 0.0000
vt 0.3726 0.8678 0.0000
vt 0.3019 0.9200 0.0000
vt 0.2975 0.9228 0.0000
vt 0.2204 0.9651 0.0000
vt 0.5452 0.0210 0.0000
vt 0.5799 0.1018 0.0000
vt 0.7750 0.2176 0.0000
vt 0.6395 0.1151 0.0000
vt 0.6725 0.3531 0.0000
vt 0.7540 0.3862 0.0000
vt 0.8411 0.3741 0.0000
vt 0.9105 0.3201 0.0000
vt 0.9436 0.2386 0.0000
vt 0.9315 0.1515 0.0000
vt 0.8775 0.0821 0.0000
vt 0.7960 0.0490 0.0000
vt 0.7089 0.0611 0.0000
# 97 texture coords

o Sour_Forest_Rock
g Sour_Forest_Rock
usemtl wire_087225087
s 1
f 1/1/1 2/2/2 3/3/3 
f 1/1/1 3/3/3 4/4/4 
f 1/1/1 4/4/4 5/5/5 
f 1/1/1 5/5/5 6/6/6 
f 1/1/1 6/6/6 7/7/7 
f 1/1/1 7/8/7 8/9/8 
f 1/1/1 8/9/8 9/10/9 
f 1/1/1 9/10/9 10/11/10 
f 1/1/1 10/11/10 11/12/11 
f 1/1/1 11/12/11 12/13/12 
f 1/1/1 12/13/12 13/14/13 
f 1/1/1 13/14/13 2/2/2 
f 2/15/2 14/16/14 15/17/15 3/18/3 
f 3/18/3 15/17/15 16/19/16 4/20/4 
f 4/20/4 16/19/16 17/21/17 5/22/5 
f 5/22/5 17/21/17 18/23/18 6/24/6 
f 6/24/6 18/23/18 19/25/19 7/8/7 
f 7/8/7 19/25/19 20/26/20 8/9/8 
f 8/9/8 20/26/20 21/27/21 9/28/9 
f 9/28/9 21/27/21 22/29/22 10/30/10 
f 10/30/10 22/29/22 23/31/23 11/32/11 
f 11/32/11 23/31/23 24/33/24 12/34/12 
f 12/34/12 24/33/24 25/35/25 13/36/13 
f 13/36/13 25/35/25 14/37/14 2/38/2 
f 14/39/14 26/40/26 27/41/27 15/17/15 
f 15/17/15 27/41/27 28/42/28 16/19/16 
f 16/19/16 28/42/28 29/43/29 17/44/17 
f 17/44/17 29/43/29 30/45/30 18/46/18 
f 18/46/18 30/45/30 31/47/31 19/48/19 
f 19/48/19 31/47/31 32/49/32 20/50/20 
f 20/50/20 32/49/32 33/51/33 21/52/21 
f 21/52/21 33/51/33 34/53/34 22/54/22 
f 22/54/22 34/53/34 35/55/35 23/56/23 
f 23/56/23 35/55/35 36/57/36 24/58/24 
f 24/58/24 36/57/36 37/59/37 25/60/25 
f 25/61/25 37/62/37 26/40/26 14/39/14 
f 26/40/26 38/63/38 39/64/39 27/41/27 
f 27/41/27 39/65/39 40/66/40 28/42/28 
f 28/42/28 40/67/40 41/68/41 29/43/29 
f 29/43/29 41/69/41 42/70/42 30/45/30 
f 30/45/30 42/71/42 43/72/43 31/47/31 
f 31/47/31 43/73/43 44/74/44 32/49/32 
f 32/49/32 44/75/44 45/76/45 33/51/33 
f 33/51/33 45/77/45 46/78/46 34/53/34 
f 34/53/34 46/79/46 47/80/47 35/55/35 
f 35/55/35 47/81/47 48/82/48 36/57/36 
f 36/57/36 48/83/48 49/84/49 37/59/37 
f 37/62/37 49/85/49 38/86/38 26/40/26 
f 50/87/50 39/65/39 38/88/38 
f 50/87/50 40/66/40 39/65/39 
f 50/87/50 41/89/41 40/66/40 
f 50/87/50 42/90/42 41/89/41 
f 50/87/50 43/91/43 42/90/42 
f 50/87/50 44/92/44 43/91/43 
f 50/87/50 45/93/45 44/92/44 
f 50/87/50 46/94/46 45/93/45 
f 50/87/50 47/95/47 46/94/46 
f 50/87/50 48/96/48 47/95/47 
f 50/87/50 49/97/49 48/96/48 
f 50/87/50 38/88/38 49/97/49 
# 36 polygons - 24 triangles

