# 3ds Max Wavefront OBJ Exporter v0.99 - (c)2007 guruware
# File Created: 03.09.2025 10:59:54

mtllib Sour Forrest Cave.mtl

#
# object Sour_Forrest_Cave
#

v  103.8997 3.9799 38.9230
v  103.8997 3.9799 6.2030
v  183.0317 3.9799 6.2030
v  183.0317 3.9799 38.9230
v  183.0317 38.6087 38.9230
v  103.8997 38.6087 38.9230
v  103.8997 38.6087 6.2030
v  115.2506 5.4556 6.2030
v  175.3478 5.4556 6.2030
v  163.9944 34.8400 6.2030
v  126.6039 34.8400 6.2030
v  183.0317 38.6087 6.2030
v  115.2506 5.4556 -10.1353
v  175.3478 5.4556 -10.1353
v  135.5918 58.1021 3.1904
v  135.5918 58.1021 -3.3172
v  155.0065 58.1021 -3.3172
v  155.0065 58.1021 3.1904
v  110.7371 1.4868 54.0454
v  110.7371 1.4868 8.3346
v  181.5562 1.4868 8.3346
v  181.5562 1.4868 54.0454
v  164.8808 1.9143 54.2328
v  127.4124 1.9143 54.2328
v  132.7089 36.9913 54.8412
v  132.7089 36.9913 37.4941
v  159.5844 36.9913 37.4941
v  159.5844 36.9913 54.8412
v  139.0371 20.6987 54.6538
v  153.2562 20.6987 54.6538
v  164.8808 1.9143 46.4774
v  127.4124 1.9143 46.4774
v  139.0371 20.6987 46.8984
v  153.2562 20.6987 46.8984
# 34 vertices

vn -0.5774 -0.5774 0.5774
vn -0.6993 -0.6993 -0.1485
vn 0.5774 -0.5774 -0.5774
vn 0.5774 -0.5774 0.5774
vn 0.5774 0.5774 0.5774
vn -0.5774 0.5774 0.5774
vn -0.5774 0.5774 -0.5774
vn -0.2413 -0.1798 -0.9537
vn 0.6624 -0.4936 0.5636
vn 0.6635 0.2270 0.7130
vn -0.6635 0.2270 0.7130
vn 0.5774 0.5774 -0.5774
vn -0.6542 -0.4727 -0.5904
vn 0.6542 -0.4727 -0.5904
vn -0.4824 0.6744 0.5590
vn -0.4824 0.6744 -0.5590
vn 0.4824 0.6744 -0.5590
vn 0.4824 0.6744 0.5590
vn -0.7061 -0.4458 0.5502
vn -0.6488 -0.3295 -0.6859
vn 0.6488 -0.3295 -0.6859
vn 0.7061 -0.4458 0.5502
vn -0.2716 -0.0259 0.9621
vn 0.2716 -0.0259 0.9621
vn -0.4256 0.6700 0.6082
vn -0.4366 0.8146 -0.3820
vn 0.4366 0.8146 -0.3820
vn 0.4256 0.6700 0.6082
vn 0.2736 -0.4545 0.8477
vn -0.2736 -0.4545 0.8477
vn -0.7007 0.4398 0.5617
vn 0.7007 0.4398 0.5617
vn 0.4247 -0.6795 0.5983
vn -0.4247 -0.6795 0.5983
# 34 vertex normals

vt 0.3940 0.1591 0.0000
vt 0.3940 0.0005 0.0000
vt 0.7776 0.0005 0.0000
vt 0.7776 0.1591 0.0000
vt 0.2179 0.5494 0.0000
vt 0.2179 0.9331 0.0000
vt 0.0005 0.9331 0.0000
vt 0.0005 0.5494 0.0000
vt 0.7182 0.8409 0.0000
vt 0.7182 0.9995 0.0000
vt 0.5008 0.9995 0.0000
vt 0.5008 0.8409 0.0000
vt 0.2179 0.1608 0.0000
vt 0.2179 0.5445 0.0000
vt 0.2086 0.4894 0.0000
vt 0.2086 0.1981 0.0000
vt 0.0242 0.2531 0.0000
vt 0.0242 0.4344 0.0000
vt 0.0005 0.5445 0.0000
vt 0.0005 0.1608 0.0000
vt 0.4996 0.8409 0.0000
vt 0.4996 0.9995 0.0000
vt 0.2822 0.9995 0.0000
vt 0.2822 0.8409 0.0000
vt 0.0054 0.0005 0.0000
vt 0.3890 0.0005 0.0000
vt 0.3890 0.1591 0.0000
vt 0.0054 0.1591 0.0000
vt 0.9186 0.3405 0.0000
vt 0.9978 0.3405 0.0000
vt 0.9978 0.6319 0.0000
vt 0.9186 0.6319 0.0000
vt 0.6610 0.5008 0.0000
vt 0.8070 0.5154 0.0000
vt 0.8070 0.5470 0.0000
vt 0.4765 0.5800 0.0000
vt 0.4765 0.5008 0.0000
vt 0.6368 0.1705 0.0000
vt 0.9282 0.1705 0.0000
vt 0.8296 0.5010 0.0000
vt 0.7355 0.5010 0.0000
vt 0.9978 0.3358 0.0000
vt 0.9186 0.3358 0.0000
vt 0.9516 0.0054 0.0000
vt 0.9832 0.0054 0.0000
vt 0.9978 0.1514 0.0000
vt 0.9966 0.8910 0.0000
vt 0.8506 0.8474 0.0000
vt 0.8506 0.7533 0.0000
vt 0.9966 0.7097 0.0000
vt 0.5445 0.4668 0.0000
vt 0.6387 0.4668 0.0000
vt 0.6387 0.4984 0.0000
vt 0.5445 0.4984 0.0000
vt 0.2191 0.1705 0.0000
vt 0.4407 0.1705 0.0000
vt 0.4407 0.5139 0.0000
vt 0.2191 0.5139 0.0000
vt 0.4425 0.5139 0.0000
vt 0.4425 0.1705 0.0000
vt 0.4452 0.2514 0.0000
vt 0.4452 0.4330 0.0000
vt 0.8500 0.5251 0.0000
vt 0.8500 0.7467 0.0000
vt 0.6271 0.7506 0.0000
vt 0.6271 0.6665 0.0000
vt 0.2191 0.8685 0.0000
vt 0.2191 0.5251 0.0000
vt 0.4420 0.6316 0.0000
vt 0.4420 0.7619 0.0000
vt 0.4561 0.5834 0.0000
vt 0.6777 0.5834 0.0000
vt 0.5364 0.8063 0.0000
vt 0.4523 0.8063 0.0000
vt 0.6654 0.4073 0.0000
vt 0.5631 0.3767 0.0000
vt 0.6654 0.2770 0.0000
vt 0.5631 0.3077 0.0000
vt 0.0054 0.9429 0.0000
vt 0.1870 0.9429 0.0000
vt 0.1870 0.9805 0.0000
vt 0.0054 0.9805 0.0000
vt 0.7874 0.0054 0.0000
vt 0.9177 0.0054 0.0000
vt 0.9177 0.0895 0.0000
vt 0.7874 0.0895 0.0000
vt 0.5057 0.1608 0.0000
vt 0.6236 0.1628 0.0000
vt 0.6236 0.2004 0.0000
vt 0.5057 0.1984 0.0000
vt 0.4050 0.5530 0.0000
vt 0.2871 0.5550 0.0000
vt 0.2871 0.5174 0.0000
vt 0.4050 0.5154 0.0000
vt 0.9011 0.9976 0.0000
vt 0.7194 0.9976 0.0000
vt 0.7758 0.8797 0.0000
vt 0.8447 0.8797 0.0000
vt 0.7106 0.4607 0.0000
vt 0.6417 0.4607 0.0000
vt 0.6417 0.4231 0.0000
vt 0.7106 0.4231 0.0000
# 102 texture coords

o Sour_Forrest_Cave
g Sour_Forrest_Cave
usemtl wire_050124020
s 2
f 1/1/1 2/2/2 3/3/3 4/4/4 
s 8
f 1/5/1 4/6/4 5/7/5 6/8/6 
s 64
f 2/9/2 1/10/1 6/11/6 7/12/7 
s 32
f 3/13/3 2/14/2 8/15/8 9/16/9 10/17/10 11/18/11 8/15/8 2/14/2 7/19/7 12/20/12 
s 16
f 4/21/4 3/22/3 12/23/12 5/24/5 
s 4
f 6/25/6 5/26/5 12/27/12 7/28/7 
s 1
f 8/29/8 13/30/13 14/31/14 9/32/9 
s 2048
f 11/33/11 15/34/15 16/35/16 13/36/13 8/37/8 
s 1024
f 14/38/14 13/39/13 16/40/16 17/41/17 
s 512
f 9/42/9 14/43/14 17/44/17 18/45/18 10/46/10 
s 256
f 10/47/10 18/48/18 15/49/15 11/50/11 
s 128
f 15/51/15 18/52/18 17/53/17 16/54/16 
s 2
f 19/55/19 20/56/20 21/57/21 22/58/22 
s 8
f 19/59/19 22/60/22 23/61/23 24/62/24 
s 64
f 20/63/20 19/64/19 25/65/25 26/66/26 
s 32
f 21/67/21 20/68/20 26/69/26 27/70/27 
s 16
f 22/71/22 21/72/21 27/73/27 28/74/28 
s 8
f 25/75/25 19/59/19 24/62/24 29/76/29 
f 22/60/22 28/77/28 30/78/30 23/61/23 
s off
f 24/79/24 23/80/23 31/81/31 32/82/32 
s 4
f 25/83/25 28/84/28 27/85/27 26/86/26 
s 8
f 28/77/28 25/75/25 29/76/29 30/78/30 
s off
f 29/87/29 24/88/24 32/89/32 33/90/33 
f 23/91/23 30/92/30 34/93/34 31/94/31 
s 8
f 32/95/32 31/96/31 34/97/34 33/98/33 
s off
f 30/99/30 29/100/29 33/101/33 34/102/34 
# 26 polygons

