# 3ds Max Wavefront OBJ Exporter v0.99 - (c)2007 guruware
# File Created: 25.09.2026 19:07:02

mtllib Sour Forest Tree.mtl

#
# object Sour_Forest_Tree
#

v  -68.9583 -0.0000 62.2567
v  -67.1844 -0.0000 61.6111
v  -67.0706 -0.0000 62.2567
v  -67.5122 -0.0000 61.0433
v  -68.0144 -0.0000 60.6219
v  -68.6305 -0.0000 60.3977
v  -69.2861 -0.0000 60.3977
v  -69.9021 -0.0000 60.6219
v  -70.4043 -0.0000 61.0433
v  -70.7321 -0.0000 61.6111
v  -70.8460 -0.0000 62.2567
v  -70.7321 -0.0000 62.9024
v  -70.4043 -0.0000 63.4701
v  -69.9021 -0.0000 63.8915
v  -69.2861 -0.0000 64.1158
v  -68.6305 -0.0000 64.1158
v  -68.0144 -0.0000 63.8915
v  -67.5122 -0.0000 63.4701
v  -67.1844 -0.0000 62.9024
v  -64.6069 -0.0000 60.6730
v  -64.3276 -0.0000 62.2567
v  -65.4110 -0.0000 59.2802
v  -66.6430 -0.0000 58.2465
v  -68.1542 -0.0000 57.6964
v  -69.7624 -0.0000 57.6964
v  -71.2736 -0.0000 58.2465
v  -72.5056 -0.0000 59.2802
v  -73.3097 -0.0000 60.6730
v  -73.5889 -0.0000 62.2567
v  -73.3097 -0.0000 63.8405
v  -72.5056 -0.0000 65.2333
v  -71.2736 -0.0000 66.2670
v  -69.7624 -0.0000 66.8170
v  -68.1542 -0.0000 66.8170
v  -66.6430 -0.0000 66.2670
v  -65.4110 -0.0000 65.2333
v  -64.6069 -0.0000 63.8405
v  -66.1343 6.3154 61.2289
v  -65.9530 6.3154 62.2567
v  -66.6561 6.3154 60.3250
v  -67.4557 6.3154 59.6541
v  -68.4364 6.3154 59.2971
v  -69.4801 6.3154 59.2971
v  -70.4609 6.3154 59.6541
v  -71.2604 6.3154 60.3250
v  -71.7823 6.3154 61.2289
v  -71.9635 6.3154 62.2567
v  -71.7823 6.3154 63.2846
v  -71.2604 6.3154 64.1885
v  -70.4609 6.3154 64.8594
v  -69.4801 6.3154 65.2163
v  -68.4364 6.3154 65.2163
v  -67.4557 6.3154 64.8594
v  -66.6561 6.3154 64.1885
v  -66.1343 6.3154 63.2846
v  -67.0520 18.6663 61.5629
v  -66.9297 18.6663 62.2567
v  -67.4043 18.6663 60.9528
v  -67.9440 18.6663 60.4999
v  -68.6060 18.6663 60.2589
v  -69.3105 18.6663 60.2589
v  -69.9726 18.6663 60.4999
v  -70.5123 18.6663 60.9528
v  -70.8646 18.6663 61.5629
v  -70.9869 18.6663 62.2567
v  -70.8646 18.6663 62.9506
v  -70.5123 18.6663 63.5607
v  -69.9726 18.6663 64.0136
v  -69.3105 18.6663 64.2545
v  -68.6060 18.6663 64.2545
v  -67.9440 18.6663 64.0136
v  -67.4043 18.6663 63.5607
v  -67.0520 18.6663 62.9506
v  -67.0420 25.7914 61.5593
v  -66.9191 25.7914 62.2567
v  -67.3961 25.7914 60.9459
v  -67.9387 25.7914 60.4907
v  -68.6042 25.7914 60.2485
v  -69.3124 25.7914 60.2485
v  -69.9779 25.7914 60.4907
v  -70.5204 25.7914 60.9459
v  -70.8745 25.7914 61.5593
v  -70.9975 25.7914 62.2567
v  -70.8745 25.7914 62.9542
v  -70.5204 25.7914 63.5675
v  -69.9779 25.7914 64.0227
v  -69.3124 25.7914 64.2650
v  -68.6042 25.7914 64.2650
v  -67.9387 25.7914 64.0227
v  -67.3962 25.7914 63.5675
v  -67.0420 25.7914 62.9542
v  -54.8044 28.7185 57.1051
v  -53.8960 28.7185 62.2567
v  -57.4199 28.7185 52.5749
v  -61.4272 28.7185 49.2124
v  -66.3428 28.7185 47.4233
v  -71.5738 28.7185 47.4233
v  -76.4894 28.7185 49.2124
v  -80.4966 28.7185 52.5749
v  -83.1122 28.7185 57.1051
v  -84.0205 28.7185 62.2567
v  -83.1122 28.7185 67.4083
v  -80.4966 28.7185 71.9386
v  -76.4894 28.7185 75.3010
v  -71.5738 28.7185 77.0902
v  -66.3428 28.7185 77.0902
v  -61.4272 28.7185 75.3010
v  -57.4199 28.7185 71.9386
v  -54.8044 28.7185 67.4083
v  -56.9234 44.2450 62.2567
v  -57.6492 44.2450 58.1406
v  -66.1808 46.2595 61.2458
v  -66.0026 46.2595 62.2567
v  -59.7390 44.2450 54.5209
v  -66.6941 46.2595 60.3568
v  -62.9408 44.2450 51.8342
v  -67.4804 46.2595 59.6970
v  -66.8684 44.2450 50.4047
v  -68.4450 46.2595 59.3459
v  -71.0481 44.2450 50.4047
v  -69.4715 46.2595 59.3459
v  -74.9757 44.2450 51.8342
v  -70.4361 46.2595 59.6970
v  -78.1775 44.2450 54.5209
v  -71.2225 46.2595 60.3568
v  -80.2674 44.2450 58.1406
v  -71.7357 46.2595 61.2458
v  -80.9932 44.2450 62.2567
v  -71.9140 46.2595 62.2567
v  -80.2674 44.2450 66.3729
v  -71.7357 46.2595 63.2676
v  -78.1775 44.2450 69.9926
v  -71.2225 46.2595 64.1566
v  -74.9757 44.2450 72.6792
v  -70.4361 46.2595 64.8164
v  -71.0481 44.2450 74.1088
v  -69.4715 46.2595 65.1675
v  -66.8685 44.2450 74.1088
v  -68.4450 46.2595 65.1675
v  -62.9408 44.2450 72.6792
v  -67.4804 46.2595 64.8164
v  -59.7390 44.2450 69.9926
v  -66.6941 46.2595 64.1566
v  -57.6492 44.2450 66.3729
v  -66.1808 46.2595 63.2676
v  -68.9583 46.5494 62.2567
v  -49.6007 32.9574 55.2111
v  -48.3584 32.9574 62.2567
v  -53.1778 32.9574 49.0154
v  -58.6583 32.9574 44.4167
v  -65.3811 32.9574 41.9698
v  -72.5354 32.9574 41.9698
v  -79.2582 32.9574 44.4167
v  -84.7387 32.9574 49.0154
v  -88.3159 32.9574 55.2111
v  -89.5582 32.9574 62.2567
v  -88.3159 32.9574 69.3023
v  -84.7387 32.9574 75.4981
v  -79.2582 32.9574 80.0968
v  -72.5354 32.9574 82.5437
v  -65.3812 32.9574 82.5437
v  -58.6583 32.9574 80.0968
v  -53.1779 32.9574 75.4981
v  -49.6007 32.9574 69.3023
v  -51.1070 39.3836 55.7594
v  -49.9614 39.3836 62.2567
v  -54.4058 39.3836 50.0458
v  -59.4598 39.3836 45.8049
v  -65.6595 39.3836 43.5484
v  -72.2571 39.3836 43.5484
v  -78.4567 39.3836 45.8049
v  -83.5107 39.3836 50.0458
v  -86.8095 39.3836 55.7594
v  -87.9552 39.3836 62.2567
v  -86.8095 39.3836 68.7540
v  -83.5107 39.3836 74.4677
v  -78.4567 39.3836 78.7085
v  -72.2571 39.3836 80.9650
v  -65.6595 39.3836 80.9650
v  -59.4598 39.3836 78.7085
v  -54.4058 39.3836 74.4677
v  -51.1070 39.3836 68.7541
# 182 vertices

vn 0.0000 -1.0000 -0.0000
vn -0.0000 -1.0000 0.0000
vn -0.0000 -1.0000 -0.0000
vn 0.0000 -1.0000 0.0000
vn 0.7698 -0.5736 -0.2802
vn 0.8192 -0.5736 0.0000
vn 0.6275 -0.5736 -0.5266
vn 0.4096 -0.5736 -0.7094
vn 0.1422 -0.5736 -0.8067
vn -0.1422 -0.5736 -0.8067
vn -0.4096 -0.5736 -0.7094
vn -0.6275 -0.5736 -0.5266
vn -0.7698 -0.5736 -0.2802
vn -0.8192 -0.5736 -0.0000
vn -0.7698 -0.5736 0.2802
vn -0.6275 -0.5736 0.5266
vn -0.4096 -0.5736 0.7094
vn -0.1422 -0.5736 0.8067
vn 0.1422 -0.5736 0.8067
vn 0.4096 -0.5736 0.7094
vn 0.6275 -0.5736 0.5266
vn 0.7698 -0.5736 0.2802
vn 0.9266 0.1662 -0.3373
vn 0.9861 0.1662 0.0000
vn 0.7554 0.1662 -0.6338
vn 0.4930 0.1662 -0.8540
vn 0.1712 0.1662 -0.9711
vn -0.1712 0.1662 -0.9711
vn -0.4930 0.1662 -0.8540
vn -0.7554 0.1662 -0.6338
vn -0.9266 0.1662 -0.3373
vn -0.9861 0.1662 -0.0000
vn -0.9266 0.1662 0.3373
vn -0.7554 0.1662 0.6338
vn -0.4930 0.1662 0.8540
vn -0.1712 0.1662 0.9711
vn 0.1712 0.1662 0.9711
vn 0.4930 0.1662 0.8540
vn 0.7554 0.1662 0.6338
vn 0.9266 0.1662 0.3373
vn 0.9390 0.0389 -0.3418
vn 0.9992 0.0389 0.0000
vn 0.7655 0.0389 -0.6423
vn 0.4996 0.0389 -0.8654
vn 0.1735 0.0389 -0.9841
vn -0.1735 0.0389 -0.9841
vn -0.4996 0.0389 -0.8654
vn -0.7655 0.0389 -0.6423
vn -0.9390 0.0389 -0.3418
vn -0.9992 0.0389 0.0000
vn -0.9390 0.0389 0.3417
vn -0.7655 0.0389 0.6423
vn -0.4996 0.0389 0.8654
vn -0.1735 0.0389 0.9841
vn 0.1735 0.0389 0.9841
vn 0.4996 0.0389 0.8654
vn 0.7655 0.0389 0.6423
vn 0.9390 0.0389 0.3418
vn 0.7049 -0.6612 -0.2566
vn 0.7501 -0.6613 -0.0000
vn 0.5747 -0.6612 -0.4822
vn 0.3751 -0.6613 -0.6496
vn 0.1303 -0.6613 -0.7387
vn -0.1303 -0.6613 -0.7387
vn -0.3751 -0.6613 -0.6496
vn -0.5747 -0.6612 -0.4822
vn -0.7049 -0.6612 -0.2566
vn -0.7501 -0.6613 -0.0000
vn -0.7049 -0.6613 0.2566
vn -0.5746 -0.6613 0.4822
vn -0.3751 -0.6613 0.6496
vn -0.1303 -0.6613 0.7387
vn 0.1303 -0.6613 0.7387
vn 0.3751 -0.6613 0.6496
vn 0.5746 -0.6613 0.4822
vn 0.7049 -0.6613 0.2566
vn 0.4159 -0.8967 -0.1514
vn 0.4426 -0.8967 0.0000
vn 0.3390 -0.8967 -0.2845
vn 0.2213 -0.8967 -0.3833
vn 0.0769 -0.8967 -0.4358
vn -0.0769 -0.8967 -0.4358
vn -0.2213 -0.8967 -0.3833
vn -0.3390 -0.8967 -0.2845
vn -0.4159 -0.8967 -0.1514
vn -0.4426 -0.8967 -0.0000
vn -0.4159 -0.8967 0.1514
vn -0.3390 -0.8967 0.2845
vn -0.2213 -0.8967 0.3833
vn -0.0769 -0.8967 0.4358
vn 0.0769 -0.8967 0.4358
vn 0.2213 -0.8967 0.3833
vn 0.3390 -0.8967 0.2845
vn 0.4159 -0.8967 0.1514
vn 0.4200 0.9075 0.0000
vn 0.3947 0.9075 -0.1437
vn 0.1540 0.9865 -0.0561
vn 0.1639 0.9865 0.0000
vn 0.3217 0.9075 -0.2700
vn 0.1256 0.9865 -0.1054
vn 0.2100 0.9075 -0.3637
vn 0.0820 0.9865 -0.1420
vn 0.0729 0.9075 -0.4136
vn 0.0285 0.9865 -0.1614
vn -0.0729 0.9075 -0.4136
vn -0.0285 0.9865 -0.1614
vn -0.2100 0.9075 -0.3637
vn -0.0820 0.9865 -0.1420
vn -0.3217 0.9075 -0.2700
vn -0.1256 0.9865 -0.1054
vn -0.3947 0.9075 -0.1437
vn -0.1540 0.9865 -0.0561
vn -0.4200 0.9075 -0.0000
vn -0.1639 0.9865 -0.0000
vn -0.3947 0.9075 0.1437
vn -0.1540 0.9865 0.0561
vn -0.3217 0.9075 0.2700
vn -0.1256 0.9865 0.1054
vn -0.2100 0.9075 0.3637
vn -0.0820 0.9865 0.1420
vn -0.0729 0.9075 0.4136
vn -0.0285 0.9865 0.1614
vn 0.0729 0.9075 0.4136
vn 0.0285 0.9865 0.1614
vn 0.2100 0.9075 0.3637
vn 0.0820 0.9865 0.1420
vn 0.3217 0.9075 0.2700
vn 0.1256 0.9865 0.1054
vn 0.3947 0.9075 0.1437
vn 0.1540 0.9865 0.0561
vn 0.0000 1.0000 -0.0000
vn 0.8926 -0.3127 -0.3249
vn 0.9499 -0.3127 0.0000
vn 0.7276 -0.3127 -0.6106
vn 0.4749 -0.3127 -0.8226
vn 0.1649 -0.3127 -0.9354
vn -0.1649 -0.3127 -0.9354
vn -0.4749 -0.3127 -0.8226
vn -0.7276 -0.3127 -0.6106
vn -0.8926 -0.3127 -0.3249
vn -0.9499 -0.3127 -0.0000
vn -0.8926 -0.3127 0.3249
vn -0.7276 -0.3127 0.6106
vn -0.4749 -0.3127 0.8226
vn -0.1649 -0.3127 0.9354
vn 0.1649 -0.3127 0.9354
vn 0.4749 -0.3127 0.8226
vn 0.7276 -0.3127 0.6106
vn 0.8926 -0.3127 0.3249
vn 0.7851 0.5495 -0.2857
vn 0.8355 0.5495 0.0000
vn 0.6400 0.5495 -0.5370
vn 0.4177 0.5495 -0.7235
vn 0.1451 0.5495 -0.8228
vn -0.1451 0.5495 -0.8228
vn -0.4177 0.5495 -0.7235
vn -0.6400 0.5495 -0.5370
vn -0.7851 0.5495 -0.2857
vn -0.8355 0.5495 -0.0000
vn -0.7851 0.5495 0.2857
vn -0.6400 0.5495 0.5370
vn -0.4177 0.5495 0.7235
vn -0.1451 0.5495 0.8228
vn 0.1451 0.5495 0.8228
vn 0.4177 0.5495 0.7235
vn 0.6400 0.5495 0.5370
vn 0.7851 0.5495 0.2857
# 167 vertex normals

vt 0.4598 0.8155 0.0000
vt 0.4671 0.8355 0.0000
vt 0.4598 0.8368 0.0000
vt 0.4735 0.8318 0.0000
vt 0.4782 0.8261 0.0000
vt 0.4808 0.8192 0.0000
vt 0.4808 0.8117 0.0000
vt 0.4782 0.8048 0.0000
vt 0.4735 0.7991 0.0000
vt 0.4671 0.7954 0.0000
vt 0.4598 0.7941 0.0000
vt 0.4525 0.7954 0.0000
vt 0.4461 0.7991 0.0000
vt 0.4413 0.8048 0.0000
vt 0.4388 0.8117 0.0000
vt 0.4388 0.8192 0.0000
vt 0.4413 0.8261 0.0000
vt 0.4461 0.8318 0.0000
vt 0.4525 0.8355 0.0000
vt 0.4777 0.8646 0.0000
vt 0.4598 0.8678 0.0000
vt 0.4934 0.8555 0.0000
vt 0.5051 0.8416 0.0000
vt 0.5113 0.8245 0.0000
vt 0.5113 0.8064 0.0000
vt 0.5051 0.7893 0.0000
vt 0.4934 0.7754 0.0000
vt 0.4777 0.7663 0.0000
vt 0.4598 0.7631 0.0000
vt 0.4419 0.7663 0.0000
vt 0.4262 0.7754 0.0000
vt 0.4145 0.7893 0.0000
vt 0.4083 0.8064 0.0000
vt 0.4083 0.8245 0.0000
vt 0.4145 0.8416 0.0000
vt 0.4262 0.8555 0.0000
vt 0.4419 0.8646 0.0000
vt 0.0257 0.6966 0.0000
vt 0.0257 0.6753 0.0000
vt 0.1103 0.6828 0.0000
vt 0.1103 0.6966 0.0000
vt 0.0257 0.6567 0.0000
vt 0.1103 0.6707 0.0000
vt 0.0272 0.8610 0.0000
vt 0.0272 0.8445 0.0000
vt 0.1119 0.8336 0.0000
vt 0.1119 0.8443 0.0000
vt 0.0272 0.8242 0.0000
vt 0.1119 0.8204 0.0000
vt 0.0272 0.8027 0.0000
vt 0.1119 0.8065 0.0000
vt 0.0272 0.7824 0.0000
vt 0.1119 0.7933 0.0000
vt 0.0272 0.7659 0.0000
vt 0.1119 0.7826 0.0000
vt 0.3725 0.5975 0.0000
vt 0.3725 0.6162 0.0000
vt 0.2878 0.6236 0.0000
vt 0.2878 0.6115 0.0000
vt 0.3725 0.6374 0.0000
vt 0.2878 0.6374 0.0000
vt 0.3725 0.6586 0.0000
vt 0.2878 0.6512 0.0000
vt 0.3725 0.6773 0.0000
vt 0.2878 0.6633 0.0000
vt 0.3735 0.7098 0.0000
vt 0.3735 0.7263 0.0000
vt 0.2888 0.7372 0.0000
vt 0.2888 0.7265 0.0000
vt 0.3735 0.7466 0.0000
vt 0.2888 0.7504 0.0000
vt 0.3735 0.7681 0.0000
vt 0.2888 0.7644 0.0000
vt 0.3735 0.7884 0.0000
vt 0.2888 0.7775 0.0000
vt 0.3735 0.8049 0.0000
vt 0.2888 0.7882 0.0000
vt 0.0257 0.7365 0.0000
vt 0.0257 0.7178 0.0000
vt 0.1103 0.7104 0.0000
vt 0.1103 0.7225 0.0000
vt 0.2760 0.6873 0.0000
vt 0.2760 0.6966 0.0000
vt 0.2760 0.6791 0.0000
vt 0.2775 0.8271 0.0000
vt 0.2775 0.8343 0.0000
vt 0.2775 0.8182 0.0000
vt 0.2775 0.8087 0.0000
vt 0.2775 0.7998 0.0000
vt 0.2775 0.7926 0.0000
vt 0.1222 0.6281 0.0000
vt 0.1222 0.6199 0.0000
vt 0.1222 0.6374 0.0000
vt 0.1222 0.6467 0.0000
vt 0.1222 0.6549 0.0000
vt 0.1232 0.7438 0.0000
vt 0.1232 0.7365 0.0000
vt 0.1232 0.7526 0.0000
vt 0.1232 0.7621 0.0000
vt 0.1232 0.7710 0.0000
vt 0.1232 0.7782 0.0000
vt 0.2760 0.7059 0.0000
vt 0.2760 0.7141 0.0000
vt 0.3715 0.6872 0.0000
vt 0.3715 0.6966 0.0000
vt 0.3715 0.6790 0.0000
vt 0.3731 0.8271 0.0000
vt 0.3731 0.8344 0.0000
vt 0.3731 0.8182 0.0000
vt 0.3731 0.8087 0.0000
vt 0.3731 0.7998 0.0000
vt 0.3731 0.7925 0.0000
vt 0.0266 0.6280 0.0000
vt 0.0266 0.6198 0.0000
vt 0.0266 0.6374 0.0000
vt 0.0266 0.6467 0.0000
vt 0.0266 0.6550 0.0000
vt 0.0277 0.7437 0.0000
vt 0.0277 0.7364 0.0000
vt 0.0277 0.7526 0.0000
vt 0.0277 0.7621 0.0000
vt 0.0277 0.7710 0.0000
vt 0.0277 0.7783 0.0000
vt 0.3715 0.7059 0.0000
vt 0.3715 0.7142 0.0000
vt 0.3118 0.2923 0.0000
vt 0.3118 0.2817 0.0000
vt 0.4856 0.2510 0.0000
vt 0.4856 0.3229 0.0000
vt 0.3085 0.2727 0.0000
vt 0.4614 0.1844 0.0000
vt 0.3024 0.2653 0.0000
vt 0.4158 0.1301 0.0000
vt 0.2941 0.2605 0.0000
vt 0.3544 0.0947 0.0000
vt 0.2846 0.2588 0.0000
vt 0.2846 0.0824 0.0000
vt 0.2752 0.2605 0.0000
vt 0.2148 0.0947 0.0000
vt 0.2669 0.2653 0.0000
vt 0.1534 0.1301 0.0000
vt 0.2607 0.2727 0.0000
vt 0.1079 0.1844 0.0000
vt 0.2574 0.2817 0.0000
vt 0.0836 0.2510 0.0000
vt 0.2574 0.2913 0.0000
vt 0.0836 0.3219 0.0000
vt 0.2607 0.3003 0.0000
vt 0.1079 0.3885 0.0000
vt 0.2669 0.3076 0.0000
vt 0.1534 0.4428 0.0000
vt 0.2752 0.3124 0.0000
vt 0.2148 0.4782 0.0000
vt 0.2846 0.3141 0.0000
vt 0.2846 0.4906 0.0000
vt 0.2941 0.3124 0.0000
vt 0.3544 0.4782 0.0000
vt 0.3024 0.3076 0.0000
vt 0.4158 0.4428 0.0000
vt 0.3085 0.3013 0.0000
vt 0.4614 0.3895 0.0000
vt 0.7208 0.7174 0.0000
vt 0.6730 0.7000 0.0000
vt 0.7282 0.6044 0.0000
vt 0.7399 0.6087 0.0000
vt 0.6341 0.6674 0.0000
vt 0.7186 0.5964 0.0000
vt 0.6087 0.6233 0.0000
vt 0.7124 0.5856 0.0000
vt 0.5998 0.5733 0.0000
vt 0.7102 0.5733 0.0000
vt 0.6087 0.5233 0.0000
vt 0.7124 0.5610 0.0000
vt 0.6341 0.4793 0.0000
vt 0.7186 0.5502 0.0000
vt 0.6752 0.4466 0.0000
vt 0.7304 0.5422 0.0000
vt 0.7230 0.4292 0.0000
vt 0.7422 0.5379 0.0000
vt 0.7716 0.4292 0.0000
vt 0.7524 0.5379 0.0000
vt 0.8193 0.4466 0.0000
vt 0.7641 0.5422 0.0000
vt 0.8582 0.4793 0.0000
vt 0.7737 0.5502 0.0000
vt 0.8837 0.5233 0.0000
vt 0.7799 0.5610 0.0000
vt 0.8925 0.5733 0.0000
vt 0.7821 0.5733 0.0000
vt 0.8837 0.6233 0.0000
vt 0.7799 0.5856 0.0000
vt 0.8582 0.6674 0.0000
vt 0.7737 0.5964 0.0000
vt 0.8193 0.7000 0.0000
vt 0.7641 0.6044 0.0000
vt 0.7716 0.7174 0.0000
vt 0.7524 0.6087 0.0000
vt 0.7462 0.5733 0.0000
vt 0.5595 0.2380 0.0000
vt 0.5595 0.3349 0.0000
vt 0.5263 0.1469 0.0000
vt 0.4640 0.0726 0.0000
vt 0.3801 0.0242 0.0000
vt 0.2846 0.0073 0.0000
vt 0.1892 0.0242 0.0000
vt 0.1052 0.0726 0.0000
vt 0.0429 0.1469 0.0000
vt 0.0097 0.2380 0.0000
vt 0.0097 0.3349 0.0000
vt 0.0429 0.4260 0.0000
vt 0.1052 0.5003 0.0000
vt 0.1892 0.5488 0.0000
vt 0.2846 0.5656 0.0000
vt 0.3801 0.5488 0.0000
vt 0.4640 0.5003 0.0000
vt 0.5263 0.4260 0.0000
vt 0.7602 0.2217 0.0000
vt 0.6524 0.2227 0.0000
vt 0.6599 0.1243 0.0000
vt 0.7593 0.1234 0.0000
vt 0.5576 0.2236 0.0000
vt 0.5725 0.1252 0.0000
vt 0.5553 0.9111 0.0000
vt 0.5553 0.9674 0.0000
vt 0.4893 0.9756 0.0000
vt 0.4893 0.9237 0.0000
vt 0.9218 0.3279 0.0000
vt 0.8130 0.3284 0.0000
vt 0.8081 0.2244 0.0000
vt 0.9084 0.2240 0.0000
vt 0.6973 0.3288 0.0000
vt 0.7013 0.2248 0.0000
vt 0.5885 0.3293 0.0000
vt 0.6010 0.2253 0.0000
vt 0.4636 0.9233 0.0000
vt 0.4636 0.9792 0.0000
vt 0.3981 0.9667 0.0000
vt 0.3981 0.9151 0.0000
vt 0.9592 0.1184 0.0000
vt 0.8626 0.1177 0.0000
vt 0.8548 0.0174 0.0000
vt 0.9439 0.0180 0.0000
vt 0.7527 0.1169 0.0000
vt 0.7535 0.0167 0.0000
vt 0.6429 0.1161 0.0000
vt 0.6522 0.0159 0.0000
vt 0.5463 0.1154 0.0000
vt 0.5631 0.0153 0.0000
vt 0.4647 0.9818 0.0000
vt 0.4076 0.9818 0.0000
vt 0.3993 0.9149 0.0000
vt 0.4519 0.9149 0.0000
vt 0.0759 0.8801 0.0000
vt 0.1841 0.8803 0.0000
vt 0.1885 0.9838 0.0000
vt 0.0886 0.9836 0.0000
vt 0.2993 0.8793 0.0000
vt 0.2947 0.9828 0.0000
vt 0.4076 0.8794 0.0000
vt 0.3946 0.9829 0.0000
vt 0.5509 0.9770 0.0000
vt 0.4997 0.9770 0.0000
vt 0.5112 0.9169 0.0000
vt 0.5584 0.9169 0.0000
vt 0.9629 0.2199 0.0000
vt 0.8681 0.2207 0.0000
vt 0.8588 0.1225 0.0000
vt 0.9462 0.1217 0.0000
vt 0.7061 0.8008 0.0000
vt 0.6307 0.7733 0.0000
vt 0.5692 0.7218 0.0000
vt 0.5291 0.6523 0.0000
vt 0.5152 0.5733 0.0000
vt 0.5291 0.4943 0.0000
vt 0.5692 0.4249 0.0000
vt 0.6307 0.3733 0.0000
vt 0.7061 0.3459 0.0000
vt 0.7863 0.3459 0.0000
vt 0.8616 0.3733 0.0000
vt 0.9231 0.4249 0.0000
vt 0.9632 0.4943 0.0000
vt 0.9771 0.5733 0.0000
vt 0.9632 0.6523 0.0000
vt 0.9231 0.7218 0.0000
vt 0.8616 0.7733 0.0000
vt 0.7863 0.8008 0.0000
# 286 texture coords

o Sour_Forest_Tree
g Sour_Forest_Tree
usemtl wire_177027088
s 1
f 1/1/1 2/2/2 3/3/3 
f 1/1/1 4/4/2 2/2/2 
f 1/1/1 5/5/1 4/4/2 
f 1/1/1 6/6/2 5/5/1 
f 1/1/1 7/7/4 6/6/2 
f 1/1/1 8/8/4 7/7/4 
f 1/1/1 9/9/4 8/8/4 
f 1/1/1 10/10/3 9/9/4 
f 1/1/1 11/11/3 10/10/3 
f 1/1/1 12/12/2 11/11/3 
f 1/1/1 13/13/1 12/12/2 
f 1/1/1 14/14/1 13/13/1 
f 1/1/1 15/15/1 14/14/1 
f 1/1/1 16/16/4 15/15/1 
f 1/1/1 17/17/4 16/16/4 
f 1/1/1 18/18/3 17/17/4 
f 1/1/1 19/19/4 18/18/3 
f 1/1/1 3/3/3 19/19/4 
f 3/3/3 2/2/2 20/20/5 21/21/6 
f 2/2/2 4/4/2 22/22/7 20/20/5 
f 4/4/2 5/5/1 23/23/8 22/22/7 
f 5/5/1 6/6/2 24/24/9 23/23/8 
f 6/6/2 7/7/4 25/25/10 24/24/9 
f 7/7/4 8/8/4 26/26/11 25/25/10 
f 8/8/4 9/9/4 27/27/12 26/26/11 
f 9/9/4 10/10/3 28/28/13 27/27/12 
f 10/10/3 11/11/3 29/29/14 28/28/13 
f 11/11/3 12/12/2 30/30/15 29/29/14 
f 12/12/2 13/13/1 31/31/16 30/30/15 
f 13/13/1 14/14/1 32/32/17 31/31/16 
f 14/14/1 15/15/1 33/33/18 32/32/17 
f 15/15/1 16/16/4 34/34/19 33/33/18 
f 16/16/4 17/17/4 35/35/20 34/34/19 
f 17/17/4 18/18/3 36/36/21 35/35/20 
f 18/18/3 19/19/4 37/37/22 36/36/21 
f 19/19/4 3/3/3 21/21/6 37/37/22 
s 8
f 21/38/6 20/39/5 38/40/23 39/41/24 
f 20/39/5 22/42/7 40/43/25 38/40/23 
f 22/44/7 23/45/8 41/46/26 40/47/25 
f 23/45/8 24/48/9 42/49/27 41/46/26 
f 24/48/9 25/50/10 43/51/28 42/49/27 
f 25/50/10 26/52/11 44/53/29 43/51/28 
f 26/52/11 27/54/12 45/55/30 44/53/29 
f 27/56/12 28/57/13 46/58/31 45/59/30 
f 28/57/13 29/60/14 47/61/32 46/58/31 
f 29/60/14 30/62/15 48/63/33 47/61/32 
f 30/62/15 31/64/16 49/65/34 48/63/33 
f 31/66/16 32/67/17 50/68/35 49/69/34 
f 32/67/17 33/70/18 51/71/36 50/68/35 
f 33/70/18 34/72/19 52/73/37 51/71/36 
f 34/72/19 35/74/20 53/75/38 52/73/37 
f 35/74/20 36/76/21 54/77/39 53/75/38 
f 36/78/21 37/79/22 55/80/40 54/81/39 
f 37/79/22 21/38/6 39/41/24 55/80/40 
f 39/41/24 38/40/23 56/82/41 57/83/42 
f 38/40/23 40/43/25 58/84/43 56/82/41 
f 40/47/25 41/46/26 59/85/44 58/86/43 
f 41/46/26 42/49/27 60/87/45 59/85/44 
f 42/49/27 43/51/28 61/88/46 60/87/45 
f 43/51/28 44/53/29 62/89/47 61/88/46 
f 44/53/29 45/55/30 63/90/48 62/89/47 
f 45/59/30 46/58/31 64/91/49 63/92/48 
f 46/58/31 47/61/32 65/93/50 64/91/49 
f 47/61/32 48/63/33 66/94/51 65/93/50 
f 48/63/33 49/65/34 67/95/52 66/94/51 
f 49/69/34 50/68/35 68/96/53 67/97/52 
f 50/68/35 51/71/36 69/98/54 68/96/53 
f 51/71/36 52/73/37 70/99/55 69/98/54 
f 52/73/37 53/75/38 71/100/56 70/99/55 
f 53/75/38 54/77/39 72/101/57 71/100/56 
f 54/81/39 55/80/40 73/102/58 72/103/57 
f 55/80/40 39/41/24 57/83/42 73/102/58 
f 57/83/42 56/82/41 74/104/59 75/105/60 
f 56/82/41 58/84/43 76/106/61 74/104/59 
f 58/86/43 59/85/44 77/107/62 76/108/61 
f 59/85/44 60/87/45 78/109/63 77/107/62 
f 60/87/45 61/88/46 79/110/64 78/109/63 
f 61/88/46 62/89/47 80/111/65 79/110/64 
f 62/89/47 63/90/48 81/112/66 80/111/65 
f 63/92/48 64/91/49 82/113/67 81/114/66 
f 64/91/49 65/93/50 83/115/68 82/113/67 
f 65/93/50 66/94/51 84/116/69 83/115/68 
f 66/94/51 67/95/52 85/117/70 84/116/69 
f 67/97/52 68/96/53 86/118/71 85/119/70 
f 68/96/53 69/98/54 87/120/72 86/118/71 
f 69/98/54 70/99/55 88/121/73 87/120/72 
f 70/99/55 71/100/56 89/122/74 88/121/73 
f 71/100/56 72/101/57 90/123/75 89/122/74 
f 72/103/57 73/102/58 91/124/76 90/125/75 
f 73/102/58 57/83/42 75/105/60 91/124/76 
f 75/126/60 74/127/59 92/128/77 93/129/78 
f 74/127/59 76/130/61 94/131/79 92/128/77 
f 76/130/61 77/132/62 95/133/80 94/131/79 
f 77/132/62 78/134/63 96/135/81 95/133/80 
f 78/134/63 79/136/64 97/137/82 96/135/81 
f 79/136/64 80/138/65 98/139/83 97/137/82 
f 80/138/65 81/140/66 99/141/84 98/139/83 
f 81/140/66 82/142/67 100/143/85 99/141/84 
f 82/142/67 83/144/68 101/145/86 100/143/85 
f 83/144/68 84/146/69 102/147/87 101/145/86 
f 84/146/69 85/148/70 103/149/88 102/147/87 
f 85/148/70 86/150/71 104/151/89 103/149/88 
f 86/150/71 87/152/72 105/153/90 104/151/89 
f 87/152/72 88/154/73 106/155/91 105/153/90 
f 88/154/73 89/156/74 107/157/92 106/155/91 
f 89/156/74 90/158/75 108/159/93 107/157/92 
f 90/158/75 91/160/76 109/161/94 108/159/93 
f 91/160/76 75/126/60 93/129/78 109/161/94 
s 1
f 110/162/95 111/163/96 112/164/97 113/165/98 
f 111/163/96 114/166/99 115/167/100 112/164/97 
f 114/166/99 116/168/101 117/169/102 115/167/100 
f 116/168/101 118/170/103 119/171/104 117/169/102 
f 118/170/103 120/172/105 121/173/106 119/171/104 
f 120/172/105 122/174/107 123/175/108 121/173/106 
f 122/174/107 124/176/109 125/177/110 123/175/108 
f 124/176/109 126/178/111 127/179/112 125/177/110 
f 126/178/111 128/180/113 129/181/114 127/179/112 
f 128/180/113 130/182/115 131/183/116 129/181/114 
f 130/182/115 132/184/117 133/185/118 131/183/116 
f 132/184/117 134/186/119 135/187/120 133/185/118 
f 134/186/119 136/188/121 137/189/122 135/187/120 
f 136/188/121 138/190/123 139/191/124 137/189/122 
f 138/190/123 140/192/125 141/193/126 139/191/124 
f 140/192/125 142/194/127 143/195/128 141/193/126 
f 142/194/127 144/196/129 145/197/130 143/195/128 
f 144/196/129 110/162/95 113/165/98 145/197/130 
f 146/198/131 113/165/98 112/164/97 
f 146/198/131 112/164/97 115/167/100 
f 146/198/131 115/167/100 117/169/102 
f 146/198/131 117/169/102 119/171/104 
f 146/198/131 119/171/104 121/173/106 
f 146/198/131 121/173/106 123/175/108 
f 146/198/131 123/175/108 125/177/110 
f 146/198/131 125/177/110 127/179/112 
f 146/198/131 127/179/112 129/181/114 
f 146/198/131 129/181/114 131/183/116 
f 146/198/131 131/183/116 133/185/118 
f 146/198/131 133/185/118 135/187/120 
f 146/198/131 135/187/120 137/189/122 
f 146/198/131 137/189/122 139/191/124 
f 146/198/131 139/191/124 141/193/126 
f 146/198/131 141/193/126 143/195/128 
f 146/198/131 143/195/128 145/197/130 
f 146/198/131 145/197/130 113/165/98 
s off
f 93/129/78 92/128/77 147/199/132 148/200/133 
f 92/128/77 94/131/79 149/201/134 147/199/132 
f 94/131/79 95/133/80 150/202/135 149/201/134 
f 95/133/80 96/135/81 151/203/136 150/202/135 
f 96/135/81 97/137/82 152/204/137 151/203/136 
f 97/137/82 98/139/83 153/205/138 152/204/137 
f 98/139/83 99/141/84 154/206/139 153/205/138 
f 99/141/84 100/143/85 155/207/140 154/206/139 
f 100/143/85 101/145/86 156/208/141 155/207/140 
f 101/145/86 102/147/87 157/209/142 156/208/141 
f 102/147/87 103/149/88 158/210/143 157/209/142 
f 103/149/88 104/151/89 159/211/144 158/210/143 
f 104/151/89 105/153/90 160/212/145 159/211/144 
f 105/153/90 106/155/91 161/213/146 160/212/145 
f 106/155/91 107/157/92 162/214/147 161/213/146 
f 107/157/92 108/159/93 163/215/148 162/214/147 
f 108/159/93 109/161/94 164/216/149 163/215/148 
f 109/161/94 93/129/78 148/200/133 164/216/149 
f 148/217/133 147/218/132 165/219/150 166/220/151 
f 147/218/132 149/221/134 167/222/152 165/219/150 
f 149/223/134 150/224/135 168/225/153 167/226/152 
f 150/227/135 151/228/136 169/229/154 168/230/153 
f 151/228/136 152/231/137 170/232/155 169/229/154 
f 152/231/137 153/233/138 171/234/156 170/232/155 
f 153/235/138 154/236/139 172/237/157 171/238/156 
f 154/239/139 155/240/140 173/241/158 172/242/157 
f 155/240/140 156/243/141 174/244/159 173/241/158 
f 156/243/141 157/245/142 175/246/160 174/244/159 
f 157/245/142 158/247/143 176/248/161 175/246/160 
f 158/249/143 159/250/144 177/251/162 176/252/161 
f 159/253/144 160/254/145 178/255/163 177/256/162 
f 160/254/145 161/257/146 179/258/164 178/255/163 
f 161/257/146 162/259/147 180/260/165 179/258/164 
f 162/261/147 163/262/148 181/263/166 180/264/165 
f 163/265/148 164/266/149 182/267/167 181/268/166 
f 164/266/149 148/217/133 166/220/151 182/267/167 
f 166/269/151 165/270/150 111/163/96 110/162/95 
f 165/270/150 167/271/152 114/166/99 111/163/96 
f 167/271/152 168/272/153 116/168/101 114/166/99 
f 168/272/153 169/273/154 118/170/103 116/168/101 
f 169/273/154 170/274/155 120/172/105 118/170/103 
f 170/274/155 171/275/156 122/174/107 120/172/105 
f 171/275/156 172/276/157 124/176/109 122/174/107 
f 172/276/157 173/277/158 126/178/111 124/176/109 
f 173/277/158 174/278/159 128/180/113 126/178/111 
f 174/278/159 175/279/160 130/182/115 128/180/113 
f 175/279/160 176/280/161 132/184/117 130/182/115 
f 176/280/161 177/281/162 134/186/119 132/184/117 
f 177/281/162 178/282/163 136/188/121 134/186/119 
f 178/282/163 179/283/164 138/190/123 136/188/121 
f 179/283/164 180/284/165 140/192/125 138/190/123 
f 180/284/165 181/285/166 142/194/127 140/192/125 
f 181/285/166 182/286/167 144/196/129 142/194/127 
f 182/286/167 166/269/151 110/162/95 144/196/129 
# 162 polygons - 36 triangles

