# 3ds Max Wavefront OBJ Exporter v0.99 - (c)2007 guruware
# File Created: 02.09.2025 11:01:45

mtllib Jacob the Pumpkin.mtl

#
# object Jacon_the_Pumpkin
#

v  -20.9080 0.0000 36.8129
v  -16.0515 0.0000 35.0453
v  -15.7398 0.0000 36.8129
v  -16.0515 0.0000 38.5806
v  -16.9489 0.0000 33.4908
v  -11.1949 0.0000 33.2776
v  -10.5716 0.0000 36.8129
v  -16.9489 0.0000 40.1350
v  -11.1949 0.0000 40.3482
v  -18.3239 0.0000 32.3371
v  -12.9898 0.0000 30.1688
v  -11.1949 0.6303 33.2776
v  -10.5716 0.6303 36.8129
v  -18.3239 0.0000 41.2887
v  -12.9898 0.0000 43.4571
v  -11.1949 0.6303 40.3482
v  -20.0106 0.0000 31.7232
v  -15.7398 0.0000 27.8613
v  -12.9898 0.6303 30.1688
v  -11.1949 1.2607 33.2776
v  -10.5716 1.2607 36.8129
v  -20.0106 0.0000 41.9026
v  -15.7398 0.0000 45.7645
v  -12.9898 0.6303 43.4571
v  -11.1949 1.2607 40.3482
v  -21.8055 0.0000 31.7232
v  -19.1131 0.0000 26.6335
v  -15.7398 0.6303 27.8613
v  -12.9898 1.2607 30.1688
v  -11.1949 1.8910 33.2776
v  -10.5716 1.8910 36.8129
v  -21.8055 0.0000 41.9026
v  -19.1131 0.0000 46.9923
v  -15.7398 0.6303 45.7645
v  -12.9898 1.2607 43.4571
v  -11.1949 1.8910 40.3482
v  -23.4921 0.0000 32.3371
v  -22.7029 0.0000 26.6335
v  -19.1131 0.6303 26.6335
v  -15.7398 1.2607 27.8613
v  -12.9898 1.8910 30.1688
v  -11.1949 2.5213 33.2776
v  -10.5716 2.5213 36.8129
v  -23.4921 0.0000 41.2887
v  -22.7029 0.0000 46.9923
v  -19.1131 0.6303 46.9923
v  -15.7398 1.2607 45.7645
v  -12.9898 1.8910 43.4571
v  -11.1949 2.5213 40.3482
v  -24.8671 0.0000 33.4908
v  -26.0762 0.0000 27.8613
v  -22.7029 0.6303 26.6335
v  -19.1131 1.2607 26.6335
v  -15.7398 1.8910 27.8613
v  -12.9898 2.5213 30.1688
v  -11.1949 3.1517 33.2776
v  -10.5716 3.1517 36.8129
v  -24.8671 0.0000 40.1350
v  -26.0762 0.0000 45.7645
v  -22.7029 0.6303 46.9923
v  -19.1131 1.2607 46.9923
v  -15.7398 1.8910 45.7645
v  -12.9898 2.5213 43.4571
v  -11.1949 3.1517 40.3482
v  -25.7645 0.0000 35.0453
v  -28.8262 0.0000 30.1688
v  -26.0762 0.6303 27.8613
v  -22.7029 1.2607 26.6335
v  -19.1131 1.8910 26.6335
v  -15.7398 2.5213 27.8613
v  -12.9898 3.1517 30.1688
v  -15.0681 3.1517 34.6874
v  -14.7619 3.1517 35.7287
v  -14.6584 3.1517 36.8129
v  -25.7645 0.0000 38.5806
v  -28.8262 0.0000 43.4571
v  -26.0762 0.6303 45.7645
v  -22.7029 1.2607 46.9923
v  -19.1131 1.8910 46.9923
v  -15.7398 2.5213 45.7645
v  -12.9898 3.1517 43.4571
v  -14.6489 3.1517 36.9123
v  -14.7619 3.1517 38.0958
v  -15.0153 3.1517 38.9577
v  -26.0762 0.0000 36.8129
v  -30.6211 0.0000 33.2776
v  -28.8262 0.6303 30.1688
v  -26.0762 1.2607 27.8613
v  -22.7029 1.8910 26.6335
v  -19.1131 2.5213 26.6335
v  -15.7398 3.1517 27.8613
v  -16.1882 3.1517 32.8525
v  -15.6399 3.1517 33.5417
v  -15.0965 3.1517 34.5906
v  -14.4078 3.4530 35.6560
v  -14.7630 3.4530 34.4480
v  -14.2879 3.4530 36.9123
v  -30.6211 0.0000 40.3482
v  -28.8262 0.6303 43.4571
v  -26.0762 1.2607 45.7645
v  -22.7029 1.8910 46.9923
v  -19.1131 2.5213 46.9923
v  -15.7398 3.1517 45.7645
v  -15.0965 3.1517 39.2339
v  -15.6399 3.1517 40.2828
v  -16.0934 3.1517 40.8529
v  -14.4078 3.4530 38.1685
v  -14.7630 3.4530 39.3765
v  -31.2445 0.0000 36.8129
v  -30.6211 0.6303 33.2776
v  -28.8262 1.2607 30.1688
v  -26.0762 1.8910 27.8613
v  -22.7029 2.5213 26.6335
v  -19.1131 3.1517 26.6335
v  -17.8620 3.1517 31.5371
v  -17.2623 3.1517 31.8679
v  -16.3712 3.1517 32.6224
v  -15.3397 3.4530 33.3348
v  -16.1159 3.4530 32.3590
v  -14.3771 3.4932 35.6497
v  -14.3776 3.9875 34.2833
v  -14.5046 3.4939 35.2141
v  -14.2581 3.4911 36.9123
v  -30.6211 0.6303 40.3482
v  -28.8262 1.2607 43.4571
v  -26.0762 1.8910 45.7645
v  -22.7029 2.5213 46.9923
v  -19.1131 3.1517 46.9923
v  -16.3712 3.1517 41.2021
v  -17.2622 3.1517 41.9566
v  -17.7750 3.1517 42.2394
v  -15.3397 3.4530 40.4897
v  -16.1159 3.4530 41.4655
v  -14.3693 3.5033 38.1764
v  -14.3782 3.4892 38.1536
v  -14.0865 4.3418 39.5290
v  -14.1221 4.3418 39.6503
v  -31.2445 0.6303 36.8129
v  -30.6211 1.2607 33.2776
v  -28.8262 1.8910 30.1688
v  -26.0762 2.5213 27.8613
v  -22.7029 3.1517 26.6335
v  -19.8676 3.1517 30.9127
v  -19.3819 3.1517 30.9620
v  -18.2789 3.1517 31.3073
v  -17.0617 3.4530 31.5582
v  -18.1407 3.4530 30.9631
v  -14.7630 4.3418 32.9372
v  -15.6254 4.3418 31.8529
v  -14.4116 4.3418 33.6154
v  -30.6211 1.2607 40.3482
v  -28.8262 1.8910 43.4571
v  -26.0762 2.5213 45.7645
v  -22.7029 3.1517 46.9923
v  -18.2788 3.1517 42.5172
v  -19.3819 3.1517 42.8625
v  -19.8332 3.1517 42.9083
v  -17.0617 3.4530 42.2663
v  -18.1407 3.4530 42.8614
v  -14.7630 4.3418 40.8873
v  -15.6254 4.3418 41.9716
v  -14.0876 4.4262 39.6651
v  -31.2445 1.2607 36.8129
v  -30.6211 1.8910 33.2776
v  -28.8262 2.5213 30.1688
v  -26.0762 3.1517 27.8613
v  -21.9259 3.1517 31.0402
v  -21.6762 3.1517 30.9620
v  -20.5291 3.1517 30.8455
v  -19.3115 3.4530 30.5967
v  -20.5291 3.4530 30.4730
v  -16.6763 4.3418 30.9631
v  -17.8752 4.3418 30.3019
v  -14.6099 4.7574 32.8316
v  -15.3234 5.3062 31.5413
v  -14.7619 5.3062 32.2472
v  -14.8981 5.0675 32.2470
v  -30.6211 1.8910 40.3482
v  -28.8262 2.5213 43.4571
v  -26.0762 3.1517 45.7645
v  -20.5291 3.1517 42.9790
v  -21.6762 3.1517 42.8625
v  -21.9591 3.1517 42.7739
v  -19.3115 3.4530 43.2278
v  -20.5291 3.4530 43.3516
v  -16.6763 4.3418 42.8614
v  -17.8752 4.3418 43.5226
v  -14.4078 5.3062 41.1322
v  -14.3015 5.0628 40.6921
v  -14.1799 5.3062 40.6923
v  -15.3234 5.3062 42.2832
v  -31.2445 1.8910 36.8129
v  -30.6211 2.5213 33.2776
v  -28.8262 3.1517 30.1688
v  -23.7710 3.1517 31.8542
v  -22.7793 3.1517 31.3073
v  -21.7467 3.4530 30.5967
v  -22.9175 3.4530 30.9631
v  -19.1762 4.3418 29.8948
v  -20.5291 4.3418 29.7573
v  -16.4390 5.3062 30.5967
v  -17.7118 5.3062 29.8948
v  -14.2879 6.3092 32.6096
v  -14.3984 5.3853 32.6858
v  -14.6318 6.0064 32.2477
v  -15.2214 6.3092 31.4361
v  -30.6211 2.5213 40.3482
v  -28.8262 3.1517 43.4571
v  -22.7793 3.1517 42.5172
v  -23.7959 3.1517 41.9566
v  -23.8509 3.1517 41.9101
v  -21.7467 3.4530 43.2278
v  -22.9175 3.4530 42.8614
v  -19.1761 4.3418 43.9297
v  -20.5291 4.3418 44.0672
v  -16.4390 5.3062 43.2278
v  -17.7118 5.3062 43.9297
v  -14.2879 6.3092 41.2148
v  -14.0673 6.0017 40.6928
v  -13.7063 5.4657 39.8280
v  -13.5942 6.3092 39.8759
v  -15.2214 6.3092 42.3884
v  -31.2445 2.5213 36.8129
v  -30.6211 3.1517 33.2776
v  -25.1733 3.1517 33.2339
v  -24.6870 3.1517 32.6224
v  -23.7959 3.1517 31.8679
v  -23.9965 3.4530 31.5582
v  -21.8820 4.3418 29.8948
v  -23.1829 4.3418 30.3019
v  -19.0928 5.3062 29.4625
v  -20.5291 5.3062 29.3166
v  -16.3589 6.3092 30.4730
v  -17.6566 6.3092 29.7573
v  -14.4078 7.3121 32.6923
v  -15.3234 7.3121 31.5413
v  -13.5943 6.3092 33.9486
v  -13.7275 5.3062 34.0055
v  -14.3823 5.3062 32.7416
v  -30.6211 3.1517 40.3482
v  -24.6870 3.1517 41.2021
v  -25.2681 3.1517 40.4715
v  -23.9965 3.4530 42.2663
v  -24.9422 3.4530 41.4655
v  -21.8820 4.3418 43.9297
v  -23.1829 4.3418 43.5226
v  -19.0928 5.3062 44.3620
v  -20.5291 5.3062 44.5079
v  -16.3588 6.3092 43.3515
v  -17.6566 6.3092 44.0672
v  -14.4078 7.3121 41.1322
v  -13.6698 6.8781 39.8436
v  -13.9498 6.8781 40.3840
v  -13.9101 7.3121 40.1715
v  -13.6545 5.3062 39.5707
v  -13.3086 5.3062 38.3941
v  -13.1671 6.3092 38.4231
v  -15.3234 7.3121 42.2832
v  -31.2445 3.1517 36.8129
v  -26.0633 3.1517 34.9365
v  -25.9616 3.1517 34.5906
v  -25.4182 3.1517 33.5417
v  -24.9422 3.4530 32.3590
v  -25.7184 3.4530 33.3348
v  -24.3819 4.3418 30.9631
v  -21.9653 5.3062 29.4625
v  -23.3464 5.3062 29.8948
v  -19.0647 6.3092 29.3166
v  -20.5291 6.3092 29.1678
v  -16.4390 7.3121 30.5967
v  -17.7118 7.3121 29.8948
v  -14.7630 8.2765 32.9372
v  -15.6254 8.2765 31.8529
v  -13.6698 6.8781 33.9809
v  -14.0165 7.3121 33.4477
v  -14.0561 6.8781 33.2352
v  -13.6864 6.8781 33.9489
v  -13.1671 6.3092 35.4014
v  -13.3086 5.3062 35.4304
v  -13.9968 4.6480 34.1206
v  -14.4117 5.0876 32.8958
v  -25.4182 3.1517 40.2828
v  -25.9616 3.1517 39.2339
v  -26.1161 3.1517 38.7085
v  -25.7184 3.4530 40.4897
v  -24.3818 4.3418 42.8614
v  -25.4327 4.3418 41.9716
v  -21.9653 5.3062 44.3620
v  -23.3464 5.3062 43.9297
v  -19.0647 6.3092 44.5079
v  -20.5291 6.3092 44.6567
v  -16.4390 7.3121 43.2278
v  -17.7118 7.3121 43.9297
v  -14.7630 8.2765 40.8873
v  -14.0977 8.0740 39.7986
v  -14.0713 8.1523 39.6721
v  -14.1221 8.2765 39.6503
v  -13.2474 6.8781 38.4067
v  -13.3275 6.8781 38.6794
v  -13.5718 6.8781 39.5101
v  -12.9704 6.8781 40.3840
v  -13.7355 9.1493 39.2722
v  -13.6439 4.5343 38.3253
v  -13.1671 5.3062 36.9122
v  -13.1019 5.7593 36.9122
v  -13.1612 5.7593 37.5327
v  -13.0564 6.3092 37.2635
v  -15.6254 8.2765 41.9716
v  -26.3997 3.1517 36.8129
v  -26.2962 3.1517 35.7287
v  -26.2952 3.4530 34.4481
v  -26.6503 3.4530 35.6560
v  -25.4327 4.3418 31.8529
v  -26.2952 4.3418 32.9372
v  -24.6192 5.3062 30.5967
v  -21.9935 6.3092 29.3166
v  -23.4016 6.3092 29.7573
v  -19.0928 7.3121 29.4625
v  -20.5291 7.3121 29.3166
v  -16.6763 8.2765 30.9631
v  -17.8752 8.2765 30.3019
v  -15.3397 9.1654 33.3348
v  -16.1159 9.1654 32.3590
v  -14.2539 8.2765 33.9198
v  -13.1954 6.8781 35.4588
v  -13.2651 6.8781 35.3574
v  -13.1954 6.8781 33.2352
v  -13.2474 6.8781 35.4178
v  -13.9604 9.1493 34.3470
v  -14.2542 8.2770 33.9200
v  -13.0690 6.3092 36.4286
v  -13.1738 5.7593 36.1595
v  -13.1125 5.7593 36.8013
v  -13.1050 5.7593 36.8799
v  -13.6885 4.4316 35.5084
v  -13.9688 4.4328 34.5532
v  -26.2962 3.1517 38.0958
v  -26.4092 3.1517 36.9123
v  -26.2952 3.4530 39.3765
v  -26.6503 3.4530 38.1685
v  -26.2952 4.3418 40.8873
v  -24.6192 5.3062 43.2278
v  -25.7348 5.3062 42.2832
v  -21.9935 6.3092 44.5079
v  -23.4016 6.3092 44.0672
v  -19.0928 7.3121 44.3620
v  -20.5291 7.3121 44.5079
v  -16.6763 8.2765 42.8614
v  -17.8752 8.2765 43.5226
v  -15.3397 9.1654 40.4897
v  -14.7630 9.1654 39.3765
v  -13.9919 8.3881 38.8996
v  -14.0295 8.2765 39.3352
v  -13.1261 7.0268 36.9122
v  -13.1671 7.3121 36.9122
v  -13.3065 7.3121 38.3729
v  -13.2239 6.8781 38.1604
v  -12.9704 6.8781 38.1604
v  -13.6746 4.4281 38.1539
v  -13.5553 4.4298 36.9122
v  -13.0817 5.7593 36.8461
v  -12.6092 5.7593 37.5327
v  -13.0817 7.1619 36.8461
v  -13.1265 7.0290 36.9111
v  -16.1159 9.1654 41.4655
v  -26.7702 3.4530 36.9123
v  -26.9360 4.3418 34.1742
v  -27.3306 4.3418 35.5164
v  -25.7348 5.3062 31.5413
v  -26.6503 5.3062 32.6923
v  -24.6993 6.3092 30.4730
v  -21.9653 7.3121 29.4625
v  -23.3464 7.3121 29.8948
v  -19.1762 8.2765 29.8948
v  -20.5291 8.2765 29.7573
v  -17.0617 9.1654 31.5582
v  -18.1407 9.1654 30.9631
v  -16.1159 9.9444 33.8699
v  -16.7760 9.9444 33.0400
v  -14.7630 9.1654 34.4480
v  -14.2123 8.4016 34.2127
v  -13.2435 6.8781 35.4588
v  -13.1361 7.0004 36.7670
v  -13.2585 6.9571 35.4201
v  -13.3086 7.3121 35.4304
v  -14.1739 8.5154 34.6573
v  -12.6092 5.7593 36.1595
v  -26.9360 4.3418 39.6503
v  -27.3306 4.3418 38.3081
v  -26.6503 5.3062 41.1322
v  -24.6993 6.3092 43.3516
v  -25.8368 6.3092 42.3884
v  -21.9653 7.3121 44.3620
v  -23.3464 7.3121 43.9297
v  -19.1761 8.2765 43.9297
v  -20.5291 8.2765 44.0672
v  -17.0617 9.1654 42.2663
v  -18.1407 9.1654 42.8614
v  -16.1159 9.9444 39.9547
v  -15.6254 9.9444 39.0079
v  -13.8854 8.2765 38.8450
v  -13.7275 8.2765 38.3081
v  -14.4078 9.1654 38.1685
v  -13.3245 7.3487 38.3908
v  -13.5943 8.2765 36.9122
v  -16.7760 9.9444 40.7845
v  -27.4639 4.3418 36.9123
v  -27.3306 5.3062 34.0055
v  -27.7496 5.3062 35.4304
v  -25.8368 6.3092 31.4361
v  -26.7702 6.3092 32.6097
v  -24.6192 7.3121 30.5967
v  -21.8820 8.2765 29.8948
v  -23.1829 8.2765 30.3019
v  -19.3115 9.1654 30.5967
v  -20.5291 9.1654 30.4730
v  -17.5803 9.9444 32.3590
v  -18.4979 9.9444 31.8529
v  -17.0617 10.5838 34.5219
v  -17.5803 10.5838 33.8699
v  -15.6254 9.9444 34.8166
v  -14.4078 9.1654 35.6560
v  -13.7275 8.2765 35.5164
v  -13.9457 8.2765 34.7742
v  -13.3627 7.3121 35.2463
v  -27.3306 5.3062 39.8190
v  -27.7496 5.3062 38.3941
v  -26.7702 6.3092 41.2149
v  -24.6192 7.3121 43.2278
v  -25.7348 7.3121 42.2832
v  -21.8820 8.2765 43.9297
v  -23.1829 8.2765 43.5226
v  -19.3115 9.1654 43.2278
v  -20.5291 9.1654 43.3516
v  -17.5803 9.9444 41.4655
v  -18.4979 9.9444 41.9716
v  -17.0617 10.5838 39.3027
v  -16.6763 10.5838 38.5588
v  -15.3234 9.9444 37.9806
v  -14.2879 9.1654 36.9123
v  -17.5803 10.5838 39.9547
v  -27.8910 5.3062 36.9123
v  -27.4639 6.3092 33.9486
v  -27.8910 6.3092 35.4014
v  -25.7348 7.3121 31.5413
v  -26.6503 7.3121 32.6923
v  -24.3819 8.2765 30.9631
v  -21.7467 9.1654 30.5967
v  -22.9175 9.1654 30.9631
v  -19.4936 9.9444 31.5413
v  -20.5291 9.9444 31.4361
v  -18.2122 10.5838 33.3348
v  -18.9332 10.5838 32.9372
v  -18.1407 11.0588 35.2657
v  -18.4979 11.0588 34.8166
v  -16.6763 10.5838 35.2657
v  -15.3234 9.9444 35.8439
v  -27.4639 6.3092 39.8759
v  -27.8910 6.3092 38.4231
v  -26.6503 7.3121 41.1322
v  -24.3818 8.2765 42.8614
v  -25.4327 8.2765 41.9716
v  -21.7467 9.1654 43.2278
v  -22.9175 9.1654 42.8614
v  -19.4936 9.9444 42.2832
v  -20.5291 9.9444 42.3884
v  -18.2122 10.5838 40.4897
v  -18.9332 10.5838 40.8873
v  -18.1407 11.0588 38.5588
v  -17.8752 11.0588 38.0464
v  -16.4390 10.5838 37.7516
v  -15.2214 9.9444 36.9123
v  -18.4979 11.0588 39.0079
v  -28.0353 6.3092 36.9123
v  -27.3306 7.3121 34.0055
v  -27.7496 7.3121 35.4304
v  -25.4327 8.2765 31.8529
v  -26.2952 8.2765 32.9372
v  -23.9965 9.1654 31.5582
v  -21.5646 9.9444 31.5413
v  -22.5602 9.9444 31.8529
v  -19.7155 10.5838 32.6923
v  -20.5291 10.5838 32.6097
v  -18.9332 11.0588 34.4480
v  -19.4298 11.0588 34.1742
v  -19.0865 11.2952 35.9178
v  -19.1127 11.2395 35.4510
v  -17.8752 11.0588 35.7781
v  -16.4390 10.5838 36.0729
v  -27.3306 7.3121 39.8190
v  -27.7496 7.3121 38.3941
v  -26.2952 8.2765 40.8873
v  -23.9965 9.1654 42.2663
v  -24.9422 9.1654 41.4655
v  -21.5645 9.9444 42.2832
v  -22.5602 9.9444 41.9716
v  -19.7155 10.5838 41.1322
v  -20.5291 10.5838 41.2149
v  -18.9332 11.0588 39.3765
v  -19.4298 11.0588 39.6503
v  -19.0865 11.2952 37.9068
v  -19.0711 11.3278 37.5353
v  -17.7118 11.0588 37.4904
v  -16.3589 10.5838 36.9123
v  -19.1880 11.2616 38.2959
v  -19.1081 11.2493 38.2909
v  -27.8910 7.3121 36.9123
v  -26.9360 8.2765 34.1742
v  -27.3306 8.2765 35.5164
v  -24.9422 9.1654 32.3590
v  -25.7184 9.1654 33.3348
v  -23.4779 9.9444 32.3590
v  -21.3426 10.5838 32.6923
v  -22.1249 10.5838 32.9372
v  -19.9687 11.0588 34.0055
v  -20.5291 11.0588 33.9486
v  -19.5593 11.2930 35.4148
v  -19.9227 11.3264 35.4018
v  -19.1137 11.2374 35.4369
v  -18.1847 13.2086 34.5821
v  -18.1847 13.2086 39.1405
v  -19.0630 11.3451 37.2131
v  -19.0604 11.3505 36.9123
v  -19.0630 11.3451 36.6114
v  -19.0711 11.3278 36.2892
v  -17.7118 11.0588 36.3341
v  -26.9360 8.2765 39.6503
v  -27.3306 8.2765 38.3081
v  -25.7184 9.1654 40.4897
v  -23.4779 9.9444 41.4655
v  -24.2822 9.9444 40.7845
v  -21.3426 10.5838 41.1322
v  -22.1249 10.5838 40.8873
v  -19.9687 11.0588 39.8190
v  -20.5291 11.0588 39.8759
v  -19.6191 11.3154 38.3173
v  -19.9601 11.3467 38.3295
v  -17.6566 11.0588 36.9123
v  -23.0387 13.2547 39.1405
v  -22.1282 11.2236 38.2674
v  -21.8607 11.2644 38.2861
v  -21.4347 11.3170 38.3106
v  -21.0963 11.3477 38.3252
v  -21.0288 11.3514 38.3271
v  -20.8024 11.3557 38.3299
v  -20.5291 11.3574 38.3317
v  -20.2553 11.3555 38.3321
v  -20.0423 11.3514 38.3312
v  -27.4639 8.2765 36.9123
v  -26.2952 9.1654 34.4481
v  -26.6503 9.1654 35.6560
v  -24.2822 9.9444 33.0400
v  -24.9422 9.9444 33.8699
v  -22.8459 10.5838 33.3348
v  -21.0895 11.0588 34.0055
v  -21.6283 11.0588 34.1742
v  -20.2366 11.3442 35.3954
v  -20.5291 11.3499 35.3941
v  -23.0387 13.2547 34.5821
v  -20.8211 11.3447 35.3976
v  -21.1337 11.3274 35.4063
v  -21.4942 11.2947 35.4219
v  -21.9483 11.2386 35.4480
v  -22.1230 11.2120 35.4602
v  -26.2952 9.1654 39.3765
v  -26.6503 9.1654 38.1685
v  -24.9422 9.9444 39.9547
v  -22.8459 10.5838 40.4897
v  -23.4779 10.5838 39.9547
v  -21.0895 11.0588 39.8190
v  -21.6283 11.0588 39.6503
v  -20.2434 11.3514 38.3941
v  -20.5291 11.3514 38.4231
v  -22.1413 11.2528 35.8008
v  -22.1577 11.2894 36.2162
v  -22.1664 11.3088 36.5762
v  -22.1692 11.3149 36.9123
v  -22.1664 11.3088 37.2483
v  -22.1577 11.2894 37.6083
v  -22.1413 11.2528 38.0237
v  -22.9175 11.0588 38.5588
v  -22.5602 11.0588 39.0079
v  -22.1249 11.0588 39.3765
v  -20.8148 11.3514 38.3941
v  -26.7702 9.1654 36.9123
v  -25.4327 9.9444 34.8166
v  -25.7348 9.9444 35.8439
v  -23.4779 10.5838 33.8699
v  -23.9965 10.5838 34.5219
v  -22.1249 11.0588 34.4481
v  -22.5602 11.0588 34.8166
v  -22.9175 11.0588 35.2657
v  -25.4327 9.9444 39.0079
v  -25.7348 9.9444 37.9806
v  -23.9965 10.5838 39.3027
v  -23.1829 11.0588 35.7781
v  -23.3464 11.0588 36.3341
v  -23.4016 11.0588 36.9123
v  -23.3464 11.0588 37.4904
v  -23.1829 11.0588 38.0464
v  -25.8368 9.9444 36.9123
v  -24.3819 10.5838 35.2657
v  -24.6192 10.5838 36.0729
v  -24.3819 10.5838 38.5588
v  -24.6192 10.5838 37.7517
v  -24.6993 10.5838 36.9123
v  -13.2763 3.4939 35.2141
v  -13.2763 3.4892 38.1536
v  -13.2763 5.0675 32.2470
v  -13.2763 4.4328 35.2144
v  -13.2763 4.4281 38.1539
v  -13.2763 5.0628 40.6921
v  -13.2763 6.0064 32.2477
v  -13.2763 6.0017 40.6928
# 614 vertices

vn 0.0000 -1.0000 -0.0000
vn 0.6976 -0.6700 -0.2539
vn 0.7424 -0.6700 0.0000
vn 0.6976 -0.6700 0.2539
vn 0.5686 -0.6701 -0.4771
vn 0.9397 0.0000 -0.3420
vn 1.0000 0.0000 -0.0000
vn 0.5687 -0.6700 0.4772
vn 0.9397 0.0000 0.3420
vn 0.3712 -0.6700 -0.6429
vn 0.7660 0.0000 -0.6428
vn 1.0000 0.0000 0.0000
vn 0.3712 -0.6700 0.6429
vn 0.7661 0.0000 0.6428
vn 0.1289 -0.6700 -0.7311
vn 0.5000 0.0000 -0.8660
vn 0.7661 0.0000 -0.6428
vn 0.1289 -0.6700 0.7311
vn 0.5000 0.0000 0.8660
vn 0.7660 0.0000 0.6428
vn -0.1289 -0.6700 -0.7311
vn 0.1736 0.0000 -0.9848
vn -0.1289 -0.6700 0.7311
vn 0.1736 0.0000 0.9848
vn -0.3712 -0.6700 -0.6429
vn -0.1736 0.0000 -0.9848
vn 0.6976 0.6700 -0.2539
vn 0.7423 0.6701 -0.0000
vn -0.3712 -0.6700 0.6429
vn -0.1736 0.0000 0.9848
vn 0.6975 0.6701 0.2539
vn -0.5686 -0.6701 -0.4771
vn -0.5000 0.0000 -0.8660
vn 0.5686 0.6701 -0.4771
vn 0.9018 0.3413 -0.2651
vn 0.3521 -0.9335 -0.0677
vn 0.9355 0.3418 -0.0893
vn -0.5687 -0.6700 0.4772
vn -0.5000 0.0000 0.8660
vn 0.5687 0.6700 0.4772
vn 0.3588 -0.9334 -0.0000
vn 0.3521 -0.9335 0.0677
vn -0.6976 -0.6700 -0.2539
vn -0.7660 0.0000 -0.6428
vn 0.3711 0.6701 -0.6428
vn 0.7363 0.3390 -0.5856
vn 0.2997 -0.9342 -0.1936
vn 0.3322 -0.9338 -0.1330
vn 0.7082 -0.6926 -0.1366
vn 0.6683 -0.6938 -0.2684
vn 0.7217 -0.6922 -0.0000
vn -0.6976 -0.6700 0.2539
vn -0.7660 0.0000 0.6428
vn 0.3712 0.6700 0.6429
vn 0.3322 -0.9338 0.1330
vn 0.2997 -0.9342 0.1936
vn 0.0000 1.0000 -0.0000
vn 0.7082 -0.6926 0.1366
vn 0.6683 -0.6938 0.2684
vn -0.7423 -0.6700 -0.0000
vn -0.9397 0.0000 -0.3420
vn -0.7661 0.0000 -0.6428
vn 0.1289 0.6701 -0.7310
vn 0.4548 0.3363 -0.8247
vn 0.2015 -0.9351 -0.2915
vn 0.2557 -0.9346 -0.2472
vn 0.6031 -0.6955 -0.3907
vn 0.5145 -0.6975 -0.4988
vn 0.8921 0.4184 -0.1708
vn 0.9278 0.3274 0.1790
vn -0.8791 -0.4732 -0.0566
vn 0.9082 0.4185 0.0017
vn -0.9397 0.0000 0.3420
vn 0.1289 0.6700 0.7311
vn 0.2557 -0.9346 0.2472
vn 0.2015 -0.9351 0.2915
vn 0.4548 0.3363 0.8247
vn 0.6031 -0.6955 0.3907
vn 0.5145 -0.6975 0.4988
vn 0.8861 0.2549 -0.3871
vn -0.8615 -0.4616 0.2114
vn 0.8985 0.2941 -0.3259
vn 0.7969 -0.5123 0.3201
vn -1.0000 0.0000 -0.0000
vn -0.1289 0.6700 -0.7311
vn 0.0953 0.3347 -0.9375
vn 0.0711 -0.9358 -0.3454
vn 0.1392 -0.9355 -0.3248
vn 0.4055 -0.6996 -0.5884
vn 0.2801 -0.7013 -0.6555
vn 0.7198 -0.5141 -0.4665
vn 0.6148 -0.5162 -0.5963
vn 0.9236 0.3669 0.1111
vn -0.7661 0.0000 0.6428
vn -0.1289 0.6700 0.7311
vn 0.1392 -0.9355 0.3248
vn 0.0711 -0.9358 0.3454
vn 0.0953 0.3347 0.9375
vn 0.4055 -0.6996 0.5884
vn 0.2801 -0.7013 0.6555
vn 0.7198 -0.5141 0.4665
vn 0.6148 -0.5162 0.5963
vn 0.8814 0.4480 -0.1496
vn -0.3711 0.6701 -0.6429
vn -0.0711 -0.9358 -0.3454
vn -0.0000 -0.9359 -0.3524
vn 0.1430 -0.7025 -0.6972
vn -0.0000 -0.7029 -0.7113
vn 0.4851 -0.5184 -0.7042
vn 0.3354 -0.5202 -0.7854
vn 0.8522 0.5182 -0.0722
vn 0.6895 -0.2778 -0.6689
vn 0.8618 -0.2956 0.4122
vn -0.8784 -0.2199 -0.4244
vn -0.3711 0.6701 0.6429
vn 0.0000 -0.9359 0.3524
vn -0.0711 -0.9358 0.3454
vn 0.1430 -0.7025 0.6972
vn 0.0000 -0.7029 0.7113
vn 0.4851 -0.5184 0.7042
vn 0.3354 -0.5202 0.7854
vn 0.8064 -0.2763 0.5228
vn -0.8266 -0.2012 0.5256
vn 0.8310 -0.2559 -0.4939
vn 0.6895 -0.2778 0.6689
vn -0.5686 0.6701 -0.4771
vn -0.1392 -0.9355 -0.3248
vn -0.1430 -0.7025 -0.6972
vn -0.2801 -0.7013 -0.6555
vn 0.1714 -0.5215 -0.8359
vn -0.0000 -0.5219 -0.8530
vn 0.5446 -0.2792 -0.7908
vn 0.3769 -0.2804 -0.8828
vn 0.8391 -0.0000 -0.5440
vn 0.5146 -0.4099 -0.7531
vn -0.5644 0.7950 -0.2222
vn 0.7177 0.0000 -0.6964
vn -0.5686 0.6701 0.4771
vn -0.1392 -0.9355 0.3248
vn -0.2015 -0.9351 0.2915
vn -0.6083 0.3376 0.7184
vn -0.1430 -0.7025 0.6972
vn -0.2801 -0.7013 0.6555
vn 0.1714 -0.5215 0.8359
vn 0.0000 -0.5219 0.8530
vn 0.5446 -0.2792 0.7908
vn 0.3769 -0.2804 0.8828
vn 0.8391 0.0000 0.5440
vn -0.5933 0.7265 0.3467
vn 0.5966 -0.6003 0.5326
vn 0.9279 0.0000 0.3729
vn 0.7177 0.0000 0.6964
vn -0.6976 0.6700 -0.2539
vn -0.7363 0.3390 -0.5856
vn -0.2557 -0.9346 -0.2472
vn -0.2015 -0.9351 -0.2915
vn -0.4055 -0.6996 -0.5884
vn -0.1714 -0.5215 -0.8359
vn -0.3354 -0.5202 -0.7854
vn 0.1927 -0.2813 -0.9401
vn -0.0000 -0.2816 -0.9595
vn 0.5671 0.0000 -0.8236
vn 0.3926 0.0000 -0.9197
vn 0.8064 0.2763 -0.5228
vn 0.6895 0.2778 -0.6689
vn 0.9279 0.0000 -0.3729
vn 0.8921 -0.2751 -0.3585
vn 0.5300 -0.4540 -0.7162
vn -0.6976 0.6700 0.2539
vn -0.2557 -0.9346 0.2472
vn -0.7363 0.3390 0.5856
vn -0.4055 -0.6996 0.5884
vn -0.5145 -0.6975 0.4988
vn -0.1714 -0.5215 0.8359
vn -0.3354 -0.5202 0.7854
vn 0.1927 -0.2813 0.9401
vn 0.0000 -0.2816 0.9595
vn 0.5671 0.0000 0.8236
vn 0.3926 0.0000 0.9197
vn 0.8064 0.2763 0.5228
vn 0.6276 0.7366 0.2520
vn -0.6983 -0.4214 0.5786
vn 0.8870 -0.1190 -0.4462
vn 0.6007 -0.6308 0.4911
vn 0.9442 -0.2743 0.1822
vn 0.9819 0.0000 0.1895
vn 0.6895 0.2778 0.6689
vn -0.7423 0.6700 -0.0000
vn -0.9018 0.3413 -0.2651
vn -0.3322 -0.9338 -0.1330
vn -0.2997 -0.9342 -0.1936
vn -0.5145 -0.6975 -0.4988
vn -0.6031 -0.6955 -0.3907
vn -0.4851 -0.5184 -0.7042
vn -0.1927 -0.2813 -0.9401
vn -0.3769 -0.2804 -0.8828
vn 0.2008 0.0000 -0.9796
vn -0.0000 0.0000 -1.0000
vn 0.5446 0.2792 -0.7908
vn 0.3769 0.2804 -0.8828
vn 0.7198 0.5141 -0.4665
vn 0.6148 0.5162 -0.5963
vn 0.6276 0.7366 -0.2520
vn 0.8870 -0.1190 0.4462
vn -0.6983 -0.4214 -0.5786
vn 0.9819 0.0000 -0.1895
vn 0.9442 -0.2743 -0.1822
vn 0.6823 -0.6199 -0.3875
vn 0.7539 0.6146 0.2322
vn -0.2997 -0.9342 0.1936
vn -0.3322 -0.9338 0.1330
vn -0.9018 0.3413 0.2651
vn -0.6031 -0.6955 0.3907
vn -0.4851 -0.5184 0.7042
vn -0.6148 -0.5162 0.5963
vn -0.1927 -0.2813 0.9401
vn -0.3769 -0.2804 0.8828
vn 0.2008 0.0000 0.9796
vn 0.0000 0.0000 1.0000
vn 0.5446 0.2792 0.7908
vn 0.3769 0.2804 0.8828
vn 0.7198 0.5141 0.4665
vn -0.8789 0.1172 0.4624
vn 0.9750 0.0694 0.2111
vn 0.7969 0.5123 0.3201
vn 0.6641 0.7366 0.1280
vn 0.7250 -0.6550 0.2131
vn 0.6331 -0.3801 0.6743
vn 0.0000 1.0000 0.0000
vn 0.5552 -0.7357 0.3879
vn 0.9617 -0.2741 -0.0000
vn 0.7741 0.6331 -0.0000
vn -0.6281 -0.4046 0.6647
vn 0.7678 -0.2848 -0.5739
vn 0.6148 0.5162 0.5963
vn -0.3521 -0.9335 -0.0677
vn -0.6683 -0.6938 -0.2684
vn -0.7082 -0.6926 -0.1366
vn -0.6148 -0.5162 -0.5963
vn -0.7198 -0.5141 -0.4665
vn -0.5446 -0.2792 -0.7908
vn -0.2008 0.0000 -0.9796
vn -0.3926 0.0000 -0.9197
vn 0.1927 0.2813 -0.9401
vn -0.0000 0.2816 -0.9595
vn 0.4851 0.5184 -0.7042
vn 0.3354 0.5202 -0.7854
vn 0.6031 0.6955 -0.3907
vn 0.5145 0.6975 -0.4988
vn 0.8391 0.1160 0.5314
vn 0.7250 -0.6550 -0.2132
vn 0.6331 -0.3801 -0.6743
vn 0.6641 0.7366 -0.1280
vn -0.0000 1.0000 0.0000
vn -0.8618 -0.0391 -0.5057
vn 0.7678 -0.2848 0.5739
vn -0.6281 -0.4046 -0.6647
vn 0.6521 -0.7555 -0.0623
vn 0.5576 -0.8231 -0.1081
vn 0.7167 0.6796 0.1566
vn -0.3521 -0.9335 0.0677
vn -0.3588 -0.9334 0.0000
vn -0.6683 -0.6938 0.2684
vn -0.7082 -0.6926 0.1366
vn -0.7198 -0.5141 0.4665
vn -0.5446 -0.2792 0.7908
vn -0.6895 -0.2778 0.6689
vn -0.2008 0.0000 0.9796
vn -0.3926 0.0000 0.9197
vn 0.1927 0.2813 0.9401
vn 0.0000 0.2816 0.9595
vn 0.4851 0.5184 0.7042
vn 0.3354 0.5202 0.7854
vn 0.6031 0.6955 0.3907
vn 0.6683 0.6938 0.2684
vn -0.7532 0.0827 -0.6525
vn 0.9768 0.1682 0.1328
vn 0.7542 -0.2196 -0.6188
vn 0.9617 0.2741 -0.0000
vn 0.7117 -0.0727 0.6987
vn -0.4836 -0.4689 -0.7391
vn 0.7985 0.5739 -0.1818
vn 0.5681 -0.8230 -0.0007
vn -0.7274 0.3175 0.6083
vn 0.5145 0.6975 0.4988
vn -0.7217 -0.6922 0.0000
vn -0.7969 -0.5123 -0.3201
vn -0.8439 -0.5111 -0.1628
vn -0.6895 -0.2778 -0.6689
vn -0.8064 -0.2763 -0.5228
vn -0.5671 0.0000 -0.8236
vn -0.1927 0.2813 -0.9401
vn -0.3769 0.2804 -0.8828
vn 0.1714 0.5215 -0.8359
vn -0.0000 0.5219 -0.8530
vn 0.4055 0.6996 -0.5884
vn 0.2801 0.7013 -0.6555
vn 0.4767 0.8230 -0.3087
vn 0.4063 0.8245 -0.3938
vn 0.6683 0.6938 -0.2684
vn 0.9632 0.1926 -0.1875
vn -0.4836 -0.4689 0.7391
vn -0.7659 0.2998 -0.5687
vn 0.6882 -0.1997 -0.6975
vn 0.9442 0.2743 -0.1822
vn -0.7532 0.0827 0.6525
vn -0.7969 -0.5123 0.3201
vn -0.8439 -0.5111 0.1628
vn -0.8064 -0.2763 0.5228
vn -0.5671 0.0000 0.8236
vn -0.7177 0.0000 0.6964
vn -0.1927 0.2813 0.9401
vn -0.3769 0.2804 0.8828
vn 0.1714 0.5215 0.8359
vn 0.0000 0.5219 0.8530
vn 0.4055 0.6996 0.5884
vn 0.2801 0.7013 0.6555
vn 0.4767 0.8230 0.3087
vn 0.5288 0.8218 0.2123
vn 0.5935 0.1001 0.7986
vn 0.8439 0.5111 0.1628
vn 0.7082 0.6926 0.1366
vn 0.6753 -0.0184 0.7373
vn 0.8597 0.5107 -0.0000
vn 0.4063 0.8245 0.3938
vn -0.8597 -0.5107 0.0000
vn -0.8921 -0.2751 -0.3585
vn -0.9442 -0.2743 -0.1822
vn -0.7177 0.0000 -0.6964
vn -0.8391 0.0000 -0.5440
vn -0.5446 0.2792 -0.7908
vn -0.1714 0.5215 -0.8359
vn -0.3354 0.5202 -0.7854
vn 0.1430 0.7025 -0.6972
vn -0.0000 0.7029 -0.7113
vn 0.3199 0.8261 -0.4640
vn 0.2207 0.8274 -0.5165
vn 0.3518 0.9079 -0.2278
vn 0.2996 0.9088 -0.2903
vn 0.5288 0.8218 -0.2123
vn 0.7082 0.6926 -0.1366
vn 0.8439 0.5111 -0.1628
vn 0.5935 0.1001 -0.7986
vn 0.6373 -0.0612 -0.7682
vn -0.8921 -0.2751 0.3585
vn -0.9442 -0.2743 0.1822
vn -0.8391 0.0000 0.5440
vn -0.5446 0.2792 0.7908
vn -0.6895 0.2778 0.6689
vn -0.1714 0.5215 0.8359
vn -0.3354 0.5202 0.7854
vn 0.1430 0.7025 0.6972
vn 0.0000 0.7029 0.7113
vn 0.3199 0.8261 0.4640
vn 0.2207 0.8274 0.5165
vn 0.3518 0.9079 0.2278
vn 0.3905 0.9072 0.1567
vn 0.5607 0.8209 0.1081
vn 0.7217 0.6922 -0.0000
vn 0.2996 0.9088 0.2903
vn -0.9617 -0.2741 0.0000
vn -0.9279 0.0000 -0.3729
vn -0.9819 0.0000 -0.1895
vn -0.6895 0.2778 -0.6689
vn -0.8064 0.2763 -0.5228
vn -0.4851 0.5184 -0.7042
vn -0.1430 0.7025 -0.6972
vn -0.2801 0.7013 -0.6555
vn 0.1127 0.8282 -0.5489
vn -0.0000 0.8285 -0.5599
vn 0.2357 0.9098 -0.3417
vn 0.1625 0.9105 -0.3802
vn 0.2318 0.9611 -0.1500
vn 0.1973 0.9615 -0.1911
vn 0.3905 0.9072 -0.1567
vn 0.5607 0.8209 -0.1081
vn -0.9279 0.0000 0.3729
vn -0.9819 0.0000 0.1895
vn -0.8064 0.2763 0.5228
vn -0.4851 0.5184 0.7042
vn -0.6148 0.5162 0.5963
vn -0.1430 0.7025 0.6972
vn -0.2801 0.7013 0.6555
vn 0.1127 0.8282 0.5489
vn 0.0000 0.8285 0.5599
vn 0.2357 0.9098 0.3417
vn 0.1625 0.9105 0.3802
vn 0.2318 0.9611 0.1500
vn 0.2574 0.9608 0.1032
vn 0.4142 0.9067 0.0798
vn 0.5715 0.8206 -0.0000
vn 0.1973 0.9615 0.1911
vn -1.0000 0.0000 0.0000
vn -0.8921 0.2751 -0.3585
vn -0.9442 0.2743 -0.1822
vn -0.6148 0.5162 -0.5963
vn -0.7198 0.5141 -0.4665
vn -0.4055 0.6996 -0.5884
vn -0.1127 0.8282 -0.5489
vn -0.2207 0.8274 -0.5165
vn 0.0829 0.9111 -0.4039
vn -0.0000 0.9112 -0.4119
vn 0.1551 0.9620 -0.2249
vn 0.1069 0.9623 -0.2500
vn -0.4559 0.8876 -0.0658
vn -0.4670 0.8803 -0.0836
vn 0.2574 0.9608 -0.1032
vn 0.4142 0.9067 -0.0798
vn -0.8921 0.2751 0.3585
vn -0.9442 0.2743 0.1822
vn -0.7198 0.5141 0.4665
vn -0.4055 0.6996 0.5884
vn -0.5145 0.6975 0.4988
vn -0.1127 0.8282 0.5489
vn -0.2207 0.8274 0.5165
vn 0.0829 0.9111 0.4039
vn 0.0000 0.9112 0.4119
vn 0.1551 0.9620 0.2249
vn 0.1069 0.9623 0.2500
vn -0.4559 0.8876 0.0658
vn -0.4477 0.8930 0.0454
vn 0.2731 0.9605 0.0526
vn 0.4222 0.9065 -0.0000
vn 0.0896 0.8708 -0.4833
vn 0.3691 -0.8425 0.3924
vn -0.9617 0.2741 0.0000
vn -0.7969 0.5123 -0.3201
vn -0.8439 0.5111 -0.1628
vn -0.5145 0.6975 -0.4988
vn -0.6031 0.6955 -0.3907
vn -0.3199 0.8261 -0.4640
vn -0.0829 0.9111 -0.4039
vn -0.1625 0.9105 -0.3802
vn 0.0545 0.9625 -0.2656
vn -0.0000 0.9626 -0.2708
vn 0.0712 0.8783 0.4727
vn 0.0499 0.8840 0.4647
vn 0.3743 -0.8424 -0.3875
vn 0.6645 0.3621 -0.6537
vn 0.6645 0.3621 0.6537
vn -0.4427 0.8964 0.0232
vn -0.4409 0.8975 -0.0000
vn -0.4426 0.8964 -0.0232
vn -0.4477 0.8930 -0.0454
vn 0.2731 0.9605 -0.0526
vn -0.7969 0.5123 0.3201
vn -0.8439 0.5111 0.1628
vn -0.6031 0.6955 0.3907
vn -0.3199 0.8261 0.4640
vn -0.4063 0.8245 0.3938
vn -0.0829 0.9111 0.4039
vn -0.1625 0.9105 0.3802
vn 0.0545 0.9625 0.2656
vn 0.0000 0.9626 0.2708
vn 0.0712 0.8783 -0.4727
vn 0.0499 0.8840 -0.4647
vn 0.2784 0.9605 -0.0000
vn -0.6575 0.3747 0.6537
vn -0.3791 -0.8391 0.3901
vn -0.0850 0.8712 -0.4836
vn -0.0665 0.8786 -0.4729
vn -0.0452 0.8842 -0.4649
vn -0.0335 0.8835 -0.4672
vn -0.0053 0.8538 -0.5206
vn 0.0023 0.8541 -0.5200
vn 0.0099 0.8538 -0.5205
vn 0.0382 0.8833 -0.4672
vn -0.8597 0.5107 0.0000
vn -0.6683 0.6938 -0.2684
vn -0.7082 0.6926 -0.1366
vn -0.4063 0.8245 -0.3938
vn -0.4767 0.8230 -0.3087
vn -0.2357 0.9098 -0.3417
vn -0.0545 0.9625 -0.2656
vn -0.1069 0.9623 -0.2500
vn 0.0267 0.8876 0.4598
vn 0.0024 0.8889 0.4582
vn -0.6575 0.3747 -0.6537
vn -0.0219 0.8877 0.4599
vn -0.0452 0.8842 0.4649
vn -0.0665 0.8786 0.4729
vn -0.0850 0.8712 0.4836
vn -0.3791 -0.8391 -0.3901
vn -0.6683 0.6938 0.2684
vn -0.7082 0.6926 0.1366
vn -0.4767 0.8230 0.3087
vn -0.2357 0.9098 0.3417
vn -0.2996 0.9088 0.2903
vn -0.0545 0.9625 0.2656
vn -0.1069 0.9623 0.2500
vn 0.0274 0.9907 0.1332
vn 0.0000 0.9907 0.1358
vn 0.4643 0.8832 -0.0663
vn 0.4562 0.8887 -0.0457
vn 0.4511 0.8922 -0.0234
vn 0.4494 0.8933 -0.0000
vn 0.4511 0.8922 0.0234
vn 0.4562 0.8887 0.0457
vn 0.4643 0.8832 0.0663
vn -0.2318 0.9611 0.1500
vn -0.1973 0.9615 0.1911
vn -0.1551 0.9620 0.2249
vn -0.0274 0.9907 0.1332
vn -0.7217 0.6922 0.0000
vn -0.5288 0.8218 -0.2123
vn -0.5607 0.8209 -0.1081
vn -0.2996 0.9088 -0.2903
vn -0.3518 0.9079 -0.2278
vn -0.1551 0.9620 -0.2249
vn -0.1973 0.9615 -0.1911
vn -0.2318 0.9611 -0.1500
vn -0.5288 0.8218 0.2123
vn -0.5607 0.8209 0.1081
vn -0.3518 0.9079 0.2278
vn -0.2574 0.9608 -0.1032
vn -0.2731 0.9605 -0.0526
vn -0.2784 0.9605 0.0000
vn -0.2731 0.9605 0.0526
vn -0.2574 0.9608 0.1032
vn -0.5715 0.8206 0.0000
vn -0.3905 0.9072 -0.1567
vn -0.4142 0.9067 -0.0798
vn -0.3905 0.9072 0.1567
vn -0.4142 0.9067 0.0798
vn -0.4222 0.9065 0.0000
vn 0.6567 -0.7317 -0.1826
vn 0.6502 -0.7309 0.2075
vn 0.6074 -0.4093 -0.6809
vn 0.7241 0.6840 0.0880
vn 0.7745 0.6086 -0.1728
vn 0.6123 -0.3848 0.6906
vn 0.4860 0.7906 -0.3724
vn 0.5536 0.7275 0.4053
# 533 vertex normals

vt 0.2382 0.2419 0.0000
vt 0.3571 0.2209 0.0000
vt 0.3571 0.2629 0.0000
vt 0.3428 0.3022 0.0000
vt 0.3428 0.1815 0.0000
vt 0.4760 0.2000 0.0000
vt 0.4760 0.2838 0.0000
vt 0.3158 0.3344 0.0000
vt 0.4473 0.3626 0.0000
vt 0.3158 0.1494 0.0000
vt 0.4473 0.1212 0.0000
vt 0.2296 0.8277 0.0000
vt 0.2296 0.9103 0.0000
vt 0.2149 0.9103 0.0000
vt 0.2149 0.8277 0.0000
vt 0.2795 0.3553 0.0000
vt 0.3934 0.4268 0.0000
vt 0.2296 0.7452 0.0000
vt 0.2149 0.7452 0.0000
vt 0.2795 0.1285 0.0000
vt 0.3934 0.0570 0.0000
vt 0.2296 0.9829 0.0000
vt 0.2149 0.9829 0.0000
vt 0.2001 0.9103 0.0000
vt 0.2001 0.8277 0.0000
vt 0.2382 0.3626 0.0000
vt 0.3208 0.4687 0.0000
vt 0.2296 0.6726 0.0000
vt 0.2149 0.6726 0.0000
vt 0.2001 0.7452 0.0000
vt 0.2382 0.1212 0.0000
vt 0.3208 0.0151 0.0000
vt 0.0791 0.6124 0.0000
vt 0.0791 0.6766 0.0000
vt 0.0644 0.6766 0.0000
vt 0.0644 0.6124 0.0000
vt 0.2001 0.9829 0.0000
vt 0.1854 0.9103 0.0000
vt 0.1854 0.8277 0.0000
vt 0.1969 0.3553 0.0000
vt 0.2382 0.4833 0.0000
vt 0.1544 0.9180 0.0000
vt 0.1544 0.9822 0.0000
vt 0.1396 0.9822 0.0000
vt 0.1396 0.9180 0.0000
vt 0.2001 0.6726 0.0000
vt 0.1854 0.7452 0.0000
vt 0.1969 0.1285 0.0000
vt 0.2382 0.0005 0.0000
vt 0.0791 0.7554 0.0000
vt 0.0644 0.7554 0.0000
vt 0.0497 0.6766 0.0000
vt 0.0497 0.6124 0.0000
vt 0.1854 0.9829 0.0000
vt 0.1707 0.9103 0.0000
vt 0.1707 0.8277 0.0000
vt 0.1606 0.3344 0.0000
vt 0.1557 0.4687 0.0000
vt 0.1544 0.8392 0.0000
vt 0.1396 0.8392 0.0000
vt 0.1249 0.9822 0.0000
vt 0.1249 0.9180 0.0000
vt 0.1854 0.6726 0.0000
vt 0.1707 0.7452 0.0000
vt 0.1606 0.1494 0.0000
vt 0.1557 0.0151 0.0000
vt 0.0791 0.8392 0.0000
vt 0.0644 0.8392 0.0000
vt 0.0497 0.7554 0.0000
vt 0.0350 0.6766 0.0000
vt 0.0350 0.6124 0.0000
vt 0.1707 0.9829 0.0000
vt 0.1560 0.9103 0.0000
vt 0.1560 0.8277 0.0000
vt 0.1337 0.3022 0.0000
vt 0.0831 0.4268 0.0000
vt 0.1544 0.7554 0.0000
vt 0.1396 0.7554 0.0000
vt 0.1249 0.8392 0.0000
vt 0.1102 0.9822 0.0000
vt 0.1102 0.9180 0.0000
vt 0.1707 0.6726 0.0000
vt 0.1560 0.7452 0.0000
vt 0.1337 0.1815 0.0000
vt 0.0831 0.0570 0.0000
vt 0.0791 0.9180 0.0000
vt 0.0644 0.9180 0.0000
vt 0.0497 0.8392 0.0000
vt 0.0350 0.7554 0.0000
vt 0.0202 0.6766 0.0000
vt 0.0202 0.6124 0.0000
vt 0.1560 0.9829 0.0000
vt 0.9875 0.2838 0.0000
vt 0.9589 0.3626 0.0000
vt 0.8755 0.3145 0.0000
vt 0.8868 0.2918 0.0000
vt 0.8935 0.2672 0.0000
vt 0.1194 0.2629 0.0000
vt 0.0292 0.3626 0.0000
vt 0.1544 0.6766 0.0000
vt 0.1396 0.6766 0.0000
vt 0.1249 0.7554 0.0000
vt 0.1102 0.8392 0.0000
vt 0.0955 0.9822 0.0000
vt 0.0955 0.9180 0.0000
vt 0.1560 0.6726 0.0000
vt 0.9875 0.2000 0.0000
vt 0.8942 0.2650 0.0000
vt 0.8964 0.2373 0.0000
vt 0.8940 0.2165 0.0000
vt 0.1194 0.2209 0.0000
vt 0.0292 0.1212 0.0000
vt 0.0791 0.9822 0.0000
vt 0.0644 0.9822 0.0000
vt 0.0497 0.9180 0.0000
vt 0.0350 0.8392 0.0000
vt 0.0202 0.7554 0.0000
vt 0.0055 0.6766 0.0000
vt 0.0055 0.6124 0.0000
vt 0.9050 0.4268 0.0000
vt 0.8423 0.3521 0.0000
vt 0.8577 0.3385 0.0000
vt 0.8745 0.3166 0.0000
vt 0.9881 0.6074 0.0000
vt 0.9797 0.6082 0.0000
vt 0.9752 0.5833 0.0000
vt 0.9747 0.5810 0.0000
vt 0.9828 0.5785 0.0000
vt 0.9878 0.6368 0.0000
vt 0.9795 0.6360 0.0000
vt 0.9795 0.6336 0.0000
vt 0.0005 0.2838 0.0000
vt 0.1544 0.6124 0.0000
vt 0.1396 0.6124 0.0000
vt 0.1249 0.6766 0.0000
vt 0.1102 0.7554 0.0000
vt 0.0955 0.8392 0.0000
vt 0.0807 0.9822 0.0000
vt 0.0807 0.9180 0.0000
vt 0.9589 0.1212 0.0000
vt 0.8933 0.2098 0.0000
vt 0.8850 0.1835 0.0000
vt 0.8769 0.1685 0.0000
vt 0.9820 0.6657 0.0000
vt 0.9739 0.6632 0.0000
vt 0.9708 0.6929 0.0000
vt 0.9634 0.6888 0.0000
vt 0.9660 0.6826 0.0000
vt 0.0005 0.2000 0.0000
vt 0.3048 0.6726 0.0000
vt 0.3048 0.7452 0.0000
vt 0.2901 0.7452 0.0000
vt 0.2901 0.6726 0.0000
vt 0.0497 0.9822 0.0000
vt 0.0350 0.9180 0.0000
vt 0.0202 0.8392 0.0000
vt 0.0055 0.7554 0.0000
vt 0.8324 0.4687 0.0000
vt 0.7985 0.3756 0.0000
vt 0.8136 0.3704 0.0000
vt 0.8372 0.3567 0.0000
vt 0.9722 0.5512 0.0000
vt 0.9647 0.5553 0.0000
vt 0.9536 0.5379 0.0000
vt 0.9499 0.5321 0.0000
vt 0.9565 0.5266 0.0000
vt 0.7547 0.8491 0.0000
vt 0.7546 0.8481 0.0000
vt 0.7828 0.8481 0.0000
vt 0.7866 0.8606 0.0000
vt 0.7649 0.8491 0.0000
vt 0.7252 0.8490 0.0000
vt 0.7252 0.8481 0.0000
vt 0.3048 0.9103 0.0000
vt 0.3048 0.9829 0.0000
vt 0.2901 0.9829 0.0000
vt 0.2901 0.9103 0.0000
vt 0.1249 0.6124 0.0000
vt 0.1102 0.6766 0.0000
vt 0.0955 0.7554 0.0000
vt 0.0807 0.8392 0.0000
vt 0.9050 0.0570 0.0000
vt 0.8720 0.1593 0.0000
vt 0.8545 0.1384 0.0000
vt 0.8439 0.1298 0.0000
vt 0.9547 0.7174 0.0000
vt 0.9482 0.7118 0.0000
vt 0.9343 0.7381 0.0000
vt 0.9290 0.7314 0.0000
vt 0.9363 0.7240 0.0000
vt 0.6957 0.8493 0.0000
vt 0.6959 0.8481 0.0000
vt 0.6962 0.8490 0.0000
vt 0.6641 0.8689 0.0000
vt 0.6613 0.8689 0.0000
vt 0.6677 0.8481 0.0000
vt 0.3048 0.8277 0.0000
vt 0.2901 0.8277 0.0000
vt 0.2754 0.7452 0.0000
vt 0.2754 0.6726 0.0000
vt 0.0350 0.9822 0.0000
vt 0.0202 0.9180 0.0000
vt 0.0055 0.8392 0.0000
vt 0.7498 0.4833 0.0000
vt 0.7498 0.3818 0.0000
vt 0.7612 0.3827 0.0000
vt 0.7879 0.3792 0.0000
vt 0.9365 0.5057 0.0000
vt 0.9311 0.5124 0.0000
vt 0.9180 0.5033 0.0000
vt 0.9088 0.4969 0.0000
vt 0.9129 0.4893 0.0000
vt 0.7512 0.1891 0.0000
vt 0.7774 0.1921 0.0000
vt 0.7754 0.2211 0.0000
vt 0.7489 0.2214 0.0000
vt 0.7675 0.1600 0.0000
vt 0.7829 0.1637 0.0000
vt 0.7545 0.1718 0.0000
vt 0.2754 0.9829 0.0000
vt 0.2754 0.9103 0.0000
vt 0.1102 0.6124 0.0000
vt 0.0955 0.6766 0.0000
vt 0.0807 0.7554 0.0000
vt 0.8324 0.0151 0.0000
vt 0.8334 0.1214 0.0000
vt 0.8094 0.1090 0.0000
vt 0.7992 0.1061 0.0000
vt 0.9104 0.7544 0.0000
vt 0.9065 0.7467 0.0000
vt 0.8838 0.7656 0.0000
vt 0.8815 0.7573 0.0000
vt 0.8939 0.7521 0.0000
vt 0.5084 0.0581 0.0000
vt 0.4820 0.0561 0.0000
vt 0.4820 0.0268 0.0000
vt 0.5084 0.0256 0.0000
vt 0.5045 0.0899 0.0000
vt 0.4785 0.0846 0.0000
vt 0.6609 0.8708 0.0000
vt 0.2754 0.8277 0.0000
vt 0.2607 0.7452 0.0000
vt 0.2607 0.6726 0.0000
vt 0.0202 0.9822 0.0000
vt 0.0055 0.9180 0.0000
vt 0.6672 0.4687 0.0000
vt 0.7030 0.3705 0.0000
vt 0.7084 0.3733 0.0000
vt 0.7343 0.3807 0.0000
vt 0.8866 0.4779 0.0000
vt 0.8841 0.4862 0.0000
vt 0.8729 0.4839 0.0000
vt 0.8577 0.4807 0.0000
vt 0.8586 0.4721 0.0000
vt 0.7506 0.2531 0.0000
vt 0.7769 0.2497 0.0000
vt 0.7819 0.2767 0.0000
vt 0.7561 0.2831 0.0000
vt 0.8205 0.8786 0.0000
vt 0.8181 0.8689 0.0000
vt 0.8434 0.8689 0.0000
vt 0.8507 0.8914 0.0000
vt 0.8342 0.8914 0.0000
vt 0.8342 0.8858 0.0000
vt 0.8022 0.8689 0.0000
vt 0.2607 0.9829 0.0000
vt 0.2607 0.9103 0.0000
vt 0.0955 0.6124 0.0000
vt 0.0807 0.6766 0.0000
vt 0.7498 0.0005 0.0000
vt 0.7835 0.1016 0.0000
vt 0.7567 0.0996 0.0000
vt 0.7498 0.1005 0.0000
vt 0.8558 0.7713 0.0000
vt 0.8550 0.7626 0.0000
vt 0.8272 0.7712 0.0000
vt 0.8281 0.7625 0.0000
vt 0.8444 0.7626 0.0000
vt 0.4970 0.1196 0.0000
vt 0.4718 0.1114 0.0000
vt 0.4860 0.1462 0.0000
vt 0.4619 0.1353 0.0000
vt 0.6267 0.8914 0.0000
vt 0.6324 0.8689 0.0000
vt 0.6370 0.8857 0.0000
vt 0.6370 0.8914 0.0000
vt 0.5998 0.8914 0.0000
vt 0.6071 0.8689 0.0000
vt 0.2607 0.8277 0.0000
vt 0.2459 0.7452 0.0000
vt 0.2459 0.6726 0.0000
vt 0.0055 0.9822 0.0000
vt 0.5946 0.4268 0.0000
vt 0.6639 0.3443 0.0000
vt 0.6844 0.3609 0.0000
vt 0.8300 0.4720 0.0000
vt 0.8308 0.4806 0.0000
vt 0.8248 0.4818 0.0000
vt 0.8043 0.4859 0.0000
vt 0.8019 0.4776 0.0000
vt 0.4642 0.5242 0.0000
vt 0.4850 0.5274 0.0000
vt 0.4850 0.5558 0.0000
vt 0.4642 0.5558 0.0000
vt 0.4642 0.4938 0.0000
vt 0.4850 0.5000 0.0000
vt 0.4417 0.4603 0.0000
vt 0.4642 0.4658 0.0000
vt 0.4417 0.4900 0.0000
vt 0.7250 0.2210 0.0000
vt 0.7267 0.2547 0.0000
vt 0.8257 0.9148 0.0000
vt 0.8239 0.8932 0.0000
vt 0.8342 0.9077 0.0000
vt 0.8531 0.9148 0.0000
vt 0.2459 0.9829 0.0000
vt 0.2459 0.9103 0.0000
vt 0.0807 0.6124 0.0000
vt 0.6672 0.0151 0.0000
vt 0.7299 0.1031 0.0000
vt 0.7042 0.1119 0.0000
vt 0.7028 0.1127 0.0000
vt 0.7992 0.7653 0.0000
vt 0.8017 0.7570 0.0000
vt 0.7729 0.7540 0.0000
vt 0.7769 0.7463 0.0000
vt 0.7954 0.7543 0.0000
vt 0.1932 0.5997 0.0000
vt 0.1963 0.6204 0.0000
vt 0.1690 0.6204 0.0000
vt 0.1628 0.5997 0.0000
vt 0.2248 0.5997 0.0000
vt 0.2248 0.6204 0.0000
vt 0.5202 0.1247 0.0000
vt 0.5282 0.0931 0.0000
vt 0.1590 0.5771 0.0000
vt 0.1348 0.5997 0.0000
vt 0.1292 0.5771 0.0000
vt 0.6247 0.9148 0.0000
vt 0.6369 0.9076 0.0000
vt 0.6571 0.8951 0.0000
vt 0.6560 0.9148 0.0000
vt 0.5973 0.9148 0.0000
vt 0.2459 0.8277 0.0000
vt 0.2312 0.7452 0.0000
vt 0.2312 0.6726 0.0000
vt 0.5408 0.3626 0.0000
vt 0.6372 0.3069 0.0000
vt 0.6459 0.3230 0.0000
vt 0.6633 0.3439 0.0000
vt 0.7799 0.4962 0.0000
vt 0.7793 0.4965 0.0000
vt 0.7754 0.4888 0.0000
vt 0.4642 0.5874 0.0000
vt 0.4850 0.5842 0.0000
vt 0.4850 0.6116 0.0000
vt 0.4642 0.6178 0.0000
vt 0.4417 0.5222 0.0000
vt 0.4417 0.5558 0.0000
vt 0.4183 0.4584 0.0000
vt 0.4183 0.4887 0.0000
vt 0.4183 0.4318 0.0000
vt 0.4417 0.4342 0.0000
vt 0.8238 0.9382 0.0000
vt 0.8507 0.9382 0.0000
vt 0.7944 0.9148 0.0000
vt 0.7931 0.8914 0.0000
vt 0.8226 0.8914 0.0000
vt 0.2312 0.9829 0.0000
vt 0.2312 0.9103 0.0000
vt 0.5946 0.0570 0.0000
vt 0.6807 0.1256 0.0000
vt 0.6644 0.1401 0.0000
vt 0.7493 0.7375 0.0000
vt 0.7547 0.7308 0.0000
vt 0.7293 0.7166 0.0000
vt 0.7358 0.7111 0.0000
vt 0.7535 0.7296 0.0000
vt 0.2564 0.5997 0.0000
vt 0.2532 0.6204 0.0000
vt 0.2867 0.5997 0.0000
vt 0.2805 0.6204 0.0000
vt 0.1912 0.5771 0.0000
vt 0.2248 0.5771 0.0000
vt 0.1274 0.5537 0.0000
vt 0.1032 0.5771 0.0000
vt 0.1008 0.5537 0.0000
vt 0.1577 0.5537 0.0000
vt 0.6267 0.9382 0.0000
vt 0.6568 0.9281 0.0000
vt 0.6442 0.9281 0.0000
vt 0.6491 0.9382 0.0000
vt 0.6631 0.8914 0.0000
vt 0.6906 0.8914 0.0000
vt 0.6899 0.9148 0.0000
vt 0.5998 0.9382 0.0000
vt 0.2312 0.8277 0.0000
vt 0.5121 0.2838 0.0000
vt 0.6236 0.2641 0.0000
vt 0.6246 0.2725 0.0000
vt 0.6328 0.2988 0.0000
vt 0.7515 0.5051 0.0000
vt 0.7568 0.5118 0.0000
vt 0.7440 0.5248 0.0000
vt 0.7376 0.5314 0.0000
vt 0.7311 0.5259 0.0000
vt 0.0005 0.0278 0.0000
vt 0.0071 0.0020 0.0000
vt 0.0354 0.0070 0.0000
vt 0.0320 0.0333 0.0000
vt 0.4417 0.5893 0.0000
vt 0.4417 0.6216 0.0000
vt 0.4183 0.5216 0.0000
vt 0.4183 0.5558 0.0000
vt 0.3949 0.4603 0.0000
vt 0.3949 0.4900 0.0000
vt 0.3949 0.4342 0.0000
vt 0.8181 0.9608 0.0000
vt 0.8434 0.9608 0.0000
vt 0.7937 0.9281 0.0000
vt 0.8061 0.9382 0.0000
vt 0.8111 0.9281 0.0000
vt 0.7944 0.9281 0.0000
vt 0.7605 0.9148 0.0000
vt 0.7598 0.8914 0.0000
vt 0.7904 0.8760 0.0000
vt 0.8190 0.8863 0.0000
vt 0.5408 0.1212 0.0000
vt 0.6601 0.1438 0.0000
vt 0.6434 0.1657 0.0000
vt 0.6377 0.1772 0.0000
vt 0.7136 0.6920 0.0000
vt 0.7211 0.6880 0.0000
vt 0.7241 0.6927 0.0000
vt 0.9523 0.4350 0.0000
vt 0.9788 0.4362 0.0000
vt 0.9788 0.4650 0.0000
vt 0.9523 0.4670 0.0000
vt 0.9563 0.4035 0.0000
vt 0.9824 0.4078 0.0000
vt 0.2583 0.5771 0.0000
vt 0.2906 0.5771 0.0000
vt 0.1906 0.5537 0.0000
vt 0.2248 0.5537 0.0000
vt 0.1292 0.5303 0.0000
vt 0.1032 0.5303 0.0000
vt 0.1590 0.5303 0.0000
vt 0.6324 0.9608 0.0000
vt 0.6578 0.9560 0.0000
vt 0.6608 0.9579 0.0000
vt 0.6613 0.9608 0.0000
vt 0.6903 0.9281 0.0000
vt 0.6840 0.9281 0.0000
vt 0.6646 0.9281 0.0000
vt 0.8350 0.6892 0.0000
vt 0.8146 0.7032 0.0000
vt 0.8146 0.6804 0.0000
vt 0.8272 0.6869 0.0000
vt 0.7588 0.6693 0.0000
vt 0.7839 0.6608 0.0000
vt 0.8017 0.6652 0.0000
vt 0.8118 0.6643 0.0000
vt 0.8118 0.6872 0.0000
vt 0.6922 0.8734 0.0000
vt 0.7252 0.8914 0.0000
vt 0.7252 0.9020 0.0000
vt 0.7107 0.9020 0.0000
vt 0.7170 0.9148 0.0000
vt 0.6071 0.9608 0.0000
vt 0.5121 0.2000 0.0000
vt 0.6235 0.2196 0.0000
vt 0.6215 0.2450 0.0000
vt 0.7150 0.5503 0.0000
vt 0.7224 0.5544 0.0000
vt 0.7192 0.5622 0.0000
vt 0.7118 0.5800 0.0000
vt 0.7038 0.5775 0.0000
vt 0.0637 0.0349 0.0000
vt 0.0640 0.0084 0.0000
vt 0.0917 0.0062 0.0000
vt 0.0945 0.0325 0.0000
vt 0.4642 0.6458 0.0000
vt 0.4417 0.6513 0.0000
vt 0.4183 0.5900 0.0000
vt 0.4183 0.6229 0.0000
vt 0.3949 0.5222 0.0000
vt 0.3949 0.5558 0.0000
vt 0.3723 0.4658 0.0000
vt 0.3723 0.4938 0.0000
vt 0.6998 0.2211 0.0000
vt 0.7245 0.2213 0.0000
vt 0.7233 0.2554 0.0000
vt 0.6986 0.2533 0.0000
vt 0.6728 0.1927 0.0000
vt 0.6983 0.1893 0.0000
vt 0.6741 0.2213 0.0000
vt 0.7951 0.9608 0.0000
vt 0.6691 0.3051 0.0000
vt 0.6715 0.3035 0.0000
vt 0.7037 0.2940 0.0000
vt 0.7044 0.2936 0.0000
vt 0.7211 0.3051 0.0000
vt 0.7601 0.9281 0.0000
vt 0.7615 0.9281 0.0000
vt 0.8146 0.6613 0.0000
vt 0.8705 0.6607 0.0000
vt 0.8643 0.6799 0.0000
vt 0.8550 0.6759 0.0000
vt 0.8318 0.6742 0.0000
vt 0.7211 0.2850 0.0000
vt 0.7365 0.9148 0.0000
vt 0.7428 0.9020 0.0000
vt 0.7278 0.9020 0.0000
vt 0.7260 0.9020 0.0000
vt 0.7580 0.8710 0.0000
vt 0.7803 0.8710 0.0000
vt 0.6311 0.1905 0.0000
vt 0.6237 0.2173 0.0000
vt 0.7030 0.6648 0.0000
vt 0.7110 0.6623 0.0000
vt 0.6977 0.6358 0.0000
vt 0.7061 0.6350 0.0000
vt 0.7087 0.6497 0.0000
vt 0.9640 0.3736 0.0000
vt 0.9894 0.3809 0.0000
vt 0.3203 0.5771 0.0000
vt 0.3147 0.5997 0.0000
vt 0.9326 0.4008 0.0000
vt 0.9284 0.4343 0.0000
vt 0.2590 0.5537 0.0000
vt 0.2918 0.5537 0.0000
vt 0.1912 0.5303 0.0000
vt 0.2248 0.5303 0.0000
vt 0.8471 0.5663 0.0000
vt 0.8718 0.5650 0.0000
vt 0.8718 0.5991 0.0000
vt 0.8471 0.5984 0.0000
vt 0.1628 0.5078 0.0000
vt 0.1348 0.5078 0.0000
vt 0.8191 0.6259 0.0000
vt 0.8445 0.6302 0.0000
vt 0.8395 0.6602 0.0000
vt 0.8146 0.6530 0.0000
vt 0.0226 0.0958 0.0000
vt 0.0226 0.1156 0.0000
vt 0.0123 0.1135 0.0000
vt 0.0040 0.1126 0.0000
vt 0.0005 0.1130 0.0000
vt 0.6686 0.9608 0.0000
vt 0.7252 0.9316 0.0000
vt 0.7252 0.9382 0.0000
vt 0.6911 0.9382 0.0000
vt 0.6961 0.9281 0.0000
vt 0.8665 0.7032 0.0000
vt 0.8544 0.6949 0.0000
vt 0.8608 0.6968 0.0000
vt 0.8665 0.6973 0.0000
vt 0.0535 0.0766 0.0000
vt 0.0005 0.1026 0.0000
vt 0.0005 0.0507 0.0000
vt 0.6962 0.8709 0.0000
vt 0.7252 0.8709 0.0000
vt 0.6844 0.3072 0.0000
vt 0.6852 0.3078 0.0000
vt 0.6691 0.3188 0.0000
vt 0.6691 0.3059 0.0000
vt 0.6836 0.3073 0.0000
vt 0.0644 0.4738 0.0000
vt 0.0654 0.4769 0.0000
vt 0.0654 0.4770 0.0000
vt 0.0638 0.4938 0.0000
vt 0.0663 0.5066 0.0000
vt 0.0534 0.5066 0.0000
vt 0.8215 0.5973 0.0000
vt 0.7068 0.6050 0.0000
vt 0.7063 0.6073 0.0000
vt 0.6979 0.6064 0.0000
vt 0.6649 0.5259 0.0000
vt 0.6856 0.5323 0.0000
vt 0.6856 0.5605 0.0000
vt 0.6649 0.5572 0.0000
vt 0.1174 0.0005 0.0000
vt 0.1231 0.0261 0.0000
vt 0.6423 0.4644 0.0000
vt 0.6649 0.4717 0.0000
vt 0.6649 0.4970 0.0000
vt 0.6423 0.4913 0.0000
vt 0.0285 0.0571 0.0000
vt 0.0622 0.0587 0.0000
vt 0.4183 0.6532 0.0000
vt 0.3949 0.5893 0.0000
vt 0.3949 0.6216 0.0000
vt 0.3723 0.5242 0.0000
vt 0.3723 0.5558 0.0000
vt 0.6731 0.2503 0.0000
vt 0.6950 0.2845 0.0000
vt 0.6698 0.2784 0.0000
vt 0.5375 0.7428 0.0000
vt 0.5519 0.7261 0.0000
vt 0.5726 0.7465 0.0000
vt 0.5552 0.7602 0.0000
vt 0.6691 0.1655 0.0000
vt 0.6907 0.1600 0.0000
vt 0.6951 0.1653 0.0000
vt 0.3466 0.0265 0.0000
vt 0.3996 0.0005 0.0000
vt 0.3996 0.0524 0.0000
vt 0.6691 0.3040 0.0000
vt 0.6701 0.3039 0.0000
vt 0.7253 0.9316 0.0000
vt 0.7286 0.9310 0.0000
vt 0.7592 0.9281 0.0000
vt 0.7601 0.9299 0.0000
vt 0.7598 0.9382 0.0000
vt 0.7017 0.3056 0.0000
vt 0.7244 0.3056 0.0000
vt 0.7188 0.3105 0.0000
vt 0.7118 0.3187 0.0000
vt 0.4651 0.8274 0.0000
vt 0.4324 0.8385 0.0000
vt 0.4324 0.8253 0.0000
vt 0.4452 0.8277 0.0000
vt 0.4614 0.8262 0.0000
vt 0.7012 0.3056 0.0000
vt 0.7012 0.3188 0.0000
vt 0.6862 0.3070 0.0000
vt 0.9753 0.3466 0.0000
vt 0.9995 0.3566 0.0000
vt 0.6649 0.6224 0.0000
vt 0.6856 0.6192 0.0000
vt 0.6856 0.6474 0.0000
vt 0.6649 0.6538 0.0000
vt 0.6423 0.6884 0.0000
vt 0.6649 0.6826 0.0000
vt 0.6649 0.7080 0.0000
vt 0.6423 0.7152 0.0000
vt 0.3222 0.5537 0.0000
vt 0.3487 0.5537 0.0000
vt 0.3463 0.5771 0.0000
vt 0.2583 0.5303 0.0000
vt 0.2906 0.5303 0.0000
vt 0.1932 0.5078 0.0000
vt 0.2248 0.5078 0.0000
vt 0.8215 0.5684 0.0000
vt 0.8191 0.5402 0.0000
vt 0.8445 0.5349 0.0000
vt 0.3962 0.7279 0.0000
vt 0.3857 0.7086 0.0000
vt 0.4129 0.6979 0.0000
vt 0.4194 0.7189 0.0000
vt 0.6677 0.9815 0.0000
vt 0.6788 0.9634 0.0000
vt 0.6801 0.9608 0.0000
vt 0.6926 0.9608 0.0000
vt 0.6959 0.9815 0.0000
vt 0.8723 0.6607 0.0000
vt 0.9283 0.6621 0.0000
vt 0.9262 0.6677 0.0000
vt 0.9161 0.6660 0.0000
vt 0.9151 0.6661 0.0000
vt 0.8903 0.6710 0.0000
vt 0.8870 0.6725 0.0000
vt 0.7252 0.9608 0.0000
vt 0.6907 0.9391 0.0000
vt 0.7250 0.2996 0.0000
vt 0.7577 0.2836 0.0000
vt 0.7577 0.3157 0.0000
vt 0.0635 0.5092 0.0000
vt 0.0663 0.5071 0.0000
vt 0.0663 0.5113 0.0000
vt 0.3753 0.7413 0.0000
vt 0.3611 0.7243 0.0000
vt 0.6856 0.5898 0.0000
vt 0.6649 0.5898 0.0000
vt 0.6423 0.5219 0.0000
vt 0.6423 0.5552 0.0000
vt 0.6189 0.4619 0.0000
vt 0.6189 0.4893 0.0000
vt 0.4417 0.6774 0.0000
vt 0.4183 0.6797 0.0000
vt 0.3949 0.6513 0.0000
vt 0.3723 0.5874 0.0000
vt 0.3723 0.6178 0.0000
vt 0.3516 0.5274 0.0000
vt 0.3516 0.5558 0.0000
vt 0.3516 0.5000 0.0000
vt 0.5691 0.7805 0.0000
vt 0.5889 0.7704 0.0000
vt 0.6001 0.7969 0.0000
vt 0.5786 0.8030 0.0000
vt 0.5201 0.7632 0.0000
vt 0.5340 0.7768 0.0000
vt 0.5167 0.7291 0.0000
vt 0.5274 0.7100 0.0000
vt 0.7546 0.9815 0.0000
vt 0.7578 0.9608 0.0000
vt 0.7752 0.9608 0.0000
vt 0.7779 0.9663 0.0000
vt 0.7883 0.9637 0.0000
vt 0.7828 0.9815 0.0000
vt 0.7588 0.6927 0.0000
vt 0.7736 0.6877 0.0000
vt 0.7791 0.6930 0.0000
vt 0.8017 0.7066 0.0000
vt 0.8100 0.7091 0.0000
vt 0.8118 0.7094 0.0000
vt 0.8118 0.7105 0.0000
vt 0.7641 0.9382 0.0000
vt 0.6423 0.6577 0.0000
vt 0.6423 0.6244 0.0000
vt 0.6189 0.6903 0.0000
vt 0.6189 0.7177 0.0000
vt 0.3203 0.5303 0.0000
vt 0.3463 0.5303 0.0000
vt 0.2564 0.5078 0.0000
vt 0.2867 0.5078 0.0000
vt 0.1963 0.4870 0.0000
vt 0.1690 0.4870 0.0000
vt 0.2248 0.4870 0.0000
vt 0.3575 0.7583 0.0000
vt 0.3402 0.7443 0.0000
vt 0.3436 0.7783 0.0000
vt 0.3238 0.7679 0.0000
vt 0.4090 0.7515 0.0000
vt 0.4273 0.7444 0.0000
vt 0.4419 0.6926 0.0000
vt 0.4440 0.7144 0.0000
vt 0.7252 0.9815 0.0000
vt 0.3926 0.7620 0.0000
vt 0.6423 0.5898 0.0000
vt 0.6189 0.5206 0.0000
vt 0.6189 0.5545 0.0000
vt 0.5955 0.4644 0.0000
vt 0.5955 0.4913 0.0000
vt 0.3949 0.6774 0.0000
vt 0.3723 0.6458 0.0000
vt 0.3516 0.5842 0.0000
vt 0.3516 0.6116 0.0000
vt 0.5834 0.8269 0.0000
vt 0.6058 0.8250 0.0000
vt 0.6057 0.8536 0.0000
vt 0.5833 0.8512 0.0000
vt 0.5448 0.7928 0.0000
vt 0.5523 0.8105 0.0000
vt 0.5002 0.7864 0.0000
vt 0.5097 0.7958 0.0000
vt 0.5037 0.7524 0.0000
vt 0.4936 0.7196 0.0000
vt 0.5002 0.6988 0.0000
vt 0.6189 0.6590 0.0000
vt 0.6189 0.6251 0.0000
vt 0.5955 0.6884 0.0000
vt 0.5955 0.7152 0.0000
vt 0.3147 0.5078 0.0000
vt 0.7894 0.5970 0.0000
vt 0.8141 0.5972 0.0000
vt 0.8129 0.6313 0.0000
vt 0.7883 0.6291 0.0000
vt 0.2532 0.4870 0.0000
vt 0.2805 0.4870 0.0000
vt 0.3339 0.8007 0.0000
vt 0.3124 0.7942 0.0000
vt 0.3289 0.8245 0.0000
vt 0.3065 0.8222 0.0000
vt 0.3787 0.7753 0.0000
vt 0.3677 0.7911 0.0000
vt 0.4237 0.7784 0.0000
vt 0.4362 0.7735 0.0000
vt 0.4466 0.7408 0.0000
vt 0.4713 0.6929 0.0000
vt 0.4691 0.7146 0.0000
vt 0.4124 0.7856 0.0000
vt 0.6189 0.5898 0.0000
vt 0.5955 0.5219 0.0000
vt 0.5955 0.5552 0.0000
vt 0.5730 0.4717 0.0000
vt 0.5730 0.4970 0.0000
vt 0.9049 0.5663 0.0000
vt 0.9296 0.5650 0.0000
vt 0.9296 0.5991 0.0000
vt 0.9049 0.5984 0.0000
vt 0.8769 0.5402 0.0000
vt 0.9023 0.5349 0.0000
vt 0.8792 0.5684 0.0000
vt 0.5783 0.8750 0.0000
vt 0.5998 0.8816 0.0000
vt 0.5884 0.9079 0.0000
vt 0.5687 0.8974 0.0000
vt 0.5561 0.8293 0.0000
vt 0.5560 0.8484 0.0000
vt 0.5172 0.8068 0.0000
vt 0.5224 0.8190 0.0000
vt 0.4827 0.8068 0.0000
vt 0.4935 0.8085 0.0000
vt 0.4889 0.7790 0.0000
vt 0.4856 0.7449 0.0000
vt 0.5955 0.6577 0.0000
vt 0.5955 0.6244 0.0000
vt 0.5730 0.6826 0.0000
vt 0.5730 0.7080 0.0000
vt 0.7627 0.6261 0.0000
vt 0.7846 0.6603 0.0000
vt 0.7594 0.6542 0.0000
vt 0.7637 0.5972 0.0000
vt 0.3288 0.8488 0.0000
vt 0.3064 0.8507 0.0000
vt 0.3336 0.8727 0.0000
vt 0.3121 0.8788 0.0000
vt 0.3601 0.8087 0.0000
vt 0.3562 0.8274 0.0000
vt 0.4028 0.7948 0.0000
vt 0.3952 0.8057 0.0000
vt 0.4365 0.8019 0.0000
vt 0.4452 0.8025 0.0000
vt 0.4496 0.7710 0.0000
vt 0.4663 0.7410 0.0000
vt 0.4272 0.8033 0.0000
vt 0.4275 0.8015 0.0000
vt 0.5955 0.5898 0.0000
vt 0.5730 0.5259 0.0000
vt 0.5730 0.5572 0.0000
vt 0.8792 0.5973 0.0000
vt 0.9023 0.6302 0.0000
vt 0.8769 0.6259 0.0000
vt 0.5720 0.9315 0.0000
vt 0.5547 0.9175 0.0000
vt 0.5521 0.8671 0.0000
vt 0.5445 0.8846 0.0000
vt 0.5250 0.8320 0.0000
vt 0.5249 0.8451 0.0000
vt 0.4932 0.8190 0.0000
vt 0.4927 0.8275 0.0000
vt 0.4938 0.8086 0.0000
vt 0.4678 0.0005 0.0000
vt 0.4678 0.1070 0.0000
vt 0.4221 0.0871 0.0000
vt 0.4231 0.0781 0.0000
vt 0.4239 0.0695 0.0000
vt 0.4243 0.0619 0.0000
vt 0.4244 0.0549 0.0000
vt 0.4243 0.0479 0.0000
vt 0.4239 0.0404 0.0000
vt 0.4231 0.0317 0.0000
vt 0.4218 0.0208 0.0000
vt 0.4218 0.0205 0.0000
vt 0.4741 0.8055 0.0000
vt 0.4764 0.7739 0.0000
vt 0.5730 0.6538 0.0000
vt 0.5730 0.6224 0.0000
vt 0.7624 0.5686 0.0000
vt 0.7879 0.5652 0.0000
vt 0.3431 0.8952 0.0000
vt 0.3233 0.9053 0.0000
vt 0.3570 0.9156 0.0000
vt 0.3396 0.9293 0.0000
vt 0.3561 0.8465 0.0000
vt 0.3599 0.8652 0.0000
vt 0.3900 0.8178 0.0000
vt 0.3873 0.8306 0.0000
vt 0.4257 0.8133 0.0000
vt 0.4246 0.8212 0.0000
vt 0.4527 0.8031 0.0000
vt 0.4631 0.7712 0.0000
vt 0.7845 0.2733 0.0000
vt 0.7834 0.1600 0.0000
vt 0.8309 0.1813 0.0000
vt 0.8299 0.1875 0.0000
vt 0.8287 0.1974 0.0000
vt 0.8280 0.2053 0.0000
vt 0.8279 0.2069 0.0000
vt 0.8278 0.2122 0.0000
vt 0.8277 0.2186 0.0000
vt 0.8278 0.2250 0.0000
vt 0.8279 0.2300 0.0000
vt 0.8280 0.2319 0.0000
vt 0.8287 0.2398 0.0000
vt 0.8300 0.2499 0.0000
vt 0.8303 0.2518 0.0000
vt 0.5730 0.5898 0.0000
vt 0.5522 0.5323 0.0000
vt 0.5522 0.5605 0.0000
vt 0.8972 0.6602 0.0000
vt 0.8723 0.6530 0.0000
vt 0.5369 0.9345 0.0000
vt 0.5511 0.9515 0.0000
vt 0.5265 0.9671 0.0000
vt 0.5160 0.9478 0.0000
vt 0.5335 0.9004 0.0000
vt 0.5222 0.8580 0.0000
vt 0.5170 0.8701 0.0000
vt 0.4920 0.8348 0.0000
vt 0.4914 0.8416 0.0000
vt 0.5121 0.0005 0.0000
vt 0.6254 0.0016 0.0000
vt 0.6037 0.0476 0.0000
vt 0.5933 0.0463 0.0000
vt 0.5849 0.0455 0.0000
vt 0.5775 0.0451 0.0000
vt 0.5707 0.0450 0.0000
vt 0.5639 0.0451 0.0000
vt 0.5566 0.0455 0.0000
vt 0.5481 0.0463 0.0000
vt 0.5375 0.0476 0.0000
vt 0.5335 0.0482 0.0000
vt 0.7207 0.7277 0.0000
vt 0.7207 0.8342 0.0000
vt 0.6074 0.8342 0.0000
vt 0.6074 0.7277 0.0000
vt 0.4597 0.8038 0.0000
vt 0.4667 0.8046 0.0000
vt 0.7588 0.5413 0.0000
vt 0.7839 0.5349 0.0000
vt 0.5522 0.6192 0.0000
vt 0.5522 0.6474 0.0000
vt 0.3747 0.9329 0.0000
vt 0.3603 0.9497 0.0000
vt 0.3674 0.8830 0.0000
vt 0.3782 0.8989 0.0000
vt 0.3872 0.8438 0.0000
vt 0.3898 0.8567 0.0000
vt 0.4243 0.8231 0.0000
vt 0.4224 0.8276 0.0000
vt 0.4210 0.8342 0.0000
vt 0.8732 0.0005 0.0000
vt 0.9796 0.0005 0.0000
vt 0.9591 0.0482 0.0000
vt 0.9512 0.0473 0.0000
vt 0.9415 0.0464 0.0000
vt 0.9331 0.0459 0.0000
vt 0.9252 0.0458 0.0000
vt 0.9174 0.0459 0.0000
vt 0.9090 0.0464 0.0000
vt 0.8993 0.0473 0.0000
vt 0.8936 0.0479 0.0000
vt 0.4264 0.8726 0.0000
vt 0.4120 0.8893 0.0000
vt 0.4025 0.8799 0.0000
vt 0.4209 0.8654 0.0000
vt 0.4207 0.8717 0.0000
vt 0.3950 0.8689 0.0000
vt 0.4214 0.8555 0.0000
vt 0.4219 0.8476 0.0000
vt 0.4210 0.8409 0.0000
vt 0.4220 0.8460 0.0000
vt 0.4225 0.8408 0.0000
vt 0.4231 0.8344 0.0000
vt 0.4238 0.8281 0.0000
vt 0.5522 0.5898 0.0000
vt 0.4928 0.9569 0.0000
vt 0.4993 0.9778 0.0000
vt 0.4703 0.9831 0.0000
vt 0.4682 0.9614 0.0000
vt 0.5196 0.9138 0.0000
vt 0.5032 0.9242 0.0000
vt 0.5094 0.8810 0.0000
vt 0.4906 0.8484 0.0000
vt 0.4896 0.8556 0.0000
vt 0.4884 0.8639 0.0000
vt 0.4998 0.8902 0.0000
vt 0.4866 0.8744 0.0000
vt 0.4885 0.8974 0.0000
vt 0.4780 0.8780 0.0000
vt 0.4859 0.8784 0.0000
vt 0.3955 0.9467 0.0000
vt 0.3848 0.9658 0.0000
vt 0.4186 0.9562 0.0000
vt 0.4120 0.9770 0.0000
vt 0.3921 0.9126 0.0000
vt 0.4760 0.9023 0.0000
vt 0.4683 0.8774 0.0000
vt 0.4627 0.9047 0.0000
vt 0.4599 0.8767 0.0000
vt 0.4491 0.9046 0.0000
vt 0.4521 0.8760 0.0000
vt 0.4358 0.9019 0.0000
vt 0.4443 0.8751 0.0000
vt 0.4233 0.8967 0.0000
vt 0.4360 0.8740 0.0000
vt 0.4409 0.9828 0.0000
vt 0.4431 0.9612 0.0000
vt 0.4849 0.9314 0.0000
vt 0.4656 0.9349 0.0000
vt 0.4085 0.9233 0.0000
vt 0.4266 0.9308 0.0000
vt 0.4459 0.9347 0.0000
vt 0.2839 0.6316 0.0000
vt 0.2839 0.6603 0.0000
vt 0.2153 0.6603 0.0000
vt 0.2153 0.6346 0.0000
vt 0.2443 0.6374 0.0000
vt 0.2737 0.6346 0.0000
vt 0.3056 0.6346 0.0000
vt 0.3212 0.6338 0.0000
vt 0.3396 0.6292 0.0000
vt 0.3532 0.6224 0.0000
vt 0.3532 0.6603 0.0000
vt 0.0894 0.4560 0.0000
vt 0.0893 0.5247 0.0000
vt 0.0673 0.5247 0.0000
vt 0.0675 0.4560 0.0000
vt 0.1560 0.6603 0.0000
vt 0.1560 0.6364 0.0000
vt 0.1800 0.6413 0.0000
vt 0.1831 0.6414 0.0000
vt 0.2147 0.6348 0.0000
vt 0.0525 0.5940 0.0000
vt 0.0306 0.5939 0.0000
vt 0.4324 0.8390 0.0000
vt 0.4702 0.8390 0.0000
vt 0.4671 0.8445 0.0000
vt 0.4640 0.8609 0.0000
vt 0.4324 0.8609 0.0000
vt 0.0307 0.3967 0.0000
vt 0.0526 0.3967 0.0000
vt 0.6969 0.6450 0.0000
vt 0.6876 0.6450 0.0000
vt 0.6876 0.5763 0.0000
vt 0.7038 0.5609 0.0000
vt 0.6972 0.5832 0.0000
vt 0.6941 0.6160 0.0000
vt 0.7802 0.2836 0.0000
vt 0.7802 0.3076 0.0000
vt 0.7582 0.3076 0.0000
vt 0.7582 0.2891 0.0000
vt 0.7745 0.2864 0.0000
vt 0.6876 0.5071 0.0000
vt 0.7141 0.5222 0.0000
vt 0.7044 0.5508 0.0000
vt 0.8097 0.2790 0.0000
vt 0.7834 0.3055 0.0000
vt 0.7834 0.2738 0.0000
vt 0.8012 0.2793 0.0000
vt 0.8034 0.2797 0.0000
vt 0.6962 0.6490 0.0000
vt 0.6965 0.6781 0.0000
vt 0.6977 0.6841 0.0000
vt 0.7061 0.7043 0.0000
vt 0.6876 0.7043 0.0000
# 1038 texture coords

o Jacon_the_Pumpkin
g Jacon_the_Pumpkin
usemtl wire_177073019
s 1
f 1/1/1 2/2/1 3/3/1 
f 1/1/1 3/3/1 4/4/1 
f 1/1/1 5/5/1 2/2/1 
f 3/3/1 2/2/1 6/6/2 7/7/3 
f 1/1/1 4/4/1 8/8/1 
f 4/4/1 3/3/1 7/7/3 9/9/4 
f 1/1/1 10/10/1 5/5/1 
f 2/2/1 5/5/1 11/11/5 6/6/2 
s 8
f 7/12/3 6/13/2 12/14/6 13/15/7 
s 1
f 1/1/1 8/8/1 14/16/1 
f 8/8/1 4/4/1 9/9/4 15/17/8 
s 8
f 9/18/4 7/12/3 13/15/7 16/19/9 
s 1
f 1/1/1 17/20/1 10/10/1 
f 5/5/1 10/10/1 18/21/10 11/11/5 
s 8
f 6/13/2 11/22/5 19/23/11 12/14/6 
f 13/15/7 12/14/6 20/24/6 21/25/12 
s 1
f 1/1/1 14/16/1 22/26/1 
f 14/16/1 8/8/1 15/17/8 23/27/13 
s 8
f 15/28/8 9/18/4 16/19/9 24/29/14 
f 16/19/9 13/15/7 21/25/12 25/30/9 
s 1
f 1/1/1 26/31/1 17/20/1 
f 10/10/1 17/20/1 27/32/15 18/21/10 
s 8
f 11/33/5 18/34/10 28/35/16 19/36/11 
f 12/14/6 19/23/11 29/37/17 20/24/6 
f 21/25/12 20/24/6 30/38/6 31/39/7 
s 1
f 1/1/1 22/26/1 32/40/1 
f 22/26/1 14/16/1 23/27/13 33/41/18 
s 8
f 23/42/13 15/43/8 24/44/14 34/45/19 
f 24/29/14 16/19/9 25/30/9 35/46/20 
f 25/30/9 21/25/12 31/39/7 36/47/9 
s 1
f 1/1/1 37/48/1 26/31/1 
f 17/20/1 26/31/1 38/49/21 27/32/15 
s 8
f 18/34/10 27/50/15 39/51/22 28/35/16 
f 19/36/11 28/35/16 40/52/16 29/53/17 
f 20/24/6 29/37/17 41/54/17 30/38/6 
f 31/39/7 30/38/6 42/55/6 43/56/7 
s 1
f 1/1/1 32/40/1 44/57/1 
f 32/40/1 22/26/1 33/41/18 45/58/23 
s 8
f 33/59/18 23/42/13 34/45/19 46/60/24 
f 34/45/19 24/44/14 35/61/20 47/62/19 
f 35/46/20 25/30/9 36/47/9 48/63/20 
f 36/47/9 31/39/7 43/56/7 49/64/9 
s 1
f 1/1/1 50/65/1 37/48/1 
f 26/31/1 37/48/1 51/66/25 38/49/21 
s 8
f 27/50/15 38/67/21 52/68/26 39/51/22 
f 28/35/16 39/51/22 53/69/22 40/52/16 
f 29/53/17 40/52/16 54/70/16 41/71/17 
f 30/38/6 41/54/17 55/72/17 42/55/6 
f 43/56/7 42/55/6 56/73/27 57/74/28 
s 1
f 1/1/1 44/57/1 58/75/1 
f 44/57/1 32/40/1 45/58/23 59/76/29 
s 8
f 45/77/23 33/59/18 46/60/24 60/78/30 
f 46/60/24 34/45/19 47/62/19 61/79/24 
f 47/62/19 35/61/20 48/80/20 62/81/19 
f 48/63/20 36/47/9 49/64/9 63/82/20 
f 49/64/9 43/56/7 57/74/28 64/83/31 
s 1
f 1/1/1 65/84/1 50/65/1 
f 37/48/1 50/65/1 66/85/32 51/66/25 
s 8
f 38/67/21 51/86/25 67/87/33 52/68/26 
f 39/51/22 52/68/26 68/88/26 53/69/22 
f 40/52/16 53/69/22 69/89/22 54/70/16 
f 41/71/17 54/70/16 70/90/16 55/91/17 
f 42/55/6 55/72/17 71/92/34 56/73/27 
s 1
f 57/93/28 56/94/27 72/95/35 73/96/36 74/97/37 
f 1/1/1 58/75/1 75/98/1 
f 58/75/1 44/57/1 59/76/29 76/99/38 
s 8
f 59/100/29 45/77/23 60/78/30 77/101/39 
f 60/78/30 46/60/24 61/79/24 78/102/30 
f 61/79/24 47/62/19 62/81/19 79/103/24 
f 62/81/19 48/80/20 63/104/20 80/105/19 
f 63/82/20 49/64/9 64/83/31 81/106/40 
s 1
f 64/107/31 57/93/28 74/97/37 82/108/41 83/109/42 84/110/7 
f 1/1/1 85/111/1 65/84/1 
f 50/65/1 65/84/1 86/112/43 66/85/32 
s 8
f 51/86/25 66/113/32 87/114/44 67/87/33 
f 52/68/26 67/87/33 88/115/33 68/88/26 
f 53/69/22 68/88/26 89/116/26 69/89/22 
f 54/70/16 69/89/22 90/117/22 70/90/16 
f 55/91/17 70/90/16 91/118/45 71/119/34 
s 1
f 56/94/27 71/120/34 92/121/46 93/122/47 94/123/48 72/95/35 
s 2
f 95/124/49 73/125/36 72/126/35 94/127/48 96/128/50 
f 97/129/51 82/130/41 74/131/37 73/125/36 95/124/49 
s 1
f 1/1/1 75/98/1 85/111/1 
f 75/98/1 58/75/1 76/99/38 98/132/52 
s 8
f 76/133/38 59/100/29 77/101/39 99/134/53 
f 77/101/39 60/78/30 78/102/30 100/135/39 
f 78/102/30 61/79/24 79/103/24 101/136/30 
f 79/103/24 62/81/19 80/105/19 102/137/24 
f 80/105/19 63/104/20 81/138/40 103/139/54 
s 1
f 81/140/40 64/107/31 84/110/7 104/141/55 105/142/56 106/143/57 
s 2
f 82/130/41 97/129/51 107/144/58 83/145/42 
f 108/146/59 104/147/55 84/148/7 83/145/42 107/144/58 
s 1
f 65/84/1 85/111/1 109/149/60 86/112/43 
s 8
f 66/150/32 86/151/43 110/152/61 87/153/44 
f 67/87/33 87/114/44 111/154/62 88/115/33 
f 68/88/26 88/115/33 112/155/33 89/116/26 
f 69/89/22 89/116/26 113/156/26 90/117/22 
f 70/90/16 90/117/22 114/157/63 91/118/45 
s 1
f 71/120/34 91/158/45 115/159/64 116/160/65 117/161/66 92/121/46 
s 2
f 118/162/67 93/163/47 92/164/46 117/165/66 119/166/68 
f 93/163/47 118/162/67 96/128/50 94/127/48 
f 120/167/69 95/168/49 96/169/50 121/170/70 122/171/71 
f 123/172/72 97/173/51 95/168/49 120/167/69 
s 1
f 85/111/1 75/98/1 98/132/52 109/149/60 
s 8
f 98/174/52 76/175/38 99/176/53 124/177/73 
f 99/134/53 77/101/39 100/135/39 125/178/53 
f 100/135/39 78/102/30 101/136/30 126/179/39 
f 101/136/30 79/103/24 102/137/24 127/180/30 
f 102/137/24 80/105/19 103/139/54 128/181/74 
s 1
f 103/182/54 81/140/40 106/143/57 129/183/75 130/184/76 131/185/77 
s 2
f 104/147/55 108/146/59 132/186/78 105/187/56 
f 133/188/79 129/189/75 106/190/57 105/187/56 132/186/78 
f 134/191/80 107/192/58 97/173/51 123/172/72 135/193/81 
f 136/194/82 137/195/83 108/196/59 107/192/58 134/191/80 
s 8
f 86/151/43 109/197/60 138/198/84 110/152/61 
f 87/153/44 110/152/61 139/199/61 111/200/62 
f 88/115/33 111/154/62 140/201/62 112/155/33 
f 89/116/26 112/155/33 141/202/33 113/156/26 
f 90/117/22 113/156/26 142/203/85 114/157/63 
s 1
f 91/158/45 114/204/63 143/205/86 144/206/87 145/207/88 115/159/64 
s 2
f 146/208/89 116/209/65 115/210/64 145/211/88 147/212/90 
f 116/209/65 146/208/89 119/166/68 117/165/66 
f 148/213/91 118/214/67 119/215/68 149/216/92 
f 121/217/70 96/218/50 118/214/67 148/213/91 150/219/93 
s 8
f 109/197/60 98/174/52 124/177/73 138/198/84 
f 124/177/73 99/176/53 125/220/53 151/221/73 
f 125/178/53 100/135/39 126/179/39 152/222/94 
f 126/179/39 101/136/30 127/180/30 153/223/39 
f 127/180/30 102/137/24 128/181/74 154/224/95 
s 1
f 128/225/74 103/182/54 131/185/77 155/226/96 156/227/97 157/228/98 
s 2
f 129/189/75 133/188/79 158/229/99 130/230/76 
f 159/231/100 155/232/96 131/233/77 130/230/76 158/229/99 
f 160/234/101 132/235/78 108/236/59 137/237/83 
f 161/238/102 133/239/79 132/235/78 160/234/101 
f 162/240/103 137/195/83 136/194/82 
s 8
f 110/152/61 138/198/84 163/241/84 139/199/61 
f 111/200/62 139/199/61 164/242/61 140/243/62 
f 112/155/33 140/201/62 165/244/62 141/202/33 
f 113/156/26 141/202/33 166/245/104 142/203/85 
s 1
f 114/204/63 142/246/85 167/247/57 168/248/105 169/249/106 143/205/86 
s 2
f 170/250/107 144/251/87 143/252/86 169/253/106 171/254/108 
f 144/251/87 170/250/107 147/212/90 145/211/88 
f 172/255/109 146/256/89 147/257/90 173/258/110 
f 149/216/92 119/215/68 146/256/89 172/255/109 
f 174/259/111 148/260/91 149/261/92 175/262/112 176/263/113 177/264/114 
f 150/265/93 148/260/91 174/259/111 
s 8
f 138/198/84 124/177/73 151/221/73 163/241/84 
f 151/221/73 125/220/53 152/266/94 178/267/73 
f 152/222/94 126/179/39 153/223/39 179/268/94 
f 153/223/39 127/180/30 154/224/95 180/269/115 
s 1
f 154/270/95 128/225/74 157/228/98 181/271/116 182/272/117 183/273/1 
s 2
f 155/232/96 159/231/100 184/274/118 156/275/97 
f 185/276/119 181/277/116 157/278/98 156/275/97 184/274/118 
f 186/279/120 158/280/99 133/239/79 161/238/102 
f 187/281/121 159/282/100 158/280/99 186/279/120 
f 188/283/122 160/284/101 137/195/83 162/240/103 189/285/123 190/286/124 
f 191/287/125 161/288/102 160/284/101 188/283/122 
s 8
f 139/199/61 163/241/84 192/289/84 164/242/61 
f 140/243/62 164/242/61 193/290/61 165/291/62 
f 141/202/33 165/244/62 194/292/126 166/245/104 
s 1
f 142/246/85 166/293/104 195/294/57 196/295/127 167/247/57 
s 2
f 197/296/128 168/297/105 167/298/57 196/299/127 198/300/129 
f 168/297/105 197/296/128 171/254/108 169/253/106 
f 199/301/130 170/302/107 171/303/108 200/304/131 
f 173/305/110 147/306/90 170/302/107 199/301/130 
f 201/307/132 172/308/109 173/305/110 202/309/133 
f 175/310/112 149/216/92 172/255/109 201/311/132 
f 203/312/134 204/313/135 205/314/136 176/263/113 175/262/112 206/315/137 
s 8
f 163/241/84 151/221/73 178/267/73 192/289/84 
f 178/267/73 152/266/94 179/316/94 207/317/73 
f 179/268/94 153/223/39 180/269/115 208/318/138 
s 1
f 180/319/115 154/270/95 183/273/1 209/320/139 210/321/140 211/322/141 
s 2
f 181/277/116 185/276/119 212/323/142 182/324/117 
f 213/325/143 209/326/139 183/327/1 182/324/117 212/323/142 
f 214/328/144 184/329/118 159/330/100 187/331/121 
f 215/332/145 185/333/119 184/329/118 214/328/144 
f 216/334/146 186/279/120 161/238/102 191/335/125 
f 217/336/147 187/331/121 186/337/120 216/338/146 
f 218/339/148 188/283/122 190/286/124 219/340/149 220/341/150 221/342/151 
f 222/343/152 191/287/125 188/283/122 218/339/148 
s 8
f 164/242/61 192/289/84 223/344/84 193/290/61 
f 165/291/62 193/290/61 224/345/153 194/346/126 
s 1
f 166/293/104 194/347/126 225/348/154 226/349/155 227/350/156 195/294/57 
s 2
f 198/300/129 196/299/127 195/351/57 227/352/156 228/353/157 
f 229/354/158 197/355/128 198/356/129 230/357/159 
f 200/304/131 171/303/108 197/355/128 229/354/158 
f 231/358/160 199/301/130 200/304/131 232/359/161 
f 202/309/133 173/305/110 199/301/130 231/358/160 
f 233/360/162 201/307/132 202/309/133 234/361/163 
f 206/362/137 175/363/112 201/307/132 233/360/162 
f 235/364/164 203/312/134 206/315/137 236/365/165 
f 204/313/135 203/312/134 237/366/166 238/367/167 239/368/168 
s 8
f 192/289/84 178/267/73 207/317/73 223/344/84 
f 207/317/73 179/316/94 208/369/138 240/370/169 
s 1
f 208/371/138 180/319/115 211/322/141 241/372/170 242/373/171 
s 2
f 209/326/139 213/325/143 243/374/172 210/375/140 
f 244/376/173 241/377/170 211/378/141 210/375/140 243/374/172 
f 245/379/174 212/380/142 185/333/119 215/332/145 
f 246/381/175 213/382/143 212/380/142 245/379/174 
f 247/383/176 214/328/144 187/331/121 217/336/147 
f 248/384/177 215/332/145 214/328/144 247/383/176 
f 249/385/178 216/338/146 191/386/125 222/387/152 
f 250/388/179 217/336/147 216/338/146 249/385/178 
f 251/389/180 218/339/148 221/342/151 252/390/181 253/391/182 254/392/183 
f 255/393/184 256/394/185 257/395/186 221/342/151 220/341/150 
f 258/396/187 222/343/152 218/339/148 251/389/180 
s 8
f 193/290/61 223/344/84 259/397/188 224/345/153 
s 1
f 194/347/126 224/398/153 260/399/189 261/400/190 262/401/191 225/348/154 
s 2
f 263/402/192 226/403/155 225/404/154 262/405/191 264/406/193 
f 226/403/155 263/402/192 228/353/157 227/352/156 
f 230/407/159 198/408/129 228/409/157 265/410/194 
f 266/411/195 229/354/158 230/357/159 267/412/196 
f 232/359/161 200/304/131 229/354/158 266/411/195 
f 268/413/197 231/358/160 232/359/161 269/414/198 
f 234/361/163 202/309/133 231/358/160 268/413/197 
f 270/415/199 233/360/162 234/361/163 271/416/200 
f 236/417/165 206/362/137 233/360/162 270/415/199 
f 272/418/201 235/364/164 236/365/165 273/419/202 
f 274/420/203 237/366/166 203/312/134 235/364/164 275/421/204 276/422/205 277/423/1 
f 278/424/206 279/425/207 238/367/167 237/366/166 
f 238/367/167 280/426/208 281/427/209 239/368/168 
s 8
f 223/344/84 207/317/73 240/370/169 259/397/188 
s 1
f 240/428/169 208/371/138 242/373/171 282/429/210 283/430/211 284/431/212 
s 2
f 285/432/213 282/433/210 242/434/171 241/377/170 244/376/173 
f 286/435/214 243/436/172 213/437/143 246/438/175 
f 287/439/215 244/440/173 243/436/172 286/435/214 
f 288/441/216 245/379/174 215/332/145 248/384/177 
f 289/442/217 246/381/175 245/379/174 288/441/216 
f 290/443/218 247/383/176 217/336/147 250/388/179 
f 291/444/219 248/384/177 247/383/176 290/443/218 
f 292/445/220 249/385/178 222/387/152 258/446/187 
f 293/447/221 250/388/179 249/385/178 292/445/220 
f 294/448/222 251/389/180 254/392/183 295/449/223 296/450/224 297/451/225 
f 252/390/181 221/342/151 257/395/186 298/452/226 299/453/227 300/454/227 
s 1024
f 300/455/227 301/456/228 253/457/182 252/458/181 
s 4
f 302/459/229 295/460/223 254/461/183 253/462/182 301/463/228 
s 2
f 303/464/230 256/394/185 255/393/184 
f 257/395/186 256/394/185 304/465/231 305/466/232 306/467/233 307/468/234 
f 308/469/235 258/396/187 251/389/180 294/448/222 
s 1
f 224/398/153 259/470/188 309/471/57 310/472/236 260/399/189 
s 2
f 311/473/237 261/474/190 260/475/189 310/476/236 312/477/238 
f 261/474/190 311/473/237 264/406/193 262/405/191 
f 313/478/239 263/479/192 264/480/193 314/481/240 
f 265/410/194 228/409/157 263/479/192 313/478/239 
f 267/412/196 230/357/159 265/482/194 315/483/241 
f 316/484/242 266/411/195 267/412/196 317/485/243 
f 269/414/198 232/359/161 266/411/195 316/484/242 
f 318/486/244 268/413/197 269/414/198 319/487/245 
f 271/416/200 234/361/163 268/413/197 318/486/244 
f 320/488/246 270/415/199 271/416/200 321/489/247 
f 273/490/202 236/491/165 270/492/199 320/493/246 
f 322/494/248 272/495/201 273/490/202 323/496/249 
f 275/421/204 235/364/164 272/418/201 324/497/250 
s 32768
f 325/498/228 326/499/251 274/500/203 277/501/1 327/502/252 
s 2
f 328/503/253 278/424/206 237/366/166 274/420/203 326/504/251 
s 65536
f 329/505/254 327/506/252 276/507/205 275/508/204 324/509/250 330/509/255 
s 32768
f 276/510/205 327/502/252 277/501/1 
s 2
f 305/466/232 304/465/231 279/425/207 278/424/206 331/511/256 332/512/257 333/513/258 334/514/7 
f 279/425/207 335/515/259 336/516/260 280/426/208 238/367/167 
s 1
f 259/470/188 240/428/169 284/431/212 337/517/261 338/518/262 309/471/57 
s 2
f 282/433/210 285/432/213 339/519/263 283/520/211 
f 340/521/264 337/522/261 284/523/212 283/520/211 339/519/263 
f 341/524/265 285/525/213 244/440/173 287/439/215 
f 342/526/266 286/527/214 246/381/175 289/442/217 
f 343/528/267 287/439/215 286/435/214 342/529/266 
f 344/530/268 288/441/216 248/384/177 291/444/219 
f 345/531/269 289/442/217 288/441/216 344/530/268 
f 346/532/270 290/443/218 250/388/179 293/447/221 
f 347/533/271 291/444/219 290/443/218 346/532/270 
f 348/534/272 292/535/220 258/536/187 308/537/235 
f 349/538/273 293/447/221 292/445/220 348/539/272 
f 350/540/274 294/541/222 297/542/225 351/543/275 
s 4096
f 302/544/229 352/545/276 353/546/277 296/547/224 295/548/223 
s 2
f 297/451/225 296/450/224 353/549/277 
f 354/550/278 355/551/279 356/552/280 357/553/281 298/452/226 257/395/186 307/468/234 
s 1024
f 358/554/252 299/555/227 298/556/226 357/557/281 
f 299/555/227 358/554/252 301/456/228 300/455/227 
s 512
f 302/558/229 301/559/228 358/560/252 
s 2
f 256/394/185 303/464/230 359/561/282 360/562/283 304/465/231 
s 1048576
f 334/563/7 361/564/1 362/565/228 306/566/233 305/567/232 
s 524288
f 363/568/254 364/569/284 354/570/278 307/571/234 306/572/233 362/573/228 
s 2
f 365/574/285 308/537/235 294/541/222 350/540/274 
f 312/477/238 310/476/236 309/575/57 338/576/262 366/577/286 
f 367/578/287 311/579/237 312/580/238 368/581/288 
f 314/481/240 264/480/193 311/582/237 367/583/287 
f 369/584/289 313/585/239 314/586/240 370/587/290 
f 315/588/241 265/410/194 313/478/239 369/589/289 
f 317/485/243 267/412/196 315/483/241 371/590/291 
f 372/591/292 316/484/242 317/485/243 373/592/293 
f 319/487/245 269/414/198 316/484/242 372/591/292 
f 374/593/294 318/486/244 319/487/245 375/594/295 
f 321/489/247 271/416/200 318/486/244 374/593/294 
f 376/595/296 320/493/246 321/596/247 377/597/297 
f 323/496/249 273/490/202 320/493/246 376/595/296 
f 378/598/298 322/599/248 323/600/249 379/601/299 
f 380/602/300 381/603/301 330/604/255 324/604/250 272/495/201 322/494/248 
s 8192
f 329/605/254 325/606/228 327/607/252 
s 32768
f 326/499/251 325/498/228 382/608/302 328/609/253 
s 2
f 355/551/279 354/550/278 364/610/284 383/611/303 331/511/256 278/424/206 328/503/253 382/612/302 384/613/304 385/614/305 
s 131072
f 329/615/254 330/616/255 381/617/301 386/618/306 
s 2
f 335/515/259 279/425/207 304/465/231 360/562/283 
s 2097152
f 363/619/254 387/620/252 332/621/257 331/622/256 383/623/303 
s 1048576
f 332/624/257 387/625/252 361/564/1 333/626/258 
f 333/626/258 361/564/1 334/563/7 
s 2
f 337/522/261 340/521/264 366/577/286 338/576/262 
f 388/627/307 339/628/263 285/525/213 341/524/265 
f 389/629/308 340/630/264 339/631/263 388/632/307 
f 390/633/309 341/634/265 287/635/215 343/636/267 
f 391/637/310 342/526/266 289/442/217 345/531/269 
f 392/638/311 343/639/267 342/526/266 391/637/310 
f 393/640/312 344/530/268 291/444/219 347/533/271 
f 394/641/313 345/531/269 344/530/268 393/640/312 
f 395/642/314 346/532/270 293/447/221 349/538/273 
f 396/643/315 347/533/271 346/532/270 395/642/314 
f 397/644/316 348/534/272 308/537/235 365/574/285 
f 398/645/317 349/646/273 348/534/272 397/644/316 
f 399/647/318 350/648/274 351/649/275 400/650/319 
f 351/651/275 297/451/225 353/549/277 352/652/276 401/653/320 402/654/321 403/655/322 
s 2048
f 302/656/229 358/657/252 357/658/281 356/659/280 404/660/323 401/661/320 352/662/276 
s 2
f 356/552/280 355/551/279 405/663/324 402/654/321 404/664/323 
s 1048576
f 362/565/228 361/564/1 387/625/252 
s 262144
f 363/665/254 362/666/228 387/667/252 
s 4194304
f 364/668/284 363/669/254 383/670/303 
s 2
f 406/671/325 365/672/285 350/648/274 399/647/318 
f 368/581/288 312/580/238 366/673/286 407/674/326 
f 408/675/327 367/578/287 368/581/288 409/676/328 
f 370/587/290 314/586/240 367/578/287 408/675/327 
f 410/677/329 369/584/289 370/587/290 411/678/330 
f 371/590/291 315/483/241 369/679/289 410/680/329 
f 373/592/293 317/485/243 371/590/291 412/681/331 
f 413/682/332 372/591/292 373/592/293 414/683/333 
f 375/594/295 319/487/245 372/591/292 413/682/332 
f 415/684/334 374/593/294 375/594/295 416/685/335 
f 377/686/297 321/489/247 374/593/294 415/684/334 
f 417/687/336 376/688/296 377/689/297 418/690/337 
f 379/601/299 323/600/249 376/688/296 417/687/336 
f 419/691/338 378/598/298 379/601/299 420/692/339 
f 421/693/340 380/694/300 322/599/248 378/598/298 
f 422/695/341 423/696/342 424/697/343 386/698/306 381/699/301 380/700/300 
s 16384
f 329/701/254 386/702/306 424/703/343 425/704/344 384/705/304 382/706/302 325/707/228 
s 2
f 405/663/324 355/551/279 385/614/305 423/696/342 
f 385/614/305 384/613/304 425/708/344 
f 407/674/326 366/673/286 340/630/264 389/629/308 
f 426/709/345 388/632/307 341/634/265 390/633/309 
f 427/710/346 389/629/308 388/632/307 426/709/345 
f 428/711/347 390/633/309 343/636/267 392/712/311 
f 429/713/348 391/637/310 345/531/269 394/641/313 
f 430/714/349 392/638/311 391/637/310 429/713/348 
f 431/715/350 393/640/312 347/533/271 396/643/315 
f 432/716/351 394/641/313 393/640/312 431/715/350 
f 433/717/352 395/642/314 349/538/273 398/718/317 
f 434/719/353 396/643/315 395/642/314 433/717/352 
f 435/720/354 397/721/316 365/672/285 406/671/325 
f 436/722/355 398/723/317 397/721/316 435/720/354 
f 437/724/356 399/647/318 400/650/319 438/725/357 
f 400/650/319 351/649/275 403/726/322 439/727/358 
f 404/664/323 402/654/321 401/653/320 
f 403/655/322 402/654/321 405/663/324 440/728/359 
f 441/729/360 406/671/325 399/647/318 437/724/356 
f 409/676/328 368/581/288 407/674/326 442/730/361 
f 443/731/362 408/675/327 409/676/328 444/732/363 
f 411/678/330 370/587/290 408/675/327 443/731/362 
f 445/733/364 410/677/329 411/678/330 446/734/365 
f 412/681/331 371/590/291 410/680/329 445/735/364 
f 414/683/333 373/592/293 412/681/331 447/736/366 
f 448/737/367 413/682/332 414/683/333 449/738/368 
f 416/685/335 375/594/295 413/682/332 448/737/367 
f 450/739/369 415/740/334 416/741/335 451/742/370 
f 418/690/337 377/689/297 415/740/334 450/739/369 
f 452/743/371 417/687/336 418/690/337 453/744/372 
f 420/692/339 379/601/299 417/687/336 452/743/371 
f 454/745/373 419/691/338 420/692/339 455/746/374 
f 456/747/375 421/693/340 378/598/298 419/691/338 
f 457/748/376 422/749/341 380/694/300 421/693/340 
f 440/728/359 405/663/324 423/696/342 422/695/341 
f 424/697/343 423/696/342 385/614/305 425/708/344 
f 442/730/361 407/674/326 389/629/308 427/710/346 
f 458/750/377 426/709/345 390/633/309 428/711/347 
f 459/751/378 427/710/346 426/709/345 458/750/377 
f 460/752/379 428/711/347 392/712/311 430/753/349 
f 461/754/380 429/713/348 394/641/313 432/716/351 
f 462/755/381 430/756/349 429/757/348 461/758/380 
f 463/759/382 431/715/350 396/643/315 434/719/353 
f 464/760/383 432/716/351 431/715/350 463/759/382 
f 465/761/384 433/762/352 398/723/317 436/722/355 
f 466/763/385 434/764/353 433/762/352 465/761/384 
f 467/765/386 435/720/354 406/671/325 441/729/360 
f 468/766/387 436/722/355 435/720/354 467/765/386 
f 469/767/388 437/724/356 438/725/357 470/768/389 
f 438/725/357 400/650/319 439/727/358 471/769/390 
f 439/727/358 403/726/322 440/770/359 472/771/391 
f 473/772/392 441/729/360 437/724/356 469/767/388 
f 444/732/363 409/676/328 442/730/361 474/773/393 
f 475/774/394 443/731/362 444/732/363 476/775/395 
f 446/734/365 411/678/330 443/731/362 475/774/394 
f 477/776/396 445/733/364 446/734/365 478/777/397 
f 447/778/366 412/779/331 445/780/364 477/781/396 
f 449/782/368 414/783/333 447/778/366 479/784/398 
f 480/785/399 448/786/367 449/787/368 481/788/400 
f 451/742/370 416/741/335 448/786/367 480/785/399 
f 482/789/401 450/739/369 451/742/370 483/790/402 
f 453/744/372 418/690/337 450/739/369 482/789/401 
f 484/791/403 452/743/371 453/744/372 485/792/404 
f 455/746/374 420/692/339 452/743/371 484/791/403 
f 486/793/405 454/745/373 455/746/374 487/794/406 
f 488/795/407 456/747/375 419/691/338 454/745/373 
f 489/796/408 457/748/376 421/693/340 456/747/375 
f 472/771/391 440/770/359 422/749/341 457/748/376 
f 474/773/393 442/730/361 427/710/346 459/751/378 
f 490/797/409 458/750/377 428/711/347 460/752/379 
f 491/798/410 459/751/378 458/750/377 490/797/409 
f 492/799/411 460/752/379 430/753/349 462/800/381 
f 493/801/412 461/758/380 432/802/351 464/803/383 
f 494/804/413 462/755/381 461/758/380 493/801/412 
f 495/805/414 463/806/382 434/764/353 466/763/385 
f 496/807/415 464/808/383 463/806/382 495/805/414 
f 497/809/416 465/761/384 436/722/355 468/766/387 
f 498/810/417 466/763/385 465/761/384 497/809/416 
f 499/811/418 467/765/386 441/729/360 473/772/392 
f 500/812/419 468/766/387 467/765/386 499/811/418 
f 501/813/420 469/767/388 470/768/389 502/814/421 
f 470/768/389 438/725/357 471/769/390 503/815/422 
f 471/769/390 439/727/358 472/771/391 504/816/423 
f 505/817/424 473/772/392 469/767/388 501/813/420 506/818/425 
f 476/775/395 444/732/363 474/773/393 507/819/426 
f 508/820/427 475/774/394 476/775/395 509/821/428 
f 478/777/397 446/734/365 475/774/394 508/820/427 
f 510/822/429 477/781/396 478/823/397 511/824/430 
f 479/784/398 447/778/366 477/781/396 510/822/429 
f 481/788/400 449/787/368 479/825/398 512/826/431 
f 513/827/432 480/785/399 481/788/400 514/828/433 
f 483/790/402 451/742/370 480/785/399 513/827/432 
f 515/829/434 482/789/401 483/790/402 516/830/435 
f 485/792/404 453/744/372 482/789/401 515/829/434 
f 517/831/436 484/791/403 485/792/404 518/832/437 
f 487/794/406 455/746/374 484/791/403 517/831/436 519/833/438 
s 64
f 520/834/439 521/835/440 506/836/425 501/837/420 502/838/421 522/839/441 523/840/442 524/841/443 525/842/444 486/843/405 487/844/406 519/845/438 
s 2
f 525/846/444 488/795/407 454/745/373 486/793/405 
f 526/847/445 489/796/408 456/747/375 488/795/407 
f 504/816/423 472/771/391 457/748/376 489/796/408 
f 507/819/426 474/773/393 459/751/378 491/798/410 
f 527/848/446 490/797/409 460/752/379 492/799/411 
f 528/849/447 491/798/410 490/797/409 527/848/446 
f 529/850/448 492/851/411 462/755/381 494/804/413 
f 530/852/449 493/853/412 464/808/383 496/807/415 
f 531/854/450 494/855/413 493/853/412 530/852/449 
f 532/856/451 495/805/414 466/763/385 498/810/417 
f 533/857/452 496/807/415 495/805/414 532/856/451 
f 534/858/453 497/809/416 468/766/387 500/812/419 
f 535/859/454 498/810/417 497/809/416 534/858/453 
f 536/860/455 499/811/418 473/772/392 505/817/424 
f 537/861/456 500/812/419 499/811/418 536/860/455 
f 502/814/421 470/768/389 503/815/422 522/862/441 
f 503/815/422 471/769/390 504/816/423 538/863/457 
s 256
f 521/864/440 539/865/458 540/866/459 541/867/460 542/868/461 543/869/462 544/870/463 545/871/464 546/872/465 547/873/466 548/874/467 537/875/456 536/876/455 505/877/424 506/878/425 
s 2
f 509/821/428 476/775/395 507/819/426 549/879/468 
f 550/880/469 508/820/427 509/821/428 551/881/470 
f 511/824/430 478/823/397 508/882/427 550/883/469 
f 552/884/471 510/885/429 511/886/430 553/887/472 
f 512/826/431 479/825/398 510/885/429 552/884/471 
f 514/828/433 481/788/400 512/826/431 554/888/473 
f 555/889/474 513/827/432 514/828/433 556/890/475 
f 516/830/435 483/790/402 513/827/432 555/889/474 
f 557/891/476 515/829/434 516/830/435 558/892/477 
f 518/832/437 485/792/404 515/829/434 557/891/476 
s 32
f 559/893/478 520/894/439 519/895/438 517/896/436 518/897/437 557/898/476 558/899/477 560/900/479 561/901/480 562/902/481 563/903/482 564/904/483 
s 128
f 521/905/440 520/906/439 559/907/478 539/908/458 
s 2
f 522/862/441 503/815/422 538/863/457 523/909/442 
f 523/909/442 538/863/457 526/847/445 524/910/443 
f 524/910/443 526/847/445 488/795/407 525/846/444 
f 538/863/457 504/816/423 489/796/408 526/847/445 
f 549/879/468 507/819/426 491/798/410 528/849/447 
f 565/911/484 527/912/446 492/851/411 529/850/448 
f 566/913/485 528/849/447 527/848/446 565/914/484 
f 567/915/486 529/916/448 494/855/413 531/854/450 
f 568/917/487 530/852/449 496/807/415 533/857/452 
f 569/918/488 531/854/450 530/852/449 568/917/487 
f 570/919/489 532/856/451 498/810/417 535/859/454 
f 571/920/490 533/857/452 532/856/451 570/919/489 
f 548/921/467 572/922/491 534/858/453 500/812/419 537/861/456 
f 573/923/492 535/859/454 534/858/453 572/922/491 
s 16
f 539/924/458 559/925/478 564/926/483 574/927/493 575/928/494 576/929/495 577/930/496 578/931/497 579/932/498 580/933/499 540/934/459 
s 2
f 580/935/499 581/936/500 582/937/501 541/938/460 540/939/459 
f 541/938/460 582/937/501 583/940/502 542/941/461 
f 542/941/461 583/940/502 571/920/490 543/942/462 
f 543/942/462 571/920/490 570/919/489 584/943/503 544/944/463 
f 544/944/463 584/943/503 545/945/464 
f 545/945/464 584/943/503 573/923/492 546/946/465 
f 546/946/465 573/923/492 572/922/491 547/947/466 
f 547/947/466 572/922/491 548/921/467 
f 551/881/470 509/821/428 549/879/468 585/948/504 
f 586/949/505 550/950/469 551/951/470 587/952/506 
f 553/887/472 511/886/430 550/950/469 586/949/505 
f 588/953/507 552/884/471 553/887/472 589/954/508 
f 554/888/473 512/826/431 552/884/471 588/953/507 
f 556/890/475 514/828/433 554/888/473 590/955/509 
f 560/956/479 555/889/474 556/890/475 561/957/480 
f 558/892/477 516/830/435 555/889/474 560/956/479 
f 561/957/480 556/890/475 590/955/509 562/958/481 
f 562/958/481 590/955/509 591/959/510 563/960/482 
f 563/960/482 591/959/510 592/961/511 574/962/493 564/963/483 
f 585/948/504 549/879/468 528/849/447 566/913/485 
f 593/964/512 565/965/484 529/916/448 567/915/486 
f 594/966/513 566/967/485 565/965/484 593/964/512 
f 595/968/514 567/915/486 531/854/450 569/918/488 
f 583/940/502 568/917/487 533/857/452 571/920/490 
f 582/937/501 569/918/488 568/917/487 583/940/502 
f 584/943/503 570/919/489 535/859/454 573/923/492 
f 574/962/493 592/961/511 596/969/515 575/970/494 
f 575/970/494 596/969/515 597/971/516 576/972/495 
f 576/972/495 597/971/516 598/973/517 577/974/496 
f 577/974/496 598/973/517 599/975/518 578/976/497 
f 578/976/497 599/975/518 600/977/519 579/978/498 
f 579/978/498 600/977/519 581/936/500 580/935/499 
f 581/936/500 595/968/514 569/918/488 582/937/501 
f 587/952/506 551/951/470 585/979/504 601/980/520 
f 602/981/521 586/949/505 587/952/506 603/982/522 
f 589/954/508 553/887/472 586/949/505 602/981/521 
f 591/959/510 588/953/507 589/954/508 592/961/511 
f 590/955/509 554/888/473 588/953/507 591/959/510 
f 601/980/520 585/979/504 566/967/485 594/966/513 
f 604/983/523 593/964/512 567/915/486 595/968/514 
f 605/984/524 594/966/513 593/964/512 604/983/523 
f 592/961/511 589/954/508 602/981/521 596/969/515 
f 596/969/515 602/981/521 603/982/522 597/971/516 
f 597/971/516 603/982/522 606/985/525 598/973/517 
f 598/973/517 606/985/525 605/984/524 599/975/518 
f 599/975/518 605/984/524 604/983/523 600/977/519 
f 600/977/519 604/983/523 595/968/514 581/936/500 
f 603/982/522 587/952/506 601/980/520 606/985/525 
f 606/985/525 601/980/520 594/966/513 605/984/524 
s 8388608
f 122/986/71 607/987/526 608/988/527 135/989/81 123/990/72 120/991/69 
f 607/987/526 122/986/71 121/992/70 150/993/93 174/994/111 177/995/114 609/996/528 
s 67108864
f 608/997/527 607/998/526 610/999/529 611/1000/530 
s 8388608
f 135/989/81 608/988/527 612/1001/531 189/1002/123 162/1003/103 136/1004/82 134/1005/80 
s 67108864
f 610/999/529 607/998/526 609/1006/528 613/1007/532 
s 134217728
f 609/1008/528 177/1009/114 176/1010/113 205/1011/136 613/1012/532 
s 67108864
f 608/997/527 611/1000/530 614/1013/533 612/1014/531 
s 16777216
f 359/1015/282 611/1016/530 610/1017/529 336/1018/260 335/1019/259 360/1020/283 
s 33554432
f 189/1021/123 612/1022/531 614/1023/533 219/1024/149 190/1025/124 
s 16777216
f 336/1018/260 610/1017/529 613/1026/532 281/1027/209 280/1028/208 
f 281/1029/209 613/1030/532 205/1031/136 204/1032/135 239/1033/168 
f 611/1016/530 359/1015/282 303/1034/230 255/1035/184 220/1036/150 219/1037/149 614/1038/533 
# 510 polygons - 33 triangles

