# 3ds Max Wavefront OBJ Exporter v0.99 - (c)2007 guruware
# File Created: 31.08.2025 14:57:18

mtllib Candy Bat.mtl

#
# object Candy_Bat
#

v  46.5114 155.7449 8.7087
v  46.5114 148.5692 7.5419
v  50.0992 149.5305 7.5419
v  52.7257 152.1570 7.5419
v  53.3419 154.4566 7.5419
v  53.3099 157.1528 7.5419
v  52.8777 158.8147 7.5419
v  49.2637 158.4973 9.8513
v  52.4490 159.6033 9.2990
v  51.2058 160.8465 9.2990
v  50.0992 161.9593 7.5419
v  46.5114 162.9207 7.5419
v  46.5114 143.3162 4.3543
v  52.7257 144.9813 4.3543
v  57.2750 149.5305 4.3543
v  58.2987 153.3510 4.3543
v  58.3176 158.0683 4.3543
v  57.2750 161.9593 4.3543
v  54.3586 161.4388 7.7902
v  52.2052 163.5922 7.7902
v  52.7257 166.5085 4.3543
v  46.5114 168.1737 4.3543
v  46.5114 141.3934 -0.0000
v  53.6871 143.3161 -0.0000
v  58.9401 148.5692 -0.0000
v  58.9401 162.9207 -0.0000
v  53.6871 168.1737 0.0000
v  46.5114 170.0964 0.0000
v  46.5114 143.3162 -4.3543
v  52.7257 144.9813 -4.3543
v  57.2750 149.5305 -4.3543
v  57.2750 161.9593 -4.3543
v  52.7257 166.5085 -4.3543
v  46.5114 168.1737 -4.3543
v  46.5114 148.5692 -7.5419
v  50.0992 149.5305 -7.5419
v  52.7257 152.1570 -7.5419
v  53.3610 154.5279 -7.5419
v  58.2232 153.0692 -4.3543
v  53.3440 157.0252 -7.5419
v  52.7257 159.3328 -7.5419
v  58.1825 158.5722 -4.3543
v  50.0992 161.9593 -7.5419
v  46.5114 162.9207 -7.5419
v  46.5114 155.7449 -8.7087
v  58.7086 151.3861 3.0542
v  59.1686 153.1030 3.0542
v  59.8765 150.7118 -0.0000
v  58.7086 151.3861 -3.0542
v  59.0422 152.6311 -3.0542
v  58.7086 160.1037 -3.0542
v  58.9938 159.0392 -3.0542
v  59.2199 158.1954 3.0542
v  58.7086 160.1037 3.0542
v  68.4004 147.4743 3.0542
v  66.0306 152.3531 3.0542
v  66.0158 152.2976 -3.0542
v  69.6540 145.6684 -3.0542
v  68.4005 166.1848 -3.0542
v  65.9502 161.6064 -3.0542
v  65.9767 161.5073 3.0542
v  68.4005 166.1848 3.0542
v  53.6871 155.7449 7.5419
v  58.9401 155.7449 4.3543
v  59.8765 155.7449 3.0542
v  70.9072 156.8296 3.0542
v  79.6128 159.5636 -3.0542
v  86.3804 145.1753 -3.0542
v  70.9072 156.8296 -3.0542
v  59.8765 155.7449 -3.0542
v  58.9401 155.7449 -4.3543
v  53.6871 155.7449 -7.5419
v  74.1643 148.2353 3.0542
v  86.3804 145.1753 3.0542
v  75.3754 138.7368 3.0542
v  74.4076 148.5190 -3.0542
v  75.3754 138.7368 -3.0542
v  90.3354 162.1707 -3.0542
v  79.7360 160.2204 3.0542
v  90.3354 162.1707 3.0542
v  52.4490 159.6033 7.1501
v  49.2637 158.4973 7.7023
v  54.3586 161.4388 5.6412
v  52.2052 163.5922 5.6412
v  51.2058 160.8465 7.1501
v  77.8827 135.0719 -0.0000
v  77.5213 145.5611 -0.0000
v  83.8841 159.0695 -0.0000
v  94.7629 162.5096 -0.0000
v  59.7600 162.3975 -0.0000
v  70.9072 146.0270 -0.0000
v  67.9212 167.8517 -0.0000
v  90.3842 143.2551 -0.0000
v  42.9235 149.5305 7.5419
v  40.2970 152.1570 7.5419
v  39.6808 154.4566 7.5419
v  40.1450 158.8147 7.5419
v  39.7128 157.1528 7.5419
v  43.7590 158.4973 9.8513
v  41.8170 160.8465 9.2990
v  40.5737 159.6033 9.2990
v  42.9235 161.9593 7.5419
v  40.2970 144.9813 4.3543
v  35.7477 149.5305 4.3543
v  34.7240 153.3510 4.3543
v  34.7051 158.0683 4.3543
v  35.7477 161.9593 4.3543
v  40.8175 163.5922 7.7902
v  38.6641 161.4388 7.7902
v  40.2970 166.5085 4.3543
v  39.3356 143.3161 -0.0000
v  34.0826 148.5692 -0.0000
v  39.3356 168.1737 0.0000
v  34.0826 162.9207 -0.0000
v  40.2970 144.9813 -4.3543
v  35.7477 149.5305 -4.3543
v  40.2970 166.5085 -4.3543
v  35.7477 161.9593 -4.3543
v  42.9235 149.5305 -7.5419
v  40.2970 152.1570 -7.5419
v  34.7995 153.0692 -4.3543
v  39.6617 154.5279 -7.5419
v  39.6787 157.0252 -7.5419
v  34.8402 158.5722 -4.3543
v  40.2970 159.3328 -7.5419
v  42.9235 161.9593 -7.5419
v  33.8541 153.1030 3.0542
v  34.3141 151.3861 3.0542
v  33.1462 150.7118 -0.0000
v  34.3141 151.3861 -3.0542
v  33.9805 152.6311 -3.0542
v  34.0289 159.0392 -3.0542
v  34.3141 160.1037 -3.0542
v  34.3141 160.1037 3.0542
v  33.8028 158.1954 3.0542
v  26.9921 152.3531 3.0542
v  24.6223 147.4743 3.0542
v  23.3687 145.6684 -3.0542
v  27.0069 152.2976 -3.0542
v  27.0725 161.6064 -3.0542
v  24.6222 166.1848 -3.0542
v  24.6222 166.1848 3.0542
v  27.0460 161.5073 3.0542
v  39.3356 155.7449 7.5419
v  34.0826 155.7449 4.3543
v  33.1462 155.7449 3.0542
v  22.1155 156.8296 3.0542
v  13.4099 159.5636 -3.0542
v  22.1155 156.8296 -3.0542
v  6.6423 145.1753 -3.0542
v  34.0826 155.7449 -4.3543
v  33.1462 155.7449 -3.0542
v  39.3356 155.7449 -7.5419
v  18.8584 148.2353 3.0542
v  6.6423 145.1753 3.0542
v  17.6473 138.7368 3.0542
v  17.6473 138.7368 -3.0542
v  18.6151 148.5190 -3.0542
v  2.6873 162.1707 -3.0542
v  2.6873 162.1707 3.0542
v  13.2867 160.2204 3.0542
v  43.7590 158.4973 7.7023
v  40.5737 159.6033 7.1501
v  38.6641 161.4388 5.6412
v  40.8175 163.5922 5.6412
v  41.8170 160.8465 7.1501
v  15.5014 145.5611 -0.0000
v  15.1400 135.0719 -0.0000
v  9.1386 159.0695 -0.0000
v  -1.7402 162.5096 -0.0000
v  33.2627 162.3975 -0.0000
v  22.1155 146.0270 -0.0000
v  25.1015 167.8517 -0.0000
v  2.6385 143.2551 -0.0000
# 174 vertices

vn -0.0000 0.0177 0.9998
vn 0.0000 -0.5309 0.8474
vn 0.2654 -0.4598 0.8474
vn 0.4598 -0.2655 0.8474
vn 0.4938 -0.1323 0.8594
vn 0.4938 0.1303 0.8597
vn 0.3386 0.4043 0.8496
vn -0.6065 -0.4193 0.6756
vn 0.6393 -0.3907 0.6623
vn -0.2554 0.6711 0.6960
vn 0.3900 0.3656 0.8452
vn 0.0000 0.5309 0.8474
vn 0.0000 -0.8760 0.4823
vn 0.4380 -0.7586 0.4823
vn 0.7394 -0.4521 0.4989
vn 0.8060 -0.2160 0.5512
vn 0.8060 0.2160 0.5512
vn 0.7266 0.4570 0.5130
vn 0.9493 0.0513 0.3100
vn -0.1588 0.9278 0.3376
vn 0.4432 0.7472 0.4952
vn -0.0000 0.8760 0.4823
vn -0.0000 -1.0000 -0.0000
vn 0.5000 -0.8660 -0.0000
vn 0.8273 -0.5618 -0.0000
vn 0.6210 0.7838 0.0000
vn 0.5000 0.8660 -0.0000
vn -0.0000 1.0000 -0.0000
vn -0.0000 -0.8760 -0.4823
vn 0.4380 -0.7586 -0.4823
vn 0.7394 -0.4521 -0.4989
vn 0.7394 0.4521 -0.4989
vn 0.4380 0.7586 -0.4823
vn 0.0000 0.8760 -0.4823
vn 0.0000 -0.5309 -0.8474
vn 0.2654 -0.4598 -0.8474
vn 0.4598 -0.2655 -0.8474
vn 0.4938 -0.1323 -0.8594
vn 0.8060 -0.2160 -0.5512
vn 0.4938 0.1323 -0.8594
vn 0.4598 0.2654 -0.8474
vn 0.8060 0.2160 -0.5512
vn 0.2655 0.4598 -0.8474
vn 0.0000 0.5309 -0.8474
vn 0.0000 0.0000 -1.0000
vn 0.6537 -0.4807 0.5845
vn 0.5339 -0.1431 0.8333
vn 0.2912 -0.9566 0.0000
vn 0.6402 -0.4762 -0.6028
vn 0.5339 -0.1431 -0.8333
vn 0.6032 0.3971 -0.6917
vn 0.5339 0.1431 -0.8333
vn 0.5339 0.1431 0.8333
vn 0.6032 0.3971 0.6917
vn -0.3414 -0.5496 0.7625
vn -0.0000 -0.0000 1.0000
vn -0.4491 -0.5761 -0.6829
vn -0.1192 0.6474 -0.7527
vn -0.1192 0.6474 0.7527
vn 0.5309 -0.0000 0.8474
vn 0.8353 -0.0000 0.5497
vn 0.4773 -0.0000 0.8787
vn 0.1834 -0.0720 -0.9804
vn 0.3744 -0.4894 -0.7876
vn 0.4773 -0.0000 -0.8787
vn 0.8353 -0.0000 -0.5497
vn 0.5309 -0.0000 -0.8474
vn 0.1178 -0.1226 0.9854
vn 0.3766 -0.4839 0.7900
vn 0.1235 -0.6057 0.7861
vn 0.1124 -0.1271 -0.9855
vn 0.1186 -0.6063 -0.7863
vn 0.6014 -0.0139 -0.7989
vn 0.1719 -0.0807 0.9818
vn 0.6025 -0.0502 0.7965
vn 0.6834 -0.1189 0.7203
vn 0.3604 -0.1098 0.9263
vn 0.6409 0.4909 0.5901
vn 0.5387 0.5895 0.6019
vn -0.3985 0.5993 0.6943
vn 0.3685 -0.9296 -0.0000
vn 0.5875 -0.8091 -0.0117
vn 0.8423 -0.5381 0.0320
vn 0.9982 0.0604 -0.0000
vn -0.0949 0.9955 -0.0000
vn -0.6903 -0.7229 0.0297
vn -0.2009 0.9796 0.0000
vn 0.8120 -0.5837 -0.0000
vn -0.2654 -0.4598 0.8474
vn -0.4598 -0.2655 0.8474
vn -0.4938 -0.1323 0.8594
vn -0.3386 0.4043 0.8496
vn -0.4938 0.1303 0.8597
vn 0.6065 -0.4193 0.6756
vn 0.2554 0.6711 0.6960
vn -0.6393 -0.3907 0.6623
vn -0.3900 0.3656 0.8452
vn -0.4380 -0.7586 0.4823
vn -0.7394 -0.4521 0.4989
vn -0.8060 -0.2160 0.5512
vn -0.8060 0.2160 0.5512
vn -0.7266 0.4570 0.5130
vn 0.1588 0.9278 0.3376
vn -0.9493 0.0513 0.3100
vn -0.4432 0.7472 0.4952
vn -0.5000 -0.8660 -0.0000
vn -0.8273 -0.5618 -0.0000
vn -0.5000 0.8660 -0.0000
vn -0.6210 0.7838 0.0000
vn -0.4380 -0.7586 -0.4823
vn -0.7394 -0.4521 -0.4989
vn -0.4380 0.7586 -0.4823
vn -0.7394 0.4521 -0.4989
vn -0.2654 -0.4598 -0.8474
vn -0.4598 -0.2655 -0.8474
vn -0.8060 -0.2160 -0.5512
vn -0.4938 -0.1323 -0.8594
vn -0.4938 0.1323 -0.8594
vn -0.8060 0.2160 -0.5512
vn -0.4598 0.2654 -0.8474
vn -0.2655 0.4598 -0.8474
vn -0.5339 -0.1431 0.8333
vn -0.6537 -0.4807 0.5845
vn -0.2912 -0.9566 0.0000
vn -0.6402 -0.4762 -0.6028
vn -0.5339 -0.1431 -0.8333
vn -0.5339 0.1431 -0.8333
vn -0.6032 0.3971 -0.6917
vn -0.6032 0.3971 0.6917
vn -0.5339 0.1431 0.8333
vn 0.0000 -0.0000 1.0000
vn 0.3414 -0.5496 0.7625
vn 0.4491 -0.5761 -0.6829
vn -0.0000 0.0000 -1.0000
vn 0.1192 0.6474 -0.7527
vn 0.1192 0.6474 0.7527
vn -0.5309 -0.0000 0.8474
vn -0.8353 -0.0000 0.5497
vn -0.4773 -0.0000 0.8787
vn -0.1834 -0.0720 -0.9804
vn -0.3744 -0.4894 -0.7876
vn -0.8353 -0.0000 -0.5497
vn -0.4773 -0.0000 -0.8787
vn -0.5309 -0.0000 -0.8474
vn -0.1178 -0.1226 0.9854
vn -0.3766 -0.4839 0.7900
vn -0.1235 -0.6057 0.7861
vn -0.1186 -0.6063 -0.7863
vn -0.1124 -0.1271 -0.9855
vn -0.6014 -0.0139 -0.7989
vn -0.6025 -0.0502 0.7965
vn -0.1719 -0.0807 0.9818
vn -0.3604 -0.1098 0.9263
vn -0.6834 -0.1189 0.7203
vn -0.6409 0.4909 0.5901
vn -0.5387 0.5895 0.6019
vn 0.3985 0.5993 0.6943
vn -0.5875 -0.8091 -0.0117
vn -0.3685 -0.9296 -0.0000
vn -0.8423 -0.5381 0.0320
vn -0.9982 0.0604 -0.0000
vn 0.0949 0.9955 -0.0000
vn 0.6903 -0.7229 0.0297
vn 0.2009 0.9796 0.0000
vn -0.8120 -0.5837 -0.0000
# 165 vertex normals

vt 0.4550 0.5706 0.0000
vt 0.4012 0.5186 0.0000
vt 0.4344 0.4986 0.0000
vt 0.4732 0.4979 0.0000
vt 0.4949 0.5100 0.0000
vt 0.5149 0.5298 0.0000
vt 0.5242 0.5451 0.0000
vt 0.0055 0.9100 0.0000
vt 0.0285 0.9366 0.0000
vt 0.0108 0.9413 0.0000
vt 0.5277 0.5887 0.0000
vt 0.5089 0.6226 0.0000
vt 0.3964 0.8513 0.0000
vt 0.4106 0.9275 0.0000
vt 0.3435 0.9275 0.0000
vt 0.3576 0.8513 0.0000
vt 0.2853 0.9042 0.0000
vt 0.3241 0.8378 0.0000
vt 0.2647 0.8793 0.0000
vt 0.3116 0.8229 0.0000
vt 0.6334 0.2664 0.0000
vt 0.6260 0.3078 0.0000
vt 0.5545 0.2749 0.0000
vt 0.5576 0.2573 0.0000
vt 0.0362 0.9631 0.0000
vt 0.0055 0.9714 0.0000
vt 0.5343 0.3111 0.0000
vt 0.5929 0.3609 0.0000
vt 0.5473 0.3868 0.0000
vt 0.5080 0.3261 0.0000
vt 0.4158 0.9948 0.0000
vt 0.3383 0.9948 0.0000
vt 0.2711 0.9679 0.0000
vt 0.6914 0.3246 0.0000
vt 0.6532 0.3860 0.0000
vt 0.5130 0.8336 0.0000
vt 0.5030 0.7587 0.0000
vt 0.5779 0.7587 0.0000
vt 0.5779 0.8336 0.0000
vt 0.5500 0.9932 0.0000
vt 0.5552 0.9158 0.0000
vt 0.6223 0.9158 0.0000
vt 0.6275 0.9932 0.0000
vt 0.6805 0.9074 0.0000
vt 0.6947 0.9835 0.0000
vt 0.4253 0.4958 0.0000
vt 0.4305 0.4184 0.0000
vt 0.4976 0.4184 0.0000
vt 0.5028 0.4958 0.0000
vt 0.5130 0.6838 0.0000
vt 0.5779 0.6838 0.0000
vt 0.5694 0.8495 0.0000
vt 0.6082 0.8495 0.0000
vt 0.6417 0.8446 0.0000
vt 0.6903 0.7606 0.0000
vt 0.7665 0.7748 0.0000
vt 0.7665 0.8004 0.0000
vt 0.6903 0.7989 0.0000
vt 0.4231 0.3489 0.0000
vt 0.4447 0.3521 0.0000
vt 0.3988 0.4138 0.0000
vt 0.4834 0.3521 0.0000
vt 0.5170 0.3472 0.0000
vt 0.5558 0.4100 0.0000
vt 0.2993 0.5807 0.0000
vt 0.3713 0.5600 0.0000
vt 0.3719 0.5988 0.0000
vt 0.3513 0.5268 0.0000
vt 0.3289 0.5144 0.0000
vt 0.2786 0.5087 0.0000
vt 0.3036 0.5082 0.0000
vt 0.2454 0.5286 0.0000
vt 0.2266 0.5625 0.0000
vt 0.7086 0.8788 0.0000
vt 0.6688 0.8788 0.0000
vt 0.6881 0.8565 0.0000
vt 0.7060 0.8565 0.0000
vt 0.6587 0.8040 0.0000
vt 0.6811 0.8040 0.0000
vt 0.6688 0.7291 0.0000
vt 0.6881 0.7514 0.0000
vt 0.7057 0.7291 0.0000
vt 0.7011 0.7514 0.0000
vt 0.7631 0.7291 0.0000
vt 0.7985 0.7291 0.0000
vt 0.7791 0.7514 0.0000
vt 0.7680 0.7514 0.0000
vt 0.7985 0.8788 0.0000
vt 0.7579 0.8788 0.0000
vt 0.7592 0.8565 0.0000
vt 0.7791 0.8565 0.0000
vt 0.2712 0.1360 0.0000
vt 0.2898 0.1350 0.0000
vt 0.3087 0.2424 0.0000
vt 0.2640 0.2076 0.0000
vt 0.1600 0.9938 0.0000
vt 0.1470 0.9903 0.0000
vt 0.1505 0.9176 0.0000
vt 0.2196 0.8796 0.0000
vt 0.0801 0.9908 0.0000
vt 0.0690 0.9938 0.0000
vt 0.0055 0.8927 0.0000
vt 0.0533 0.9182 0.0000
vt 0.2008 0.1161 0.0000
vt 0.2191 0.1254 0.0000
vt 0.1707 0.1872 0.0000
vt 0.1177 0.2018 0.0000
vt 0.5071 0.5167 0.0000
vt 0.5602 0.2423 0.0000
vt 0.6378 0.2417 0.0000
vt 0.7336 0.8788 0.0000
vt 0.7336 0.8565 0.0000
vt 0.2427 0.1374 0.0000
vt 0.2077 0.2477 0.0000
vt 0.0746 0.7757 0.0000
vt 0.2248 0.7050 0.0000
vt 0.1032 0.8665 0.0000
vt 0.7336 0.7514 0.0000
vt 0.7336 0.7291 0.0000
vt 0.3723 0.4100 0.0000
vt 0.4111 0.3472 0.0000
vt 0.3174 0.5080 0.0000
vt 0.7665 0.8136 0.0000
vt 0.6903 0.8278 0.0000
vt 0.1145 0.9816 0.0000
vt 0.2884 0.2996 0.0000
vt 0.2931 0.4309 0.0000
vt 0.2517 0.8638 0.0000
vt 0.3047 0.8145 0.0000
vt 0.3827 0.3326 0.0000
vt 0.1899 0.8300 0.0000
vt 0.2920 0.8199 0.0000
vt 0.0474 0.6637 0.0000
vt 0.1540 0.3305 0.0000
vt 0.1110 0.4344 0.0000
vt 0.5270 0.5540 0.0000
vt 0.4957 0.5699 0.0000
vt 0.5888 0.3038 0.0000
vt 0.5562 0.2845 0.0000
vt 0.5731 0.3290 0.0000
vt 0.5472 0.2990 0.0000
vt 0.5274 0.5723 0.0000
vt 0.6201 0.5080 0.0000
vt 0.6584 0.5605 0.0000
vt 0.5489 0.5605 0.0000
vt 0.5210 0.5080 0.0000
vt 0.3354 0.7555 0.0000
vt 0.2166 0.7536 0.0000
vt 0.2622 0.7009 0.0000
vt 0.3745 0.6989 0.0000
vt 0.6201 0.6130 0.0000
vt 0.5180 0.6130 0.0000
vt 0.2622 0.8019 0.0000
vt 0.3774 0.8017 0.0000
vt 0.8085 0.8040 0.0000
vt 0.8030 0.8040 0.0000
vt 0.7666 0.3009 0.0000
vt 0.7667 0.4259 0.0000
vt 0.7140 0.3960 0.0000
vt 0.7141 0.2869 0.0000
vt 0.8190 0.2869 0.0000
vt 0.8196 0.4153 0.0000
vt 0.0165 0.0530 0.0000
vt 0.1017 0.0530 0.0000
vt 0.1067 0.1056 0.0000
vt 0.0055 0.1056 0.0000
vt 0.0055 0.0005 0.0000
vt 0.1067 0.0005 0.0000
vt 0.5645 0.0504 0.0000
vt 0.6252 0.0156 0.0000
vt 0.6264 0.1940 0.0000
vt 0.5633 0.2220 0.0000
vt 0.0005 0.6412 0.0000
vt 0.0028 0.4628 0.0000
vt 0.0633 0.4979 0.0000
vt 0.0657 0.6638 0.0000
vt 0.7307 0.9949 0.0000
vt 0.6889 0.9424 0.0000
vt 0.8231 0.9424 0.0000
vt 0.8556 0.9949 0.0000
vt 0.7307 0.8899 0.0000
vt 0.8582 0.8899 0.0000
vt 0.7816 0.5532 0.0000
vt 0.7816 0.6676 0.0000
vt 0.7291 0.6293 0.0000
vt 0.7291 0.5381 0.0000
vt 0.8341 0.6293 0.0000
vt 0.8341 0.5570 0.0000
vt 0.3818 0.0530 0.0000
vt 0.3356 0.1056 0.0000
vt 0.3356 0.0005 0.0000
vt 0.8914 0.8266 0.0000
vt 0.9021 0.7938 0.0000
vt 0.9327 0.8144 0.0000
vt 0.9220 0.8473 0.0000
vt 0.8917 0.7627 0.0000
vt 0.9223 0.7834 0.0000
vt 0.7039 0.0457 0.0000
vt 0.7357 0.0457 0.0000
vt 0.7357 0.0827 0.0000
vt 0.7039 0.0827 0.0000
vt 0.2604 0.9859 0.0000
vt 0.2218 0.9885 0.0000
vt 0.1952 0.9628 0.0000
vt 0.2338 0.9602 0.0000
vt 0.1979 0.9995 0.0000
vt 0.1713 0.9738 0.0000
vt 0.3824 0.5525 0.0000
vt 0.3830 0.5912 0.0000
vt 0.3958 0.6125 0.0000
vt 0.4319 0.6407 0.0000
vt 0.4163 0.6318 0.0000
vt 0.0214 0.7307 0.0000
vt 0.0184 0.6977 0.0000
vt 0.0368 0.6977 0.0000
vt 0.4757 0.6426 0.0000
vt 0.4300 0.8378 0.0000
vt 0.4687 0.9042 0.0000
vt 0.4494 0.8145 0.0000
vt 0.5023 0.8638 0.0000
vt 0.2494 0.5042 0.0000
vt 0.2355 0.5248 0.0000
vt 0.1710 0.4841 0.0000
vt 0.1941 0.4499 0.0000
vt 0.1516 0.5284 0.0000
vt 0.2247 0.5503 0.0000
vt 0.2211 0.5666 0.0000
vt 0.1434 0.5668 0.0000
vt 0.0055 0.6637 0.0000
vt 0.0373 0.6637 0.0000
vt 0.9162 0.3900 0.0000
vt 0.8892 0.4178 0.0000
vt 0.8245 0.3751 0.0000
vt 0.8712 0.3268 0.0000
vt 0.4829 0.9679 0.0000
vt 0.2460 0.4147 0.0000
vt 0.1412 0.4079 0.0000
vt 0.2011 0.3673 0.0000
vt 0.9284 0.3012 0.0000
vt 0.8264 0.2763 0.0000
vt 0.8924 0.2467 0.0000
vt 0.6427 0.8336 0.0000
vt 0.6527 0.7587 0.0000
vt 0.4829 0.9835 0.0000
vt 0.4971 0.9074 0.0000
vt 0.5080 0.4965 0.0000
vt 0.5134 0.4192 0.0000
vt 0.5902 0.4297 0.0000
vt 0.5855 0.4967 0.0000
vt 0.2946 0.3572 0.0000
vt 0.3722 0.3572 0.0000
vt 0.3670 0.4346 0.0000
vt 0.2998 0.4346 0.0000
vt 0.6427 0.6838 0.0000
vt 0.5358 0.8446 0.0000
vt 0.6554 0.4485 0.0000
vt 0.6527 0.4872 0.0000
vt 0.5973 0.3970 0.0000
vt 0.6601 0.4266 0.0000
vt 0.2924 0.5041 0.0000
vt 0.2681 0.4392 0.0000
vt 0.3140 0.5009 0.0000
vt 0.3528 0.5009 0.0000
vt 0.4251 0.4430 0.0000
vt 0.3864 0.5058 0.0000
vt 0.3531 0.6327 0.0000
vt 0.3199 0.6526 0.0000
vt 0.2943 0.6531 0.0000
vt 0.2691 0.6466 0.0000
vt 0.2473 0.6345 0.0000
vt 0.2273 0.6013 0.0000
vt 0.8644 0.7291 0.0000
vt 0.8618 0.7514 0.0000
vt 0.8439 0.7514 0.0000
vt 0.8245 0.7291 0.0000
vt 0.8368 0.8040 0.0000
vt 0.8145 0.8040 0.0000
vt 0.8439 0.8565 0.0000
vt 0.8245 0.8788 0.0000
vt 0.8569 0.8565 0.0000
vt 0.8615 0.8788 0.0000
vt 0.9189 0.8788 0.0000
vt 0.9238 0.8565 0.0000
vt 0.9349 0.8565 0.0000
vt 0.9542 0.8788 0.0000
vt 0.9542 0.7291 0.0000
vt 0.9349 0.7514 0.0000
vt 0.9150 0.7514 0.0000
vt 0.9136 0.7291 0.0000
vt 0.8539 0.0103 0.0000
vt 0.8461 0.0819 0.0000
vt 0.7951 0.1067 0.0000
vt 0.8360 0.0055 0.0000
vt 0.3849 0.3150 0.0000
vt 0.3503 0.1909 0.0000
vt 0.4101 0.2424 0.0000
vt 0.3983 0.3143 0.0000
vt 0.4636 0.3287 0.0000
vt 0.5049 0.2633 0.0000
vt 0.5570 0.2482 0.0000
vt 0.4739 0.3340 0.0000
vt 0.9269 0.0055 0.0000
vt 0.9904 0.1067 0.0000
vt 0.9416 0.0814 0.0000
vt 0.9070 0.0109 0.0000
vt 0.4030 0.6245 0.0000
vt 0.1566 0.5055 0.0000
vt 0.2277 0.5364 0.0000
vt 0.8894 0.7514 0.0000
vt 0.8894 0.7291 0.0000
vt 0.8928 0.1328 0.0000
vt 0.8815 0.0177 0.0000
vt 0.5137 0.1194 0.0000
vt 0.4669 0.2023 0.0000
vt 0.3815 0.0191 0.0000
vt 0.8894 0.8788 0.0000
vt 0.8894 0.8565 0.0000
vt 0.2804 0.5058 0.0000
vt 0.2417 0.4430 0.0000
vt 0.2812 0.6533 0.0000
vt 0.6026 0.3723 0.0000
vt 0.6626 0.4154 0.0000
vt 0.4319 0.3126 0.0000
vt 0.8031 0.1668 0.0000
vt 0.7711 0.2943 0.0000
vt 0.7039 0.1795 0.0000
vt 0.2919 0.1174 0.0000
vt 0.3897 0.1486 0.0000
vt 0.5636 0.0156 0.0000
vt 0.9485 0.3356 0.0000
vt 0.9282 0.2250 0.0000
vt 0.4557 0.6112 0.0000
vt 0.4410 0.6432 0.0000
vt 0.9536 0.3754 0.0000
vt 0.9422 0.3734 0.0000
vt 0.9269 0.3387 0.0000
vt 0.8999 0.3508 0.0000
vt 0.9266 0.3804 0.0000
vt 0.4593 0.6428 0.0000
vt 0.8497 0.4995 0.0000
vt 0.8497 0.4004 0.0000
vt 0.9022 0.4283 0.0000
vt 0.9022 0.5378 0.0000
vt 0.4661 0.7453 0.0000
vt 0.5051 0.8019 0.0000
vt 0.3929 0.7999 0.0000
vt 0.3472 0.7473 0.0000
vt 0.9547 0.4995 0.0000
vt 0.9547 0.3974 0.0000
vt 0.3929 0.6989 0.0000
vt 0.5080 0.6992 0.0000
vt 0.9588 0.8040 0.0000
vt 0.9643 0.8040 0.0000
vt 0.8976 0.5420 0.0000
vt 0.9502 0.5281 0.0000
vt 0.9502 0.6372 0.0000
vt 0.8975 0.6671 0.0000
vt 0.8446 0.6565 0.0000
vt 0.8453 0.5281 0.0000
vt 0.0530 0.1220 0.0000
vt 0.1056 0.1110 0.0000
vt 0.1056 0.2122 0.0000
vt 0.0530 0.2072 0.0000
vt 0.0005 0.2122 0.0000
vt 0.0005 0.1110 0.0000
vt 0.6298 0.1872 0.0000
vt 0.6286 0.0156 0.0000
vt 0.6917 0.0436 0.0000
vt 0.6905 0.2220 0.0000
vt 0.0658 0.4804 0.0000
vt 0.1310 0.4577 0.0000
vt 0.1286 0.6236 0.0000
vt 0.0682 0.6588 0.0000
vt 0.8713 0.8899 0.0000
vt 0.9963 0.8899 0.0000
vt 0.9638 0.9424 0.0000
vt 0.8296 0.9424 0.0000
vt 0.9988 0.9949 0.0000
vt 0.8713 0.9949 0.0000
vt 0.7816 0.4326 0.0000
vt 0.8341 0.4175 0.0000
vt 0.8341 0.5087 0.0000
vt 0.7816 0.5470 0.0000
vt 0.7291 0.5087 0.0000
vt 0.7291 0.4364 0.0000
vt 0.1056 0.4411 0.0000
vt 0.0530 0.4873 0.0000
vt 0.0005 0.4411 0.0000
vt 0.2545 0.9322 0.0000
vt 0.2288 0.9588 0.0000
vt 0.2115 0.9289 0.0000
vt 0.2372 0.9023 0.0000
vt 0.2152 0.8963 0.0000
vt 0.2409 0.8698 0.0000
vt 0.7357 0.0055 0.0000
vt 0.7357 0.0425 0.0000
vt 0.7039 0.0425 0.0000
vt 0.7039 0.0055 0.0000
vt 0.8547 0.7627 0.0000
vt 0.8854 0.7834 0.0000
vt 0.8909 0.8217 0.0000
vt 0.8602 0.8010 0.0000
vt 0.8850 0.8473 0.0000
vt 0.8544 0.8266 0.0000
# 404 texture coords

o Candy_Bat
g Candy_Bat
usemtl wire_224086086
s 1
f 1/1/1 2/2/2 3/3/3 
f 1/1/1 3/3/3 4/4/4 
f 1/1/1 4/4/4 5/5/5 
f 1/1/1 6/6/6 7/7/7 
f 8/8/8 9/9/9 10/10/10 
f 1/1/1 11/11/11 12/12/12 
f 2/13/2 13/14/13 14/15/14 3/16/3 
f 3/16/3 14/15/14 15/17/15 4/18/4 
f 4/18/4 15/17/15 16/19/16 5/20/5 
f 17/21/17 18/22/18 7/23/7 6/24/6 
f 9/9/9 19/25/19 20/26/20 10/10/10 
f 11/27/11 21/28/21 22/29/22 12/30/12 
f 13/14/13 23/31/23 24/32/24 14/15/14 
f 14/15/14 24/32/24 25/33/25 15/17/15 
f 18/22/18 26/34/26 27/35/27 21/28/21 
f 21/36/21 27/37/27 28/38/28 22/39/22 
f 23/40/23 29/41/29 30/42/30 24/43/24 
f 24/43/24 30/42/30 31/44/31 25/45/25 
f 26/46/26 32/47/32 33/48/33 27/49/27 
f 27/37/27 33/50/33 34/51/34 28/38/28 
f 29/41/29 35/52/35 36/53/36 30/42/30 
f 30/42/30 36/53/36 37/54/37 31/44/31 
f 31/55/31 37/56/37 38/57/38 39/58/39 
f 40/59/40 41/60/41 32/47/32 42/61/42 
f 32/47/32 41/60/41 43/62/43 33/48/33 
f 33/48/33 43/62/43 44/63/44 34/64/34 
f 45/65/45 36/66/36 35/67/35 
f 45/65/45 37/68/37 36/66/36 
f 45/65/45 38/69/38 37/68/37 
f 45/65/45 41/70/41 40/71/40 
f 45/65/45 43/72/43 41/70/41 
f 45/65/45 44/73/44 43/72/43 
s off
f 16/74/16 15/75/15 46/76/46 47/77/47 
f 15/75/15 25/78/25 48/79/48 46/76/46 
f 25/78/25 31/80/31 49/81/49 48/79/48 
f 31/80/31 39/82/39 50/83/50 49/81/49 
f 42/84/42 32/85/32 51/86/51 52/87/52 
f 18/88/18 17/89/17 53/90/53 54/91/54 
f 47/92/47 46/93/46 55/94/55 56/95/56 
f 49/96/49 50/97/50 57/98/45 58/99/57 
f 52/100/52 51/101/51 59/102/58 60/103/45 
f 54/104/54 53/105/53 61/106/56 62/107/59 
s 1
f 1/1/1 63/108/60 6/6/6 
f 6/24/6 63/109/60 64/110/61 17/21/17 
s off
f 17/89/17 64/111/61 65/112/62 53/90/53 
f 53/105/53 65/113/62 66/114/56 61/106/56 
f 67/115/63 68/116/64 69/117/45 60/103/45 
f 52/87/52 70/118/65 71/119/66 42/84/42 
s 1
f 42/61/42 71/120/66 72/121/67 40/59/40 
f 40/71/40 72/122/67 45/65/45 
f 45/65/45 72/122/67 38/69/38 
f 38/57/38 72/123/67 71/124/66 39/58/39 
s off
f 39/82/39 71/119/66 70/118/65 50/83/50 
f 50/97/50 70/125/65 69/117/45 57/98/45 
f 73/126/68 74/127/69 66/114/56 56/95/56 
f 47/77/47 65/112/62 64/111/61 16/74/16 
s 1
f 16/19/16 64/128/61 63/129/60 5/20/5 
f 5/5/5 63/108/60 1/1/1 
s off
f 55/94/55 75/130/70 73/126/68 56/95/56 
f 57/98/45 76/131/71 77/132/72 58/99/57 
f 59/102/58 78/133/73 67/115/63 60/103/45 
f 61/106/56 79/134/74 80/135/75 62/107/59 
f 66/114/56 74/127/69 79/134/74 61/106/56 
f 69/117/45 70/125/65 52/100/52 60/103/45 
f 69/117/45 68/116/64 76/131/71 57/98/45 
f 66/114/56 65/113/62 47/92/47 56/95/56 
f 1/1/1 7/7/7 81/136/76 82/137/77 
f 7/23/7 18/22/18 83/138/78 81/139/76 
f 18/22/18 21/28/21 84/140/79 83/138/78 
f 21/28/21 11/27/11 85/141/80 84/140/79 
f 11/11/11 1/1/1 82/137/77 85/142/80 
s 1
f 75/143/70 86/144/81 87/145/82 73/146/68 
f 88/147/83 89/148/84 80/149/75 79/150/74 
f 77/151/72 76/152/71 87/145/82 86/144/81 
f 78/153/73 89/148/84 88/147/83 67/154/63 
s off
f 32/85/32 26/155/26 90/156/85 51/86/51 
f 26/155/26 18/88/18 54/91/54 90/156/85 
f 48/157/48 91/158/86 55/159/55 46/160/46 
f 48/157/48 49/161/49 58/162/57 91/158/86 
f 90/163/85 92/164/87 59/165/58 51/166/51 
f 90/163/85 54/167/54 62/168/59 92/164/87 
s 1
f 74/169/69 93/170/88 88/171/83 79/172/74 
f 88/173/83 93/174/88 68/175/64 67/176/63 
f 68/177/64 93/178/88 87/179/82 76/180/71 
f 87/179/82 93/178/88 74/181/69 73/182/68 
s off
f 91/183/86 86/184/81 75/185/70 55/186/55 
f 77/187/72 86/184/81 91/183/86 58/188/57 
f 92/164/87 89/189/84 78/190/73 59/165/58 
f 80/191/75 89/189/84 92/164/87 62/168/59 
f 82/192/77 81/193/76 9/194/9 8/195/8 
f 81/193/76 83/196/78 19/197/19 9/194/9 
f 83/198/78 84/199/79 20/200/20 19/201/19 
f 84/202/79 85/203/80 10/204/10 20/205/20 
f 85/203/80 82/206/77 8/207/8 10/204/10 
s 1
f 1/1/1 94/208/89 2/2/2 
f 1/1/1 95/209/90 94/208/89 
f 1/1/1 96/210/91 95/209/90 
f 1/1/1 97/211/92 98/212/93 
f 99/213/94 100/214/95 101/215/96 
f 1/1/1 12/12/12 102/216/97 
f 2/13/2 94/217/89 103/218/98 13/14/13 
f 94/217/89 95/219/90 104/220/99 103/218/98 
f 95/221/90 96/222/91 105/223/100 104/224/99 
f 106/225/101 98/226/93 97/227/92 107/228/102 
f 101/215/96 100/214/95 108/229/103 109/230/104 
f 102/231/97 12/232/12 22/233/22 110/234/105 
f 13/14/13 103/218/98 111/235/106 23/31/23 
f 103/236/98 104/224/99 112/237/107 111/238/106 
f 107/239/102 110/234/105 113/240/108 114/241/109 
f 110/242/105 22/39/22 28/38/28 113/243/108 
f 23/40/23 111/244/106 115/245/110 29/41/29 
f 111/246/106 112/247/107 116/248/111 115/249/110 
f 114/250/109 113/251/108 117/252/112 118/253/113 
f 113/243/108 28/38/28 34/51/34 117/254/112 
f 29/41/29 115/245/110 119/255/114 35/52/35 
f 115/249/110 116/248/111 120/256/115 119/257/114 
f 116/248/111 121/258/116 122/259/117 120/256/115 
f 123/260/118 124/261/119 118/253/113 125/262/120 
f 118/253/113 117/252/112 126/263/121 125/262/120 
f 117/252/112 34/264/34 44/265/44 126/263/121 
f 45/65/45 35/67/35 119/266/114 
f 45/65/45 119/266/114 120/267/115 
f 45/65/45 120/267/115 122/268/117 
f 45/65/45 123/269/118 125/270/120 
f 45/65/45 125/270/120 126/271/121 
f 45/65/45 126/271/121 44/73/44 
s off
f 105/272/100 127/273/122 128/274/123 104/275/99 
f 104/275/99 128/274/123 129/276/124 112/277/107 
f 112/277/107 129/276/124 130/278/125 116/279/111 
f 116/279/111 130/278/125 131/280/126 121/281/116 
f 124/282/119 132/283/127 133/284/128 118/285/113 
f 107/286/102 134/287/129 135/288/130 106/289/101 
f 127/290/122 136/291/131 137/292/132 128/293/123 
f 130/294/125 138/295/133 139/296/134 131/297/126 
f 132/298/127 140/299/45 141/300/135 133/301/128 
f 134/302/129 142/303/136 143/304/131 135/305/130 
s 1
f 1/1/1 98/212/93 144/306/137 
f 98/226/93 106/225/101 145/307/138 144/308/137 
s off
f 106/289/101 135/288/130 146/309/139 145/310/138 
f 135/305/130 143/304/131 147/311/131 146/312/139 
f 148/313/140 140/299/45 149/314/134 150/315/141 
f 132/283/127 124/282/119 151/316/142 152/317/143 
s 1
f 124/261/119 123/260/118 153/318/144 151/319/142 
f 123/269/118 45/65/45 153/320/144 
f 45/65/45 122/268/117 153/320/144 
f 122/259/117 121/258/116 151/321/142 153/322/144 
s off
f 121/281/116 131/280/126 152/317/143 151/316/142 
f 131/297/126 139/296/134 149/314/134 152/323/143 
f 154/324/145 136/291/131 147/311/131 155/325/146 
f 127/273/122 105/272/100 145/310/138 146/309/139 
s 1
f 105/223/100 96/222/91 144/308/137 145/307/138 
f 96/210/91 1/1/1 144/306/137 
s off
f 137/292/132 136/291/131 154/324/145 156/326/147 
f 139/296/134 138/295/133 157/327/148 158/328/149 
f 141/300/135 140/299/45 148/313/140 159/329/150 
f 143/304/131 142/303/136 160/330/151 161/331/152 
f 147/311/131 143/304/131 161/331/152 155/325/146 
f 149/314/134 140/299/45 132/298/127 152/323/143 
f 149/314/134 139/296/134 158/328/149 150/315/141 
f 147/311/131 136/291/131 127/290/122 146/312/139 
f 1/1/1 162/332/153 163/333/154 97/211/92 
f 97/334/92 163/335/154 164/336/155 107/239/102 
f 107/239/102 164/336/155 165/337/156 110/234/105 
f 110/234/105 165/337/156 166/338/157 102/231/97 
f 102/216/97 166/339/157 162/332/153 1/1/1 
s 1
f 156/340/147 154/341/145 167/342/158 168/343/159 
f 169/344/160 161/345/152 160/346/151 170/347/161 
f 157/348/148 168/343/159 167/342/158 158/349/149 
f 159/350/150 148/351/140 169/344/160 170/347/161 
s off
f 118/285/113 133/284/128 171/352/162 114/353/109 
f 114/353/109 171/352/162 134/287/129 107/286/102 
f 129/354/124 128/355/123 137/356/132 172/357/163 
f 129/354/124 172/357/163 138/358/133 130/359/125 
f 171/360/162 133/361/128 141/362/135 173/363/164 
f 171/360/162 173/363/164 142/364/136 134/365/129 
s 1
f 155/366/146 161/367/152 169/368/160 174/369/165 
f 169/370/160 148/371/140 150/372/141 174/373/165 
f 150/374/141 158/375/149 167/376/158 174/377/165 
f 167/376/158 154/378/145 155/379/146 174/377/165 
s off
f 172/380/163 137/381/132 156/382/147 168/383/159 
f 157/384/148 138/385/133 172/380/163 168/383/159 
f 173/363/164 141/362/135 159/386/150 170/387/161 
f 160/388/151 142/364/136 173/363/164 170/387/161 
f 162/389/153 99/390/94 101/391/96 163/392/154 
f 163/392/154 101/391/96 109/393/104 164/394/155 
f 164/395/155 109/396/104 108/397/103 165/398/156 
f 165/399/156 108/400/103 100/401/95 166/402/157 
f 166/402/157 100/401/95 99/403/94 162/404/153 
# 156 polygons - 32 triangles

