# 3ds Max Wavefront OBJ Exporter v0.99 - (c)2007 guruware
# File Created: 19.09.2026 03:10:46

mtllib Licorice Cat.mtl

#
# object Licorice_Cat
#

v  29.6534 6.8590 61.6926
v  29.6534 6.7960 62.3489
v  29.8286 6.7960 62.2683
v  30.2148 6.7947 61.9516
v  30.3281 6.7933 61.6856
v  30.2197 6.7947 61.3852
v  29.9997 6.7960 61.1253
v  29.6534 6.7960 60.9826
v  32.1189 5.2372 63.0494
v  31.7886 4.3163 62.8678
v  32.1189 4.3163 61.6937
v  32.5004 5.2372 61.6937
v  31.7886 4.3163 60.5195
v  32.1189 5.2372 60.3379
v  31.1562 3.6603 62.5200
v  31.3887 3.6603 61.6937
v  31.1562 3.6603 60.8673
v  32.5003 6.7410 61.5060
v  32.1678 6.9488 61.3575
v  32.4803 7.8532 61.6821
v  31.9223 7.2091 61.3117
v  31.6181 7.4333 61.6147
v  31.5717 7.3961 61.7318
v  31.8131 7.2218 61.5469
v  32.4255 7.8229 61.7735
v  32.1510 6.9000 61.5401
v  32.4738 6.7215 61.6706
v  29.4783 6.7960 62.2683
v  29.0921 6.7947 61.9516
v  28.9787 6.7933 61.6856
v  29.0871 6.7947 61.3852
v  29.3071 6.7960 61.1253
v  27.1879 5.2372 63.0494
v  26.8065 5.2372 61.6937
v  27.1879 4.3163 61.6937
v  27.5182 4.3163 62.8678
v  27.1879 5.2372 60.3379
v  27.5182 4.3163 60.5195
v  27.9181 3.6603 61.6937
v  28.1506 3.6603 62.5200
v  28.1506 3.6603 60.8673
v  26.8065 6.7410 61.5060
v  26.8265 7.8532 61.6821
v  27.1390 6.9488 61.3575
v  27.3846 7.2091 61.3117
v  27.6888 7.4333 61.6147
v  27.7351 7.3961 61.7318
v  26.8814 7.8229 61.7735
v  27.4937 7.2218 61.5469
v  27.1559 6.9000 61.5401
v  26.8331 6.7215 61.6706
v  29.6534 2.9998 63.5517
v  30.6288 2.9998 63.3027
v  29.9804 3.4346 62.2330
v  29.6534 3.4346 62.3164
v  31.3429 2.9998 62.6227
v  30.2197 3.4346 62.0050
v  31.6042 2.9998 61.6937
v  30.3073 3.4346 61.6936
v  27.7026 2.9998 61.6937
v  27.9640 2.9998 62.6227
v  29.0871 3.4346 62.0050
v  28.9995 3.4346 61.6936
v  28.6780 2.9998 63.3027
v  29.3265 3.4346 62.2330
v  30.5211 3.6603 63.1250
v  29.6534 3.6603 63.3464
v  28.7858 3.6603 63.1250
v  29.0871 3.4346 61.3823
v  28.7858 3.6603 60.2623
v  29.3265 3.4346 61.1543
v  29.6534 3.6603 60.0409
v  29.6534 3.4346 61.0709
v  30.5211 3.6603 60.2623
v  29.9804 3.4346 61.1543
v  30.2197 3.4346 61.3823
v  30.6288 0.0000 63.3027
v  29.6534 0.0000 63.5517
v  29.6534 0.0000 61.6936
v  31.3429 0.0000 62.6227
v  31.6042 0.0000 61.6937
v  31.4328 0.0000 58.2139
v  31.7080 0.0000 59.1297
v  29.6534 0.0000 59.1297
v  30.6807 0.0000 57.5434
v  29.6534 0.0000 56.8716
v  28.6261 0.0000 57.5434
v  27.8741 0.0000 58.2139
v  27.5988 0.0000 59.1297
v  27.9640 0.0000 62.6227
v  27.7026 0.0000 61.6937
v  28.6780 0.0000 63.3027
v  30.9402 0.7519 63.8165
v  29.6534 0.7519 64.1449
v  31.8823 0.7519 62.9193
v  32.2271 0.7519 61.6937
v  31.7202 0.0000 55.7699
v  31.4433 0.0000 55.0851
v  32.2373 0.7519 54.3931
v  32.6371 0.7519 55.5699
v  30.6868 0.0000 53.9571
v  31.0168 0.7519 53.1049
v  29.6534 0.0000 53.5442
v  29.6534 0.7519 52.5602
v  28.6200 0.0000 53.9571
v  28.2901 0.7519 53.1049
v  27.8635 0.0000 55.0851
v  27.0695 0.7519 54.3931
v  27.5866 0.0000 55.7699
v  26.6698 0.7519 55.5699
v  27.4246 0.7519 62.9193
v  27.0798 0.7519 61.6937
v  28.3666 0.7519 63.8165
v  31.0034 1.8759 63.9207
v  29.6534 1.8759 64.2652
v  31.9917 1.8759 62.9794
v  32.3534 1.8759 61.6937
v  32.3642 1.8759 54.2934
v  32.7835 1.8759 55.5699
v  31.0837 1.8759 52.9321
v  29.6534 1.8759 52.3607
v  28.2231 1.8759 52.9321
v  26.9427 1.8759 54.2934
v  26.5233 1.8759 55.5699
v  27.3152 1.8759 62.9794
v  26.9535 1.8759 61.6937
v  28.3034 1.8759 63.9207
v  31.4433 2.6672 54.5082
v  31.7202 3.2008 55.7109
v  30.6868 2.6672 53.3802
v  29.6534 2.6672 52.9673
v  28.6200 2.6672 53.3802
v  27.8635 2.6672 54.5082
v  27.5866 3.2008 55.7109
v  29.6534 0.0000 59.9581
v  31.7375 0.0000 59.9581
v  27.5693 0.0000 59.9581
v  31.2575 0.0000 56.1045
v  31.3629 0.0000 57.6458
v  30.5796 0.0000 55.2249
v  29.6534 0.0000 54.9029
v  28.7273 0.0000 55.2249
v  28.0493 0.0000 56.1045
v  27.9439 0.0000 57.6458
v  31.2575 0.0000 55.2510
v  31.3648 0.0000 56.5359
v  30.5796 0.0000 54.3714
v  29.6534 0.0000 54.9056
v  28.7273 0.0000 54.3714
v  28.0493 0.0000 55.2510
v  27.9420 0.0000 56.5359
v  27.3981 0.7519 57.6458
v  27.3956 0.7519 56.5359
v  27.2874 1.8759 57.6458
v  27.2848 1.8759 56.5359
v  27.9439 2.6065 57.5694
v  27.8011 3.2008 56.3937
v  28.7864 2.7402 57.4528
v  28.7140 3.3345 56.2407
v  29.6534 2.8751 57.3344
v  29.6534 3.4694 56.0852
v  30.5204 2.7402 57.4528
v  30.5929 3.3345 56.2407
v  31.3629 2.6065 57.5694
v  31.5057 3.2008 56.3937
v  32.0194 1.8759 57.6458
v  32.0221 1.8759 56.5359
v  31.9087 0.7519 57.6458
v  31.9113 0.7519 56.5359
v  31.7375 2.9850 59.5685
v  30.6288 3.1285 59.4418
v  29.6534 3.3167 59.3210
v  28.6780 3.1285 59.4418
v  27.5693 2.9850 59.5685
v  28.6114 2.7416 58.7132
v  27.5988 2.6079 58.8298
v  29.6534 2.8765 58.5947
v  30.6955 2.7416 58.7132
v  31.7080 2.6079 58.8298
v  30.9897 5.2372 63.9467
v  30.7939 4.3163 63.6825
v  30.8068 4.3163 59.6600
v  30.9833 5.2372 59.3454
v  29.6534 4.3163 64.0926
v  29.6534 4.3163 59.3454
v  30.9771 6.5416 61.5258
v  31.7755 6.0631 61.5572
v  31.9795 6.4239 61.4631
v  31.3968 6.8659 61.4716
v  29.6534 6.7570 62.5916
v  29.8719 6.7570 62.4259
v  30.2830 6.7570 62.0255
v  31.7516 5.8295 62.6174
v  30.6734 5.7905 63.4696
v  32.0255 5.8278 61.7230
v  31.4924 5.8295 60.6785
v  30.4254 5.8295 59.8945
v  29.6534 6.0680 63.7938
v  30.5419 6.0614 63.1398
v  30.2659 6.5471 62.9182
v  29.6534 6.5682 63.1076
v  31.2632 6.0600 60.7769
v  30.2931 6.0629 60.0649
v  30.2659 6.5827 60.4691
v  30.7641 6.5520 61.0075
v  29.6534 6.0680 59.5935
v  29.6534 6.6212 60.2797
v  29.6534 5.7827 64.1183
v  30.6344 5.9347 63.2615
v  29.6534 5.9374 63.9863
v  31.6919 5.9376 62.5918
v  31.1144 7.1090 61.7282
v  31.6064 7.4565 61.7408
v  31.1058 7.1797 61.7222
v  32.1932 6.2381 61.7273
v  32.2367 6.1430 61.7040
v  32.5147 6.6808 61.6367
v  32.2213 6.2424 61.5340
v  31.9391 6.4625 61.3788
v  31.3904 6.8576 61.3403
v  31.1304 7.1549 61.6238
v  30.2689 6.7577 61.3142
v  30.0293 6.7583 60.9914
v  29.6534 6.7581 60.8095
v  31.7438 6.0648 61.4435
v  31.9740 5.9371 61.5368
v  31.4040 5.9339 60.7165
v  30.3728 5.9401 59.9622
v  29.6534 5.9403 59.4144
v  29.6534 4.7083 64.2942
v  29.9773 4.8764 64.2769
v  30.0049 4.8438 64.3390
v  29.6534 4.6652 64.3583
v  30.1327 5.0470 64.2565
v  30.1978 5.0469 64.3262
v  30.0683 5.2673 64.2231
v  30.1327 5.3487 64.2722
v  29.6534 5.3437 64.2750
v  29.6534 5.4322 64.3583
v  30.0350 5.0471 64.4362
v  30.0077 5.1909 64.3985
v  29.6534 5.2498 64.4540
v  29.6534 5.0500 64.5181
v  29.6534 5.2403 59.0575
v  29.6534 5.8216 59.3454
v  29.9318 4.9314 64.4410
v  29.6534 4.7918 64.4540
v  30.3890 6.7549 61.7005
v  31.5223 6.0600 62.5190
v  30.8265 6.5350 62.2855
v  30.9861 6.4912 61.3773
v  31.9454 5.9389 61.7525
v  30.3929 6.7555 61.6284
v  32.4790 7.8513 61.7602
v  28.5129 4.3163 63.6825
v  28.3171 5.2372 63.9467
v  28.5001 4.3163 59.6600
v  28.3235 5.2372 59.3454
v  28.3297 6.5416 61.5258
v  27.9101 6.8659 61.4716
v  27.3274 6.4239 61.4631
v  27.5314 6.0631 61.5572
v  29.4349 6.7570 62.4259
v  29.0238 6.7570 62.0255
v  28.6335 5.7905 63.4696
v  27.5553 5.8295 62.6174
v  27.2814 5.8278 61.7230
v  27.8144 5.8295 60.6785
v  28.8814 5.8295 59.8945
v  29.0409 6.5471 62.9182
v  28.7649 6.0614 63.1398
v  28.0436 6.0600 60.7769
v  28.5427 6.5520 61.0075
v  29.0409 6.5827 60.4691
v  29.0138 6.0629 60.0649
v  28.6725 5.9347 63.2615
v  27.6149 5.9376 62.5918
v  28.1924 7.1090 61.7282
v  28.2010 7.1797 61.7222
v  27.7004 7.4565 61.7408
v  27.1136 6.2381 61.7273
v  26.7922 6.6808 61.6367
v  27.0702 6.1430 61.7040
v  27.0855 6.2424 61.5340
v  27.3677 6.4625 61.3788
v  27.9165 6.8576 61.3403
v  28.1764 7.1549 61.6238
v  29.0380 6.7577 61.3142
v  29.2776 6.7583 60.9914
v  27.9028 5.9339 60.7165
v  27.3329 5.9371 61.5368
v  27.5630 6.0648 61.4435
v  28.9340 5.9401 59.9622
v  29.3019 4.8438 64.3390
v  29.3295 4.8764 64.2769
v  29.1091 5.0469 64.3262
v  29.1741 5.0470 64.2565
v  29.1741 5.3487 64.2722
v  29.2386 5.2673 64.2231
v  29.2719 5.0471 64.4362
v  29.2992 5.1909 64.3985
v  29.3751 4.9314 64.4410
v  28.9179 6.7549 61.7005
v  27.7845 6.0600 62.5190
v  28.4803 6.5350 62.2855
v  28.3207 6.4912 61.3773
v  27.3614 5.9389 61.7525
v  28.9140 6.7555 61.6284
v  26.8279 7.8513 61.7602
v  26.9039 0.7519 59.9581
v  26.7689 1.8759 59.9581
v  32.5379 1.8759 59.9581
v  32.4029 0.7519 59.9581
v  26.9428 0.7519 59.1297
v  26.8098 1.8759 59.1297
v  28.6052 3.5303 54.6384
v  29.6534 3.6652 54.4391
v  30.7017 3.5303 54.6384
v  32.4970 1.8759 59.1297
v  32.3640 0.7519 59.1297
v  29.6579 2.8967 54.0459
v  30.0714 2.7771 53.9176
v  30.1019 2.8391 53.9842
v  29.7047 2.6007 53.7286
v  29.8695 2.6401 53.7708
v  29.6061 2.6007 53.7286
v  29.4384 2.6452 53.7762
v  29.2015 2.8508 53.9967
v  29.2320 2.7887 53.9302
v  29.2480 3.0330 54.1921
v  29.2101 2.9627 54.1167
v  29.4287 3.1627 54.3312
v  29.3490 3.1244 54.2900
v  29.7138 3.1943 54.3651
v  29.5973 3.1943 54.3651
v  29.9618 3.1244 54.2900
v  29.8820 3.1627 54.3312
v  30.0959 2.9547 54.1081
v  30.0599 3.0279 54.1866
v  30.1323 2.8253 53.9685
v  30.1087 2.7772 53.9169
v  30.1433 4.0349 52.5262
v  30.1274 4.0754 52.5856
v  29.6936 2.5776 53.7029
v  29.6172 2.5776 53.7029
v  29.8684 3.7600 52.1232
v  29.9346 3.7807 52.1536
v  29.1946 2.7889 53.9294
v  29.1710 2.8370 53.9810
v  29.2861 3.8231 52.2157
v  29.3429 3.7954 52.1751
v  29.3370 3.1482 54.3147
v  29.3988 3.1780 54.3466
v  29.2257 4.1268 52.6610
v  29.1946 4.0890 52.6055
v  29.9120 3.1780 54.3466
v  29.9738 3.1482 54.3147
v  29.7461 4.2616 52.8586
v  29.6701 4.2659 52.8649
v  29.3462 11.2399 45.8067
v  29.2802 11.3059 45.7951
v  29.6435 11.5474 45.7526
v  29.2141 11.4525 45.7693
v  29.2020 11.5570 45.7509
v  29.2328 11.7126 45.7236
v  29.2821 11.7896 45.7101
v  29.4241 11.8903 45.6924
v  29.5354 11.9324 45.6850
v  29.7152 11.9537 45.6812
v  29.8117 11.9352 45.6845
v  29.9538 11.8522 45.6991
v  30.0269 11.7747 45.7127
v  30.0960 11.6336 45.7375
v  30.1063 11.5451 45.7530
v  30.0634 11.3919 45.7800
v  30.0052 11.3009 45.7960
v  29.8797 11.1910 45.8153
v  29.7896 11.1548 45.8216
v  29.6143 11.1439 45.8235
v  29.5004 11.1658 45.8197
v  30.1108 4.0246 52.5120
v  29.3123 11.2258 45.8094
v  29.2611 11.2771 45.8004
v  29.2176 11.2505 47.8619
v  29.1804 11.2537 47.8626
v  29.8410 3.7733 52.1436
v  29.2075 11.7374 45.7195
v  29.2457 11.7971 45.7090
v  29.3815 11.7280 47.9439
v  29.3733 11.7621 47.9499
v  29.3017 3.8410 52.2429
v  29.7335 11.9832 45.6763
v  29.8082 11.9688 45.6788
v  29.9329 11.7190 47.9424
v  29.9650 11.7368 47.9456
v  29.2628 4.1240 52.6578
v  30.1326 11.6271 45.7389
v  30.1406 11.5585 45.7509
v  30.0852 11.2534 47.8624
v  30.1133 11.2303 47.8586
v  29.7534 4.2413 52.8297
v  29.8840 11.1576 45.8214
v  29.8142 11.1296 45.8263
v  29.6525 10.9571 47.8115
v  29.6378 10.9250 47.8062
v  30.0473 11.8142 45.7057
v  30.0004 11.8640 45.6970
v  30.1301 11.5050 47.9056
v  30.1431 11.4384 47.8942
v  30.0536 11.2974 45.7966
v  30.0910 11.3558 45.7863
v  29.9269 11.0062 47.8200
v  29.8621 10.9713 47.8140
v  29.5117 11.1231 45.8272
v  29.5848 11.1091 45.8297
v  29.3518 11.0215 47.8226
v  29.2962 11.0682 47.8306
v  29.4984 11.9614 45.6799
v  29.4270 11.9343 45.6846
v  29.6726 11.8363 47.9625
v  29.7494 11.8272 47.9610
v  29.1605 11.5342 45.7550
v  29.1683 11.4671 45.7667
v  29.1895 11.5377 47.9113
v  29.2199 11.6016 47.9222
v  29.2227 4.0752 52.5862
v  29.2043 3.9830 52.4510
v  30.0062 11.6573 47.9318
v  30.0833 11.5162 47.9076
v  29.6553 4.2469 52.8379
v  29.4857 4.2237 52.8040
v  30.0451 11.1691 47.8479
v  29.9230 11.0515 47.8278
v  30.0903 4.0768 52.5886
v  29.9978 4.1572 52.7065
v  29.5545 10.9668 47.8132
v  29.3967 11.0389 47.8256
v  29.3750 3.8053 52.1905
v  29.5425 3.7676 52.1353
v  29.3423 2.6935 53.8280
v  29.4669 11.7741 47.9519
v  29.6456 11.7981 47.9560
v  29.9264 3.8000 52.1828
v  30.0394 3.8726 52.2893
v  29.1971 11.3407 47.8774
v  29.2212 11.5032 47.9053
v  29.1999 3.0302 54.1890
v  29.1756 2.9850 54.1407
v  29.1647 3.9679 52.4289
v  29.6929 3.2234 54.3962
v  29.6182 3.2234 54.3962
v  29.4457 4.2387 52.8259
v  30.1312 2.9768 54.1318
v  30.1081 3.0238 54.1822
v  30.0116 4.1825 52.7435
v  29.3330 2.6617 53.7939
v  29.3947 2.6307 53.7607
v  29.5584 3.7425 52.0985
v  29.9637 2.6854 53.8194
v  29.9121 2.6247 53.7543
v  29.9726 2.6538 53.7855
v  30.0879 3.8733 52.2902
v  29.5919 8.3905 51.4045
v  29.3555 10.0448 50.7493
v  29.2988 10.0170 50.7088
v  29.5172 8.3859 51.3903
v  30.0989 8.3121 51.1589
v  29.9321 10.0533 50.7616
v  29.8659 10.0741 50.7919
v  30.0607 8.3309 51.2180
v  29.9826 8.1460 50.6387
v  30.1225 9.7469 50.3152
v  30.1383 9.7876 50.3745
v  30.0337 8.1622 50.6895
v  29.4224 8.1287 50.5848
v  29.6676 9.5659 50.0514
v  29.7435 9.5703 50.0578
v  29.4922 8.1199 50.5570
v  29.1738 8.2772 51.0496
v  29.1921 9.7437 50.3104
v  29.2231 9.7057 50.2550
v  29.1658 8.2555 50.9818
v  29.6102 8.3810 51.3754
v  29.3876 10.0344 50.7342
v  29.5138 8.3751 51.3571
v  29.7507 6.6342 51.2589
v  29.7723 6.6364 51.2867
v  30.0736 8.3040 51.1345
v  29.9238 10.0334 50.7327
v  30.0243 8.3284 51.2107
v  30.1109 6.6100 50.8967
v  30.1466 6.6096 50.8866
v  29.9487 8.1502 50.6527
v  30.0853 9.7450 50.3125
v  30.0146 8.1711 50.7182
v  29.8268 6.5812 50.4656
v  29.8273 6.5792 50.4316
v  29.4268 8.1391 50.6179
v  29.6528 9.5846 50.0787
v  29.5168 8.1277 50.5821
v  29.3196 6.5883 50.5723
v  29.2842 6.5879 50.5614
v  29.2104 8.2791 51.0562
v  29.2201 9.7570 50.3300
v  29.2001 8.2511 50.9686
v  29.2616 6.6208 51.0584
v  29.2393 6.6229 51.0857
v  29.7859 8.1149 50.5420
v  29.5301 6.5777 50.4142
v  29.4619 6.5792 50.4364
v  29.7147 8.1112 50.5304
v  29.2526 8.1729 50.7235
v  29.1699 6.6047 50.8178
v  29.1699 6.6093 50.8860
v  29.2153 8.1913 50.7814
v  29.2689 8.3369 51.2373
v  29.4716 6.6346 51.2646
v  29.5427 6.6360 51.2856
v  29.3189 8.3527 51.2869
v  30.1401 8.2454 50.9507
v  30.0657 6.5911 50.6140
v  30.0188 6.5873 50.5578
v  30.1304 8.2235 50.8821
v  29.8209 8.3831 51.3822
v  30.0307 6.6263 51.1410
v  30.0747 6.6226 51.0859
v  29.8892 8.3745 51.3550
v  29.7508 9.5902 50.0869
v  29.9073 9.6278 50.1417
v  29.6869 8.1225 50.5657
v  29.7331 6.5793 50.4379
v  29.5639 6.5798 50.4457
v  29.7978 8.1282 50.5839
v  29.2602 9.7080 50.2586
v  29.3820 9.6396 50.1589
v  29.2428 8.2027 50.8171
v  29.2616 6.5932 50.6451
v  29.2138 6.6034 50.7988
v  29.3011 8.1740 50.7270
v  29.3144 9.9985 50.6819
v  29.2322 9.9145 50.5595
v  29.3655 8.3488 51.2745
v  29.3196 6.6257 51.1312
v  29.4653 6.6316 51.2206
v  29.2876 8.3241 51.1972
v  30.1058 9.7975 50.3890
v  30.0822 9.8955 50.5318
v  30.0841 8.2189 50.8679
v  30.1109 6.6040 50.8068
v  30.0438 6.5938 50.6539
v  30.0993 8.2531 50.9748
v  29.8385 10.0602 50.7718
v  29.6660 10.0770 50.7963
v  29.8904 8.3606 51.3116
v  29.8445 6.6323 51.2311
v  29.9830 6.6258 51.1329
v  29.7840 8.3741 51.3540
v  29.9511 9.6167 50.1256
v  29.3781 9.6133 50.1205
v  29.1849 9.9084 50.5506
v  30.1143 9.9156 50.5611
v  29.6407 10.0996 50.8292
v  30.0468 5.3641 51.6377
v  29.8449 6.6349 51.2652
v  29.9956 5.3806 51.6884
v  30.0622 5.1964 51.1235
v  30.1466 6.6050 50.8169
v  30.1004 5.2156 51.1825
v  29.4997 5.1410 50.9536
v  29.7546 6.5778 50.4101
v  29.5744 5.1364 50.9395
v  29.1673 5.2733 51.3594
v  29.2393 6.5917 50.6178
v  29.1753 5.2512 51.2916
v  29.4937 5.4117 51.7836
v  29.2842 6.6267 51.1421
v  29.4239 5.4026 51.7559
v  30.0277 5.3544 51.6092
v  29.2060 10.9293 49.5637
v  29.1755 10.9467 49.5754
v  30.0258 5.1984 51.1309
v  29.6032 11.2203 49.7588
v  29.6143 11.2491 49.7782
v  29.4963 5.1514 50.9869
v  30.0759 10.9908 49.6049
v  30.1132 10.9911 49.6052
v  29.2016 5.2772 51.3727
v  29.9589 10.5809 49.3300
v  29.9709 10.5524 49.3109
v  29.5183 5.4031 51.7586
v  29.4258 10.5341 49.2986
v  29.3959 10.5161 49.2866
v  30.1323 10.7511 49.4441
v  30.0063 9.6422 50.1628
v  30.1079 10.6960 49.4072
v  29.6897 10.4600 49.2490
v  29.4429 9.5929 50.0908
v  29.6149 10.4600 49.2490
v  29.1997 10.7037 49.4124
v  29.1694 9.8685 50.4925
v  29.1766 10.7612 49.4509
v  29.9131 11.1837 49.7343
v  30.0843 9.9545 50.6177
v  29.9748 11.1459 49.7089
v  29.3352 11.1555 49.7154
v  29.5663 10.0953 50.8230
v  29.3957 11.1910 49.7392
v  29.2119 5.2487 51.2852
v  29.4577 6.5822 50.4803
v  29.2810 5.2032 51.1456
v  30.1063 10.9150 49.5541
v  29.9932 9.6676 50.1997
v  30.0977 10.7783 49.4624
v  29.4283 5.3915 51.7229
v  29.2138 6.6106 50.9050
v  29.3027 5.3560 51.6142
v  29.8791 10.5341 49.2986
v  29.4829 9.6079 50.1127
v  29.7105 10.4955 49.2728
v  29.9617 5.3757 51.6746
v  29.5761 6.6338 51.2534
v  29.8075 5.3996 51.7478
v  29.3461 10.5809 49.3300
v  29.2080 9.8525 50.4691
v  29.2479 10.6987 49.4090
v  29.5927 5.1454 50.9686
v  29.9708 6.5879 50.5663
v  29.7726 5.1523 50.9896
v  29.7018 11.2203 49.7588
v  30.0354 9.9561 50.6201
v  29.8694 11.1661 49.7224
v  30.0751 5.2232 51.2070
v  30.0514 6.6200 51.0470
v  30.1059 5.2734 51.3609
v  29.2364 11.0050 49.6144
v  29.5502 10.0704 50.7867
v  29.3441 11.1169 49.6895
v  29.2607 5.1904 51.1066
v  29.2543 5.3571 51.6177
v  29.7962 5.4134 51.7900
v  29.8095 5.1430 50.9610
v  30.1474 5.2808 51.3835
v  29.1991 11.0054 49.6147
v  29.1646 11.3236 47.8746
v  29.6907 11.2491 49.7782
v  29.4394 11.7978 47.9561
v  30.1368 10.9324 49.5658
v  30.0218 11.6890 47.9374
v  29.9090 10.5161 49.2866
v  30.0822 11.1650 47.8474
v  29.3341 10.5524 49.3109
v  29.5618 10.9325 47.8075
v  29.3076 5.1744 51.0574
v  29.1778 3.9293 52.3723
v  29.2169 5.3383 51.5599
v  29.3810 4.2184 52.7962
v  29.7231 5.4179 51.8039
v  29.9561 4.2096 52.7833
v  29.8809 5.1517 50.9878
v  29.6353 3.7372 52.0908
v  30.1396 5.3024 51.4498
v  30.1183 3.9103 52.3445
v  30.1036 11.4124 47.8897
v  30.0598 10.6925 49.4049
v  29.2246 3.9228 52.3628
v  29.3541 5.1782 51.0690
v  29.8221 10.9971 47.8184
v  29.5940 10.4955 49.2727
v  29.3849 4.1922 52.7577
v  29.2445 5.3267 51.5242
v  29.3101 11.1118 47.8381
v  29.2119 10.7882 49.4690
v  29.9112 4.1995 52.7684
v  29.6936 5.4066 51.7694
v  29.7653 11.7840 47.9536
v  29.9655 11.1071 49.6829
v  29.6623 3.7594 52.1232
v  29.8838 5.1659 51.0313
v  29.2685 11.6027 47.9224
v  29.4384 11.1722 49.7266
v  30.0867 3.9303 52.3738
v  30.0938 5.3071 51.4642
# 682 vertices

vn 0.0000 1.0000 0.0086
vn 0.0000 0.9841 0.1778
vn 0.1131 0.9734 0.1993
vn 0.2353 0.9538 0.1866
vn 0.2320 0.9706 0.0637
vn 0.2929 0.9406 -0.1719
vn 0.1538 0.9651 -0.2121
vn 0.0000 0.9763 -0.2164
vn 0.7938 0.1475 0.5900
vn 0.7045 -0.4890 0.5144
vn 0.8614 -0.5079 0.0000
vn 0.9927 0.1209 -0.0023
vn 0.7118 -0.4907 -0.5025
vn 0.8064 0.2072 -0.5539
vn 0.4527 -0.8342 0.3148
vn 0.5383 -0.8427 0.0000
vn 0.4527 -0.8342 -0.3148
vn 0.7600 -0.1149 -0.6397
vn 0.2694 0.0058 -0.9630
vn 0.4495 0.7866 -0.4234
vn -0.0319 0.2472 -0.9684
vn -0.4211 0.7020 -0.5744
vn 0.1741 -0.2818 0.9435
vn 0.0589 -0.2710 0.9608
vn -0.2559 0.5124 0.8197
vn -0.2366 -0.0808 0.9682
vn 0.2010 -0.0059 0.9796
vn -0.1131 0.9734 0.1993
vn -0.2353 0.9538 0.1866
vn -0.2320 0.9706 0.0637
vn -0.2929 0.9406 -0.1719
vn -0.1538 0.9651 -0.2121
vn -0.7938 0.1475 0.5900
vn -0.9927 0.1209 -0.0023
vn -0.8614 -0.5079 0.0000
vn -0.7045 -0.4890 0.5144
vn -0.8064 0.2072 -0.5539
vn -0.7118 -0.4907 -0.5025
vn -0.5383 -0.8427 0.0000
vn -0.4527 -0.8342 0.3148
vn -0.4527 -0.8342 -0.3148
vn -0.7600 -0.1149 -0.6397
vn -0.4495 0.7866 -0.4234
vn -0.2694 0.0058 -0.9630
vn 0.0319 0.2472 -0.9684
vn 0.4211 0.7020 -0.5744
vn -0.1741 -0.2818 0.9435
vn 0.2559 0.5124 0.8197
vn -0.0589 -0.2710 0.9608
vn 0.2366 -0.0808 0.9682
vn -0.2010 -0.0059 0.9796
vn 0.0000 0.6869 0.7267
vn 0.3141 0.6964 0.6453
vn 0.4152 -0.0881 0.9055
vn 0.0000 -0.0894 0.9960
vn 0.5759 0.7162 0.3942
vn 0.8067 -0.0853 0.5847
vn 0.6589 0.7416 0.1258
vn 0.9965 -0.0838 0.0000
vn -0.6589 0.7416 0.1258
vn -0.5759 0.7162 0.3942
vn -0.8067 -0.0853 0.5847
vn -0.9965 -0.0838 0.0000
vn -0.3141 0.6964 0.6453
vn -0.4152 -0.0881 0.9055
vn 0.2646 -0.7992 0.5397
vn 0.0000 -0.8219 0.5696
vn -0.2646 -0.7992 0.5397
vn -0.8322 0.0059 -0.5544
vn -0.2586 -0.8101 -0.5261
vn -0.4301 0.0348 -0.9021
vn 0.0000 -0.8111 -0.5849
vn -0.0000 0.1134 -0.9935
vn 0.2586 -0.8101 -0.5261
vn 0.4301 0.0348 -0.9021
vn 0.8322 0.0059 -0.5544
vn 0.2312 -0.8420 0.4875
vn 0.0000 -0.8393 0.5436
vn 0.0000 -1.0000 0.0000
vn 0.4337 -0.8482 0.3042
vn 0.4771 -0.8730 0.1009
vn 0.0000 -1.0000 -0.0000
vn 0.4681 -0.8805 -0.0742
vn -0.0000 -1.0000 -0.0000
vn -0.4681 -0.8805 -0.0742
vn -0.4337 -0.8482 0.3042
vn -0.4771 -0.8730 0.1009
vn -0.2312 -0.8420 0.4875
vn 0.4230 -0.3036 0.8537
vn 0.0000 -0.2942 0.9557
vn 0.7859 -0.3239 0.5267
vn 0.9197 -0.3395 0.1971
vn 0.4610 -0.8864 0.0420
vn 0.3217 -0.9271 -0.1921
vn 0.7387 -0.4454 -0.5059
vn 0.9062 -0.3996 0.1382
vn 0.2836 -0.8857 -0.3676
vn 0.4674 -0.4077 -0.7844
vn -0.0000 -0.8920 -0.4521
vn 0.0000 -0.4150 -0.9098
vn -0.2836 -0.8857 -0.3676
vn -0.4674 -0.4077 -0.7844
vn -0.3217 -0.9271 -0.1921
vn -0.7387 -0.4454 -0.5059
vn -0.4610 -0.8864 0.0420
vn -0.9062 -0.3996 0.1382
vn -0.7859 -0.3239 0.5267
vn -0.9197 -0.3395 0.1971
vn -0.4230 -0.3036 0.8537
vn 0.4381 0.1810 0.8805
vn 0.0000 0.1753 0.9845
vn 0.8163 0.1931 0.5444
vn 0.9570 0.2035 0.2069
vn 0.7992 0.3005 -0.5205
vn 0.9632 0.2160 0.1600
vn 0.5108 0.1946 -0.8374
vn 0.0000 0.1820 -0.9833
vn -0.5108 0.1946 -0.8374
vn -0.7992 0.3005 -0.5205
vn -0.9632 0.2160 0.1600
vn -0.8163 0.1931 0.5444
vn -0.9570 0.2035 0.2069
vn -0.4381 0.1810 0.8805
vn 0.6025 0.6250 -0.4963
vn 0.6548 0.7526 -0.0695
vn 0.4467 0.5895 -0.6730
vn -0.0000 0.6128 -0.7902
vn -0.4467 0.5895 -0.6730
vn -0.6025 0.6250 -0.4963
vn -0.6548 0.7526 -0.0695
vn 0.4582 -0.8888 0.0110
vn -0.4582 -0.8888 0.0110
vn -0.0000 -1.0000 0.0000
vn 0.8822 0.4578 -0.1098
vn 1.0000 0.0000 -0.0000
vn -0.8822 0.4578 -0.1098
vn 0.4169 -0.9038 0.0965
vn 0.0000 0.0000 -1.0000
vn -0.4169 -0.9038 0.0965
vn -0.9335 -0.3197 -0.1620
vn -0.8834 -0.3109 0.3508
vn -0.9419 0.2855 -0.1771
vn -0.9215 0.1309 0.3656
vn -0.4826 0.8467 0.2240
vn -0.5148 0.7745 0.3676
vn -0.1410 0.9519 0.2720
vn -0.1025 0.9247 0.3667
vn -0.0000 0.9519 0.3063
vn 0.0000 0.9439 0.3303
vn 0.1410 0.9519 0.2720
vn 0.1025 0.9247 0.3667
vn 0.4826 0.8467 0.2240
vn 0.5148 0.7745 0.3676
vn 0.9419 0.2855 -0.1771
vn 0.9215 0.1309 0.3656
vn 0.9335 -0.3197 -0.1620
vn 0.8833 -0.3109 0.3508
vn 0.5612 0.7863 -0.2584
vn 0.2048 0.9107 -0.3588
vn 0.0000 0.9261 -0.3772
vn -0.2048 0.9107 -0.3588
vn -0.5612 0.7863 -0.2584
vn -0.1728 0.9374 -0.3025
vn -0.5347 0.7679 -0.3529
vn 0.0000 0.9459 -0.3246
vn 0.1728 0.9374 -0.3025
vn 0.5347 0.7679 -0.3529
vn 0.4146 0.2189 0.8833
vn 0.4111 -0.4386 0.7992
vn 0.3815 -0.4515 -0.8066
vn 0.4149 0.2237 -0.8819
vn -0.0000 -0.4987 0.8668
vn 0.0000 -0.4239 -0.9057
vn 0.3994 0.4941 0.7722
vn 0.1338 0.6658 0.7341
vn -0.2991 0.1450 0.9432
vn 0.1642 -0.1896 0.9680
vn 0.0000 0.9312 0.3645
vn 0.2100 0.9357 0.2835
vn 0.3367 0.9085 0.2476
vn 0.6801 0.5307 0.5058
vn 0.3585 0.6568 0.6634
vn 0.9509 0.3080 0.0319
vn 0.5504 0.6428 -0.5328
vn 0.4152 0.6214 -0.6645
vn 0.0000 0.7332 0.6800
vn 0.4165 0.5858 0.6952
vn 0.3518 0.7117 0.6081
vn 0.0000 0.8077 0.5896
vn 0.4951 0.6573 -0.5682
vn 0.4532 0.5520 -0.7000
vn 0.3931 0.7122 -0.5816
vn 0.4943 0.8133 -0.3070
vn 0.0000 0.7092 -0.7050
vn 0.0000 0.8239 -0.5668
vn 0.0000 0.3870 0.9221
vn 0.3614 0.7050 0.6102
vn -0.0000 0.6247 0.7808
vn 0.6114 0.5914 0.5258
vn 0.1076 -0.2042 0.9730
vn -0.3920 0.6449 0.6561
vn -0.4577 0.7217 0.5193
vn -0.1046 0.1510 0.9830
vn 0.8111 -0.4089 0.4182
vn 0.9172 -0.2428 0.3160
vn 0.5890 -0.3486 -0.7291
vn 0.1413 -0.1337 -0.9809
vn -0.1987 0.1521 -0.9682
vn -0.4086 0.6213 -0.6686
vn 0.3714 0.8975 -0.2381
vn 0.2173 0.9297 -0.2972
vn 0.0000 0.9514 -0.3080
vn 0.4145 0.3141 -0.8541
vn 0.6310 -0.2838 -0.7220
vn 0.5237 0.6186 -0.5858
vn 0.4455 0.5818 -0.6805
vn -0.0000 0.5432 -0.8396
vn 0.0000 -0.9528 0.3037
vn 0.6547 -0.7266 0.2082
vn 0.6458 -0.7558 0.1080
vn 0.0000 -0.9891 0.1472
vn 0.9186 -0.2643 0.2938
vn 0.9724 -0.1993 0.1212
vn 0.7240 0.6814 -0.1073
vn 0.6766 0.7297 -0.0986
vn 0.0000 0.9918 0.1279
vn 0.0000 0.9837 0.1798
vn 0.3858 -0.0209 0.9223
vn 0.2779 0.2879 0.9164
vn 0.0000 0.3071 0.9517
vn 0.0000 0.0266 0.9996
vn 0.0000 0.0615 -0.9981
vn 0.0000 0.3714 -0.9285
vn 0.2558 -0.2428 0.9357
vn 0.0000 -0.3886 0.9214
vn 0.3237 0.6303 0.7057
vn 0.4864 0.7685 0.4156
vn 0.4600 0.8472 0.2660
vn 0.2587 0.6251 -0.7364
vn 0.4221 0.5363 0.7309
vn 0.1212 0.7939 -0.5958
vn 0.4451 0.7147 0.5395
vn -0.4111 -0.4386 0.7992
vn -0.4146 0.2189 0.8833
vn -0.3815 -0.4515 -0.8066
vn -0.4149 0.2237 -0.8819
vn -0.3994 0.4941 0.7722
vn -0.1642 -0.1896 0.9680
vn 0.2991 0.1450 0.9432
vn -0.1338 0.6658 0.7341
vn -0.2100 0.9357 0.2835
vn -0.3367 0.9085 0.2476
vn -0.3585 0.6568 0.6634
vn -0.6801 0.5307 0.5058
vn -0.9509 0.3080 0.0319
vn -0.5504 0.6428 -0.5328
vn -0.4152 0.6214 -0.6645
vn -0.3518 0.7117 0.6081
vn -0.4165 0.5858 0.6952
vn -0.4951 0.6573 -0.5682
vn -0.4943 0.8133 -0.3070
vn -0.3931 0.7122 -0.5816
vn -0.4532 0.5520 -0.7000
vn -0.3614 0.7050 0.6102
vn -0.6114 0.5914 0.5258
vn -0.1076 -0.2042 0.9730
vn 0.4577 0.7217 0.5193
vn 0.3920 0.6449 0.6561
vn 0.1046 0.1510 0.9830
vn -0.9172 -0.2428 0.3160
vn -0.8111 -0.4089 0.4182
vn -0.5890 -0.3486 -0.7291
vn -0.1413 -0.1337 -0.9809
vn 0.1987 0.1521 -0.9682
vn 0.4086 0.6213 -0.6686
vn -0.3714 0.8975 -0.2381
vn -0.2173 0.9297 -0.2972
vn -0.5237 0.6186 -0.5858
vn -0.6310 -0.2838 -0.7220
vn -0.4145 0.3141 -0.8541
vn -0.4455 0.5818 -0.6805
vn -0.6458 -0.7558 0.1080
vn -0.6547 -0.7266 0.2082
vn -0.9724 -0.1993 0.1212
vn -0.9186 -0.2643 0.2938
vn -0.6766 0.7297 -0.0986
vn -0.7240 0.6814 -0.1073
vn -0.3858 -0.0209 0.9223
vn -0.2779 0.2879 0.9164
vn -0.2558 -0.2428 0.9357
vn -0.3237 0.6303 0.7057
vn -0.4864 0.7685 0.4156
vn -0.4600 0.8472 0.2660
vn -0.2587 0.6251 -0.7364
vn -0.4221 0.5363 0.7309
vn -0.1212 0.7939 -0.5958
vn -0.4451 0.7147 0.5395
vn -0.9313 -0.3631 0.0285
vn -0.9738 0.2243 0.0363
vn 0.9738 0.2243 0.0363
vn 0.9313 -0.3631 0.0285
vn -0.9188 -0.3517 -0.1793
vn -0.9395 0.2907 -0.1814
vn -0.3753 0.8800 -0.2912
vn 0.0000 0.9500 -0.3124
vn 0.3753 0.8800 -0.2912
vn 0.9395 0.2907 -0.1814
vn 0.9188 -0.3517 -0.1793
vn -0.0000 -0.6274 0.7787
vn 0.2941 -0.9215 0.2537
vn 0.4580 -0.3186 0.8299
vn 0.4236 -0.8110 0.4036
vn -0.0354 -0.9813 0.1892
vn -0.4594 -0.8253 0.3283
vn 0.0432 -0.9686 0.2447
vn -0.5214 -0.2831 0.8050
vn -0.2447 -0.9189 0.3094
vn -0.2971 -0.1021 0.9494
vn -0.5345 -0.6826 0.4984
vn 0.0886 -0.0573 0.9944
vn -0.5320 -0.4666 0.7066
vn 0.3702 -0.1345 0.9192
vn -0.3622 -0.2010 0.9102
vn 0.0327 -0.7781 -0.6272
vn 0.5934 -0.4162 0.6890
vn -0.1059 -0.1291 0.9860
vn 0.5850 -0.6588 0.4730
vn 0.2686 -0.1530 0.9510
vn 0.7721 -0.2290 0.5928
vn 0.4654 -0.8845 -0.0329
vn 0.8929 -0.2296 -0.3873
vn 0.6853 0.4269 0.5901
vn 0.4382 -0.8988 0.0137
vn -0.5095 -0.8603 -0.0151
vn -0.0937 -0.5864 -0.8046
vn 0.8912 -0.3285 -0.3127
vn -0.4964 -0.8669 0.0459
vn -0.7834 -0.1456 0.6042
vn -0.9638 -0.1231 -0.2366
vn -0.1016 -0.6784 -0.7276
vn -0.7470 -0.1769 0.6408
vn 0.0322 0.2765 0.9605
vn -0.5120 0.6019 0.6129
vn -0.9655 -0.2177 -0.1431
vn 0.0374 0.2176 0.9753
vn 0.8053 -0.1804 0.5648
vn 0.6825 0.5404 0.4922
vn -0.5038 0.5067 0.6996
vn -0.0273 -0.6208 -0.7835
vn -0.5613 -0.0860 -0.8231
vn 0.0000 -0.1309 -0.9914
vn -0.3844 -0.5084 -0.7706
vn -0.5224 0.2254 -0.8224
vn -0.5617 -0.2842 -0.7770
vn -0.1325 0.5052 -0.8528
vn -0.5945 0.1757 -0.7846
vn 0.2214 0.4941 -0.8408
vn -0.3943 0.4399 -0.8069
vn 0.5333 0.1484 -0.8328
vn 0.1322 0.5801 -0.8038
vn 0.5594 -0.1610 -0.8131
vn 0.4608 0.3747 -0.8045
vn 0.3506 -0.4458 -0.8236
vn 0.6301 -0.0481 -0.7750
vn 0.1414 -0.5597 -0.8165
vn 0.5287 -0.3399 -0.7778
vn -0.1797 -0.5333 -0.8266
vn 0.2340 -0.5839 -0.7774
vn -0.4076 -0.4235 -0.8090
vn 0.8263 -0.3023 -0.4751
vn -0.1442 -0.8346 -0.5316
vn -0.7845 -0.1291 -0.6065
vn -0.5228 -0.8439 -0.1207
vn -0.7058 -0.7005 -0.1056
vn -0.2954 -0.5413 -0.7872
vn -0.8224 -0.1263 -0.5548
vn -0.3549 0.6941 -0.6264
vn -0.9778 0.1614 0.1339
vn -0.8915 0.4196 0.1709
vn -0.9964 0.0769 -0.0370
vn -0.3643 0.7296 -0.5788
vn 0.5744 0.5419 -0.6136
vn -0.0790 0.9350 0.3458
vn 0.1056 0.9449 0.3099
vn -0.3052 0.6754 0.6714
vn 0.5979 0.5708 -0.5627
vn 0.7152 -0.3698 -0.5931
vn 0.9451 0.2850 0.1599
vn 0.9609 0.2243 0.1626
vn 0.7651 0.4794 0.4299
vn 0.7493 -0.3854 -0.5386
vn -0.1270 -0.7928 -0.5960
vn 0.6523 -0.7507 -0.1046
vn 0.5388 -0.8334 -0.1231
vn 0.7826 0.1202 -0.6108
vn 0.2192 0.7795 -0.5868
vn 0.7174 0.6509 0.2483
vn 0.9491 -0.2904 -0.1219
vn 0.4069 -0.6875 -0.6015
vn 0.8260 0.0493 -0.5616
vn 0.9093 -0.4159 -0.0128
vn -0.0204 -0.9434 -0.3310
vn -0.5242 -0.5972 -0.6072
vn 0.3209 -0.7722 -0.5484
vn -0.1841 -0.9662 -0.1807
vn -0.9686 -0.2110 -0.1314
vn 0.0954 0.7673 -0.6342
vn -0.6870 0.4275 -0.5877
vn -0.4001 0.8752 0.2718
vn 0.6150 0.7746 0.1472
vn -0.7257 0.2902 -0.6238
vn -0.6332 -0.5394 -0.5551
vn -0.9949 -0.0929 0.0391
vn -0.5517 0.8225 0.1385
vn -0.9377 -0.2755 -0.2118
vn -0.8323 0.4080 0.3753
vn 0.9947 -0.0133 -0.1023
vn 0.6609 0.7038 0.2606
vn -0.6192 0.4547 0.6402
vn 0.1675 0.6921 0.7021
vn 0.3277 -0.8868 -0.3259
vn 0.9358 -0.3520 -0.0221
vn 0.4882 0.5053 0.7116
vn 0.9840 0.1576 0.0835
vn -0.7845 -0.5709 -0.2421
vn -0.0272 -0.9843 -0.1745
vn 0.0744 -0.6905 -0.7194
vn -0.7290 -0.3783 -0.5705
vn -0.6048 -0.6033 0.5198
vn 0.3363 0.9304 0.1456
vn -0.5720 0.7717 0.2779
vn 0.9753 -0.1969 -0.1005
vn 0.4245 -0.5292 -0.7347
vn -0.8549 0.5164 0.0501
vn -0.9522 -0.3056 -0.0000
vn -0.4814 0.1356 0.8660
vn -0.7776 -0.5085 0.3698
vn -0.9395 0.2585 0.2246
vn 0.4611 0.1522 0.8742
vn -0.3878 0.1243 0.9133
vn 0.0351 0.7002 0.7131
vn 0.7913 -0.5429 0.2812
vn 0.5300 0.0483 0.8466
vn 0.9666 0.2180 0.1347
vn -0.7748 -0.5793 0.2530
vn -0.1059 -0.9931 -0.0511
vn -0.5926 -0.4709 -0.6536
vn 0.5603 -0.5998 0.5712
vn 0.0275 -0.9941 -0.1053
vn 0.7215 -0.6460 0.2494
vn 0.5317 -0.4968 -0.6859
vn 0.3778 0.1566 0.9125
vn -0.0824 0.4916 0.8669
vn -0.9490 0.0566 0.3101
vn -0.6833 0.0210 0.7298
vn 0.9984 0.0226 -0.0520
vn 0.8900 0.2305 0.3935
vn -0.0759 0.3823 0.9209
vn 0.3721 0.0571 0.9264
vn 0.2089 -0.0287 -0.9775
vn 0.6872 -0.2441 -0.6842
vn 0.8802 0.1100 0.4617
vn 0.9941 -0.1068 -0.0211
vn -0.8681 0.0328 -0.4954
vn -0.4916 -0.2552 -0.8326
vn 0.6956 -0.3732 -0.6138
vn 0.2113 -0.1418 -0.9671
vn -0.6963 0.1309 0.7057
vn -0.9596 0.1831 0.2137
vn -0.5223 -0.3951 -0.7557
vn -0.8836 -0.1067 -0.4559
vn 0.5424 0.1504 0.8266
vn 0.0796 0.4720 0.8780
vn -0.8296 -0.0220 0.5579
vn -0.4064 0.0434 0.9127
vn -0.3078 0.0445 0.9504
vn 0.9154 0.0536 -0.3989
vn 0.9816 0.1675 0.0916
vn 0.2083 0.0239 0.9778
vn 0.6145 0.0181 0.7887
vn 0.8216 0.0124 0.5700
vn 0.0172 -0.0401 -0.9990
vn 0.4646 -0.2887 -0.8371
vn 0.9968 -0.0588 0.0534
vn 0.8939 -0.1430 -0.4248
vn 0.7591 -0.1321 -0.6374
vn -0.9002 0.0449 -0.4332
vn -0.5805 -0.2495 -0.7751
vn 0.3246 -0.1590 -0.9324
vn -0.1340 -0.1786 -0.9747
vn -0.2747 -0.1590 -0.9483
vn -0.5773 0.1355 0.8052
vn -0.9377 0.2250 0.2648
vn -0.6976 -0.1360 -0.7034
vn -0.9856 -0.0986 -0.1370
vn -0.9928 -0.1026 -0.0621
vn 0.6820 -0.1393 -0.7179
vn 0.1878 -0.1517 -0.9704
vn -0.7304 -0.0176 -0.6828
vn -0.3410 -0.0115 -0.9400
vn -0.4518 -0.1207 -0.8839
vn -0.7967 -0.1343 -0.5893
vn -0.8578 0.0999 0.5041
vn -0.9949 0.0621 0.0795
vn -0.9646 -0.0392 0.2609
vn -0.7682 -0.0071 0.6402
vn 0.2204 0.1806 0.9585
vn -0.2367 0.1557 0.9590
vn 0.8718 -0.0169 0.4896
vn 0.9849 -0.0691 -0.1589
vn 0.3161 -0.0565 -0.9470
vn 0.7765 -0.0257 -0.6296
vn -0.1118 0.0724 0.9911
vn 0.3543 0.0644 0.9329
vn 0.9973 0.0721 0.0100
vn 0.7898 0.1038 0.6045
vn 0.7516 -0.3375 -0.5667
vn -0.0027 -0.3486 -0.9373
vn -0.4316 -0.0291 -0.9016
vn -0.4492 -0.0184 -0.8933
vn 0.3297 -0.1660 -0.9294
vn 0.7270 -0.1189 -0.6762
vn -0.2910 -0.4742 -0.8310
vn -0.9002 -0.0940 -0.4252
vn -0.9875 0.0816 0.1346
vn -0.9599 0.1222 0.2523
vn -0.7344 -0.1387 -0.6644
vn -0.2825 -0.1502 -0.9474
vn -0.9970 -0.0758 0.0184
vn -0.6076 0.3799 0.6975
vn -0.1142 0.1391 0.9837
vn -0.1021 0.1876 0.9769
vn -0.7892 0.0132 0.6140
vn -0.9984 -0.0570 0.0029
vn 0.8171 0.1599 0.5538
vn 0.9245 -0.0667 -0.3754
vn 0.6056 -0.0195 -0.7955
vn 0.6400 -0.0204 -0.7681
vn 0.9924 -0.0624 0.1058
vn 0.8198 0.0038 0.5727
vn -0.2685 0.3121 0.9113
vn 0.5652 0.4014 0.7207
vn 0.9016 0.1189 0.4158
vn 0.8555 0.1360 0.4996
vn 0.1943 0.0612 0.9790
vn -0.2473 0.0332 0.9684
vn 0.1446 -0.3239 -0.9350
vn -0.8875 -0.1056 -0.4486
vn -0.6726 0.3715 0.6400
vn 0.9938 -0.0166 -0.1096
vn 0.4177 0.4385 0.7958
vn 0.9941 0.1079 0.0109
vn 0.8157 0.1565 0.5569
vn 0.2108 0.3640 0.9073
vn 0.3730 -0.3210 -0.8706
vn 0.7650 -0.0126 -0.6439
vn 0.9972 -0.0334 0.0666
vn -0.7006 -0.2338 -0.6741
vn -0.2708 -0.0488 -0.9614
vn 0.3653 -0.4275 -0.8269
vn -0.8821 0.2455 0.4020
vn -0.9957 0.0453 -0.0808
vn -0.7030 -0.3533 -0.6173
vn 0.2048 0.4953 0.8442
vn -0.3099 0.1687 0.9357
vn -0.8766 0.1167 0.4669
vn 0.9955 0.0625 -0.0710
vn -0.8493 -0.4633 -0.2532
vn -0.9783 -0.1987 -0.0596
vn 0.2016 -0.3308 -0.9219
vn -0.7539 0.4273 0.4991
vn -0.5333 0.6218 0.5735
vn -0.8502 -0.1274 -0.5108
vn 0.4600 0.6055 0.6495
vn 0.5513 0.5888 0.5911
vn -0.6985 0.3740 0.6101
vn 0.9753 -0.2062 -0.0787
vn 0.9703 -0.2420 -0.0070
vn 0.3373 0.4774 0.8114
vn 0.1822 -0.8251 -0.5348
vn 0.0061 -0.8196 -0.5730
vn 0.9434 0.1594 0.2910
vn 0.9668 -0.1883 -0.1726
vn 0.6725 -0.5263 -0.5204
vn 0.5893 -0.6834 -0.4309
vn 0.0345 -0.4490 -0.8929
vn -0.5518 -0.5636 -0.6147
vn -0.7000 -0.5880 -0.4052
vn -0.9591 -0.1731 -0.2241
vn -0.9477 0.2896 0.1338
vn 0.1011 0.7425 0.6621
vn 0.5465 0.3055 0.7797
vn 0.9039 0.3436 0.2549
vn -0.8866 0.3143 0.3394
vn -0.5532 0.3067 0.7745
vn -0.0607 0.8221 0.5661
vn -0.6047 -0.3954 -0.6914
vn -0.8599 0.0297 -0.5096
vn -0.9947 0.1012 0.0198
vn 0.8308 -0.3425 -0.4388
vn 0.9810 -0.1245 -0.1487
vn 0.9488 0.1938 0.2494
vn -0.9142 0.0970 0.3935
vn -0.6852 0.1495 0.7129
vn -0.2917 0.4663 0.8352
vn -0.1683 -0.7041 -0.6899
vn 0.1756 -0.4715 -0.8642
vn 0.6272 -0.6448 -0.4368
vn 0.0175 0.3593 0.9330
vn 0.3227 0.1711 0.9309
vn 0.7364 0.3536 0.5767
vn -0.9699 -0.1028 -0.2208
vn -0.8430 -0.2782 -0.4605
vn -0.4989 -0.7252 -0.4745
vn 0.5405 -0.4162 -0.7312
vn 0.1983 -0.0552 -0.9786
vn -0.2693 -0.3309 -0.9044
vn 0.7900 0.5360 0.2976
vn 0.4393 0.3070 0.8443
vn -0.0448 0.7058 0.7070
vn 0.9336 0.0643 0.3525
vn 0.9975 0.0539 -0.0467
vn 0.8110 -0.1832 -0.5556
vn -0.4693 0.7289 0.4984
vn -0.7090 0.2194 0.6702
vn -0.9808 0.0786 0.1782
vn -0.9778 -0.0322 -0.2073
vn -0.4637 0.4273 0.7761
vn 0.6890 0.3886 0.6118
vn -0.1364 -0.3521 -0.9260
vn 0.8663 -0.1442 -0.4783
vn -0.5470 0.7037 0.4535
vn -0.8996 0.4355 0.0318
vn 0.5524 0.6811 0.4805
vn 0.0996 0.9795 0.1752
vn 0.9782 -0.1452 -0.1485
vn 0.9655 0.2593 0.0259
vn 0.0253 -0.6887 -0.7246
vn 0.5463 -0.7888 -0.2816
vn -0.9667 -0.1128 -0.2299
vn -0.6863 -0.6745 -0.2722
vn -0.2684 -0.4374 -0.8583
vn -0.7044 -0.4983 -0.5055
vn -0.9926 -0.1115 -0.0484
vn -0.8906 0.2384 0.3873
vn -0.3298 0.3483 0.8774
vn 0.1802 0.6002 0.7792
vn 0.7680 -0.3029 -0.5643
vn 0.3886 -0.6204 -0.6812
vn 0.7935 0.2117 0.5705
vn 0.9938 0.0278 0.1077
vn 0.8466 -0.4866 -0.2156
vn 0.4611 -0.6243 -0.6306
vn -0.6207 -0.5455 -0.5631
vn -0.1336 -0.4583 -0.8787
vn -0.1823 -0.9297 -0.3201
vn -0.6097 -0.5605 -0.5604
vn -0.9238 0.1988 0.3272
vn -0.9857 -0.1242 -0.1137
vn -0.9843 -0.1394 -0.1082
vn -0.9515 0.2777 0.1325
vn 0.0236 0.6057 0.7953
vn -0.4237 0.3333 0.8422
vn 0.7751 0.6265 0.0820
vn 0.9856 0.1691 -0.0013
vn 0.5370 -0.5820 -0.6107
vn 0.8809 -0.2564 -0.3979
vn -0.4647 0.8714 0.1574
vn 0.0937 0.8083 0.5812
vn 0.9423 0.1542 0.2971
vn 0.6270 0.2660 0.7322
# 671 vertex normals

vt 0.5900 0.7301 0.0000
vt 0.6111 0.7340 0.0000
vt 0.6074 0.7400 0.0000
vt 0.5948 0.7523 0.0000
vt 0.5856 0.7549 0.0000
vt 0.5768 0.7493 0.0000
vt 0.5700 0.7398 0.0000
vt 0.5679 0.7264 0.0000
vt 0.5249 0.9766 0.0000
vt 0.4851 0.9707 0.0000
vt 0.4851 0.9326 0.0000
vt 0.5249 0.9326 0.0000
vt 0.4851 0.8945 0.0000
vt 0.5249 0.8886 0.0000
vt 0.4870 0.7240 0.0000
vt 0.5237 0.7354 0.0000
vt 0.5179 0.7629 0.0000
vt 0.4787 0.7631 0.0000
vt 0.5240 0.7876 0.0000
vt 0.4873 0.7982 0.0000
vt 0.4697 0.6745 0.0000
vt 0.4556 0.6802 0.0000
vt 0.4286 0.6497 0.0000
vt 0.4412 0.6820 0.0000
vt 0.4270 0.6865 0.0000
vt 0.4331 0.7477 0.0000
vt 0.4343 0.7594 0.0000
vt 0.4001 0.7637 0.0000
vt 0.4388 0.7775 0.0000
vt 0.4385 0.7918 0.0000
vt 0.6098 0.7272 0.0000
vt 0.6023 0.7113 0.0000
vt 0.5947 0.7057 0.0000
vt 0.5844 0.7080 0.0000
vt 0.5747 0.7145 0.0000
vt 0.4141 0.8382 0.0000
vt 0.4581 0.8382 0.0000
vt 0.4581 0.8780 0.0000
vt 0.4200 0.8780 0.0000
vt 0.5020 0.8382 0.0000
vt 0.4961 0.8780 0.0000
vt 0.5738 0.8864 0.0000
vt 0.5337 0.8864 0.0000
vt 0.5421 0.8480 0.0000
vt 0.5702 0.8480 0.0000
vt 0.5013 0.8706 0.0000
vt 0.5192 0.8370 0.0000
vt 0.5588 0.9354 0.0000
vt 0.5848 0.8951 0.0000
vt 0.5740 0.9343 0.0000
vt 0.5877 0.9297 0.0000
vt 0.6024 0.9274 0.0000
vt 0.6329 0.8513 0.0000
vt 0.6330 0.8879 0.0000
vt 0.6219 0.8553 0.0000
vt 0.6036 0.8592 0.0000
vt 0.5909 0.8657 0.0000
vt 0.2565 0.9020 0.0000
vt 0.2197 0.8968 0.0000
vt 0.2415 0.8561 0.0000
vt 0.2539 0.8578 0.0000
vt 0.1913 0.8785 0.0000
vt 0.2320 0.8499 0.0000
vt 0.1788 0.8519 0.0000
vt 0.2278 0.8410 0.0000
vt 0.3229 0.8434 0.0000
vt 0.3161 0.8712 0.0000
vt 0.2738 0.8475 0.0000
vt 0.2761 0.8382 0.0000
vt 0.2917 0.8926 0.0000
vt 0.2657 0.8547 0.0000
vt 0.4261 0.6632 0.0000
vt 0.4253 0.6962 0.0000
vt 0.3929 0.6881 0.0000
vt 0.3932 0.6757 0.0000
vt 0.4105 0.7257 0.0000
vt 0.3873 0.6992 0.0000
vt 0.3858 0.7439 0.0000
vt 0.3780 0.7061 0.0000
vt 0.3577 0.7458 0.0000
vt 0.3674 0.7068 0.0000
vt 0.3338 0.7309 0.0000
vt 0.3584 0.7012 0.0000
vt 0.3204 0.7033 0.0000
vt 0.3534 0.6908 0.0000
vt 0.3213 0.6702 0.0000
vt 0.3537 0.6783 0.0000
vt 0.3360 0.6407 0.0000
vt 0.3593 0.6672 0.0000
vt 0.3608 0.6225 0.0000
vt 0.3686 0.6603 0.0000
vt 0.3889 0.6206 0.0000
vt 0.3792 0.6596 0.0000
vt 0.4128 0.6355 0.0000
vt 0.3882 0.6652 0.0000
vt 0.1279 0.6901 0.0000
vt 0.0909 0.6917 0.0000
vt 0.1013 0.6324 0.0000
vt 0.1579 0.6729 0.0000
vt 0.1727 0.6449 0.0000
vt 0.1860 0.5327 0.0000
vt 0.1909 0.5637 0.0000
vt 0.1158 0.5505 0.0000
vt 0.1623 0.5064 0.0000
vt 0.1285 0.4783 0.0000
vt 0.0871 0.4932 0.0000
vt 0.0558 0.5097 0.0000
vt 0.0406 0.5372 0.0000
vt 0.0343 0.6511 0.0000
vt 0.0299 0.6198 0.0000
vt 0.0566 0.6775 0.0000
vt 0.1945 0.5429 0.0000
vt 0.1945 0.5066 0.0000
vt 0.2270 0.4950 0.0000
vt 0.2270 0.5429 0.0000
vt 0.2189 0.9048 0.0000
vt 0.2534 0.9048 0.0000
vt 0.2626 0.9430 0.0000
vt 0.2171 0.9430 0.0000
vt 0.6362 0.3836 0.0000
vt 0.6362 0.4137 0.0000
vt 0.6037 0.4137 0.0000
vt 0.6037 0.3740 0.0000
vt 0.2103 0.4565 0.0000
vt 0.2040 0.4328 0.0000
vt 0.2370 0.4158 0.0000
vt 0.2450 0.4560 0.0000
vt 0.3794 0.8869 0.0000
vt 0.4247 0.8949 0.0000
vt 0.4320 0.9385 0.0000
vt 0.3705 0.9353 0.0000
vt 0.4620 0.8854 0.0000
vt 0.4811 0.9260 0.0000
vt 0.4149 0.7829 0.0000
vt 0.4065 0.8226 0.0000
vt 0.3626 0.8158 0.0000
vt 0.3738 0.7634 0.0000
vt 0.4153 0.8640 0.0000
vt 0.3672 0.8747 0.0000
vt 0.0730 0.4097 0.0000
vt 0.0591 0.4298 0.0000
vt 0.0266 0.4175 0.0000
vt 0.0479 0.3825 0.0000
vt 0.0325 0.7338 0.0000
vt 0.0335 0.7036 0.0000
vt 0.0663 0.6952 0.0000
vt 0.0649 0.7349 0.0000
vt 0.4815 0.4980 0.0000
vt 0.5160 0.4980 0.0000
vt 0.5177 0.5362 0.0000
vt 0.4722 0.5362 0.0000
vt 0.1945 0.5791 0.0000
vt 0.2270 0.5907 0.0000
vt 0.2755 0.4927 0.0000
vt 0.2755 0.5429 0.0000
vt 0.2270 0.4600 0.0000
vt 0.2755 0.4560 0.0000
vt 0.5552 0.4137 0.0000
vt 0.5552 0.3720 0.0000
vt 0.6037 0.6505 0.0000
vt 0.5552 0.6538 0.0000
vt 0.5552 0.6124 0.0000
vt 0.6037 0.6124 0.0000
vt 0.4304 0.9769 0.0000
vt 0.3656 0.9733 0.0000
vt 0.4819 0.9638 0.0000
vt 0.3237 0.8081 0.0000
vt 0.3354 0.7530 0.0000
vt 0.3286 0.8699 0.0000
vt 0.0580 0.9334 0.0000
vt 0.1065 0.9351 0.0000
vt 0.1050 0.9765 0.0000
vt 0.0566 0.9716 0.0000
vt 0.1149 0.6949 0.0000
vt 0.1134 0.7366 0.0000
vt 0.2755 0.5930 0.0000
vt 0.2755 0.6297 0.0000
vt 0.2270 0.6257 0.0000
vt 0.3240 0.5066 0.0000
vt 0.3240 0.5429 0.0000
vt 0.1655 0.9111 0.0000
vt 0.2048 0.9365 0.0000
vt 0.5067 0.4137 0.0000
vt 0.5067 0.3836 0.0000
vt 0.4912 0.4351 0.0000
vt 0.4439 0.4461 0.0000
vt 0.4192 0.4071 0.0000
vt 0.4869 0.3914 0.0000
vt 0.4795 0.4971 0.0000
vt 0.4402 0.4918 0.0000
vt 0.4571 0.5396 0.0000
vt 0.4240 0.5225 0.0000
vt 0.3861 0.5200 0.0000
vt 0.3730 0.5577 0.0000
vt 0.3325 0.5534 0.0000
vt 0.3301 0.5141 0.0000
vt 0.4439 0.5386 0.0000
vt 0.4101 0.5738 0.0000
vt 0.4704 0.5577 0.0000
vt 0.4287 0.6121 0.0000
vt 0.1629 0.7082 0.0000
vt 0.1619 0.7383 0.0000
vt 0.3360 0.6297 0.0000
vt 0.2817 0.6275 0.0000
vt 0.2817 0.5930 0.0000
vt 0.3360 0.5819 0.0000
vt 0.3240 0.5791 0.0000
vt 0.1111 0.5769 0.0000
vt 0.1874 0.5904 0.0000
vt 0.0348 0.5635 0.0000
vt 0.1915 0.4642 0.0000
vt 0.1867 0.5141 0.0000
vt 0.1716 0.4317 0.0000
vt 0.1396 0.4154 0.0000
vt 0.1039 0.4197 0.0000
vt 0.0741 0.4435 0.0000
vt 0.0616 0.4920 0.0000
vt 0.1963 0.4369 0.0000
vt 0.1930 0.4786 0.0000
vt 0.1765 0.4044 0.0000
vt 0.1396 0.4155 0.0000
vt 0.1087 0.3925 0.0000
vt 0.0789 0.4162 0.0000
vt 0.0677 0.4566 0.0000
vt 0.0279 0.8650 0.0000
vt 0.0603 0.8661 0.0000
vt 0.0591 0.9021 0.0000
vt 0.0266 0.9010 0.0000
vt 0.1088 0.8678 0.0000
vt 0.1076 0.9038 0.0000
vt 0.1403 0.8714 0.0000
vt 0.1646 0.9104 0.0000
vt 0.1928 0.6523 0.0000
vt 0.2234 0.6620 0.0000
vt 0.2157 0.7084 0.0000
vt 0.1827 0.6975 0.0000
vt 0.2548 0.6718 0.0000
vt 0.2496 0.7195 0.0000
vt 0.2873 0.6688 0.0000
vt 0.2849 0.7158 0.0000
vt 0.3188 0.6658 0.0000
vt 0.3192 0.7121 0.0000
vt 0.5237 0.5475 0.0000
vt 0.5552 0.5450 0.0000
vt 0.5552 0.5810 0.0000
vt 0.4980 0.5857 0.0000
vt 0.6037 0.5450 0.0000
vt 0.6037 0.5810 0.0000
vt 0.6362 0.5450 0.0000
vt 0.6362 0.5810 0.0000
vt 0.1675 0.7903 0.0000
vt 0.2301 0.8317 0.0000
vt 0.2084 0.7815 0.0000
vt 0.2383 0.8245 0.0000
vt 0.2445 0.7724 0.0000
vt 0.2501 0.8214 0.0000
vt 0.2804 0.7773 0.0000
vt 0.2624 0.8231 0.0000
vt 0.3214 0.7813 0.0000
vt 0.2720 0.8293 0.0000
vt 0.2597 0.9757 0.0000
vt 0.2179 0.9763 0.0000
vt 0.2201 0.9473 0.0000
vt 0.2583 0.9467 0.0000
vt 0.1806 0.9780 0.0000
vt 0.1807 0.9478 0.0000
vt 0.1466 0.9770 0.0000
vt 0.1439 0.9481 0.0000
vt 0.1074 0.9773 0.0000
vt 0.1081 0.9483 0.0000
vt 0.8979 0.1441 0.0000
vt 0.9225 0.2235 0.0000
vt 0.8386 0.2235 0.0000
vt 0.8241 0.1441 0.0000
vt 0.3677 0.4389 0.0000
vt 0.3743 0.3992 0.0000
vt 0.4165 0.3992 0.0000
vt 0.4042 0.4389 0.0000
vt 0.8038 0.0875 0.0000
vt 0.7394 0.1441 0.0000
vt 0.7394 0.0875 0.0000
vt 0.8510 0.0875 0.0000
vt 0.1951 0.4083 0.0000
vt 0.1913 0.3725 0.0000
vt 0.2372 0.3720 0.0000
vt 0.2258 0.4088 0.0000
vt 0.3249 0.4672 0.0000
vt 0.3249 0.4389 0.0000
vt 0.3571 0.4672 0.0000
vt 0.4760 0.7500 0.0000
vt 0.4765 0.7862 0.0000
vt 0.4594 0.7837 0.0000
vt 0.4557 0.7551 0.0000
vt 0.6190 0.7355 0.0000
vt 0.6123 0.7426 0.0000
vt 0.5969 0.7553 0.0000
vt 0.8952 0.2746 0.0000
vt 0.8151 0.2713 0.0000
vt 0.5504 0.9336 0.0000
vt 0.5504 0.9626 0.0000
vt 0.3684 0.9238 0.0000
vt 0.3343 0.9118 0.0000
vt 0.3492 0.8757 0.0000
vt 0.3799 0.8792 0.0000
vt 0.3384 0.9628 0.0000
vt 0.3063 0.9439 0.0000
vt 0.3413 0.5095 0.0000
vt 0.3043 0.4967 0.0000
vt 0.3164 0.4758 0.0000
vt 0.3396 0.4787 0.0000
vt 0.3214 0.9081 0.0000
vt 0.2958 0.9372 0.0000
vt 0.2793 0.9196 0.0000
vt 0.2935 0.8997 0.0000
vt 0.2789 0.9565 0.0000
vt 0.2623 0.9296 0.0000
vt 0.7394 0.2706 0.0000
vt 0.8122 0.2837 0.0000
vt 0.7394 0.2839 0.0000
vt 0.8908 0.2840 0.0000
vt 0.4529 0.7406 0.0000
vt 0.4302 0.7473 0.0000
vt 0.4505 0.7386 0.0000
vt 0.4616 0.7948 0.0000
vt 0.4641 0.7985 0.0000
vt 0.4391 0.7940 0.0000
vt 0.6443 0.5782 0.0000
vt 0.6388 0.5740 0.0000
vt 0.6379 0.5524 0.0000
vt 0.6421 0.5550 0.0000
vt 0.4825 0.6947 0.0000
vt 0.4689 0.6986 0.0000
vt 0.4436 0.7068 0.0000
vt 0.4276 0.7082 0.0000
vt 0.4914 0.7152 0.0000
vt 0.4927 0.7184 0.0000
vt 0.4721 0.7263 0.0000
vt 0.4708 0.7223 0.0000
vt 0.5744 0.7508 0.0000
vt 0.5658 0.7402 0.0000
vt 0.5626 0.7255 0.0000
vt 0.3343 0.8840 0.0000
vt 0.3442 0.8807 0.0000
vt 0.3288 0.9103 0.0000
vt 0.3016 0.9411 0.0000
vt 0.2827 0.9633 0.0000
vt 0.4319 0.1645 0.0000
vt 0.3583 0.1929 0.0000
vt 0.3540 0.1841 0.0000
vt 0.4337 0.1542 0.0000
vt 0.3192 0.2279 0.0000
vt 0.3059 0.2256 0.0000
vt 0.3232 0.2828 0.0000
vt 0.3065 0.2999 0.0000
vt 0.4051 0.3161 0.0000
vt 0.4014 0.3372 0.0000
vt 0.3106 0.1065 0.0000
vt 0.2989 0.1398 0.0000
vt 0.2237 0.1410 0.0000
vt 0.2321 0.0934 0.0000
vt 0.3249 0.3990 0.0000
vt 0.3249 0.3739 0.0000
vt 0.3536 0.3736 0.0000
vt 0.2942 0.0751 0.0000
vt 0.2430 0.0318 0.0000
vt 0.7702 0.2261 0.0000
vt 0.7750 0.2071 0.0000
vt 0.7394 0.2327 0.0000
vt 0.2483 0.0016 0.0000
vt 0.3130 0.0569 0.0000
vt 0.3440 0.1123 0.0000
vt 0.3180 0.1820 0.0000
vt 0.2160 0.1845 0.0000
vt 0.7634 0.1924 0.0000
vt 0.5859 0.7574 0.0000
vt 0.4805 0.7240 0.0000
vt 0.4806 0.7268 0.0000
vt 0.4796 0.7138 0.0000
vt 0.4888 0.7095 0.0000
vt 0.6076 0.8055 0.0000
vt 0.5755 0.8093 0.0000
vt 0.5774 0.7785 0.0000
vt 0.6026 0.7773 0.0000
vt 0.3016 0.8872 0.0000
vt 0.4490 0.7279 0.0000
vt 0.5551 0.9617 0.0000
vt 0.5552 0.9345 0.0000
vt 0.5835 0.7571 0.0000
vt 0.4775 0.7944 0.0000
vt 0.4798 0.7996 0.0000
vt 0.4277 0.7406 0.0000
vt 0.5624 0.7678 0.0000
vt 0.5729 0.7782 0.0000
vt 0.5485 0.7465 0.0000
vt 0.5465 0.7230 0.0000
vt 0.6110 0.5918 0.0000
vt 0.6123 0.5873 0.0000
vt 0.6389 0.5871 0.0000
vt 0.6449 0.5918 0.0000
vt 0.3932 0.3736 0.0000
vt 0.3516 0.3688 0.0000
vt 0.3899 0.3691 0.0000
vt 0.3249 0.3688 0.0000
vt 0.5220 0.7046 0.0000
vt 0.5239 0.7067 0.0000
vt 0.3979 0.7647 0.0000
vt 0.6436 0.5044 0.0000
vt 0.6461 0.5045 0.0000
vt 0.4376 0.7382 0.0000
vt 0.4367 0.7359 0.0000
vt 0.6363 0.7390 0.0000
vt 0.6263 0.7604 0.0000
vt 0.5811 0.8170 0.0000
vt 0.6094 0.8125 0.0000
vt 0.8782 0.2945 0.0000
vt 0.8054 0.2946 0.0000
vt 0.7394 0.2952 0.0000
vt 0.6339 0.7732 0.0000
vt 0.7394 0.1779 0.0000
vt 0.5808 0.1441 0.0000
vt 0.6547 0.1441 0.0000
vt 0.6401 0.2235 0.0000
vt 0.5563 0.2235 0.0000
vt 0.2820 0.4389 0.0000
vt 0.2455 0.4389 0.0000
vt 0.2333 0.3992 0.0000
vt 0.2755 0.3992 0.0000
vt 0.6749 0.0875 0.0000
vt 0.6278 0.0875 0.0000
vt 0.6408 0.6051 0.0000
vt 0.6413 0.6357 0.0000
vt 0.6046 0.6472 0.0000
vt 0.6050 0.6013 0.0000
vt 0.2926 0.4672 0.0000
vt 0.6120 0.8137 0.0000
vt 0.6163 0.8342 0.0000
vt 0.5890 0.8434 0.0000
vt 0.5793 0.8290 0.0000
vt 0.6152 0.7266 0.0000
vt 0.6053 0.7094 0.0000
vt 0.6636 0.2713 0.0000
vt 0.5836 0.2746 0.0000
vt 0.4281 0.8126 0.0000
vt 0.4571 0.8127 0.0000
vt 0.5310 0.6654 0.0000
vt 0.5096 0.7062 0.0000
vt 0.4846 0.6883 0.0000
vt 0.4977 0.6514 0.0000
vt 0.5348 0.6163 0.0000
vt 0.4983 0.6089 0.0000
vt 0.3588 0.4754 0.0000
vt 0.3657 0.4961 0.0000
vt 0.4856 0.6455 0.0000
vt 0.4592 0.6332 0.0000
vt 0.4620 0.6088 0.0000
vt 0.4861 0.6068 0.0000
vt 0.4560 0.5901 0.0000
vt 0.4863 0.5812 0.0000
vt 0.6665 0.2837 0.0000
vt 0.5880 0.2840 0.0000
vt 0.6306 0.8303 0.0000
vt 0.6335 0.8316 0.0000
vt 0.6345 0.8537 0.0000
vt 0.5780 0.8463 0.0000
vt 0.5886 0.8662 0.0000
vt 0.5737 0.8456 0.0000
vt 0.1633 0.7396 0.0000
vt 0.1663 0.7165 0.0000
vt 0.1706 0.7140 0.0000
vt 0.1690 0.7355 0.0000
vt 0.5561 0.9592 0.0000
vt 0.5701 0.9567 0.0000
vt 0.5964 0.9530 0.0000
vt 0.6114 0.9472 0.0000
vt 0.0337 0.4572 0.0000
vt 0.0341 0.4789 0.0000
vt 0.0299 0.4791 0.0000
vt 0.0303 0.4570 0.0000
vt 0.5827 0.7059 0.0000
vt 0.5708 0.7128 0.0000
vt 0.4925 0.6490 0.0000
vt 0.4842 0.6812 0.0000
vt 0.4790 0.6721 0.0000
vt 0.4929 0.6078 0.0000
vt 0.4937 0.5787 0.0000
vt 0.4983 0.2095 0.0000
vt 0.4913 0.2163 0.0000
vt 0.5294 0.2650 0.0000
vt 0.5160 0.2626 0.0000
vt 0.5033 0.3346 0.0000
vt 0.4935 0.3129 0.0000
vt 0.1539 0.0789 0.0000
vt 0.1535 0.1142 0.0000
vt 0.2962 0.3736 0.0000
vt 0.1800 0.0550 0.0000
vt 0.7038 0.2071 0.0000
vt 0.7086 0.2261 0.0000
vt 0.1686 0.0315 0.0000
vt 0.1205 0.0729 0.0000
vt 0.1211 0.1473 0.0000
vt 0.7153 0.1924 0.0000
vt 0.5957 0.7037 0.0000
vt 0.6335 0.7982 0.0000
vt 0.6309 0.7994 0.0000
vt 0.5671 0.9751 0.0000
vt 0.5569 0.9752 0.0000
vt 0.6328 0.6691 0.0000
vt 0.6183 0.6917 0.0000
vt 0.5952 0.6819 0.0000
vt 0.6040 0.6544 0.0000
vt 0.4569 0.6478 0.0000
vt 0.6008 0.9744 0.0000
vt 0.4289 0.8080 0.0000
vt 0.4561 0.8079 0.0000
vt 0.5935 0.7031 0.0000
vt 0.5715 0.8318 0.0000
vt 0.5658 0.8320 0.0000
vt 0.6255 0.9764 0.0000
vt 0.5773 0.6867 0.0000
vt 0.5908 0.6809 0.0000
vt 0.5568 0.7018 0.0000
vt 0.1961 0.7543 0.0000
vt 0.1622 0.7532 0.0000
vt 0.1684 0.7487 0.0000
vt 0.1950 0.7498 0.0000
vt 0.2565 0.3736 0.0000
vt 0.2598 0.3691 0.0000
vt 0.2981 0.3688 0.0000
vt 0.0306 0.4237 0.0000
vt 0.0332 0.4248 0.0000
vt 0.6331 0.8903 0.0000
vt 0.1641 0.6658 0.0000
vt 0.1666 0.6659 0.0000
vt 0.0330 0.5157 0.0000
vt 0.0306 0.5156 0.0000
vt 0.6345 0.7157 0.0000
vt 0.6119 0.6497 0.0000
vt 0.6368 0.6637 0.0000
vt 0.6734 0.2946 0.0000
vt 0.6006 0.2945 0.0000
vt 0.5557 0.6554 0.0000
vt 0.5797 0.6529 0.0000
vt 0.5800 0.6819 0.0000
vt 0.5497 0.6964 0.0000
vt 0.0629 0.7912 0.0000
vt 0.0305 0.7900 0.0000
vt 0.1114 0.7928 0.0000
vt 0.1588 0.8071 0.0000
vt 0.5552 0.4700 0.0000
vt 0.5073 0.4827 0.0000
vt 0.6037 0.4700 0.0000
vt 0.6362 0.4700 0.0000
vt 0.0620 0.8180 0.0000
vt 0.0296 0.8169 0.0000
vt 0.1105 0.8197 0.0000
vt 0.1417 0.8305 0.0000
vt 0.3815 0.6099 0.0000
vt 0.3419 0.6142 0.0000
vt 0.3753 0.4811 0.0000
vt 0.3985 0.4561 0.0000
vt 0.5552 0.4969 0.0000
vt 0.5236 0.5066 0.0000
vt 0.6037 0.4969 0.0000
vt 0.6362 0.4969 0.0000
vt 0.1854 0.6174 0.0000
vt 0.2222 0.6278 0.0000
vt 0.2601 0.6383 0.0000
vt 0.2990 0.6360 0.0000
vt 0.3368 0.6337 0.0000
vt 0.1827 0.3919 0.0000
vt 0.1472 0.3720 0.0000
vt 0.1071 0.3786 0.0000
vt 0.5968 0.8822 0.0000
vt 0.6331 0.8940 0.0000
vt 0.6351 0.9352 0.0000
vt 0.5949 0.9101 0.0000
vt 0.1638 0.9325 0.0000
vt 0.2050 0.7554 0.0000
vt 0.1719 0.7148 0.0000
vt 0.2428 0.7681 0.0000
vt 0.2822 0.7636 0.0000
vt 0.3242 0.7311 0.0000
vt 0.4980 0.6078 0.0000
vt 0.1461 0.8654 0.0000
vt 0.1461 0.8273 0.0000
vt 0.1732 0.8340 0.0000
vt 0.1847 0.8800 0.0000
vt 0.7045 0.6690 0.0000
vt 0.7002 0.6884 0.0000
vt 0.6961 0.6870 0.0000
vt 0.7192 0.6822 0.0000
vt 0.7128 0.6865 0.0000
vt 0.7217 0.6787 0.0000
vt 0.7237 0.6711 0.0000
vt 0.7188 0.6546 0.0000
vt 0.7213 0.6581 0.0000
vt 0.7078 0.6491 0.0000
vt 0.7126 0.6505 0.0000
vt 0.6962 0.6504 0.0000
vt 0.7003 0.6491 0.0000
vt 0.6871 0.6593 0.0000
vt 0.6901 0.6552 0.0000
vt 0.6844 0.6709 0.0000
vt 0.6844 0.6665 0.0000
vt 0.6900 0.6823 0.0000
vt 0.6870 0.6781 0.0000
vt 0.7863 0.4238 0.0000
vt 0.7873 0.4238 0.0000
vt 0.7857 0.4773 0.0000
vt 0.7864 0.4773 0.0000
vt 0.8055 0.4238 0.0000
vt 0.8088 0.4238 0.0000
vt 0.7977 0.4774 0.0000
vt 0.7948 0.4773 0.0000
vt 0.8273 0.4239 0.0000
vt 0.8284 0.4239 0.0000
vt 0.8232 0.4774 0.0000
vt 0.8207 0.4774 0.0000
vt 0.7430 0.4237 0.0000
vt 0.7457 0.4237 0.0000
vt 0.7380 0.4772 0.0000
vt 0.7366 0.4772 0.0000
vt 0.7682 0.4238 0.0000
vt 0.7709 0.4238 0.0000
vt 0.7608 0.4773 0.0000
vt 0.7575 0.4773 0.0000
vt 0.6771 0.6999 0.0000
vt 0.6806 0.6973 0.0000
vt 0.6906 0.7145 0.0000
vt 0.6880 0.6952 0.0000
vt 0.6931 0.6952 0.0000
vt 0.7005 0.6974 0.0000
vt 0.7040 0.6999 0.0000
vt 0.7082 0.7067 0.0000
vt 0.7097 0.7118 0.0000
vt 0.7099 0.7197 0.0000
vt 0.7086 0.7238 0.0000
vt 0.7039 0.7296 0.0000
vt 0.6998 0.7324 0.0000
vt 0.6926 0.7347 0.0000
vt 0.6883 0.7347 0.0000
vt 0.6811 0.7320 0.0000
vt 0.6769 0.7290 0.0000
vt 0.6722 0.7229 0.0000
vt 0.6709 0.7188 0.0000
vt 0.6712 0.7111 0.0000
vt 0.6728 0.7062 0.0000
vt 0.6993 0.6897 0.0000
vt 0.6961 0.6886 0.0000
vt 0.7889 0.4238 0.0000
vt 0.7871 0.4773 0.0000
vt 0.6766 0.6983 0.0000
vt 0.6793 0.6964 0.0000
vt 0.8197 0.8521 0.0000
vt 0.8255 0.7986 0.0000
vt 0.8271 0.7986 0.0000
vt 0.8212 0.8521 0.0000
vt 0.7227 0.6801 0.0000
vt 0.7207 0.6828 0.0000
vt 0.8093 0.4238 0.0000
vt 0.7989 0.4773 0.0000
vt 0.7018 0.6964 0.0000
vt 0.7045 0.6984 0.0000
vt 0.8247 0.8521 0.0000
vt 0.8183 0.7986 0.0000
vt 0.8187 0.7986 0.0000
vt 0.8258 0.8521 0.0000
vt 0.7203 0.6541 0.0000
vt 0.7223 0.6568 0.0000
vt 0.7371 0.4237 0.0000
vt 0.7413 0.4772 0.0000
vt 0.7406 0.4772 0.0000
vt 0.7357 0.4237 0.0000
vt 0.7113 0.7207 0.0000
vt 0.7102 0.7239 0.0000
vt 0.7586 0.8520 0.0000
vt 0.7682 0.7985 0.0000
vt 0.7696 0.7985 0.0000
vt 0.7594 0.8520 0.0000
vt 0.6962 0.6488 0.0000
vt 0.6994 0.6478 0.0000
vt 0.7470 0.4237 0.0000
vt 0.7396 0.4772 0.0000
vt 0.6921 0.7363 0.0000
vt 0.6888 0.7362 0.0000
vt 0.7753 0.8520 0.0000
vt 0.7749 0.7985 0.0000
vt 0.7761 0.7985 0.0000
vt 0.7769 0.8520 0.0000
vt 0.6829 0.6704 0.0000
vt 0.6829 0.6670 0.0000
vt 0.7937 0.4238 0.0000
vt 0.8027 0.4774 0.0000
vt 0.8031 0.4774 0.0000
vt 0.7932 0.4238 0.0000
vt 0.6706 0.7230 0.0000
vt 0.6695 0.7198 0.0000
vt 0.7963 0.8521 0.0000
vt 0.8064 0.7986 0.0000
vt 0.8071 0.7986 0.0000
vt 0.7962 0.8521 0.0000
vt 0.7731 0.8520 0.0000
vt 0.7711 0.8520 0.0000
vt 0.7769 0.7985 0.0000
vt 0.7774 0.7985 0.0000
vt 0.7887 0.8521 0.0000
vt 0.7871 0.8521 0.0000
vt 0.7944 0.7985 0.0000
vt 0.7972 0.7985 0.0000
vt 0.8125 0.8521 0.0000
vt 0.8093 0.8521 0.0000
vt 0.8196 0.7986 0.0000
vt 0.8220 0.7986 0.0000
vt 0.7491 0.8520 0.0000
vt 0.7459 0.8520 0.0000
vt 0.7568 0.7985 0.0000
vt 0.7602 0.7985 0.0000
vt 0.7343 0.8519 0.0000
vt 0.7346 0.8519 0.0000
vt 0.7357 0.7984 0.0000
vt 0.7370 0.7984 0.0000
vt 0.7435 0.4237 0.0000
vt 0.7379 0.4772 0.0000
vt 0.7371 0.4772 0.0000
vt 0.7391 0.4237 0.0000
vt 0.7628 0.8520 0.0000
vt 0.7714 0.7985 0.0000
vt 0.7748 0.7985 0.0000
vt 0.7690 0.8520 0.0000
vt 0.7669 0.4237 0.0000
vt 0.7568 0.4772 0.0000
vt 0.7494 0.4772 0.0000
vt 0.7595 0.4237 0.0000
vt 0.7864 0.8521 0.0000
vt 0.7892 0.7985 0.0000
vt 0.7946 0.7985 0.0000
vt 0.7883 0.8521 0.0000
vt 0.7765 0.4238 0.0000
vt 0.7759 0.4773 0.0000
vt 0.7718 0.4773 0.0000
vt 0.7762 0.4238 0.0000
vt 0.8003 0.8521 0.0000
vt 0.8107 0.7986 0.0000
vt 0.8176 0.7986 0.0000
vt 0.8080 0.8521 0.0000
vt 0.8257 0.4239 0.0000
vt 0.8193 0.4774 0.0000
vt 0.8120 0.4774 0.0000
vt 0.8209 0.4239 0.0000
vt 0.7396 0.8520 0.0000
vt 0.7478 0.7984 0.0000
vt 0.7556 0.7985 0.0000
vt 0.7458 0.8520 0.0000
vt 0.8050 0.4238 0.0000
vt 0.7952 0.4773 0.0000
vt 0.7902 0.4773 0.0000
vt 0.7978 0.4238 0.0000
vt 0.8226 0.8521 0.0000
vt 0.8264 0.7986 0.0000
vt 0.8253 0.7986 0.0000
vt 0.8255 0.8521 0.0000
vt 0.7092 0.6475 0.0000
vt 0.7123 0.6484 0.0000
vt 0.7353 0.4772 0.0000
vt 0.7370 0.4237 0.0000
vt 0.7042 0.7317 0.0000
vt 0.7016 0.7335 0.0000
vt 0.6861 0.6574 0.0000
vt 0.6880 0.6548 0.0000
vt 0.7476 0.4772 0.0000
vt 0.7586 0.4237 0.0000
vt 0.6792 0.7330 0.0000
vt 0.6765 0.7311 0.0000
vt 0.7738 0.8520 0.0000
vt 0.7678 0.7985 0.0000
vt 0.7680 0.7985 0.0000
vt 0.7750 0.8520 0.0000
vt 0.6879 0.6827 0.0000
vt 0.6860 0.6800 0.0000
vt 0.7879 0.4238 0.0000
vt 0.7920 0.4773 0.0000
vt 0.7914 0.4773 0.0000
vt 0.6696 0.7096 0.0000
vt 0.6706 0.7065 0.0000
vt 0.7236 0.6658 0.0000
vt 0.7255 0.6667 0.0000
vt 0.7256 0.6701 0.0000
vt 0.8113 0.4774 0.0000
vt 0.8213 0.4239 0.0000
vt 0.7103 0.7070 0.0000
vt 0.7113 0.7103 0.0000
vt 0.7079 0.6881 0.0000
vt 0.7125 0.6887 0.0000
vt 0.7094 0.6897 0.0000
vt 0.7881 0.4773 0.0000
vt 0.7959 0.4238 0.0000
vt 0.6889 0.6933 0.0000
vt 0.6922 0.6933 0.0000
vt 0.8267 0.7986 0.0000
vt 0.8275 0.8522 0.0000
vt 0.7537 0.6378 0.0000
vt 0.7432 0.6914 0.0000
vt 0.7407 0.6914 0.0000
vt 0.7504 0.6378 0.0000
vt 0.7759 0.6379 0.0000
vt 0.7684 0.6914 0.0000
vt 0.7655 0.6914 0.0000
vt 0.7742 0.6379 0.0000
vt 0.7923 0.6379 0.0000
vt 0.7861 0.6915 0.0000
vt 0.7854 0.6915 0.0000
vt 0.7901 0.6379 0.0000
vt 0.8169 0.6380 0.0000
vt 0.8060 0.6915 0.0000
vt 0.8027 0.6915 0.0000
vt 0.8138 0.6380 0.0000
vt 0.8278 0.6380 0.0000
vt 0.8268 0.6915 0.0000
vt 0.8255 0.6915 0.0000
vt 0.8281 0.6380 0.0000
vt 0.7545 0.6378 0.0000
vt 0.7446 0.6914 0.0000
vt 0.7502 0.6378 0.0000
vt 0.7607 0.5843 0.0000
vt 0.7617 0.5843 0.0000
vt 0.7883 0.6379 0.0000
vt 0.7948 0.6915 0.0000
vt 0.7944 0.6915 0.0000
vt 0.7872 0.6379 0.0000
vt 0.7726 0.6379 0.0000
vt 0.7765 0.5844 0.0000
vt 0.7781 0.5844 0.0000
vt 0.7938 0.6379 0.0000
vt 0.7877 0.6915 0.0000
vt 0.7722 0.6379 0.0000
vt 0.7641 0.5843 0.0000
vt 0.7730 0.6379 0.0000
vt 0.8167 0.6380 0.0000
vt 0.8067 0.6915 0.0000
vt 0.8127 0.6380 0.0000
vt 0.8215 0.5845 0.0000
vt 0.8230 0.5845 0.0000
vt 0.7370 0.6378 0.0000
vt 0.7373 0.6913 0.0000
vt 0.7360 0.6913 0.0000
vt 0.7353 0.6378 0.0000
vt 0.8266 0.6380 0.0000
vt 0.8240 0.5845 0.0000
vt 0.8250 0.5845 0.0000
vt 0.8009 0.6380 0.0000
vt 0.8123 0.5844 0.0000
vt 0.8153 0.5844 0.0000
vt 0.8041 0.6380 0.0000
vt 0.8243 0.6380 0.0000
vt 0.8280 0.5845 0.0000
vt 0.8259 0.6380 0.0000
vt 0.7395 0.6378 0.0000
vt 0.7485 0.5843 0.0000
vt 0.7516 0.5843 0.0000
vt 0.7417 0.6378 0.0000
vt 0.7854 0.6379 0.0000
vt 0.7888 0.5844 0.0000
vt 0.7909 0.5844 0.0000
vt 0.7859 0.6379 0.0000
vt 0.7637 0.6379 0.0000
vt 0.7730 0.5844 0.0000
vt 0.7749 0.5844 0.0000
vt 0.7667 0.6379 0.0000
vt 0.8024 0.6915 0.0000
vt 0.7955 0.6915 0.0000
vt 0.8053 0.6380 0.0000
vt 0.8034 0.5844 0.0000
vt 0.8108 0.5844 0.0000
vt 0.8004 0.6380 0.0000
vt 0.8238 0.6915 0.0000
vt 0.8185 0.6915 0.0000
vt 0.8247 0.6380 0.0000
vt 0.8261 0.5845 0.0000
vt 0.8222 0.6380 0.0000
vt 0.7414 0.6914 0.0000
vt 0.7378 0.6913 0.0000
vt 0.7437 0.6378 0.0000
vt 0.7419 0.5843 0.0000
vt 0.7482 0.5843 0.0000
vt 0.7403 0.6378 0.0000
vt 0.7909 0.6379 0.0000
vt 0.7868 0.6915 0.0000
vt 0.7878 0.6915 0.0000
vt 0.7879 0.6379 0.0000
vt 0.7868 0.5844 0.0000
vt 0.7898 0.5844 0.0000
vt 0.7643 0.6914 0.0000
vt 0.7568 0.6914 0.0000
vt 0.7648 0.5843 0.0000
vt 0.7709 0.5843 0.0000
vt 0.7621 0.6379 0.0000
vt 0.7936 0.6915 0.0000
vt 0.7384 0.6378 0.0000
vt 0.7443 0.6914 0.0000
vt 0.7442 0.6914 0.0000
vt 0.7372 0.6378 0.0000
vt 0.7357 0.6913 0.0000
vt 0.8228 0.6380 0.0000
vt 0.8151 0.5844 0.0000
vt 0.8148 0.5844 0.0000
vt 0.8236 0.6380 0.0000
vt 0.7864 0.6915 0.0000
vt 0.7736 0.5844 0.0000
vt 0.7745 0.5844 0.0000
vt 0.7777 0.6379 0.0000
vt 0.7557 0.6914 0.0000
vt 0.7738 0.5308 0.0000
vt 0.7649 0.5843 0.0000
vt 0.7716 0.5308 0.0000
vt 0.7891 0.5309 0.0000
vt 0.7853 0.5844 0.0000
vt 0.7874 0.5309 0.0000
vt 0.8137 0.5309 0.0000
vt 0.8024 0.5844 0.0000
vt 0.7993 0.5844 0.0000
vt 0.8105 0.5309 0.0000
vt 0.8283 0.5310 0.0000
vt 0.8279 0.5310 0.0000
vt 0.7496 0.5308 0.0000
vt 0.7403 0.5843 0.0000
vt 0.7383 0.5843 0.0000
vt 0.7465 0.5308 0.0000
vt 0.7906 0.5309 0.0000
vt 0.7985 0.5844 0.0000
vt 0.7898 0.5309 0.0000
vt 0.8261 0.7451 0.0000
vt 0.8215 0.6915 0.0000
vt 0.8222 0.6915 0.0000
vt 0.8274 0.7451 0.0000
vt 0.7907 0.5309 0.0000
vt 0.7539 0.7449 0.0000
vt 0.7544 0.7449 0.0000
vt 0.8139 0.5309 0.0000
vt 0.7746 0.7450 0.0000
vt 0.7761 0.6914 0.0000
vt 0.7775 0.6914 0.0000
vt 0.7763 0.7450 0.0000
vt 0.7368 0.5307 0.0000
vt 0.7393 0.5843 0.0000
vt 0.7353 0.5307 0.0000
vt 0.7695 0.7449 0.0000
vt 0.7605 0.6914 0.0000
vt 0.7602 0.6914 0.0000
vt 0.7700 0.7449 0.0000
vt 0.7507 0.5308 0.0000
vt 0.8165 0.7451 0.0000
vt 0.8178 0.7451 0.0000
vt 0.7855 0.7450 0.0000
vt 0.7912 0.6915 0.0000
vt 0.7866 0.7450 0.0000
vt 0.8049 0.7450 0.0000
vt 0.8158 0.6915 0.0000
vt 0.8187 0.6915 0.0000
vt 0.8082 0.7450 0.0000
vt 0.8264 0.7451 0.0000
vt 0.8278 0.6915 0.0000
vt 0.8271 0.6915 0.0000
vt 0.7675 0.7449 0.0000
vt 0.7751 0.6914 0.0000
vt 0.7764 0.6914 0.0000
vt 0.7702 0.7450 0.0000
vt 0.7422 0.7449 0.0000
vt 0.7524 0.6914 0.0000
vt 0.7448 0.7449 0.0000
vt 0.8263 0.5309 0.0000
vt 0.8154 0.5844 0.0000
vt 0.8233 0.5309 0.0000
vt 0.7867 0.7450 0.0000
vt 0.7917 0.6915 0.0000
vt 0.7870 0.7450 0.0000
vt 0.7467 0.5308 0.0000
vt 0.7372 0.5843 0.0000
vt 0.7412 0.5307 0.0000
vt 0.7966 0.7450 0.0000
vt 0.8141 0.6915 0.0000
vt 0.8040 0.7450 0.0000
vt 0.7701 0.5308 0.0000
vt 0.7531 0.5843 0.0000
vt 0.7634 0.5308 0.0000
vt 0.8200 0.7451 0.0000
vt 0.8256 0.6915 0.0000
vt 0.8261 0.6915 0.0000
vt 0.8243 0.7451 0.0000
vt 0.8097 0.5309 0.0000
vt 0.7930 0.5844 0.0000
vt 0.8018 0.5309 0.0000
vt 0.7582 0.7449 0.0000
vt 0.7681 0.6914 0.0000
vt 0.7730 0.6914 0.0000
vt 0.7656 0.7449 0.0000
vt 0.7751 0.5308 0.0000
vt 0.7739 0.5844 0.0000
vt 0.7764 0.5308 0.0000
vt 0.7378 0.7449 0.0000
vt 0.7517 0.6914 0.0000
vt 0.7426 0.7449 0.0000
vt 0.7403 0.5307 0.0000
vt 0.7479 0.5843 0.0000
vt 0.7481 0.5843 0.0000
vt 0.7394 0.5307 0.0000
vt 0.7756 0.7450 0.0000
vt 0.7711 0.6914 0.0000
vt 0.7717 0.6914 0.0000
vt 0.7771 0.7450 0.0000
vt 0.7353 0.5843 0.0000
vt 0.7391 0.5307 0.0000
vt 0.7629 0.5308 0.0000
vt 0.8002 0.5309 0.0000
vt 0.7872 0.5308 0.0000
vt 0.7894 0.5844 0.0000
vt 0.7884 0.5844 0.0000
vt 0.7854 0.5308 0.0000
vt 0.7362 0.7449 0.0000
vt 0.7346 0.7984 0.0000
vt 0.7353 0.7984 0.0000
vt 0.7352 0.7449 0.0000
vt 0.7577 0.7449 0.0000
vt 0.7466 0.7984 0.0000
vt 0.7437 0.7984 0.0000
vt 0.7773 0.7450 0.0000
vt 0.7721 0.7985 0.0000
vt 0.7953 0.7450 0.0000
vt 0.7876 0.7985 0.0000
vt 0.7862 0.7985 0.0000
vt 0.7926 0.7450 0.0000
vt 0.8205 0.7451 0.0000
vt 0.8104 0.7986 0.0000
vt 0.7360 0.7984 0.0000
vt 0.7775 0.4773 0.0000
vt 0.7687 0.4773 0.0000
vt 0.7690 0.4773 0.0000
vt 0.7762 0.5308 0.0000
vt 0.7909 0.7985 0.0000
vt 0.7902 0.7985 0.0000
vt 0.7853 0.7450 0.0000
vt 0.8260 0.4774 0.0000
vt 0.8272 0.4774 0.0000
vt 0.7517 0.7984 0.0000
vt 0.7520 0.7984 0.0000
vt 0.7421 0.7449 0.0000
vt 0.8221 0.5309 0.0000
vt 0.8280 0.4774 0.0000
vt 0.8285 0.4774 0.0000
vt 0.8242 0.5309 0.0000
vt 0.7375 0.5307 0.0000
vt 0.7448 0.4772 0.0000
vt 0.7597 0.5308 0.0000
vt 0.7700 0.4773 0.0000
vt 0.7724 0.4773 0.0000
vt 0.7970 0.5309 0.0000
vt 0.8079 0.4774 0.0000
vt 0.7857 0.5308 0.0000
vt 0.7868 0.4773 0.0000
vt 0.7931 0.7450 0.0000
vt 0.7875 0.7985 0.0000
vt 0.7867 0.7985 0.0000
vt 0.7887 0.7450 0.0000
vt 0.8225 0.4774 0.0000
vt 0.8259 0.4774 0.0000
vt 0.8201 0.5309 0.0000
vt 0.7990 0.7986 0.0000
vt 0.8091 0.7450 0.0000
vt 0.7450 0.4772 0.0000
vt 0.7387 0.5307 0.0000
vt 0.8214 0.7986 0.0000
vt 0.8258 0.7451 0.0000
vt 0.7611 0.4773 0.0000
vt 0.7680 0.4773 0.0000
vt 0.7584 0.5308 0.0000
vt 0.7609 0.7985 0.0000
vt 0.7698 0.7450 0.0000
vt 0.8067 0.4774 0.0000
vt 0.7969 0.5309 0.0000
vt 0.7441 0.7984 0.0000
vt 0.7391 0.7984 0.0000
vt 0.7467 0.7449 0.0000
vt 0.7730 0.5308 0.0000
vt 0.7768 0.4773 0.0000
vt 0.7757 0.4773 0.0000
vt 0.7759 0.5308 0.0000
vt 0.7849 0.7985 0.0000
vt 0.8249 0.5309 0.0000
vt 0.8189 0.4774 0.0000
vt 0.8190 0.4774 0.0000
vt 0.8261 0.5309 0.0000
vt 0.7368 0.7449 0.0000
vt 0.7410 0.7984 0.0000
vt 0.7403 0.7984 0.0000
vt 0.7771 0.4773 0.0000
vt 0.7779 0.5308 0.0000
vt 0.7782 0.4773 0.0000
vt 0.7357 0.5307 0.0000
vt 0.7497 0.5308 0.0000
vt 0.7499 0.5308 0.0000
vt 0.7855 0.7985 0.0000
vt 0.8268 0.4774 0.0000
vt 0.7760 0.7450 0.0000
vt 0.7885 0.5309 0.0000
vt 0.7371 0.7984 0.0000
vt 0.8007 0.5309 0.0000
vt 0.8204 0.7451 0.0000
vt 0.7768 0.6914 0.0000
vt 0.8169 0.5309 0.0000
vt 0.8170 0.5309 0.0000
vt 0.7782 0.5308 0.0000
vt 0.8268 0.5309 0.0000
vt 0.7365 0.7449 0.0000
vt 0.7750 0.6914 0.0000
vt 0.7928 0.7450 0.0000
vt 0.7924 0.7450 0.0000
vt 0.7667 0.5308 0.0000
vt 0.7666 0.5308 0.0000
vt 0.7350 0.6378 0.0000
vt 0.8129 0.6380 0.0000
vt 0.7464 0.6378 0.0000
vt 0.7462 0.6378 0.0000
vt 0.7350 0.6913 0.0000
vt 0.7773 0.6379 0.0000
vt 0.7365 0.6378 0.0000
vt 0.7367 0.6913 0.0000
vt 0.7748 0.6379 0.0000
vt 0.7627 0.6379 0.0000
vt 0.7622 0.6379 0.0000
vt 0.7964 0.6379 0.0000
vt 0.8278 0.7986 0.0000
vt 0.8234 0.8521 0.0000
vt 0.7380 0.8519 0.0000
vt 0.7363 0.8519 0.0000
vt 0.7626 0.8520 0.0000
vt 0.7849 0.8520 0.0000
vt 0.7853 0.8520 0.0000
vt 0.7992 0.8521 0.0000
vt 0.7395 0.8520 0.0000
vt 0.7387 0.8519 0.0000
vt 0.7778 0.4238 0.0000
vt 0.7993 0.8521 0.0000
vt 0.7995 0.8521 0.0000
vt 0.8206 0.4239 0.0000
vt 0.8211 0.4239 0.0000
vt 0.7359 0.4772 0.0000
vt 0.7359 0.4237 0.0000
vt 0.7553 0.4237 0.0000
vt 0.7768 0.4238 0.0000
vt 0.8186 0.4239 0.0000
vt 0.7933 0.4238 0.0000
vt 0.7722 0.8520 0.0000
vt 0.7757 0.7985 0.0000
vt 0.8270 0.4239 0.0000
vt 0.8267 0.4239 0.0000
vt 0.7908 0.8521 0.0000
vt 0.7544 0.4237 0.0000
vt 0.8130 0.8521 0.0000
vt 0.7704 0.4237 0.0000
vt 0.7747 0.4238 0.0000
vt 0.7507 0.8520 0.0000
vt 0.8167 0.4238 0.0000
vt 0.7374 0.8519 0.0000
vt 0.7361 0.8519 0.0000
vt 0.7936 0.4238 0.0000
vt 0.7899 0.8521 0.0000
vt 0.7890 0.8521 0.0000
vt 0.8282 0.4239 0.0000
vt 0.7492 0.8520 0.0000
vt 0.7497 0.8520 0.0000
vt 0.7708 0.4237 0.0000
# 1170 texture coords

o Licorice_Cat
g Licorice_Cat
usemtl wire_228214153
s 1
f 1/1/1 2/2/2 3/3/3 
f 1/1/1 3/3/3 4/4/4 
f 1/1/1 4/4/4 5/5/5 
f 1/1/1 5/5/5 6/6/6 
f 1/1/1 6/6/6 7/7/7 
f 1/1/1 7/7/7 8/8/8 
f 9/9/9 10/10/10 11/11/11 12/12/12 
f 12/12/12 11/11/11 13/13/13 14/14/14 
f 10/15/10 15/16/15 16/17/16 11/18/11 
f 11/18/11 16/17/16 17/19/17 13/20/13 
s off
f 18/21/18 19/22/19 20/23/20 
f 19/22/19 21/24/21 20/23/20 
f 21/24/21 22/25/22 20/23/20 
f 23/26/23 24/27/24 25/28/25 
f 25/28/25 24/27/24 26/29/26 
f 25/28/25 26/29/26 27/30/27 
s 1
f 1/1/1 28/31/28 2/2/2 
f 1/1/1 29/32/29 28/31/28 
f 1/1/1 30/33/30 29/32/29 
f 1/1/1 31/34/31 30/33/30 
f 1/1/1 32/35/32 31/34/31 
f 1/1/1 8/8/8 32/35/32 
f 33/36/33 34/37/34 35/38/35 36/39/36 
f 34/37/34 37/40/37 38/41/38 35/38/35 
f 36/42/36 35/43/35 39/44/39 40/45/40 
f 35/43/35 38/46/38 41/47/41 39/44/39 
s off
f 42/48/42 43/49/43 44/50/44 
f 44/50/44 43/49/43 45/51/45 
f 45/51/45 43/49/43 46/52/46 
f 47/53/47 48/54/48 49/55/49 
f 48/54/48 50/56/50 49/55/49 
f 48/54/48 51/57/51 50/56/50 
f 52/58/52 53/59/53 54/60/54 55/61/55 
f 53/59/53 56/62/56 57/63/57 54/60/54 
f 56/62/56 58/64/58 59/65/59 57/63/57 
f 60/66/60 61/67/61 62/68/62 63/69/63 
f 61/67/61 64/70/64 65/71/65 62/68/62 
f 64/70/64 52/58/52 55/61/55 65/71/65 
f 66/72/66 67/73/67 55/74/55 54/75/54 
f 67/73/67 68/76/68 65/77/65 55/74/55 
f 68/76/68 40/78/40 62/79/62 65/77/65 
f 40/78/40 39/80/39 63/81/63 62/79/62 
f 39/80/39 41/82/41 69/83/69 63/81/63 
f 41/82/41 70/84/70 71/85/71 69/83/69 
f 70/84/70 72/86/72 73/87/73 71/85/71 
f 72/86/72 74/88/74 75/89/75 73/87/73 
f 74/88/74 17/90/17 76/91/76 75/89/75 
f 17/90/17 16/92/16 59/93/59 76/91/76 
f 16/92/16 15/94/15 57/95/57 59/93/59 
f 15/94/15 66/72/66 54/75/54 57/95/57 
s 1
f 77/96/77 78/97/78 79/98/79 
f 80/99/80 77/96/77 79/98/79 
f 81/100/81 80/99/80 79/98/79 
f 82/101/82 83/102/83 84/103/84 
f 85/104/82 82/101/82 84/103/84 
f 86/105/82 85/104/82 84/103/84 
f 87/106/84 86/105/82 84/103/84 
f 88/107/84 87/106/84 84/103/84 
f 89/108/85 88/107/84 84/103/84 
f 90/109/86 91/110/87 79/98/79 
f 92/111/88 90/109/86 79/98/79 
f 78/97/78 92/111/88 79/98/79 
s off
f 78/112/78 77/113/77 93/114/89 94/115/90 
f 77/116/77 80/117/80 95/118/91 93/119/89 
f 80/120/80 81/121/81 96/122/92 95/123/91 
f 97/124/93 98/125/94 99/126/95 100/127/96 
f 98/128/94 101/129/97 102/130/98 99/131/95 
f 101/129/97 103/132/99 104/133/100 102/130/98 
f 103/134/99 105/135/101 106/136/102 104/137/100 
f 105/135/101 107/138/103 108/139/104 106/136/102 
f 107/140/103 109/141/105 110/142/106 108/143/104 
f 91/144/87 90/145/86 111/146/107 112/147/108 
f 90/148/86 92/149/88 113/150/109 111/151/107 
f 92/152/88 78/112/78 94/115/90 113/153/109 
f 93/114/89 114/154/110 115/155/111 94/115/90 
f 95/156/91 116/157/112 114/154/110 93/114/89 
f 96/122/92 117/158/113 116/159/112 95/123/91 
f 99/160/95 118/161/114 119/162/115 100/163/96 
f 102/130/98 120/164/116 118/165/114 99/131/95 
f 104/133/100 121/166/117 120/164/116 102/130/98 
f 106/136/102 122/167/118 121/168/117 104/137/100 
f 108/139/104 123/169/119 122/167/118 106/136/102 
f 110/170/106 124/171/120 123/172/119 108/173/104 
f 111/146/107 125/174/121 126/175/122 112/147/108 
f 113/153/109 127/176/123 125/177/121 111/178/107 
f 94/115/90 115/155/111 127/176/123 113/153/109 
f 114/154/110 53/179/53 52/180/52 115/155/111 
f 116/181/112 56/62/56 53/59/53 114/182/110 
f 117/158/113 58/183/58 56/184/56 116/159/112 
f 118/185/114 128/186/124 129/187/125 119/188/115 
f 120/189/116 130/190/126 128/186/124 118/185/114 
f 121/191/117 131/192/127 130/190/126 120/189/116 
f 122/193/118 132/194/128 131/195/127 121/196/117 
f 123/197/119 133/198/129 132/194/128 122/193/118 
f 124/199/120 134/200/130 133/198/129 123/197/119 
f 125/174/121 61/201/61 60/202/60 126/175/122 
f 127/203/123 64/204/64 61/205/61 125/206/121 
f 115/155/111 52/180/52 64/207/64 127/176/123 
f 81/100/81 79/98/79 135/208/82 136/209/131 
f 79/98/79 91/110/87 137/210/132 135/208/82 
f 136/209/131 135/208/82 84/103/84 83/102/83 
f 135/208/82 137/210/132 89/108/85 84/103/84 
f 83/102/83 82/101/82 138/211/133 139/212/134 
f 82/101/82 85/104/82 140/213/133 138/211/133 
f 85/104/82 86/105/82 141/214/135 140/213/133 
f 86/105/82 87/106/84 142/215/79 141/214/135 
f 87/106/84 88/107/84 143/216/79 142/215/79 
f 88/107/84 89/108/85 144/217/136 143/216/79 
f 139/212/134 138/211/133 145/218/79 146/219/137 
f 138/211/133 140/213/133 147/220/133 145/218/79 
f 140/213/133 141/214/135 148/221/138 147/220/133 
f 141/214/135 142/215/79 149/222/79 148/221/138 
f 142/215/79 143/216/79 150/223/133 149/222/79 
f 143/216/79 144/217/136 151/224/139 150/223/133 
f 144/225/136 152/226/140 153/227/141 151/228/139 
f 152/226/140 154/229/142 155/230/143 153/227/141 
f 154/229/142 156/231/144 157/232/145 155/230/143 
f 156/233/144 158/234/146 159/235/147 157/236/145 
f 158/234/146 160/237/148 161/238/149 159/235/147 
f 160/237/148 162/239/150 163/240/151 161/238/149 
f 162/239/150 164/241/152 165/242/153 163/240/151 
f 164/243/152 166/244/154 167/245/155 165/246/153 
f 166/244/154 168/247/156 169/248/157 167/245/155 
f 168/247/156 139/249/134 146/250/137 169/248/157 
f 58/64/58 170/251/158 76/252/76 59/65/59 
f 170/251/158 171/253/159 75/254/75 76/252/76 
f 171/253/159 172/255/160 73/256/73 75/254/75 
f 172/255/160 173/257/161 71/258/71 73/256/73 
f 173/257/161 174/259/162 69/260/69 71/258/71 
f 174/259/162 60/66/60 63/69/63 69/260/69 
f 174/261/162 173/262/161 175/263/163 176/264/164 
f 173/262/161 172/265/160 177/266/165 175/263/163 
f 172/265/160 171/267/159 178/268/166 177/266/165 
f 171/267/159 170/269/158 179/270/167 178/268/166 
s 1
f 10/271/10 9/272/9 180/273/168 181/274/169 
f 182/275/170 183/276/171 14/277/14 13/278/13 
f 66/279/66 181/274/169 184/280/172 67/281/67 
f 15/282/15 10/271/10 181/274/169 66/279/66 
f 74/283/74 182/284/170 13/285/13 17/286/17 
f 72/287/72 185/288/173 182/275/170 74/289/74 
s off
f 186/290/174 187/291/175 188/292/176 189/293/177 
s 1
f 190/294/178 191/295/179 3/3/3 2/2/2 
f 3/3/3 191/295/179 192/296/180 4/4/4 
f 9/272/9 193/297/181 194/298/182 180/273/168 
f 12/12/12 195/299/183 193/300/181 9/9/9 
f 14/301/14 196/302/184 195/303/183 12/304/12 
f 183/305/171 197/306/185 196/302/184 14/301/14 
f 198/307/186 199/308/187 200/309/188 201/310/189 
f 202/311/190 203/312/191 204/313/192 205/314/193 
f 203/312/191 206/315/194 207/316/195 204/313/192 
f 208/317/196 194/298/182 209/318/197 210/319/198 
f 194/298/182 193/297/181 211/320/199 209/318/197 
s off
f 212/321/200 23/26/23 213/322/201 214/323/202 
f 189/293/177 188/292/176 26/29/26 24/27/24 
f 215/324/203 216/325/204 217/326/205 27/30/27 
f 216/327/204 218/328/206 18/329/18 217/330/205 
f 218/331/206 219/332/207 19/22/19 18/21/18 
f 219/332/207 220/333/208 21/24/21 19/22/19 
f 220/333/208 221/334/209 22/25/22 21/24/21 
f 221/335/209 214/336/202 213/337/201 22/338/22 
s 1
f 222/339/210 223/340/211 7/7/7 6/6/6 
f 223/340/211 224/341/212 8/8/8 7/7/7 
s off
f 202/311/190 225/342/213 226/343/214 227/344/215 
s 1
f 227/344/215 228/345/216 203/312/191 202/311/190 
f 228/345/216 229/346/217 206/315/194 203/312/191 
s off
f 230/347/218 231/348/219 232/349/220 233/350/221 
f 231/348/219 234/351/222 235/352/223 232/349/220 
f 234/351/222 236/353/224 237/354/225 235/352/223 
f 236/353/224 238/355/226 239/356/227 237/354/225 
s 1
f 240/357/228 241/358/229 242/359/230 243/360/231 
f 244/361/232 245/362/233 197/363/185 183/276/171 
f 246/364/234 240/357/228 243/360/231 247/365/235 
f 185/288/173 244/361/232 183/276/171 182/275/170 
s off
f 180/273/168 194/298/182 236/366/224 234/367/222 
f 236/366/224 194/298/182 208/317/196 238/368/226 
f 233/369/221 232/370/220 246/364/234 247/365/235 
f 232/370/220 235/371/223 240/357/228 246/364/234 
f 235/371/223 237/372/225 241/358/229 240/357/228 
f 237/372/225 239/373/227 242/359/230 241/358/229 
f 234/367/222 231/374/219 181/274/169 180/273/168 
f 5/5/5 4/4/4 192/296/180 248/375/236 
f 5/376/5 248/377/236 212/321/200 214/323/202 
f 225/378/213 219/332/207 218/331/206 226/379/214 
f 249/380/237 187/381/175 186/382/174 250/383/238 
f 202/311/190 205/314/193 251/384/239 225/342/213 
f 251/385/239 220/333/208 219/332/207 225/378/213 
f 211/386/199 193/300/181 195/299/183 252/387/240 
f 6/6/6 5/5/5 253/388/241 222/339/210 
f 252/389/240 195/390/183 216/325/204 215/324/203 
f 253/391/241 221/334/209 220/333/208 251/385/239 
f 205/392/193 222/339/210 253/388/241 251/393/239 
s 1
f 205/392/193 204/394/192 223/340/211 222/339/210 
f 204/394/192 207/395/195 224/341/212 223/340/211 
s off
f 196/396/184 227/397/215 226/398/214 195/399/183 
s 1
f 196/400/184 197/363/185 228/401/216 227/402/215 
f 197/363/185 245/362/233 229/403/217 228/401/216 
s 2
f 226/398/214 218/328/206 216/327/204 195/399/183 
f 221/335/209 253/404/241 5/405/5 214/336/202 
s off
f 254/406/242 213/322/201 23/26/23 25/28/25 
f 25/28/25 27/30/27 217/326/205 254/406/242 
f 217/330/205 18/329/18 20/407/20 254/408/242 
f 22/338/22 213/337/201 254/409/242 20/410/20 
s 1
f 201/411/189 200/412/188 191/295/179 190/294/178 
f 200/412/188 250/383/238 192/296/180 191/295/179 
s off
f 250/383/238 186/382/174 248/375/236 192/296/180 
f 248/377/236 186/290/174 189/293/177 212/321/200 
f 189/293/177 24/27/24 23/26/23 212/321/200 
f 27/30/27 26/29/26 188/292/176 215/324/203 
f 215/324/203 188/292/176 187/291/175 252/389/240 
f 252/413/240 187/381/175 249/380/237 211/414/199 
s 1
f 211/320/199 249/415/237 199/416/187 209/318/197 
f 199/416/187 198/417/186 210/319/198 209/318/197 
s 2
f 199/418/187 249/380/237 250/383/238 200/412/188 
s off
f 230/419/218 184/280/172 181/274/169 231/374/219 
s 1
f 36/420/36 255/421/243 256/422/244 33/423/33 
f 257/424/245 38/425/38 37/426/37 258/427/246 
f 68/428/68 67/281/67 184/280/172 255/421/243 
f 40/429/40 68/428/68 255/421/243 36/420/36 
f 70/430/70 41/431/41 38/432/38 257/433/245 
f 72/287/72 70/434/70 257/424/245 185/288/173 
s off
f 259/435/247 260/436/248 261/437/249 262/438/250 
s 1
f 190/294/178 2/2/2 28/31/28 263/439/251 
f 28/31/28 29/32/29 264/440/252 263/439/251 
f 33/423/33 256/422/244 265/441/253 266/442/254 
f 34/37/34 33/36/33 266/443/254 267/444/255 
f 37/445/37 34/446/34 267/447/255 268/448/256 
f 258/449/246 37/445/37 268/448/256 269/450/257 
f 198/307/186 201/310/189 270/451/258 271/452/259 
f 272/453/260 273/454/261 274/455/262 275/456/263 
f 275/456/263 274/455/262 207/457/195 206/458/194 
f 208/317/196 210/319/198 276/459/264 265/441/253 
f 265/441/253 276/459/264 277/460/265 266/442/254 
s off
f 278/461/266 279/462/267 280/463/268 47/53/47 
f 260/436/248 49/55/49 50/56/50 261/437/249 
f 281/464/269 51/57/51 282/465/270 283/466/271 
f 283/467/271 282/468/270 42/469/42 284/470/272 
f 284/471/272 42/48/42 44/50/44 285/472/273 
f 285/472/273 44/50/44 45/51/45 286/473/274 
f 286/473/274 45/51/45 46/52/46 287/474/275 
f 287/475/275 46/476/46 280/477/268 279/478/267 
s 1
f 288/479/276 31/34/31 32/35/32 289/480/277 
f 289/480/277 32/35/32 8/8/8 224/341/212 
s off
f 272/453/260 290/481/278 291/482/279 292/483/280 
s 1
f 290/481/278 272/453/260 275/456/263 293/484/281 
f 293/484/281 275/456/263 206/458/194 229/485/217 
s off
f 230/347/218 233/350/221 294/486/282 295/487/283 
f 295/487/283 294/486/282 296/488/284 297/489/285 
f 297/489/285 296/488/284 298/490/286 299/491/287 
f 299/491/287 298/490/286 239/356/227 238/355/226 
s 1
f 300/492/288 243/360/231 242/359/230 301/493/289 
f 244/361/232 258/427/246 269/494/257 245/362/233 
f 302/495/290 247/365/235 243/360/231 300/492/288 
f 185/288/173 257/424/245 258/427/246 244/361/232 
s off
f 256/422/244 297/496/285 299/497/287 265/441/253 
f 299/497/287 238/368/226 208/317/196 265/441/253 
f 233/369/221 247/365/235 302/495/290 294/498/282 
f 294/498/282 302/495/290 300/492/288 296/499/284 
f 296/499/284 300/492/288 301/493/289 298/500/286 
f 298/500/286 301/493/289 242/359/230 239/373/227 
f 297/496/285 256/422/244 255/421/243 295/501/283 
f 30/33/30 303/502/291 264/440/252 29/32/29 
f 30/503/30 279/462/267 278/461/266 303/504/291 
f 292/505/280 291/506/279 284/471/272 285/472/273 
f 304/507/292 305/508/293 259/509/247 262/510/250 
f 272/453/260 292/483/280 306/511/294 273/454/261 
f 306/512/294 292/505/280 285/472/273 286/473/274 
f 277/513/265 307/514/295 267/444/255 266/443/254 
f 31/34/31 288/479/276 308/515/296 30/33/30 
f 307/516/295 281/464/269 283/466/271 267/517/255 
f 308/518/296 306/512/294 286/473/274 287/474/275 
f 273/519/261 306/520/294 308/515/296 288/479/276 
s 1
f 273/519/261 288/479/276 289/480/277 274/521/262 
f 274/521/262 289/480/277 224/341/212 207/395/195 
s off
f 268/522/256 267/523/255 291/524/279 290/525/278 
s 1
f 268/526/256 290/527/278 293/528/281 269/494/257 
f 269/494/257 293/528/281 229/403/217 245/362/233 
s 2
f 291/524/279 267/523/255 283/467/271 284/470/272 
f 287/475/275 279/478/267 30/529/30 308/530/296 
s off
f 309/531/297 48/54/48 47/53/47 280/463/268 
f 48/54/48 309/531/297 282/465/270 51/57/51 
f 282/468/270 309/532/297 43/533/43 42/469/42 
f 46/476/46 43/534/43 309/535/297 280/477/268 
s 1
f 201/411/189 190/294/178 263/439/251 270/536/258 
f 270/536/258 263/439/251 264/440/252 305/508/293 
s off
f 305/508/293 264/440/252 303/502/291 259/509/247 
f 303/504/291 278/461/266 260/436/248 259/435/247 
f 260/436/248 278/461/266 47/53/47 49/55/49 
f 51/57/51 281/464/269 261/437/249 50/56/50 
f 281/464/269 307/516/295 262/438/250 261/437/249 
f 307/537/295 277/538/265 304/507/292 262/510/250 
s 1
f 277/460/265 276/459/264 271/539/259 304/540/292 
f 271/539/259 276/459/264 210/319/198 198/417/186 
s 2
f 271/541/259 270/542/258 305/543/293 304/544/292 
s off
f 230/419/218 295/501/283 255/421/243 184/280/172 
f 91/144/87 112/147/108 310/545/298 137/546/132 
f 112/147/108 126/175/122 311/547/299 310/545/298 
f 126/175/122 60/202/60 174/548/162 311/547/299 
f 58/183/58 117/158/113 312/549/300 170/550/158 
f 117/158/113 96/122/92 313/551/301 312/549/300 
f 96/122/92 81/121/81 136/552/131 313/551/301 
f 137/546/132 310/545/298 314/553/302 89/554/85 
f 310/545/298 311/547/299 315/555/303 314/553/302 
f 311/547/299 174/548/162 176/556/164 315/555/303 
f 134/200/130 316/557/304 132/194/128 133/198/129 
f 316/557/304 317/558/305 131/195/127 132/194/128 
f 317/559/305 318/560/306 130/190/126 131/192/127 
f 318/560/306 129/187/125 128/186/124 130/190/126 
f 170/550/158 312/549/300 319/561/307 179/562/167 
f 312/549/300 313/551/301 320/563/308 319/561/307 
f 313/551/301 136/552/131 83/564/83 320/563/308 
f 89/554/85 314/553/302 152/226/140 144/225/136 
f 314/553/302 315/555/303 154/229/142 152/226/140 
f 315/555/303 176/556/164 156/231/144 154/229/142 
f 176/565/164 175/566/163 158/234/146 156/233/144 
f 175/566/163 177/567/165 160/237/148 158/234/146 
f 177/567/165 178/568/166 162/239/150 160/237/148 
f 178/568/166 179/569/167 164/241/152 162/239/150 
f 179/562/167 319/561/307 166/244/154 164/243/152 
f 319/561/307 320/563/308 168/247/156 166/244/154 
f 320/563/308 83/564/83 139/249/134 168/247/156 
f 146/219/137 145/218/79 98/125/94 97/124/93 
f 145/218/79 147/220/133 101/570/97 98/125/94 
f 147/220/133 148/221/138 103/571/99 101/570/97 
f 148/221/138 149/222/79 105/572/101 103/571/99 
f 149/222/79 150/223/133 107/140/103 105/572/101 
f 150/223/133 151/224/139 109/141/105 107/140/103 
f 151/573/139 153/574/141 110/575/106 109/576/105 
f 153/227/141 155/230/143 124/171/120 110/170/106 
f 155/230/143 157/232/145 134/577/130 124/171/120 
f 157/236/145 159/235/147 316/578/304 134/579/130 
f 159/235/147 161/238/149 317/580/305 316/578/304 
f 161/238/149 163/240/151 318/581/306 317/580/305 
f 163/240/151 165/242/153 129/582/125 318/581/306 
f 165/246/153 167/245/155 119/162/115 129/583/125 
f 167/245/155 169/248/157 100/163/96 119/162/115 
f 169/584/157 146/585/137 97/586/93 100/587/96 
s 1
f 321/588/309 322/589/310 323/590/311 
f 321/588/309 324/591/312 325/592/313 
f 321/588/309 326/593/314 324/591/312 
f 321/588/309 327/594/315 326/593/314 
f 321/588/309 328/595/316 329/596/317 
f 321/588/309 330/597/318 331/598/319 
f 321/588/309 332/599/320 333/600/321 
f 321/588/309 334/601/322 335/602/323 
f 321/588/309 321/588/324 336/603/325 337/604/326 
f 338/605/327 339/606/328 321/588/324 
s 8
f 340/607/329 341/608/330 342/609/331 343/610/332 
f 344/611/333 345/612/334 346/613/335 347/614/336 
f 348/615/337 349/616/338 350/617/339 351/618/340 
f 352/619/341 353/620/342 354/621/343 355/622/344 
f 356/623/345 357/624/346 358/625/347 359/626/348 
s 1
f 360/627/349 361/628/350 362/629/351 
f 363/630/352 364/631/353 362/629/351 
f 365/632/354 366/633/355 362/629/351 
f 367/634/356 368/635/357 362/629/351 
f 369/636/358 370/637/359 362/629/351 
f 371/638/360 372/639/361 362/629/351 
f 373/640/362 374/641/363 362/629/351 
f 375/642/364 376/643/365 362/629/351 
f 377/644/366 378/645/367 362/629/351 
f 379/646/368 380/647/369 362/629/351 
s off
f 323/590/311 322/589/310 341/648/330 340/649/329 
f 322/650/310 381/651/370 342/609/331 341/608/330 
f 361/628/350 360/627/349 382/652/371 383/653/372 
f 360/654/349 384/655/373 385/656/374 382/657/371 
f 324/591/312 326/593/314 345/658/334 344/659/333 
f 326/660/314 386/661/375 346/613/335 345/612/334 
f 366/633/355 365/632/354 387/662/376 388/663/377 
f 365/664/354 389/665/378 390/666/379 387/667/376 
f 329/596/317 328/595/316 349/668/338 348/669/337 
f 328/670/316 391/671/380 350/672/339 349/673/338 
f 370/637/359 369/636/358 392/674/381 393/675/382 
f 369/676/358 394/677/383 395/678/384 392/679/381 
f 333/600/321 332/599/320 353/680/342 352/681/341 
f 332/682/320 396/683/385 354/621/343 353/620/342 
f 374/641/363 373/640/362 397/684/386 398/685/387 
f 373/686/362 399/687/388 400/688/389 397/689/386 
f 337/604/326 336/603/325 357/690/346 356/691/345 
f 336/692/325 401/693/390 358/694/347 357/695/346 
f 378/645/367 377/644/366 402/696/391 403/697/392 
f 377/698/366 404/699/393 405/700/394 402/701/391 
s 2
f 406/702/395 407/703/396 408/704/397 409/705/398 
f 410/706/399 411/707/400 412/708/401 413/709/402 
f 414/710/403 415/711/404 416/712/405 417/713/406 
f 418/714/407 419/715/408 420/716/409 421/717/410 
f 422/718/411 423/719/412 424/720/413 425/721/414 
s off
f 333/722/321 426/723/415 427/724/416 330/725/318 
f 370/726/359 428/727/417 429/728/418 371/729/360 
f 337/730/326 430/731/419 431/732/420 334/733/322 
f 374/734/363 432/735/421 433/736/422 375/737/364 
f 323/738/311 434/739/423 435/740/424 338/741/327 
f 378/742/367 436/743/425 437/744/426 379/745/368 
f 329/746/317 438/747/427 439/748/428 440/749/429 
f 366/750/355 441/751/430 442/752/431 367/753/356 
f 324/754/312 443/755/432 444/756/433 325/757/313 
f 361/758/350 445/759/434 446/760/435 363/761/352 
f 331/598/319 330/597/318 447/762/436 448/763/437 
f 330/725/318 427/724/416 449/764/438 447/765/436 
f 372/639/361 371/638/360 407/766/396 406/767/395 
f 371/729/360 429/728/418 408/704/397 407/703/396 
f 335/602/323 334/601/322 450/768/439 451/769/440 
f 334/733/322 431/732/420 452/770/441 450/771/439 
f 376/643/365 375/642/364 411/772/400 410/773/399 
f 375/774/364 433/775/422 412/776/401 411/777/400 
f 339/606/328 338/605/327 453/778/442 454/779/443 
f 338/780/327 435/781/424 455/782/444 453/607/442 
f 380/647/369 379/646/368 415/783/404 414/784/403 
f 379/745/368 437/744/426 416/712/405 415/711/404 
f 327/594/315 440/785/429 456/786/445 457/787/446 
f 440/749/429 439/748/428 458/788/447 456/789/445 
f 368/635/357 367/634/356 419/790/408 418/791/407 
f 367/753/356 442/752/431 420/716/409 419/715/408 
f 459/792/448 325/592/313 460/793/449 461/794/450 
f 325/757/313 444/756/433 462/795/451 460/796/449 
f 364/631/353 363/630/352 423/797/412 422/798/411 
f 363/761/352 446/760/435 424/799/413 423/800/412 
s 1
f 368/635/357 369/636/358 362/629/351 
f 362/629/351 366/633/355 367/634/356 
f 364/631/353 365/632/354 362/629/351 
f 362/629/351 361/628/350 363/630/352 
f 380/647/369 360/627/349 362/629/351 
f 362/629/351 378/645/367 379/646/368 
f 362/629/351 374/641/363 375/642/364 
f 376/643/365 377/644/366 362/629/351 
f 362/629/351 370/637/359 371/638/360 
f 372/639/361 373/640/362 362/629/351 
f 331/598/319 328/595/316 321/588/309 
f 321/588/309 333/600/321 330/597/318 
f 335/602/323 332/599/320 321/588/309 
f 321/588/309 337/604/326 334/601/322 
f 339/606/328 336/603/325 321/588/324 
f 321/588/324 321/588/309 323/590/311 338/605/327 
f 459/792/448 322/589/310 321/588/309 
f 321/588/309 325/592/313 459/792/448 
f 321/588/309 329/596/317 440/785/429 
f 440/785/429 327/594/315 321/588/309 
s 8
f 463/801/452 464/802/453 465/803/454 466/804/455 
f 467/805/456 468/806/457 469/807/458 470/808/459 
f 471/809/460 472/810/461 473/811/462 474/812/463 
f 475/813/464 476/814/465 477/815/466 478/816/467 
f 479/817/468 480/818/469 481/819/470 482/820/471 
s off
f 483/821/472 484/822/473 464/802/453 463/801/452 
f 485/823/474 486/824/475 487/825/476 466/804/455 
f 488/826/477 489/827/478 468/828/457 467/829/456 
f 490/830/479 491/831/480 492/832/481 470/808/459 
f 493/833/482 494/834/483 472/810/461 471/809/460 
f 495/835/484 496/836/485 497/836/486 474/837/463 
f 498/838/487 499/839/488 476/814/465 475/813/464 
f 500/840/489 501/841/490 502/842/491 478/816/467 
f 503/843/492 504/844/493 480/845/469 479/846/468 
f 505/847/494 506/848/495 507/849/496 482/820/471 
s 2
f 508/850/497 509/851/498 510/852/499 511/853/500 
f 512/854/501 513/855/502 514/855/503 515/856/504 
f 516/857/505 517/858/506 518/859/507 519/860/508 
f 520/861/509 521/862/510 522/863/511 523/864/512 
f 524/865/513 525/866/514 526/867/515 527/868/516 
s off
f 500/840/489 528/869/517 529/870/518 530/871/519 
f 493/833/482 531/872/520 532/873/521 533/874/522 
f 505/847/494 534/875/523 535/876/524 536/877/525 
f 498/838/487 537/848/526 538/878/527 539/879/528 
f 485/823/474 540/880/529 541/881/530 542/882/531 
f 503/843/492 543/883/532 544/884/533 545/885/534 
f 495/886/484 546/887/535 547/888/536 548/889/537 
f 488/826/477 549/890/538 550/891/539 551/829/540 
f 490/830/479 552/892/541 553/893/542 554/868/543 
f 483/821/472 555/894/544 556/895/545 557/896/546 
f 530/871/519 529/870/518 558/897/547 511/853/500 
f 533/874/522 532/873/521 509/851/498 508/850/497 
f 536/898/525 535/899/524 559/900/548 515/901/504 
f 539/879/528 538/878/527 513/855/502 512/854/501 
f 542/882/531 541/881/530 560/902/549 519/860/508 
f 545/903/534 544/904/533 517/905/506 516/906/505 
f 548/889/537 547/888/536 561/907/550 523/864/512 
f 551/805/540 550/908/539 521/909/510 520/910/509 
f 554/868/543 553/893/542 562/911/551 527/868/516 
f 557/896/546 556/895/545 525/866/514 524/865/513 
s 8
f 563/912/552 564/913/553 487/825/476 565/914/554 
f 566/915/555 567/916/556 492/916/481 568/917/557 
f 569/918/558 570/919/559 497/920/486 571/921/560 
f 572/922/561 573/849/562 502/842/491 574/923/563 
f 575/924/564 576/925/565 507/926/496 577/927/566 
s off
f 578/928/567 555/929/544 564/929/553 563/930/552 
f 579/931/568 540/932/529 465/933/454 580/934/569 
f 581/935/570 549/890/538 567/916/556 566/915/555 
f 582/936/571 552/892/541 469/807/458 583/937/572 
f 584/938/573 531/872/520 570/919/559 569/918/558 
f 585/939/574 546/940/535 473/941/462 586/942/575 
f 587/943/576 537/944/526 573/926/562 572/945/561 
f 588/946/577 528/947/517 477/948/466 589/949/578 
f 590/950/579 543/883/532 576/925/565 575/924/564 
f 591/951/580 534/875/523 481/819/470 592/952/581 
s 2
f 593/953/582 594/954/583 558/897/547 595/955/584 
f 596/956/585 597/957/586 559/958/548 598/959/587 
f 599/960/588 600/961/589 560/962/549 601/934/590 
f 602/963/591 603/964/592 561/965/550 604/966/593 
f 605/967/594 606/968/595 562/911/551 607/969/596 
s off
f 608/970/597 501/841/490 609/971/598 610/972/599 
f 611/973/600 494/834/483 612/974/601 613/975/602 
f 614/976/603 506/944/495 615/977/604 616/978/605 
f 617/979/606 499/839/488 618/980/607 619/981/608 
f 620/982/609 486/824/475 621/983/610 622/984/611 
f 623/985/612 504/986/493 624/987/613 625/988/614 
f 626/989/615 496/920/485 627/990/616 628/991/617 
f 629/992/618 489/993/478 630/994/619 631/995/620 
f 632/996/621 491/831/480 633/997/622 634/998/623 
f 635/999/624 484/822/473 636/1000/625 637/1001/626 
f 610/1002/599 609/1003/598 510/1004/499 638/1005/627 
f 613/1006/602 612/1007/601 594/1008/583 593/1009/582 
f 616/978/605 615/977/604 514/1010/503 639/1011/628 
f 619/981/608 618/980/607 597/957/586 596/956/585 
f 622/984/611 621/983/610 518/859/507 640/1012/629 
f 625/988/614 624/987/613 600/961/589 599/960/588 
f 628/991/617 627/990/616 522/863/511 641/1013/630 
f 631/995/620 630/994/619 603/964/592 602/963/591 
f 634/1014/623 633/1015/622 526/1016/515 642/1017/631 
f 637/1001/626 636/1000/625 606/968/595 605/967/594 
s 8
f 643/1018/632 644/1019/633 385/1020/374 580/1021/569 
f 645/1022/634 646/1023/635 390/1024/379 583/937/572 
f 647/1025/636 648/1026/637 395/678/384 586/942/575 
f 649/1027/638 650/1028/639 400/1029/389 589/1030/578 
f 651/1031/640 652/1032/641 405/700/394 592/952/581 
s off
f 635/999/624 445/1033/434 644/1019/633 643/1018/632 
f 620/982/609 434/739/423 343/1034/332 565/914/554 
f 629/992/618 441/751/430 646/1023/635 645/1022/634 
f 632/996/621 443/1035/432 347/1036/336 568/1037/557 
f 611/973/600 428/1038/417 648/1039/637 647/1040/636 
f 626/989/615 438/747/427 351/618/340 571/921/560 
f 617/979/606 432/735/421 650/1028/639 649/1027/638 
f 608/970/597 426/1041/415 355/1042/344 574/923/563 
f 623/1001/612 436/1043/425 652/1044/641 651/1045/640 
f 614/976/603 430/731/419 359/626/348 577/927/566 
s 2
f 653/1046/642 654/1047/643 449/1048/438 638/1049/627 
f 655/1050/644 656/1051/645 452/770/441 639/1011/628 
f 657/1052/646 658/1053/647 455/1054/444 640/1012/629 
f 659/1055/648 660/1056/649 458/788/447 641/1013/630 
f 661/1057/650 662/1058/651 462/795/451 642/1017/631 
s off
f 588/1059/577 399/1060/388 663/1061/652 664/1062/653 
f 584/938/573 391/1063/380 665/1064/654 666/1065/655 
f 591/951/580 404/699/393 667/1066/656 668/1067/657 
f 587/943/576 396/683/385 669/1068/658 670/1069/659 
f 579/931/568 384/655/373 671/1070/660 672/1071/661 
f 590/950/579 401/1072/390 673/1073/662 674/1074/663 
f 585/939/574 394/677/383 675/1075/664 676/1076/665 
f 581/935/570 386/661/375 677/1077/666 678/1078/667 
f 582/936/571 389/1079/378 679/1080/668 680/1081/669 
f 578/1082/567 381/1083/370 681/1084/670 682/1085/671 
f 664/1062/653 663/1061/652 409/1086/398 595/955/584 
f 666/1065/655 665/1064/654 654/1047/643 653/1046/642 
f 668/1067/657 667/1066/656 413/709/402 598/959/587 
f 670/1087/659 669/1088/658 656/1089/645 655/1090/644 
f 672/1091/661 671/1092/660 417/1093/406 601/1021/590 
f 674/1074/663 673/1073/662 658/1053/647 657/1052/646 
f 676/1076/665 675/1075/664 421/717/410 604/966/593 
f 678/1078/667 677/1077/666 660/1056/649 659/1055/648 
f 680/1081/669 679/1080/668 425/721/414 607/969/596 
f 682/1085/671 681/1084/670 662/1094/651 661/1095/650 
s 8
f 342/1096/331 563/912/552 565/914/554 343/1034/332 
f 346/613/335 566/915/555 568/917/557 347/614/336 
f 350/617/339 569/918/558 571/921/560 351/618/340 
f 354/621/343 572/945/561 574/1097/563 355/622/344 
f 358/625/347 575/924/564 577/927/566 359/626/348 
s off
f 381/651/370 578/928/567 563/930/552 342/609/331 
f 384/655/373 579/931/568 580/934/569 385/656/374 
f 386/661/375 581/935/570 566/915/555 346/613/335 
f 389/1079/378 582/936/571 583/937/572 390/1024/379 
f 391/671/380 584/1098/573 569/1099/558 350/672/339 
f 394/677/383 585/939/574 586/942/575 395/678/384 
f 396/683/385 587/943/576 572/945/561 354/621/343 
f 399/687/388 588/946/577 589/949/578 400/688/389 
f 401/1072/390 590/950/579 575/924/564 358/625/347 
f 404/699/393 591/951/580 592/952/581 405/700/394 
s 2
f 408/1100/397 593/953/582 595/955/584 409/1086/398 
f 412/708/401 596/956/585 598/959/587 413/709/402 
f 416/712/405 599/960/588 601/934/590 417/713/406 
f 420/716/409 602/963/591 604/966/593 421/717/410 
f 424/720/413 605/967/594 607/969/596 425/721/414 
s off
f 426/1041/415 608/970/597 610/972/599 427/1101/416 
f 428/727/417 611/1102/600 613/1006/602 429/728/418 
f 430/731/419 614/976/603 616/978/605 431/732/420 
f 432/735/421 617/979/606 619/981/608 433/736/422 
f 434/739/423 620/982/609 622/984/611 435/740/424 
f 436/743/425 623/985/612 625/988/614 437/744/426 
f 438/747/427 626/989/615 628/991/617 439/748/428 
f 441/751/430 629/992/618 631/995/620 442/752/431 
f 443/755/432 632/1103/621 634/1014/623 444/756/433 
f 445/1033/434 635/999/624 637/1001/626 446/1104/435 
f 427/724/416 610/1002/599 638/1005/627 449/764/438 
f 429/728/418 613/1006/602 593/1009/582 408/704/397 
f 431/732/420 616/978/605 639/1011/628 452/770/441 
f 433/736/422 619/981/608 596/956/585 412/708/401 
f 435/781/424 622/1013/611 640/1105/629 455/782/444 
f 437/744/426 625/988/614 599/960/588 416/712/405 
f 439/748/428 628/991/617 641/1013/630 458/788/447 
f 442/752/431 631/995/620 602/963/591 420/716/409 
f 444/756/433 634/1014/623 642/1017/631 462/795/451 
f 446/760/435 637/985/626 605/1106/594 424/799/413 
s 8
f 464/802/453 643/1018/632 580/1021/569 465/803/454 
f 468/806/457 645/1022/634 583/937/572 469/807/458 
f 472/1107/461 647/1025/636 586/942/575 473/941/462 
f 476/814/465 649/1027/638 589/1030/578 477/815/466 
f 480/818/469 651/1031/640 592/952/581 481/819/470 
s off
f 484/822/473 635/999/624 643/1018/632 464/802/453 
f 486/824/475 620/982/609 565/914/554 487/825/476 
f 489/993/478 629/992/618 645/1022/634 468/806/457 
f 491/831/480 632/996/621 568/1037/557 492/832/481 
f 494/834/483 611/973/600 647/1040/636 472/810/461 
f 496/920/485 626/989/615 571/921/560 497/920/486 
f 499/839/488 617/979/606 649/1027/638 476/814/465 
f 501/841/490 608/970/597 574/923/563 502/842/491 
f 504/844/493 623/1001/612 651/1045/640 480/845/469 
f 506/848/495 614/1108/603 577/1109/566 507/849/496 
s 2
f 509/851/498 653/1046/642 638/1049/627 510/852/499 
f 513/1010/502 655/1050/644 639/1011/628 514/1010/503 
f 517/858/506 657/1052/646 640/1012/629 518/859/507 
f 521/862/510 659/1055/648 641/1013/630 522/863/511 
f 525/866/514 661/1095/650 642/1110/631 526/867/515 
s off
f 528/869/517 588/1059/577 664/1062/653 529/870/518 
f 531/872/520 584/938/573 666/1065/655 532/873/521 
f 534/875/523 591/951/580 668/1067/657 535/876/524 
f 537/848/526 587/1111/576 670/1087/659 538/878/527 
f 540/880/529 579/1112/568 672/1091/661 541/881/530 
f 543/883/532 590/950/579 674/1074/663 544/884/533 
f 546/940/535 585/939/574 676/1076/665 547/1113/536 
f 549/890/538 581/935/570 678/1078/667 550/891/539 
f 552/892/541 582/936/571 680/1081/669 553/893/542 
f 555/894/544 578/1082/567 682/1085/671 556/895/545 
f 529/870/518 664/1062/653 595/955/584 558/897/547 
f 532/873/521 666/1065/655 653/1046/642 509/851/498 
f 535/876/524 668/1067/657 598/959/587 559/958/548 
f 538/878/527 670/1087/659 655/1090/644 513/855/502 
f 541/881/530 672/1091/661 601/1021/590 560/902/549 
f 544/884/533 674/1074/663 657/1052/646 517/858/506 
f 547/888/536 676/1114/665 604/1115/593 561/907/550 
f 550/908/539 678/1116/667 659/1117/648 521/909/510 
f 553/893/542 680/1081/669 607/969/596 562/911/551 
f 556/895/545 682/1085/671 661/1095/650 525/866/514 
s 8
f 564/913/553 463/801/452 466/804/455 487/825/476 
f 567/832/556 467/805/456 470/808/459 492/832/481 
f 570/919/559 471/809/460 474/812/463 497/920/486 
f 573/849/562 475/813/464 478/816/467 502/842/491 
f 576/925/565 479/846/468 482/1118/471 507/926/496 
s off
f 555/894/544 483/821/472 463/801/452 564/913/553 
f 540/932/529 485/1119/474 466/840/455 465/933/454 
f 549/890/538 488/826/477 467/829/456 567/916/556 
f 552/892/541 490/830/479 470/808/459 469/807/458 
f 531/872/520 493/833/482 471/809/460 570/919/559 
f 546/940/535 495/835/484 474/837/463 473/941/462 
f 537/944/526 498/1120/487 475/1121/464 573/926/562 
f 528/869/517 500/840/489 478/816/467 477/815/466 
f 543/883/532 503/843/492 479/846/468 576/925/565 
f 534/875/523 505/847/494 482/820/471 481/819/470 
s 2
f 594/954/583 508/850/497 511/853/500 558/897/547 
f 597/957/586 512/854/501 515/856/504 559/958/548 
f 600/1122/589 516/857/505 519/860/508 560/902/549 
f 603/964/592 520/910/509 523/1123/512 561/965/550 
f 606/968/595 524/865/513 527/868/516 562/911/551 
s off
f 501/841/490 500/840/489 530/871/519 609/971/598 
f 494/834/483 493/833/482 533/874/522 612/974/601 
f 506/944/495 505/1124/494 536/898/525 615/977/604 
f 499/839/488 498/838/487 539/879/528 618/980/607 
f 486/824/475 485/823/474 542/882/531 621/983/610 
f 504/844/493 503/843/492 545/885/534 624/1125/613 
f 496/920/485 495/886/484 548/889/537 627/990/616 
f 489/993/478 488/1126/477 551/805/540 630/994/619 
f 491/831/480 490/830/479 554/868/543 633/997/622 
f 484/822/473 483/821/472 557/896/546 636/1000/625 
f 609/971/598 530/871/519 511/853/500 510/852/499 
f 612/1007/601 533/1127/522 508/1128/497 594/1008/583 
f 615/977/604 536/898/525 515/901/504 514/1010/503 
f 618/980/607 539/879/528 512/854/501 597/957/586 
f 621/983/610 542/882/531 519/860/508 518/859/507 
f 624/987/613 545/903/534 516/906/505 600/961/589 
f 627/990/616 548/889/537 523/864/512 522/863/511 
f 630/994/619 551/805/540 520/910/509 603/964/592 
f 633/1015/622 554/1129/543 527/1129/516 526/1016/515 
f 636/1000/625 557/896/546 524/865/513 606/968/595 
s 8
f 644/1130/633 383/1131/372 382/657/371 385/656/374 
f 646/1023/635 388/1132/377 387/1133/376 390/1024/379 
f 648/1026/637 393/1134/382 392/679/381 395/678/384 
f 650/1028/639 398/1135/387 397/1136/386 400/1029/389 
f 652/1032/641 403/1137/392 402/701/391 405/700/394 
s off
f 445/1033/434 361/1138/350 383/1139/372 644/1019/633 
f 434/739/423 323/738/311 340/1140/329 343/1034/332 
f 441/751/430 366/750/355 388/1132/377 646/1023/635 
f 443/755/432 324/754/312 344/611/333 347/614/336 
f 428/1038/417 370/1141/359 393/1142/382 648/1039/637 
f 438/747/427 329/746/317 348/615/337 351/618/340 
f 432/735/421 374/734/363 398/1135/387 650/1028/639 
f 426/1041/415 333/1143/321 352/1144/341 355/1042/344 
f 436/743/425 378/742/367 403/1137/392 652/1032/641 
f 430/731/419 337/730/326 356/623/345 359/626/348 
s 2
f 654/1145/643 448/1146/437 447/765/436 449/764/438 
f 656/1051/645 451/1147/440 450/771/439 452/770/441 
f 658/1053/647 454/1148/443 453/1140/442 455/1054/444 
f 660/1056/649 457/1149/446 456/789/445 458/788/447 
f 662/1058/651 461/1150/450 460/796/449 462/795/451 
s off
f 399/687/388 373/686/362 372/1151/361 663/1152/652 
f 391/1063/380 328/1153/316 331/1154/319 665/1064/654 
f 404/699/393 377/698/366 376/1155/365 667/1066/656 
f 396/683/385 332/682/320 335/1156/323 669/1068/658 
f 384/655/373 360/654/349 380/1157/369 671/1070/660 
f 401/1072/390 336/1158/325 339/1159/328 673/1073/662 
f 394/677/383 369/676/358 368/1160/357 675/1075/664 
f 386/661/375 326/660/314 327/1161/315 677/1077/666 
f 389/1079/378 365/1162/354 364/1163/353 679/1080/668 
f 381/651/370 322/650/310 459/1164/448 681/795/670 
f 663/1061/652 372/1165/361 406/1166/395 409/1086/398 
f 665/1064/654 331/1154/319 448/1167/437 654/1047/643 
f 667/1066/656 376/1155/365 410/706/399 413/709/402 
f 669/1068/658 335/1156/323 451/1147/440 656/1051/645 
f 671/1092/660 380/1168/369 414/1169/403 417/1093/406 
f 673/1073/662 339/1159/328 454/1148/443 658/1053/647 
f 675/1075/664 368/1160/357 418/714/407 421/717/410 
f 677/1077/666 327/1161/315 457/1149/446 660/1056/649 
f 679/1080/668 364/1163/353 422/718/411 425/721/414 
f 681/1084/670 459/1158/448 461/1170/450 662/1094/651 
# 642 polygons - 74 triangles

