# 3ds Max Wavefront OBJ Exporter v0.99 - (c)2007 guruware
# File Created: 30.08.2025 16:00:39

mtllib Marsh Villager.mtl

#
# object Marsh_Villager
#

v  -803.1773 0.0000 21.0957
v  -792.6584 0.0000 10.5768
v  -788.3013 0.0000 21.0957
v  -803.1773 0.0000 6.2197
v  -792.6584 0.0000 31.6146
v  -803.1773 0.0000 35.9717
v  -795.9352 37.3060 21.0957
v  -798.0564 37.3060 15.9748
v  -796.2920 39.6940 14.2104
v  -793.4399 39.6940 21.0957
v  -803.1773 37.3060 13.8536
v  -803.1773 39.6940 11.3584
v  -803.1773 37.3060 28.3378
v  -798.0564 37.3060 26.2166
v  -796.2920 39.6940 27.9810
v  -803.1773 39.6940 30.8330
v  -793.4399 45.9310 21.0957
v  -796.2920 45.9310 14.2104
v  -796.2920 54.0712 14.2104
v  -793.4399 54.0712 21.0957
v  -803.1773 45.9310 11.3584
v  -803.1773 54.0712 11.3584
v  -801.0822 48.4434 32.7712
v  -798.4252 48.4434 32.7700
v  -798.4252 51.5589 32.7700
v  -801.0822 51.5589 32.7712
v  -796.2920 45.9310 27.9810
v  -796.2920 54.0712 27.9810
v  -793.4399 60.3082 21.0957
v  -796.2920 60.3082 14.2104
v  -798.0564 61.9287 15.9748
v  -795.9352 61.9287 21.0957
v  -803.1773 60.3082 11.3584
v  -803.1773 61.9287 13.8536
v  -803.1773 60.3082 30.8330
v  -796.2920 60.3082 27.9810
v  -798.0564 61.9287 26.2166
v  -803.1773 61.9287 28.3378
v  -803.1773 61.9287 21.0957
v  -788.3105 37.2172 21.0957
v  -792.6649 37.2172 10.5833
v  -792.6649 37.2172 31.6081
v  -803.1773 37.2172 35.9625
v  -803.1773 37.2172 6.2289
v  -779.4769 32.2685 21.0957
v  -786.4186 32.2685 4.3370
v  -786.4186 32.2685 37.8545
v  -803.1773 32.2685 44.7962
v  -803.1773 32.2685 -2.6048
v  -779.4769 6.6889 21.0957
v  -786.4186 6.6889 4.3370
v  -772.5780 26.8445 30.8808
v  -774.9715 26.8445 36.6592
v  -774.9715 21.2245 36.6592
v  -772.5780 21.2245 30.8808
v  -803.1773 6.6889 44.7962
v  -786.4186 6.6889 37.8545
v  -803.1773 6.6889 -2.6048
v  -784.7118 28.1766 33.7340
v  -781.1836 28.1766 25.2162
v  -784.7118 19.8923 33.7340
v  -781.1836 19.8923 25.2162
v  -803.1773 54.0712 30.8330
v  -803.1773 45.9310 30.8330
v  -776.8069 28.1766 36.9159
v  -773.2787 28.1766 28.3981
v  -776.8069 19.8923 36.9159
v  -773.2787 19.8923 28.3981
v  -797.2697 52.9153 28.3860
v  -797.2697 47.0870 28.3860
v  -802.1995 52.9153 30.4280
v  -802.1995 47.0870 30.4280
v  -797.2685 52.9153 31.9612
v  -797.2685 47.0870 31.9612
v  -802.2389 52.9153 31.9634
v  -802.2389 47.0870 31.9634
v  -805.1084 0.0000 21.0957
v  -805.1084 0.0000 6.2197
v  -805.1084 6.6889 -2.6048
v  -805.1084 32.2685 -2.6048
v  -805.1084 37.2172 6.2289
v  -805.1084 37.3060 13.8536
v  -805.1084 39.6940 11.3584
v  -805.1084 45.9310 11.3584
v  -805.1084 54.0712 11.3584
v  -805.1084 60.3082 11.3584
v  -805.1084 61.9287 13.8536
v  -805.1084 61.9287 21.0957
v  -805.1084 61.9287 28.3378
v  -805.1084 60.3082 30.8330
v  -805.1084 54.0712 30.8330
v  -805.1084 45.9310 30.8330
v  -805.1084 39.6940 30.8330
v  -805.1084 37.3060 28.3378
v  -805.1084 37.2172 35.9625
v  -805.1084 32.2685 44.7962
v  -805.1084 6.6889 44.7962
v  -805.1084 0.0000 35.9717
v  -807.0395 0.0000 21.0957
v  -821.9155 0.0000 21.0957
v  -817.5584 0.0000 10.5768
v  -807.0395 0.0000 6.2197
v  -807.0395 0.0000 35.9717
v  -817.5584 0.0000 31.6146
v  -814.2816 37.3060 21.0957
v  -816.7769 39.6940 21.0957
v  -813.9248 39.6940 14.2104
v  -812.1604 37.3060 15.9748
v  -807.0395 39.6940 11.3584
v  -807.0395 37.3060 13.8536
v  -807.0395 37.3060 28.3378
v  -807.0395 39.6940 30.8330
v  -813.9248 39.6940 27.9810
v  -812.1604 37.3060 26.2166
v  -816.7769 45.9310 21.0957
v  -816.7769 54.0712 21.0957
v  -813.9248 54.0712 14.2104
v  -813.9248 45.9310 14.2104
v  -807.0395 54.0712 11.3584
v  -807.0395 45.9310 11.3584
v  -809.1346 48.4434 32.7712
v  -809.1346 51.5589 32.7712
v  -811.7916 51.5589 32.7700
v  -811.7916 48.4434 32.7700
v  -813.9248 45.9310 27.9810
v  -813.9248 54.0712 27.9810
v  -816.7769 60.3082 21.0957
v  -814.2816 61.9287 21.0957
v  -812.1604 61.9287 15.9748
v  -813.9248 60.3082 14.2104
v  -807.0395 61.9287 13.8536
v  -807.0395 60.3082 11.3584
v  -807.0395 60.3082 30.8330
v  -807.0395 61.9287 28.3378
v  -812.1604 61.9287 26.2166
v  -813.9248 60.3082 27.9810
v  -807.0395 61.9287 21.0957
v  -817.5519 37.2172 10.5833
v  -821.9063 37.2172 21.0957
v  -817.5519 37.2172 31.6081
v  -807.0395 37.2172 35.9625
v  -807.0395 37.2172 6.2289
v  -823.7982 32.2685 4.3370
v  -830.7399 32.2685 21.0957
v  -823.7982 32.2685 37.8545
v  -807.0395 32.2685 44.7962
v  -807.0395 32.2685 -2.6048
v  -823.7982 6.6889 4.3370
v  -830.7399 6.6889 21.0957
v  -837.6388 26.8445 30.8808
v  -837.6388 21.2245 30.8808
v  -835.2453 21.2245 36.6592
v  -835.2453 26.8445 36.6592
v  -823.7982 6.6889 37.8545
v  -807.0395 6.6889 44.7962
v  -807.0395 6.6889 -2.6048
v  -829.0332 28.1766 25.2162
v  -825.5050 28.1766 33.7340
v  -825.5050 19.8923 33.7340
v  -829.0332 19.8923 25.2162
v  -807.0395 54.0712 30.8330
v  -807.0395 45.9310 30.8330
v  -836.9380 28.1766 28.3981
v  -833.4099 28.1766 36.9159
v  -833.4099 19.8923 36.9159
v  -836.9380 19.8923 28.3981
v  -812.9471 47.0870 28.3860
v  -812.9471 52.9153 28.3860
v  -808.0173 52.9153 30.4280
v  -808.0173 47.0870 30.4280
v  -812.9483 47.0870 31.9612
v  -812.9483 52.9153 31.9612
v  -807.9779 52.9153 31.9634
v  -807.9779 47.0870 31.9634
# 174 vertices

vn 0.0000 -1.0000 -0.0000
vn 0.2731 -0.9224 -0.2731
vn 0.3862 -0.9224 -0.0000
vn 0.0781 -0.9332 -0.3509
vn 0.2731 -0.9224 0.2731
vn 0.0781 -0.9332 0.3509
vn 0.8796 0.4757 -0.0000
vn 0.6220 0.4757 -0.6220
vn 0.6592 -0.3619 -0.6592
vn 0.9322 -0.3619 -0.0000
vn 0.1953 0.4189 -0.8868
vn 0.1755 -0.3727 -0.9112
vn 0.1952 0.4188 0.8869
vn 0.6220 0.4757 0.6220
vn 0.6592 -0.3619 0.6592
vn 0.1755 -0.3727 0.9112
vn 1.0000 -0.0000 -0.0000
vn 0.7071 0.0000 -0.7071
vn 1.0000 0.0000 -0.0000
vn 0.1951 -0.0000 -0.9808
vn 0.1951 0.0000 -0.9808
vn -0.2363 -0.1994 0.9510
vn 0.2369 -0.1994 0.9508
vn 0.2370 0.1994 0.9508
vn -0.2362 0.1994 0.9510
vn 0.7071 -0.0000 0.7071
vn 0.7071 0.0000 0.7071
vn 0.9009 0.4341 -0.0000
vn 0.6370 0.4341 -0.6370
vn 0.2449 0.9381 -0.2449
vn 0.3464 0.9381 -0.0000
vn 0.1689 0.4509 -0.8764
vn 0.0704 0.9468 -0.3140
vn 0.1689 0.4509 0.8764
vn 0.6370 0.4341 0.6370
vn 0.2449 0.9381 0.2449
vn 0.0704 0.9468 0.3140
vn -0.0000 1.0000 -0.0000
vn 0.3137 0.9495 -0.0000
vn 0.2218 0.9495 -0.2218
vn 0.2218 0.9495 0.2218
vn 0.0640 0.9564 0.2851
vn 0.0640 0.9564 -0.2851
vn 0.8888 0.4582 -0.0000
vn 0.6285 0.4583 -0.6285
vn 0.6285 0.4583 0.6285
vn 0.1666 0.4773 0.8628
vn 0.1665 0.4773 -0.8628
vn 0.9136 -0.4067 0.0000
vn 0.6460 -0.4066 -0.6460
vn 0.9298 0.3480 0.1197
vn 0.6315 0.3296 0.7019
vn 0.6314 -0.3296 0.7019
vn 0.9298 -0.3480 0.1197
vn 0.1715 -0.4211 0.8906
vn 0.6460 -0.4066 0.6460
vn 0.1716 -0.4211 -0.8907
vn 0.7215 0.2989 0.6245
vn 0.9503 0.3041 0.0666
vn 0.7215 -0.2989 0.6245
vn 0.9503 -0.3041 0.0666
vn 0.1951 0.0000 0.9808
vn 0.1951 -0.0000 0.9808
vn 0.0612 0.6756 0.7347
vn 0.6197 0.6379 -0.4573
vn 0.0612 -0.6756 0.7347
vn 0.6197 -0.6379 -0.4573
vn 0.5991 0.2092 0.7729
vn 0.5991 -0.2092 0.7729
vn 0.0490 0.4183 0.9070
vn 0.0490 -0.4183 0.9070
vn 0.6277 0.6334 0.4526
vn 0.6277 -0.6334 0.4526
vn -0.6340 0.6323 0.4452
vn -0.6340 -0.6323 0.4452
vn 0.0000 -0.9479 -0.3186
vn 0.0000 -0.4449 -0.8956
vn -0.0000 0.5056 -0.8628
vn -0.0000 0.9661 -0.2582
vn 0.0000 0.3671 -0.9302
vn 0.0000 -0.3928 -0.9196
vn -0.0000 -0.0000 -1.0000
vn 0.0000 0.0000 -1.0000
vn 0.0000 0.4772 -0.8788
vn 0.0000 0.9588 -0.2840
vn 0.0000 1.0000 -0.0000
vn 0.0000 0.9588 0.2840
vn 0.0000 0.4772 0.8788
vn 0.0000 0.0000 1.0000
vn 0.0000 -0.0000 1.0000
vn 0.0000 -0.3928 0.9196
vn 0.0000 0.3671 0.9302
vn 0.0000 0.9661 0.2582
vn 0.0000 0.5056 0.8628
vn 0.0000 -0.4449 0.8956
vn 0.0000 -0.9479 0.3186
vn -0.3862 -0.9224 -0.0000
vn -0.2731 -0.9224 -0.2731
vn -0.0781 -0.9332 -0.3509
vn -0.0781 -0.9332 0.3509
vn -0.2731 -0.9224 0.2731
vn -0.8796 0.4757 -0.0000
vn -0.9322 -0.3619 -0.0000
vn -0.6592 -0.3619 -0.6592
vn -0.6220 0.4757 -0.6220
vn -0.1755 -0.3727 -0.9112
vn -0.1953 0.4189 -0.8868
vn -0.1952 0.4188 0.8869
vn -0.1755 -0.3727 0.9112
vn -0.6592 -0.3619 0.6592
vn -0.6220 0.4757 0.6220
vn -1.0000 -0.0000 -0.0000
vn -1.0000 0.0000 -0.0000
vn -0.7071 0.0000 -0.7071
vn -0.1951 0.0000 -0.9808
vn -0.1951 -0.0000 -0.9808
vn 0.2363 -0.1994 0.9510
vn 0.2362 0.1994 0.9510
vn -0.2370 0.1994 0.9508
vn -0.2369 -0.1994 0.9508
vn -0.7071 -0.0000 0.7071
vn -0.7071 0.0000 0.7071
vn -0.9009 0.4341 -0.0000
vn -0.3464 0.9381 -0.0000
vn -0.2449 0.9381 -0.2449
vn -0.6370 0.4341 -0.6370
vn -0.0704 0.9468 -0.3140
vn -0.1689 0.4509 -0.8764
vn -0.1689 0.4509 0.8764
vn -0.0704 0.9468 0.3140
vn -0.2449 0.9381 0.2449
vn -0.6370 0.4341 0.6370
vn -0.2218 0.9495 -0.2218
vn -0.3137 0.9495 -0.0000
vn -0.2218 0.9495 0.2218
vn -0.0640 0.9564 0.2851
vn -0.0640 0.9564 -0.2851
vn -0.6285 0.4583 -0.6285
vn -0.8888 0.4582 -0.0000
vn -0.6285 0.4583 0.6285
vn -0.1666 0.4773 0.8628
vn -0.1665 0.4773 -0.8628
vn -0.6460 -0.4066 -0.6460
vn -0.9136 -0.4067 0.0000
vn -0.9298 0.3480 0.1197
vn -0.9298 -0.3480 0.1197
vn -0.6314 -0.3296 0.7019
vn -0.6315 0.3296 0.7019
vn -0.6460 -0.4066 0.6460
vn -0.1715 -0.4211 0.8906
vn -0.1716 -0.4211 -0.8907
vn -0.9503 0.3041 0.0666
vn -0.7215 0.2989 0.6245
vn -0.7215 -0.2989 0.6245
vn -0.9503 -0.3041 0.0666
vn -0.1951 0.0000 0.9808
vn -0.1951 -0.0000 0.9808
vn -0.6197 0.6379 -0.4573
vn -0.0612 0.6756 0.7347
vn -0.0612 -0.6756 0.7347
vn -0.6197 -0.6379 -0.4573
vn -0.5991 -0.2092 0.7729
vn -0.5991 0.2092 0.7729
vn -0.0490 0.4183 0.9070
vn -0.0490 -0.4183 0.9070
vn -0.6277 -0.6334 0.4526
vn -0.6277 0.6334 0.4526
vn 0.6340 0.6323 0.4452
vn 0.6340 -0.6323 0.4452
# 169 vertex normals

vt 0.1997 0.2321 0.0000
vt 0.2524 0.3563 0.0000
vt 0.1492 0.3572 0.0000
vt 0.3247 0.2826 0.0000
vt 0.0756 0.2848 0.0000
vt 0.0747 0.1816 0.0000
vt 0.4376 0.3107 0.0000
vt 0.4376 0.3609 0.0000
vt 0.4075 0.3696 0.0000
vt 0.4075 0.3020 0.0000
vt 0.4623 0.3965 0.0000
vt 0.4407 0.4174 0.0000
vt 0.4750 0.2605 0.0000
vt 0.4750 0.2103 0.0000
vt 0.5051 0.2016 0.0000
vt 0.5051 0.2692 0.0000
vt 0.4623 0.2752 0.0000
vt 0.4407 0.2543 0.0000
vt 0.4412 0.8327 0.0000
vt 0.5036 0.8327 0.0000
vt 0.5036 0.9065 0.0000
vt 0.4412 0.9065 0.0000
vt 0.3176 0.7762 0.0000
vt 0.3176 0.8386 0.0000
vt 0.2438 0.8386 0.0000
vt 0.2438 0.7762 0.0000
vt 0.0110 0.0128 0.0000
vt 0.0351 0.0128 0.0000
vt 0.0351 0.0410 0.0000
vt 0.0110 0.0410 0.0000
vt 0.3788 0.8327 0.0000
vt 0.3788 0.9065 0.0000
vt 0.1285 0.7762 0.0000
vt 0.1767 0.8235 0.0000
vt 0.1559 0.8324 0.0000
vt 0.1200 0.7972 0.0000
vt 0.1773 0.8911 0.0000
vt 0.1563 0.8826 0.0000
vt 0.0136 0.8250 0.0000
vt 0.0610 0.7768 0.0000
vt 0.0698 0.7976 0.0000
vt 0.0346 0.8334 0.0000
vt 0.0954 0.8580 0.0000
vt 0.8180 0.2732 0.0000
vt 0.8532 0.2374 0.0000
vt 0.9173 0.2633 0.0000
vt 0.8450 0.3368 0.0000
vt 0.8528 0.1871 0.0000
vt 0.9164 0.1601 0.0000
vt 0.8169 0.1519 0.0000
vt 0.8428 0.0879 0.0000
vt 0.7678 0.2737 0.0000
vt 0.7419 0.3377 0.0000
vt 0.9915 0.2933 0.0000
vt 0.8763 0.4105 0.0000
vt 0.9901 0.1289 0.0000
vt 0.8728 0.0136 0.0000
vt 0.7119 0.4120 0.0000
vt 0.9890 0.8835 0.0000
vt 0.8371 0.8835 0.0000
vt 0.8371 0.6517 0.0000
vt 0.9890 0.6517 0.0000
vt 0.5776 0.6275 0.0000
vt 0.5776 0.5751 0.0000
vt 0.6285 0.5751 0.0000
vt 0.6285 0.6275 0.0000
vt 0.9905 0.6489 0.0000
vt 0.8386 0.6489 0.0000
vt 0.8386 0.4171 0.0000
vt 0.9905 0.4171 0.0000
vt 0.0005 0.5881 0.0000
vt 0.0005 0.4362 0.0000
vt 0.2324 0.4362 0.0000
vt 0.2324 0.5881 0.0000
vt 0.2836 0.4299 0.0000
vt 0.1192 0.4313 0.0000
vt 0.0019 0.3161 0.0000
vt 0.0005 0.1517 0.0000
vt 0.3989 0.3126 0.0000
vt 0.6852 0.8835 0.0000
vt 0.7226 0.8465 0.0000
vt 0.7998 0.8465 0.0000
vt 0.6852 0.6517 0.0000
vt 0.7226 0.7714 0.0000
vt 0.7998 0.7714 0.0000
vt 0.4412 0.7762 0.0000
vt 0.5036 0.7762 0.0000
vt 0.3741 0.7762 0.0000
vt 0.3741 0.8386 0.0000
vt 0.1872 0.8386 0.0000
vt 0.1872 0.7762 0.0000
vt 0.5036 0.9630 0.0000
vt 0.4412 0.9630 0.0000
vt 0.3788 0.9630 0.0000
vt 0.6679 0.9630 0.0000
vt 0.6055 0.9630 0.0000
vt 0.6055 0.9065 0.0000
vt 0.6679 0.9065 0.0000
vt 0.6055 0.7762 0.0000
vt 0.6679 0.7762 0.0000
vt 0.6679 0.8327 0.0000
vt 0.6055 0.8327 0.0000
vt 0.3788 0.7762 0.0000
vt 0.4734 0.5319 0.0000
vt 0.4697 0.4484 0.0000
vt 0.5469 0.4458 0.0000
vt 0.5506 0.5293 0.0000
vt 0.5448 0.4192 0.0000
vt 0.4697 0.4192 0.0000
vt 0.4697 0.3475 0.0000
vt 0.5448 0.3475 0.0000
vt 0.5469 0.6515 0.0000
vt 0.4697 0.6196 0.0000
vt 0.4986 0.5479 0.0000
vt 0.5758 0.5799 0.0000
vt 0.6419 0.3692 0.0000
vt 0.6419 0.4443 0.0000
vt 0.5703 0.4443 0.0000
vt 0.5703 0.3692 0.0000
vt 0.5618 0.4537 0.0000
vt 0.5642 0.5103 0.0000
vt 0.4818 0.3309 0.0000
vt 0.5328 0.3309 0.0000
vt 0.5211 0.5416 0.0000
vt 0.5735 0.5633 0.0000
vt 0.6406 0.6500 0.0000
vt 0.5655 0.6500 0.0000
vt 0.6590 0.8960 0.0000
vt 0.6590 0.8432 0.0000
vt 0.6143 0.8960 0.0000
vt 0.6143 0.8432 0.0000
vt 0.0377 0.3548 0.0000
vt 0.0377 0.4077 0.0000
vt 0.0053 0.4077 0.0000
vt 0.0053 0.3548 0.0000
vt 0.0329 0.0580 0.0000
vt 0.0144 0.1027 0.0000
vt 0.0005 0.1030 0.0000
vt 0.0005 0.0580 0.0000
vt 0.7419 0.1735 0.0000
vt 0.7947 0.1735 0.0000
vt 0.7947 0.1874 0.0000
vt 0.7419 0.1874 0.0000
vt 0.0527 0.3695 0.0000
vt 0.0712 0.4142 0.0000
vt 0.0388 0.4142 0.0000
vt 0.0388 0.3692 0.0000
vt 0.0456 0.0005 0.0000
vt 0.0456 0.0533 0.0000
vt 0.0005 0.0533 0.0000
vt 0.0005 0.0005 0.0000
vt 0.2062 0.2159 0.0000
vt 0.3313 0.2664 0.0000
vt 0.4054 0.2964 0.0000
vt 0.2324 0.6056 0.0000
vt 0.0005 0.6056 0.0000
vt 0.6957 0.4054 0.0000
vt 0.7256 0.3312 0.0000
vt 0.7515 0.2671 0.0000
vt 0.5782 0.0471 0.0000
vt 0.5782 0.0244 0.0000
vt 0.5957 0.0244 0.0000
vt 0.5957 0.0471 0.0000
vt 0.3741 0.8561 0.0000
vt 0.3176 0.8561 0.0000
vt 0.2438 0.8561 0.0000
vt 0.1872 0.8561 0.0000
vt 0.1707 0.9073 0.0000
vt 0.1498 0.8988 0.0000
vt 0.0889 0.8742 0.0000
vt 0.0280 0.8497 0.0000
vt 0.0071 0.8412 0.0000
vt 0.5880 0.9630 0.0000
vt 0.5880 0.9065 0.0000
vt 0.5880 0.8327 0.0000
vt 0.5880 0.7762 0.0000
vt 0.5782 0.0231 0.0000
vt 0.5782 0.0005 0.0000
vt 0.5957 0.0005 0.0000
vt 0.5957 0.0231 0.0000
vt 0.8007 0.1454 0.0000
vt 0.8266 0.0813 0.0000
vt 0.8566 0.0071 0.0000
vt 0.8211 0.6489 0.0000
vt 0.8211 0.4171 0.0000
vt 0.0071 0.1354 0.0000
vt 0.0812 0.1654 0.0000
vt 0.2128 0.1997 0.0000
vt 0.2633 0.0747 0.0000
vt 0.3369 0.1470 0.0000
vt 0.3378 0.2502 0.0000
vt 0.0878 0.1492 0.0000
vt 0.1601 0.0756 0.0000
vt 0.8805 0.9164 0.0000
vt 0.8718 0.8863 0.0000
vt 0.9394 0.8863 0.0000
vt 0.9307 0.9164 0.0000
vt 0.9872 0.9195 0.0000
vt 0.9663 0.9411 0.0000
vt 0.4657 0.2928 0.0000
vt 0.4958 0.3015 0.0000
vt 0.4626 0.3493 0.0000
vt 0.4410 0.3284 0.0000
vt 0.8450 0.9411 0.0000
vt 0.8241 0.9195 0.0000
vt 0.4747 0.0570 0.0000
vt 0.4747 0.1308 0.0000
vt 0.4123 0.1308 0.0000
vt 0.4123 0.0570 0.0000
vt 0.3176 0.9360 0.0000
vt 0.2438 0.9360 0.0000
vt 0.2438 0.8736 0.0000
vt 0.3176 0.8736 0.0000
vt 0.3810 0.0351 0.0000
vt 0.3528 0.0351 0.0000
vt 0.3528 0.0110 0.0000
vt 0.3810 0.0110 0.0000
vt 0.5371 0.0570 0.0000
vt 0.5371 0.1308 0.0000
vt 0.0493 0.9723 0.0000
vt 0.0577 0.9513 0.0000
vt 0.1080 0.9509 0.0000
vt 0.1168 0.9717 0.0000
vt 0.1432 0.9151 0.0000
vt 0.1642 0.9235 0.0000
vt 0.0005 0.8574 0.0000
vt 0.0215 0.8659 0.0000
vt 0.0219 0.9161 0.0000
vt 0.0011 0.9250 0.0000
vt 0.0823 0.8905 0.0000
vt 0.6995 0.2253 0.0000
vt 0.6359 0.2523 0.0000
vt 0.6350 0.1492 0.0000
vt 0.6990 0.1751 0.0000
vt 0.7072 0.0756 0.0000
vt 0.7342 0.1393 0.0000
vt 0.8104 0.0747 0.0000
vt 0.7845 0.1388 0.0000
vt 0.7353 0.2605 0.0000
vt 0.7094 0.3246 0.0000
vt 0.5622 0.2836 0.0000
vt 0.5607 0.1192 0.0000
vt 0.6760 0.0019 0.0000
vt 0.8404 0.0005 0.0000
vt 0.6794 0.3989 0.0000
vt 0.2351 0.4410 0.0000
vt 0.4670 0.4410 0.0000
vt 0.4670 0.5929 0.0000
vt 0.2351 0.5929 0.0000
vt 0.9302 0.9770 0.0000
vt 0.8792 0.9770 0.0000
vt 0.8792 0.9246 0.0000
vt 0.9302 0.9246 0.0000
vt 0.6517 0.6489 0.0000
vt 0.6517 0.4171 0.0000
vt 0.8036 0.4171 0.0000
vt 0.8036 0.6489 0.0000
vt 0.0005 0.6231 0.0000
vt 0.2324 0.6231 0.0000
vt 0.2324 0.7750 0.0000
vt 0.0005 0.7750 0.0000
vt 0.4105 0.1157 0.0000
vt 0.2933 0.0005 0.0000
vt 0.1289 0.0019 0.0000
vt 0.0136 0.1192 0.0000
vt 0.4120 0.2802 0.0000
vt 0.2722 0.6303 0.0000
vt 0.2722 0.7075 0.0000
vt 0.2351 0.7448 0.0000
vt 0.3473 0.7075 0.0000
vt 0.4670 0.7448 0.0000
vt 0.3473 0.6303 0.0000
vt 0.4747 0.0005 0.0000
vt 0.4123 0.0005 0.0000
vt 0.3741 0.9360 0.0000
vt 0.3741 0.8736 0.0000
vt 0.1872 0.8736 0.0000
vt 0.1872 0.9360 0.0000
vt 0.4123 0.1873 0.0000
vt 0.4747 0.1873 0.0000
vt 0.5371 0.1873 0.0000
vt 0.5080 0.9630 0.0000
vt 0.5080 0.9065 0.0000
vt 0.5705 0.9065 0.0000
vt 0.5705 0.9630 0.0000
vt 0.5705 0.7762 0.0000
vt 0.5705 0.8327 0.0000
vt 0.5080 0.8327 0.0000
vt 0.5080 0.7762 0.0000
vt 0.5371 0.0005 0.0000
vt 0.5758 0.6693 0.0000
vt 0.5469 0.7410 0.0000
vt 0.4697 0.7090 0.0000
vt 0.4986 0.6373 0.0000
vt 0.6852 0.8863 0.0000
vt 0.7569 0.8863 0.0000
vt 0.7569 0.9614 0.0000
vt 0.6852 0.9614 0.0000
vt 0.6696 0.7448 0.0000
vt 0.5924 0.7474 0.0000
vt 0.5887 0.6639 0.0000
vt 0.6659 0.6613 0.0000
vt 0.6406 0.4554 0.0000
vt 0.6406 0.5270 0.0000
vt 0.5655 0.5270 0.0000
vt 0.5655 0.4554 0.0000
vt 0.5244 0.7473 0.0000
vt 0.4721 0.7256 0.0000
vt 0.7735 0.8984 0.0000
vt 0.7735 0.9493 0.0000
vt 0.5776 0.7395 0.0000
vt 0.5751 0.6828 0.0000
vt 0.8672 0.9995 0.0000
vt 0.9423 0.9995 0.0000
vt 0.5169 0.8432 0.0000
vt 0.5169 0.8960 0.0000
vt 0.5616 0.8960 0.0000
vt 0.5616 0.8432 0.0000
vt 0.7947 0.1879 0.0000
vt 0.7947 0.2203 0.0000
vt 0.7419 0.2203 0.0000
vt 0.7419 0.1879 0.0000
vt 0.0580 0.0329 0.0000
vt 0.0580 0.0005 0.0000
vt 0.1030 0.0005 0.0000
vt 0.1027 0.0144 0.0000
vt 0.7419 0.2347 0.0000
vt 0.7419 0.2208 0.0000
vt 0.7947 0.2208 0.0000
vt 0.7947 0.2347 0.0000
vt 0.3600 0.0623 0.0000
vt 0.3596 0.0484 0.0000
vt 0.4047 0.0484 0.0000
vt 0.4047 0.0808 0.0000
vt 0.3933 0.0005 0.0000
vt 0.3405 0.0005 0.0000
vt 0.3405 0.0456 0.0000
vt 0.3933 0.0456 0.0000
vt 0.5607 0.0471 0.0000
vt 0.5607 0.0244 0.0000
vt 0.5607 0.0231 0.0000
vt 0.5607 0.0005 0.0000
# 342 texture coords

o Marsh_Villager
g Marsh_Villager
usemtl wire_088199225
s 1
f 1/1/1 2/2/2 3/3/3 
f 1/1/1 4/4/4 2/2/2 
f 1/1/1 5/5/5 6/6/6 
f 1/1/1 3/3/3 5/5/5 
f 7/7/7 8/8/8 9/9/9 10/10/10 
f 8/8/8 11/11/11 12/12/12 9/9/9 
f 13/13/13 14/14/14 15/15/15 16/16/16 
f 14/17/14 7/7/7 10/10/10 15/18/15 
s 8
f 17/19/17 18/20/18 19/21/18 20/22/19 
f 18/23/18 21/24/20 22/25/21 19/26/18 
f 23/27/22 24/28/23 25/29/24 26/30/25 
f 27/31/26 17/19/17 20/22/19 28/32/27 
s 1
f 29/33/28 30/34/29 31/35/30 32/36/31 
f 30/34/29 33/37/32 34/38/33 31/35/30 
f 35/39/34 36/40/35 37/41/36 38/42/37 
f 36/40/35 29/33/28 32/36/31 37/41/36 
f 39/43/38 32/36/31 31/35/30 
f 39/43/38 31/35/30 34/38/33 
f 39/43/38 38/42/37 37/41/36 
f 39/43/38 37/41/36 32/36/31 
s off
f 8/44/8 7/45/7 40/46/39 41/47/40 
f 7/45/7 14/48/14 42/49/41 40/46/39 
f 14/48/14 13/50/13 43/51/42 42/49/41 
f 11/52/11 8/44/8 41/47/40 44/53/43 
f 41/47/40 40/46/39 45/54/44 46/55/45 
f 40/46/39 42/49/41 47/56/46 45/54/44 
f 42/49/41 43/51/42 48/57/47 47/56/46 
f 44/53/43 41/47/40 46/55/45 49/58/48 
f 46/59/45 45/60/44 50/61/49 51/62/50 
f 52/63/51 53/64/52 54/65/53 55/66/54 
f 47/67/46 48/68/47 56/69/55 57/70/56 
f 49/71/48 46/72/45 51/73/50 58/74/57 
f 51/75/50 50/76/49 3/3/3 2/2/2 
f 50/76/49 57/77/56 5/5/5 3/3/3 
f 57/77/56 56/78/55 6/6/6 5/5/5 
f 58/79/57 51/75/50 2/2/2 4/4/4 
f 45/60/44 47/80/46 59/81/58 60/82/59 
f 47/80/46 57/83/56 61/84/60 59/81/58 
f 57/83/56 50/61/49 62/85/61 61/84/60 
f 50/61/49 45/60/44 60/82/59 62/85/61 
f 10/86/10 9/87/9 18/20/18 17/19/17 
f 9/88/9 12/89/12 21/24/20 18/23/18 
f 33/90/32 30/91/29 19/26/18 22/25/21 
f 30/92/29 29/93/28 20/22/19 19/21/18 
f 29/93/28 36/94/35 28/32/27 20/22/19 
f 36/95/35 35/96/34 63/97/62 28/98/27 
f 16/99/16 15/100/15 27/101/26 64/102/63 
f 15/103/15 10/86/10 17/19/17 27/31/26 
f 60/104/59 59/105/58 65/106/64 66/107/65 
f 59/108/58 61/109/60 67/110/66 65/111/64 
f 61/112/60 62/113/61 68/114/67 67/115/66 
f 62/116/61 60/117/59 66/118/65 68/119/67 
f 66/107/65 65/106/64 53/120/52 52/121/51 
f 65/111/64 67/110/66 54/122/53 53/123/52 
f 67/115/66 68/114/67 55/124/54 54/125/53 
f 68/126/67 66/127/65 52/63/51 55/66/54 
f 27/101/26 28/98/27 69/128/68 70/129/69 
f 28/98/27 63/97/62 71/130/70 69/128/68 
f 63/97/62 64/102/63 72/131/71 71/130/70 
f 64/102/63 27/101/26 70/129/69 72/131/71 
f 70/132/69 69/133/68 73/134/72 74/135/73 
f 69/136/68 71/137/70 75/138/74 73/139/72 
f 71/140/70 72/141/71 76/142/75 75/143/74 
f 72/144/71 70/145/69 74/146/73 76/147/75 
f 74/148/73 73/149/72 25/29/24 24/28/23 
f 73/149/72 75/150/74 26/30/25 25/29/24 
f 75/150/74 76/151/75 23/27/22 26/30/25 
f 76/151/75 74/148/73 24/28/23 23/27/22 
f 77/152/1 78/153/76 4/4/4 1/1/1 
f 78/153/76 79/154/77 58/79/57 4/4/4 
f 79/155/77 80/156/78 49/71/48 58/74/57 
f 80/157/78 81/158/79 44/53/43 49/58/48 
f 81/158/79 82/159/80 11/52/11 44/53/43 
f 82/160/80 83/161/81 12/162/12 11/163/11 
f 83/164/81 84/165/82 21/24/20 12/89/12 
f 84/165/82 85/166/83 22/25/21 21/24/20 
f 85/166/83 86/167/84 33/90/32 22/25/21 
f 86/168/84 87/169/85 34/38/33 33/37/32 
f 87/169/85 88/170/86 39/43/38 34/38/33 
f 88/170/86 89/171/87 38/42/37 39/43/38 
f 89/171/87 90/172/88 35/39/34 38/42/37 
f 90/173/88 91/174/89 63/97/62 35/96/34 
f 91/174/89 92/175/90 64/102/63 63/97/62 
f 92/175/90 93/176/91 16/99/16 64/102/63 
f 93/177/91 94/178/92 13/179/13 16/180/16 
f 94/181/92 95/182/93 43/51/42 13/50/13 
f 95/182/93 96/183/94 48/57/47 43/51/42 
f 96/184/94 97/185/95 56/69/55 48/68/47 
f 97/186/95 98/187/96 6/6/6 56/78/55 
f 98/187/96 77/152/1 1/1/1 6/6/6 
s 1
f 99/188/1 100/189/97 101/190/98 
f 99/188/1 101/190/98 102/191/99 
f 99/188/1 103/192/100 104/193/101 
f 99/188/1 104/193/101 100/189/97 
f 105/194/102 106/195/103 107/196/104 108/197/105 
f 108/197/105 107/196/104 109/198/106 110/199/107 
f 111/200/108 112/201/109 113/202/110 114/203/111 
f 114/204/111 113/205/110 106/195/103 105/194/102 
s 8
f 115/206/112 116/207/113 117/208/114 118/209/114 
f 118/210/114 117/211/114 119/212/115 120/213/116 
f 121/214/117 122/215/118 123/216/119 124/217/120 
f 125/218/121 126/219/122 116/207/113 115/206/112 
s 1
f 127/220/123 128/221/124 129/222/125 130/223/126 
f 130/223/126 129/222/125 131/224/127 132/225/128 
f 133/226/129 134/227/130 135/228/131 136/229/132 
f 136/229/132 135/228/131 128/221/124 127/220/123 
f 137/230/86 129/222/125 128/221/124 
f 137/230/86 131/224/127 129/222/125 
f 137/230/86 135/228/131 134/227/130 
f 137/230/86 128/221/124 135/228/131 
s off
f 108/231/105 138/232/133 139/233/134 105/234/102 
f 105/234/102 139/233/134 140/235/135 114/236/111 
f 114/236/111 140/235/135 141/237/136 111/238/108 
f 110/239/107 142/240/137 138/232/133 108/231/105 
f 138/232/133 143/241/138 144/242/139 139/233/134 
f 139/233/134 144/242/139 145/243/140 140/235/135 
f 140/235/135 145/243/140 146/244/141 141/237/136 
f 142/240/137 147/245/142 143/241/138 138/232/133 
f 143/246/138 148/247/143 149/248/144 144/249/139 
f 150/250/145 151/251/146 152/252/147 153/253/148 
f 145/254/140 154/255/149 155/256/150 146/257/141 
f 147/258/142 156/259/151 148/260/143 143/261/138 
f 148/262/143 101/190/98 100/189/97 149/263/144 
f 149/263/144 100/189/97 104/193/101 154/264/149 
f 154/264/149 104/193/101 103/192/100 155/265/150 
f 156/266/151 102/191/99 101/190/98 148/262/143 
f 144/249/139 157/267/152 158/268/153 145/269/140 
f 145/269/140 158/268/153 159/270/154 154/271/149 
f 154/271/149 159/270/154 160/272/155 149/248/144 
f 149/248/144 160/272/155 157/267/152 144/249/139 
f 106/273/103 115/206/112 118/209/114 107/274/104 
f 107/275/104 118/210/114 120/213/116 109/276/106 
f 132/277/128 119/212/115 117/211/114 130/278/126 
f 130/279/126 117/208/114 116/207/113 127/280/123 
f 127/280/123 116/207/113 126/219/122 136/281/132 
f 136/282/132 126/283/122 161/284/156 133/285/129 
f 112/286/109 162/287/157 125/288/121 113/289/110 
f 113/290/110 125/218/121 115/206/112 106/273/103 
f 157/291/152 163/292/158 164/293/159 158/294/153 
f 158/295/153 164/296/159 165/297/160 159/298/154 
f 159/299/154 165/300/160 166/301/161 160/302/155 
f 160/303/155 166/304/161 163/305/158 157/306/152 
f 163/292/158 150/307/145 153/308/148 164/293/159 
f 164/296/159 153/309/148 152/310/147 165/297/160 
f 165/300/160 152/311/147 151/312/146 166/301/161 
f 166/313/161 151/251/146 150/250/145 163/314/158 
f 125/288/121 167/315/162 168/316/163 126/283/122 
f 126/283/122 168/316/163 169/317/164 161/284/156 
f 161/284/156 169/317/164 170/318/165 162/287/157 
f 162/287/157 170/318/165 167/315/162 125/288/121 
f 167/319/162 171/320/166 172/321/167 168/322/163 
f 168/323/163 172/324/167 173/325/168 169/326/164 
f 169/327/164 173/328/168 174/329/169 170/330/165 
f 170/331/165 174/332/169 171/333/166 167/334/162 
f 171/335/166 124/217/120 123/216/119 172/336/167 
f 172/336/167 123/216/119 122/215/118 173/337/168 
f 173/337/168 122/215/118 121/214/117 174/338/169 
f 174/338/169 121/214/117 124/217/120 171/335/166 
f 77/152/1 99/188/1 102/191/99 78/153/76 
f 78/153/76 102/191/99 156/266/151 79/154/77 
f 79/155/77 156/259/151 147/258/142 80/156/78 
f 80/157/78 147/245/142 142/240/137 81/158/79 
f 81/158/79 142/240/137 110/239/107 82/159/80 
f 82/160/80 110/339/107 109/340/106 83/161/81 
f 83/164/81 109/276/106 120/213/116 84/165/82 
f 84/165/82 120/213/116 119/212/115 85/166/83 
f 85/166/83 119/212/115 132/277/128 86/167/84 
f 86/168/84 132/225/128 131/224/127 87/169/85 
f 87/169/85 131/224/127 137/230/86 88/170/86 
f 88/170/86 137/230/86 134/227/130 89/171/87 
f 89/171/87 134/227/130 133/226/129 90/172/88 
f 90/173/88 133/285/129 161/284/156 91/174/89 
f 91/174/89 161/284/156 162/287/157 92/175/90 
f 92/175/90 162/287/157 112/286/109 93/176/91 
f 93/177/91 112/341/109 111/342/108 94/178/92 
f 94/181/92 111/238/108 141/237/136 95/182/93 
f 95/182/93 141/237/136 146/244/141 96/183/94 
f 96/184/94 146/257/141 155/256/150 97/185/95 
f 97/186/95 155/265/150 103/192/100 98/187/96 
f 98/187/96 103/192/100 99/188/1 77/152/1 
# 164 polygons - 16 triangles

