# 3ds Max Wavefront OBJ Exporter v0.99 - (c)2007 guruware
# File Created: 01.09.2025 04:05:13

mtllib Phantom of the Apple.mtl

#
# object Phantom_of_the_Apple
#

v  244.4216 0.0000 0.1291
v  246.8969 0.0000 -2.3462
v  247.9223 0.0000 0.1291
v  244.4216 0.0000 -3.3716
v  241.9462 0.0000 -2.3462
v  240.9209 0.0000 0.1291
v  241.9462 0.0000 2.6045
v  244.4216 0.0000 3.6298
v  246.8969 0.0000 2.6045
v  249.3723 0.0000 -4.8216
v  251.4230 0.0000 0.1291
v  244.4216 0.0000 -6.8723
v  239.4708 0.0000 -4.8216
v  237.4202 0.0000 0.1291
v  239.4708 0.0000 5.0799
v  244.4216 0.0000 7.1306
v  249.3723 0.0000 5.0799
v  249.3723 20.3567 -4.8216
v  251.4230 20.3567 0.1291
v  244.4216 20.3567 -6.8723
v  239.4708 20.3567 -4.8216
v  237.4202 20.3567 0.1291
v  239.4708 20.3567 5.0799
v  244.4216 20.3567 7.1306
v  249.3723 20.3567 5.0799
v  249.3723 40.7134 -4.8216
v  251.4230 40.7134 0.1291
v  244.4216 40.7134 -6.8723
v  239.4708 40.7134 -4.8216
v  237.4202 40.7134 0.1291
v  239.4708 40.7134 5.0799
v  244.4216 40.7134 7.1306
v  249.3723 40.7134 5.0799
v  249.3723 61.0701 -4.8216
v  251.4230 61.0701 0.1291
v  244.4216 61.0701 -6.8723
v  239.4708 61.0701 -4.8216
v  237.4202 61.0701 0.1291
v  239.4708 61.0701 5.0799
v  244.4216 61.0701 7.1306
v  249.3723 61.0701 5.0799
v  249.3723 81.4268 -4.8216
v  251.4230 81.4268 0.1291
v  244.4216 81.4268 -6.8723
v  239.4708 81.4268 -4.8216
v  237.4202 81.4268 0.1291
v  239.4708 81.4268 5.0799
v  244.4216 81.4268 7.1306
v  249.3723 81.4268 5.0799
v  249.3723 107.1708 -4.8216
v  251.4230 107.1708 0.1291
v  244.4216 107.1708 -6.8723
v  239.4708 107.1708 -4.8216
v  237.4202 107.1708 0.1291
v  239.4708 107.1708 5.0799
v  244.4216 107.1708 7.1306
v  249.3723 107.1708 5.0799
v  275.5775 175.3342 0.1291
v  266.4598 175.3342 -21.8830
v  255.4538 180.2179 -10.8769
v  260.0126 180.2179 0.1291
v  244.4477 175.3342 -31.0007
v  244.4477 180.2179 -15.4358
v  222.4356 175.3342 -21.8830
v  233.4417 180.2179 -10.8769
v  213.3179 175.3342 0.1291
v  228.8828 180.2179 0.1291
v  222.4356 175.3342 22.1412
v  233.4417 180.2179 11.1352
v  244.4477 175.3342 31.2589
v  244.4477 180.2179 15.6940
v  266.4598 175.3342 22.1412
v  255.4538 180.2179 11.1352
v  244.4216 204.0606 -12.2054
v  247.4430 204.0606 -12.2054
v  246.5581 201.9397 -12.4629
v  244.4216 201.0612 -12.5696
v  242.2851 201.9397 -12.4629
v  241.4001 204.0606 -12.2054
v  242.2851 206.1815 -11.9479
v  244.4216 207.0601 -11.8412
v  246.5581 206.1815 -11.9479
v  251.4230 116.5535 0.1291
v  249.3723 116.5535 -4.8216
v  266.0868 126.4951 -20.0053
v  272.8959 129.6980 0.1291
v  244.4216 116.5535 -6.8723
v  244.4216 129.6980 -28.3452
v  239.4708 116.5535 -4.8216
v  224.2872 129.6980 -20.0053
v  237.4202 116.5535 0.1291
v  215.9472 129.6980 0.1291
v  239.4708 116.5535 5.0799
v  224.2872 129.6980 20.2635
v  244.4216 116.5535 7.1306
v  244.4216 129.6980 28.6035
v  249.3723 116.5535 5.0799
v  264.5560 129.6980 20.2635
v  268.2115 132.3015 -22.1300
v  275.9007 135.5044 0.1291
v  221.7809 126.5886 -22.5377
v  219.3890 133.1254 -24.9296
v  244.4477 133.1254 -35.3093
v  212.3920 126.5886 0.1291
v  209.0093 133.1254 0.1291
v  221.7809 126.5886 22.7960
v  219.3890 133.1254 25.1879
v  244.4216 135.5044 31.6083
v  266.6807 135.5044 22.3882
v  246.1152 152.6259 -45.4574
v  245.7633 164.0348 -38.2290
v  271.5721 163.9336 -26.9942
v  212.2132 152.7355 -32.1054
v  198.8612 152.7355 0.1291
v  206.0896 164.0348 0.1291
v  217.3244 164.0348 -26.9942
v  212.2132 152.7355 32.3637
v  217.3244 164.0348 27.2524
v  252.3014 152.7355 45.7156
v  269.6407 164.0348 29.4416
v  244.4477 164.0348 38.4873
v  273.0547 152.9236 28.7623
v  284.9150 152.9236 0.1291
v  278.4942 162.9605 0.1291
v  268.5146 162.9605 24.2221
v  246.3845 171.7243 -1.8076
v  247.1867 171.7243 0.1291
v  244.4477 171.7243 -2.6099
v  242.5109 171.7243 -1.8076
v  241.7087 171.7243 0.1291
v  242.5109 171.7243 2.0659
v  244.4477 171.7243 2.8681
v  246.3845 171.7243 2.0659
v  247.1370 173.3197 0.1291
v  246.3417 173.3197 -1.7910
v  246.5581 186.0100 -2.0074
v  247.4430 186.0100 0.1291
v  244.4216 173.3197 -2.5863
v  244.4216 186.0100 -2.8923
v  242.5014 173.3197 -1.7910
v  242.2851 186.0100 -2.0074
v  241.7061 173.3197 0.1291
v  241.4001 186.0100 0.1291
v  242.5014 173.3197 2.0493
v  242.2851 186.0100 2.2656
v  244.4216 173.3197 2.8446
v  244.4216 186.0100 3.1506
v  246.3417 173.3197 2.0493
v  246.5581 186.0100 2.2656
v  291.6060 -0.0629 -9.5842
v  277.7860 -0.0629 -42.9487
v  284.2421 -0.0050 -48.1004
v  300.7362 -0.0050 -8.2799
v  244.4216 -0.0629 -56.7687
v  244.4216 -0.0050 -64.5946
v  211.0571 -0.0629 -42.9487
v  204.6011 -0.0050 -48.1004
v  197.2371 -0.0629 -9.5842
v  188.1069 -0.0050 -8.2799
v  211.0571 -0.0629 23.7802
v  204.6011 -0.0050 31.5406
v  244.4216 111.8556 7.1306
v  239.4708 111.8556 5.0799
v  249.3723 111.8556 5.0799
v  277.7860 -0.0629 23.7802
v  284.2421 -0.0050 31.5406
v  328.7903 154.5615 4.0090
v  304.0793 154.5615 -55.6487
v  294.0110 159.2594 -47.6145
v  314.5516 159.2594 1.9749
v  184.7638 154.5615 -55.6487
v  160.0528 154.5615 4.0090
v  174.2915 159.2594 1.9749
v  194.8322 159.2594 -47.6145
v  184.7638 154.5615 63.6668
v  194.8322 159.2594 51.5644
v  304.0793 154.5615 63.6668
v  294.0110 159.2594 51.5644
v  251.4230 111.8556 0.1291
v  249.3723 111.8556 -4.8216
v  278.9398 116.9268 -40.1996
v  293.2377 116.9268 -5.6813
v  244.4216 111.8556 -6.8723
v  244.4216 116.9268 -54.4975
v  239.4708 111.8556 -4.8216
v  209.9034 116.9268 -40.1996
v  237.4202 111.8556 0.1291
v  195.6055 116.9268 -5.6813
v  209.9034 116.9268 28.8369
v  203.8441 121.6247 -6.8583
v  215.7289 121.6247 21.8343
v  215.7289 121.6247 -35.5509
v  244.4216 121.6247 -47.4358
v  273.1142 121.6247 -35.5509
v  284.9991 121.6247 -6.8583
v  273.1142 121.6247 21.8343
v  278.9398 116.9268 28.8369
v  273.0735 86.2527 -40.2237
v  284.9415 86.2527 -11.5718
v  244.4216 86.2527 -52.0917
v  215.7696 86.2527 -40.2237
v  203.9016 86.2527 -11.5717
v  215.7696 86.2527 17.0802
v  196.0610 90.9375 -10.4517
v  210.2255 90.9375 23.7444
v  210.2255 90.9375 -44.6478
v  244.4216 90.9375 -58.8122
v  278.6176 90.9375 -44.6478
v  292.7821 90.9375 -10.4517
v  278.6176 90.9375 23.7444
v  273.0735 86.2527 17.0802
v  277.7860 45.3282 -42.9487
v  291.6060 45.3282 -9.5842
v  244.4216 45.3282 -56.7687
v  211.0571 45.3282 -42.9487
v  197.2371 45.3282 -9.5842
v  211.0571 45.3282 23.7802
v  204.6011 50.7836 31.5406
v  188.1069 50.7836 -8.2799
v  204.6011 50.7836 -48.1004
v  244.4216 50.7836 -64.5946
v  284.2421 50.7836 -48.1004
v  300.7362 50.7836 -8.2799
v  284.2421 50.7836 31.5406
v  277.7860 45.3282 23.7802
v  282.8058 164.0348 0.1291
v  268.8054 141.3108 -24.2547
v  270.9301 147.1172 -26.3794
v  281.9102 147.1172 0.1291
v  278.9055 141.3108 0.1291
v  205.6266 139.6620 0.1291
v  202.2439 146.1987 0.1291
v  214.6051 146.1987 -29.7135
v  216.9970 139.6620 -27.3215
v  216.9971 139.6620 27.5798
v  214.6051 146.1987 29.9717
v  270.9301 147.1172 26.6376
v  268.8054 141.3108 24.5129
v  273.0547 152.9236 -28.5040
v  252.2753 152.9236 40.6226
v  268.5157 162.8593 -23.9639
v  242.8216 152.8140 -40.3643
v  244.4477 133.1254 35.5675
v  245.7371 135.5044 -31.3500
v  269.2219 163.1679 22.0529
v  277.2789 163.1679 5.0725
v  279.9259 163.8274 5.0725
v  273.0286 163.8274 21.7241
v  240.6129 116.5213 30.4566
v  240.6266 116.4681 32.5264
v  238.2174 116.4374 30.6204
v  238.2135 116.4522 30.0444
v  238.7608 125.2373 30.1335
v  240.9137 125.2993 30.5034
v  241.5381 122.3613 30.1042
v  237.2816 122.2387 29.3728
v  240.6653 122.2668 33.0982
v  240.6653 118.5809 33.0982
v  241.5381 118.6754 30.1042
v  236.8660 122.2124 32.0560
v  236.8660 118.5265 32.0560
v  237.2816 118.5528 29.3728
v  222.8275 115.1798 21.8973
v  225.9590 115.1860 19.4386
v  225.9590 112.9181 19.4386
v  222.8275 112.9119 21.8973
v  228.5462 115.1187 21.6582
v  228.5462 112.8507 21.6582
v  226.3965 115.1170 23.9934
v  226.3965 112.8490 23.9934
v  226.7467 111.1984 21.0354
v  225.7816 111.1965 21.7932
v  226.5017 111.1771 22.4392
v  227.1642 111.1776 21.7195
v  253.4543 147.5018 42.9002
v  254.3275 147.5197 43.8279
v  255.1786 145.2741 43.6454
v  253.6160 145.2420 41.9852
v  251.8476 145.2154 43.9261
v  253.6160 143.3600 41.9852
v  251.8476 143.3334 43.9261
v  255.1786 143.3921 43.6454
v  253.3127 145.2314 45.4699
v  253.3127 143.3494 45.4699
v  254.0992 142.0430 43.9003
v  253.4996 142.0307 43.2632
v  285.7453 154.0307 1.7623
v  287.2080 154.3951 1.7623
v  286.2310 154.3247 3.4393
v  285.3331 154.1010 3.4393
v  275.9087 157.8272 25.1498
v  273.9522 157.5805 27.0287
v  274.5865 155.1592 29.2613
v  276.6688 156.3768 26.4740
v  285.6689 158.7492 1.4622
v  283.6826 158.2543 1.4622
v  284.3422 158.6537 3.7395
v  283.1228 158.3499 3.7395
v  283.0127 156.7640 4.6319
v  285.1877 157.3060 4.6319
v  284.0113 156.5936 0.5698
v  287.0049 157.4764 0.5698
v  287.6991 155.7662 0.5698
v  284.7055 154.8834 0.5698
v  285.8820 155.5958 4.6319
v  283.7069 155.0538 4.6319
v  274.8246 155.9667 -25.0634
v  275.8636 156.3319 -26.0936
v  276.0749 156.2793 -24.8193
v  275.6046 156.1140 -24.3531
v  273.6631 161.5128 -26.5922
v  272.2551 161.0179 -25.1962
v  272.4616 163.7789 -21.7335
v  271.0782 163.2926 -20.3619
v  273.3121 161.2175 -24.2335
v  273.9495 161.4415 -24.8654
v  274.8015 159.5195 -26.5907
v  273.3949 159.0251 -25.1962
v  274.4519 159.2247 -24.2335
v  275.0892 159.4487 -24.8654
v  275.0275 158.1897 -23.5259
v  276.1211 158.5741 -24.6102
v  273.2136 157.8471 -25.1778
v  275.4760 158.6963 -26.9165
v  275.6968 157.3187 -26.7771
v  273.4344 156.4695 -25.0384
v  276.3418 157.1964 -24.4707
v  275.2483 156.8121 -23.3865
v  244.9068 154.0534 -80.3598
v  242.8216 159.1498 -68.1551
v  222.7641 149.1224 34.1737
v  222.0066 151.1926 34.9312
v  223.5216 147.0522 33.4161
v  245.7633 139.6620 38.9502
v  249.0307 146.1987 42.3329
v  233.6668 146.1988 36.9227
v  232.6320 144.1286 35.8514
v  234.7027 148.2690 37.9940
v  266.5509 150.0408 31.5047
v  265.8780 148.2019 30.8318
v  267.2238 151.8797 32.1776
v  222.6150 151.1926 28.7864
v  235.3111 148.2690 31.8491
v  223.3725 149.1224 28.0288
v  224.1301 147.0522 27.2713
v  233.2404 144.1286 29.7065
v  234.2752 146.1988 30.7778
v  273.4822 163.2677 -17.1986
v  274.8387 163.7539 -17.1986
v  274.0389 157.5461 25.0349
v  274.9791 154.4841 25.4003
v  274.9940 152.7073 24.9062
v  275.4187 153.0731 29.1425
v  276.6110 155.3393 22.8242
v  277.4908 153.8316 22.3277
v  278.6235 154.7296 26.7478
v  275.9206 151.0037 24.8635
v  276.1091 151.3876 29.0294
v  278.1812 152.1461 22.2145
v  279.5500 153.0260 26.7052
v  278.7686 149.9012 27.7351
v  279.0643 149.3545 25.7706
v  279.8906 149.7875 24.4662
v  279.8228 150.5176 26.3238
v  253.2898 147.4958 44.2792
v  252.6686 147.4869 43.9713
v  240.9259 125.2515 32.3605
v  238.7643 125.2240 30.6504
v  246.0891 147.0076 -37.3595
v  245.7371 141.3108 -34.3548
v  249.0307 146.1987 -42.0747
v  245.7633 139.6620 -38.6920
v  265.8247 150.0408 29.9172
v  255.4719 146.7186 32.2288
v  255.6551 144.8797 30.9519
v  265.1518 148.2019 29.2443
v  245.7371 141.3108 34.6130
v  266.4976 151.8797 30.5901
v  255.2920 148.5576 33.5730
v  249.0045 147.1172 37.6178
v  253.0962 142.0205 43.9987
v  253.9029 141.8852 44.7555
v  227.0141 129.3054 21.8825
v  239.0171 132.7105 30.0245
v  237.6835 131.1250 32.0967
v  225.7206 128.4400 23.1896
v  246.5581 198.0921 -7.2663
v  247.4430 198.9181 -5.2960
v  244.4216 197.7500 -8.0825
v  242.2851 198.0921 -7.2663
v  241.4001 198.9181 -5.2960
v  242.2851 199.7441 -3.3256
v  244.4216 200.0862 -2.5094
v  246.5581 199.7441 -3.3256
v  226.4721 118.4212 20.8802
v  224.4682 118.4187 21.2082
v  226.9098 118.3941 21.1846
v  226.1528 118.3935 22.7095
v  255.2655 154.0224 37.9005
v  253.8564 153.2077 39.8214
v  256.8315 155.0049 39.5642
v  253.6405 153.6974 42.6282
v  275.9351 157.1511 23.8503
v  275.3632 158.5411 -26.5893
v  275.6495 158.4699 -24.8625
v  275.0863 159.4477 -24.8625
v  256.0181 148.5576 35.1606
v  256.1981 146.7186 33.8163
v  256.3812 144.8797 32.5394
# 409 vertices

vn 0.0000 -1.0000 -0.0000
vn 0.5489 -0.6303 -0.5490
vn 0.7763 -0.6303 0.0000
vn -0.0000 -0.6303 -0.7764
vn -0.5490 -0.6303 -0.5490
vn -0.7764 -0.6303 0.0000
vn -0.5490 -0.6303 0.5490
vn -0.0000 -0.6303 0.7764
vn 0.5490 -0.6303 0.5490
vn 0.7071 0.0000 -0.7071
vn 1.0000 0.0000 0.0000
vn -0.0000 0.0000 -1.0000
vn -0.7071 0.0000 -0.7071
vn -1.0000 0.0000 0.0000
vn -0.7071 0.0000 0.7071
vn -0.0000 0.0000 1.0000
vn 0.7071 0.0000 0.7071
vn 0.2156 -0.9417 -0.2582
vn 0.2755 -0.9593 -0.0624
vn -0.0000 -0.9347 -0.3555
vn -0.2157 -0.9417 -0.2582
vn -0.2756 -0.9592 -0.0625
vn -0.1333 -0.2406 0.9614
vn 0.1333 -0.2406 0.9614
vn 0.6557 0.7550 -0.0000
vn 0.4648 0.7536 -0.4648
vn -0.0230 0.9995 0.0230
vn -0.0325 0.9995 0.0000
vn -0.0155 0.7541 -0.6566
vn 0.0000 0.9995 0.0325
vn -0.4636 0.7550 -0.4636
vn 0.0230 0.9995 0.0230
vn -0.6557 0.7550 0.0000
vn 0.0325 0.9995 0.0000
vn -0.4636 0.7550 0.4636
vn 0.0230 0.9995 -0.0230
vn -0.0000 0.7550 0.6557
vn 0.0000 0.9995 -0.0325
vn 0.4872 0.7546 0.4396
vn -0.0230 0.9995 -0.0230
vn 0.0000 0.1205 -0.9927
vn 0.7925 0.1713 -0.5853
vn 0.5083 -0.3222 -0.7986
vn 0.0000 -0.4839 -0.8751
vn -0.5083 -0.3222 -0.7986
vn -0.7925 0.1713 -0.5853
vn -0.5741 0.7220 -0.3863
vn -0.0000 0.9490 -0.3152
vn 0.5741 0.7220 -0.3863
vn 0.8896 0.4557 -0.0301
vn 0.6261 0.3639 -0.6896
vn 0.5193 -0.7013 -0.4885
vn 0.7622 -0.6434 0.0713
vn -0.0000 0.4391 -0.8984
vn -0.0796 -0.6353 -0.7682
vn -0.6227 0.4435 -0.6446
vn 0.2130 -0.9752 0.0594
vn -0.8896 0.4557 -0.0301
vn 0.2252 -0.9743 -0.0000
vn -0.1536 -0.3197 0.9350
vn 0.1150 -0.9171 -0.3818
vn -0.0000 -0.5479 0.8365
vn -0.0000 -0.6499 0.7600
vn 0.1536 -0.3197 0.9350
vn 0.5374 -0.6499 0.5374
vn 0.6958 -0.3328 -0.6365
vn 0.8866 -0.4588 0.0581
vn -0.1707 -0.9456 -0.2770
vn -0.6280 -0.4596 -0.6280
vn 0.4026 -0.7772 -0.4837
vn -0.3578 -0.9338 0.0000
vn -0.8881 -0.4596 0.0000
vn -0.5401 -0.7516 0.3787
vn -0.6280 -0.4596 0.6280
vn 0.7365 -0.5358 0.4130
vn 0.6280 -0.4596 0.6280
vn 0.3224 -0.1731 -0.9306
vn 0.0196 0.5379 -0.8428
vn 0.6023 0.0070 -0.7983
vn -0.7009 0.0414 -0.7121
vn -0.9992 0.0410 0.0000
vn -0.8424 0.5389 0.0000
vn -0.5905 0.5389 -0.6008
vn -0.6846 0.0414 0.7277
vn -0.5957 0.5389 0.5957
vn 0.4353 -0.1510 0.8876
vn 0.6827 -0.0163 0.7305
vn -0.0934 0.4937 0.8646
vn 0.7581 0.0538 0.6499
vn 0.9992 0.0410 -0.0000
vn 0.7440 -0.5200 -0.4196
vn 0.3134 -0.6252 0.7148
vn 0.1841 0.9662 -0.1806
vn 0.2557 0.9668 0.0000
vn 0.0035 0.9648 -0.2629
vn -0.1877 0.9634 -0.1913
vn -0.2701 0.9628 -0.0000
vn -0.1877 0.9634 0.1913
vn 0.0035 0.9648 0.2629
vn 0.1840 0.9662 0.1806
vn 1.0000 0.0035 -0.0000
vn 0.7061 0.0011 -0.7081
vn 0.7257 -0.1543 -0.6705
vn 0.9988 0.0081 0.0481
vn -0.0020 -0.0047 -1.0000
vn -0.0000 -0.2293 -0.9734
vn -0.7081 -0.0105 -0.7061
vn -0.7257 -0.1543 -0.6705
vn -0.9999 -0.0129 -0.0000
vn -0.9988 0.0081 0.0481
vn -0.7081 -0.0105 0.7061
vn -0.6809 0.1305 0.7206
vn -0.0020 -0.0047 1.0000
vn 0.0000 0.1701 0.9854
vn 0.7061 0.0011 0.7081
vn 0.6809 0.1305 0.7206
vn -0.5910 -0.8066 -0.0003
vn -0.4178 -0.8069 0.4175
vn 0.5502 -0.6282 -0.5501
vn 0.7779 -0.6284 0.0001
vn 0.0000 -0.8070 0.5905
vn -0.0000 -0.6280 -0.7782
vn 0.4178 -0.8069 0.4175
vn -0.5503 -0.6281 -0.5502
vn 0.5910 -0.8066 -0.0003
vn -0.7780 -0.6283 0.0001
vn 0.7836 -0.6095 0.1201
vn -0.1254 -0.5545 0.8227
vn -0.1507 -0.0679 0.9862
vn 0.1507 -0.0679 0.9862
vn -0.7836 -0.6095 0.1201
vn 0.1254 -0.5545 0.8227
vn 0.9782 0.2054 0.0322
vn 0.7047 0.2385 -0.6682
vn -0.1361 0.9854 0.1021
vn -0.1452 0.9891 -0.0252
vn -0.7031 0.2384 -0.6699
vn -0.9782 0.2054 0.0322
vn 0.1452 0.9891 -0.0252
vn 0.1391 0.9847 0.1054
vn -0.2721 0.1570 0.9494
vn 0.5488 0.7596 0.3490
vn 0.2721 0.1570 0.9494
vn -0.5488 0.7596 0.3490
vn 0.9687 -0.2375 0.0721
vn 0.7246 -0.2005 -0.6593
vn 0.3803 -0.8271 -0.4138
vn 0.5163 -0.8559 -0.0291
vn -0.0000 -0.1873 -0.9823
vn -0.0017 -0.8162 -0.5778
vn -0.7246 -0.2005 -0.6593
vn -0.3803 -0.8271 -0.4138
vn -0.9687 -0.2375 0.0721
vn -0.5163 -0.8559 -0.0291
vn 0.1306 -0.7415 0.6581
vn 0.5688 0.8219 0.0312
vn 0.7248 0.6000 0.3387
vn 0.4149 0.7910 0.4496
vn -0.0063 0.7774 0.6289
vn -0.4149 0.7910 0.4496
vn -0.5688 0.8219 0.0312
vn -0.7248 0.6000 0.3387
vn -0.1306 -0.7415 0.6581
vn -0.5902 -0.5308 0.6082
vn -0.8573 -0.5144 0.0213
vn 0.0000 -0.5347 0.8450
vn 0.5902 -0.5308 0.6082
vn 0.8573 -0.5144 0.0213
vn 0.8922 -0.3539 0.2804
vn -0.8293 0.5586 -0.0176
vn -0.1770 0.4475 0.8766
vn -0.5761 0.5636 -0.5920
vn -0.0000 0.5641 -0.8257
vn 0.5761 0.5636 -0.5920
vn 0.8293 0.5586 -0.0176
vn 0.1770 0.4475 0.8766
vn -0.8922 -0.3539 0.2804
vn -0.7084 -0.0630 0.7030
vn -0.9968 -0.0793 -0.0054
vn 0.0000 -0.0561 0.9984
vn 0.7084 -0.0630 0.7030
vn 0.9968 -0.0793 -0.0054
vn 0.9831 -0.0414 0.1785
vn -0.1698 0.1034 0.9800
vn -0.9954 0.0957 0.0058
vn -0.7079 0.0778 -0.7020
vn -0.0000 0.0702 -0.9975
vn 0.7079 0.0779 -0.7020
vn 0.9954 0.0957 0.0058
vn 0.1698 0.1034 0.9800
vn -0.9831 -0.0414 0.1785
vn 0.9479 0.1363 -0.2879
vn 0.6614 -0.3485 -0.6641
vn 0.6362 -0.4596 -0.6197
vn 0.8881 -0.4596 -0.0000
vn 0.8881 -0.4596 0.0000
vn -0.6122 -0.4595 -0.6434
vn -0.6227 -0.4596 -0.6333
vn -0.6190 -0.4533 0.6413
vn -0.6064 -0.4594 0.6491
vn 0.6939 -0.4574 0.5561
vn 0.6439 -0.4800 0.5958
vn 0.7004 0.0434 -0.7124
vn 0.5636 -0.7881 0.2477
vn 0.5497 -0.6094 -0.5713
vn 0.9565 -0.2797 -0.0828
vn 0.5845 -0.5166 0.6257
vn 0.5042 -0.6097 -0.6116
vn 0.8540 -0.0667 -0.5160
vn 0.0478 -0.9771 0.2073
vn 0.3667 -0.7486 0.5525
vn 0.9992 -0.0362 -0.0176
vn 0.4959 -0.7189 -0.4871
vn 0.3889 -0.6397 0.6630
vn -0.4653 -0.8693 0.1670
vn -0.3778 -0.7424 -0.5532
vn -0.5811 0.2561 -0.7725
vn 0.7105 0.0483 -0.7021
vn 0.8418 0.1187 -0.5265
vn -0.5978 0.2139 -0.7726
vn 0.4532 0.0901 0.8868
vn 0.4682 -0.1158 0.8760
vn 0.8389 -0.1896 -0.5101
vn -0.8016 0.2880 0.5238
vn -0.7844 -0.3233 0.5294
vn -0.5859 -0.2183 -0.7804
vn -0.9718 0.2174 0.0915
vn 0.0005 0.1951 -0.9808
vn -0.0139 -0.3289 -0.9443
vn -0.9106 -0.4093 0.0579
vn 0.9775 0.2084 -0.0338
vn 0.9526 -0.2989 -0.0567
vn 0.1480 0.1751 0.9734
vn 0.1231 -0.3232 0.9383
vn 0.3268 -0.7497 -0.5755
vn -0.3846 -0.9215 -0.0539
vn 0.0531 -0.8452 0.5318
vn 0.5381 -0.8397 0.0735
vn -0.1937 -0.1432 -0.9706
vn 0.9049 0.1717 0.3896
vn 0.9856 0.1692 0.0069
vn 0.0020 0.1762 -0.9844
vn -0.9871 0.1602 0.0067
vn 0.0018 -0.3247 -0.9458
vn -0.9452 -0.3265 0.0044
vn 0.9567 -0.2911 0.0018
vn -0.0172 0.2169 0.9760
vn -0.0659 -0.2213 0.9730
vn 0.5554 -0.8018 -0.2207
vn -0.1530 -0.8254 -0.5435
vn -0.0710 -0.9593 -0.2734
vn 0.7812 -0.6227 -0.0442
vn 0.5290 -0.6962 0.4852
vn -0.1271 -0.9425 0.3090
vn 0.8043 0.5535 0.2162
vn -0.4899 -0.0060 0.8718
vn -0.4042 0.1268 0.9058
vn 0.6178 0.7199 0.3165
vn 0.6810 0.6519 -0.3334
vn -0.5849 -0.1937 -0.7876
vn 0.4290 0.5050 0.7489
vn -0.7226 -0.2469 0.6456
vn -0.7865 0.0117 0.6175
vn 0.4129 0.4172 0.8096
vn -0.6269 -0.0052 -0.7791
vn 0.6500 0.5250 -0.5495
vn 0.8455 -0.0876 -0.5267
vn -0.4194 -0.5549 -0.7185
vn 0.5585 -0.1265 0.8198
vn -0.5587 -0.5718 0.6008
vn -0.1780 -0.9827 -0.0512
vn 0.4723 -0.6395 -0.6066
vn 0.7429 -0.6622 0.0979
vn 0.2930 -0.8551 0.4277
vn 0.3415 0.2019 -0.9179
vn -0.6442 -0.7504 -0.1483
vn 0.5263 -0.8288 0.1899
vn 0.7642 -0.5554 -0.3278
vn 0.2219 -0.4899 0.8431
vn 0.8624 0.4479 0.2358
vn -0.2331 0.0973 -0.9676
vn -0.9859 -0.1669 0.0132
vn -0.0974 0.3044 0.9476
vn 0.4909 0.8236 0.2839
vn -0.0147 0.2952 0.9553
vn 0.8397 0.4742 0.2649
vn -0.9972 -0.0287 -0.0687
vn 0.3452 0.2632 -0.9008
vn 0.3554 -0.2243 -0.9074
vn -0.8188 -0.5737 -0.0231
vn 0.9556 -0.0631 0.2877
vn 0.0607 -0.3381 0.9392
vn 0.0119 0.2369 -0.9715
vn -0.0135 0.9864 0.1641
vn 0.5635 -0.0941 0.8207
vn 0.5363 -0.6461 -0.5431
vn 0.2488 0.1445 0.9577
vn 0.4911 -0.5337 0.6885
vn 0.4793 -0.5804 0.6584
vn -0.8199 0.1204 0.5597
vn -0.7377 -0.1452 0.6593
vn -0.4983 -0.4348 0.7501
vn -0.3121 -0.2237 0.9233
vn -0.1005 -0.1060 0.9893
vn -0.6263 0.4659 0.6250
vn 0.5689 -0.6196 0.5407
vn -0.8589 -0.3947 0.3264
vn 0.5482 -0.1031 0.8299
vn 0.3713 0.3757 0.8491
vn -0.4389 0.6566 0.6134
vn -0.8184 0.1182 0.5624
vn 0.1964 -0.9725 -0.1252
vn 0.9005 0.0013 -0.4349
vn -0.7286 -0.5521 -0.4053
vn -0.9475 -0.0981 -0.3043
vn -0.9183 -0.2048 -0.3389
vn -0.3658 -0.2039 0.9081
vn 0.0025 0.4066 -0.9136
vn 0.1778 0.2526 -0.9511
vn 0.7319 0.6004 0.3221
vn -0.6558 -0.6849 -0.3176
vn -0.3137 -0.4732 0.8232
vn 0.2393 -0.1639 -0.9570
vn 0.9057 0.2693 0.3274
vn 0.3598 -0.5197 0.7749
vn 0.1342 -0.9903 0.0360
vn 0.6771 -0.5339 -0.5064
vn 0.9309 -0.2132 0.2965
vn -0.0378 0.3751 0.9262
vn -0.8685 0.3739 0.3253
vn 0.3963 -0.1958 0.8970
vn -0.8906 0.2292 0.3928
vn 0.9285 0.0337 -0.3698
vn 0.8275 -0.2794 -0.4870
vn 0.8589 -0.1971 -0.4727
vn 0.4825 -0.5233 -0.7024
vn -0.4071 -0.1788 0.8957
vn 0.9399 -0.1327 0.3146
vn 0.6068 0.5406 0.5828
vn -0.3173 0.3472 0.8825
vn 0.7886 -0.4878 0.3744
vn -0.3878 -0.6988 0.6011
vn 0.8831 -0.4627 0.0770
vn 0.7154 -0.5935 0.3686
vn -0.5466 -0.8333 0.0833
vn 0.4258 -0.6825 0.5941
vn 0.7405 -0.2216 -0.6345
vn 0.3312 -0.5796 -0.7446
vn -0.9271 0.2545 0.2750
vn 0.6141 -0.7320 0.2951
vn 0.7288 -0.4309 -0.5322
vn 0.9973 0.0592 0.0440
vn -0.0000 -0.6400 -0.7683
vn -0.7288 -0.4309 -0.5322
vn -0.9973 0.0592 0.0440
vn -0.6675 0.4585 0.5867
vn -0.0000 0.5974 0.8019
vn 0.6675 0.4585 0.5867
vn 0.2747 0.1869 -0.9432
vn -0.8743 0.0656 -0.4809
vn 0.9239 0.2176 -0.3147
vn 0.1995 0.1920 0.9609
vn -0.2608 -0.0803 -0.9620
vn -0.4813 -0.7364 -0.4755
vn 0.7997 -0.5285 0.2848
vn 0.4936 -0.8273 0.2682
vn 0.3855 0.4889 -0.7825
vn -0.8608 -0.4941 0.1223
vn -0.8600 -0.4954 0.1222
vn -0.5978 -0.3443 -0.7239
vn 0.5862 -0.6505 0.4829
vn 0.9497 -0.1105 0.2929
vn 0.1649 0.9315 -0.3243
# 373 vertex normals

vt 0.2770 0.2875 0.0000
vt 0.2850 0.2841 0.0000
vt 0.2851 0.2907 0.0000
vt 0.2803 0.2794 0.0000
vt 0.2736 0.2795 0.0000
vt 0.2690 0.2842 0.0000
vt 0.2690 0.2908 0.0000
vt 0.2738 0.2955 0.0000
vt 0.2804 0.2954 0.0000
vt 0.2930 0.2807 0.0000
vt 0.2931 0.2940 0.0000
vt 0.2835 0.2714 0.0000
vt 0.2703 0.2715 0.0000
vt 0.2609 0.2809 0.0000
vt 0.2611 0.2942 0.0000
vt 0.2705 0.3036 0.0000
vt 0.2838 0.3034 0.0000
vt 0.0388 0.7245 0.0000
vt 0.0511 0.7245 0.0000
vt 0.0511 0.7750 0.0000
vt 0.0388 0.7750 0.0000
vt 0.0005 0.6776 0.0000
vt 0.0128 0.6776 0.0000
vt 0.0128 0.7281 0.0000
vt 0.0005 0.7281 0.0000
vt 0.0251 0.6776 0.0000
vt 0.0251 0.7281 0.0000
vt 0.0005 0.4068 0.0000
vt 0.0128 0.4068 0.0000
vt 0.0128 0.4573 0.0000
vt 0.0005 0.4573 0.0000
vt 0.0251 0.4068 0.0000
vt 0.0251 0.4573 0.0000
vt 0.7189 0.0738 0.0000
vt 0.7189 0.0861 0.0000
vt 0.6684 0.0861 0.0000
vt 0.6684 0.0738 0.0000
vt 0.7189 0.0984 0.0000
vt 0.6684 0.0984 0.0000
vt 0.0265 0.7245 0.0000
vt 0.0265 0.7750 0.0000
vt 0.0511 0.8255 0.0000
vt 0.0388 0.8255 0.0000
vt 0.0128 0.7786 0.0000
vt 0.0005 0.7786 0.0000
vt 0.0251 0.7786 0.0000
vt 0.0128 0.5078 0.0000
vt 0.0005 0.5078 0.0000
vt 0.0251 0.5078 0.0000
vt 0.6179 0.0861 0.0000
vt 0.6179 0.0738 0.0000
vt 0.6179 0.0984 0.0000
vt 0.0265 0.8255 0.0000
vt 0.0511 0.8760 0.0000
vt 0.0388 0.8760 0.0000
vt 0.0128 0.8291 0.0000
vt 0.0005 0.8291 0.0000
vt 0.0251 0.8291 0.0000
vt 0.0128 0.5583 0.0000
vt 0.0005 0.5583 0.0000
vt 0.0251 0.5583 0.0000
vt 0.5674 0.0861 0.0000
vt 0.5674 0.0738 0.0000
vt 0.5674 0.0984 0.0000
vt 0.0265 0.8760 0.0000
vt 0.0511 0.9265 0.0000
vt 0.0388 0.9265 0.0000
vt 0.0128 0.8796 0.0000
vt 0.0005 0.8796 0.0000
vt 0.0251 0.8796 0.0000
vt 0.0128 0.6087 0.0000
vt 0.0005 0.6087 0.0000
vt 0.0251 0.6087 0.0000
vt 0.5169 0.0861 0.0000
vt 0.5169 0.0738 0.0000
vt 0.5169 0.0984 0.0000
vt 0.0265 0.9265 0.0000
vt 0.0511 0.9903 0.0000
vt 0.0388 0.9903 0.0000
vt 0.0128 0.9434 0.0000
vt 0.0005 0.9434 0.0000
vt 0.0251 0.9434 0.0000
vt 0.0128 0.6726 0.0000
vt 0.0005 0.6726 0.0000
vt 0.0251 0.6726 0.0000
vt 0.4530 0.0861 0.0000
vt 0.4530 0.0738 0.0000
vt 0.4530 0.0984 0.0000
vt 0.0265 0.9903 0.0000
vt 0.7843 0.5125 0.0000
vt 0.7429 0.5546 0.0000
vt 0.7278 0.5191 0.0000
vt 0.7486 0.4980 0.0000
vt 0.6838 0.5552 0.0000
vt 0.6983 0.5194 0.0000
vt 0.6417 0.5137 0.0000
vt 0.6772 0.4987 0.0000
vt 0.6412 0.4547 0.0000
vt 0.6770 0.4691 0.0000
vt 0.6826 0.4125 0.0000
vt 0.6977 0.4480 0.0000
vt 0.7417 0.4120 0.0000
vt 0.7272 0.4478 0.0000
vt 0.7838 0.4534 0.0000
vt 0.7483 0.4685 0.0000
vt 0.6846 0.0647 0.0000
vt 0.6776 0.0619 0.0000
vt 0.6816 0.0578 0.0000
vt 0.6874 0.0578 0.0000
vt 0.6915 0.0618 0.0000
vt 0.6915 0.0675 0.0000
vt 0.6875 0.0716 0.0000
vt 0.6818 0.0716 0.0000
vt 0.6777 0.0676 0.0000
vt 0.8854 0.5269 0.0000
vt 0.8721 0.5270 0.0000
vt 0.8527 0.4745 0.0000
vt 0.9054 0.4775 0.0000
vt 0.8628 0.5365 0.0000
vt 0.8134 0.5166 0.0000
vt 0.8629 0.5498 0.0000
vt 0.8139 0.5706 0.0000
vt 0.8724 0.5591 0.0000
vt 0.8525 0.6085 0.0000
vt 0.8857 0.5590 0.0000
vt 0.9065 0.6080 0.0000
vt 0.8950 0.5495 0.0000
vt 0.9444 0.5695 0.0000
vt 0.8949 0.5362 0.0000
vt 0.9439 0.5154 0.0000
vt 0.1888 0.5285 0.0000
vt 0.1362 0.5371 0.0000
vt 0.1325 0.5213 0.0000
vt 0.1907 0.5124 0.0000
vt 0.4392 0.5250 0.0000
vt 0.4220 0.5262 0.0000
vt 0.4391 0.4665 0.0000
vt 0.9232 0.4704 0.0000
vt 0.8670 0.4704 0.0000
vt 0.8670 0.4542 0.0000
vt 0.9291 0.4542 0.0000
vt 0.8107 0.4704 0.0000
vt 0.8048 0.4542 0.0000
vt 0.9995 0.1725 0.0000
vt 0.9636 0.1378 0.0000
vt 0.9736 0.1275 0.0000
vt 0.9277 0.1031 0.0000
vt 0.9339 0.0891 0.0000
vt 0.2317 0.5426 0.0000
vt 0.2381 0.5279 0.0000
vt 0.3938 0.4492 0.0000
vt 0.3663 0.4422 0.0000
vt 0.3842 0.3807 0.0000
vt 0.9469 0.4055 0.0000
vt 0.8670 0.4055 0.0000
vt 0.8670 0.3775 0.0000
vt 0.9342 0.3775 0.0000
vt 0.7870 0.4055 0.0000
vt 0.7997 0.3775 0.0000
vt 0.5279 0.4785 0.0000
vt 0.4849 0.4504 0.0000
vt 0.5474 0.4504 0.0000
vt 0.0525 0.0005 0.0000
vt 0.0525 0.0774 0.0000
vt 0.0236 0.0713 0.0000
vt 0.0236 0.0066 0.0000
vt 0.7154 0.4898 0.0000
vt 0.7191 0.4861 0.0000
vt 0.7102 0.4899 0.0000
vt 0.7065 0.4862 0.0000
vt 0.7065 0.4810 0.0000
vt 0.7101 0.4773 0.0000
vt 0.7153 0.4773 0.0000
vt 0.7190 0.4809 0.0000
vt 0.2316 0.0901 0.0000
vt 0.2332 0.0856 0.0000
vt 0.2630 0.0959 0.0000
vt 0.2612 0.1009 0.0000
vt 0.4125 0.0513 0.0000
vt 0.4173 0.0513 0.0000
vt 0.4173 0.0828 0.0000
vt 0.4120 0.0828 0.0000
vt 0.4221 0.0513 0.0000
vt 0.4226 0.0828 0.0000
vt 0.4020 0.0097 0.0000
vt 0.4068 0.0097 0.0000
vt 0.4068 0.0411 0.0000
vt 0.4015 0.0411 0.0000
vt 0.4115 0.0097 0.0000
vt 0.4121 0.0411 0.0000
vt 0.1593 0.0935 0.0000
vt 0.1593 0.0887 0.0000
vt 0.1908 0.0887 0.0000
vt 0.1908 0.0940 0.0000
vt 0.1593 0.0840 0.0000
vt 0.1908 0.0834 0.0000
vt 0.2300 0.0946 0.0000
vt 0.2594 0.1058 0.0000
vt 0.3145 0.4130 0.0000
vt 0.2802 0.3303 0.0000
vt 0.2962 0.3175 0.0000
vt 0.3371 0.4162 0.0000
vt 0.1975 0.2960 0.0000
vt 0.1975 0.2766 0.0000
vt 0.1147 0.3303 0.0000
vt 0.0987 0.3175 0.0000
vt 0.0804 0.4130 0.0000
vt 0.0578 0.4162 0.0000
vt 0.1147 0.4958 0.0000
vt 0.0987 0.5150 0.0000
vt 0.4414 0.0861 0.0000
vt 0.4414 0.0738 0.0000
vt 0.4414 0.0984 0.0000
vt 0.2802 0.4958 0.0000
vt 0.2962 0.5150 0.0000
vt 0.0005 0.2098 0.0000
vt 0.0618 0.0618 0.0000
vt 0.0868 0.0817 0.0000
vt 0.0358 0.2047 0.0000
vt 0.3577 0.0618 0.0000
vt 0.4190 0.2098 0.0000
vt 0.3837 0.2047 0.0000
vt 0.3328 0.0817 0.0000
vt 0.3577 0.3577 0.0000
vt 0.3328 0.3277 0.0000
vt 0.4298 0.0861 0.0000
vt 0.4298 0.0738 0.0000
vt 0.4298 0.0984 0.0000
vt 0.0618 0.3577 0.0000
vt 0.0868 0.3277 0.0000
vt 0.6702 0.3391 0.0000
vt 0.6651 0.3268 0.0000
vt 0.7385 0.2391 0.0000
vt 0.7739 0.3247 0.0000
vt 0.6529 0.3218 0.0000
vt 0.6529 0.2036 0.0000
vt 0.6406 0.3268 0.0000
vt 0.5673 0.2391 0.0000
vt 0.6355 0.3391 0.0000
vt 0.5318 0.3247 0.0000
vt 0.6406 0.3514 0.0000
vt 0.5673 0.4103 0.0000
vt 0.7558 0.6775 0.0000
vt 0.7435 0.6724 0.0000
vt 0.7262 0.5891 0.0000
vt 0.7974 0.6186 0.0000
vt 0.7312 0.6775 0.0000
vt 0.6550 0.6186 0.0000
vt 0.7262 0.6897 0.0000
vt 0.6255 0.6897 0.0000
vt 0.7312 0.7020 0.0000
vt 0.6550 0.7609 0.0000
vt 0.7435 0.7071 0.0000
vt 0.7262 0.7904 0.0000
vt 0.7558 0.7020 0.0000
vt 0.7974 0.7609 0.0000
vt 0.6651 0.3514 0.0000
vt 0.7385 0.4103 0.0000
vt 0.5144 0.3260 0.0000
vt 0.5144 0.4186 0.0000
vt 0.3964 0.4302 0.0000
vt 0.3964 0.2700 0.0000
vt 0.1605 0.3668 0.0000
vt 0.2461 0.3668 0.0000
vt 0.2701 0.4602 0.0000
vt 0.1222 0.4602 0.0000
vt 0.8090 0.6828 0.0000
vt 0.9016 0.6828 0.0000
vt 0.9576 0.8130 0.0000
vt 0.7974 0.8130 0.0000
vt 0.0281 0.7011 0.0000
vt 0.0468 0.6264 0.0000
vt 0.1655 0.6479 0.0000
vt 0.1333 0.7771 0.0000
vt 0.0265 0.5652 0.0000
vt 0.1306 0.5422 0.0000
vt 0.7206 0.1980 0.0000
vt 0.6494 0.1980 0.0000
vt 0.6275 0.1047 0.0000
vt 0.7505 0.1047 0.0000
vt 0.5782 0.1980 0.0000
vt 0.5045 0.1047 0.0000
vt 0.5545 0.2604 0.0000
vt 0.4657 0.1568 0.0000
vt 0.9153 0.9530 0.0000
vt 0.9102 0.9407 0.0000
vt 0.9690 0.8529 0.0000
vt 0.9984 0.9240 0.0000
vt 0.8979 0.9356 0.0000
vt 0.8979 0.8235 0.0000
vt 0.8857 0.9407 0.0000
vt 0.8269 0.8529 0.0000
vt 0.8806 0.9530 0.0000
vt 0.7974 0.9240 0.0000
vt 0.8857 0.9653 0.0000
vt 0.8269 0.9950 0.0000
vt 0.8986 0.2123 0.0000
vt 0.8863 0.2073 0.0000
vt 0.8601 0.1047 0.0000
vt 0.9449 0.1398 0.0000
vt 0.8741 0.2123 0.0000
vt 0.7753 0.1398 0.0000
vt 0.8690 0.2246 0.0000
vt 0.7401 0.2246 0.0000
vt 0.8741 0.2369 0.0000
vt 0.7753 0.3094 0.0000
vt 0.8863 0.2420 0.0000
vt 0.8601 0.3446 0.0000
vt 0.8986 0.2369 0.0000
vt 0.9449 0.3094 0.0000
vt 0.9102 0.9653 0.0000
vt 0.9690 0.9950 0.0000
vt 0.2585 0.7778 0.0000
vt 0.3295 0.7778 0.0000
vt 0.3363 0.8793 0.0000
vt 0.2536 0.8793 0.0000
vt 0.3184 0.1180 0.0000
vt 0.3184 0.1891 0.0000
vt 0.2169 0.1891 0.0000
vt 0.2169 0.1064 0.0000
vt 0.3184 0.2602 0.0000
vt 0.2169 0.2719 0.0000
vt 0.5532 0.8146 0.0000
vt 0.5532 0.8857 0.0000
vt 0.4516 0.8906 0.0000
vt 0.4516 0.8079 0.0000
vt 0.5532 0.9567 0.0000
vt 0.4516 0.9734 0.0000
vt 0.5648 0.9733 0.0000
vt 0.4652 0.9926 0.0000
vt 0.6219 0.6084 0.0000
vt 0.6219 0.6932 0.0000
vt 0.5223 0.6879 0.0000
vt 0.5223 0.5891 0.0000
vt 0.6219 0.7781 0.0000
vt 0.5223 0.7866 0.0000
vt 0.7938 0.8114 0.0000
vt 0.7938 0.8962 0.0000
vt 0.6942 0.8962 0.0000
vt 0.6942 0.7974 0.0000
vt 0.7938 0.9810 0.0000
vt 0.6942 0.9950 0.0000
vt 0.1672 0.7572 0.0000
vt 0.1672 0.6724 0.0000
vt 0.2668 0.6670 0.0000
vt 0.2668 0.7658 0.0000
vt 0.1672 0.5876 0.0000
vt 0.2668 0.5683 0.0000
vt 0.1709 0.7662 0.0000
vt 0.1874 0.7778 0.0000
vt 0.1708 0.8793 0.0000
vt 0.1516 0.8658 0.0000
vt 0.3363 0.9919 0.0000
vt 0.2536 0.9919 0.0000
vt 0.1044 0.1891 0.0000
vt 0.1044 0.1064 0.0000
vt 0.1044 0.2719 0.0000
vt 0.3391 0.8906 0.0000
vt 0.3391 0.8079 0.0000
vt 0.3391 0.9734 0.0000
vt 0.3392 0.9926 0.0000
vt 0.3964 0.6879 0.0000
vt 0.3964 0.5891 0.0000
vt 0.3964 0.7866 0.0000
vt 0.5683 0.8962 0.0000
vt 0.5683 0.7974 0.0000
vt 0.5683 0.9950 0.0000
vt 0.3927 0.6670 0.0000
vt 0.3927 0.7658 0.0000
vt 0.3927 0.5683 0.0000
vt 0.1708 0.9919 0.0000
vt 0.1516 0.9917 0.0000
vt 0.8670 0.3495 0.0000
vt 0.9216 0.3495 0.0000
vt 0.8124 0.3495 0.0000
vt 0.5474 0.4224 0.0000
vt 0.6020 0.4224 0.0000
vt 0.6147 0.4504 0.0000
vt 0.4928 0.4224 0.0000
vt 0.5854 0.0057 0.0000
vt 0.5783 0.0382 0.0000
vt 0.5192 0.0377 0.0000
vt 0.5057 0.0062 0.0000
vt 0.1278 0.4999 0.0000
vt 0.1240 0.4842 0.0000
vt 0.1946 0.4802 0.0000
vt 0.1927 0.4963 0.0000
vt 0.8670 0.4380 0.0000
vt 0.8670 0.4217 0.0000
vt 0.9410 0.4217 0.0000
vt 0.9351 0.4380 0.0000
vt 0.7989 0.4380 0.0000
vt 0.7930 0.4217 0.0000
vt 0.2510 0.4987 0.0000
vt 0.2446 0.5133 0.0000
vt 0.1203 0.4684 0.0000
vt 0.1965 0.4641 0.0000
vt 0.2575 0.4841 0.0000
vt 0.9896 0.0828 0.0000
vt 0.9525 0.0470 0.0000
vt 0.9779 0.0370 0.0000
vt 0.5386 0.5373 0.0000
vt 0.5140 0.5486 0.0000
vt 0.5137 0.4736 0.0000
vt 0.5474 0.5271 0.0000
vt 0.6095 0.5271 0.0000
vt 0.6036 0.5433 0.0000
vt 0.4708 0.4808 0.0000
vt 0.4564 0.4776 0.0000
vt 0.4564 0.4276 0.0000
vt 0.8491 0.6167 0.0000
vt 0.8057 0.5740 0.0000
vt 0.9100 0.6162 0.0000
vt 0.6595 0.0335 0.0000
vt 0.7016 0.0535 0.0000
vt 0.7016 0.0601 0.0000
vt 0.6603 0.0429 0.0000
vt 0.2279 0.0887 0.0000
vt 0.2295 0.0842 0.0000
vt 0.2262 0.0933 0.0000
vt 0.1554 0.0887 0.0000
vt 0.1554 0.0839 0.0000
vt 0.1554 0.0935 0.0000
vt 0.4068 0.0057 0.0000
vt 0.4116 0.0057 0.0000
vt 0.4020 0.0057 0.0000
vt 0.4172 0.0474 0.0000
vt 0.4220 0.0474 0.0000
vt 0.4124 0.0474 0.0000
vt 0.2870 0.0317 0.0000
vt 0.2870 0.0265 0.0000
vt 0.2930 0.0313 0.0000
vt 0.2930 0.0327 0.0000
vt 0.4521 0.0275 0.0000
vt 0.4467 0.0277 0.0000
vt 0.4452 0.0204 0.0000
vt 0.4557 0.0201 0.0000
vt 0.2547 0.0057 0.0000
vt 0.2545 0.0131 0.0000
vt 0.2453 0.0131 0.0000
vt 0.2456 0.0057 0.0000
vt 0.0392 0.3509 0.0000
vt 0.0413 0.3417 0.0000
vt 0.0502 0.3436 0.0000
vt 0.0482 0.3528 0.0000
vt 0.0972 0.2575 0.0000
vt 0.1038 0.2575 0.0000
vt 0.1038 0.2666 0.0000
vt 0.0972 0.2667 0.0000
vt 0.4452 0.0112 0.0000
vt 0.4557 0.0109 0.0000
vt 0.4475 0.0059 0.0000
vt 0.4534 0.0057 0.0000
vt 0.5466 0.0563 0.0000
vt 0.5472 0.0486 0.0000
vt 0.5528 0.0490 0.0000
vt 0.5522 0.0567 0.0000
vt 0.5478 0.0422 0.0000
vt 0.5534 0.0426 0.0000
vt 0.1172 0.0980 0.0000
vt 0.1172 0.1058 0.0000
vt 0.1116 0.1058 0.0000
vt 0.1116 0.0980 0.0000
vt 0.5596 0.0692 0.0000
vt 0.5595 0.0604 0.0000
vt 0.5651 0.0604 0.0000
vt 0.5653 0.0692 0.0000
vt 0.4589 0.0312 0.0000
vt 0.4589 0.0213 0.0000
vt 0.4632 0.0222 0.0000
vt 0.4632 0.0253 0.0000
vt 0.1074 0.1028 0.0000
vt 0.1074 0.1004 0.0000
vt 0.4163 0.1358 0.0000
vt 0.4131 0.1359 0.0000
vt 0.4120 0.1300 0.0000
vt 0.4176 0.1299 0.0000
vt 0.1241 0.2984 0.0000
vt 0.1289 0.2983 0.0000
vt 0.1289 0.3030 0.0000
vt 0.1241 0.3031 0.0000
vt 0.4120 0.1256 0.0000
vt 0.4176 0.1255 0.0000
vt 0.0087 0.2403 0.0000
vt 0.0041 0.2395 0.0000
vt 0.0047 0.2349 0.0000
vt 0.0093 0.2356 0.0000
vt 0.1203 0.2984 0.0000
vt 0.1203 0.3030 0.0000
vt 0.6468 0.0723 0.0000
vt 0.6412 0.0724 0.0000
vt 0.6425 0.0683 0.0000
vt 0.6447 0.0682 0.0000
vt 0.6541 0.0318 0.0000
vt 0.7139 0.0565 0.0000
vt 0.3794 0.0969 0.0000
vt 0.3820 0.0943 0.0000
vt 0.3833 0.0989 0.0000
vt 0.3817 0.1005 0.0000
vt 0.7139 0.0672 0.0000
vt 0.6412 0.0345 0.0000
vt 0.6808 0.0096 0.0000
vt 0.6742 0.0086 0.0000
vt 0.6722 0.0005 0.0000
vt 0.6804 0.0044 0.0000
vt 0.4170 0.1742 0.0000
vt 0.4068 0.1701 0.0000
vt 0.4087 0.1553 0.0000
vt 0.4134 0.1572 0.0000
vt 0.1084 0.3032 0.0000
vt 0.0943 0.3026 0.0000
vt 0.1028 0.2876 0.0000
vt 0.1093 0.2879 0.0000
vt 0.0005 0.1499 0.0000
vt 0.0062 0.1463 0.0000
vt 0.0048 0.1651 0.0000
vt 0.0021 0.1667 0.0000
vt 0.7106 0.0694 0.0000
vt 0.7049 0.0680 0.0000
vt 0.0078 0.1676 0.0000
vt 0.0031 0.1706 0.0000
vt 0.0084 0.4050 0.0000
vt 0.0027 0.4047 0.0000
vt 0.0005 0.4006 0.0000
vt 0.0106 0.4010 0.0000
vt 0.4152 0.1534 0.0000
vt 0.4079 0.1508 0.0000
vt 0.4090 0.1463 0.0000
vt 0.4163 0.1489 0.0000
vt 0.1129 0.2843 0.0000
vt 0.1020 0.2833 0.0000
vt 0.1029 0.2789 0.0000
vt 0.1138 0.2799 0.0000
vt 0.0096 0.1718 0.0000
vt 0.0049 0.1747 0.0000
vt 0.0005 0.3964 0.0000
vt 0.0106 0.3968 0.0000
vt 0.0085 0.1763 0.0000
vt 0.0066 0.1776 0.0000
vt 0.3811 0.1054 0.0000
vt 0.3755 0.0967 0.0000
vt 0.0018 0.1914 0.0000
vt 0.0006 0.1880 0.0000
vt 0.0037 0.1888 0.0000
vt 0.0042 0.1904 0.0000
vt 0.2375 0.2714 0.0000
vt 0.2354 0.2821 0.0000
vt 0.2274 0.2820 0.0000
vt 0.2283 0.2770 0.0000
vt 0.0213 0.2750 0.0000
vt 0.0247 0.2714 0.0000
vt 0.0245 0.2836 0.0000
vt 0.0229 0.2853 0.0000
vt 0.7248 0.0736 0.0000
vt 0.7285 0.0734 0.0000
vt 0.7299 0.0790 0.0000
vt 0.7262 0.0792 0.0000
vt 0.7056 0.0377 0.0000
vt 0.7050 0.0393 0.0000
vt 0.7001 0.0364 0.0000
vt 0.7007 0.0349 0.0000
vt 0.7045 0.0419 0.0000
vt 0.6996 0.0391 0.0000
vt 0.1433 0.0203 0.0000
vt 0.1411 0.0195 0.0000
vt 0.1414 0.0161 0.0000
vt 0.1451 0.0174 0.0000
vt 0.6967 0.0395 0.0000
vt 0.6975 0.0350 0.0000
vt 0.7249 0.0819 0.0000
vt 0.7309 0.0814 0.0000
vt 0.7305 0.0848 0.0000
vt 0.7245 0.0853 0.0000
vt 0.6250 0.0719 0.0000
vt 0.6204 0.0684 0.0000
vt 0.6220 0.0654 0.0000
vt 0.6266 0.0688 0.0000
vt 0.6985 0.0323 0.0000
vt 0.6941 0.0345 0.0000
vt 0.6951 0.0318 0.0000
vt 0.6933 0.0390 0.0000
vt 0.6203 0.0631 0.0000
vt 0.6233 0.0630 0.0000
vt 0.6240 0.0640 0.0000
vt 0.0061 0.1921 0.0000
vt 0.0005 0.1946 0.0000
vt 0.2086 0.0005 0.0000
vt 0.2137 0.0308 0.0000
vt 0.6273 0.4785 0.0000
vt 0.6214 0.4947 0.0000
vt 0.6012 0.4874 0.0000
vt 0.6031 0.4823 0.0000
vt 0.6155 0.5109 0.0000
vt 0.5993 0.4926 0.0000
vt 0.5441 0.5109 0.0000
vt 0.5360 0.4947 0.0000
vt 0.5741 0.4947 0.0000
vt 0.5767 0.4998 0.0000
vt 0.5716 0.4895 0.0000
vt 0.9401 0.0751 0.0000
vt 0.9463 0.0611 0.0000
vt 0.9591 0.0634 0.0000
vt 0.9572 0.0678 0.0000
vt 0.9611 0.0590 0.0000
vt 0.6622 0.0702 0.0000
vt 0.6308 0.0626 0.0000
vt 0.6323 0.0474 0.0000
vt 0.6638 0.0550 0.0000
vt 0.3234 0.3547 0.0000
vt 0.3286 0.3566 0.0000
vt 0.3286 0.3718 0.0000
vt 0.3234 0.3699 0.0000
vt 0.3337 0.3585 0.0000
vt 0.3337 0.3737 0.0000
vt 0.2944 0.2978 0.0000
vt 0.3178 0.2974 0.0000
vt 0.3156 0.3126 0.0000
vt 0.2922 0.3129 0.0000
vt 0.0681 0.3751 0.0000
vt 0.0629 0.3778 0.0000
vt 0.0629 0.3626 0.0000
vt 0.0681 0.3599 0.0000
vt 0.0578 0.3805 0.0000
vt 0.0578 0.3652 0.0000
vt 0.5110 0.0641 0.0000
vt 0.5143 0.0630 0.0000
vt 0.5137 0.0689 0.0000
vt 0.5110 0.0684 0.0000
vt 0.0248 0.1317 0.0000
vt 0.0005 0.1170 0.0000
vt 0.6194 0.0587 0.0000
vt 0.6361 0.0308 0.0000
vt 0.1772 0.1007 0.0000
vt 0.1677 0.1033 0.0000
vt 0.1658 0.0988 0.0000
vt 0.1785 0.0976 0.0000
vt 0.6472 0.0062 0.0000
vt 0.6470 0.0112 0.0000
vt 0.6394 0.0100 0.0000
vt 0.6414 0.0005 0.0000
vt 0.6350 0.0111 0.0000
vt 0.6363 0.0006 0.0000
vt 0.6413 0.0165 0.0000
vt 0.6375 0.0176 0.0000
vt 0.1408 0.2912 0.0000
vt 0.1401 0.2818 0.0000
vt 0.1443 0.2820 0.0000
vt 0.1442 0.2931 0.0000
vt 0.0282 0.3281 0.0000
vt 0.0265 0.3223 0.0000
vt 0.0316 0.3201 0.0000
vt 0.0345 0.3285 0.0000
vt 0.6308 0.0110 0.0000
vt 0.6321 0.0007 0.0000
vt 0.8750 0.5482 0.0000
vt 0.8682 0.5480 0.0000
vt 0.8685 0.5435 0.0000
vt 0.8748 0.5434 0.0000
vt 0.1484 0.2829 0.0000
vt 0.1482 0.2943 0.0000
vt 0.0358 0.3182 0.0000
vt 0.0391 0.3271 0.0000
vt 0.1565 0.2821 0.0000
vt 0.1568 0.2871 0.0000
vt 0.1551 0.2900 0.0000
vt 0.1543 0.2852 0.0000
vt 0.0033 0.2451 0.0000
vt 0.0017 0.2448 0.0000
vt 0.0005 0.2390 0.0000
vt 0.2620 0.0067 0.0000
vt 0.2619 0.0113 0.0000
vt 0.0318 0.3500 0.0000
vt 0.0330 0.3447 0.0000
vt 0.1007 0.2501 0.0000
vt 0.1020 0.2500 0.0000
vt 0.2401 0.0117 0.0000
vt 0.2402 0.0066 0.0000
vt 0.0546 0.3479 0.0000
vt 0.0533 0.3538 0.0000
vt 0.1022 0.2718 0.0000
vt 0.1007 0.2719 0.0000
vt 0.4629 0.5366 0.0000
vt 0.4485 0.5313 0.0000
vt 0.3703 0.5299 0.0000
vt 0.3469 0.5100 0.0000
vt 0.9164 0.0938 0.0000
vt 0.8308 0.0938 0.0000
vt 0.8320 0.0018 0.0000
vt 0.9788 0.0005 0.0000
vt 0.7452 0.0938 0.0000
vt 0.6828 0.0005 0.0000
vt 0.1459 0.7972 0.0000
vt 0.1459 0.8683 0.0000
vt 0.0529 0.8644 0.0000
vt 0.0526 0.7453 0.0000
vt 0.1459 0.9395 0.0000
vt 0.0526 0.9913 0.0000
vt 0.3385 0.4376 0.0000
vt 0.3535 0.3851 0.0000
vt 0.3234 0.4901 0.0000
vt 0.4993 0.4817 0.0000
vt 0.4996 0.5433 0.0000
vt 0.4852 0.5380 0.0000
vt 0.4852 0.4808 0.0000
vt 0.3876 0.5287 0.0000
vt 0.4111 0.4466 0.0000
vt 0.4244 0.4589 0.0000
vt 0.4048 0.5274 0.0000
vt 0.1372 0.0061 0.0000
vt 0.1652 0.0056 0.0000
vt 0.1621 0.0101 0.0000
vt 0.1384 0.0117 0.0000
vt 0.6048 0.0602 0.0000
vt 0.5791 0.0519 0.0000
vt 0.5796 0.0474 0.0000
vt 0.6031 0.0556 0.0000
vt 0.9812 0.1148 0.0000
vt 0.1359 0.0005 0.0000
vt 0.1682 0.0011 0.0000
vt 0.6065 0.0647 0.0000
vt 0.5787 0.0565 0.0000
vt 0.2873 0.0094 0.0000
vt 0.3017 0.0169 0.0000
vt 0.2976 0.0276 0.0000
vt 0.2814 0.0193 0.0000
vt 0.3161 0.0243 0.0000
vt 0.3138 0.0360 0.0000
vt 0.3305 0.0318 0.0000
vt 0.3301 0.0444 0.0000
vt 0.2733 0.3321 0.0000
vt 0.2753 0.3315 0.0000
vt 0.2753 0.3337 0.0000
vt 0.2734 0.3349 0.0000
vt 0.0578 0.0181 0.0000
vt 0.1313 0.0005 0.0000
vt 0.1347 0.0152 0.0000
vt 0.0579 0.0288 0.0000
vt 0.3495 0.0547 0.0000
vt 0.3497 0.0385 0.0000
vt 0.3609 0.0422 0.0000
vt 0.3609 0.0602 0.0000
vt 0.3497 0.0225 0.0000
vt 0.3611 0.0240 0.0000
vt 0.3499 0.0063 0.0000
vt 0.3613 0.0057 0.0000
vt 0.8077 0.5108 0.0000
vt 0.7974 0.5100 0.0000
vt 0.1175 0.0322 0.0000
vt 0.0823 0.0396 0.0000
vt 0.0809 0.0337 0.0000
vt 0.1174 0.0277 0.0000
vt 0.0345 0.2996 0.0000
vt 0.0075 0.3522 0.0000
vt 0.0103 0.3369 0.0000
vt 0.0289 0.3050 0.0000
vt 0.1248 0.0213 0.0000
vt 0.0630 0.0398 0.0000
vt 0.4652 0.0225 0.0000
vt 0.4656 0.0249 0.0000
vt 0.2956 0.0939 0.0000
vt 0.2959 0.0992 0.0000
vt 0.4173 0.1119 0.0000
vt 0.4120 0.1128 0.0000
vt 0.4226 0.1128 0.0000
vt 0.3933 0.0732 0.0000
vt 0.3884 0.0711 0.0000
vt 0.3982 0.0752 0.0000
vt 0.2257 0.0887 0.0000
vt 0.2249 0.0940 0.0000
vt 0.2249 0.0834 0.0000
vt 0.2961 0.1045 0.0000
vt 0.3090 0.0850 0.0000
vt 0.3137 0.0874 0.0000
vt 0.0267 0.3835 0.0000
vt 0.0214 0.3814 0.0000
vt 0.0214 0.3703 0.0000
vt 0.0267 0.3706 0.0000
vt 0.0161 0.3835 0.0000
vt 0.0161 0.3706 0.0000
vt 0.3762 0.0859 0.0000
vt 0.3755 0.0807 0.0000
vt 0.3768 0.0912 0.0000
vt 0.3130 0.3307 0.0000
vt 0.3183 0.3287 0.0000
vt 0.3183 0.3518 0.0000
vt 0.3130 0.3521 0.0000
vt 0.3236 0.3307 0.0000
vt 0.3236 0.3521 0.0000
vt 0.3184 0.0898 0.0000
vt 0.4172 0.0149 0.0000
vt 0.4289 0.0005 0.0000
vt 0.4289 0.1717 0.0000
vt 0.4172 0.1573 0.0000
vt 0.2638 0.3333 0.0000
vt 0.2728 0.3570 0.0000
vt 0.1434 0.3663 0.0000
vt 0.1222 0.3315 0.0000
vt 0.5609 0.2097 0.0000
vt 0.4745 0.1163 0.0000
vt 0.4933 0.0013 0.0000
vt 0.5049 0.0150 0.0000
vt 0.5049 0.1572 0.0000
vt 0.4933 0.1709 0.0000
vt 0.0109 0.3544 0.0000
vt 0.0193 0.3391 0.0000
vt 0.0971 0.2354 0.0000
vt 0.1022 0.2315 0.0000
vt 0.4514 0.0460 0.0000
vt 0.4380 0.0530 0.0000
vt 0.5182 0.0569 0.0000
vt 0.5110 0.0502 0.0000
vt 0.5392 0.0467 0.0000
vt 0.5389 0.0517 0.0000
vt 0.5124 0.0435 0.0000
vt 0.5394 0.0457 0.0000
vt 0.1524 0.1010 0.0000
vt 0.1503 0.1055 0.0000
vt 0.1253 0.1039 0.0000
vt 0.1253 0.0999 0.0000
vt 0.5266 0.0676 0.0000
vt 0.5312 0.0578 0.0000
vt 0.5514 0.0645 0.0000
vt 0.5515 0.0686 0.0000
vt 0.0082 0.2769 0.0000
vt 0.0021 0.2828 0.0000
vt 0.0005 0.2777 0.0000
vt 0.0021 0.2766 0.0000
vt 0.4795 0.0114 0.0000
vt 0.4693 0.0115 0.0000
vt 0.4755 0.0057 0.0000
vt 0.4778 0.0060 0.0000
vt 0.2723 0.4065 0.0000
vt 0.2721 0.4105 0.0000
vt 0.2707 0.4142 0.0000
vt 0.2709 0.3668 0.0000
vt 0.4076 0.1446 0.0000
vt 0.3964 0.1376 0.0000
vt 0.4004 0.0973 0.0000
vt 0.4060 0.0974 0.0000
vt 0.3972 0.0786 0.0000
vt 0.4004 0.0863 0.0000
vt 0.4063 0.0874 0.0000
vt 0.4050 0.0916 0.0000
vt 0.1343 0.2786 0.0000
vt 0.1391 0.2766 0.0000
vt 0.1267 0.2927 0.0000
vt 0.1240 0.2928 0.0000
vt 0.0985 0.1835 0.0000
vt 0.1038 0.1811 0.0000
vt 0.1034 0.2003 0.0000
vt 0.1011 0.2009 0.0000
vt 0.0094 0.2647 0.0000
vt 0.0020 0.2604 0.0000
vt 0.0058 0.2455 0.0000
vt 0.1273 0.2774 0.0000
vt 0.1233 0.2928 0.0000
vt 0.2779 0.0252 0.0000
vt 0.2714 0.0252 0.0000
vt 0.2739 0.0215 0.0000
vt 0.2759 0.0213 0.0000
vt 0.3807 0.1163 0.0000
vt 0.3811 0.1099 0.0000
vt 0.3846 0.1122 0.0000
vt 0.3844 0.1142 0.0000
vt 0.0943 0.3131 0.0000
vt 0.0943 0.3078 0.0000
vt 0.0982 0.3101 0.0000
vt 0.0985 0.3128 0.0000
vt 0.6635 0.0008 0.0000
vt 0.6603 0.0137 0.0000
vt 0.6550 0.0502 0.0000
vt 0.6521 0.0455 0.0000
vt 0.5735 0.0709 0.0000
vt 0.5788 0.0630 0.0000
vt 0.5945 0.0682 0.0000
vt 0.5958 0.0693 0.0000
vt 0.6801 0.0281 0.0000
vt 0.6620 0.0212 0.0000
vt 0.6459 0.0141 0.0000
vt 0.1369 0.2877 0.0000
vt 0.1359 0.2842 0.0000
vt 0.0110 0.1631 0.0000
vt 0.0109 0.1527 0.0000
vt 0.0186 0.1552 0.0000
vt 0.0177 0.1601 0.0000
vt 0.0168 0.1463 0.0000
vt 0.0208 0.1521 0.0000
vt 0.0431 0.3202 0.0000
vt 0.0439 0.3231 0.0000
vt 0.1801 0.0046 0.0000
vt 0.1724 0.0047 0.0000
vt 0.1745 0.0005 0.0000
vt 0.1782 0.0006 0.0000
vt 0.1059 0.2766 0.0000
vt 0.1107 0.2768 0.0000
vt 0.2217 0.1053 0.0000
vt 0.1570 0.1058 0.0000
vt 0.1529 0.0960 0.0000
vt 0.2257 0.0954 0.0000
vt 0.0137 0.3839 0.0000
vt 0.0005 0.3834 0.0000
vt 0.0077 0.3759 0.0000
vt 0.0120 0.3761 0.0000
vt 0.1577 0.0961 0.0000
vt 0.1609 0.0946 0.0000
vt 0.0073 0.3703 0.0000
vt 0.0116 0.3705 0.0000
vt 0.2752 0.3668 0.0000
vt 0.2754 0.3711 0.0000
vt 0.2730 0.3711 0.0000
vt 0.2728 0.3668 0.0000
vt 0.2180 0.2740 0.0000
vt 0.2163 0.2811 0.0000
vt 0.2141 0.2792 0.0000
vt 0.2148 0.2755 0.0000
vt 0.6266 0.0659 0.0000
vt 0.9754 0.0842 0.0000
vt 0.9854 0.0988 0.0000
vt 0.9719 0.0872 0.0000
vt 0.9684 0.0901 0.0000
vt 0.1034 0.2014 0.0000
vt 0.1038 0.2302 0.0000
vt 0.0996 0.2310 0.0000
vt 0.0991 0.2022 0.0000
vt 0.6859 0.0109 0.0000
vt 0.6874 0.0164 0.0000
vt 0.6844 0.0195 0.0000
vt 0.6828 0.0140 0.0000
vt 0.6890 0.0217 0.0000
vt 0.6860 0.0248 0.0000
vt 0.0191 0.2627 0.0000
vt 0.0149 0.2863 0.0000
vt 0.0109 0.2845 0.0000
vt 0.0152 0.2609 0.0000
vt 0.4157 0.1789 0.0000
vt 0.4157 0.1838 0.0000
vt 0.4120 0.1825 0.0000
vt 0.4120 0.1776 0.0000
vt 0.4157 0.1887 0.0000
vt 0.4120 0.1873 0.0000
# 940 texture coords

o Phantom_of_the_Apple
g Phantom_of_the_Apple
usemtl wire_088177027
s 1
f 1/1/1 2/2/1 3/3/1 
f 1/1/1 4/4/1 2/2/1 
f 1/1/1 5/5/1 4/4/1 
f 1/1/1 6/6/1 5/5/1 
f 1/1/1 7/7/1 6/6/1 
f 1/1/1 8/8/1 7/7/1 
f 1/1/1 9/9/1 8/8/1 
f 1/1/1 3/3/1 9/9/1 
f 3/3/1 2/2/1 10/10/2 11/11/3 
f 2/2/1 4/4/1 12/12/4 10/10/2 
f 4/4/1 5/5/1 13/13/5 12/12/4 
f 5/5/1 6/6/1 14/14/6 13/13/5 
f 6/6/1 7/7/1 15/15/7 14/14/6 
f 7/7/1 8/8/1 16/16/8 15/15/7 
f 8/8/1 9/9/1 17/17/9 16/16/8 
f 9/9/1 3/3/1 11/11/3 17/17/9 
s 8
f 11/18/3 10/19/2 18/20/10 19/21/11 
f 10/22/2 12/23/4 20/24/12 18/25/10 
f 12/23/4 13/26/5 21/27/13 20/24/12 
f 13/28/5 14/29/6 22/30/14 21/31/13 
f 14/29/6 15/32/7 23/33/15 22/30/14 
f 15/34/7 16/35/8 24/36/16 23/37/15 
f 16/35/8 17/38/9 25/39/17 24/36/16 
f 17/40/9 11/18/3 19/21/11 25/41/17 
f 19/21/11 18/20/10 26/42/10 27/43/11 
f 18/25/10 20/24/12 28/44/12 26/45/10 
f 20/24/12 21/27/13 29/46/13 28/44/12 
f 21/31/13 22/30/14 30/47/14 29/48/13 
f 22/30/14 23/33/15 31/49/15 30/47/14 
f 23/37/15 24/36/16 32/50/16 31/51/15 
f 24/36/16 25/39/17 33/52/17 32/50/16 
f 25/41/17 19/21/11 27/43/11 33/53/17 
f 27/43/11 26/42/10 34/54/10 35/55/11 
f 26/45/10 28/44/12 36/56/12 34/57/10 
f 28/44/12 29/46/13 37/58/13 36/56/12 
f 29/48/13 30/47/14 38/59/14 37/60/13 
f 30/47/14 31/49/15 39/61/15 38/59/14 
f 31/51/15 32/50/16 40/62/16 39/63/15 
f 32/50/16 33/52/17 41/64/17 40/62/16 
f 33/53/17 27/43/11 35/55/11 41/65/17 
f 35/55/11 34/54/10 42/66/10 43/67/11 
f 34/57/10 36/56/12 44/68/12 42/69/10 
f 36/56/12 37/58/13 45/70/13 44/68/12 
f 37/60/13 38/59/14 46/71/14 45/72/13 
f 38/59/14 39/61/15 47/73/15 46/71/14 
f 39/63/15 40/62/16 48/74/16 47/75/15 
f 40/62/16 41/64/17 49/76/17 48/74/16 
f 41/65/17 35/55/11 43/67/11 49/77/17 
f 43/67/11 42/66/10 50/78/18 51/79/19 
f 42/69/10 44/68/12 52/80/20 50/81/18 
f 44/68/12 45/70/13 53/82/21 52/80/20 
f 45/72/13 46/71/14 54/83/22 53/84/21 
f 46/71/14 47/73/15 55/85/23 54/83/22 
f 47/75/15 48/74/16 56/86/16 55/87/23 
f 48/74/16 49/76/17 57/88/24 56/86/16 
f 49/77/17 43/67/11 51/79/19 57/89/24 
s 1
f 58/90/25 59/91/26 60/92/27 61/93/28 
f 59/91/26 62/94/29 63/95/30 60/92/27 
f 62/94/29 64/96/31 65/97/32 63/95/30 
f 64/96/31 66/98/33 67/99/34 65/97/32 
f 66/98/33 68/100/35 69/101/36 67/99/34 
f 68/100/35 70/102/37 71/103/38 69/101/36 
f 70/102/37 72/104/39 73/105/40 71/103/38 
f 72/104/39 58/90/25 61/93/28 73/105/40 
f 74/106/41 75/107/42 76/108/43 
f 74/106/41 76/108/43 77/109/44 
f 74/106/41 77/109/44 78/110/45 
f 74/106/41 78/110/45 79/111/46 
f 74/106/41 79/111/46 80/112/47 
f 74/106/41 80/112/47 81/113/48 
f 74/106/41 81/113/48 82/114/49 
f 74/106/41 82/114/49 75/107/42 
s off
f 83/115/50 84/116/51 85/117/52 86/118/53 
f 84/116/51 87/119/54 88/120/55 85/117/52 
f 87/119/54 89/121/56 90/122/57 88/120/55 
f 89/121/56 91/123/58 92/124/59 90/122/57 
f 91/123/58 93/125/60 94/126/61 92/124/59 
f 93/125/60 95/127/62 96/128/63 94/126/61 
f 95/127/62 97/129/64 98/130/65 96/128/63 
f 97/129/64 83/115/50 86/118/53 98/130/65 
f 86/131/53 85/132/52 99/133/66 100/134/67 
f 101/135/68 102/136/69 103/137/70 
f 101/138/68 104/139/71 105/140/72 102/141/69 
f 104/139/71 106/142/73 107/143/74 105/140/72 
f 94/144/61 96/145/63 108/146/75 
f 96/145/63 98/147/65 109/148/76 108/146/75 
f 98/149/65 86/131/53 100/134/67 109/150/76 
f 110/151/77 111/152/78 112/153/79 
f 113/154/80 114/155/81 115/156/82 116/157/83 
f 114/155/81 117/158/84 118/159/85 115/156/82 
f 119/160/86 120/161/87 121/162/88 
f 122/163/89 123/164/90 124/165/91 125/166/92 
f 61/93/28 60/92/27 126/167/93 127/168/94 
f 60/92/27 63/95/30 128/169/95 126/167/93 
f 63/95/30 65/97/32 129/170/96 128/169/95 
f 65/97/32 67/99/34 130/171/97 129/170/96 
f 67/99/34 69/101/36 131/172/98 130/171/97 
f 69/101/36 71/103/38 132/173/99 131/172/98 
f 71/103/38 73/105/40 133/174/100 132/173/99 
f 73/105/40 61/93/28 127/168/94 133/174/100 
f 134/175/101 135/176/102 136/177/103 137/178/104 
f 135/179/102 138/180/105 139/181/106 136/182/103 
f 138/180/105 140/183/107 141/184/108 139/181/106 
f 140/185/107 142/186/109 143/187/110 141/188/108 
f 142/186/109 144/189/111 145/190/112 143/187/110 
f 144/191/111 146/192/113 147/193/114 145/194/112 
f 146/192/113 148/195/115 149/196/116 147/193/114 
f 148/197/115 134/175/101 137/178/104 149/198/116 
f 150/199/117 151/200/118 152/201/119 153/202/120 
f 151/200/118 154/203/121 155/204/122 152/201/119 
f 154/203/121 156/205/123 157/206/124 155/204/122 
f 156/205/123 158/207/125 159/208/126 157/206/124 
f 158/207/125 160/209/127 161/210/128 159/208/126 
f 55/87/23 56/86/16 162/211/16 163/212/129 
f 56/86/16 57/88/24 164/213/130 162/211/16 
f 165/214/131 150/199/117 153/202/120 166/215/132 
f 167/216/133 168/217/134 169/218/135 170/219/136 
f 171/220/137 172/221/138 173/222/139 174/223/140 
f 172/221/138 175/224/141 176/225/142 173/222/139 
f 163/212/129 162/211/16 95/226/62 93/227/60 
f 162/211/16 164/213/130 97/228/64 95/226/62 
f 177/229/143 167/216/133 170/219/136 178/230/144 
f 179/231/145 180/232/146 181/233/147 182/234/148 
f 180/232/146 183/235/149 184/236/150 181/233/147 
f 183/235/149 185/237/151 186/238/152 184/236/150 
f 185/237/151 187/239/153 188/240/154 186/238/152 
f 187/239/153 163/241/129 189/242/155 188/240/154 
f 93/243/60 91/244/58 190/245/156 191/246/157 
f 91/244/58 89/247/56 192/248/158 190/245/156 
f 89/247/56 87/249/54 193/250/159 192/248/158 
f 87/249/54 84/251/51 194/252/160 193/250/159 
f 84/251/51 83/253/50 195/254/161 194/252/160 
f 83/253/50 97/255/64 196/256/162 195/254/161 
f 164/257/130 179/231/145 182/234/148 197/258/163 
f 182/259/148 181/260/147 168/261/134 167/262/133 
f 186/263/152 188/264/154 172/265/138 171/266/137 
f 188/267/154 189/268/155 175/269/141 172/270/138 
f 191/271/157 190/272/156 173/273/139 176/274/142 
f 190/272/156 192/275/158 174/276/140 173/273/139 
f 194/277/160 195/278/161 170/279/136 169/280/135 
f 195/278/161 196/281/162 178/282/144 170/279/136 
f 197/283/163 182/259/148 167/262/133 177/284/143 
f 51/285/19 50/286/18 198/287/164 199/288/165 
f 50/286/18 52/289/20 200/290/166 198/287/164 
f 52/289/20 53/291/21 201/292/167 200/290/166 
f 53/291/21 54/293/22 202/294/168 201/292/167 
f 54/293/22 55/295/23 203/296/169 202/294/168 
f 163/297/129 187/298/153 204/299/170 205/300/171 
f 187/298/153 185/301/151 206/302/172 204/299/170 
f 185/301/151 183/303/149 207/304/173 206/302/172 
f 183/303/149 180/305/146 208/306/174 207/304/173 
f 180/305/146 179/307/145 209/308/175 208/306/174 
f 179/307/145 164/309/130 210/310/176 209/308/175 
f 57/311/24 51/285/19 199/288/165 211/312/177 
f 199/313/165 198/314/164 212/315/178 213/316/179 
f 198/317/164 200/318/166 214/319/180 212/320/178 
f 200/318/166 201/321/167 215/322/181 214/319/180 
f 201/323/167 202/324/168 216/325/182 215/326/181 
f 202/324/168 203/327/169 217/328/183 216/325/182 
f 203/327/169 205/329/171 218/330/184 217/328/183 
f 205/331/171 204/332/170 219/333/185 218/334/184 
f 204/332/170 206/335/172 220/336/186 219/333/185 
f 206/337/172 207/338/173 221/339/187 220/340/186 
f 207/338/173 208/341/174 222/342/188 221/339/187 
f 208/343/174 209/344/175 223/345/189 222/346/188 
f 209/344/175 210/347/176 224/348/190 223/345/189 
f 210/349/176 211/350/177 225/351/191 224/352/190 
f 211/350/177 199/313/165 213/316/179 225/351/191 
f 213/316/179 212/315/178 151/353/118 150/354/117 
f 212/320/178 214/319/180 154/355/121 151/356/118 
f 214/319/180 215/322/181 156/357/123 154/355/121 
f 215/326/181 216/325/182 158/358/125 156/359/123 
f 216/325/182 217/328/183 160/360/127 158/358/125 
f 217/328/183 218/330/184 161/361/128 160/360/127 
f 218/334/184 219/333/185 159/362/126 161/363/128 
f 219/333/185 220/336/186 157/364/124 159/362/126 
f 220/340/186 221/339/187 155/365/122 157/366/124 
f 221/339/187 222/342/188 152/367/119 155/365/122 
f 222/346/188 223/345/189 153/368/120 152/369/119 
f 223/345/189 224/348/190 166/370/132 153/368/120 
f 224/352/190 225/351/191 165/371/131 166/372/132 
f 225/351/191 213/316/179 150/354/117 165/371/131 
f 115/156/82 66/373/33 64/374/31 116/157/83 
f 118/159/85 68/375/35 66/373/33 115/156/82 
f 121/162/88 70/376/37 68/377/35 118/378/85 
f 120/161/87 72/379/39 70/376/37 121/162/88 
f 226/380/192 58/381/25 72/382/39 120/383/87 
f 227/384/193 228/385/194 229/386/195 230/387/196 
f 231/388/72 232/389/72 233/390/197 234/391/198 
f 235/392/199 236/393/200 232/389/72 231/388/72 
f 230/387/196 229/386/195 237/394/201 238/395/202 
f 99/133/66 227/384/193 230/387/196 100/134/67 
f 105/140/72 231/388/72 234/391/198 102/141/69 
f 107/143/74 235/392/199 231/388/72 105/140/72 
f 100/134/67 230/387/196 238/395/202 109/150/76 
f 228/385/194 239/396/203 123/397/90 229/386/195 
f 232/389/72 114/155/81 113/154/80 233/390/197 
f 236/393/200 117/158/84 114/155/81 232/389/72 
f 229/386/195 123/397/90 122/398/89 237/394/201 
f 240/399/204 122/400/89 125/401/92 
f 241/402/205 239/403/203 242/404/206 
f 243/405/207 107/406/74 106/407/73 
f 244/408/208 88/409/55 90/410/57 
f 90/122/57 92/124/59 104/411/71 101/412/68 
f 92/124/59 94/126/61 106/413/73 104/411/71 
f 245/414/209 246/415/210 247/416/211 248/417/212 
f 135/176/102 134/175/101 127/418/94 126/419/93 
f 134/175/101 148/197/115 133/420/100 127/418/94 
f 148/195/115 146/192/113 132/421/99 133/422/100 
f 146/192/113 144/191/111 131/423/98 132/421/99 
f 144/189/111 142/186/109 130/424/97 131/425/98 
f 142/186/109 140/185/107 129/426/96 130/424/97 
f 140/183/107 138/180/105 128/427/95 129/428/96 
f 138/180/105 135/179/102 126/429/93 128/427/95 
f 249/430/213 250/431/214 251/432/215 252/433/216 
f 253/434/217 254/435/218 255/436/219 256/437/220 
f 255/438/219 257/439/221 258/440/222 259/441/223 
f 257/442/221 260/443/224 261/444/225 258/445/222 
f 260/446/224 256/447/220 262/448/226 261/449/225 
f 256/437/220 255/436/219 259/450/223 262/451/226 
f 262/451/226 259/450/223 249/452/213 252/453/216 
f 263/454/227 264/455/228 265/456/229 266/457/230 
f 264/455/228 267/458/231 268/459/232 265/456/229 
f 267/460/231 269/461/233 270/462/234 268/463/232 
f 269/464/233 263/465/227 266/466/230 270/467/234 
f 266/468/230 265/469/229 271/470/235 272/471/236 
f 268/463/232 270/462/234 273/472/237 274/473/238 
f 275/474/239 276/475/240 277/476/241 278/477/242 
f 279/478/243 278/479/242 280/480/244 281/481/245 
f 278/477/242 277/476/241 282/482/246 280/483/244 
f 277/484/241 283/485/247 284/486/248 282/487/246 
f 283/488/247 279/478/243 281/481/245 284/489/248 
f 280/490/244 282/491/246 285/492/249 286/493/250 
f 125/494/92 124/495/91 246/415/210 245/414/209 
f 287/496/251 288/497/252 289/498/253 290/499/254 
f 226/500/192 120/501/87 248/417/212 247/416/211 
f 291/502/255 292/503/256 293/504/257 294/505/258 
f 124/506/91 226/507/192 295/508/259 296/509/260 
f 226/510/192 247/511/211 297/512/261 295/513/259 
f 247/514/211 246/515/210 298/516/262 297/517/261 
f 246/415/210 124/495/91 296/518/260 298/519/262 
f 297/517/261 298/516/262 299/520/263 300/521/264 
f 298/522/262 296/523/260 301/524/265 299/525/263 
f 301/526/265 302/527/266 303/528/267 304/529/268 
f 302/530/266 300/531/264 305/532/269 303/533/267 
f 300/521/264 299/520/263 306/534/270 305/535/269 
f 299/525/263 301/524/265 304/536/268 306/537/270 
f 305/535/269 306/534/270 290/538/254 289/539/253 
f 306/540/270 304/541/268 287/496/251 290/499/254 
f 307/542/271 308/543/272 309/544/273 310/545/274 
f 241/546/205 112/547/79 311/548/275 312/549/276 
f 313/550/277 314/551/278 315/552/279 316/553/280 
f 312/554/276 311/555/275 317/556/281 318/557/282 
f 316/558/280 315/559/279 319/560/283 320/561/284 
f 315/559/279 312/562/276 318/563/282 319/560/283 
f 320/564/284 319/565/283 321/566/285 322/567/286 
f 319/560/283 318/563/282 323/568/287 321/569/285 
f 323/570/287 324/571/288 325/572/289 326/573/290 
f 324/574/288 322/575/286 327/576/291 325/577/289 
f 322/578/286 321/569/285 328/579/292 327/580/291 
f 321/569/285 323/568/287 326/581/290 328/579/292 
f 327/576/291 328/582/292 310/583/274 309/584/273 
f 328/585/292 326/586/290 307/542/271 310/545/274 
f 168/217/134 329/587/293 330/588/294 169/218/135 
f 117/589/84 236/590/200 331/591/295 332/592/296 
f 236/590/200 235/593/199 333/594/297 331/591/295 
f 334/595/298 335/596/299 336/597/300 337/598/301 
f 335/596/299 119/160/86 338/599/302 336/597/300 
f 238/600/202 237/601/201 339/602/303 340/603/304 
f 237/601/201 122/400/89 341/604/305 339/602/303 
f 338/605/302 332/606/296 342/607/306 343/608/307 
f 332/609/296 331/610/295 344/611/308 342/612/306 
f 331/610/295 333/613/297 345/614/309 344/611/308 
f 333/615/297 337/616/301 346/617/310 345/618/309 
f 337/619/301 336/620/300 347/621/311 346/622/310 
f 336/620/300 338/623/302 343/624/307 347/621/311 
f 318/557/282 317/556/281 324/571/288 323/570/287 
f 320/625/284 322/626/286 324/627/288 317/628/281 
f 239/629/203 241/630/205 124/165/91 123/164/90 
f 59/631/26 58/381/25 226/380/192 112/632/79 
f 348/633/312 314/634/278 313/635/277 349/636/313 
f 296/509/260 295/508/259 302/527/266 301/526/265 
f 295/513/259 297/512/261 300/531/264 302/530/266 
f 292/637/256 350/638/314 351/639/315 293/640/257 
f 293/640/257 351/639/315 352/641/316 353/642/317 
f 351/639/315 354/643/318 355/644/319 352/641/316 
f 354/645/318 294/646/258 356/647/320 355/648/319 
f 294/649/258 293/650/257 353/651/317 356/652/320 
f 353/642/317 352/641/316 357/653/321 358/654/322 
f 352/655/316 355/656/319 359/657/323 357/658/321 
f 355/648/319 356/647/320 360/659/324 359/660/323 
f 356/652/320 353/651/317 358/661/322 360/662/324 
f 361/663/325 362/664/326 363/665/327 364/666/328 
f 365/667/329 366/668/330 279/669/243 283/485/247 
f 254/670/218 367/671/331 257/439/221 255/438/219 
f 367/672/331 368/673/332 260/443/224 257/442/221 
f 368/674/332 253/675/217 256/447/220 260/446/224 
f 259/441/223 258/440/222 250/676/214 249/677/213 
f 258/445/222 261/444/225 251/678/215 250/679/214 
f 261/449/225 262/448/226 252/680/216 251/681/215 
f 88/409/55 244/408/208 99/682/66 85/683/52 
f 113/684/80 116/685/83 111/152/78 110/151/77 
f 119/160/86 121/162/88 118/378/85 117/589/84 
f 329/587/293 171/220/137 174/223/140 330/588/294 
f 181/686/147 184/687/150 329/688/293 168/689/134 
f 184/687/150 186/690/152 171/691/137 329/688/293 
f 192/692/158 193/693/159 330/694/294 174/695/140 
f 193/693/159 194/696/160 169/697/135 330/694/294 
f 62/698/29 59/699/26 112/153/79 111/152/78 
f 64/700/31 62/698/29 111/152/78 116/685/83 
f 369/701/333 228/702/194 227/703/193 370/704/334 
f 233/705/197 371/706/335 372/707/336 234/708/198 
f 347/709/311 344/710/308 345/711/309 346/712/310 
f 373/713/337 374/714/338 375/715/339 376/716/340 
f 370/704/334 227/703/193 99/682/66 244/408/208 
f 234/708/198 372/707/336 103/137/70 102/136/69 
f 334/595/298 235/593/199 107/406/74 243/405/207 
f 238/600/202 377/717/341 108/146/75 109/148/76 
f 242/404/206 239/403/203 228/702/194 369/701/333 
f 113/684/80 110/151/77 371/706/335 233/705/197 
f 343/718/307 342/719/306 344/710/308 347/709/311 
f 378/720/342 379/721/343 374/714/338 373/713/337 
f 108/722/75 377/723/341 334/724/298 243/725/207 
f 377/723/341 380/726/344 335/727/299 334/724/298 
f 380/726/344 240/728/204 119/729/86 335/727/299 
f 381/730/345 286/731/250 285/732/249 382/733/346 
f 241/734/205 242/735/206 110/736/77 112/737/79 
f 242/738/206 369/739/333 371/740/335 110/741/77 
f 369/739/333 370/742/334 372/743/336 371/740/335 
f 370/742/334 244/744/208 103/745/70 372/743/336 
f 244/746/208 90/122/57 101/412/68 103/747/70 
f 383/748/347 384/749/348 385/750/349 386/751/350 
f 94/752/61 108/753/75 384/754/348 383/755/347 
f 106/756/73 386/751/350 385/750/349 243/757/207 
f 272/471/236 271/470/235 274/758/238 273/759/237 
f 137/178/104 136/177/103 387/760/351 388/761/352 
f 136/182/103 139/181/106 389/762/353 387/763/351 
f 139/181/106 141/184/108 390/764/354 389/762/353 
f 141/188/108 143/187/110 391/765/355 390/766/354 
f 143/187/110 145/190/112 392/767/356 391/765/355 
f 145/194/112 147/193/114 393/768/357 392/769/356 
f 147/193/114 149/196/116 394/770/358 393/768/357 
f 149/198/116 137/178/104 388/761/352 394/771/358 
f 388/761/352 387/760/351 76/772/43 75/773/42 
f 387/774/351 389/775/353 77/776/44 76/777/43 
f 389/775/353 390/778/354 78/779/45 77/776/44 
f 390/766/354 391/765/355 79/780/46 78/781/45 
f 391/765/355 392/767/356 80/782/47 79/780/46 
f 392/783/356 393/784/357 81/785/48 80/786/47 
f 393/784/357 394/787/358 82/788/49 81/785/48 
f 394/771/358 388/761/352 75/773/42 82/789/49 
f 163/212/129 93/227/60 191/790/157 189/791/155 
f 97/228/64 164/213/130 197/792/163 196/793/162 
f 189/794/155 191/795/157 176/796/142 175/797/141 
f 196/281/162 197/798/163 177/799/143 178/282/144 
f 55/87/23 163/212/129 205/800/171 203/801/169 
f 164/213/130 57/88/24 211/802/177 210/803/176 
f 108/722/75 243/725/207 367/671/331 254/670/218 
f 243/804/207 385/805/349 368/673/332 367/672/331 
f 385/806/349 384/807/348 253/675/217 368/674/332 
f 384/808/348 108/809/75 254/435/218 253/434/217 
f 106/810/73 94/811/61 395/812/359 396/813/360 
f 94/811/61 383/814/347 397/815/361 395/812/359 
f 383/816/347 386/817/350 398/818/362 397/819/361 
f 386/820/350 106/821/73 396/822/360 398/823/362 
f 396/813/360 395/812/359 264/455/228 263/454/227 
f 395/812/359 397/815/361 267/458/231 264/455/228 
f 397/819/361 398/818/362 269/461/233 267/460/231 
f 398/823/362 396/822/360 263/465/227 269/464/233 
f 265/824/229 268/825/232 274/826/238 271/827/235 
f 270/828/234 266/829/230 272/830/236 273/831/237 
f 399/832/363 400/833/364 240/834/204 125/835/92 
f 125/836/92 120/837/87 401/838/365 399/839/363 
f 401/838/365 120/837/87 119/840/86 402/841/366 
f 119/840/86 240/842/204 400/843/364 402/841/366 
f 400/844/364 399/845/363 275/846/239 366/847/330 
f 399/848/363 401/849/365 276/850/240 275/851/239 
f 401/852/365 402/853/366 365/667/329 276/854/240 
f 402/855/366 400/844/364 366/847/330 365/856/329 
f 366/847/330 275/846/239 278/479/242 279/478/243 
f 276/854/240 365/667/329 283/485/247 277/484/241 
f 281/857/245 280/858/244 286/859/250 381/860/345 
f 282/861/246 284/862/248 382/863/346 285/864/249 
f 284/865/248 281/866/245 381/867/345 382/868/346 
f 120/869/87 125/870/92 350/638/314 292/637/256 
f 125/494/92 245/414/209 403/871/367 350/872/314 
f 245/873/209 248/874/212 291/875/255 403/876/367 
f 248/877/212 120/878/87 292/503/256 291/502/255 
f 350/638/314 403/879/367 354/643/318 351/639/315 
f 403/880/367 291/881/255 294/646/258 354/645/318 
f 358/882/322 357/883/321 362/884/326 361/885/325 
f 357/883/321 359/886/323 363/887/327 362/884/326 
f 359/660/323 360/659/324 364/666/328 363/665/327 
f 360/662/324 358/661/322 361/888/325 364/889/328 
f 304/890/268 303/891/267 288/892/252 287/893/251 
f 303/533/267 305/532/269 289/894/253 288/895/252 
f 314/634/278 348/633/312 124/896/91 241/897/205 
f 112/898/79 226/899/192 349/636/313 313/635/277 
f 226/899/192 124/896/91 348/633/312 349/636/313 
f 112/900/79 313/901/277 316/902/280 311/903/275 
f 314/634/278 241/897/205 312/904/276 315/905/279 
f 320/906/284 317/907/281 311/903/275 316/902/280 
f 404/908/368 405/909/369 406/910/370 320/910/284 317/911/281 
f 326/912/290 325/913/289 308/914/272 307/915/271 
f 325/577/289 327/576/291 309/584/273 308/916/272 
f 119/160/86 117/589/84 332/592/296 338/599/302 
f 235/593/199 334/595/298 337/598/301 333/594/297 
f 341/604/305 122/400/89 240/399/204 407/917/371 
f 240/399/204 380/918/344 408/919/372 407/917/371 
f 380/918/344 377/717/341 409/920/373 408/919/372 
f 377/717/341 238/600/202 340/603/304 409/920/373 
f 341/921/305 407/922/371 379/923/343 378/924/342 
f 407/925/371 408/926/372 374/927/338 379/928/343 
f 408/926/372 409/929/373 375/930/339 374/927/338 
f 409/931/373 340/932/304 376/933/340 375/934/339 
f 340/935/304 339/936/303 373/937/337 376/938/340 
f 339/936/303 341/939/305 378/940/342 373/937/337 
# 393 polygons - 24 triangles

